<svg width="429" height="624" viewBox="0 0 429 624" fill="none" xmlns="http://www.w3.org/2000/svg">
<mask id="mask0_1403_68465" style="mask-type:alpha" maskUnits="userSpaceOnUse" x="0" y="7" width="221" height="606">
<path d="M201.64 10.6607L19.9872 115.46C9.78185 121.348 1.50879 135.666 1.50879 147.442L1.5088 598.729C1.5088 610.504 9.78186 615.277 19.9872 609.39L201.64 504.59C211.845 498.703 220.118 484.384 220.118 472.608L220.118 21.3213C220.118 9.54589 211.845 4.77298 201.64 10.6607Z" fill="#B0F127" stroke="#060606" stroke-width="1.5"/>
</mask>
<g mask="url(#mask0_1403_68465)">
<path d="M46.0308 160.214L-43.5137 108.554L-43.5137 575.986L46.0308 627.646L46.0308 160.214Z" fill="#060606"/>
</g>
<path d="M9.13174 198.56L9.13172 198.56C7.11465 197.396 5.47949 198.339 5.47949 200.667L5.47949 227.764C5.47949 230.091 7.11465 232.922 9.13173 234.085C11.1488 235.249 12.784 234.306 12.784 231.978L12.784 204.881C12.784 202.553 11.1488 199.723 9.13174 198.56Z" fill="#2F2F2F" stroke="#060606" stroke-width="1.5"/>
<path d="M9.13174 247.582L9.13172 247.582C7.11465 246.418 5.47949 247.361 5.47949 249.689L5.47949 301.741C5.47949 304.069 7.11465 306.899 9.13173 308.062C11.1488 309.226 12.784 308.283 12.784 305.955L12.784 253.903C12.784 251.575 11.1488 248.745 9.13174 247.582Z" fill="#2F2F2F" stroke="#060606" stroke-width="1.5"/>
<path d="M5.47949 274.966L12.7841 279.18V305.954C12.7841 308.283 11.1491 309.225 9.13138 308.062C7.11449 306.898 5.47949 304.068 5.47949 301.74V274.966Z" fill="#2F2F2F" stroke="#060606" stroke-width="1.5"/>
<path d="M41.2737 256.578C40.4911 257.03 39.8159 257.223 39.2474 257.158C38.682 257.092 38.246 256.794 37.9378 256.265C37.6336 255.734 37.4814 255.001 37.4814 254.065C37.4814 253.129 37.6336 252.22 37.9378 251.338C38.246 250.454 38.682 249.653 39.2474 248.934C39.8159 248.213 40.4911 247.627 41.2737 247.175C42.0563 246.724 42.7299 246.532 43.2945 246.598C43.8638 246.664 44.2998 246.961 44.6041 247.492C44.9123 248.021 45.066 248.753 45.066 249.689C45.066 250.625 44.9123 251.535 44.6041 252.419C44.2998 253.301 43.8638 254.102 43.2945 254.823C42.7299 255.542 42.0563 256.127 41.2737 256.578ZM41.2737 254.974C41.7701 254.696 42.1826 254.334 42.5127 253.889C42.8421 253.444 43.0883 252.941 43.2514 252.378C43.4176 251.814 43.5015 251.219 43.5015 250.592C43.5015 249.965 43.4176 249.47 43.2514 249.106C43.0883 248.741 42.8421 248.525 42.5127 248.46C42.1826 248.396 41.7701 248.503 41.2737 248.78C40.7773 249.058 40.3648 249.419 40.0347 249.865C39.7054 250.31 39.4576 250.814 39.2905 251.378C39.1274 251.941 39.0467 252.535 39.0467 253.162C39.0467 253.789 39.1274 254.286 39.2905 254.651C39.4576 255.014 39.7054 255.229 40.0347 255.293C40.3648 255.358 40.7773 255.252 41.2737 254.974ZM48.0145 252.703C47.5541 252.968 47.1793 253.094 46.8899 253.082C46.5998 253.069 46.374 252.972 46.2109 252.79C46.0517 252.606 45.9372 252.386 45.8682 252.129C45.8 251.867 45.7584 251.618 45.7435 251.38C45.7294 251.142 45.7215 250.966 45.7215 250.853V247.055L47.2217 246.189V249.387C47.2217 249.541 47.2287 249.735 47.2428 249.97C47.2577 250.199 47.3024 250.413 47.3785 250.612C47.4546 250.81 47.5785 250.942 47.7486 251.007C47.9219 251.07 48.1666 251.01 48.4818 250.828C48.6089 250.755 48.7445 250.654 48.8896 250.524C49.0339 250.394 49.1695 250.228 49.2966 250.026C49.4236 249.819 49.5263 249.565 49.6063 249.264C49.6894 248.957 49.731 248.594 49.731 248.177L50.5787 248.152C50.5787 248.686 50.4846 249.242 50.2964 249.819C50.1082 250.396 49.8235 250.938 49.4432 251.446C49.0668 251.951 48.59 252.37 48.0145 252.703ZM49.9161 251.405V249.161L49.731 249.267V244.741L51.2202 243.883V250.653L49.9161 251.405ZM52.4184 249.961V243.191L53.7224 242.438V244.093L53.5813 243.962C53.6574 243.684 53.7585 243.412 53.8856 243.147C54.0118 242.882 54.1679 242.633 54.3521 242.401C54.4941 242.219 54.6478 242.053 54.814 241.902C54.981 241.748 55.1528 241.613 55.33 241.498C55.508 241.379 55.6852 241.281 55.8625 241.203V242.796C55.7001 242.832 55.5096 242.923 55.2924 243.068C55.0783 243.209 54.8846 243.377 54.7113 243.573C54.5372 243.766 54.3906 243.973 54.2706 244.197C54.1514 244.416 54.0612 244.648 53.9993 244.893C53.9381 245.133 53.9067 245.383 53.9067 245.642V249.102L52.4184 249.961ZM60.7243 245.357C59.9856 245.784 59.3873 245.936 58.9309 245.815C58.4784 245.687 58.2032 245.299 58.1052 244.649L59.6155 243.514C59.6775 243.796 59.8131 243.966 60.0233 244.025C60.2374 244.082 60.5071 244.016 60.8325 243.828C61.1007 243.673 61.307 243.495 61.452 243.295C61.5971 243.09 61.6693 242.881 61.6693 242.668C61.6693 242.534 61.6402 242.445 61.5822 242.398C61.525 242.348 61.394 242.342 61.1917 242.38C60.9925 242.415 60.6804 242.49 60.257 242.605C59.7786 242.739 59.3967 242.8 59.1105 242.79C58.8243 242.78 58.618 242.69 58.491 242.521C58.3648 242.348 58.3012 242.087 58.3012 241.74C58.3012 241.305 58.3969 240.874 58.589 240.446C58.7811 240.013 59.0509 239.611 59.3983 239.239C59.7496 238.861 60.1629 238.535 60.6373 238.261C61.0976 237.995 61.5046 237.842 61.8598 237.8C62.2142 237.759 62.5005 237.825 62.7177 238.001C62.9388 238.174 63.0745 238.452 63.1255 238.832L61.6151 240.016C61.59 239.78 61.4959 239.636 61.3328 239.584C61.1697 239.531 60.9486 239.574 60.6702 239.709C60.3981 239.845 60.1793 240.013 60.0123 240.214C59.8492 240.412 59.7676 240.61 59.7676 240.806C59.7676 240.923 59.8021 241.001 59.8711 241.041C59.9433 241.079 60.0907 241.076 60.3111 241.032C60.5361 240.986 60.8765 240.898 61.3328 240.769C61.7783 240.646 62.1351 240.596 62.4032 240.621C62.6746 240.64 62.8722 240.74 62.9953 240.919C63.1184 241.095 63.1796 241.358 63.1796 241.709C63.1796 242.402 62.9624 243.073 62.5279 243.721C62.0935 244.369 61.492 244.915 60.7243 245.357ZM67.5741 241.218C67.1687 241.539 66.7703 241.807 66.379 242.02C65.9916 242.235 65.6434 242.358 65.336 242.39C65.0318 242.415 64.7997 242.308 64.6405 242.07C64.4954 241.844 64.4193 241.575 64.4123 241.261C64.4052 240.943 64.4013 240.582 64.4013 240.177V234.397L65.8795 233.545V239.224C65.8795 239.487 65.881 239.724 65.885 239.936C65.892 240.14 65.9297 240.285 65.9987 240.371C66.1288 240.534 66.3374 240.544 66.6237 240.4C66.9099 240.255 67.2267 240.056 67.5741 239.801V241.218ZM63.4015 238.171V236.855L67.5741 234.447V235.764L63.4015 238.171ZM70.8841 239.496C70.2936 239.837 69.7752 239.983 69.3298 239.935C68.8844 239.887 68.537 239.668 68.2869 239.277C68.0407 238.879 67.9175 238.332 67.9175 237.634C67.9175 236.928 68.0446 236.234 68.2979 235.553C68.5512 234.867 68.9009 234.246 69.3463 233.688C69.7917 233.13 70.3046 232.684 70.8841 232.35C71.4746 232.009 71.9921 231.863 72.4375 231.911C72.8868 231.957 73.2366 232.177 73.486 232.572C73.7361 232.963 73.8608 233.507 73.8608 234.205C73.8608 234.907 73.7345 235.601 73.4805 236.286C73.2311 236.966 72.8814 237.587 72.432 238.151C71.9866 238.709 71.4706 239.158 70.8841 239.496ZM70.8841 237.904C71.3585 237.63 71.7114 237.242 71.9435 236.741C72.1787 236.233 72.2964 235.689 72.2964 235.108C72.2964 234.506 72.1772 234.095 71.938 233.873C71.7027 233.65 71.3507 233.672 70.8841 233.942C70.5618 234.128 70.2967 234.364 70.0905 234.65C69.8842 234.936 69.7305 235.258 69.6286 235.613C69.5314 235.966 69.482 236.339 69.482 236.732C69.482 237.337 69.5996 237.753 69.8356 237.976C70.074 238.193 70.4238 238.169 70.8841 237.904ZM74.7359 237.086V230.315L76.04 229.563V231.218L75.8981 231.087C75.9741 230.808 76.0761 230.537 76.2023 230.272C76.3294 230.006 76.4854 229.758 76.6697 229.526C76.8108 229.344 76.9653 229.178 77.1316 229.027C77.2986 228.873 77.4703 228.738 77.6476 228.623C77.8256 228.504 78.0028 228.406 78.18 228.328V229.921C78.0169 229.956 77.8271 230.047 77.6099 230.193C77.3958 230.333 77.2021 230.501 77.0281 230.698C76.8548 230.89 76.7081 231.098 76.5881 231.322C76.4689 231.541 76.378 231.773 76.3168 232.017C76.2549 232.258 76.2243 232.507 76.2243 232.767V236.227L74.7359 237.086ZM79.4315 237.386L80.5615 233.148L80.5827 234.189L78.0294 228.415L79.5617 227.531L81.2783 231.669L80.9309 231.869L82.6365 225.757L84.1146 224.905L80.7999 236.596L79.4315 237.386Z" fill="#060606"/>
<path d="M42.1385 195.209C44.8909 193.621 47.1227 189.759 47.1227 186.582C47.1227 183.406 44.8909 182.119 42.1385 183.707C39.3853 185.295 37.1543 189.157 37.1543 192.334C37.1543 195.51 39.3853 196.797 42.1385 195.209Z" stroke="#060606" stroke-width="1.5" stroke-linecap="round" stroke-linejoin="round"/>
<path d="M45.6621 191.492L48.5463 193.156" stroke="#060606" stroke-width="1.5" stroke-linejoin="round"/>
<path d="M199.859 92.7149L215.163 83.8862" stroke="#060606" stroke-width="1.5"/>
<path d="M199.859 98.8774L215.163 90.0479" stroke="#060606" stroke-width="1.5"/>
<path d="M206.37 101.283L215.163 96.21" stroke="#060606" stroke-width="1.5"/>
<path d="M37.5165 147.327C38.1438 146.966 38.7076 146.812 39.2103 146.866C39.7122 146.915 40.1082 147.158 40.3967 147.597C40.69 148.028 40.8367 148.635 40.8367 149.42V152.797C40.8367 153.633 40.69 154.449 40.3967 155.243C40.1082 156.031 39.7012 156.745 39.1766 157.386C38.6527 158.027 38.0387 158.55 37.3369 158.955C36.8523 159.235 36.3943 159.404 35.963 159.463C35.5325 159.517 35.1459 159.443 34.8032 159.24L35.9568 157.274C36.1301 157.405 36.3371 157.468 36.577 157.462C36.8209 157.45 37.0742 157.368 37.3369 157.216C37.7102 157.001 38.0372 156.713 38.3171 156.351C38.5971 155.985 38.8143 155.594 38.9703 155.182C39.1256 154.764 39.2032 154.368 39.2032 153.993V152.155L39.4902 152.359C39.2189 152.885 38.8903 153.363 38.5037 153.798C38.1171 154.225 37.7102 154.562 37.2836 154.808C36.6837 155.155 36.1497 155.304 35.6831 155.255C35.2212 155.203 34.8566 154.983 34.5899 154.594C34.328 154.196 34.1963 153.651 34.1963 152.958C34.1963 152.266 34.3476 151.553 34.6503 150.82C34.9522 150.082 35.3545 149.403 35.8564 148.786C36.3637 148.16 36.9166 147.674 37.5165 147.327ZM37.5165 149.097C37.2059 149.276 36.9213 149.528 36.6633 149.851C36.4053 150.174 36.2014 150.528 36.0501 150.912C35.8987 151.292 35.8234 151.661 35.8234 152.02C35.8234 152.379 35.8964 152.665 36.043 152.878C36.1944 153.088 36.3967 153.208 36.65 153.236C36.908 153.262 37.1926 153.184 37.5031 153.005C37.8145 152.825 38.0991 152.574 38.3571 152.251C38.6143 151.928 38.819 151.574 38.9703 151.189C39.1256 150.802 39.2032 150.429 39.2032 150.07C39.2032 149.721 39.1279 149.445 38.9766 149.239C38.826 149.029 38.6214 148.909 38.3634 148.877C38.1101 148.844 37.8278 148.917 37.5165 149.097ZM42.9116 154.508V152.608L44.5583 151.658V153.558L42.9116 154.508ZM42.9249 150.093V148.193L44.5717 147.242V149.142L42.9249 150.093ZM50.6161 151.064V149.232L46.3619 151.687V149.956L49.4359 140.667L51.2693 139.609L48.1953 148.898L50.6161 147.501V144.617L52.2425 143.678V146.563L53.1427 146.044V147.775L52.2425 148.294V150.125L50.6161 151.064ZM56.088 147.907V138.852L54.2884 141.16V139.114L56.088 136.829L57.7285 135.882V146.96L56.088 147.907Z" fill="#060606"/>
<path opacity="0.35" d="M208.821 48.3281L216.727 43.7669C218.178 42.9295 219.355 43.6083 219.355 45.2831V49.8083C219.355 51.483 218.178 53.5195 216.727 54.3569L208.821 58.9181C207.369 59.7556 206.192 59.0767 206.192 57.402V52.8768C206.192 51.202 207.369 49.1656 208.821 48.3281Z" stroke="#060606" stroke-width="1.5"/>
<path opacity="0.4" d="M220.433 45.5669V49.3864C220.914 48.7851 221.228 47.8518 221.228 47.0181C221.228 46.1844 220.914 45.6125 220.433 45.5669Z" fill="#060606"/>
<path d="M206.818 52.5159C206.818 51.5163 207.521 50.3007 208.387 49.8008L217.162 44.7385C218.028 44.2387 218.731 44.6439 218.731 45.6436V50.1687C218.731 51.1683 218.028 52.3839 217.162 52.8838L208.387 57.9461C207.521 58.446 206.818 58.0408 206.818 57.0411V52.5159Z" fill="#060606"/>
<path fill-rule="evenodd" clip-rule="evenodd" d="M196.89 57.8692C198.29 57.0621 199.636 57.1613 200.65 58.1463C200.726 58.2235 200.848 58.1516 200.923 57.985L201.653 56.3643C201.691 56.2799 201.712 56.183 201.712 56.0952C201.711 56.0073 201.689 55.9358 201.651 55.8963C198.989 53.2779 194.791 55.7003 192.13 61.3896C192.091 61.4735 192.069 61.5702 192.068 61.6584C192.068 61.7467 192.09 61.8191 192.127 61.8596L192.858 62.638C192.933 62.718 193.055 62.6491 193.131 62.4836C194.146 60.3285 195.491 58.6765 196.89 57.8692ZM196.911 61.5529C197.68 61.1093 198.421 61.147 198.991 61.6586C199.068 61.7334 199.189 61.6607 199.265 61.4949L199.993 59.8746C200.032 59.7895 200.054 59.6919 200.053 59.6035C200.052 59.5151 200.03 59.4433 199.991 59.4043C198.255 57.7767 195.568 59.327 193.833 62.9569C193.794 63.0411 193.772 63.1386 193.771 63.2277C193.77 63.3168 193.792 63.3898 193.83 63.4304L194.559 64.2096C194.634 64.2888 194.756 64.2213 194.833 64.0576C195.402 62.8892 196.143 61.9966 196.911 61.5529ZM198.393 63.1159C198.394 63.2042 198.372 63.3023 198.334 63.3872L197.072 66.1875C197.035 66.2697 196.985 66.3331 196.933 66.3634C196.88 66.3938 196.83 66.3886 196.792 66.349L195.531 65.004C195.492 64.9641 195.471 64.8907 195.472 64.801C195.473 64.7114 195.497 64.6135 195.538 64.5305C196.343 62.9565 197.522 62.2759 198.328 62.9206C198.368 62.9569 198.392 63.0276 198.393 63.1159Z" fill="#060606"/>
<path d="M182.992 66.2626C182.992 65.7628 183.246 65.2111 183.56 65.0304L184.127 64.7031C184.441 64.5224 184.695 64.781 184.695 65.2809V72.5211C184.695 73.021 184.441 73.5727 184.127 73.7535L183.56 74.0807C183.246 74.2614 182.992 74.0027 182.992 73.5029V66.2626Z" fill="#060606"/>
<path d="M185.828 62.8164C185.828 62.3165 186.082 61.7648 186.396 61.5841L186.963 61.2568C187.276 61.0761 187.53 61.3348 187.53 61.8346V70.8849C187.53 71.3847 187.276 71.9365 186.963 72.1172L186.396 72.4444C186.082 72.6252 185.828 72.3665 185.828 71.8667V62.8164Z" fill="#060606"/>
<path d="M180.156 71.0664C180.156 70.5665 180.41 70.0149 180.723 69.8341L181.29 69.5069C181.604 69.3261 181.858 69.5847 181.858 70.0846V74.1572C181.858 74.6571 181.604 75.2088 181.29 75.3895L180.723 75.7168C180.41 75.8975 180.156 75.6388 180.156 75.139V71.0664Z" fill="#060606"/>
<path d="M177.32 74.9653C177.32 74.4655 177.574 73.9138 177.887 73.733L178.454 73.4058C178.768 73.225 179.022 73.4837 179.022 73.9835V75.7936C179.022 76.2935 178.768 76.8452 178.454 77.0259L177.887 77.3531C177.574 77.5337 177.32 77.2752 177.32 76.7754V74.9653Z" fill="#060606"/>
<path fill-rule="evenodd" clip-rule="evenodd" d="M398.028 347.901H244.088V483.175C244.075 483.649 244.075 484.122 244.088 484.594V484.702H244.091C244.443 495.794 251.953 506.823 266.624 515.287C296.685 532.63 345.424 532.63 375.484 515.287C390.154 506.823 397.666 495.794 398.017 484.702H398.028V484.201C398.031 483.99 398.031 483.779 398.028 483.569V347.901Z" fill="#C0C0C0"/>
<mask id="mask1_1403_68465" style="mask-type:alpha" maskUnits="userSpaceOnUse" x="244" y="347" width="155" height="182">
<path fill-rule="evenodd" clip-rule="evenodd" d="M398.027 347.902H244.087V483.177C244.074 483.65 244.074 484.123 244.087 484.596V484.703H244.09C244.442 495.795 251.952 506.825 266.623 515.288C296.684 532.632 345.423 532.632 375.483 515.288C390.153 506.825 397.665 495.795 398.016 484.703H398.027V484.202C398.03 483.992 398.03 483.781 398.027 483.57V347.902Z" fill="#5148E5"/>
</mask>
<g mask="url(#mask1_1403_68465)">
<path d="M398.031 63.0859H316.734V528.298H398.031V63.0859Z" fill="#E7E7E7"/>
</g>
<path d="M374.973 379.01C404.753 361.83 404.753 333.975 374.973 316.794C345.194 299.614 296.911 299.614 267.132 316.794C237.352 333.975 237.352 361.83 267.132 379.01C296.911 396.191 345.194 396.191 374.973 379.01Z" fill="#B0F127" stroke="#060606" stroke-width="1.5"/>
<path opacity="0.4" d="M301.659 352.519C322.241 364.393 349.058 368.173 361.556 360.962C374.055 353.752 367.502 338.28 346.921 326.406C326.339 314.532 299.522 310.752 287.024 317.963C274.525 325.173 281.078 340.645 301.659 352.519Z" fill="#060606"/>
<path fill-rule="evenodd" clip-rule="evenodd" d="M352.377 348.994C359.804 343.069 364.277 332.483 364.277 318.111C364.277 285.666 341.482 246.212 313.362 229.989C298.559 221.45 285.232 221.049 275.93 227.32L275.926 227.314L275.695 227.48C275.488 227.622 275.283 227.769 275.081 227.918L266.058 234.362L267.51 236.715C264.267 242.574 262.447 250.199 262.447 259.363C262.447 291.809 285.243 331.262 313.362 347.485C323.125 353.117 332.246 355.209 339.994 354.182L341.573 356.741L352.404 349.037L352.377 348.994Z" fill="#B0F127"/>
<path d="M352.377 348.994L352.01 348.535L351.6 348.862L351.879 349.307L352.377 348.994ZM275.93 227.32L275.431 227.632L275.754 228.146L276.258 227.807L275.93 227.32ZM275.926 227.314L276.425 227.001L276.092 226.473L275.584 226.836L275.926 227.314ZM275.695 227.479L276.029 227.963L276.037 227.957L275.695 227.479ZM275.081 227.917L275.423 228.396L275.43 228.391L275.081 227.917ZM266.059 234.362L265.717 233.884L265.27 234.203L265.558 234.67L266.059 234.362ZM267.51 236.715L268.025 236.999L268.192 236.698L268.011 236.406L267.51 236.715ZM339.994 354.181L340.495 353.873L340.295 353.549L339.917 353.599L339.994 354.181ZM341.574 356.741L341.073 357.049L341.403 357.584L341.915 357.219L341.574 356.741ZM352.404 349.037L352.745 349.516L353.197 349.195L352.903 348.724L352.404 349.037ZM363.689 318.111C363.689 332.372 359.252 342.758 352.01 348.535L352.744 349.453C360.357 343.381 364.865 332.594 364.865 318.111H363.689ZM313.068 230.499C327.018 238.546 339.679 252.38 348.855 268.261C358.031 284.142 363.689 302.015 363.689 318.111H364.865C364.865 301.761 359.126 283.686 349.874 267.673C340.622 251.66 327.826 237.656 313.656 229.481L313.068 230.499ZM276.258 227.807C285.308 221.708 298.378 222.023 313.068 230.499L313.656 229.481C298.741 220.875 285.157 220.391 275.6 226.832L276.258 227.807ZM276.428 227.007L276.425 227.001L275.428 227.627L275.431 227.632L276.428 227.007ZM275.584 226.836L275.353 227.001L276.037 227.957L276.269 227.792L275.584 226.836ZM275.43 228.391C275.628 228.245 275.828 228.102 276.029 227.963L275.36 226.996C275.149 227.142 274.939 227.292 274.732 227.445L275.43 228.391ZM274.739 227.439L265.717 233.884L266.401 234.84L275.423 228.396L274.739 227.439ZM265.558 234.67L267.01 237.024L268.011 236.406L266.559 234.054L265.558 234.67ZM263.036 259.363C263.036 250.273 264.84 242.752 268.025 236.999L266.996 236.43C263.693 242.396 261.859 250.124 261.859 259.363H263.036ZM313.656 346.975C299.707 338.928 287.045 325.095 277.87 309.213C268.694 293.332 263.036 275.459 263.036 259.363H261.859C261.859 275.713 267.6 293.789 276.851 309.801C286.103 325.814 298.898 339.819 313.068 347.993L313.656 346.975ZM339.917 353.599C332.332 354.604 323.342 352.563 313.656 346.975L313.068 347.993C322.909 353.67 332.16 355.813 340.071 354.764L339.917 353.599ZM339.493 354.49L341.073 357.049L342.074 356.433L340.495 353.873L339.493 354.49ZM341.915 357.219L352.745 349.516L352.063 348.558L341.233 356.262L341.915 357.219ZM352.903 348.724L352.875 348.681L351.879 349.307L351.906 349.35L352.903 348.724Z" fill="#060606"/>
<mask id="mask2_1403_68465" style="mask-type:alpha" maskUnits="userSpaceOnUse" x="261" y="222" width="104" height="136">
<path fill-rule="evenodd" clip-rule="evenodd" d="M352.377 348.991C359.804 343.066 364.277 332.48 364.277 318.108C364.277 285.663 341.482 246.209 313.362 229.986C298.559 221.447 285.232 221.047 275.93 227.316L275.926 227.311L275.695 227.476C275.488 227.619 275.283 227.765 275.081 227.914L266.058 234.359L267.51 236.712C264.267 242.571 262.447 250.196 262.447 259.361C262.447 291.806 285.243 331.259 313.362 347.482C323.125 353.114 332.246 355.206 339.994 354.178L341.573 356.738L352.404 349.034L352.377 348.991Z" fill="#B0F127"/>
<path d="M352.377 348.991L352.01 348.532L351.6 348.859L351.879 349.304L352.377 348.991ZM275.93 227.317L275.431 227.629L275.754 228.143L276.258 227.804L275.93 227.317ZM275.926 227.311L276.425 226.998L276.092 226.47L275.584 226.833L275.926 227.311ZM275.695 227.476L276.029 227.96L276.037 227.954L275.695 227.476ZM275.081 227.914L275.423 228.393L275.43 228.388L275.081 227.914ZM266.059 234.359L265.717 233.881L265.27 234.2L265.558 234.667L266.059 234.359ZM267.51 236.712L268.025 236.996L268.192 236.695L268.011 236.403L267.51 236.712ZM339.994 354.178L340.495 353.87L340.295 353.546L339.917 353.596L339.994 354.178ZM341.574 356.738L341.073 357.046L341.403 357.581L341.915 357.216L341.574 356.738ZM352.404 349.034L352.745 349.513L353.197 349.192L352.903 348.721L352.404 349.034ZM363.689 318.108C363.689 332.369 359.252 342.755 352.01 348.532L352.744 349.45C360.357 343.378 364.865 332.591 364.865 318.108H363.689ZM313.068 230.496C327.018 238.543 339.679 252.377 348.855 268.258C358.031 284.139 363.689 302.012 363.689 318.108H364.865C364.865 301.758 359.126 283.683 349.874 267.67C340.622 251.657 327.826 237.653 313.656 229.478L313.068 230.496ZM276.258 227.804C285.308 221.705 298.378 222.02 313.068 230.496L313.656 229.478C298.741 220.872 285.157 220.388 275.6 226.829L276.258 227.804ZM276.428 227.004L276.425 226.998L275.428 227.624L275.431 227.629L276.428 227.004ZM275.584 226.833L275.353 226.998L276.037 227.954L276.269 227.789L275.584 226.833ZM275.43 228.388C275.628 228.242 275.828 228.099 276.029 227.96L275.36 226.993C275.149 227.14 274.939 227.289 274.732 227.442L275.43 228.388ZM274.739 227.436L265.717 233.881L266.401 234.837L275.423 228.393L274.739 227.436ZM265.558 234.667L267.01 237.021L268.011 236.403L266.559 234.051L265.558 234.667ZM263.036 259.361C263.036 250.27 264.84 242.749 268.025 236.996L266.996 236.427C263.693 242.393 261.859 250.121 261.859 259.361H263.036ZM313.656 346.972C299.707 338.925 287.045 325.092 277.87 309.21C268.694 293.329 263.036 275.456 263.036 259.361H261.859C261.859 275.71 267.6 293.786 276.851 309.798C286.103 325.811 298.898 339.816 313.068 347.991L313.656 346.972ZM339.917 353.596C332.332 354.602 323.342 352.56 313.656 346.972L313.068 347.991C322.909 353.668 332.16 355.81 340.071 354.761L339.917 353.596ZM339.493 354.487L341.073 357.046L342.074 356.43L340.495 353.87L339.493 354.487ZM341.915 357.216L352.745 349.513L352.063 348.555L341.233 356.259L341.915 357.216ZM352.903 348.721L352.875 348.678L351.879 349.304L351.906 349.347L352.903 348.721Z" fill="#060606"/>
</mask>
<g mask="url(#mask2_1403_68465)">
<path d="M425.09 285.685L317.385 347.822L317.385 401.258L425.09 339.121L425.09 285.685Z" fill="#B0F127"/>
</g>
<path d="M352.377 348.994L352.01 348.535L351.6 348.862L351.879 349.307L352.377 348.994ZM275.93 227.32L275.431 227.632L275.754 228.146L276.258 227.807L275.93 227.32ZM275.926 227.314L276.425 227.001L276.092 226.473L275.584 226.836L275.926 227.314ZM275.695 227.479L276.029 227.963L276.037 227.957L275.695 227.479ZM275.081 227.917L275.423 228.396L275.43 228.391L275.081 227.917ZM266.059 234.362L265.717 233.884L265.27 234.203L265.558 234.67L266.059 234.362ZM267.51 236.715L268.025 236.999L268.192 236.698L268.011 236.406L267.51 236.715ZM339.994 354.181L340.495 353.873L340.295 353.549L339.917 353.599L339.994 354.181ZM341.574 356.741L341.073 357.049L341.403 357.584L341.915 357.219L341.574 356.741ZM352.404 349.037L352.745 349.516L353.197 349.195L352.903 348.724L352.404 349.037ZM363.689 318.111C363.689 332.372 359.252 342.758 352.01 348.535L352.744 349.453C360.357 343.381 364.865 332.594 364.865 318.111H363.689ZM313.068 230.499C327.018 238.546 339.679 252.38 348.855 268.261C358.031 284.142 363.689 302.015 363.689 318.111H364.865C364.865 301.761 359.126 283.686 349.874 267.673C340.622 251.66 327.826 237.656 313.656 229.481L313.068 230.499ZM276.258 227.807C285.308 221.708 298.378 222.023 313.068 230.499L313.656 229.481C298.741 220.875 285.157 220.391 275.6 226.832L276.258 227.807ZM276.428 227.007L276.425 227.001L275.428 227.627L275.431 227.632L276.428 227.007ZM275.584 226.836L275.353 227.001L276.037 227.957L276.269 227.792L275.584 226.836ZM275.43 228.391C275.628 228.245 275.828 228.102 276.029 227.963L275.36 226.996C275.149 227.142 274.939 227.292 274.732 227.445L275.43 228.391ZM274.739 227.439L265.717 233.884L266.401 234.84L275.423 228.396L274.739 227.439ZM265.558 234.67L267.01 237.024L268.011 236.406L266.559 234.054L265.558 234.67ZM263.036 259.363C263.036 250.273 264.84 242.752 268.025 236.999L266.996 236.43C263.693 242.396 261.859 250.124 261.859 259.363H263.036ZM313.656 346.975C299.707 338.928 287.045 325.095 277.87 309.213C268.694 293.332 263.036 275.459 263.036 259.363H261.859C261.859 275.713 267.6 293.789 276.851 309.801C286.103 325.814 298.898 339.819 313.068 347.993L313.656 346.975ZM339.917 353.599C332.332 354.604 323.342 352.563 313.656 346.975L313.068 347.993C322.909 353.67 332.16 355.813 340.071 354.764L339.917 353.599ZM339.493 354.49L341.073 357.049L342.074 356.433L340.495 353.873L339.493 354.49ZM341.915 357.219L352.745 349.516L352.063 348.558L341.233 356.262L341.915 357.219ZM352.903 348.724L352.875 348.681L351.879 349.307L351.906 349.35L352.903 348.724Z" fill="#060606"/>
<path d="M303.989 354.153C332.108 370.375 354.904 357.224 354.904 324.779C354.904 292.334 332.108 252.88 303.989 236.657C275.869 220.435 253.074 233.586 253.074 266.031C253.074 298.477 275.869 337.93 303.989 354.153Z" fill="white" stroke="#060606" stroke-width="1.5"/>
<mask id="mask3_1403_68465" style="mask-type:alpha" maskUnits="userSpaceOnUse" x="252" y="228" width="104" height="134">
<path d="M303.989 354.153C332.108 370.375 354.904 357.224 354.904 324.779C354.904 292.334 332.108 252.88 303.989 236.657C275.869 220.435 253.074 233.586 253.074 266.031C253.074 298.477 275.869 337.93 303.989 354.153Z" fill="white" stroke="#060606" stroke-width="1.5"/>
</mask>
<g mask="url(#mask3_1403_68465)">
<path d="M357.649 328.35L249.943 266.213L249.943 199.57L357.649 261.707L357.649 328.35Z" fill="white"/>
<path d="M303.989 354.153C332.108 370.375 354.904 357.224 354.904 324.779C354.904 292.334 332.108 252.88 303.989 236.657C275.869 220.435 253.074 233.586 253.074 266.031C253.074 298.477 275.869 337.93 303.989 354.153Z" stroke="#060606" stroke-width="1.5"/>
<path d="M315.783 315.053L299.513 305.667L302.555 295.586L307.223 296.729L308.214 293.383L303.546 292.322L308.497 275.753V275.507C308.497 274.936 308.143 274.324 307.648 274.038L301.352 270.406C300.857 270.12 300.432 270.284 300.291 270.774L294.491 290.363L289.822 289.302L288.761 292.525L293.43 293.586L289.256 307.585L314.086 321.909C314.58 322.195 315.005 322.032 315.147 321.624L316.561 316.808V316.563C316.632 315.951 316.278 315.339 315.783 315.053Z" fill="#060606"/>
</g>
<path d="M178.233 349.256L150.122 365.473" stroke="#060606" stroke-width="1.5" stroke-miterlimit="10" stroke-linecap="round" stroke-linejoin="round"/>
<path d="M178.233 400.213L150.122 416.431" stroke="#060606" stroke-width="1.5" stroke-miterlimit="10" stroke-linecap="round" stroke-linejoin="round"/>
<path d="M195.527 339.277L180.7 347.831" stroke="#060606" stroke-width="1.5" stroke-miterlimit="10" stroke-linecap="round" stroke-linejoin="round"/>
<path d="M195.527 390.235L180.7 398.789" stroke="#060606" stroke-width="1.5" stroke-miterlimit="10" stroke-linecap="round" stroke-linejoin="round"/>
<path d="M214.06 328.585L198.307 337.674" stroke="#060606" stroke-width="1.5" stroke-miterlimit="10" stroke-linecap="round" stroke-linejoin="round"/>
<path d="M214.06 379.543L198.307 388.632" stroke="#060606" stroke-width="1.5" stroke-miterlimit="10" stroke-linecap="round" stroke-linejoin="round"/>
<path d="M58.1835 285.107L38.9297 296.215" stroke="#060606" stroke-width="1.5" stroke-miterlimit="10" stroke-linecap="round" stroke-linejoin="round"/>
<path d="M190.157 208.967L167.613 221.973" stroke="#060606" stroke-width="1.5" stroke-miterlimit="10" stroke-linecap="round" stroke-linejoin="round"/>
<path d="M218.335 192.711L194.383 206.53" stroke="#060606" stroke-width="1.5" stroke-miterlimit="10" stroke-linecap="round" stroke-linejoin="round"/>
<path d="M66.6367 292.688L38.9287 308.675" stroke="#060606" stroke-width="1.5" stroke-miterlimit="10" stroke-linecap="round" stroke-linejoin="round"/>
<path d="M190.629 221.153L142.723 248.792" stroke="#060606" stroke-width="1.5" stroke-miterlimit="10" stroke-linecap="round" stroke-linejoin="round"/>
<path d="M218.335 205.171L194.383 218.991" stroke="#060606" stroke-width="1.5" stroke-miterlimit="10" stroke-linecap="round" stroke-linejoin="round"/>
<path d="M57.7085 310.301L38.9268 321.137" stroke="#060606" stroke-width="1.5" stroke-miterlimit="10" stroke-linecap="round" stroke-linejoin="round"/>
<path d="M192.509 232.533L156.34 253.4" stroke="#060606" stroke-width="1.5" stroke-miterlimit="10" stroke-linecap="round" stroke-linejoin="round"/>
<path d="M218.335 217.632L196.735 230.094" stroke="#060606" stroke-width="1.5" stroke-miterlimit="10" stroke-linecap="round" stroke-linejoin="round"/>
<path d="M45.0294 338.217L38.9277 341.737" stroke="#060606" stroke-width="1.5" stroke-miterlimit="10" stroke-linecap="round" stroke-linejoin="round"/>
<path d="M88.7084 313.016L50.665 334.964" stroke="#060606" stroke-width="1.5" stroke-miterlimit="10" stroke-linecap="round" stroke-linejoin="round"/>
<path d="M161.043 271.285L149.299 278.061" stroke="#060606" stroke-width="1.5" stroke-miterlimit="10" stroke-linecap="round" stroke-linejoin="round"/>
<path d="M205.19 245.814L165.737 268.575" stroke="#060606" stroke-width="1.5" stroke-miterlimit="10" stroke-linecap="round" stroke-linejoin="round"/>
<path d="M218.335 238.23L209.417 243.376" stroke="#060606" stroke-width="1.5" stroke-miterlimit="10" stroke-linecap="round" stroke-linejoin="round"/>
<path fill-rule="evenodd" clip-rule="evenodd" d="M217.678 33.2397V472.239C217.678 484.339 209.177 499.052 198.69 505.102L19.988 608.2C9.50122 614.25 1 609.345 1 597.245V147.743C1 135.643 9.50122 120.93 19.988 114.88L72.3628 84.6636C72.6663 84.4277 73.0035 84.2021 73.3744 83.9889L200.599 10.5904C204.724 8.21012 211.413 8.21012 215.539 10.5904L228.768 18.2222C232.893 20.6025 232.893 24.4615 228.768 26.8417L217.678 33.2397Z" fill="#141414"/>
<path d="M216.987 21.0737L35.3348 125.873C25.1295 131.761 16.8564 146.08 16.8564 157.855L16.8565 601.927C16.8565 613.702 25.1295 618.475 35.3349 612.587L216.987 507.788C227.193 501.9 235.466 487.582 235.466 475.806L235.466 31.7344C235.466 19.959 227.193 15.1861 216.987 21.0737Z" fill="white" stroke="#060606" stroke-width="1.5"/>
<path d="M98.0605 163.557L100.985 150.827L103.683 149.271L106.607 158.626L104.746 159.699L102.141 151.464L102.487 151.265L99.9214 162.483L98.0605 163.557ZM99.8155 160.244V158.296L104.866 155.382V157.33L99.8155 160.244ZM111 156.321C110.287 156.733 109.691 156.885 109.213 156.778C108.735 156.671 108.373 156.357 108.129 155.838C107.89 155.316 107.771 154.642 107.771 153.814C107.771 152.985 107.89 152.173 108.129 151.375C108.368 150.578 108.721 149.853 109.186 149.201C109.651 148.549 110.225 148.027 110.908 147.633C111.595 147.237 112.192 147.081 112.702 147.166C113.212 147.25 113.606 147.542 113.884 148.04C114.168 148.531 114.31 149.197 114.31 150.041C114.31 150.87 114.171 151.694 113.891 152.514C113.617 153.332 113.231 154.076 112.735 154.745C112.239 155.415 111.66 155.94 111 156.321ZM107.465 158.131V147.089L109.286 146.039V151.406L109.06 151.536V157.21L107.465 158.131ZM110.708 154.634C111.098 154.409 111.417 154.113 111.665 153.745C111.913 153.377 112.097 152.969 112.216 152.521C112.336 152.069 112.396 151.611 112.396 151.145C112.396 150.685 112.334 150.302 112.21 149.995C112.086 149.683 111.893 149.49 111.632 149.416C111.375 149.335 111.045 149.41 110.642 149.642C110.265 149.86 109.96 150.141 109.724 150.486C109.494 150.828 109.326 151.219 109.219 151.659C109.113 152.099 109.06 152.569 109.06 153.07C109.06 153.571 109.113 153.98 109.219 154.297C109.326 154.614 109.498 154.808 109.738 154.88C109.982 154.949 110.305 154.867 110.708 154.634ZM118.682 151.89C117.96 152.306 117.327 152.485 116.782 152.427C116.237 152.368 115.811 152.099 115.505 151.621C115.204 151.135 115.054 150.466 115.054 149.612C115.054 148.748 115.209 147.9 115.519 147.066C115.829 146.228 116.256 145.468 116.801 144.785C117.346 144.103 117.973 143.557 118.682 143.148C119.404 142.731 120.038 142.553 120.583 142.611C121.132 142.668 121.56 142.937 121.866 143.42C122.171 143.898 122.324 144.564 122.324 145.417C122.324 146.276 122.169 147.125 121.859 147.963C121.554 148.794 121.125 149.555 120.576 150.245C120.031 150.928 119.4 151.475 118.682 151.89ZM118.682 149.942C119.263 149.607 119.694 149.133 119.978 148.52C120.266 147.898 120.41 147.232 120.41 146.522C120.41 145.786 120.264 145.282 119.972 145.011C119.683 144.738 119.254 144.766 118.682 145.095C118.288 145.323 117.964 145.612 117.712 145.962C117.459 146.312 117.271 146.705 117.147 147.139C117.027 147.571 116.968 148.028 116.968 148.508C116.968 149.249 117.112 149.757 117.4 150.03C117.692 150.296 118.12 150.266 118.682 149.942ZM126.137 147.604C125.574 147.929 125.116 148.083 124.762 148.068C124.407 148.053 124.13 147.933 123.93 147.712C123.736 147.487 123.596 147.217 123.512 146.902C123.428 146.583 123.377 146.278 123.36 145.986C123.341 145.695 123.333 145.48 123.333 145.342V140.695L125.167 139.637V143.548C125.167 143.737 125.176 143.975 125.194 144.261C125.211 144.542 125.267 144.804 125.359 145.047C125.452 145.29 125.603 145.45 125.812 145.529C126.024 145.606 126.323 145.533 126.709 145.312C126.864 145.221 127.029 145.098 127.207 144.939C127.384 144.781 127.55 144.577 127.705 144.33C127.861 144.077 127.987 143.766 128.084 143.398C128.186 143.023 128.237 142.579 128.237 142.068L129.274 142.037C129.274 142.691 129.158 143.371 128.928 144.077C128.698 144.782 128.35 145.446 127.885 146.066C127.424 146.685 126.841 147.198 126.137 147.604ZM128.463 146.017V143.272L128.237 143.402V137.866L130.058 136.815V145.097L128.463 146.017ZM135.902 141.725C135.406 142.118 134.918 142.446 134.44 142.707C133.965 142.97 133.54 143.121 133.164 143.159C132.792 143.19 132.508 143.06 132.313 142.768C132.136 142.492 132.043 142.162 132.034 141.779C132.025 141.391 132.021 140.948 132.021 140.453V133.382L133.828 132.339V139.287C133.828 139.609 133.831 139.899 133.835 140.157C133.844 140.408 133.89 140.585 133.975 140.69C134.134 140.889 134.389 140.901 134.739 140.724C135.089 140.548 135.477 140.304 135.902 139.992V141.725ZM130.798 137.998V136.388L135.902 133.443V135.054L130.798 137.998ZM142.194 138.341C141.631 138.665 141.173 138.82 140.818 138.805C140.464 138.789 140.186 138.671 139.987 138.448C139.793 138.223 139.653 137.954 139.568 137.639C139.484 137.32 139.433 137.014 139.415 136.723C139.398 136.431 139.389 136.216 139.389 136.079V131.432L141.224 130.373V134.284C141.224 134.473 141.232 134.711 141.25 134.997C141.268 135.279 141.323 135.54 141.416 135.783C141.509 136.026 141.66 136.187 141.868 136.267C142.081 136.343 142.38 136.271 142.765 136.048C142.92 135.959 143.086 135.834 143.263 135.676C143.441 135.517 143.607 135.315 143.762 135.066C143.917 134.813 144.044 134.503 144.141 134.134C144.243 133.759 144.294 133.316 144.294 132.804L145.33 132.773C145.33 133.428 145.215 134.108 144.985 134.813C144.754 135.519 144.407 136.182 143.942 136.803C143.481 137.422 142.898 137.934 142.194 138.341ZM144.52 136.753V134.008L144.294 134.138V128.602L146.115 127.552V135.833L144.52 136.753ZM150.457 133.559C149.552 134.08 148.822 134.266 148.263 134.118C147.71 133.962 147.373 133.486 147.253 132.692L149.101 131.304C149.176 131.649 149.342 131.857 149.6 131.929C149.861 131.998 150.191 131.918 150.589 131.687C150.917 131.498 151.169 131.281 151.347 131.035C151.524 130.785 151.612 130.529 151.612 130.269C151.612 130.105 151.577 129.996 151.507 129.939C151.435 129.878 151.276 129.87 151.028 129.916C150.784 129.959 150.403 130.051 149.885 130.192C149.3 130.356 148.833 130.431 148.483 130.418C148.132 130.405 147.88 130.296 147.725 130.089C147.57 129.876 147.492 129.558 147.492 129.134C147.492 128.602 147.61 128.074 147.845 127.551C148.08 127.021 148.41 126.529 148.835 126.074C149.265 125.611 149.77 125.212 150.35 124.878C150.913 124.553 151.411 124.365 151.845 124.314C152.28 124.264 152.63 124.345 152.895 124.56C153.166 124.772 153.332 125.111 153.394 125.576L151.547 127.025C151.515 126.737 151.4 126.56 151.201 126.496C151.002 126.432 150.731 126.483 150.39 126.65C150.057 126.816 149.79 127.021 149.586 127.266C149.386 127.509 149.287 127.751 149.287 127.991C149.287 128.134 149.329 128.23 149.413 128.279C149.501 128.325 149.681 128.321 149.952 128.267C150.226 128.211 150.642 128.104 151.201 127.945C151.746 127.794 152.182 127.734 152.51 127.765C152.842 127.788 153.084 127.91 153.234 128.129C153.385 128.344 153.46 128.666 153.46 129.095C153.46 129.944 153.194 130.764 152.662 131.557C152.131 132.349 151.396 133.016 150.457 133.559Z" fill="#060606"/>
<path d="M142.654 85.5416L109.668 104.572C105.559 106.942 102.228 112.708 102.228 117.449C102.228 122.191 105.559 124.113 109.668 121.742L142.654 102.712C146.763 100.341 150.094 94.5755 150.094 89.8341C150.094 85.0927 146.763 83.1709 142.654 85.5416Z" fill="#060606" stroke="#060606" stroke-width="1.5"/>
<path d="M142.004 99.4915C144.652 97.9635 146.799 94.2474 146.799 91.1914C146.799 88.1354 144.652 86.8967 142.004 88.4247C139.355 89.9527 137.208 93.6688 137.208 96.7248C137.208 99.7809 139.355 101.02 142.004 99.4915Z" fill="white"/>
<path d="M203.009 264.545L52.6987 351.263C47.627 354.189 43.5156 361.304 43.5156 367.156L43.5156 367.156C43.5156 373.008 47.627 375.38 52.6987 372.454L203.009 285.737C208.081 282.811 212.192 275.695 212.192 269.843C212.192 263.991 208.081 261.619 203.009 264.545Z" fill="white" stroke="#060606" stroke-width="1.5"/>
<path d="M202.237 271.034L53.4153 356.892C51.0534 358.255 49.1387 361.569 49.1387 364.294C49.1387 367.019 51.0534 368.124 53.4153 366.761L202.237 280.903C204.599 279.54 206.514 276.226 206.514 273.501C206.514 270.776 204.599 269.671 202.237 271.034Z" fill="#060606" stroke="#060606" stroke-width="1.5"/>
<path d="M186.55 283.982L49.1445 363.255C66.6747 353.141 80.8863 361.339 80.8863 381.567V494.003C80.8863 519.969 99.1293 530.494 121.633 517.511L226.618 456.942V307.098C226.618 281.564 208.68 271.216 186.55 283.982Z" fill="white" stroke="#060606" stroke-width="1.5" stroke-linejoin="round"/>
<path d="M215.438 316.832L94.9014 386.372" stroke="#060606" stroke-width="1.5" stroke-miterlimit="10" stroke-linecap="round" stroke-linejoin="round"/>
<path d="M215.438 367.789L94.9014 437.33" stroke="#060606" stroke-width="1.5" stroke-miterlimit="10" stroke-linecap="round" stroke-linejoin="round"/>
<path d="M108.732 389.354L96.0693 396.659" stroke="#060606" stroke-width="1.5" stroke-miterlimit="10" stroke-linecap="round" stroke-linejoin="round"/>
<path d="M108.732 440.312L96.0693 447.617" stroke="#060606" stroke-width="1.5" stroke-miterlimit="10" stroke-linecap="round" stroke-linejoin="round"/>
<path d="M146.106 367.789L112.746 387.036" stroke="#060606" stroke-width="1.5" stroke-miterlimit="10" stroke-linecap="round" stroke-linejoin="round"/>
<path d="M146.106 418.748L112.746 437.994" stroke="#060606" stroke-width="1.5" stroke-miterlimit="10" stroke-linecap="round" stroke-linejoin="round"/>
<path d="M114.292 394.34L96.0684 404.853" stroke="#060606" stroke-width="1.5" stroke-miterlimit="10" stroke-linecap="round" stroke-linejoin="round"/>
<path d="M114.292 445.297L96.0684 455.811" stroke="#060606" stroke-width="1.5" stroke-miterlimit="10" stroke-linecap="round" stroke-linejoin="round"/>
<path d="M160.313 367.786L117.38 392.555" stroke="#060606" stroke-width="1.5" stroke-miterlimit="10" stroke-linecap="round" stroke-linejoin="round"/>
<path d="M160.313 418.745L117.38 443.513" stroke="#060606" stroke-width="1.5" stroke-miterlimit="10" stroke-linecap="round" stroke-linejoin="round"/>
<path d="M131.311 452.086V499.617C131.311 506.435 126.52 514.725 120.611 518.134L173.665 487.526C186.043 480.385 196.076 463.02 196.076 448.738V414.722L131.311 452.086Z" fill="#060606" stroke="#060606" stroke-width="1.5" stroke-linejoin="round"/>
<path d="M144.336 439.919V477.071C144.336 492.19 133.715 510.575 120.611 518.134L265.548 434.517C277.925 427.376 287.958 410.01 287.958 395.729V357.061L144.336 439.919Z" fill="#B0F127" stroke="#060606" stroke-width="1.5" stroke-linejoin="round"/>
<path d="M220.432 174.836L37.1562 280.573" stroke="#060606" stroke-width="1.5" stroke-miterlimit="10" stroke-linecap="round" stroke-linejoin="round"/>
<path d="M115.012 252.318L64.2881 281.582" stroke="#060606" stroke-width="1.5" stroke-miterlimit="10" stroke-linecap="round" stroke-linejoin="round"/>
<path d="M163.86 224.138L121.118 248.797" stroke="#060606" stroke-width="1.5" stroke-miterlimit="10" stroke-linecap="round" stroke-linejoin="round"/>
<path d="M136.615 252.315L71.335 289.976" stroke="#060606" stroke-width="1.5" stroke-miterlimit="10" stroke-linecap="round" stroke-linejoin="round"/>
<path d="M113.605 278.053L62.4092 307.589" stroke="#060606" stroke-width="1.5" stroke-miterlimit="10" stroke-linecap="round" stroke-linejoin="round"/>
<path d="M151.175 256.379L119.705 274.535" stroke="#060606" stroke-width="1.5" stroke-miterlimit="10" stroke-linecap="round" stroke-linejoin="round"/>
<path d="M145.07 280.5L93.8809 310.032" stroke="#060606" stroke-width="1.5" stroke-miterlimit="10" stroke-linecap="round" stroke-linejoin="round"/>
<path fill-rule="evenodd" clip-rule="evenodd" d="M321.276 537.832C318.37 532.542 313.282 527.565 306.011 523.37C281.786 509.394 242.511 509.394 218.286 523.37C211.015 527.565 205.926 532.542 203.02 537.832H200.112V548.19H200.124C199.906 557.509 205.961 566.869 218.286 573.98C242.511 587.955 281.786 587.955 306.011 573.98C318.337 566.869 324.391 557.509 324.173 548.19H324.219V537.832H321.276Z" fill="#B0F127"/>
<path d="M321.277 537.833L320.761 538.115L320.929 538.42H321.277V537.833ZM203.02 537.833V538.42H203.368L203.536 538.115L203.02 537.833ZM200.113 537.833V537.245H199.524V537.833H200.113ZM200.113 548.19H199.524V548.778H200.113V548.19ZM200.124 548.19L200.712 548.203L200.727 547.602H200.124V548.19ZM324.173 548.19V547.602H323.571L323.585 548.203L324.173 548.19ZM324.219 548.19V548.778H324.807V548.19H324.219ZM324.219 537.833H324.807V537.245H324.219V537.833ZM305.717 523.879C312.92 528.035 317.92 532.942 320.761 538.115L321.793 537.55C318.822 532.143 313.644 527.096 306.305 522.861L305.717 523.879ZM218.581 523.879C230.582 516.955 246.35 513.476 262.148 513.476C277.948 513.476 293.715 516.955 305.717 523.879L306.305 522.861C294.082 515.81 278.099 512.301 262.148 512.301C246.198 512.301 230.215 515.81 217.992 522.861L218.581 523.879ZM203.536 538.115C206.378 532.942 211.378 528.035 218.581 523.879L217.992 522.861C210.653 527.096 205.475 532.143 202.505 537.55L203.536 538.115ZM200.113 538.42H203.02V537.245H200.113V538.42ZM200.701 548.19V537.833H199.524V548.19H200.701ZM200.124 547.602H200.113V548.778H200.124V547.602ZM218.581 573.471C206.363 566.423 200.502 557.232 200.712 548.203L199.536 548.176C199.312 557.787 205.558 567.315 217.992 574.489L218.581 573.471ZM305.717 573.471C293.715 580.396 277.948 583.874 262.148 583.874C246.35 583.874 230.582 580.396 218.581 573.471L217.992 574.489C230.215 581.54 246.198 585.049 262.148 585.049C278.099 585.049 294.082 581.54 306.305 574.489L305.717 573.471ZM323.585 548.203C323.796 557.232 317.934 566.423 305.717 573.471L306.305 574.489C318.74 567.315 324.986 557.787 324.762 548.176L323.585 548.203ZM324.219 547.602H324.173V548.778H324.219V547.602ZM323.631 537.833V548.19H324.807V537.833H323.631ZM321.277 538.42H324.219V537.245H321.277V538.42Z" fill="#060606"/>
<mask id="mask4_1403_68465" style="mask-type:alpha" maskUnits="userSpaceOnUse" x="199" y="510" width="126" height="74">
<path fill-rule="evenodd" clip-rule="evenodd" d="M321.276 535.798C318.37 530.508 313.282 525.531 306.011 521.336C281.786 507.361 242.511 507.361 218.286 521.336C211.015 525.531 205.926 530.508 203.02 535.798H200.112V546.156H200.124C199.906 555.476 205.961 564.835 218.286 571.946C242.511 585.922 281.786 585.922 306.011 571.946C318.337 564.835 324.391 555.476 324.173 546.156H324.219V535.798H321.276Z" fill="#71A407"/>
<path d="M321.277 535.798L320.761 536.081L320.929 536.386H321.277V535.798ZM203.02 535.798V536.386H203.368L203.536 536.081L203.02 535.798ZM200.113 535.798V535.211H199.524V535.798H200.113ZM200.113 546.156H199.524V546.744H200.113V546.156ZM200.124 546.156L200.712 546.169L200.727 545.568H200.124V546.156ZM324.173 546.156V545.568H323.571L323.585 546.169L324.173 546.156ZM324.219 546.156V546.744H324.807V546.156H324.219ZM324.219 535.798H324.807V535.211H324.219V535.798ZM305.717 521.845C312.92 526.001 317.92 530.908 320.761 536.081L321.793 535.515C318.822 530.109 313.644 525.062 306.305 520.827L305.717 521.845ZM218.581 521.845C230.582 514.921 246.35 511.442 262.148 511.442C277.948 511.442 293.715 514.921 305.717 521.845L306.305 520.827C294.082 513.776 278.099 510.267 262.148 510.267C246.198 510.267 230.215 513.776 217.992 520.827L218.581 521.845ZM203.536 536.081C206.378 530.908 211.378 526.001 218.581 521.845L217.992 520.827C210.653 525.062 205.475 530.109 202.505 535.515L203.536 536.081ZM200.113 536.386H203.02V535.211H200.113V536.386ZM200.701 546.156V535.798H199.524V546.156H200.701ZM200.124 545.568H200.113V546.744H200.124V545.568ZM218.581 571.438C206.363 564.389 200.502 555.198 200.712 546.169L199.536 546.142C199.312 555.753 205.558 565.281 217.992 572.455L218.581 571.438ZM305.717 571.438C293.715 578.361 277.948 581.841 262.148 581.841C246.35 581.841 230.582 578.361 218.581 571.438L217.992 572.455C230.215 579.507 246.198 583.016 262.148 583.016C278.099 583.016 294.082 579.507 306.305 572.455L305.717 571.438ZM323.585 546.169C323.796 555.198 317.934 564.389 305.717 571.438L306.305 572.455C318.74 565.281 324.986 555.753 324.762 546.142L323.585 546.169ZM324.219 545.568H324.173V546.744H324.219V545.568ZM323.631 535.798V546.156H324.807V535.798H323.631ZM321.277 536.386H324.219V535.211H321.277V536.386Z" fill="#060606"/>
</mask>
<g mask="url(#mask4_1403_68465)">
<path d="M200.119 535.804H262.174V586.413H200.119V535.804Z" fill="#B0F127"/>
</g>
<path d="M321.277 537.833L320.761 538.115L320.929 538.42H321.277V537.833ZM203.02 537.833V538.42H203.368L203.536 538.115L203.02 537.833ZM200.113 537.833V537.245H199.524V537.833H200.113ZM200.113 548.19H199.524V548.778H200.113V548.19ZM200.124 548.19L200.712 548.203L200.727 547.602H200.124V548.19ZM324.173 548.19V547.602H323.571L323.585 548.203L324.173 548.19ZM324.219 548.19V548.778H324.807V548.19H324.219ZM324.219 537.833H324.807V537.245H324.219V537.833ZM305.717 523.879C312.92 528.035 317.92 532.942 320.761 538.115L321.793 537.55C318.822 532.143 313.644 527.096 306.305 522.861L305.717 523.879ZM218.581 523.879C230.582 516.955 246.35 513.476 262.148 513.476C277.948 513.476 293.715 516.955 305.717 523.879L306.305 522.861C294.082 515.81 278.099 512.301 262.148 512.301C246.198 512.301 230.215 515.81 217.992 522.861L218.581 523.879ZM203.536 538.115C206.378 532.942 211.378 528.035 218.581 523.879L217.992 522.861C210.653 527.096 205.475 532.143 202.505 537.55L203.536 538.115ZM200.113 538.42H203.02V537.245H200.113V538.42ZM200.701 548.19V537.833H199.524V548.19H200.701ZM200.124 547.602H200.113V548.778H200.124V547.602ZM218.581 573.471C206.363 566.423 200.502 557.232 200.712 548.203L199.536 548.176C199.312 557.787 205.558 567.315 217.992 574.489L218.581 573.471ZM305.717 573.471C293.715 580.396 277.948 583.874 262.148 583.874C246.35 583.874 230.582 580.396 218.581 573.471L217.992 574.489C230.215 581.54 246.198 585.049 262.148 585.049C278.099 585.049 294.082 581.54 306.305 574.489L305.717 573.471ZM323.585 548.203C323.796 557.232 317.934 566.423 305.717 573.471L306.305 574.489C318.74 567.315 324.986 557.787 324.762 548.176L323.585 548.203ZM324.219 547.602H324.173V548.778H324.219V547.602ZM323.631 537.833V548.19H324.807V537.833H323.631ZM321.277 538.42H324.219V537.245H321.277V538.42Z" fill="#060606"/>
<path d="M306.011 559.165C330.235 545.19 330.235 522.531 306.011 508.555C281.787 494.58 242.511 494.58 218.287 508.555C194.062 522.531 194.062 545.19 218.287 559.165C242.511 573.141 281.787 573.141 306.011 559.165Z" fill="#B0F127" stroke="#060606" stroke-width="1.5"/>
<path d="M275.506 518.972C271.21 515.621 264.647 516.273 257.576 518.263L252.438 513.33L247.233 515.135L252.235 519.937C250.868 520.411 249.485 520.912 248.112 521.41L243.078 516.575L237.876 518.378L243.01 523.31C241.897 523.714 240.803 524.11 239.725 524.484L239.708 524.469L232.528 526.956L235.87 530.162C235.87 530.162 239.669 528.788 239.647 528.851C241.756 528.12 243.177 528.589 244.012 529.129L249.865 534.749C250.011 534.699 250.204 534.636 250.437 534.579C250.264 534.639 250.077 534.703 249.888 534.77L258.085 542.643C258.392 543.058 258.637 543.803 257.166 544.315C257.268 544.326 253.382 545.626 253.382 545.626L256.083 549.57L262.855 547.223C264.117 546.786 265.37 546.369 266.592 545.951L271.79 550.939L276.99 549.138L271.848 544.201C273.294 543.724 274.682 543.251 276.03 542.783L281.145 547.698L286.349 545.893L281.164 540.912C289.613 537.589 294.412 534.195 290.236 529.191C286.874 525.161 281.988 524.536 276.304 525.57C278.399 523.637 278.658 521.421 275.506 518.972ZM279.336 532.164C283.222 535.892 271.714 539.304 268.189 540.529L261.306 533.917C264.835 532.695 275.286 528.276 279.336 532.164ZM267.202 523.677C270.733 527.07 261.093 529.873 258.154 530.892L251.911 524.897C254.848 523.878 263.516 520.139 267.202 523.677Z" fill="#060606"/>
<path fill-rule="evenodd" clip-rule="evenodd" d="M321.276 522.658C318.37 517.368 313.282 512.391 306.011 508.195C281.786 494.22 242.511 494.22 218.286 508.195C211.015 512.391 205.926 517.368 203.021 522.658H200.112V533.015H200.124C199.906 542.335 205.961 551.694 218.286 558.806C242.511 572.781 281.786 572.781 306.011 558.806C318.337 551.694 324.391 542.335 324.173 533.015H324.219V522.658H321.276Z" fill="#B0F127"/>
<path d="M321.276 522.658L320.76 522.941L320.928 523.246H321.276V522.658ZM203.02 522.658V523.246H203.367L203.535 522.941L203.02 522.658ZM200.112 522.658V522.071H199.523V522.658H200.112ZM200.112 533.015H199.523V533.603H200.112V533.015ZM200.123 533.015L200.711 533.029L200.726 532.427H200.123V533.015ZM324.172 533.015V532.427H323.57L323.584 533.029L324.172 533.015ZM324.218 533.015V533.603H324.806V533.015H324.218ZM324.218 522.658H324.806V522.071H324.218V522.658ZM305.716 508.705C312.919 512.86 317.919 517.768 320.76 522.941L321.792 522.375C318.821 516.969 313.643 511.921 306.304 507.687L305.716 508.705ZM218.58 508.705C230.581 501.781 246.349 498.302 262.147 498.302C277.947 498.302 293.714 501.781 305.716 508.705L306.304 507.687C294.081 500.635 278.098 497.126 262.147 497.126C246.197 497.126 230.214 500.635 217.992 507.687L218.58 508.705ZM203.535 522.941C206.377 517.768 211.377 512.86 218.58 508.705L217.992 507.687C210.652 511.921 205.475 516.969 202.504 522.375L203.535 522.941ZM200.112 523.246H203.02V522.071H200.112V523.246ZM200.7 533.015V522.658H199.523V533.015H200.7ZM200.123 532.427H200.112V533.603H200.123V532.427ZM218.58 558.297C206.363 551.248 200.501 542.058 200.711 533.029L199.535 533.002C199.311 542.612 205.557 552.141 217.992 559.315L218.58 558.297ZM305.716 558.297C293.714 565.221 277.947 568.7 262.147 568.7C246.349 568.7 230.581 565.221 218.58 558.297L217.992 559.315C230.214 566.366 246.197 569.875 262.147 569.875C278.098 569.875 294.081 566.366 306.304 559.315L305.716 558.297ZM323.584 533.029C323.795 542.058 317.933 551.248 305.716 558.297L306.304 559.315C318.739 552.141 324.985 542.612 324.761 533.002L323.584 533.029ZM324.218 532.427H324.172V533.603H324.218V532.427ZM323.63 522.658V533.015H324.806V522.658H323.63ZM321.276 523.246H324.218V522.071H321.276V523.246Z" fill="#060606"/>
<mask id="mask5_1403_68465" style="mask-type:alpha" maskUnits="userSpaceOnUse" x="199" y="495" width="126" height="73">
<path fill-rule="evenodd" clip-rule="evenodd" d="M321.275 520.635C318.368 515.345 313.28 510.367 306.009 506.172C281.784 492.197 242.509 492.197 218.285 506.172C211.014 510.367 205.924 515.345 203.019 520.635H200.111V530.991H200.122C199.904 540.311 205.959 549.671 218.285 556.783C242.509 570.758 281.784 570.758 306.009 556.783C318.335 549.671 324.389 540.311 324.171 530.991H324.218V520.635H321.275Z" fill="#71A407"/>
<path d="M321.275 520.635L320.76 520.918L320.927 521.222H321.275V520.635ZM203.019 520.635V521.222H203.367L203.534 520.918L203.019 520.635ZM200.112 520.635V520.047H199.523V520.635H200.112ZM200.112 530.991H199.523V531.579H200.112V530.991ZM200.123 530.991L200.711 531.006L200.725 530.404H200.123V530.991ZM324.172 530.991V530.404H323.569L323.583 531.006L324.172 530.991ZM324.218 530.991V531.579H324.806V530.991H324.218ZM324.218 520.635H324.806V520.047H324.218V520.635ZM305.715 506.681C312.918 510.837 317.918 515.744 320.76 520.918L321.791 520.352C318.82 514.945 313.643 509.898 306.303 505.663L305.715 506.681ZM218.579 506.681C230.581 499.758 246.348 496.278 262.147 496.278C277.946 496.278 293.714 499.758 305.715 506.681L306.303 505.663C294.081 498.612 278.098 495.103 262.147 495.103C246.197 495.103 230.214 498.612 217.991 505.663L218.579 506.681ZM203.534 520.918C206.376 515.744 211.376 510.837 218.579 506.681L217.991 505.663C210.652 509.898 205.474 514.945 202.503 520.352L203.534 520.918ZM200.112 521.222H203.019V520.047H200.112V521.222ZM200.7 530.991V520.635H199.523V530.991H200.7ZM200.123 530.404H200.112V531.579H200.123V530.404ZM218.579 556.273C206.361 549.225 200.5 540.034 200.711 531.006L199.534 530.978C199.31 540.589 205.556 550.117 217.991 557.291L218.579 556.273ZM305.715 556.273C293.714 563.197 277.946 566.676 262.147 566.676C246.348 566.676 230.581 563.197 218.579 556.273L217.991 557.291C230.214 564.343 246.196 567.852 262.147 567.852C278.098 567.852 294.081 564.343 306.303 557.291L305.715 556.273ZM323.583 531.006C323.794 540.034 317.932 549.225 305.715 556.273L306.303 557.291C318.738 550.117 324.984 540.589 324.76 530.978L323.583 531.006ZM324.218 530.404H324.172V531.579H324.218V530.404ZM323.63 520.635V530.991H324.806V520.635H323.63ZM321.275 521.222H324.218V520.047H321.275V521.222Z" fill="#060606"/>
</mask>
<g mask="url(#mask5_1403_68465)">
<path d="M200.119 520.631H262.174V571.24H200.119V520.631Z" fill="#B0F127"/>
</g>
<path d="M321.276 522.658L320.76 522.941L320.928 523.246H321.276V522.658ZM203.02 522.658V523.246H203.367L203.535 522.941L203.02 522.658ZM200.112 522.658V522.071H199.523V522.658H200.112ZM200.112 533.015H199.523V533.603H200.112V533.015ZM200.123 533.015L200.711 533.029L200.726 532.427H200.123V533.015ZM324.172 533.015V532.427H323.57L323.584 533.029L324.172 533.015ZM324.218 533.015V533.603H324.806V533.015H324.218ZM324.218 522.658H324.806V522.071H324.218V522.658ZM305.716 508.705C312.919 512.86 317.919 517.768 320.76 522.941L321.792 522.375C318.821 516.969 313.643 511.921 306.304 507.687L305.716 508.705ZM218.58 508.705C230.581 501.781 246.349 498.302 262.147 498.302C277.947 498.302 293.714 501.781 305.716 508.705L306.304 507.687C294.081 500.635 278.098 497.126 262.147 497.126C246.197 497.126 230.214 500.635 217.992 507.687L218.58 508.705ZM203.535 522.941C206.377 517.768 211.377 512.86 218.58 508.705L217.992 507.687C210.652 511.921 205.475 516.969 202.504 522.375L203.535 522.941ZM200.112 523.246H203.02V522.071H200.112V523.246ZM200.7 533.015V522.658H199.523V533.015H200.7ZM200.123 532.427H200.112V533.603H200.123V532.427ZM218.58 558.297C206.363 551.248 200.501 542.058 200.711 533.029L199.535 533.002C199.311 542.612 205.557 552.141 217.992 559.315L218.58 558.297ZM305.716 558.297C293.714 565.221 277.947 568.7 262.147 568.7C246.349 568.7 230.581 565.221 218.58 558.297L217.992 559.315C230.214 566.366 246.197 569.875 262.147 569.875C278.098 569.875 294.081 566.366 306.304 559.315L305.716 558.297ZM323.584 533.029C323.795 542.058 317.933 551.248 305.716 558.297L306.304 559.315C318.739 552.141 324.985 542.612 324.761 533.002L323.584 533.029ZM324.218 532.427H324.172V533.603H324.218V532.427ZM323.63 522.658V533.015H324.806V522.658H323.63ZM321.276 523.246H324.218V522.071H321.276V523.246Z" fill="#060606"/>
<path d="M306.011 543.991C330.235 530.015 330.235 507.357 306.011 493.381C281.787 479.406 242.511 479.406 218.287 493.381C194.062 507.357 194.062 530.015 218.287 543.991C242.511 557.967 281.787 557.967 306.011 543.991Z" fill="#B0F127" stroke="#060606" stroke-width="1.5"/>
<path d="M275.506 503.798C271.209 500.447 264.646 501.099 257.575 503.089L252.437 498.156L247.232 499.961L252.235 504.763C250.867 505.238 249.484 505.738 248.111 506.236L243.077 501.401L237.875 503.204L243.009 508.136C241.896 508.54 240.802 508.936 239.724 509.31L239.707 509.295L232.527 511.782L235.869 514.989C235.869 514.989 239.668 513.614 239.647 513.677C241.755 512.947 243.176 513.415 244.011 513.955L249.864 519.574C250.01 519.525 250.203 519.462 250.436 519.405C250.263 519.465 250.076 519.529 249.887 519.595L258.084 527.469C258.391 527.883 258.636 528.629 257.165 529.141C257.267 529.152 253.381 530.452 253.381 530.452L256.082 534.397L262.854 532.048C264.116 531.612 265.369 531.195 266.591 530.777L271.789 535.765L276.989 533.964L271.847 529.027C273.293 528.549 274.681 528.078 276.029 527.609L281.144 532.524L286.349 530.719L281.163 525.738C289.612 522.415 294.411 519.021 290.235 514.017C286.873 509.987 281.987 509.362 276.303 510.396C278.398 508.464 278.657 506.248 275.506 503.798ZM279.335 516.991C283.221 520.717 271.713 524.129 268.188 525.354L261.305 518.744C264.834 517.521 275.285 513.101 279.335 516.991ZM267.201 508.503C270.732 511.896 261.092 514.699 258.153 515.717L251.91 509.722C254.847 508.703 263.516 504.966 267.201 508.503Z" fill="#060606"/>
<path fill-rule="evenodd" clip-rule="evenodd" d="M321.275 508.189C318.369 502.899 313.281 497.922 306.01 493.727C281.785 479.751 242.51 479.751 218.285 493.727C211.014 497.922 205.926 502.899 203.02 508.189H200.111V518.547H200.123C199.905 527.866 205.96 537.226 218.285 544.337C242.51 558.312 281.785 558.312 306.01 544.337C318.336 537.226 324.39 527.866 324.172 518.547H324.218V508.189H321.275Z" fill="#B0F127"/>
<path d="M321.276 508.189L320.76 508.472L320.928 508.777H321.276V508.189ZM203.02 508.189V508.777H203.367L203.535 508.472L203.02 508.189ZM200.112 508.189V507.601H199.523V508.189H200.112ZM200.112 518.546H199.523V519.134H200.112V518.546ZM200.123 518.546L200.711 518.56L200.726 517.959H200.123V518.546ZM324.172 518.546V517.959H323.57L323.584 518.56L324.172 518.546ZM324.219 518.546V519.134H324.807V518.546H324.219ZM324.219 508.189H324.807V507.601H324.219V508.189ZM305.716 494.236C312.919 498.391 317.919 503.299 320.76 508.472L321.792 507.906C318.821 502.499 313.643 497.452 306.304 493.218L305.716 494.236ZM218.58 494.236C230.581 487.312 246.349 483.833 262.147 483.833C277.947 483.833 293.714 487.312 305.716 494.236L306.304 493.218C294.081 486.166 278.098 482.657 262.147 482.657C246.197 482.657 230.214 486.166 217.991 493.218L218.58 494.236ZM203.535 508.472C206.377 503.299 211.377 498.391 218.58 494.236L217.991 493.218C210.652 497.452 205.475 502.499 202.504 507.906L203.535 508.472ZM200.112 508.777H203.02V507.601H200.112V508.777ZM200.7 518.546V508.189H199.523V518.546H200.7ZM200.123 517.959H200.112V519.134H200.123V517.959ZM218.58 543.827C206.363 536.779 200.501 527.588 200.711 518.56L199.535 518.532C199.311 528.143 205.557 537.672 217.991 544.845L218.58 543.827ZM305.716 543.827C293.714 550.752 277.947 554.23 262.147 554.23C246.349 554.23 230.581 550.752 218.58 543.827L217.991 544.845C230.214 551.897 246.197 555.406 262.147 555.406C278.098 555.406 294.081 551.897 306.304 544.845L305.716 543.827ZM323.584 518.56C323.795 527.588 317.933 536.779 305.716 543.827L306.304 544.845C318.739 537.672 324.985 528.143 324.761 518.532L323.584 518.56ZM324.219 517.959H324.172V519.134H324.219V517.959ZM323.631 508.189V518.546H324.807V508.189H323.631ZM321.276 508.777H324.219V507.601H321.276V508.777Z" fill="#060606"/>
<mask id="mask6_1403_68465" style="mask-type:alpha" maskUnits="userSpaceOnUse" x="199" y="480" width="126" height="74">
<path fill-rule="evenodd" clip-rule="evenodd" d="M321.275 506.169C318.368 500.879 313.28 495.901 306.009 491.706C281.784 477.731 242.509 477.731 218.285 491.706C211.014 495.901 205.925 500.879 203.019 506.169H200.111V516.526H200.122C199.904 525.846 205.959 535.205 218.285 542.317C242.509 556.292 281.784 556.292 306.009 542.317C318.335 535.205 324.389 525.846 324.171 516.526H324.218V506.169H321.275Z" fill="#71A407"/>
<path d="M321.275 506.169L320.76 506.452L320.927 506.757H321.275V506.169ZM203.019 506.169V506.757H203.367L203.534 506.452L203.019 506.169ZM200.112 506.169V505.581H199.523V506.169H200.112ZM200.112 516.526H199.523V517.113H200.112V516.526ZM200.123 516.526L200.711 516.54L200.725 515.938H200.123V516.526ZM324.172 516.526V515.938H323.569L323.583 516.54L324.172 516.526ZM324.219 516.526V517.113H324.807V516.526H324.219ZM324.219 506.169H324.807V505.581H324.219V506.169ZM305.715 492.216C312.918 496.371 317.918 501.279 320.76 506.452L321.791 505.886C318.82 500.479 313.643 495.432 306.303 491.198L305.715 492.216ZM218.579 492.216C230.581 485.292 246.348 481.813 262.147 481.813C277.946 481.813 293.714 485.292 305.715 492.216L306.303 491.198C294.081 484.146 278.098 480.637 262.147 480.637C246.197 480.637 230.214 484.146 217.991 491.198L218.579 492.216ZM203.534 506.452C206.376 501.279 211.376 496.371 218.579 492.216L217.991 491.198C210.652 495.432 205.474 500.479 202.503 505.886L203.534 506.452ZM200.112 506.757H203.019V505.581H200.112V506.757ZM200.7 516.526V506.169H199.523V516.526H200.7ZM200.123 515.938H200.112V517.113H200.123V515.938ZM218.579 541.807C206.362 534.759 200.5 525.568 200.711 516.54L199.534 516.512C199.31 526.123 205.556 535.652 217.991 542.825L218.579 541.807ZM305.715 541.807C293.714 548.731 277.946 552.21 262.147 552.21C246.348 552.21 230.581 548.731 218.579 541.807L217.991 542.825C230.214 549.877 246.197 553.386 262.147 553.386C278.098 553.386 294.081 549.877 306.303 542.825L305.715 541.807ZM323.583 516.54C323.794 525.568 317.932 534.759 305.715 541.807L306.303 542.825C318.738 535.652 324.984 526.123 324.76 516.512L323.583 516.54ZM324.219 515.938H324.172V517.113H324.219V515.938ZM323.631 506.169V516.526H324.807V506.169H323.631ZM321.275 506.757H324.219V505.581H321.275V506.757Z" fill="#060606"/>
</mask>
<g mask="url(#mask6_1403_68465)">
<path d="M200.119 506.165H262.174V556.774H200.119V506.165Z" fill="#B0F127"/>
</g>
<path d="M321.276 508.189L320.76 508.472L320.928 508.777H321.276V508.189ZM203.02 508.189V508.777H203.367L203.535 508.472L203.02 508.189ZM200.112 508.189V507.601H199.523V508.189H200.112ZM200.112 518.546H199.523V519.134H200.112V518.546ZM200.123 518.546L200.711 518.56L200.726 517.959H200.123V518.546ZM324.172 518.546V517.959H323.57L323.584 518.56L324.172 518.546ZM324.219 518.546V519.134H324.807V518.546H324.219ZM324.219 508.189H324.807V507.601H324.219V508.189ZM305.716 494.236C312.919 498.391 317.919 503.299 320.76 508.472L321.792 507.906C318.821 502.499 313.643 497.452 306.304 493.218L305.716 494.236ZM218.58 494.236C230.581 487.312 246.349 483.833 262.147 483.833C277.947 483.833 293.714 487.312 305.716 494.236L306.304 493.218C294.081 486.166 278.098 482.657 262.147 482.657C246.197 482.657 230.214 486.166 217.991 493.218L218.58 494.236ZM203.535 508.472C206.377 503.299 211.377 498.391 218.58 494.236L217.991 493.218C210.652 497.452 205.475 502.499 202.504 507.906L203.535 508.472ZM200.112 508.777H203.02V507.601H200.112V508.777ZM200.7 518.546V508.189H199.523V518.546H200.7ZM200.123 517.959H200.112V519.134H200.123V517.959ZM218.58 543.827C206.363 536.779 200.501 527.588 200.711 518.56L199.535 518.532C199.311 528.143 205.557 537.672 217.991 544.845L218.58 543.827ZM305.716 543.827C293.714 550.752 277.947 554.23 262.147 554.23C246.349 554.23 230.581 550.752 218.58 543.827L217.991 544.845C230.214 551.897 246.197 555.406 262.147 555.406C278.098 555.406 294.081 551.897 306.304 544.845L305.716 543.827ZM323.584 518.56C323.795 527.588 317.933 536.779 305.716 543.827L306.304 544.845C318.739 537.672 324.985 528.143 324.761 518.532L323.584 518.56ZM324.219 517.959H324.172V519.134H324.219V517.959ZM323.631 508.189V518.546H324.807V508.189H323.631ZM321.276 508.777H324.219V507.601H321.276V508.777Z" fill="#060606"/>
<path d="M306.011 529.522C330.235 515.547 330.235 492.888 306.011 478.912C281.787 464.937 242.511 464.937 218.287 478.912C194.062 492.888 194.062 515.547 218.287 529.522C242.511 543.498 281.787 543.498 306.011 529.522Z" fill="white" stroke="#060606" stroke-width="1.5"/>
<path d="M275.506 489.329C271.21 485.978 264.647 486.63 257.576 488.62L252.438 483.687L247.233 485.492L252.235 490.294C250.868 490.768 249.485 491.269 248.112 491.767L243.078 486.932L237.876 488.735L243.01 493.667C241.897 494.071 240.803 494.467 239.725 494.841L239.708 494.826L232.528 497.313L235.87 500.519C235.87 500.519 239.669 499.145 239.647 499.208C241.756 498.477 243.177 498.946 244.012 499.486L249.865 505.106C250.011 505.056 250.204 504.993 250.437 504.936C250.264 504.996 250.077 505.059 249.888 505.127L258.085 513C258.392 513.415 258.637 514.16 257.166 514.672C257.268 514.683 253.382 515.983 253.382 515.983L256.083 519.927L262.855 517.58C264.117 517.143 265.37 516.726 266.592 516.308L271.79 521.296L276.99 519.495L271.848 514.558C273.294 514.081 274.682 513.608 276.03 513.14L281.145 518.055L286.349 516.25L281.164 511.269C289.613 507.946 294.412 504.552 290.236 499.548C286.874 495.518 281.988 494.893 276.304 495.927C278.399 493.994 278.658 491.778 275.506 489.329ZM279.336 502.521C283.222 506.249 271.714 509.661 268.189 510.885L261.306 504.274C264.835 503.052 275.286 498.632 279.336 502.521ZM267.202 494.034C270.733 497.427 261.093 500.23 258.154 501.249L251.911 495.253C254.848 494.235 263.516 490.496 267.202 494.034Z" fill="#060606"/>
</svg>
