<svg width="505" height="584" viewBox="0 0 505 584" fill="none" xmlns="http://www.w3.org/2000/svg">
<g clip-path="url(#clip0_1403_68467)">
<path fill-rule="evenodd" clip-rule="evenodd" d="M73.9226 301.058C68.682 304.085 68.682 308.991 73.9226 312.017L219.493 396.074C221.315 397.126 223.53 397.813 225.865 398.133C225.502 399.517 225.306 400.896 225.306 402.215V571.992C225.306 578.177 229.647 580.684 235.003 577.592L378.338 494.825C383.693 491.733 388.035 484.211 388.035 478.026V308.25C388.035 307.711 388.002 307.201 387.938 306.72C388.014 304.682 386.704 302.631 384.011 301.076L238.441 217.018C233.2 213.992 224.704 213.992 219.463 217.018L73.9226 301.058Z" fill="#B0F127"/>
<path d="M225.866 398.133L226.332 398.255L226.471 397.729L225.932 397.655L225.866 398.133ZM387.939 306.72L387.458 306.703L387.456 306.743L387.461 306.783L387.939 306.72ZM74.1647 311.599C71.6323 310.137 70.4755 308.288 70.4755 306.538C70.4755 304.788 71.6323 302.938 74.1647 301.476L73.6823 300.641C70.9742 302.204 69.5107 304.321 69.5107 306.538C69.5107 308.754 70.9742 310.871 73.6823 312.435L74.1647 311.599ZM219.735 395.657L74.1647 311.599L73.6823 312.435L219.253 396.492L219.735 395.657ZM225.932 397.655C223.644 397.341 221.491 396.671 219.735 395.657L219.253 396.492C221.14 397.582 223.418 398.284 225.8 398.611L225.932 397.655ZM225.789 402.215C225.789 400.944 225.979 399.606 226.332 398.255L225.399 398.011C225.028 399.429 224.824 400.85 224.824 402.215H225.789ZM225.789 571.992V402.215H224.824V571.992H225.789ZM234.763 577.174C232.173 578.669 229.941 578.75 228.388 577.853C226.835 576.956 225.789 574.983 225.789 571.992H224.824C224.824 575.186 225.948 577.559 227.906 578.689C229.862 579.819 232.48 579.607 235.245 578.009L234.763 577.174ZM378.097 494.408L234.763 577.174L235.245 578.009L378.58 495.243L378.097 494.408ZM387.553 478.026C387.553 481.014 386.502 484.358 384.778 487.344C383.054 490.33 380.685 492.914 378.097 494.408L378.58 495.243C381.348 493.644 383.827 490.921 385.613 487.827C387.399 484.733 388.518 481.223 388.518 478.026H387.553ZM387.553 308.25V478.026H388.518V308.25H387.553ZM387.461 306.783C387.522 307.242 387.553 307.731 387.553 308.25H388.518C388.518 307.692 388.484 307.161 388.418 306.657L387.461 306.783ZM383.771 301.493C386.374 302.996 387.523 304.907 387.458 306.703L388.422 306.738C388.505 304.458 387.037 302.265 384.253 300.657L383.771 301.493ZM238.201 217.436L383.771 301.493L384.253 300.657L238.683 216.6L238.201 217.436ZM219.705 217.436C222.235 215.975 225.581 215.231 228.953 215.231C232.325 215.231 235.671 215.975 238.201 217.436L238.683 216.6C235.973 215.035 232.449 214.266 228.953 214.266C225.456 214.266 221.934 215.035 219.223 216.6L219.705 217.436ZM74.1647 301.476L219.705 217.436L219.223 216.6L73.6823 300.641L74.1647 301.476Z" fill="#060606"/>
<mask id="mask0_1403_68467" style="mask-type:alpha" maskUnits="userSpaceOnUse" x="69" y="214" width="320" height="366">
<path fill-rule="evenodd" clip-rule="evenodd" d="M73.9236 301.058C68.683 304.084 68.683 308.99 73.9236 312.017L219.494 396.074C221.316 397.126 223.531 397.812 225.866 398.133C225.503 399.517 225.307 400.896 225.307 402.215V571.991C225.307 578.177 229.648 580.684 235.004 577.591L378.339 494.825C383.694 491.732 388.036 484.211 388.036 478.025V308.249C388.036 307.711 388.003 307.201 387.939 306.719C388.015 304.682 386.705 302.63 384.012 301.075L238.442 217.018C233.201 213.992 224.705 213.992 219.464 217.018L73.9236 301.058Z" fill="#71A407"/>
<path d="M225.866 398.133L226.332 398.255L226.471 397.729L225.932 397.655L225.866 398.133ZM387.939 306.72L387.458 306.702L387.456 306.743L387.462 306.783L387.939 306.72ZM74.1647 311.599C71.6323 310.136 70.4755 308.287 70.4755 306.537C70.4755 304.787 71.6323 302.938 74.1647 301.476L73.6823 300.64C70.9742 302.204 69.5107 304.321 69.5107 306.537C69.5107 308.753 70.9742 310.87 73.6823 312.434L74.1647 311.599ZM219.735 395.656L74.1647 311.599L73.6823 312.434L219.253 396.492L219.735 395.656ZM225.932 397.655C223.644 397.341 221.491 396.671 219.735 395.656L219.253 396.492C221.14 397.581 223.418 398.283 225.8 398.611L225.932 397.655ZM225.789 402.215C225.789 400.944 225.979 399.606 226.332 398.255L225.399 398.01C225.028 399.428 224.824 400.849 224.824 402.215H225.789ZM225.789 571.991V402.215H224.824V571.991H225.789ZM234.763 577.173C232.173 578.669 229.941 578.749 228.388 577.853C226.835 576.956 225.789 574.983 225.789 571.991H224.824C224.824 575.186 225.948 577.559 227.906 578.688C229.862 579.818 232.48 579.606 235.245 578.009L234.763 577.173ZM378.097 494.407L234.763 577.173L235.245 578.009L378.58 495.243L378.097 494.407ZM387.553 478.025C387.553 481.014 386.502 484.357 384.778 487.344C383.054 490.33 380.685 492.913 378.097 494.407L378.58 495.243C381.348 493.644 383.827 490.92 385.613 487.826C387.399 484.732 388.518 481.223 388.518 478.025H387.553ZM387.553 308.249V478.025H388.518V308.249H387.553ZM387.462 306.783C387.522 307.241 387.553 307.731 387.553 308.249H388.518C388.518 307.691 388.484 307.16 388.418 306.656L387.462 306.783ZM383.771 301.493C386.374 302.996 387.523 304.906 387.458 306.702L388.422 306.738C388.505 304.457 387.037 302.264 384.253 300.657L383.771 301.493ZM238.201 217.435L383.771 301.493L384.253 300.657L238.683 216.6L238.201 217.435ZM219.705 217.435C222.235 215.975 225.581 215.23 228.953 215.23C232.325 215.23 235.671 215.975 238.201 217.435L238.683 216.6C235.973 215.034 232.449 214.266 228.953 214.266C225.456 214.266 221.934 215.034 219.223 216.6L219.705 217.435ZM74.1647 301.476L219.705 217.435L219.223 216.6L73.6823 300.64L74.1647 301.476Z" fill="#060606"/>
</mask>
<g mask="url(#mask0_1403_68467)">
<path d="M197.072 425.032C197.072 418.847 201.414 411.325 206.77 408.233L401.99 295.506C407.346 292.413 411.688 294.92 411.688 301.106V464.369C411.688 470.554 407.346 478.075 401.99 481.168L206.77 593.895C201.414 596.988 197.072 594.48 197.072 588.296V425.032Z" fill="#547907"/>
</g>
<path d="M225.866 398.133L226.333 398.255L226.47 397.729L225.931 397.655L225.866 398.133ZM387.94 306.72L387.457 306.702L387.456 306.743L387.461 306.783L387.94 306.72ZM74.1647 311.599C71.6323 310.136 70.4755 308.287 70.4755 306.537C70.4755 304.787 71.6323 302.938 74.1647 301.476L73.6823 300.64C70.9742 302.204 69.5107 304.321 69.5107 306.537C69.5107 308.753 70.9742 310.87 73.6823 312.434L74.1647 311.599ZM219.735 395.656L74.1647 311.599L73.6823 312.434L219.253 396.492L219.735 395.656ZM225.931 397.655C223.644 397.341 221.492 396.671 219.735 395.656L219.253 396.492C221.139 397.581 223.417 398.283 225.8 398.611L225.931 397.655ZM225.789 402.215C225.789 400.944 225.979 399.606 226.333 398.255L225.399 398.01C225.028 399.428 224.824 400.849 224.824 402.215H225.789ZM225.789 571.991V402.215H224.824V571.991H225.789ZM234.762 577.173C232.172 578.669 229.941 578.749 228.388 577.853C226.835 576.956 225.789 574.983 225.789 571.991H224.824C224.824 575.186 225.949 577.559 227.905 578.688C229.862 579.818 232.479 579.606 235.245 578.009L234.762 577.173ZM378.097 494.407L234.762 577.173L235.245 578.009L378.579 495.243L378.097 494.407ZM387.554 478.025C387.554 481.014 386.502 484.357 384.778 487.344C383.054 490.33 380.684 492.913 378.097 494.407L378.579 495.243C381.348 493.644 383.827 490.92 385.613 487.826C387.399 484.732 388.519 481.223 388.519 478.025H387.554ZM387.554 308.249V478.025H388.519V308.249H387.554ZM387.461 306.783C387.522 307.241 387.554 307.731 387.554 308.249H388.519C388.519 307.691 388.484 307.16 388.418 306.656L387.461 306.783ZM383.771 301.493C386.374 302.996 387.524 304.906 387.457 306.702L388.421 306.738C388.506 304.457 387.037 302.264 384.253 300.657L383.771 301.493ZM238.201 217.435L383.771 301.493L384.253 300.657L238.683 216.6L238.201 217.435ZM219.706 217.435C222.235 215.975 225.581 215.23 228.953 215.23C232.325 215.23 235.671 215.975 238.201 217.435L238.683 216.6C235.972 215.034 232.45 214.266 228.953 214.266C225.457 214.266 221.934 215.034 219.223 216.6L219.706 217.435ZM74.1647 301.476L219.706 217.435L219.223 216.6L73.6823 300.64L74.1647 301.476Z" fill="#060606"/>
<path d="M233.281 404.314C233.281 398.128 228.939 390.607 223.583 387.515L78.4584 303.714C73.1025 300.622 68.7607 303.129 68.7607 309.314L68.7607 476.914C68.7607 483.099 73.1025 490.621 78.4584 493.713L223.583 577.513C228.939 580.606 233.281 578.099 233.281 571.914V404.314Z" fill="#B0F127" stroke="#060606" stroke-width="1.5"/>
<path fill-rule="evenodd" clip-rule="evenodd" d="M86.6038 334.018C86.4408 334.738 86.3546 335.536 86.3546 336.407V465.473C86.3546 471.659 90.6964 479.18 96.0523 482.273L208.762 547.355C209.633 547.858 210.476 548.213 211.279 548.428V548.774C211.279 550.368 212.397 551.013 213.777 550.217L215.962 548.955C217.341 548.159 218.46 546.221 218.46 544.628V472.54V472.537V412.689C218.46 406.504 214.118 398.983 208.762 395.89L96.0523 330.807C95.7269 330.619 95.4054 330.452 95.0882 330.305L93.7625 329.54C92.1557 328.612 89.5506 328.612 87.9438 329.54L86.3057 330.485C84.6989 331.414 84.6989 332.918 86.3057 333.846L86.6038 334.018Z" fill="#060606"/>
<mask id="mask1_1403_68467" style="mask-type:alpha" maskUnits="userSpaceOnUse" x="85" y="328" width="134" height="222">
<path fill-rule="evenodd" clip-rule="evenodd" d="M86.6553 333.8C86.4593 334.574 86.3551 335.445 86.3551 336.402V466.568C86.3551 472.754 90.6968 480.274 96.0527 483.367L208.763 548.45C214.119 551.543 218.461 549.036 218.461 542.85V504.319V504.314V473.01V473.006V412.685C218.461 406.5 214.119 398.978 208.763 395.886L96.0527 330.803C95.7308 330.617 95.4125 330.451 95.0986 330.306L93.771 329.539C92.1642 328.611 89.5591 328.611 87.9524 329.539L86.5234 330.364C84.9167 331.292 84.9167 332.796 86.5234 333.724L86.6553 333.8Z" fill="#141414"/>
</mask>
<g mask="url(#mask1_1403_68467)">
<path d="M95.5521 327.671L216.436 397.474C218.043 398.402 218.043 399.906 216.436 400.834L213.45 402.558C211.844 403.486 209.238 403.486 207.632 402.558L86.7474 332.755C85.1407 331.827 85.1407 330.323 86.7474 329.395L89.7336 327.671C91.3403 326.743 93.9454 326.743 95.5521 327.671Z" fill="#141414"/>
</g>
<path d="M215.685 413.677C215.685 407.491 211.343 399.97 205.988 396.877L93.2777 331.794C87.9218 328.702 83.5801 331.209 83.5801 337.394V467.56C83.5801 473.745 87.9218 481.266 93.2777 484.359L205.988 549.442C211.343 552.535 215.685 550.027 215.685 543.842V413.677Z" fill="white" stroke="#060606" stroke-width="1.5"/>
<path fill-rule="evenodd" clip-rule="evenodd" d="M170.993 486.305C178.444 482.582 183.102 473.835 183.102 461.141C183.102 436.861 166.058 407.336 145.035 395.196C134.198 388.939 124.42 388.521 117.487 392.911L110.888 396.721L112.439 397.616C109.009 402.184 107.017 408.698 106.968 416.866L106.871 416.918L106.967 417.099C106.967 417.125 106.967 417.151 106.967 417.178C106.967 441.458 124.01 470.982 145.035 483.122C152.113 487.21 158.74 488.805 164.417 488.197V490.102L170.993 486.305Z" fill="#141414"/>
<path d="M170.993 486.305L170.777 485.873C170.769 485.877 170.76 485.882 170.752 485.887L170.993 486.305ZM117.487 392.911L117.728 393.328C117.734 393.325 117.739 393.322 117.745 393.318L117.487 392.911ZM110.888 396.721L110.647 396.303C110.498 396.389 110.406 396.548 110.406 396.721C110.406 396.893 110.498 397.053 110.647 397.139L110.888 396.721ZM112.439 397.616L112.824 397.906C112.907 397.795 112.939 397.655 112.911 397.52C112.884 397.384 112.799 397.267 112.68 397.199L112.439 397.616ZM106.968 416.866L107.194 417.293C107.351 417.209 107.449 417.046 107.45 416.869L106.968 416.866ZM106.871 416.918L106.645 416.491C106.532 416.551 106.447 416.653 106.41 416.776C106.372 416.898 106.385 417.03 106.445 417.144L106.871 416.918ZM106.967 417.099L107.449 417.1C107.45 417.021 107.43 416.943 107.393 416.873L106.967 417.099ZM164.417 488.197H164.899C164.899 488.06 164.842 487.929 164.74 487.838C164.638 487.747 164.502 487.703 164.366 487.717L164.417 488.197ZM164.417 490.102H163.935C163.935 490.274 164.027 490.433 164.176 490.52C164.325 490.606 164.509 490.606 164.658 490.52L164.417 490.102ZM182.619 461.141C182.619 473.728 178.006 482.262 170.777 485.873L171.209 486.737C178.881 482.902 183.584 473.941 183.584 461.141H182.619ZM144.793 395.614C155.215 401.632 164.677 411.978 171.534 423.857C178.392 435.737 182.619 449.105 182.619 461.141H183.584C183.584 448.896 179.29 435.362 172.37 423.375C165.45 411.387 155.878 400.901 145.276 394.779L144.793 395.614ZM117.745 393.318C124.472 389.06 134.048 389.409 144.793 395.614L145.276 394.779C134.349 388.469 124.367 387.983 117.229 392.503L117.745 393.318ZM111.129 397.139L117.728 393.328L117.246 392.493L110.647 396.303L111.129 397.139ZM112.68 397.199L111.129 396.303L110.647 397.139L112.197 398.034L112.68 397.199ZM107.45 416.869C107.499 408.773 109.473 402.369 112.824 397.906L112.053 397.327C108.545 401.998 106.535 408.622 106.486 416.863L107.45 416.869ZM107.097 417.344L107.194 417.293L106.742 416.44L106.645 416.491L107.097 417.344ZM107.393 416.873L107.297 416.691L106.445 417.144L106.541 417.325L107.393 416.873ZM107.449 417.178C107.449 417.152 107.449 417.126 107.449 417.1L106.485 417.098C106.485 417.125 106.485 417.151 106.485 417.178H107.449ZM145.276 482.704C134.854 476.687 125.392 466.341 118.534 454.461C111.677 442.581 107.449 429.213 107.449 417.178H106.485C106.485 429.422 110.779 442.956 117.699 454.944C124.619 466.931 134.19 477.417 144.793 483.54L145.276 482.704ZM164.366 487.717C158.817 488.311 152.292 486.756 145.276 482.704L144.793 483.54C151.934 487.663 158.663 489.299 164.469 488.677L164.366 487.717ZM164.899 490.102V488.197H163.935V490.102H164.899ZM170.752 485.887L164.176 489.684L164.658 490.52L171.234 486.722L170.752 485.887Z" fill="#060606"/>
<path d="M138.647 486.921C159.688 499.071 176.745 489.221 176.745 464.922C176.745 440.623 159.688 411.076 138.647 398.926C117.607 386.776 100.55 396.626 100.55 420.925C100.55 445.224 117.607 474.771 138.647 486.921Z" fill="white" stroke="#060606" stroke-width="1.5" stroke-linejoin="round"/>
<path d="M139.143 408.533V420.292" stroke="#060606" stroke-width="1.5" stroke-linecap="round"/>
<path d="M139.143 465.555V477.314" stroke="#060606" stroke-width="1.5" stroke-linecap="round"/>
<path d="M168.922 460.119L158.739 454.239" stroke="#060606" stroke-width="1.5" stroke-linecap="round"/>
<path d="M119.546 431.609L109.363 425.729" stroke="#060606" stroke-width="1.5" stroke-linecap="round"/>
<path d="M160.2 430.765L153 434.923" stroke="#060606" stroke-width="1.5" stroke-linecap="round"/>
<path d="M125.285 450.926L118.085 455.084" stroke="#060606" stroke-width="1.5" stroke-linecap="round"/>
<path d="M160.2 479.401L153 466.928" stroke="#060606" stroke-width="1.5" stroke-linecap="round"/>
<path d="M125.285 418.92L118.085 406.447" stroke="#060606" stroke-width="1.5" stroke-linecap="round"/>
<path fill-rule="evenodd" clip-rule="evenodd" d="M145.07 476.835C153.944 477.797 160.202 471.355 160.202 459.611C160.202 444.142 149.343 425.331 135.948 417.596C126.262 412.003 117.903 413.733 114.016 420.968C113.91 421.078 113.813 421.2 113.726 421.336L105.996 433.426C105.533 434.151 105.511 435.073 105.94 435.819L128.286 474.719C128.671 475.39 129.367 475.823 130.138 475.873L145.07 476.835Z" fill="#060606"/>
<path d="M145.07 476.835L145.122 476.355L145.112 476.354L145.101 476.353L145.07 476.835ZM114.016 420.968L114.363 421.303L114.409 421.255L114.441 421.197L114.016 420.968ZM159.719 459.611C159.719 465.403 158.176 469.821 155.606 472.664C153.047 475.496 149.422 476.822 145.122 476.355L145.018 477.314C149.592 477.81 153.534 476.396 156.322 473.311C159.099 470.238 160.684 465.562 160.684 459.611H159.719ZM135.707 418.014C142.314 421.829 148.322 428.395 152.68 435.944C157.038 443.494 159.719 451.981 159.719 459.611H160.684C160.684 451.772 157.936 443.119 153.516 435.462C149.096 427.805 142.978 421.098 136.189 417.178L135.707 418.014ZM114.441 421.197C116.318 417.702 119.257 415.559 122.888 414.948C126.533 414.333 130.93 415.256 135.707 418.014L136.189 417.178C131.281 414.344 126.655 413.334 122.727 413.996C118.785 414.66 115.6 416.999 113.591 420.74L114.441 421.197ZM114.132 421.596C114.202 421.487 114.279 421.39 114.363 421.303L113.669 420.633C113.54 420.766 113.423 420.914 113.319 421.076L114.132 421.596ZM106.403 433.686L114.132 421.596L113.319 421.076L105.59 433.166L106.403 433.686ZM106.358 435.579C106.019 434.989 106.036 434.259 106.403 433.686L105.59 433.166C105.03 434.042 105.003 435.158 105.521 436.059L106.358 435.579ZM128.704 474.479L106.358 435.579L105.521 436.059L127.867 474.96L128.704 474.479ZM130.169 475.392C129.559 475.352 129.009 475.01 128.704 474.479L127.867 474.959C128.333 475.771 129.174 476.294 130.107 476.355L130.169 475.392ZM145.101 476.353L130.169 475.392L130.107 476.355L145.039 477.316L145.101 476.353Z" fill="#060606"/>
<path d="M122.025 473.355C131.955 479.089 140.006 474.441 140.006 462.972C140.006 451.504 131.955 437.558 122.025 431.824C112.094 426.089 104.044 430.738 104.044 442.207C104.044 453.675 112.094 467.621 122.025 473.355Z" fill="white" stroke="#060606" stroke-width="1.5" stroke-linejoin="round"/>
<path d="M198.159 274.764L273.286 318.145C277.605 320.639 277.605 324.682 273.286 327.175L271.334 328.303C267.016 330.796 260.014 330.796 255.696 328.303L180.569 284.922C176.25 282.428 176.25 278.385 180.569 275.891L182.521 274.764C186.839 272.271 193.841 272.271 198.159 274.764Z" fill="white" stroke="#060606" stroke-width="1.5"/>
<path d="M195.07 278.18L267.143 319.797C269.412 321.108 269.412 323.232 267.143 324.543C264.873 325.853 261.194 325.853 258.925 324.543L186.852 282.925C184.582 281.615 184.582 279.49 186.852 278.18C189.121 276.869 192.8 276.869 195.07 278.18Z" fill="#060606" stroke="#060606" stroke-width="1.5"/>
<mask id="mask2_1403_68467" style="mask-type:alpha" maskUnits="userSpaceOnUse" x="191" y="201" width="73" height="126">
<path d="M191.048 201L263.528 242.853L263.528 326.558L191.048 284.706L191.048 201Z" fill="#D9D9D9"/>
</mask>
<g mask="url(#mask2_1403_68467)">
<path fill-rule="evenodd" clip-rule="evenodd" d="M253.988 322.49C258.574 318.829 261.335 312.287 261.335 303.405C261.335 283.354 247.261 258.972 229.899 248.947C220.759 243.669 212.531 243.422 206.786 247.297L206.785 247.295L206.703 247.353C206.534 247.469 206.367 247.588 206.202 247.711L200.692 251.65L201.588 253.103C199.585 256.723 198.462 261.436 198.462 267.1C198.462 287.151 212.537 311.532 229.899 321.558C235.927 325.039 241.559 326.332 246.343 325.697L247.319 327.279L254.006 322.518L253.988 322.49Z" fill="#060606"/>
<mask id="mask3_1403_68467" style="mask-type:alpha" maskUnits="userSpaceOnUse" x="198" y="244" width="64" height="84">
<path fill-rule="evenodd" clip-rule="evenodd" d="M253.988 322.49C258.574 318.828 261.335 312.287 261.335 303.405C261.335 283.353 247.261 258.972 229.899 248.946C220.759 243.669 212.531 243.422 206.786 247.296L206.785 247.294L206.703 247.353C206.534 247.469 206.367 247.588 206.202 247.711L200.692 251.649L201.588 253.102C199.585 256.723 198.462 261.435 198.462 267.099C198.462 287.151 212.537 311.532 229.899 321.558C235.927 325.038 241.559 326.331 246.343 325.696L247.319 327.279L254.006 322.518L253.988 322.49Z" fill="#B0F127"/>
</mask>
<g mask="url(#mask3_1403_68467)">
<path d="M298.884 283.37L232.382 321.771L232.382 354.794L298.884 316.393L298.884 283.37Z" fill="#060606"/>
</g>
<path d="M253.988 322.49L253.688 322.113L253.351 322.382L253.58 322.747L253.988 322.49ZM206.786 247.296L206.378 247.553L206.643 247.975L207.056 247.696L206.786 247.296ZM206.785 247.294L207.194 247.038L206.921 246.604L206.504 246.902L206.785 247.294ZM206.703 247.353L206.975 247.751L206.979 247.749L206.983 247.746L206.703 247.353ZM206.202 247.711L206.483 248.104L206.486 248.101L206.491 248.098L206.202 247.711ZM200.692 251.65L200.412 251.257L200.045 251.519L200.282 251.903L200.692 251.65ZM201.588 253.102L202.01 253.336L202.146 253.089L201.999 252.849L201.588 253.102ZM246.343 325.697L246.753 325.443L246.589 325.177L246.279 325.218L246.343 325.697ZM247.319 327.279L246.908 327.532L247.178 327.971L247.598 327.672L247.319 327.279ZM254.006 322.518L254.286 322.911L254.656 322.647L254.414 322.262L254.006 322.518ZM260.853 303.405C260.853 312.196 258.121 318.573 253.688 322.113L254.289 322.867C259.027 319.085 261.818 312.378 261.818 303.405H260.853ZM229.658 249.365C238.248 254.325 246.052 262.856 251.71 272.657C257.368 282.458 260.853 293.484 260.853 303.405H261.818C261.818 293.275 258.266 282.084 252.545 272.175C246.826 262.266 238.911 253.594 230.14 248.529L229.658 249.365ZM207.056 247.696C212.592 243.962 220.611 244.14 229.658 249.365L230.14 248.529C220.908 243.198 212.469 242.882 206.517 246.896L207.056 247.696ZM207.195 247.04L207.194 247.038L206.376 247.551L206.378 247.553L207.195 247.04ZM206.504 246.902L206.422 246.961L206.983 247.746L207.066 247.687L206.504 246.902ZM206.491 248.098C206.65 247.979 206.812 247.863 206.975 247.751L206.43 246.955C206.256 247.075 206.084 247.198 205.914 247.324L206.491 248.098ZM205.922 247.319L200.412 251.257L200.973 252.042L206.483 248.104L205.922 247.319ZM200.282 251.903L201.177 253.356L201.999 252.849L201.103 251.397L200.282 251.903ZM198.944 267.1C198.944 261.497 200.056 256.869 202.01 253.336L201.166 252.869C199.115 256.577 197.979 261.375 197.979 267.1H198.944ZM230.14 321.14C221.55 316.18 213.745 307.648 208.087 297.847C202.429 288.046 198.944 277.02 198.944 267.1H197.979C197.979 277.229 201.532 288.421 207.252 298.33C212.972 308.238 220.886 316.91 229.658 321.975L230.14 321.14ZM246.279 325.218C241.629 325.835 236.105 324.584 230.14 321.14L229.658 321.975C235.75 325.493 241.488 326.827 246.406 326.174L246.279 325.218ZM245.932 325.949L246.908 327.532L247.729 327.025L246.753 325.443L245.932 325.949ZM247.598 327.672L254.286 322.911L253.726 322.125L247.039 326.886L247.598 327.672ZM254.414 322.262L254.397 322.233L253.58 322.747L253.597 322.774L254.414 322.262Z" fill="#060606"/>
<path d="M224.113 325.683C241.475 335.708 255.549 327.581 255.549 307.53C255.549 287.479 241.475 263.097 224.113 253.072C206.751 243.046 192.676 251.173 192.676 271.224C192.676 291.275 206.751 315.657 224.113 325.683Z" fill="white"/>
<mask id="mask4_1403_68467" style="mask-type:alpha" maskUnits="userSpaceOnUse" x="192" y="248" width="64" height="82">
<path d="M224.113 325.684C241.475 335.709 255.549 327.582 255.549 307.531C255.549 287.48 241.475 263.098 224.113 253.073C206.751 243.047 192.676 251.174 192.676 271.225C192.676 291.276 206.751 315.658 224.113 325.684Z" fill="white"/>
</mask>
<g mask="url(#mask4_1403_68467)">
<path d="M257.244 309.739L190.742 271.339L190.742 230.154L257.244 268.555L257.244 309.739Z" fill="white"/>
<path d="M230.882 292.14C231.29 289.229 229.216 286.34 226.379 283.574L227.3 279.844L225.053 277.9L224.158 281.532C223.567 281.022 222.96 280.511 222.358 280.004L223.26 276.348L221.015 274.405L220.094 278.134C219.606 277.723 219.126 277.319 218.66 276.917L218.663 276.904L215.565 274.223L214.967 276.648C214.967 276.648 216.634 278.052 216.599 278.058C217.508 278.846 217.673 279.636 217.645 280.172L216.598 284.422C216.66 284.477 216.741 284.55 216.831 284.643C216.756 284.578 216.676 284.509 216.594 284.438L215.125 290.391C215.014 290.646 214.731 290.962 214.095 290.412C214.118 290.463 212.463 288.999 212.463 288.999L211.348 291.325L214.271 293.854C214.814 294.326 215.347 294.798 215.872 295.256L214.942 299.03L217.186 300.972L218.106 297.239C218.719 297.785 219.314 298.306 219.897 298.809L218.979 302.524L221.226 304.467L222.155 300.702C225.986 303.751 228.866 305.076 230.078 301.775C231.055 299.118 230.029 296.668 228.014 294.292C229.482 294.749 230.587 294.273 230.882 292.14ZM225.75 297.487C225.056 300.308 220.359 295.855 218.836 294.539L220.07 289.54C221.593 290.859 226.476 294.547 225.75 297.487ZM226.445 289.531C225.811 292.095 221.902 288.35 220.634 287.252L221.752 282.719C223.021 283.816 227.104 286.855 226.445 289.531Z" fill="#060606"/>
</g>
<path d="M224.113 325.683C241.475 335.708 255.549 327.581 255.549 307.53C255.549 287.479 241.475 263.097 224.113 253.072C206.751 243.046 192.676 251.173 192.676 271.224C192.676 291.275 206.751 315.657 224.113 325.683Z" stroke="#060606" stroke-width="1.5"/>
</g>
</g>
<path opacity="0.4" d="M330.776 118.933C348.21 128.999 371.407 131.925 382.589 125.469C393.771 119.014 388.702 105.62 371.268 95.5549C353.834 85.4893 330.637 82.563 319.455 89.0188C308.273 95.4745 313.342 108.868 330.776 118.933Z" fill="#060606"/>
<path fill-rule="evenodd" clip-rule="evenodd" d="M365.403 112.918C371.317 108.197 374.878 99.7617 374.878 88.3093C374.878 62.4557 356.727 31.0179 334.337 18.0911C322.551 11.2862 311.94 10.9675 304.532 15.9632L304.53 15.9597L304.381 16.0658C304.192 16.1959 304.006 16.3295 303.821 16.4666L296.673 21.5755L297.829 23.4496C295.246 28.1181 293.797 34.1943 293.797 41.4972C293.797 67.3509 311.947 98.7884 334.337 111.716C342.111 116.204 349.374 117.87 355.543 117.052L356.801 119.091L365.425 112.953L365.403 112.918Z" fill="#B0F127"/>
<path d="M365.403 112.918L365.075 112.506L364.707 112.8L364.957 113.198L365.403 112.918ZM304.533 15.9634L304.087 16.2434L304.376 16.7044L304.827 16.4001L304.533 15.9634ZM304.53 15.9599L304.976 15.6799L304.679 15.2062L304.224 15.5314L304.53 15.9599ZM304.382 16.066L304.681 16.4999L304.688 16.4945L304.382 16.066ZM303.821 16.4667L304.127 16.8953L304.135 16.8898L303.821 16.4667ZM296.673 21.5757L296.367 21.1473L295.966 21.4334L296.225 21.8522L296.673 21.5757ZM297.829 23.4498L298.29 23.7048L298.438 23.4354L298.277 23.1733L297.829 23.4498ZM355.544 117.052L355.992 116.775L355.813 116.485L355.474 116.53L355.544 117.052ZM356.801 119.091L356.353 119.368L356.648 119.847L357.107 119.521L356.801 119.091ZM365.425 112.953L365.731 113.382L366.136 113.094L365.872 112.673L365.425 112.953ZM374.352 88.3095C374.352 99.6622 370.823 107.918 365.075 112.506L365.732 113.329C371.812 108.476 375.405 99.8609 375.405 88.3095H374.352ZM334.074 18.5474C345.171 24.9537 355.246 35.968 362.548 48.6162C369.851 61.2644 374.352 75.4969 374.352 88.3095H375.405C375.405 75.2686 370.831 60.8554 363.461 48.0895C356.09 35.3236 345.895 24.1557 334.601 17.6351L334.074 18.5474ZM304.827 16.4001C312.007 11.5576 322.389 11.8007 334.074 18.5474L334.601 17.6351C322.714 10.772 311.873 10.3777 304.238 15.5267L304.827 16.4001ZM304.979 15.6834L304.976 15.6799L304.084 16.24L304.087 16.2434L304.979 15.6834ZM304.224 15.5314L304.075 15.6374L304.688 16.4945L304.837 16.3884L304.224 15.5314ZM304.135 16.8898C304.315 16.7563 304.497 16.6265 304.681 16.4999L304.083 15.6321C303.889 15.7657 303.697 15.903 303.507 16.0438L304.135 16.8898ZM303.515 16.0382L296.367 21.1473L296.979 22.0042L304.127 16.8953L303.515 16.0382ZM296.225 21.8522L297.38 23.7262L298.277 23.1733L297.122 21.2993L296.225 21.8522ZM294.324 41.4974C294.324 34.2612 295.759 28.2776 298.29 23.7048L297.367 23.1948C294.732 27.9589 293.271 34.1278 293.271 41.4974H294.324ZM334.601 111.259C323.505 104.853 313.43 93.8391 306.127 81.1908C298.825 68.5426 294.324 54.31 294.324 41.4974H293.271C293.271 54.5384 297.845 68.9516 305.215 81.7174C312.586 94.483 322.781 105.651 334.074 112.172L334.601 111.259ZM355.474 116.53C349.451 117.329 342.306 115.707 334.601 111.259L334.074 112.172C341.918 116.7 349.297 118.412 355.613 117.574L355.474 116.53ZM355.096 117.328L356.353 119.368L357.25 118.815L355.992 116.775L355.096 117.328ZM357.107 119.521L365.731 113.382L365.12 112.524L356.496 118.662L357.107 119.521ZM365.872 112.673L365.849 112.638L364.957 113.198L364.979 113.233L365.872 112.673Z" fill="#060606"/>
<mask id="mask5_1403_68467" style="mask-type:alpha" maskUnits="userSpaceOnUse" x="293" y="12" width="83" height="108">
<path fill-rule="evenodd" clip-rule="evenodd" d="M365.404 112.918C371.318 108.197 374.879 99.7617 374.879 88.3093C374.879 62.4557 356.728 31.0179 334.338 18.0911C322.552 11.2862 311.94 10.9675 304.533 15.9632L304.53 15.9597L304.382 16.0658C304.193 16.1959 304.006 16.3295 303.821 16.4666L296.674 21.5755L297.829 23.4496C295.246 28.1181 293.798 34.1943 293.798 41.4972C293.798 67.3509 311.948 98.7884 334.338 111.716C342.112 116.204 349.374 117.87 355.544 117.052L356.802 119.091L365.426 112.953L365.404 112.918Z" fill="#B0F127"/>
<path d="M365.404 112.918L365.076 112.506L364.708 112.8L364.958 113.198L365.404 112.918ZM304.533 15.9634L304.087 16.2434L304.376 16.7044L304.828 16.4001L304.533 15.9634ZM304.531 15.9599L304.977 15.6799L304.68 15.2062L304.225 15.5314L304.531 15.9599ZM304.383 16.066L304.681 16.4999L304.689 16.4945L304.383 16.066ZM303.821 16.4667L304.128 16.8953L304.135 16.8898L303.821 16.4667ZM296.674 21.5757L296.368 21.1473L295.967 21.4334L296.225 21.8522L296.674 21.5757ZM297.829 23.4498L298.29 23.7048L298.439 23.4354L298.278 23.1733L297.829 23.4498ZM355.544 117.052L355.993 116.775L355.814 116.485L355.475 116.53L355.544 117.052ZM356.802 119.091L356.354 119.368L356.649 119.847L357.107 119.521L356.802 119.091ZM365.426 112.953L365.732 113.382L366.136 113.094L365.872 112.673L365.426 112.953ZM374.353 88.3095C374.353 99.6622 370.823 107.918 365.076 112.506L365.732 113.329C371.812 108.476 375.406 99.8609 375.406 88.3095H374.353ZM334.075 18.5474C345.171 24.9537 355.246 35.968 362.549 48.6162C369.852 61.2644 374.353 75.4969 374.353 88.3095H375.406C375.406 75.2686 370.831 60.8554 363.461 48.0895C356.091 35.3236 345.896 24.1557 334.602 17.6351L334.075 18.5474ZM304.828 16.4001C312.008 11.5576 322.39 11.8007 334.075 18.5474L334.602 17.6351C322.715 10.772 311.874 10.3777 304.239 15.5267L304.828 16.4001ZM304.979 15.6834L304.977 15.6799L304.085 16.24L304.087 16.2434L304.979 15.6834ZM304.225 15.5314L304.076 15.6374L304.689 16.4945L304.837 16.3884L304.225 15.5314ZM304.135 16.8898C304.315 16.7563 304.497 16.6265 304.681 16.4999L304.084 15.6321C303.89 15.7657 303.698 15.903 303.508 16.0438L304.135 16.8898ZM303.515 16.0382L296.368 21.1473L296.98 22.0042L304.128 16.8952L303.515 16.0382ZM296.225 21.8522L297.381 23.7262L298.278 23.1733L297.122 21.2993L296.225 21.8522ZM294.325 41.4974C294.325 34.2612 295.76 28.2776 298.29 23.7048L297.368 23.1948C294.732 27.9589 293.271 34.1278 293.271 41.4974H294.325ZM334.602 111.259C323.506 104.853 313.43 93.8391 306.128 81.1908C298.826 68.5426 294.325 54.31 294.325 41.4974H293.271C293.271 54.5384 297.845 68.9516 305.216 81.7174C312.586 94.483 322.782 105.651 334.075 112.172L334.602 111.259ZM355.475 116.53C349.452 117.329 342.306 115.707 334.602 111.259L334.075 112.172C341.918 116.7 349.298 118.412 355.614 117.574L355.475 116.53ZM355.096 117.328L356.354 119.368L357.25 118.815L355.993 116.775L355.096 117.328ZM357.107 119.521L365.732 113.382L365.121 112.524L356.497 118.662L357.107 119.521ZM365.872 112.673L365.85 112.638L364.958 113.198L364.98 113.233L365.872 112.673Z" fill="#060606"/>
</mask>
<g mask="url(#mask5_1403_68467)">
<path d="M423.302 62.4752L337.542 111.989L337.542 154.569L423.302 105.055L423.302 62.4752Z" fill="#B0F127"/>
</g>
<path d="M365.403 112.918L365.075 112.506L364.707 112.8L364.957 113.198L365.403 112.918ZM304.533 15.9634L304.087 16.2434L304.376 16.7044L304.827 16.4001L304.533 15.9634ZM304.53 15.9599L304.976 15.6799L304.679 15.2062L304.224 15.5314L304.53 15.9599ZM304.382 16.066L304.681 16.4999L304.688 16.4945L304.382 16.066ZM303.821 16.4667L304.127 16.8953L304.135 16.8898L303.821 16.4667ZM296.673 21.5757L296.367 21.1473L295.966 21.4334L296.225 21.8522L296.673 21.5757ZM297.829 23.4498L298.29 23.7048L298.438 23.4354L298.277 23.1733L297.829 23.4498ZM355.544 117.052L355.992 116.775L355.813 116.485L355.474 116.53L355.544 117.052ZM356.801 119.091L356.353 119.368L356.648 119.847L357.107 119.521L356.801 119.091ZM365.425 112.953L365.731 113.382L366.136 113.094L365.872 112.673L365.425 112.953ZM374.352 88.3095C374.352 99.6622 370.823 107.918 365.075 112.506L365.732 113.329C371.812 108.476 375.405 99.8609 375.405 88.3095H374.352ZM334.074 18.5474C345.171 24.9537 355.246 35.968 362.548 48.6162C369.851 61.2644 374.352 75.4969 374.352 88.3095H375.405C375.405 75.2686 370.831 60.8554 363.461 48.0895C356.09 35.3236 345.895 24.1557 334.601 17.6351L334.074 18.5474ZM304.827 16.4001C312.007 11.5576 322.389 11.8007 334.074 18.5474L334.601 17.6351C322.714 10.772 311.873 10.3777 304.238 15.5267L304.827 16.4001ZM304.979 15.6834L304.976 15.6799L304.084 16.24L304.087 16.2434L304.979 15.6834ZM304.224 15.5314L304.075 15.6374L304.688 16.4945L304.837 16.3884L304.224 15.5314ZM304.135 16.8898C304.315 16.7563 304.497 16.6265 304.681 16.4999L304.083 15.6321C303.889 15.7657 303.697 15.903 303.507 16.0438L304.135 16.8898ZM303.515 16.0382L296.367 21.1473L296.979 22.0042L304.127 16.8953L303.515 16.0382ZM296.225 21.8522L297.38 23.7262L298.277 23.1733L297.122 21.2993L296.225 21.8522ZM294.324 41.4974C294.324 34.2612 295.759 28.2776 298.29 23.7048L297.367 23.1948C294.732 27.9589 293.271 34.1278 293.271 41.4974H294.324ZM334.601 111.259C323.505 104.853 313.43 93.8391 306.127 81.1908C298.825 68.5426 294.324 54.31 294.324 41.4974H293.271C293.271 54.5384 297.845 68.9516 305.215 81.7174C312.586 94.483 322.781 105.651 334.074 112.172L334.601 111.259ZM355.474 116.53C349.451 117.329 342.306 115.707 334.601 111.259L334.074 112.172C341.918 116.7 349.297 118.412 355.613 117.574L355.474 116.53ZM355.096 117.328L356.353 119.368L357.25 118.815L355.992 116.775L355.096 117.328ZM357.107 119.521L365.731 113.382L365.12 112.524L356.496 118.662L357.107 119.521ZM365.872 112.673L365.849 112.638L364.957 113.198L364.979 113.233L365.872 112.673Z" fill="#060606"/>
<path d="M326.876 117.031C349.265 129.957 367.416 119.478 367.416 93.6244C367.416 67.7708 349.265 36.3329 326.876 23.4061C304.486 10.4793 286.335 20.9585 286.335 46.8122C286.335 72.6659 304.486 104.104 326.876 117.031Z" fill="white" stroke="#060606" stroke-width="1.5"/>
<mask id="mask6_1403_68467" style="mask-type:alpha" maskUnits="userSpaceOnUse" x="285" y="17" width="84" height="107">
<path d="M326.876 117.031C349.265 129.957 367.416 119.478 367.416 93.6244C367.416 67.7708 349.265 36.3329 326.876 23.4061C304.486 10.4793 286.335 20.9585 286.335 46.8122C286.335 72.6659 304.486 104.104 326.876 117.031Z" fill="#B0F127" stroke="#060606" stroke-width="1.5"/>
</mask>
<g mask="url(#mask6_1403_68467)">
<path d="M369.602 96.4716L283.842 46.958L283.842 -6.14579L369.602 43.3678L369.602 96.4716Z" fill="white"/>
<path d="M326.876 117.031C349.265 129.957 367.416 119.478 367.416 93.6244C367.416 67.7708 349.265 36.3329 326.876 23.4061C304.486 10.4793 286.335 20.9585 286.335 46.8122C286.335 72.6659 304.486 104.104 326.876 117.031Z" stroke="#060606" stroke-width="1.5"/>
<path d="M318.911 63.7437L326.252 59.5058L333.596 72.2263L337.867 69.7604L326.252 49.6411L314.64 56.3458L318.911 63.7437ZM307.353 60.5523L311.624 58.0862L315.895 65.484L311.624 67.95L307.353 60.5523ZM318.911 70.7087L326.252 83.423L333.596 79.1828L337.869 86.5797L337.867 86.5811L326.252 93.2876L314.639 73.175L314.634 73.1645L318.911 70.7087ZM336.609 77.4461L340.88 74.9798L345.151 82.3781L340.88 84.8437L336.609 77.4461Z" fill="#060606"/>
<path d="M330.696 74.0266L330.697 74.0273L326.252 66.3291L322.967 68.2254L322.59 68.4434L321.811 68.893L321.806 68.8963L321.811 68.9073L326.252 76.599L330.697 74.0329L330.699 74.0315L330.696 74.0266Z" fill="#060606"/>
</g>
<path fill-rule="evenodd" clip-rule="evenodd" d="M72.4453 235.186C77.8112 230.902 81.043 223.248 81.043 212.857C81.043 189.398 64.5738 160.873 44.2579 149.144C33.5633 142.969 23.9346 142.679 17.2132 147.212L17.2115 147.21L17.0935 147.294C16.9106 147.42 16.7299 147.549 16.5514 147.681L10.0821 152.305L11.1304 154.005C8.78679 158.241 7.47266 163.755 7.47266 170.381C7.47266 193.84 23.942 222.366 44.2579 234.095C51.3115 238.168 57.9013 239.68 63.4992 238.937L64.6407 240.788L72.4656 235.218L72.4453 235.186Z" fill="#B0F127"/>
<path d="M72.4459 235.186L72.0933 234.744L71.698 235.059L71.9669 235.487L72.4459 235.186ZM17.2138 147.213L16.7345 147.514L17.0454 148.009L17.5303 147.682L17.2138 147.213ZM17.2121 147.21L17.6915 146.909L17.3719 146.4L16.8829 146.75L17.2121 147.21ZM17.0941 147.294L17.4145 147.761L17.4189 147.758L17.4232 147.755L17.0941 147.294ZM16.552 147.682L16.8811 148.142L16.8855 148.139L16.8898 148.136L16.552 147.682ZM10.0827 152.305L9.75355 151.845L9.32335 152.152L9.60095 152.602L10.0827 152.305ZM11.131 154.005L11.6263 154.28L11.7865 153.99L11.6128 153.708L11.131 154.005ZM63.4998 238.937L63.9817 238.64L63.7891 238.327L63.4254 238.376L63.4998 238.937ZM64.6413 240.788L64.1595 241.085L64.4769 241.6L64.9696 241.249L64.6413 240.788ZM72.4662 235.218L72.7949 235.679L73.2296 235.369L72.9459 234.917L72.4662 235.218ZM80.4776 212.857C80.4776 223.142 77.2802 230.603 72.0933 234.744L72.7991 235.629C78.3441 231.202 81.6096 223.355 81.6096 212.857H80.4776ZM43.9755 149.634C54.0271 155.437 63.159 165.418 69.7793 176.885C76.3996 188.351 80.4776 201.25 80.4776 212.857H81.6096C81.6096 201.005 77.453 187.912 70.7598 176.319C64.0664 164.725 54.8057 154.579 44.5415 148.654L43.9755 149.634ZM17.5303 147.682C24.0074 143.314 33.3893 143.521 43.9755 149.634L44.5415 148.654C33.7385 142.416 23.863 142.046 16.8974 146.743L17.5303 147.682ZM17.6933 146.912L17.6915 146.909L16.7326 147.511L16.7345 147.514L17.6933 146.912ZM16.8829 146.75L16.7649 146.834L17.4232 147.755L17.5412 147.67L16.8829 146.75ZM16.8898 148.136C17.0626 148.007 17.2374 147.882 17.4145 147.761L16.7737 146.828C16.585 146.957 16.3984 147.09 16.2142 147.227L16.8898 148.136ZM16.2229 147.221L9.75355 151.845L10.4118 152.766L16.8811 148.142L16.2229 147.221ZM9.60095 152.602L10.6492 154.302L11.6128 153.708L10.5645 152.008L9.60095 152.602ZM8.03928 170.381C8.03928 163.826 9.3395 158.413 11.6263 154.28L10.6357 153.732C8.23521 158.07 6.90723 163.683 6.90723 170.381H8.03928ZM44.5415 233.605C34.4898 227.802 25.3579 217.821 18.7376 206.354C12.1173 194.887 8.03928 181.988 8.03928 170.381H6.90723C6.90723 182.233 11.0639 195.327 17.7572 206.92C24.4505 218.513 33.7112 228.659 43.9755 234.586L44.5415 233.605ZM63.4254 238.376C57.9846 239.098 51.5203 237.634 44.5415 233.605L43.9755 234.586C51.1037 238.701 57.8192 240.262 63.5744 239.498L63.4254 238.376ZM63.018 239.234L64.1595 241.085L65.1231 240.491L63.9817 238.64L63.018 239.234ZM64.9696 241.249L72.7949 235.679L72.1383 234.757L64.3131 240.327L64.9696 241.249ZM72.9459 234.917L72.9255 234.885L71.9669 235.487L71.9873 235.519L72.9459 234.917Z" fill="#060606"/>
<mask id="mask7_1403_68467" style="mask-type:alpha" maskUnits="userSpaceOnUse" x="6" y="143" width="76" height="99">
<path fill-rule="evenodd" clip-rule="evenodd" d="M72.4483 235.183C77.8142 230.9 81.046 223.246 81.046 212.854C81.046 189.396 64.5767 160.87 44.2608 149.141C33.5662 142.966 23.9376 142.677 17.2162 147.21L17.2144 147.207L17.0964 147.292C16.9136 147.417 16.7329 147.546 16.5543 147.679L10.0851 152.302L11.1334 154.003C8.78972 158.239 7.47559 163.752 7.47559 170.378C7.47559 193.837 23.9449 222.363 44.2608 234.093C51.3144 238.165 57.9043 239.677 63.5022 238.934L64.6437 240.785L72.4686 235.216L72.4483 235.183Z" fill="#B0F127"/>
<path d="M72.4479 235.183L72.0953 234.741L71.7 235.056L71.9689 235.485L72.4479 235.183ZM17.2158 147.21L16.7365 147.511L17.0474 148.006L17.5323 147.679L17.2158 147.21ZM17.214 147.207L17.6934 146.906L17.3738 146.397L16.8849 146.747L17.214 147.207ZM17.096 147.292L17.4164 147.758L17.4208 147.755L17.4252 147.752L17.096 147.292ZM16.554 147.679L16.8831 148.139L16.8875 148.137L16.8917 148.133L16.554 147.679ZM10.0847 152.302L9.75556 151.842L9.32535 152.15L9.60289 152.6L10.0847 152.302ZM11.133 154.003L11.6283 154.277L11.7884 153.987L11.6148 153.705L11.133 154.003ZM63.5018 238.934L63.9836 238.637L63.791 238.325L63.4273 238.373L63.5018 238.934ZM64.6433 240.785L64.1615 241.082L64.4788 241.597L64.9715 241.247L64.6433 240.785ZM72.4682 235.216L72.7969 235.677L73.2316 235.367L72.9479 234.914L72.4682 235.216ZM80.4796 212.854C80.4796 223.139 77.2822 230.6 72.0953 234.741L72.8011 235.626C78.3454 231.199 81.6116 223.352 81.6116 212.854H80.4796ZM43.9774 149.631C54.0291 155.434 63.161 165.416 69.7813 176.882C76.4016 188.348 80.4796 201.248 80.4796 212.854H81.6116C81.6116 201.002 77.455 187.91 70.7618 176.316C64.0684 164.723 54.8076 154.576 44.5434 148.651L43.9774 149.631ZM17.5323 147.679C24.0094 143.311 33.3912 143.519 43.9774 149.631L44.5434 148.651C33.7404 142.413 23.8649 142.043 16.8993 146.74L17.5323 147.679ZM17.6952 146.909L17.6934 146.906L16.7346 147.508L16.7365 147.511L17.6952 146.909ZM16.8849 146.747L16.7669 146.831L17.4252 147.752L17.5431 147.667L16.8849 146.747ZM16.8917 148.133C17.0645 148.005 17.2394 147.88 17.4164 147.758L16.7757 146.825C16.5869 146.955 16.4004 147.087 16.2162 147.224L16.8917 148.133ZM16.2248 147.218L9.75556 151.842L10.4138 152.763L16.8831 148.139L16.2248 147.218ZM9.60289 152.6L10.6512 154.3L11.6148 153.705L10.5665 152.005L9.60289 152.6ZM8.04128 170.378C8.04128 163.824 9.34143 158.41 11.6283 154.277L10.6377 153.729C8.23721 158.068 6.90918 163.68 6.90918 170.378H8.04128ZM44.5434 233.602C34.4917 227.799 25.3598 217.818 18.7396 206.351C12.1193 194.884 8.04128 181.985 8.04128 170.378H6.90918C6.90918 182.23 11.0658 195.324 17.7592 206.917C24.4525 218.51 33.7131 228.656 43.9774 234.583L44.5434 233.602ZM63.4273 238.373C57.9866 239.095 51.5224 237.631 44.5434 233.602L43.9774 234.583C51.1056 238.698 57.8212 240.259 63.5763 239.495L63.4273 238.373ZM63.02 239.231L64.1615 241.082L65.1251 240.488L63.9836 238.637L63.02 239.231ZM64.9715 241.247L72.7969 235.677L72.1403 234.754L64.315 240.324L64.9715 241.247ZM72.9479 234.914L72.9275 234.882L71.9689 235.485L71.9886 235.516L72.9479 234.914Z" fill="#060606"/>
</mask>
<g mask="url(#mask7_1403_68467)">
<path d="M124.981 189.415L47.166 234.342L47.166 272.977L124.981 228.05L124.981 189.415Z" fill="#B0F127"/>
</g>
<path d="M72.4459 235.186L72.0933 234.744L71.698 235.059L71.9669 235.487L72.4459 235.186ZM17.2138 147.213L16.7345 147.514L17.0454 148.009L17.5303 147.682L17.2138 147.213ZM17.2121 147.21L17.6915 146.909L17.3719 146.4L16.8829 146.75L17.2121 147.21ZM17.0941 147.294L17.4145 147.761L17.4189 147.758L17.4232 147.755L17.0941 147.294ZM16.552 147.682L16.8811 148.142L16.8855 148.139L16.8898 148.136L16.552 147.682ZM10.0827 152.305L9.75355 151.845L9.32335 152.152L9.60095 152.602L10.0827 152.305ZM11.131 154.005L11.6263 154.28L11.7865 153.99L11.6128 153.708L11.131 154.005ZM63.4998 238.937L63.9817 238.64L63.7891 238.327L63.4254 238.376L63.4998 238.937ZM64.6413 240.788L64.1595 241.085L64.4769 241.6L64.9696 241.249L64.6413 240.788ZM72.4662 235.218L72.7949 235.679L73.2296 235.369L72.9459 234.917L72.4662 235.218ZM80.4776 212.857C80.4776 223.142 77.2802 230.603 72.0933 234.744L72.7991 235.629C78.3441 231.202 81.6096 223.355 81.6096 212.857H80.4776ZM43.9755 149.634C54.0271 155.437 63.159 165.418 69.7793 176.885C76.3996 188.351 80.4776 201.25 80.4776 212.857H81.6096C81.6096 201.005 77.453 187.912 70.7598 176.319C64.0664 164.725 54.8057 154.579 44.5415 148.654L43.9755 149.634ZM17.5303 147.682C24.0074 143.314 33.3893 143.521 43.9755 149.634L44.5415 148.654C33.7385 142.416 23.863 142.046 16.8974 146.743L17.5303 147.682ZM17.6933 146.912L17.6915 146.909L16.7326 147.511L16.7345 147.514L17.6933 146.912ZM16.8829 146.75L16.7649 146.834L17.4232 147.755L17.5412 147.67L16.8829 146.75ZM16.8898 148.136C17.0626 148.007 17.2374 147.882 17.4145 147.761L16.7737 146.828C16.585 146.957 16.3984 147.09 16.2142 147.227L16.8898 148.136ZM16.2229 147.221L9.75355 151.845L10.4118 152.766L16.8811 148.142L16.2229 147.221ZM9.60095 152.602L10.6492 154.302L11.6128 153.708L10.5645 152.008L9.60095 152.602ZM8.03928 170.381C8.03928 163.826 9.3395 158.413 11.6263 154.28L10.6357 153.732C8.23521 158.07 6.90723 163.683 6.90723 170.381H8.03928ZM44.5415 233.605C34.4898 227.802 25.3579 217.821 18.7376 206.354C12.1173 194.887 8.03928 181.988 8.03928 170.381H6.90723C6.90723 182.233 11.0639 195.327 17.7572 206.92C24.4505 218.513 33.7112 228.659 43.9755 234.586L44.5415 233.605ZM63.4254 238.376C57.9846 239.098 51.5203 237.634 44.5415 233.605L43.9755 234.586C51.1037 238.701 57.8192 240.262 63.5744 239.498L63.4254 238.376ZM63.018 239.234L64.1595 241.085L65.1231 240.491L63.9817 238.64L63.018 239.234ZM64.9696 241.249L72.7949 235.679L72.1383 234.757L64.3131 240.327L64.9696 241.249ZM72.9459 234.917L72.9255 234.885L71.9669 235.487L71.9873 235.519L72.9459 234.917Z" fill="#060606"/>
<path d="M37.4873 238.918C57.8032 250.647 74.2725 241.139 74.2725 217.68C74.2725 194.221 57.8032 165.695 37.4873 153.966C17.1714 142.237 0.702148 151.745 0.702148 175.204C0.702147 198.663 17.1714 227.188 37.4873 238.918Z" fill="white" stroke="#060606" stroke-width="1.61206"/>
<mask id="mask8_1403_68467" style="mask-type:alpha" maskUnits="userSpaceOnUse" x="0" y="148" width="75" height="97">
<path d="M37.4873 238.918C57.8032 250.647 74.2725 241.139 74.2725 217.68C74.2725 194.221 57.8032 165.695 37.4873 153.966C17.1714 142.237 0.702148 151.745 0.702148 175.204C0.702147 198.663 17.1714 227.188 37.4873 238.918Z" fill="#B0F127" stroke="#060606" stroke-width="1.61206"/>
</mask>
<g mask="url(#mask8_1403_68467)">
<path d="M76.2549 220.262L-1.56055 175.335L-1.56055 127.15L76.2549 172.077L76.2549 220.262Z" fill="white"/>
<path d="M37.4873 238.918C57.8032 250.647 74.2725 241.139 74.2725 217.68C74.2725 194.221 57.8032 165.695 37.4873 153.966C17.1714 142.237 0.702148 151.745 0.702148 175.204C0.702147 198.663 17.1714 227.188 37.4873 238.918Z" stroke="#060606" stroke-width="1.61206"/>
<path d="M46.6348 211.661L35.2897 205.112L37.4107 198.077L40.6663 198.875L41.3569 196.539L38.1013 195.799L41.5542 184.236V184.066C41.5542 183.667 41.3075 183.24 40.9622 183.04L36.5722 180.506C36.2269 180.306 35.9309 180.42 35.8323 180.762L31.7875 194.432L28.5319 193.691L27.792 195.941L31.0476 196.682L28.1373 206.45L45.451 216.446C45.7963 216.645 46.0922 216.532 46.1909 216.247L47.1774 212.886V212.716C47.2268 212.288 46.9801 211.861 46.6348 211.661Z" fill="#060606"/>
</g>
<path fill-rule="evenodd" clip-rule="evenodd" d="M412.384 331.299C418.841 326.144 422.73 316.933 422.73 304.428C422.73 276.197 402.91 241.869 378.461 227.753C365.592 220.323 354.005 219.974 345.916 225.429L345.914 225.426L345.776 225.524C345.553 225.677 345.333 225.835 345.115 225.997L337.335 231.558L338.596 233.604C335.775 238.702 334.193 245.336 334.193 253.311C334.193 281.542 354.013 315.871 378.461 329.986C386.95 334.887 394.881 336.707 401.618 335.813L402.991 338.041L412.409 331.337L412.384 331.299Z" fill="#B0F127"/>
<path d="M412.383 331.299L411.856 330.637L411.265 331.109L411.667 331.748L412.383 331.299ZM345.916 225.429L345.199 225.879L345.664 226.619L346.388 226.13L345.916 225.429ZM345.914 225.426L346.63 224.976L346.152 224.215L345.421 224.737L345.914 225.426ZM345.776 225.524L346.254 226.222L346.261 226.218L346.267 226.213L345.776 225.524ZM345.114 225.997L345.606 226.685L345.612 226.681L345.619 226.676L345.114 225.997ZM337.334 231.558L336.842 230.87L336.199 231.329L336.614 232.002L337.334 231.558ZM338.595 233.604L339.336 234.013L339.575 233.581L339.315 233.16L338.595 233.604ZM401.617 335.813L402.338 335.368L402.05 334.902L401.506 334.974L401.617 335.813ZM402.991 338.041L402.271 338.484L402.745 339.254L403.482 338.729L402.991 338.041ZM412.408 331.337L412.899 332.026L413.549 331.564L413.124 330.887L412.408 331.337ZM421.884 304.428C421.884 316.773 418.046 325.696 411.856 330.637L412.912 331.96C419.636 326.592 423.575 317.092 423.575 304.428H421.884ZM378.038 228.486C390.104 235.451 401.074 247.439 409.031 261.22C416.987 275.001 421.884 290.496 421.884 304.428H423.575C423.575 290.129 418.562 274.344 410.496 260.374C402.431 246.404 391.267 234.17 378.884 227.02L378.038 228.486ZM346.388 226.13C354.112 220.922 365.33 221.149 378.038 228.486L378.884 227.02C365.852 219.496 353.896 219.026 345.442 224.728L346.388 226.13ZM346.632 224.979L346.63 224.976L345.197 225.876L345.199 225.879L346.632 224.979ZM345.421 224.737L345.284 224.836L346.267 226.213L346.405 226.114L345.421 224.737ZM345.619 226.676C345.829 226.52 346.04 226.369 346.254 226.222L345.297 224.826C345.065 224.986 344.836 225.15 344.609 225.319L345.619 226.676ZM344.622 225.309L336.842 230.87L337.826 232.246L345.606 226.685L344.622 225.309ZM336.614 232.002L337.875 234.048L339.315 233.16L338.054 231.114L336.614 232.002ZM335.039 253.311C335.039 245.444 336.6 238.958 339.336 234.013L337.855 233.194C334.949 238.445 333.347 245.23 333.347 253.311H335.039ZM378.884 329.253C366.819 322.288 355.848 310.3 347.892 296.519C339.935 282.738 335.039 267.243 335.039 253.311H333.347C333.347 267.61 338.361 283.395 346.426 297.365C354.492 311.335 365.655 323.569 378.038 330.719L378.884 329.253ZM401.506 334.974C395.004 335.837 387.262 334.09 378.884 329.253L378.038 330.719C386.639 335.684 394.757 337.577 401.729 336.651L401.506 334.974ZM400.897 336.257L402.271 338.484L403.711 337.597L402.338 335.368L400.897 336.257ZM403.482 338.729L412.899 332.026L411.917 330.648L402.501 337.351L403.482 338.729ZM413.124 330.887L413.1 330.849L411.667 331.748L411.692 331.788L413.124 330.887Z" fill="#060606"/>
<mask id="mask9_1403_68467" style="mask-type:alpha" maskUnits="userSpaceOnUse" x="333" y="220" width="91" height="120">
<path fill-rule="evenodd" clip-rule="evenodd" d="M412.387 331.299C418.844 326.144 422.733 316.933 422.733 304.428C422.733 276.197 402.913 241.869 378.464 227.753C365.595 220.323 354.008 219.974 345.919 225.429L345.917 225.426L345.779 225.524C345.556 225.677 345.335 225.835 345.117 225.997L337.337 231.558L338.599 233.604C335.778 238.702 334.196 245.336 334.196 253.311C334.196 281.542 354.016 315.871 378.464 329.986C386.953 334.887 394.884 336.707 401.621 335.813L402.994 338.041L412.411 331.337L412.387 331.299Z" fill="#B0F127"/>
<path d="M412.386 331.299L411.858 330.637L411.268 331.109L411.67 331.748L412.386 331.299ZM345.919 225.429L345.202 225.879L345.666 226.619L346.391 226.13L345.919 225.429ZM345.916 225.426L346.633 224.976L346.155 224.215L345.424 224.737L345.916 225.426ZM345.779 225.524L346.257 226.222L346.264 226.218L346.27 226.213L345.779 225.524ZM345.117 225.997L345.609 226.685L345.615 226.681L345.622 226.676L345.117 225.997ZM337.337 231.558L336.845 230.87L336.201 231.329L336.617 232.002L337.337 231.558ZM338.598 233.604L339.338 234.013L339.578 233.581L339.318 233.16L338.598 233.604ZM401.62 335.813L402.341 335.368L402.053 334.902L401.509 334.974L401.62 335.813ZM402.994 338.041L402.274 338.484L402.748 339.254L403.485 338.729L402.994 338.041ZM412.411 331.337L412.901 332.026L413.552 331.564L413.127 330.887L412.411 331.337ZM421.886 304.428C421.886 316.773 418.049 325.696 411.858 330.637L412.914 331.96C419.639 326.592 423.578 317.092 423.578 304.428H421.886ZM378.041 228.486C390.107 235.451 401.077 247.439 409.034 261.22C416.99 275.001 421.886 290.496 421.886 304.428H423.578C423.578 290.129 418.565 274.344 410.499 260.374C402.434 246.404 391.27 234.17 378.887 227.02L378.041 228.486ZM346.391 226.13C354.115 220.922 365.333 221.149 378.041 228.486L378.887 227.02C365.855 219.496 353.899 219.026 345.445 224.728L346.391 226.13ZM346.635 224.979L346.633 224.976L345.199 225.876L345.202 225.879L346.635 224.979ZM345.424 224.737L345.287 224.836L346.27 226.213L346.408 226.114L345.424 224.737ZM345.622 226.676C345.831 226.52 346.043 226.369 346.257 226.222L345.3 224.826C345.067 224.986 344.839 225.15 344.612 225.319L345.622 226.676ZM344.625 225.309L336.845 230.87L337.829 232.246L345.609 226.685L344.625 225.309ZM336.617 232.002L337.878 234.048L339.318 233.16L338.057 231.114L336.617 232.002ZM335.042 253.311C335.042 245.444 336.602 238.958 339.338 234.013L337.858 233.194C334.952 238.445 333.35 245.23 333.35 253.311H335.042ZM378.887 329.253C366.822 322.288 355.851 310.3 347.895 296.519C339.938 282.738 335.042 267.243 335.042 253.311H333.35C333.35 267.61 338.364 283.395 346.429 297.365C354.495 311.335 365.658 323.569 378.041 330.719L378.887 329.253ZM401.509 334.974C395.007 335.837 387.265 334.09 378.887 329.253L378.041 330.719C386.642 335.684 394.76 337.577 401.732 336.651L401.509 334.974ZM400.9 336.257L402.274 338.484L403.714 337.597L402.341 335.368L400.9 336.257ZM403.485 338.729L412.901 332.026L411.92 330.648L402.504 337.351L403.485 338.729ZM413.127 330.887L413.103 330.849L411.67 331.748L411.694 331.788L413.127 330.887Z" fill="#060606"/>
</mask>
<g mask="url(#mask9_1403_68467)">
<path d="M475.607 276.216L381.962 330.283L381.962 376.778L475.607 322.711L475.607 276.216Z" fill="#B0F127"/>
</g>
<path d="M412.383 331.299L411.856 330.637L411.265 331.109L411.667 331.748L412.383 331.299ZM345.916 225.429L345.199 225.879L345.664 226.619L346.388 226.13L345.916 225.429ZM345.914 225.426L346.63 224.976L346.152 224.215L345.421 224.737L345.914 225.426ZM345.776 225.524L346.254 226.222L346.261 226.218L346.267 226.213L345.776 225.524ZM345.114 225.997L345.606 226.685L345.612 226.681L345.619 226.676L345.114 225.997ZM337.334 231.558L336.842 230.87L336.199 231.329L336.614 232.002L337.334 231.558ZM338.595 233.604L339.336 234.013L339.575 233.581L339.315 233.16L338.595 233.604ZM401.617 335.813L402.338 335.368L402.05 334.902L401.506 334.974L401.617 335.813ZM402.991 338.041L402.271 338.484L402.745 339.254L403.482 338.729L402.991 338.041ZM412.408 331.337L412.899 332.026L413.549 331.564L413.124 330.887L412.408 331.337ZM421.884 304.428C421.884 316.773 418.046 325.696 411.856 330.637L412.912 331.96C419.636 326.592 423.575 317.092 423.575 304.428H421.884ZM378.038 228.486C390.104 235.451 401.074 247.439 409.031 261.22C416.987 275.001 421.884 290.496 421.884 304.428H423.575C423.575 290.129 418.562 274.344 410.496 260.374C402.431 246.404 391.267 234.17 378.884 227.02L378.038 228.486ZM346.388 226.13C354.112 220.922 365.33 221.149 378.038 228.486L378.884 227.02C365.852 219.496 353.896 219.026 345.442 224.728L346.388 226.13ZM346.632 224.979L346.63 224.976L345.197 225.876L345.199 225.879L346.632 224.979ZM345.421 224.737L345.284 224.836L346.267 226.213L346.405 226.114L345.421 224.737ZM345.619 226.676C345.829 226.52 346.04 226.369 346.254 226.222L345.297 224.826C345.065 224.986 344.836 225.15 344.609 225.319L345.619 226.676ZM344.622 225.309L336.842 230.87L337.826 232.246L345.606 226.685L344.622 225.309ZM336.614 232.002L337.875 234.048L339.315 233.16L338.054 231.114L336.614 232.002ZM335.039 253.311C335.039 245.444 336.6 238.958 339.336 234.013L337.855 233.194C334.949 238.445 333.347 245.23 333.347 253.311H335.039ZM378.884 329.253C366.819 322.288 355.848 310.3 347.892 296.519C339.935 282.738 335.039 267.243 335.039 253.311H333.347C333.347 267.61 338.361 283.395 346.426 297.365C354.492 311.335 365.655 323.569 378.038 330.719L378.884 329.253ZM401.506 334.974C395.004 335.837 387.262 334.09 378.884 329.253L378.038 330.719C386.639 335.684 394.757 337.577 401.729 336.651L401.506 334.974ZM400.897 336.257L402.271 338.484L403.711 337.597L402.338 335.368L400.897 336.257ZM403.482 338.729L412.899 332.026L411.917 330.648L402.501 337.351L403.482 338.729ZM413.124 330.887L413.1 330.849L411.667 331.748L411.692 331.788L413.124 330.887Z" fill="#060606"/>
<path d="M370.314 335.787C394.763 349.902 414.582 338.459 414.582 310.228C414.582 281.997 394.763 247.669 370.314 233.553C345.865 219.438 326.046 230.881 326.046 259.112C326.046 287.343 345.865 321.671 370.314 335.787Z" fill="white" stroke="#060606" stroke-width="2.40952"/>
<mask id="mask10_1403_68467" style="mask-type:alpha" maskUnits="userSpaceOnUse" x="325" y="226" width="91" height="118">
<path d="M370.314 335.787C394.763 349.902 414.582 338.459 414.582 310.228C414.582 281.997 394.763 247.669 370.314 233.553C345.865 219.438 326.046 230.881 326.046 259.112C326.046 287.343 345.865 321.671 370.314 335.787Z" fill="#B0F127" stroke="#060606" stroke-width="2.40952"/>
</mask>
<g mask="url(#mask10_1403_68467)">
<path d="M416.968 313.336L323.322 259.27L323.322 201.283L416.968 255.349L416.968 313.336Z" fill="white"/>
<path d="M370.314 335.787C394.763 349.902 414.582 338.459 414.582 310.228C414.582 281.997 394.763 247.669 370.314 233.553C345.865 219.438 326.046 230.881 326.046 259.112C326.046 287.343 345.865 321.671 370.314 335.787Z" stroke="#060606" stroke-width="2.40952"/>
<path d="M358.355 286.085C358.569 285.964 358.863 285.992 359.175 286.172L387.448 302.496C387.965 302.794 388.223 303.655 387.858 303.86L382.273 307.006C382.059 307.127 381.765 307.099 381.453 306.919L353.18 290.596C352.663 290.297 352.404 289.437 352.77 289.231L358.355 286.085Z" fill="#060606"/>
<path d="M358.355 262.334C358.578 262.218 358.872 262.246 359.175 262.421L387.448 278.744C387.965 279.043 388.223 279.903 387.858 280.109L382.273 283.255C382.059 283.375 381.765 283.348 381.453 283.168L353.18 266.844C352.663 266.545 352.404 265.685 352.77 265.479L358.355 262.334Z" fill="#060606"/>
<path d="M382.273 287.959C382.059 287.591 381.765 287.279 381.453 287.1L353.18 270.776C352.663 270.477 352.404 271.04 352.77 271.667L358.355 281.262C358.569 281.63 358.863 281.942 359.175 282.121L387.448 298.445C387.965 298.744 388.223 298.181 387.858 297.554L382.273 287.959Z" fill="#060606"/>
</g>
<path opacity="0.4" d="M134.992 116.533C146.697 123.291 161.948 125.442 169.055 121.338C176.163 117.235 172.437 108.43 160.732 101.672C149.028 94.9142 133.777 92.7628 126.669 96.8665C119.561 100.97 123.288 109.775 134.992 116.533Z" fill="#060606"/>
<path fill-rule="evenodd" clip-rule="evenodd" d="M158.33 112.116C162.35 108.906 164.772 103.173 164.772 95.388C164.772 77.8134 152.433 56.4427 137.213 47.6554C129.201 43.0297 121.988 42.813 116.952 46.2087L116.951 46.2067L116.866 46.2675C116.727 46.3632 116.588 46.4617 116.453 46.5629L111.61 50.0241L112.395 51.2976C110.639 54.4711 109.654 58.6017 109.654 63.5662C109.654 81.1407 121.993 102.511 137.213 111.298C142.497 114.35 147.434 115.482 151.628 114.926L152.483 116.312L158.346 112.14L158.33 112.116Z" fill="#B0F127"/>
<path d="M158.331 112.116L158.002 111.704L157.635 111.997L157.885 112.396L158.331 112.116ZM116.952 46.2089L116.507 46.4889L116.796 46.9498L117.247 46.6455L116.952 46.2089ZM116.951 46.2068L117.398 45.9268L117.1 45.4532L116.645 45.7783L116.951 46.2068ZM116.866 46.2676L117.165 46.7019L117.168 46.6991L117.172 46.6961L116.866 46.2676ZM116.453 46.5631L116.759 46.9916L116.764 46.9886L116.767 46.9856L116.453 46.5631ZM111.61 50.0243L111.304 49.5958L110.904 49.8819L111.162 50.3008L111.61 50.0243ZM112.396 51.2978L112.856 51.5527L113.005 51.2834L112.844 51.0213L112.396 51.2978ZM151.628 114.926L152.077 114.65L151.898 114.359L151.56 114.404L151.628 114.926ZM152.484 116.313L152.036 116.589L152.331 117.068L152.789 116.742L152.484 116.313ZM158.346 112.14L158.652 112.569L159.056 112.281L158.792 111.86L158.346 112.14ZM164.245 95.3882C164.245 103.074 161.856 108.628 158.002 111.704L158.659 112.527C162.846 109.185 165.299 103.272 165.299 95.3882H164.245ZM136.95 48.1117C144.461 52.4483 151.291 59.9109 156.244 68.4899C161.197 77.0691 164.245 86.7146 164.245 95.3882H165.299C165.299 86.4864 162.177 76.6597 157.156 67.9632C152.135 59.2665 145.185 51.6502 137.477 47.1995L136.95 48.1117ZM117.247 46.6455C122.055 43.4031 129.039 43.5443 136.95 48.1117L137.477 47.1995C129.364 42.5156 121.921 42.2232 116.658 45.7722L117.247 46.6455ZM117.398 45.9288L117.398 45.9268L116.505 46.4869L116.507 46.4889L117.398 45.9288ZM116.645 45.7783L116.56 45.8391L117.172 46.6961L117.258 46.6353L116.645 45.7783ZM116.767 46.9856C116.898 46.8884 117.03 46.7938 117.165 46.7019L116.568 45.8333C116.423 45.9329 116.28 46.0353 116.139 46.1406L116.767 46.9856ZM116.146 46.1346L111.304 49.5958L111.917 50.4528L116.759 46.9916L116.146 46.1346ZM111.162 50.3008L111.947 51.5742L112.844 51.0213L112.058 49.7479L111.162 50.3008ZM110.181 63.5664C110.181 58.6686 111.153 54.6307 112.856 51.5527L111.935 51.0428C110.126 54.3119 109.128 58.5351 109.128 63.5664H110.181ZM137.477 110.843C129.965 106.506 123.136 99.0434 118.183 90.4647C113.23 81.8852 110.181 72.2397 110.181 63.5664H109.128C109.128 72.468 112.249 82.2946 117.271 90.9914C122.292 99.6881 129.241 107.304 136.95 111.755L137.477 110.843ZM151.56 114.404C147.512 114.941 142.692 113.853 137.477 110.843L136.95 111.755C142.304 114.846 147.358 116.024 151.698 115.448L151.56 114.404ZM151.18 115.202L152.036 116.589L152.932 116.037L152.077 114.65L151.18 115.202ZM152.789 116.742L158.652 112.569L158.041 111.711L152.178 115.884L152.789 116.742ZM158.792 111.86L158.777 111.836L157.885 112.396L157.9 112.42L158.792 111.86Z" fill="#060606"/>
<mask id="mask11_1403_68467" style="mask-type:alpha" maskUnits="userSpaceOnUse" x="109" y="43" width="57" height="75">
<path fill-rule="evenodd" clip-rule="evenodd" d="M158.331 112.114C162.351 108.904 164.773 103.171 164.773 95.386C164.773 77.8114 152.434 56.4408 137.214 47.6535C129.202 43.0278 121.988 42.811 116.953 46.2068L116.952 46.2049L116.874 46.2603C116.73 46.3594 116.587 46.4615 116.446 46.5666L111.611 50.0224L112.396 51.2957C110.64 54.4692 109.655 58.5998 109.655 63.5643C109.655 81.1387 121.994 102.509 137.214 111.296C142.498 114.348 147.435 115.48 151.629 114.924L152.484 116.311L158.347 112.138L158.331 112.114Z" fill="#B0F127"/>
<path d="M158.332 112.114L158.003 111.702L157.636 111.996L157.886 112.394L158.332 112.114ZM116.953 46.207L116.508 46.487L116.797 46.9479L117.248 46.6436L116.953 46.207ZM116.952 46.2051L117.399 45.9251L117.101 45.4514L116.646 45.7766L116.952 46.2051ZM116.875 46.2605L117.173 46.695L117.177 46.6921L117.181 46.689L116.875 46.2605ZM116.446 46.5667L116.753 46.9952L116.757 46.9922L116.761 46.989L116.446 46.5667ZM111.611 50.0225L111.305 49.5941L110.905 49.8802L111.163 50.299L111.611 50.0225ZM112.397 51.2959L112.857 51.5509L113.006 51.2815L112.845 51.0195L112.397 51.2959ZM151.629 114.924L152.078 114.648L151.899 114.357L151.561 114.402L151.629 114.924ZM152.485 116.311L152.037 116.587L152.332 117.066L152.79 116.74L152.485 116.311ZM158.347 112.139L158.653 112.568L159.057 112.279L158.793 111.858L158.347 112.139ZM164.246 95.3862C164.246 103.072 161.857 108.626 158.003 111.702L158.66 112.525C162.847 109.184 165.3 103.27 165.3 95.3862H164.246ZM136.951 48.1098C144.462 52.4463 151.292 59.909 156.245 68.4879C161.198 77.0672 164.246 86.7127 164.246 95.3862H165.3C165.3 86.4844 162.178 76.6578 157.157 67.9612C152.136 59.2646 145.186 51.6483 137.478 47.1975L136.951 48.1098ZM117.248 46.6436C122.056 43.4012 129.04 43.5424 136.951 48.1098L137.478 47.1975C129.364 42.5136 121.922 42.2212 116.659 45.7703L117.248 46.6436ZM117.399 45.927L117.399 45.9251L116.506 46.4851L116.508 46.487L117.399 45.927ZM116.646 45.7766L116.569 45.832L117.181 46.689L117.259 46.6336L116.646 45.7766ZM116.761 46.989C116.897 46.8882 117.034 46.7901 117.173 46.695L116.577 45.826C116.427 45.929 116.278 46.0352 116.132 46.1444L116.761 46.989ZM116.14 46.1382L111.305 49.5941L111.918 50.4511L116.753 46.9952L116.14 46.1382ZM111.163 50.299L111.948 51.5723L112.845 51.0195L112.059 49.7461L111.163 50.299ZM110.182 63.5645C110.182 58.6667 111.154 54.6288 112.857 51.5509L111.936 51.0409C110.127 54.31 109.129 58.5332 109.129 63.5645H110.182ZM137.478 110.841C129.966 106.504 123.137 99.0415 118.184 90.4627C113.231 81.8832 110.182 72.2378 110.182 63.5645H109.129C109.129 72.466 112.25 82.2927 117.272 90.9894C122.293 99.6861 129.242 107.302 136.951 111.753L137.478 110.841ZM151.561 114.402C147.513 114.939 142.693 113.851 137.478 110.841L136.951 111.753C142.305 114.844 147.359 116.022 151.699 115.446L151.561 114.402ZM151.181 115.2L152.037 116.587L152.934 116.035L152.078 114.648L151.181 115.2ZM152.79 116.74L158.653 112.568L158.042 111.709L152.179 115.882L152.79 116.74ZM158.793 111.858L158.778 111.834L157.886 112.394L157.901 112.418L158.793 111.858Z" fill="#060606"/>
</mask>
<g mask="url(#mask11_1403_68467)">
<path d="M197.689 77.8246L139.392 111.482L139.392 140.427L197.689 106.769L197.689 77.8246Z" fill="#B0F127"/>
</g>
<path d="M158.331 112.116L158.002 111.704L157.635 111.997L157.885 112.396L158.331 112.116ZM116.952 46.2089L116.507 46.4889L116.796 46.9498L117.247 46.6455L116.952 46.2089ZM116.951 46.2068L117.398 45.9268L117.1 45.4532L116.645 45.7783L116.951 46.2068ZM116.866 46.2676L117.165 46.7019L117.168 46.6991L117.172 46.6961L116.866 46.2676ZM116.453 46.5631L116.759 46.9916L116.764 46.9886L116.767 46.9856L116.453 46.5631ZM111.61 50.0243L111.304 49.5958L110.904 49.8819L111.162 50.3008L111.61 50.0243ZM112.396 51.2978L112.856 51.5527L113.005 51.2834L112.844 51.0213L112.396 51.2978ZM151.628 114.926L152.077 114.65L151.898 114.359L151.56 114.404L151.628 114.926ZM152.484 116.313L152.036 116.589L152.331 117.068L152.789 116.742L152.484 116.313ZM158.346 112.14L158.652 112.569L159.056 112.281L158.792 111.86L158.346 112.14ZM164.245 95.3882C164.245 103.074 161.856 108.628 158.002 111.704L158.659 112.527C162.846 109.185 165.299 103.272 165.299 95.3882H164.245ZM136.95 48.1117C144.461 52.4483 151.291 59.9109 156.244 68.4899C161.197 77.0691 164.245 86.7146 164.245 95.3882H165.299C165.299 86.4864 162.177 76.6597 157.156 67.9632C152.135 59.2665 145.185 51.6502 137.477 47.1995L136.95 48.1117ZM117.247 46.6455C122.055 43.4031 129.039 43.5443 136.95 48.1117L137.477 47.1995C129.364 42.5156 121.921 42.2232 116.658 45.7722L117.247 46.6455ZM117.398 45.9288L117.398 45.9268L116.505 46.4869L116.507 46.4889L117.398 45.9288ZM116.645 45.7783L116.56 45.8391L117.172 46.6961L117.258 46.6353L116.645 45.7783ZM116.767 46.9856C116.898 46.8884 117.03 46.7938 117.165 46.7019L116.568 45.8333C116.423 45.9329 116.28 46.0353 116.139 46.1406L116.767 46.9856ZM116.146 46.1346L111.304 49.5958L111.917 50.4528L116.759 46.9916L116.146 46.1346ZM111.162 50.3008L111.947 51.5742L112.844 51.0213L112.058 49.7479L111.162 50.3008ZM110.181 63.5664C110.181 58.6686 111.153 54.6307 112.856 51.5527L111.935 51.0428C110.126 54.3119 109.128 58.5351 109.128 63.5664H110.181ZM137.477 110.843C129.965 106.506 123.136 99.0434 118.183 90.4647C113.23 81.8852 110.181 72.2397 110.181 63.5664H109.128C109.128 72.468 112.249 82.2946 117.271 90.9914C122.292 99.6881 129.241 107.304 136.95 111.755L137.477 110.843ZM151.56 114.404C147.512 114.941 142.692 113.853 137.477 110.843L136.95 111.755C142.304 114.846 147.358 116.024 151.698 115.448L151.56 114.404ZM151.18 115.202L152.036 116.589L152.932 116.037L152.077 114.65L151.18 115.202ZM152.789 116.742L158.652 112.569L158.041 111.711L152.178 115.884L152.789 116.742ZM158.792 111.86L158.777 111.836L157.885 112.396L157.9 112.42L158.792 111.86Z" fill="#060606"/>
<path d="M132.141 114.913C147.361 123.701 159.7 116.577 159.7 99.0026C159.7 81.428 147.361 60.0575 132.141 51.2702C116.921 42.4829 104.583 49.6064 104.583 67.181C104.583 84.7555 116.921 106.126 132.141 114.913Z" fill="white" stroke="#060606" stroke-width="1.5"/>
<mask id="mask12_1403_68467" style="mask-type:alpha" maskUnits="userSpaceOnUse" x="103" y="46" width="58" height="74">
<path d="M132.141 114.912C147.361 123.7 159.7 116.576 159.7 99.0016C159.7 81.427 147.361 60.0565 132.141 51.2692C116.921 42.4819 104.583 49.6054 104.583 67.18C104.583 84.7546 116.921 106.125 132.141 114.912Z" fill="#B0F127" stroke="#060606" stroke-width="1.5"/>
</mask>
<g mask="url(#mask12_1403_68467)">
<path d="M161.185 100.936L102.888 67.2783L102.888 31.1799L161.185 64.8377L161.185 100.936Z" fill="white"/>
<path d="M132.141 114.912C147.361 123.7 159.7 116.576 159.7 99.0016C159.7 81.427 147.361 60.0565 132.141 51.2692C116.921 42.4819 104.583 49.6054 104.583 67.18C104.583 84.7546 116.921 106.125 132.141 114.912Z" stroke="#060606" stroke-width="1.5"/>
<path fill-rule="evenodd" clip-rule="evenodd" d="M142.711 89.1928C142.711 95.9338 137.979 98.6663 132.142 95.2955C126.304 91.9253 121.571 83.7286 121.571 76.9876C121.571 70.2467 126.304 67.5147 132.142 70.885C137.979 74.2552 142.711 82.4519 142.711 89.1928ZM129.147 86.2181L127.095 85.0334C126.664 84.7848 126.451 84.6619 126.321 84.4912C126.181 84.3052 126.095 84.0818 126.085 83.8838C126.077 83.7026 126.184 83.5481 126.396 83.2391L131.461 75.8542C131.677 75.541 131.786 75.3851 131.924 75.3837C132.071 75.3823 132.248 75.4841 132.397 75.6569C132.534 75.817 132.643 76.0986 132.859 76.6611L133.899 79.3613L133.905 79.3746C134.137 79.9793 134.256 80.2854 134.307 80.5649C134.364 80.8711 134.364 81.1583 134.307 81.3985C134.255 81.6204 134.139 81.7925 133.902 82.1331L131.242 86.0278L131.235 86.0376C131 86.3761 130.882 86.5474 130.717 86.6331C130.538 86.7279 130.323 86.7469 130.086 86.6921C129.871 86.6366 129.629 86.4969 129.147 86.2181ZM134.326 89.209L137.266 90.9056C137.699 91.1564 137.918 91.2821 138.048 91.2582C138.188 91.2343 138.276 91.1086 138.284 90.9211C138.291 90.7547 138.187 90.4864 137.983 89.9625C137.976 89.9443 137.969 89.926 137.962 89.9077L136.489 86.1493L136.473 86.1064C136.266 85.5833 136.161 85.3192 136.027 85.1626C135.88 84.9905 135.706 84.8901 135.557 84.8915C135.423 84.8943 135.313 85.0446 135.098 85.3487L133.63 87.4098L133.626 87.4168C133.411 87.7209 133.304 87.8733 133.312 88.0531C133.321 88.2511 133.407 88.4772 133.548 88.6633C133.675 88.8326 133.893 88.9583 134.326 89.209Z" fill="#060606"/>
</g>
<path fill-rule="evenodd" clip-rule="evenodd" d="M493.595 237.309C499.555 232.55 503.145 224.048 503.145 212.505C503.145 186.445 484.85 154.757 462.282 141.728C450.402 134.869 439.706 134.548 432.239 139.583L432.237 139.579L432.097 139.679C431.9 139.815 431.705 139.954 431.512 140.098L424.317 145.24L425.482 147.129C422.878 151.835 421.419 157.959 421.419 165.32C421.419 191.379 439.714 223.067 462.282 236.097C470.118 240.621 477.438 242.301 483.656 241.475L484.924 243.532L493.616 237.345L493.595 237.309Z" fill="#B0F127"/>
<path d="M493.595 237.309L493.108 236.699L492.563 237.134L492.934 237.724L493.595 237.309ZM432.24 139.583L431.578 139.998L432.008 140.682L432.677 140.231L432.24 139.583ZM432.238 139.58L432.899 139.165L432.458 138.462L431.783 138.945L432.238 139.58ZM432.098 139.679L432.54 140.323L432.547 140.319L432.552 140.315L432.098 139.679ZM431.513 140.098L431.967 140.734L431.973 140.729L431.979 140.725L431.513 140.098ZM424.318 145.241L423.864 144.605L423.27 145.029L423.653 145.65L424.318 145.241ZM425.483 147.129L426.166 147.508L426.387 147.108L426.147 146.72L425.483 147.129ZM483.657 241.476L484.322 241.066L484.056 240.635L483.554 240.702L483.657 241.476ZM484.925 243.532L484.26 243.942L484.698 244.652L485.378 244.168L484.925 243.532ZM493.617 237.345L494.07 237.981L494.67 237.554L494.279 236.929L493.617 237.345ZM502.364 212.505C502.364 223.901 498.822 232.137 493.108 236.699L494.082 237.919C500.289 232.964 503.926 224.195 503.926 212.505H502.364ZM461.892 142.404C473.029 148.835 483.156 159.9 490.5 172.621C497.845 185.342 502.364 199.644 502.364 212.505H503.926C503.926 199.306 499.298 184.736 491.853 171.84C484.408 158.944 474.104 147.651 462.673 141.052L461.892 142.404ZM432.677 140.231C439.806 135.422 450.162 135.632 461.892 142.404L462.673 141.052C450.643 134.106 439.607 133.673 431.803 138.936L432.677 140.231ZM432.901 139.168L432.899 139.165L431.576 139.996L431.578 139.998L432.901 139.168ZM431.783 138.945L431.644 139.045L432.552 140.315L432.692 140.215L431.783 138.945ZM431.979 140.725C432.163 140.588 432.351 140.453 432.54 140.323L431.656 139.036C431.451 139.177 431.248 139.322 431.047 139.471L431.979 140.725ZM431.059 139.462L423.864 144.605L424.772 145.876L431.967 140.734L431.059 139.462ZM423.653 145.65L424.818 147.539L426.147 146.72L424.983 144.831L423.653 145.65ZM422.2 165.32C422.2 158.058 423.641 152.071 426.166 147.508L424.8 146.751C422.118 151.599 420.639 157.86 420.639 165.32H422.2ZM462.673 235.421C451.536 228.991 441.409 217.926 434.064 205.205C426.72 192.483 422.2 178.181 422.2 165.32H420.639C420.639 178.519 425.267 193.09 432.712 205.986C440.156 218.881 450.461 230.174 461.892 236.773L462.673 235.421ZM483.554 240.702C477.552 241.498 470.405 239.885 462.673 235.421L461.892 236.773C469.83 241.357 477.324 243.104 483.76 242.25L483.554 240.702ZM482.992 241.886L484.26 243.942L485.59 243.122L484.322 241.066L482.992 241.886ZM485.378 244.168L494.07 237.981L493.165 236.709L484.472 242.896L485.378 244.168ZM494.279 236.929L494.257 236.894L492.934 237.724L492.956 237.76L494.279 236.929Z" fill="#060606"/>
<mask id="mask13_1403_68467" style="mask-type:alpha" maskUnits="userSpaceOnUse" x="420" y="135" width="84" height="110">
<path fill-rule="evenodd" clip-rule="evenodd" d="M493.598 237.309C499.558 232.551 503.148 224.048 503.148 212.505C503.148 186.446 484.852 154.758 462.285 141.728C450.405 134.869 439.709 134.548 432.242 139.583L432.241 139.58L432.114 139.671C431.907 139.812 431.704 139.958 431.503 140.107L424.321 145.241L425.485 147.129C422.881 151.835 421.422 157.959 421.422 165.32C421.422 191.38 439.716 223.068 462.285 236.097C470.12 240.621 477.441 242.302 483.66 241.476L484.928 243.532L493.62 237.345L493.598 237.309Z" fill="#B0F127"/>
<path d="M493.597 237.309L493.11 236.699L492.565 237.134L492.936 237.724L493.597 237.309ZM432.242 139.583L431.58 139.998L432.009 140.682L432.679 140.231L432.242 139.583ZM432.24 139.58L432.901 139.165L432.46 138.462L431.786 138.945L432.24 139.58ZM432.113 139.671L432.555 140.315L432.561 140.311L432.567 140.306L432.113 139.671ZM431.502 140.107L431.956 140.743L431.962 140.738L431.968 140.734L431.502 140.107ZM424.32 145.241L423.866 144.605L423.273 145.029L423.655 145.65L424.32 145.241ZM425.485 147.129L426.168 147.507L426.389 147.107L426.15 146.719L425.485 147.129ZM483.66 241.476L484.324 241.066L484.059 240.635L483.556 240.702L483.66 241.476ZM484.927 243.532L484.262 243.942L484.7 244.652L485.38 244.168L484.927 243.532ZM493.62 237.345L494.073 237.981L494.673 237.554L494.281 236.929L493.62 237.345ZM502.366 212.505C502.366 223.901 498.824 232.137 493.11 236.699L494.085 237.919C500.291 232.964 503.928 224.195 503.928 212.505H502.366ZM461.894 142.404C473.031 148.835 483.158 159.9 490.502 172.621C497.847 185.342 502.366 199.644 502.366 212.505H503.928C503.928 199.306 499.3 184.736 491.855 171.84C484.41 158.944 474.105 147.651 462.675 141.052L461.894 142.404ZM432.679 140.231C439.808 135.422 450.163 135.632 461.894 142.404L462.675 141.052C450.645 134.106 439.609 133.673 431.805 138.936L432.679 140.231ZM432.903 139.168L432.901 139.165L431.579 139.996L431.58 139.998L432.903 139.168ZM431.786 138.945L431.659 139.036L432.567 140.306L432.694 140.215L431.786 138.945ZM431.968 140.734C432.161 140.59 432.357 140.451 432.555 140.315L431.671 139.027C431.457 139.174 431.245 139.326 431.036 139.481L431.968 140.734ZM431.048 139.472L423.866 144.605L424.775 145.876L431.956 140.743L431.048 139.472ZM423.655 145.65L424.82 147.538L426.15 146.719L424.985 144.831L423.655 145.65ZM422.202 165.32C422.202 158.058 423.643 152.071 426.168 147.507L424.801 146.751C422.12 151.598 420.641 157.86 420.641 165.32H422.202ZM462.675 235.421C451.538 228.991 441.411 217.926 434.066 205.205C426.721 192.483 422.202 178.181 422.202 165.32H420.641C420.641 178.519 425.269 193.09 432.714 205.986C440.158 218.881 450.463 230.174 461.894 236.773L462.675 235.421ZM483.556 240.702C477.555 241.498 470.407 239.886 462.675 235.421L461.894 236.773C469.833 241.357 477.327 243.104 483.762 242.25L483.556 240.702ZM482.995 241.886L484.262 243.942L485.592 243.122L484.324 241.066L482.995 241.886ZM485.38 244.168L494.073 237.981L493.167 236.709L484.474 242.896L485.38 244.168ZM494.281 236.929L494.259 236.893L492.936 237.724L492.958 237.76L494.281 236.929Z" fill="#060606"/>
</mask>
<g mask="url(#mask13_1403_68467)">
<path d="M551.954 186.467L465.513 236.374L465.513 279.293L551.954 229.385L551.954 186.467Z" fill="#B0F127"/>
</g>
<path d="M493.595 237.309L493.108 236.699L492.563 237.134L492.934 237.724L493.595 237.309ZM432.24 139.583L431.578 139.998L432.008 140.682L432.677 140.231L432.24 139.583ZM432.238 139.58L432.899 139.165L432.458 138.462L431.783 138.945L432.238 139.58ZM432.098 139.679L432.54 140.323L432.547 140.319L432.552 140.315L432.098 139.679ZM431.513 140.098L431.967 140.734L431.973 140.729L431.979 140.725L431.513 140.098ZM424.318 145.241L423.864 144.605L423.27 145.029L423.653 145.65L424.318 145.241ZM425.483 147.129L426.166 147.508L426.387 147.108L426.147 146.72L425.483 147.129ZM483.657 241.476L484.322 241.066L484.056 240.635L483.554 240.702L483.657 241.476ZM484.925 243.532L484.26 243.942L484.698 244.652L485.378 244.168L484.925 243.532ZM493.617 237.345L494.07 237.981L494.67 237.554L494.279 236.929L493.617 237.345ZM502.364 212.505C502.364 223.901 498.822 232.137 493.108 236.699L494.082 237.919C500.289 232.964 503.926 224.195 503.926 212.505H502.364ZM461.892 142.404C473.029 148.835 483.156 159.9 490.5 172.621C497.845 185.342 502.364 199.644 502.364 212.505H503.926C503.926 199.306 499.298 184.736 491.853 171.84C484.408 158.944 474.104 147.651 462.673 141.052L461.892 142.404ZM432.677 140.231C439.806 135.422 450.162 135.632 461.892 142.404L462.673 141.052C450.643 134.106 439.607 133.673 431.803 138.936L432.677 140.231ZM432.901 139.168L432.899 139.165L431.576 139.996L431.578 139.998L432.901 139.168ZM431.783 138.945L431.644 139.045L432.552 140.315L432.692 140.215L431.783 138.945ZM431.979 140.725C432.163 140.588 432.351 140.453 432.54 140.323L431.656 139.036C431.451 139.177 431.248 139.322 431.047 139.471L431.979 140.725ZM431.059 139.462L423.864 144.605L424.772 145.876L431.967 140.734L431.059 139.462ZM423.653 145.65L424.818 147.539L426.147 146.72L424.983 144.831L423.653 145.65ZM422.2 165.32C422.2 158.058 423.641 152.071 426.166 147.508L424.8 146.751C422.118 151.599 420.639 157.86 420.639 165.32H422.2ZM462.673 235.421C451.536 228.991 441.409 217.926 434.064 205.205C426.72 192.483 422.2 178.181 422.2 165.32H420.639C420.639 178.519 425.267 193.09 432.712 205.986C440.156 218.881 450.461 230.174 461.892 236.773L462.673 235.421ZM483.554 240.702C477.552 241.498 470.405 239.885 462.673 235.421L461.892 236.773C469.83 241.357 477.324 243.104 483.76 242.25L483.554 240.702ZM482.992 241.886L484.26 243.942L485.59 243.122L484.322 241.066L482.992 241.886ZM485.378 244.168L494.07 237.981L493.165 236.709L484.472 242.896L485.378 244.168ZM494.279 236.929L494.257 236.894L492.934 237.724L492.956 237.76L494.279 236.929Z" fill="#060606"/>
<path d="M454.761 241.457C477.33 254.486 495.625 243.924 495.625 217.864C495.625 191.805 477.33 160.117 454.761 147.087C432.193 134.058 413.898 144.62 413.898 170.68C413.898 196.739 432.193 228.427 454.761 241.457Z" fill="white" stroke="#060606" stroke-width="2.22418"/>
<mask id="mask14_1403_68467" style="mask-type:alpha" maskUnits="userSpaceOnUse" x="412" y="140" width="85" height="109">
<path d="M454.761 241.456C477.33 254.485 495.625 243.923 495.625 217.863C495.625 191.804 477.33 160.116 454.761 147.086C432.193 134.057 413.898 144.619 413.898 170.679C413.898 196.738 432.193 228.426 454.761 241.456Z" fill="#B0F127" stroke="#060606" stroke-width="2.22418"/>
</mask>
<g mask="url(#mask14_1403_68467)">
<path d="M497.827 220.731L411.385 170.824L411.385 117.298L497.827 167.205L497.827 220.731Z" fill="white"/>
<path d="M454.761 241.456C477.33 254.485 495.625 243.923 495.625 217.863C495.625 191.804 477.33 160.116 454.761 147.086C432.193 134.057 413.898 144.619 413.898 170.679C413.898 196.738 432.193 228.426 454.761 241.456Z" stroke="#060606" stroke-width="2.22418"/>
<path d="M454.756 170.328L454.478 171.258V202.919L454.756 203.399L467.483 202.06L454.756 170.328Z" fill="#060606"/>
<path d="M454.758 170.328L442.03 187.364L454.758 203.399V188.033V170.328Z" fill="#060606"/>
<path d="M454.757 206.185L454.601 206.314V217.593L454.757 218.211L467.493 204.854L454.757 206.185Z" fill="#060606"/>
<path d="M454.758 218.207V206.18L442.03 190.149L454.758 218.207Z" fill="#060606"/>
<path d="M454.757 203.401L467.484 202.062L454.757 188.034V203.401Z" fill="#060606"/>
<path d="M442.03 187.364L454.758 203.398V188.032L442.03 187.364Z" fill="#060606"/>
</g>
<defs>
<clipPath id="clip0_1403_68467">
<rect width="320.931" height="382.729" fill="white" transform="translate(68.1182 201)"/>
</clipPath>
</defs>
</svg>
