<svg width="355" height="582" viewBox="0 0 355 582" fill="none" xmlns="http://www.w3.org/2000/svg">
<path d="M336.98 132.681L123.943 9.77497C114.586 4.3764 107 8.75281 107 19.5499L107 419.334C107 430.131 114.586 443.26 123.943 448.659L336.98 571.565C346.338 576.963 353.923 572.587 353.923 561.79L353.923 162.006C353.923 151.208 346.338 138.079 336.98 132.681Z" fill="#B0F127" stroke="#060606" stroke-width="1.5"/>
<path d="M205.771 55.1248L148.092 21.8481L148.092 460.732L205.771 494.009L205.771 55.1248Z" fill="#141414" stroke="#060606" stroke-width="1.5"/>
<path d="M314.252 435.954L309.979 433.488C307.985 432.338 306.368 433.271 306.368 435.572L306.368 523.073C306.368 525.374 307.985 528.172 309.979 529.323L314.252 531.788C316.246 532.939 317.863 532.006 317.863 529.705L317.863 442.203C317.863 439.902 316.246 437.104 314.252 435.954Z" fill="#060606" stroke="#060606" stroke-width="1.5"/>
<path d="M310.919 156.561L280.289 138.89C275.994 136.412 272.512 138.421 272.512 143.377L272.512 196.612C272.512 201.568 275.994 207.595 280.289 210.073L310.919 227.744C315.215 230.222 318.697 228.214 318.697 223.258L318.697 170.022C318.697 165.066 315.215 159.039 310.919 156.561Z" fill="#060606"/>
<path d="M272.512 156.965L318.697 183.611" stroke="#B0F127" stroke-width="2"/>
<path d="M272.512 169.995L318.697 196.641" stroke="#B0F127" stroke-width="2"/>
<path d="M272.512 183.025L318.697 209.67" stroke="#B0F127" stroke-width="2"/>
<path d="M300.593 165.385L290.617 159.629C287.549 157.859 285.062 159.294 285.062 162.834L285.062 191.635C285.062 195.175 287.549 199.48 290.617 201.25L300.593 207.006C303.661 208.776 306.149 207.341 306.149 203.801L306.149 175C306.149 171.46 303.661 167.155 300.593 165.385Z" fill="#060606" stroke="#B0F127" stroke-width="2"/>
<g clip-path="url(#clip0_1403_68466)">
<path fill-rule="evenodd" clip-rule="evenodd" d="M2.88832 333.337C0.496863 331.957 0.496861 329.718 2.88832 328.337L37.9371 308.102C40.3285 306.721 44.2058 306.721 46.5973 308.102L47.1526 308.423C47.4554 308.551 47.7644 308.705 48.0782 308.886L186.344 388.714C190.17 390.923 193.272 396.295 193.272 400.714V461.072C193.281 461.235 193.286 461.402 193.286 461.573V516.214C193.286 527.812 185.143 541.915 175.099 547.714L146.614 564.16C136.57 569.959 128.427 565.258 128.427 553.66V499.019C128.427 494.838 131.205 489.802 134.746 487.401L48.0782 437.364C44.2518 435.155 41.15 429.782 41.15 425.364V355.428L2.88832 333.337Z" fill="#B0F127"/>
<mask id="mask0_1403_68466" style="mask-type:luminance" maskUnits="userSpaceOnUse" x="1" y="307" width="193" height="260">
<path fill-rule="evenodd" clip-rule="evenodd" d="M2.88832 333.337C0.496863 331.957 0.496861 329.718 2.88832 328.337L37.9371 308.102C40.3285 306.721 44.2058 306.721 46.5973 308.102L47.1526 308.423C47.4554 308.551 47.7644 308.705 48.0782 308.886L186.344 388.714C190.17 390.923 193.272 396.295 193.272 400.714V461.072C193.281 461.235 193.286 461.402 193.286 461.573V516.214C193.286 527.812 185.143 541.915 175.099 547.714L146.614 564.16C136.57 569.959 128.427 565.258 128.427 553.66V499.019C128.427 494.838 131.205 489.802 134.746 487.401L48.0782 437.364C44.2518 435.155 41.15 429.782 41.15 425.364V355.428L2.88832 333.337Z" fill="#060606"/>
</mask>
<g mask="url(#mask0_1403_68466)">
<path d="M47.1526 308.423L46.6526 309.289L46.7061 309.319L46.7629 309.344L47.1526 308.423ZM193.272 461.072H192.272V461.1L192.273 461.128L193.272 461.072ZM134.746 487.401L135.307 488.229L136.628 487.333L135.246 486.535L134.746 487.401ZM41.15 355.428H42.15V354.85L41.65 354.562L41.15 355.428ZM2.38832 327.471C1.01041 328.267 0.0947257 329.449 0.0947266 330.837C0.0947274 332.225 1.01041 333.408 2.38832 334.203L3.38833 332.471C2.37477 331.886 2.09473 331.259 2.09473 330.837C2.09473 330.416 2.37477 329.789 3.38832 329.203L2.38832 327.471ZM37.4371 307.236L2.38832 327.471L3.38832 329.203L38.4371 308.968L37.4371 307.236ZM47.0973 307.236C45.7138 306.437 43.9634 306.066 42.2672 306.066C40.571 306.066 38.8206 306.437 37.4371 307.236L38.4371 308.968C39.445 308.386 40.829 308.066 42.2672 308.066C43.7054 308.066 45.0894 308.386 46.0973 308.968L47.0973 307.236ZM47.6526 307.557L47.0973 307.236L46.0973 308.968L46.6526 309.289L47.6526 307.557ZM48.5782 308.02C48.2312 307.82 47.8855 307.647 47.5424 307.502L46.7629 309.344C47.0253 309.455 47.2975 309.59 47.5782 309.752L48.5782 308.02ZM186.844 387.848L48.5782 308.02L47.5782 309.752L185.844 389.58L186.844 387.848ZM194.272 400.714C194.272 398.288 193.427 395.669 192.109 393.385C190.79 391.102 188.945 389.061 186.844 387.848L185.844 389.58C187.569 390.576 189.187 392.325 190.377 394.385C191.566 396.445 192.272 398.721 192.272 400.714H194.272ZM194.272 461.072V400.714H192.272V461.072H194.272ZM192.273 461.128C192.281 461.272 192.286 461.42 192.286 461.573H194.286C194.286 461.384 194.28 461.198 194.27 461.016L192.273 461.128ZM192.286 461.573V516.214H194.286V461.573H192.286ZM192.286 516.214C192.286 521.796 190.32 528.05 187.093 533.639C183.866 539.227 179.433 544.057 174.599 546.848L175.599 548.58C180.809 545.572 185.469 540.451 188.825 534.639C192.181 528.826 194.286 522.23 194.286 516.214H192.286ZM174.599 546.848L146.114 563.294L147.114 565.026L175.599 548.58L174.599 546.848ZM146.114 563.294C141.274 566.088 137.127 566.226 134.254 564.568C131.381 562.909 129.427 559.249 129.427 553.66H127.427C127.427 559.669 129.544 564.158 133.254 566.3C136.964 568.442 141.91 568.031 147.114 565.026L146.114 563.294ZM129.427 553.66V499.019H127.427V553.66H129.427ZM129.427 499.019C129.427 497.135 130.059 494.995 131.136 493.022C132.213 491.05 133.694 489.323 135.307 488.229L134.185 486.574C132.257 487.88 130.578 489.871 129.381 492.063C128.185 494.253 127.427 496.722 127.427 499.019H129.427ZM47.5782 438.23L134.246 488.267L135.246 486.535L48.5782 436.498L47.5782 438.23ZM40.15 425.364C40.15 427.79 40.9949 430.409 42.3132 432.692C43.6315 434.975 45.4772 437.017 47.5782 438.23L48.5782 436.498C46.8528 435.501 45.2345 433.752 44.0452 431.692C42.856 429.632 42.15 427.356 42.15 425.364H40.15ZM40.15 355.428V425.364H42.15V355.428H40.15ZM2.38832 334.203L40.65 356.294L41.65 354.562L3.38833 332.471L2.38832 334.203Z" fill="#060606"/>
</g>
<mask id="mask1_1403_68466" style="mask-type:alpha" maskUnits="userSpaceOnUse" x="0" y="307" width="194" height="259">
<path fill-rule="evenodd" clip-rule="evenodd" d="M2.78676 336.761L41.15 358.91V425.367C41.15 429.785 44.2518 435.158 48.0782 437.367L134.747 487.405C131.207 489.806 128.429 494.842 128.429 499.022V552.714C128.429 564.312 136.572 569.013 146.616 563.214L175.101 546.768C185.145 540.969 193.288 526.866 193.288 515.268V461.576C193.288 461.394 193.282 461.215 193.272 461.042V400.717C193.272 396.299 190.17 390.926 186.344 388.717L48.0782 308.89C45.6457 307.485 43.506 307.697 42.2699 309.173C41.7593 309.333 41.2797 309.537 40.8483 309.786L2.78676 331.761C0.395298 333.141 0.395299 335.38 2.78676 336.761Z" fill="#141414"/>
<mask id="mask2_1403_68466" style="mask-type:luminance" maskUnits="userSpaceOnUse" x="0" y="307" width="194" height="259">
<path fill-rule="evenodd" clip-rule="evenodd" d="M2.78676 336.761L41.15 358.91V425.367C41.15 429.785 44.2518 435.158 48.0782 437.367L134.747 487.405C131.207 489.806 128.429 494.842 128.429 499.022V552.714C128.429 564.312 136.572 569.013 146.616 563.214L175.101 546.768C185.145 540.969 193.288 526.866 193.288 515.268V461.576C193.288 461.394 193.282 461.215 193.272 461.042V400.717C193.272 396.299 190.17 390.926 186.344 388.717L48.0782 308.89C45.6457 307.485 43.506 307.697 42.2699 309.173C41.7593 309.333 41.2797 309.537 40.8483 309.786L2.78676 331.761C0.395298 333.141 0.395299 335.38 2.78676 336.761Z" fill="#060606"/>
</mask>
<g mask="url(#mask2_1403_68466)">
<path d="M41.15 358.91H42.15V358.332L41.65 358.044L41.15 358.91ZM134.747 487.405L135.308 488.233L136.629 487.337L135.247 486.539L134.747 487.405ZM193.272 461.042H192.272V461.072L192.274 461.102L193.272 461.042ZM42.2699 309.174L42.5676 310.128L42.848 310.041L43.0366 309.816L42.2699 309.174ZM41.65 358.044L3.28676 335.895L2.28676 337.627L40.65 359.776L41.65 358.044ZM42.15 425.367V358.91H40.15V425.367H42.15ZM48.5782 436.501C46.8528 435.505 45.2345 433.755 44.0452 431.696C42.856 429.636 42.15 427.359 42.15 425.367H40.15C40.15 427.793 40.9949 430.412 42.3132 432.696C43.6315 434.979 45.4772 437.02 47.5782 438.233L48.5782 436.501ZM135.247 486.539L48.5782 436.501L47.5782 438.233L134.247 488.271L135.247 486.539ZM129.429 499.022C129.429 497.139 130.061 494.999 131.138 493.026C132.215 491.054 133.695 489.327 135.308 488.233L134.186 486.578C132.259 487.885 130.58 489.875 129.383 492.067C128.187 494.257 127.429 496.725 127.429 499.022H129.429ZM129.429 552.714V499.022H127.429V552.714H129.429ZM146.116 562.348C141.276 565.142 137.129 565.28 134.256 563.622C131.383 561.963 129.429 558.303 129.429 552.714H127.429C127.429 558.723 129.546 563.212 133.256 565.354C136.966 567.496 141.912 567.085 147.116 564.08L146.116 562.348ZM174.601 545.902L146.116 562.348L147.116 564.08L175.601 547.634L174.601 545.902ZM192.288 515.268C192.288 520.85 190.321 527.104 187.095 532.693C183.868 538.281 179.435 543.111 174.601 545.902L175.601 547.634C180.811 544.626 185.471 539.505 188.827 533.693C192.183 527.881 194.288 521.284 194.288 515.268H192.288ZM192.288 461.576V515.268H194.288V461.576H192.288ZM192.274 461.102C192.283 461.255 192.288 461.413 192.288 461.576H194.288C194.288 461.374 194.282 461.176 194.27 460.982L192.274 461.102ZM192.272 400.717V461.042H194.272V400.717H192.272ZM185.844 389.583C187.569 390.579 189.187 392.329 190.377 394.389C191.566 396.449 192.272 398.725 192.272 400.717H194.272C194.272 398.291 193.427 395.672 192.109 393.389C190.79 391.105 188.945 389.064 186.844 387.851L185.844 389.583ZM47.5782 309.756L185.844 389.583L186.844 387.851L48.5782 308.024L47.5782 309.756ZM43.0366 309.816C43.8436 308.852 45.3853 308.49 47.5782 309.756L48.5782 308.024C45.9061 306.481 43.1684 306.543 41.5032 308.532L43.0366 309.816ZM41.3483 310.652C41.7075 310.445 42.1178 310.269 42.5676 310.128L41.9722 308.219C41.4008 308.397 40.8518 308.629 40.3483 308.92L41.3483 310.652ZM3.28676 332.627L41.3483 310.652L40.3483 308.92L2.28676 330.895L3.28676 332.627ZM3.28676 335.895C2.27321 335.309 1.99316 334.682 1.99316 334.261C1.99316 333.839 2.27321 333.212 3.28676 332.627L2.28676 330.895C0.908849 331.69 -0.00683613 332.873 -0.00683594 334.261C-0.00683574 335.649 0.90885 336.831 2.28676 337.627L3.28676 335.895Z" fill="#060606"/>
</g>
</mask>
<g mask="url(#mask1_1403_68466)">
<path d="M128.432 437.678C128.432 433.259 131.534 427.887 135.36 425.678L200.045 388.332C203.871 386.123 206.973 387.914 206.973 392.332V516.35C206.973 527.948 198.83 542.051 188.786 547.85L146.618 572.196C136.574 577.995 128.432 573.294 128.432 561.696V437.678Z" fill="#141414"/>
</g>
<mask id="mask3_1403_68466" style="mask-type:luminance" maskUnits="userSpaceOnUse" x="1" y="307" width="193" height="260">
<path fill-rule="evenodd" clip-rule="evenodd" d="M2.88832 333.337C0.496863 331.957 0.496861 329.718 2.88832 328.337L37.9371 308.102C40.3285 306.721 44.2058 306.721 46.5973 308.102L47.1526 308.423C47.4554 308.551 47.7644 308.705 48.0782 308.886L186.344 388.714C190.17 390.923 193.272 396.295 193.272 400.714V461.072C193.281 461.235 193.286 461.402 193.286 461.573V516.214C193.286 527.812 185.143 541.915 175.099 547.714L146.614 564.16C136.57 569.959 128.427 565.258 128.427 553.66V499.019C128.427 494.838 131.205 489.802 134.746 487.401L48.0782 437.364C44.2518 435.155 41.15 429.782 41.15 425.364V355.428L2.88832 333.337Z" fill="#060606"/>
</mask>
<g mask="url(#mask3_1403_68466)">
<path d="M47.1526 308.423L46.6526 309.289L46.7061 309.319L46.7629 309.344L47.1526 308.423ZM193.272 461.072H192.272V461.1L192.273 461.128L193.272 461.072ZM134.746 487.401L135.307 488.229L136.628 487.333L135.246 486.535L134.746 487.401ZM41.15 355.428H42.15V354.85L41.65 354.562L41.15 355.428ZM2.38832 327.471C1.01041 328.267 0.0947257 329.449 0.0947266 330.837C0.0947274 332.225 1.01041 333.408 2.38832 334.203L3.38833 332.471C2.37477 331.886 2.09473 331.259 2.09473 330.837C2.09473 330.416 2.37477 329.789 3.38832 329.203L2.38832 327.471ZM37.4371 307.236L2.38832 327.471L3.38832 329.203L38.4371 308.968L37.4371 307.236ZM47.0973 307.236C45.7138 306.437 43.9634 306.066 42.2672 306.066C40.571 306.066 38.8206 306.437 37.4371 307.236L38.4371 308.968C39.445 308.386 40.829 308.066 42.2672 308.066C43.7054 308.066 45.0894 308.386 46.0973 308.968L47.0973 307.236ZM47.6526 307.557L47.0973 307.236L46.0973 308.968L46.6526 309.289L47.6526 307.557ZM48.5782 308.02C48.2312 307.82 47.8855 307.647 47.5424 307.502L46.7629 309.344C47.0253 309.455 47.2975 309.59 47.5782 309.752L48.5782 308.02ZM186.844 387.848L48.5782 308.02L47.5782 309.752L185.844 389.58L186.844 387.848ZM194.272 400.714C194.272 398.288 193.427 395.669 192.109 393.385C190.79 391.102 188.945 389.061 186.844 387.848L185.844 389.58C187.569 390.576 189.187 392.325 190.377 394.385C191.566 396.445 192.272 398.721 192.272 400.714H194.272ZM194.272 461.072V400.714H192.272V461.072H194.272ZM192.273 461.128C192.281 461.272 192.286 461.42 192.286 461.573H194.286C194.286 461.384 194.28 461.198 194.27 461.016L192.273 461.128ZM192.286 461.573V516.214H194.286V461.573H192.286ZM192.286 516.214C192.286 521.796 190.32 528.05 187.093 533.639C183.866 539.227 179.433 544.057 174.599 546.848L175.599 548.58C180.809 545.572 185.469 540.451 188.825 534.639C192.181 528.826 194.286 522.23 194.286 516.214H192.286ZM174.599 546.848L146.114 563.294L147.114 565.026L175.599 548.58L174.599 546.848ZM146.114 563.294C141.274 566.088 137.127 566.226 134.254 564.568C131.381 562.909 129.427 559.249 129.427 553.66H127.427C127.427 559.669 129.544 564.158 133.254 566.3C136.964 568.442 141.91 568.031 147.114 565.026L146.114 563.294ZM129.427 553.66V499.019H127.427V553.66H129.427ZM129.427 499.019C129.427 497.135 130.059 494.995 131.136 493.022C132.213 491.05 133.694 489.323 135.307 488.229L134.185 486.574C132.257 487.88 130.578 489.871 129.381 492.063C128.185 494.253 127.427 496.722 127.427 499.019H129.427ZM47.5782 438.23L134.246 488.267L135.246 486.535L48.5782 436.498L47.5782 438.23ZM40.15 425.364C40.15 427.79 40.9949 430.409 42.3132 432.692C43.6315 434.975 45.4772 437.017 47.5782 438.23L48.5782 436.498C46.8528 435.501 45.2345 433.752 44.0452 431.692C42.856 429.632 42.15 427.356 42.15 425.364H40.15ZM40.15 355.428V425.364H42.15V355.428H40.15ZM2.38832 334.203L40.65 356.294L41.65 354.562L3.38833 332.471L2.38832 334.203Z" fill="#060606"/>
</g>
<path d="M6.92781 329.896L149.086 411.971C152.673 414.043 155.581 419.079 155.581 423.221V541.038C155.581 562.854 140.266 571.696 121.373 560.788L20.7842 502.713C9.54435 496.224 0.432616 480.442 0.432617 467.463L0.43262 333.646C0.43262 329.504 3.34062 327.825 6.92781 329.896Z" fill="#F4F4F4" stroke="#060606"/>
<mask id="mask4_1403_68466" style="mask-type:alpha" maskUnits="userSpaceOnUse" x="-1" y="328" width="158" height="238">
<path d="M6.92781 329.892L149.086 411.968C152.673 414.039 155.581 419.075 155.581 423.218V541.034C155.581 562.85 140.266 571.692 121.373 560.784L20.7842 502.709C9.54435 496.22 0.432616 480.438 0.432617 467.459L0.43262 333.642C0.43262 329.5 3.34062 327.821 6.92781 329.892Z" fill="#B0F127" stroke="#060606"/>
</mask>
<g mask="url(#mask4_1403_68466)">
<path d="M193.289 436.989L-20.9082 313.322L-20.9082 377.954L193.289 501.621L193.289 436.989Z" fill="white"/>
</g>
<path d="M6.92781 329.896L149.086 411.971C152.673 414.043 155.581 419.079 155.581 423.221V541.038C155.581 562.854 140.266 571.696 121.373 560.788L20.7842 502.713C9.54435 496.224 0.432616 480.442 0.432617 467.463L0.43262 333.646C0.43262 329.504 3.34062 327.825 6.92781 329.896Z" stroke="#060606"/>
<path d="M72.3606 498.808C94.1075 511.363 111.737 501.185 111.737 476.074C111.737 450.963 94.1075 420.428 72.3606 407.872C50.6137 395.316 32.9844 405.495 32.9844 430.606C32.9844 455.717 50.6137 486.252 72.3606 498.808Z" fill="#939393" stroke="#060606"/>
<mask id="mask5_1403_68466" style="mask-type:alpha" maskUnits="userSpaceOnUse" x="32" y="401" width="81" height="104">
<path d="M72.3606 498.808C94.1075 511.363 111.737 501.185 111.737 476.074C111.737 450.963 94.1075 420.428 72.3606 407.872C50.6137 395.316 32.9844 405.495 32.9844 430.606C32.9844 455.717 50.6137 486.252 72.3606 498.808Z" fill="#939393" stroke="#060606"/>
</mask>
<g mask="url(#mask5_1403_68466)">
<path d="M196.33 438.841L-17.8672 315.174L-17.8672 379.959L196.33 503.626L196.33 438.841Z" fill="#E7E7E7"/>
</g>
<path d="M72.3606 498.808C94.1075 511.363 111.737 501.185 111.737 476.074C111.737 450.963 94.1075 420.428 72.3606 407.872C50.6137 395.316 32.9844 405.495 32.9844 430.606C32.9844 455.717 50.6137 486.252 72.3606 498.808Z" stroke="#060606"/>
<path d="M72.3621 489.055C89.4428 498.917 103.29 490.922 103.29 471.199C103.29 451.476 89.4428 427.493 72.3621 417.631C55.2813 407.769 41.4346 415.764 41.4346 435.487C41.4346 455.21 55.2813 479.193 72.3621 489.055Z" fill="#060606" stroke="#060606"/>
<path d="M74.6316 487.747C90.459 496.885 103.29 489.477 103.29 471.201C103.29 452.925 90.459 430.702 74.6316 421.564C58.8042 412.426 45.9736 419.834 45.9736 438.109C45.9736 456.385 58.8042 478.609 74.6316 487.747Z" fill="white" stroke="#060606"/>
<path d="M76.6579 446.604C76.6579 443.863 74.7335 440.53 72.3597 439.159C69.9859 437.789 68.0615 438.9 68.0615 441.641L68.0615 462.701C68.0615 465.442 69.9859 468.776 72.3597 470.146C74.7335 471.517 76.6579 470.406 76.6579 467.665L76.6579 446.604Z" fill="#060606" stroke="#060606"/>
<path d="M33.0051 279.935L33.2065 331.692C33.2065 333.489 34.3915 335.285 36.7616 336.646C39.4099 337.981 42.3386 338.667 45.3054 338.647C48.2722 338.628 51.1916 337.904 53.8222 336.534C56.1923 335.151 57.3549 333.332 57.3437 331.536L57.1538 279.801C57.1538 270.775 59.658 264.114 64.1188 261.526C68.5796 258.937 75.6454 260.008 83.4937 264.494L96.8424 272.114C117.749 284.063 135.48 314.455 135.57 338.487L135.76 390.244C135.76 392.041 136.956 393.837 139.326 395.198C142.763 396.977 146.677 397.626 150.506 397.05C152.589 396.81 154.604 396.158 156.431 395.131C157.022 394.795 157.573 394.395 158.075 393.937C158.64 393.472 159.1 392.893 159.424 392.237C159.748 391.581 159.928 390.864 159.953 390.133L159.763 338.398C159.696 322.678 154.419 305.005 144.871 288.66C135.324 272.315 122.511 259.004 108.861 251.194L95.5233 243.563C88.7013 239.496 81.0689 236.971 73.1635 236.166C65.7857 235.456 58.368 237.034 51.9216 240.685C45.5667 244.473 40.5378 250.127 37.5218 256.873C34.3382 264.137 32.7961 272.01 33.0051 279.935Z" fill="#060606" stroke="#060606" stroke-linecap="round" stroke-linejoin="round"/>
</g>
<defs>
<clipPath id="clip0_1403_68466">
<rect width="194" height="347" fill="white" transform="translate(0 235)"/>
</clipPath>
</defs>
</svg>
