<svg width="750" height="689" viewBox="0 0 750 689" fill="none" xmlns="http://www.w3.org/2000/svg">
<g clip-path="url(#clip0_3738_21165)">
<g clip-path="url(#clip1_3738_21165)">
<path d="M558.4 535.3H550.4V539.8L328.4 410.7C322.6 407.3 313.5 407.1 308.2 410.2L182.4 483.4V480.3C181.5 480.2 180.7 480.1 179.8 480C178.3 479.8 176.7 479.7 175.2 479.5C174.9 479.5 174.6 479.4 174.2 479.4C174 479.4 173.5 479.1 173.4 479.5C173.4 479.6 173.4 479.6 173.4 479.7C173.4 480.4 173.4 481.1 173.4 481.8C173.4 482.6 173.4 483.4 173.4 484.2C173.4 485.7 173.4 487.2 173.4 488.7C173.4 491.3 173.4 493.9 175.2 496C176 497 177.1 497.7 178.2 498.4L404.3 630.5C410.1 633.9 419.2 634.1 424.5 631L556.5 554.8C558.2 553.8 559.5 552.1 560.1 550.3C560.8 548.1 560.5 545.7 560.5 543.4C560.5 535.6 559.5 538.8 559.5 536.6C559.4 535.9 558.4 535.7 558.4 535.3Z" fill="#060606" stroke="#060606" stroke-miterlimit="10" stroke-linecap="round" stroke-linejoin="round"/>
<path d="M556.3 541.5L424.3 617.7C419 620.8 409.9 620.6 404.1 617.2L178.1 485.2C172.3 481.8 171.9 476.5 177.2 473.4L308.2 397.2C313.5 394.1 322.6 394.3 328.4 397.7L555.5 529.8C561.3 533.1 561.7 538.4 556.3 541.5Z" fill="#999999" stroke="#060606" stroke-miterlimit="10"/>
<path d="M190.4 492.3L343.4 406.3" stroke="#060606" stroke-miterlimit="10"/>
<path d="M215.4 507.3L376.4 416.3" stroke="#060606" stroke-miterlimit="10"/>
<path d="M239.4 523.3L406.4 427.3" stroke="#060606" stroke-miterlimit="10"/>
<path d="M266.4 537.3L433.4 439.3" stroke="#060606" stroke-miterlimit="10"/>
<path d="M291.4 551.3L455.4 456.3" stroke="#060606" stroke-miterlimit="10"/>
<path d="M318.4 567.3L466.4 478.3" stroke="#060606" stroke-miterlimit="10"/>
<path d="M342.4 582.3L491.4 492.3" stroke="#060606" stroke-miterlimit="10"/>
<path d="M366.4 595.3L515.4 506.3" stroke="#060606" stroke-miterlimit="10"/>
<path d="M391.4 610.3L542.1 522" stroke="#060606" stroke-miterlimit="10"/>
<path d="M191.4 465.3L438.4 609.3" stroke="#060606" stroke-miterlimit="10" stroke-linecap="round" stroke-linejoin="round"/>
<path d="M216.4 451.3L465.4 595.3" stroke="#060606" stroke-miterlimit="10" stroke-linecap="round" stroke-linejoin="round"/>
<path d="M489.4 580.3L241.4 436.3" stroke="#060606" stroke-miterlimit="10" stroke-linecap="round" stroke-linejoin="round"/>
<path d="M513.4 566.3L263.4 420.3" stroke="#060606" stroke-miterlimit="10" stroke-linecap="round" stroke-linejoin="round"/>
<path d="M537.4 550.3L283.4 403.3" stroke="#060606" stroke-miterlimit="10" stroke-linecap="round" stroke-linejoin="round"/>
<path fill-rule="evenodd" clip-rule="evenodd" d="M276.7 44.5002V300.6C276.7 311.1 284.1 323.9 293.2 329.2L446.7 417.8C455.8 423.1 463.2 418.8 463.2 408.3V143.2C463.2 132.7 455.8 119.9 446.7 114.6L293.2 26.0002C292.7 25.7002 292.1 25.4002 291.6 25.2002L287.4 22.8002C285.2 21.5002 281.6 21.5002 279.5 22.8002L263.3 32.2002C261.1 33.5002 261.1 35.5002 263.3 36.8002L276.7 44.5002Z" fill="#B0F127"/>
<path fill-rule="evenodd" clip-rule="evenodd" d="M447.6 260.9L294.8 172.3C294.3 172 293.7 171.7 293.2 171.5L289 169.1C286.8 167.8 283.2 167.8 281.1 169.1L265 178.5C262.8 179.8 262.8 181.8 265 183.1L278.3 190.8V446.9C278.3 457.4 285.7 470.2 294.7 475.5L437.6 558.4V566.3H453.4C454.4 566.4 455.3 566.4 456.1 566.3H456.2C460.8 565.6 463.8 561.4 463.8 554.7V289.5C464.1 279 456.7 266.2 447.6 260.9Z" fill="#B0F127"/>
<path d="M276.7 44.5002L277 43.9002L277.3 44.1002V44.5002H276.7ZM277.3 44.5002V300.6H276V44.5002H277.3ZM277.3 300.6C277.3 305.7 279.1 311.4 282 316.5C284.9 321.6 289 326 293.4 328.6L292.8 329.7C288.1 327 283.9 322.4 280.9 317.1C277.9 311.9 276 305.9 276 300.5H277.3V300.6ZM293.5 328.6L447 417.2L446.4 418.3L292.9 329.7L293.5 328.6ZM447 417.2C451.4 419.8 455.3 419.9 458 418.4C460.7 416.8 462.5 413.4 462.5 408.3H463.8C463.8 413.7 461.9 417.7 458.6 419.5C455.3 421.4 451 421 446.3 418.3L447 417.2ZM462.6 408.3V143.2H463.9V408.3H462.6ZM462.6 143.2C462.6 138.1 460.8 132.4 457.9 127.3C455 122.2 450.9 117.8 446.5 115.2L447.1 114.1C451.8 116.8 456 121.4 459 126.7C462 131.9 463.9 137.9 463.9 143.3H462.6V143.2ZM446.4 115.2L292.9 26.5002L293.5 25.4002L447 114L446.4 115.2ZM292.9 26.5002C292.4 26.2002 291.9 25.9002 291.4 25.7002L292 24.5002C292.5 24.8002 293.1 25.0002 293.6 25.3002L292.9 26.5002ZM291.3 25.7002L287.1 23.3002L287.7 22.2002L291.9 24.6002L291.3 25.7002ZM287.1 23.3002C286.1 22.7002 284.8 22.4002 283.5 22.4002C282.1 22.4002 280.8 22.7002 279.8 23.3002L279.2 22.2002C280.4 21.5002 282 21.2002 283.5 21.2002C285 21.2002 286.6 21.5002 287.8 22.2002L287.1 23.3002ZM279.8 23.3002L263.6 32.7002L263 31.6002L279.2 22.2002L279.8 23.3002ZM263.6 32.7002C262.6 33.3002 262.3 33.9002 262.3 34.4002C262.3 34.9002 262.6 35.6002 263.6 36.1002L263 37.2002C261.8 36.5002 261 35.5002 261 34.3002C261 33.2002 261.8 32.1002 263 31.4002L263.6 32.7002ZM263.6 36.1002L277.1 43.9002L276.5 45.0002L262.9 37.2002L263.6 36.1002Z" fill="#303030"/>
<path d="M433.4 124.3L275.4 33.2003C266.6 28.1003 259.5 32.2003 259.5 42.4003V445.5C259.5 455.7 266.6 468 275.4 473.1L433.3 564.3C442.1 569.4 449.2 565.3 449.2 555.1V152C449.3 141.8 442.2 129.4 433.4 124.3Z" fill="#252525" stroke="#060606" stroke-width="1.55"/>
<path d="M340.1 89.2003L368.8 105.8C372.3 107.8 375.1 112.7 375.1 116.8C375.1 120.8 372.3 122.5 368.8 120.5L340.1 103.9C336.6 101.9 333.8 97.0004 333.8 92.9004C333.8 88.8004 336.6 87.2003 340.1 89.2003Z" fill="#060606" stroke="#060606" stroke-width="1.55"/>
<path d="M340.6 101.2C338.3 99.9001 336.4 96.6001 336.4 94.0001C336.4 91.3001 338.3 90.3001 340.6 91.6001C342.9 92.9001 344.8 96.2001 344.8 98.8001C344.8 101.5 342.9 102.6 340.6 101.2Z" fill="white"/>
<path d="M276.4 54.9C276.9 55.2 277.4 55.6 277.9 56.2C278.3 56.7 278.7 57.4 278.9 58C279.2 58.7 279.3 59.3 279.3 60V62.9C279.3 63.6 279.2 64.2 278.9 64.6C278.6 65 278.3 65.2 277.8 65.2C277.3 65.2 276.8 65.1 276.2 64.7C275.8 64.5 275.4 64.1 275 63.8C274.6 63.4 274.3 63 274 62.4L275 61.8C275.2 62.1 275.3 62.3 275.5 62.6C275.7 62.8 275.9 63 276.2 63.1C276.5 63.3 276.8 63.4 277.1 63.3C277.3 63.3 277.5 63.1 277.7 62.9C277.8 62.7 277.9 62.4 277.9 62.1V60.8L278.1 61.3C277.9 61.5 277.6 61.6 277.2 61.6C276.9 61.6 276.5 61.5 276.1 61.3C275.6 61 275.1 60.6 274.7 60.1C274.3 59.6 274 59 273.7 58.4C273.5 57.8 273.4 57.2 273.4 56.6C273.4 56 273.5 55.5 273.8 55.2C274.1 54.9 274.4 54.7 274.8 54.6C275.4 54.4 275.9 54.6 276.4 54.9ZM276.4 56.4C276.1 56.2 275.9 56.2 275.7 56.2C275.5 56.2 275.3 56.3 275.2 56.5C275.1 56.7 275 56.9 275 57.2C275 57.5 275.1 57.8 275.2 58.2C275.3 58.5 275.5 58.8 275.7 59.1C275.9 59.4 276.2 59.6 276.4 59.8C276.7 60 276.9 60 277.1 60C277.3 60 277.5 59.9 277.6 59.7C277.7 59.5 277.8 59.3 277.8 59C277.8 58.7 277.7 58.4 277.6 58C277.5 57.7 277.3 57.4 277.1 57.1C276.9 56.8 276.7 56.6 276.4 56.4ZM281.1 66.5V64.8L282.5 65.6V67.3L281.1 66.5ZM281.1 62.7V61L282.5 61.8V63.5L281.1 62.7ZM287.8 71.3V69.7L284.1 67.6V66.1L286.8 61.1L288.4 62L285.7 67L287.8 68.2V65.7L289.2 66.5V69L290 69.5V71L289.2 70.5V72.1L287.8 71.3ZM292.6 74V66.1L291 66.3V64.5L292.6 64.3L294 65.1V74.8L292.6 74Z" fill="#F5F5F5"/>
<path opacity="0.35" d="M425.3 141.1L432.2 145.1C433.4 145.8 434.4 147.5 434.4 148.9V152.8C434.4 154.2 433.4 154.7 432.2 154.1L425.3 150.1C424.1 149.4 423.1 147.7 423.1 146.3V142.4C423.2 141 424.1 140.4 425.3 141.1Z" stroke="#060606" stroke-width="1.55"/>
<path opacity="0.4" d="M435.4 150.2V153.5C435.8 153.5 436.1 153 436.1 152.2C436.1 151.4 435.9 150.7 435.4 150.2Z" fill="#060606"/>
<path d="M423.6 142.6C423.6 141.7 424.2 141.4 425 141.8L432.6 146.2C433.4 146.6 434 147.7 434 148.6V152.5C434 153.4 433.4 153.7 432.6 153.3L425 148.9C424.2 148.5 423.6 147.4 423.6 146.5V142.6Z" fill="#F5F5F5"/>
<path fill-rule="evenodd" clip-rule="evenodd" d="M415 137.3C416.2 138 417.4 139.4 418.3 141.3C418.4 141.4 418.5 141.5 418.5 141.4L419.1 140.7C419.1 140.7 419.2 140.6 419.2 140.5C419.2 140.4 419.2 140.3 419.1 140.3C416.8 135.3 413.1 133.2 410.8 135.5C410.8 135.5 410.7 135.6 410.7 135.7C410.7 135.8 410.7 135.9 410.8 135.9L411.4 137.3C411.5 137.4 411.6 137.5 411.6 137.4C412.6 136.7 413.7 136.6 415 137.3ZM415 140.5C415.7 140.9 416.3 141.7 416.8 142.7C416.9 142.8 417 142.9 417 142.8L417.6 142.1C417.6 142.1 417.7 142 417.7 141.9C417.7 141.8 417.7 141.7 417.6 141.7C416.1 138.5 413.8 137.2 412.2 138.6C412.2 138.6 412.1 138.7 412.1 138.8C412.1 138.9 412.1 139 412.2 139L412.8 140.4C412.9 140.5 413 140.6 413 140.5C413.7 140.1 414.3 140.1 415 140.5ZM416.3 143.3C416.3 143.4 416.3 143.4 416.2 143.5L415.1 144.7H415C415 144.7 414.9 144.6 414.9 144.5L413.8 142.1C413.8 142 413.7 141.9 413.7 141.9C413.7 141.8 413.7 141.8 413.8 141.7C414.5 141.1 415.5 141.7 416.2 143.1C416.2 143.2 416.3 143.3 416.3 143.3Z" fill="#F5F5F5"/>
<path d="M402.9 130.6C402.9 130.2 403.1 129.9 403.4 130.1L403.9 130.4C404.2 130.6 404.4 131 404.4 131.5V137.8C404.4 138.2 404.2 138.5 403.9 138.3L403.4 138C403.1 137.8 402.9 137.4 402.9 136.9V130.6Z" fill="#F5F5F5"/>
<path d="M405.3 130.5C405.3 130.1 405.5 129.8 405.8 130L406.3 130.3C406.6 130.5 406.8 130.9 406.8 131.4V139.3C406.8 139.7 406.6 140 406.3 139.8L405.8 139.5C405.5 139.3 405.3 138.9 405.3 138.4V130.5Z" fill="#F5F5F5"/>
<path d="M400.4 132C400.4 131.6 400.6 131.3 400.9 131.5L401.4 131.8C401.7 132 401.9 132.4 401.9 132.9V136.4C401.9 136.8 401.7 137.1 401.4 136.9L400.9 136.6C400.6 136.4 400.4 136 400.4 135.5V132Z" fill="#F5F5F5"/>
<path d="M397.9 132.5C397.9 132.1 398.1 131.8 398.4 132L398.9 132.3C399.2 132.5 399.4 132.9 399.4 133.4V135C399.4 135.4 399.2 135.7 398.9 135.5L398.4 135.2C398.1 135 397.9 134.6 397.9 134.1V132.5Z" fill="#F5F5F5"/>
<path d="M333.6 142.4V132.1L337.2 134.2C337.8 134.6 338.4 135 338.7 135.5C339.1 136 339.4 136.5 339.6 137.1C339.8 137.6 339.9 138.1 339.9 138.6C339.9 139.2 339.8 139.6 339.6 139.8C339.4 140.1 339.1 140.1 338.7 140V139.8C339.3 140.3 339.7 140.8 340 141.4C340.3 142 340.4 142.6 340.4 143.2C340.4 143.8 340.3 144.3 340.1 144.7C339.9 145.1 339.6 145.3 339.2 145.3C338.8 145.3 338.3 145.2 337.7 144.8L333.6 142.4ZM335.3 141.6L337.4 142.8C337.6 142.9 337.8 143 338 143C338.2 143 338.3 142.9 338.4 142.8C338.5 142.7 338.6 142.4 338.6 142.2C338.6 142 338.6 141.7 338.5 141.5C338.4 141.3 338.3 141 338.1 140.8C337.9 140.6 337.7 140.4 337.4 140.3L335.3 139.1V141.6ZM335.3 137.1L337.1 138.2C337.3 138.3 337.5 138.4 337.6 138.4C337.7 138.4 337.9 138.4 338 138.3C338.1 138.2 338.1 138 338.1 137.8C338.1 137.5 338 137.2 337.8 136.9C337.6 136.6 337.4 136.3 337.1 136.2L335.3 135.1V137.1ZM341.3 138.1V136.4L343 137.4V139.1L341.3 138.1ZM341.3 146.9V139.2L343 140.2V147.9L341.3 146.9ZM348.5 151.1C348 150.9 347.6 150.7 347.1 150.4C346.7 150.1 346.3 149.8 345.9 149.4C345.6 149 345.3 148.6 345.1 148.1C344.9 147.7 344.8 147.2 344.8 146.9C344.8 146.5 344.8 146.1 344.8 145.6V139L346.5 140V146.5C346.5 146.8 346.5 147.1 346.5 147.3C346.5 147.5 346.6 147.8 346.6 147.9C346.7 148.3 347 148.5 347.3 148.8C347.6 149 348 149.2 348.4 149.4L348.5 151.1ZM343.8 142.1V140.6L348.6 143.3V144.8L343.8 142.1ZM352.3 153.5C351.6 153.1 351 152.6 350.5 151.9C350 151.3 349.6 150.5 349.4 149.8C349.1 149 349 148.3 349 147.5C349 146.7 349.1 146.1 349.4 145.6C349.7 145.1 350.1 144.9 350.6 144.8C351.1 144.7 351.7 144.9 352.4 145.3C353.2 145.8 353.9 146.4 354.4 147.1C354.9 147.9 355.3 148.7 355.4 149.6L353.7 149.1C353.6 148.6 353.4 148.2 353.2 147.9C353 147.5 352.7 147.3 352.4 147.1C352 146.9 351.8 146.8 351.5 146.9C351.3 147 351.1 147.1 351 147.4C350.9 147.7 350.8 148 350.8 148.5C350.8 149.2 350.9 149.8 351.2 150.4C351.5 151 351.8 151.4 352.4 151.7C352.8 151.9 353.1 152 353.3 151.9C353.5 151.8 353.6 151.6 353.7 151.3L355.4 152.7C355.2 153.4 354.8 153.8 354.3 154C353.8 154.1 353.1 153.9 352.3 153.5ZM359.1 157.4C358.4 157 357.8 156.5 357.3 155.9C356.8 155.3 356.4 154.6 356.1 153.8C355.8 153 355.7 152.2 355.7 151.4C355.7 150.6 355.8 150 356.1 149.5C356.4 149.1 356.8 148.8 357.3 148.8C357.8 148.7 358.4 148.9 359.1 149.3C359.8 149.7 360.4 150.2 360.9 150.8C361.4 151.4 361.8 152.2 362.1 152.9C362.4 153.7 362.5 154.5 362.5 155.3C362.5 156.1 362.4 156.7 362.1 157.2C361.8 157.6 361.4 157.9 360.9 157.9C360.4 158 359.8 157.8 359.1 157.4ZM359.1 155.6C359.6 155.9 360 155.9 360.3 155.7C360.6 155.4 360.7 155 360.7 154.3C360.7 153.6 360.6 153 360.3 152.4C360 151.8 359.6 151.4 359.1 151.1C358.7 150.9 358.4 150.8 358.2 150.9C358 151 357.8 151.1 357.7 151.4C357.6 151.7 357.5 152 357.5 152.5C357.5 153.2 357.6 153.8 357.9 154.4C358.2 154.9 358.6 155.3 359.1 155.6ZM363.7 151V149.3L365.4 150.3V152L363.7 151ZM363.7 159.8V152.1L365.4 153.1V160.8L363.7 159.8ZM371.5 164.4V160.8C371.5 160.6 371.5 160.4 371.5 160.1C371.5 159.8 371.4 159.5 371.3 159.2C371.2 158.9 371.1 158.6 370.9 158.3C370.7 158 370.4 157.7 370.1 157.5C370 157.4 369.8 157.4 369.6 157.3C369.4 157.3 369.3 157.3 369.1 157.3C369 157.4 368.8 157.5 368.7 157.8C368.6 158 368.6 158.4 368.6 158.9L367.6 157.8C367.6 157.2 367.7 156.7 367.9 156.3C368.1 155.9 368.4 155.6 368.9 155.6C369.3 155.5 369.9 155.7 370.5 156.1C371 156.4 371.5 156.8 371.8 157.1C372.1 157.5 372.4 157.9 372.6 158.3C372.8 158.7 372.9 159.1 373 159.5C373.1 159.9 373.1 160.2 373.1 160.5C373.1 160.8 373.1 161 373.1 161.1V165.4L371.5 164.4ZM366.9 161.7V154L368.4 154.9V157.5L368.6 157.6V162.8L366.9 161.7Z" fill="#F5F5F5"/>
<path d="M294.8 163.5V160.4L297.9 162.2V165.3L294.8 163.5ZM294.8 142.7V139.6L297.9 141.4V144.5L294.8 142.7ZM296.4 162.2C295.2 161.5 294.2 160.7 293.3 159.7C292.4 158.7 291.6 157.5 291.1 156.3C290.5 155 290.2 153.8 290 152.4L293 153.6C293.2 154.7 293.6 155.8 294.3 156.8C295 157.8 295.7 158.5 296.6 159.1C297.4 159.6 298.2 159.8 298.7 159.6C299.3 159.5 299.5 159.1 299.5 158.4C299.5 157.9 299.4 157.5 299.1 157.1C298.9 156.7 298.5 156.2 298 155.7L294 152C291.7 149.8 290.5 147.5 290.5 145.1C290.5 144 290.7 143.1 291.2 142.5C291.7 141.9 292.3 141.7 293.2 141.7C294.1 141.7 295.1 142.1 296.3 142.8C297.4 143.4 298.3 144.2 299.2 145.1C300 146 300.7 147 301.3 148.2C301.9 149.3 302.3 150.6 302.5 151.9L299.3 150.7C299.2 150.1 299 149.5 298.7 148.9C298.4 148.3 298.1 147.8 297.6 147.3C297.2 146.8 296.7 146.4 296.2 146.1C295.7 145.8 295.3 145.6 294.8 145.6C294.4 145.6 294.1 145.6 293.8 145.8C293.6 146 293.5 146.3 293.5 146.7C293.5 147.2 293.7 147.6 294 148.2C294.3 148.7 294.9 149.3 295.6 149.9L298.5 152.5C299.9 153.8 301 155 301.6 156.2C302.2 157.4 302.6 158.6 302.6 160C302.6 161.2 302.3 162.1 301.8 162.7C301.3 163.3 300.6 163.6 299.6 163.5C298.7 163.3 297.6 162.9 296.4 162.2ZM304.6 166.5V163.4L311.4 160.4C311.9 160.2 312.3 159.9 312.5 159.6C312.7 159.3 312.8 158.9 312.8 158.5C312.8 157.9 312.7 157.4 312.5 156.8C312.3 156.2 312 155.7 311.6 155.3C311.2 154.8 310.8 154.4 310.3 154.2C309.8 153.9 309.3 153.8 308.9 153.8C308.5 153.8 308.2 154 308 154.4C307.8 154.7 307.7 155.1 307.7 155.7L304.5 153.9C304.5 152.6 304.7 151.6 305.2 151C305.7 150.3 306.4 150 307.2 150C308.1 150 309.1 150.3 310.2 151C311.3 151.6 312.2 152.4 313 153.4C313.8 154.4 314.5 155.5 315 156.8C315.5 158 315.7 159.3 315.7 160.5C315.7 161.4 315.6 162.1 315.4 162.6C315.2 163.1 314.8 163.4 314.4 163.7C314 164 313.4 164.2 312.8 164.5L308.4 166.4L308.2 165.5L315.8 169.9V173.2L304.6 166.5ZM324.8 178.2V175.3L317.8 171.2V167.9L322.9 158.3L326.4 160.3L321.3 169.9L324.8 171.9V167.2L327.9 169V173.7L329.3 174.5V177.8L327.9 177V179.9L324.8 178.2ZM331.4 185.5L331.6 184.1C332 184.3 332.3 184.4 332.5 184.4C332.7 184.4 332.9 184.2 333 183.9C333.1 183.6 333.1 183.3 333.1 182.8L331.5 181.9V178.4L334.6 180.2V183.7C334.6 184.9 334.3 185.7 333.8 186.1C333.2 186.5 332.4 186.3 331.4 185.5ZM339.5 186.7L345 174.5L338.1 170.5V167.2L348.3 173.1V176.4L342.9 188.7L339.5 186.7ZM356.2 177.2C357.3 177.8 358.2 178.7 359.1 179.7C360 180.8 360.6 182 361.1 183.3C361.6 184.6 361.8 186 361.8 187.3V192.7C361.8 194.2 361.6 195.3 361.1 196.1C360.6 196.9 359.9 197.3 359 197.4C358.1 197.5 357 197.1 355.8 196.4C355 195.9 354.3 195.4 353.5 194.7C352.8 194 352.1 193.2 351.5 192.2L353.7 190.9C354 191.4 354.3 191.8 354.6 192.2C355 192.6 355.3 192.9 355.7 193.1C356.3 193.4 356.8 193.6 357.2 193.5C357.6 193.4 358 193.2 358.2 192.8C358.4 192.4 358.6 192 358.6 191.4V188.6L359.1 189.5C358.6 189.8 358.1 189.9 357.5 189.8C356.9 189.7 356.2 189.5 355.6 189.1C354.6 188.5 353.7 187.7 352.9 186.7C352.1 185.7 351.5 184.6 351.1 183.5C350.7 182.3 350.4 181.2 350.4 180C350.4 178.8 350.7 177.9 351.2 177.3C351.7 176.6 352.4 176.3 353.3 176.2C354.2 176.4 355.1 176.6 356.2 177.2ZM356.2 180.6C355.7 180.3 355.3 180.2 354.9 180.2C354.5 180.2 354.2 180.4 354 180.7C353.8 181 353.7 181.4 353.7 182C353.7 182.5 353.8 183.1 354 183.7C354.2 184.3 354.5 184.8 354.9 185.3C355.3 185.8 355.7 186.2 356.2 186.4C356.7 186.7 357.1 186.8 357.5 186.7C357.9 186.7 358.2 186.5 358.4 186.2C358.6 185.9 358.7 185.5 358.7 184.9C358.7 184.4 358.6 183.8 358.4 183.3C358.2 182.7 357.9 182.2 357.5 181.7C357.1 181.3 356.6 180.9 356.2 180.6ZM370.4 204.9C369.3 204.3 368.3 203.4 367.5 202.4C366.7 201.4 366 200.3 365.5 199.1C365 197.9 364.8 196.7 364.8 195.6C364.8 194.6 365 193.8 365.4 193.1C365.8 192.5 366.3 192.1 367.1 191.9L367 193C366.5 192.1 366 191.2 365.7 190.3C365.4 189.4 365.2 188.6 365.2 187.7C365.2 186.6 365.4 185.8 365.9 185.2C366.4 184.7 367 184.4 367.7 184.4C368.5 184.4 369.4 184.7 370.4 185.3C371.4 185.9 372.3 186.6 373.1 187.5C373.9 188.4 374.5 189.4 374.9 190.4C375.4 191.5 375.6 192.5 375.6 193.6C375.6 194.5 375.5 195.1 375.2 195.7C374.9 196.2 374.5 196.6 373.9 196.9V195.8C374.6 196.7 375.2 197.8 375.5 198.9C375.9 200 376.1 201.1 376.1 202C376.1 203.2 375.9 204.1 375.4 204.7C374.9 205.3 374.2 205.6 373.4 205.7C372.5 205.9 371.5 205.6 370.4 204.9ZM370.4 201.6C371.1 202 371.7 202.1 372.2 201.9C372.7 201.7 372.9 201.2 372.9 200.3C372.9 199.4 372.7 198.6 372.2 197.9C371.7 197.2 371.2 196.6 370.4 196.2C369.7 195.8 369.1 195.7 368.7 195.9C368.3 196.1 368 196.6 368 197.5C368 198.4 368.2 199.2 368.7 199.9C369.1 200.6 369.7 201.2 370.4 201.6ZM370.4 192.9C371 193.2 371.5 193.3 371.8 193.2C372.2 193.1 372.4 192.7 372.4 192C372.4 191.3 372.2 190.7 371.8 190.1C371.4 189.5 371 189.1 370.4 188.8C369.8 188.5 369.3 188.4 369 188.5C368.6 188.6 368.4 189 368.4 189.7C368.4 190.4 368.6 191 369 191.6C369.3 192.1 369.8 192.5 370.4 192.9ZM379.5 209.8V206.3L382.6 208.1V211.6L379.5 209.8ZM385.8 213.4V210.3L392.6 207.3C393.1 207.1 393.5 206.8 393.7 206.5C393.9 206.2 394 205.8 394 205.4C394 204.8 393.9 204.3 393.7 203.7C393.5 203.1 393.2 202.6 392.8 202.2C392.4 201.7 392 201.3 391.5 201.1C391 200.8 390.5 200.7 390.1 200.7C389.7 200.7 389.4 200.9 389.2 201.3C389 201.6 388.9 202 388.9 202.6L385.7 200.8C385.7 199.5 385.9 198.5 386.4 197.9C386.9 197.2 387.6 196.9 388.4 196.9C389.3 196.9 390.3 197.2 391.4 197.9C392.5 198.5 393.4 199.3 394.2 200.3C395 201.3 395.7 202.4 396.2 203.7C396.7 204.9 396.9 206.2 396.9 207.4C396.9 208.3 396.8 209 396.6 209.5C396.4 210 396 210.3 395.6 210.6C395.2 210.9 394.6 211.1 394 211.4L389.6 213.3L389.4 212.4L397 216.8V220.1L385.8 213.4ZM404.5 224.6C403.7 224.1 402.9 223.5 402.2 222.7C401.5 221.9 400.8 221 400.3 220C399.8 219 399.4 218 399.1 216.9L402.1 217.7C402.3 218.5 402.6 219.2 403 219.8C403.5 220.4 404 220.9 404.5 221.2C405 221.5 405.4 221.6 405.8 221.5C406.2 221.5 406.5 221.3 406.7 221C406.9 220.7 407 220.3 407 219.7C407 218.9 406.8 218.1 406.3 217.2C405.8 216.3 405.2 215.7 404.5 215.3C404.3 215.2 404.1 215.1 403.8 215C403.6 214.9 403.4 214.9 403.2 214.9L401.8 211.3L407 209.3L407.2 210.2L399.7 205.9V202.8L409.8 208.7V212L405.8 214.2V213.2C406.7 213.9 407.5 214.7 408.2 215.7C408.8 216.7 409.3 217.7 409.7 218.7C410 219.7 410.2 220.7 410.2 221.7C410.2 222.9 409.9 223.8 409.4 224.4C408.9 225 408.2 225.4 407.3 225.4C406.5 225.4 405.6 225.2 404.5 224.6Z" fill="#F5F5F5"/>
<path d="M369.1 218.1L332.3 196.8C327.6 194.1 323.8 196.3 323.8 201.7C323.8 207.1 327.6 213.7 332.3 216.4L369.1 237.7C373.8 240.4 377.6 238.2 377.6 232.8C377.6 227.4 373.8 220.8 369.1 218.1Z" fill="#B0F127" stroke="#060606" stroke-miterlimit="10"/>
<path d="M335.7 210.3V206.9L334.6 206.2V205.5L337.6 207.2V207.9L336.5 207.2V210.6L335.7 210.3ZM337.7 211.4V208.3L338.3 208.6V209.4L338.2 209.3C338.2 209.2 338.3 209.1 338.3 209.1C338.4 209 338.4 209 338.5 209C338.6 209 338.6 209 338.7 209C338.8 209 338.9 209 338.9 209.1C339 209.1 339.1 209.2 339.1 209.2V209.9C339 209.8 338.9 209.8 338.8 209.7C338.7 209.7 338.6 209.6 338.5 209.6C338.4 209.6 338.4 209.6 338.3 209.7C338.2 209.7 338.2 209.8 338.2 209.9C338.2 210 338.2 210.1 338.2 210.2V211.8L337.7 211.4ZM340.5 213.1C340.3 213 340.1 212.9 340 212.7C339.9 212.5 339.8 212.4 339.7 212.2C339.6 212 339.6 211.8 339.6 211.7C339.6 211.6 339.6 211.4 339.7 211.3C339.7 211.2 339.8 211.1 339.9 211.1C340 211.1 340.1 211 340.2 211.1C340.3 211.1 340.4 211.1 340.6 211.2C340.7 211.2 340.9 211.3 341.1 211.4C341.3 211.5 341.5 211.5 341.7 211.6H341.5C341.5 211.4 341.5 211.3 341.4 211.1C341.3 211 341.2 210.9 341 210.7C340.9 210.6 340.8 210.6 340.7 210.6C340.6 210.6 340.5 210.6 340.5 210.8L339.9 210.2C340 210 340.1 209.8 340.3 209.8C340.5 209.7 340.7 209.8 341.1 210C341.3 210.1 341.6 210.3 341.7 210.5C341.9 210.7 342 210.9 342.1 211.2C342.2 211.3 342.2 211.5 342.2 211.6C342.2 211.7 342.2 211.9 342.2 212V213.9L341.6 213.6V213L341.7 213.2C341.6 213.3 341.4 213.4 341.3 213.4C340.9 213.3 340.7 213.2 340.5 213.1ZM340.6 212.6C340.7 212.7 340.8 212.7 340.9 212.7C341 212.7 341.1 212.7 341.1 212.6C341.2 212.6 341.2 212.5 341.2 212.5C341.2 212.4 341.3 212.3 341.3 212.2C341.3 212.1 341.3 212 341.3 211.9L341.5 212.1C341.3 212 341.1 212 341 211.9C340.9 211.9 340.8 211.8 340.7 211.8C340.6 211.8 340.6 211.8 340.5 211.8C340.4 211.8 340.4 211.8 340.3 211.8C340.3 211.8 340.2 211.8 340.2 211.9V212C340.2 212.1 340.2 212.1 340.2 212.2C340.2 212.3 340.3 212.3 340.3 212.4C340.5 212.5 340.5 212.5 340.6 212.6ZM343.7 215C343.5 214.9 343.2 214.7 343 214.4C342.8 214.1 342.7 213.9 342.6 213.6C342.5 213.3 342.4 213 342.4 212.7C342.4 212.4 342.5 212.1 342.6 211.9C342.7 211.7 342.9 211.6 343 211.6C343.2 211.6 343.4 211.6 343.7 211.8C344 211.9 344.2 212.1 344.3 212.4C344.5 212.6 344.6 212.9 344.7 213.2C344.8 213.5 344.8 213.8 344.8 214.1C344.8 214.4 344.8 214.7 344.7 214.9C344.6 215.1 344.5 215.2 344.3 215.3C344.2 215.2 344 215.2 343.7 215ZM343.8 214.4C344 214.5 344.1 214.5 344.2 214.5C344.3 214.5 344.4 214.4 344.4 214.3C344.4 214.2 344.5 214 344.5 213.8C344.5 213.6 344.5 213.4 344.4 213.3C344.4 213.1 344.3 213 344.2 212.9C344.1 212.8 344 212.7 343.9 212.6C343.7 212.5 343.6 212.5 343.5 212.5C343.4 212.5 343.3 212.6 343.3 212.7C343.3 212.8 343.2 213 343.2 213.1C343.2 213.3 343.2 213.4 343.3 213.6C343.3 213.8 343.4 213.9 343.5 214.1C343.6 214.2 343.7 214.3 343.8 214.4ZM344.4 215.3V213.2H344.3V211.2L345 211.6V215.8L344.4 215.3ZM347 216.9C346.7 216.7 346.5 216.5 346.3 216.3C346.1 216 345.9 215.8 345.8 215.4C345.7 215.1 345.6 214.8 345.6 214.5C345.6 214.2 345.7 213.9 345.8 213.7C345.9 213.5 346.1 213.4 346.3 213.4C346.5 213.4 346.7 213.4 347 213.6C347.3 213.8 347.5 214 347.7 214.2C347.9 214.5 348 214.8 348.1 215.1C348.2 215.4 348.2 215.8 348.2 216.1L347.5 215.7V215.4C347.5 215.1 347.5 214.8 347.4 214.6C347.3 214.4 347.2 214.3 347 214.1C346.8 214 346.6 213.9 346.5 214C346.4 214.1 346.3 214.3 346.3 214.6C346.3 214.9 346.4 215.1 346.5 215.4C346.6 215.6 346.8 215.8 347 215.9C347.1 216 347.2 216 347.3 216C347.4 216 347.5 215.9 347.5 215.8L348.2 216.4C348.1 216.6 347.9 216.8 347.7 216.8C347.5 217.1 347.3 217 347 216.9ZM346.1 214.9V214.3L347.9 215.3V215.9L346.1 214.9ZM349.8 218.4V214.2L351.2 215C351.5 215.1 351.7 215.3 351.8 215.5C352 215.7 352.1 215.9 352.1 216.1C352.2 216.3 352.2 216.5 352.2 216.7C352.2 216.9 352.2 217.1 352.1 217.2C352 217.3 351.9 217.3 351.7 217.3V217.2C351.9 217.4 352.1 217.6 352.2 217.9C352.3 218.2 352.4 218.4 352.4 218.6C352.4 218.8 352.4 219 352.3 219.2C352.2 219.3 352.1 219.4 351.9 219.4C351.7 219.4 351.5 219.3 351.3 219.2L349.8 218.4ZM350.5 218.1L351.3 218.6C351.4 218.7 351.5 218.7 351.5 218.7C351.6 218.7 351.6 218.7 351.7 218.6C351.7 218.5 351.8 218.5 351.8 218.3C351.8 218.2 351.8 218.1 351.7 218C351.7 217.9 351.6 217.8 351.5 217.7C351.4 217.6 351.3 217.5 351.2 217.5L350.4 217L350.5 218.1ZM350.5 216.3L351.2 216.7C351.3 216.7 351.3 216.8 351.4 216.8C351.5 216.8 351.5 216.8 351.5 216.7C351.5 216.7 351.6 216.6 351.6 216.5C351.6 216.4 351.6 216.2 351.5 216.1C351.4 216 351.3 215.9 351.2 215.8L350.5 215.4V216.3ZM353 216.7V216L353.7 216.4V217.1L353 216.7ZM353 220.3V217.2L353.7 217.6V220.7L353 220.3ZM356.1 222C355.9 221.9 355.7 221.8 355.5 221.7C355.3 221.6 355.2 221.5 355 221.3C354.9 221.1 354.8 221 354.7 220.8C354.6 220.6 354.6 220.5 354.6 220.3C354.6 220.2 354.6 220 354.6 219.8V217.1L355.3 217.5V220.1C355.3 220.2 355.3 220.3 355.3 220.4C355.3 220.5 355.3 220.6 355.4 220.7C355.5 220.8 355.6 221 355.7 221C355.8 221.1 356 221.2 356.1 221.2V222ZM354.2 218.4V217.8L356.1 218.9V219.5L354.2 218.4ZM357.7 223.1C357.4 222.9 357.2 222.7 357 222.5C356.8 222.2 356.6 222 356.5 221.6C356.4 221.3 356.3 221 356.3 220.7C356.3 220.4 356.4 220.1 356.5 219.9C356.6 219.7 356.8 219.6 357 219.6C357.2 219.6 357.4 219.6 357.7 219.8C358 220 358.3 220.2 358.5 220.5C358.7 220.8 358.9 221.1 358.9 221.5L358.2 221.3C358.2 221.1 358.1 220.9 358 220.8C357.9 220.7 357.8 220.5 357.7 220.5C357.6 220.4 357.4 220.4 357.3 220.4C357.2 220.4 357.1 220.5 357.1 220.6C357.1 220.7 357 220.9 357 221C357 221.3 357.1 221.5 357.2 221.8C357.3 222 357.5 222.2 357.7 222.3C357.9 222.4 358 222.4 358.1 222.4C358.2 222.4 358.2 222.3 358.3 222.2L359 222.8C358.9 223.1 358.8 223.3 358.6 223.3C358.3 223.3 358 223.3 357.7 223.1ZM360.6 224.7C360.3 224.5 360.1 224.3 359.9 224.1C359.7 223.8 359.5 223.6 359.4 223.2C359.3 222.9 359.2 222.6 359.2 222.2C359.2 221.9 359.3 221.6 359.4 221.4C359.5 221.2 359.7 221.1 359.9 221.1C360.1 221.1 360.3 221.1 360.6 221.3C360.9 221.5 361.1 221.7 361.3 221.9C361.5 222.2 361.7 222.4 361.8 222.8C361.9 223.1 362 223.4 362 223.8C362 224.1 361.9 224.4 361.8 224.6C361.7 224.8 361.5 224.9 361.3 224.9C361.1 225 360.9 224.9 360.6 224.7ZM360.6 224C360.8 224.1 361 224.1 361.1 224C361.2 223.9 361.3 223.7 361.3 223.4C361.3 223.1 361.2 222.9 361.1 222.6C361 222.4 360.8 222.2 360.6 222.1C360.5 222 360.3 222 360.2 222C360.1 222 360 222.1 360 222.2C360 222.3 359.9 222.5 359.9 222.6C359.9 222.9 360 223.1 360.1 223.4C360.2 223.7 360.4 223.9 360.6 224ZM362.6 222.2V221.5L363.3 221.9V222.6L362.6 222.2ZM362.6 225.8V222.7L363.3 223.1V226.2L362.6 225.8ZM365.8 227.7V226.2C365.8 226.1 365.8 226 365.8 225.9C365.8 225.8 365.8 225.7 365.7 225.5C365.7 225.4 365.6 225.2 365.5 225.1C365.4 225 365.3 224.9 365.2 224.8C365.1 224.8 365.1 224.7 365 224.7C364.9 224.7 364.9 224.7 364.8 224.7C364.7 224.7 364.7 224.8 364.7 224.9C364.7 225 364.6 225.1 364.6 225.3L364.2 224.9C364.2 224.7 364.2 224.4 364.3 224.3C364.4 224.1 364.5 224 364.7 224C364.9 224 365.1 224 365.4 224.2C365.6 224.3 365.8 224.5 365.9 224.6C366 224.8 366.1 224.9 366.2 225.1C366.3 225.3 366.3 225.4 366.4 225.6C366.4 225.8 366.5 225.9 366.5 226C366.5 226.1 366.5 226.2 366.5 226.3V228.1L365.8 227.7ZM364 226.6V223.5L364.6 223.9V224.9H364.7V227L364 226.6Z" fill="#131F00"/>
<path fill-rule="evenodd" clip-rule="evenodd" d="M515.4 506.8L489.4 521.8L515.1 537.4L541.2 521.9L515.4 506.8Z" fill="#B0F127" stroke="#060606" stroke-miterlimit="10"/>
<path d="M391.4 552.7L367.8 567.3L389.9 580.3L414.2 566.4L391.4 552.7Z" fill="#020202" stroke="#060606" stroke-miterlimit="10"/>
<path fill-rule="evenodd" clip-rule="evenodd" d="M239.5 465L215 478.6L239.4 493.3L264 479.3L239.5 465Z" fill="#B0F127" stroke="#060606" stroke-miterlimit="10"/>
<path fill-rule="evenodd" clip-rule="evenodd" d="M426.7 336.5L278.6 251.8C276.6 250.7 275 247.8 275 245.3V203C275 200.6 276.6 199.5 278.6 200.6L426.7 285.3C428.7 286.4 430.3 289.3 430.3 291.8V334.1C430.2 336.6 428.6 337.7 426.7 336.5Z" fill="#2F3133"/>
<path fill-rule="evenodd" clip-rule="evenodd" d="M308 261.1L285.9 248.4C283.9 247.3 282.3 244.4 282.3 241.9V214.7C282.3 212.3 283.9 211.2 285.9 212.3L308 225C310 226.1 311.6 229 311.6 231.5V258.7C311.6 261.2 310 262.2 308 261.1Z" fill="black"/>
<path d="M318.53 245.656V235.765L321.052 237.207C321.806 237.638 322.408 238.192 322.859 238.867C323.31 239.537 323.535 240.215 323.535 240.901C323.535 241.446 323.4 241.85 323.13 242.112C322.864 242.377 322.497 242.463 322.028 242.369V242.395C322.611 242.805 323.077 243.327 323.424 243.96C323.775 244.591 323.951 245.238 323.951 245.902C323.951 246.753 323.685 247.291 323.153 247.514C322.624 247.736 321.946 247.61 321.119 247.136L318.53 245.656ZM319.639 237.516V240.613L320.647 241.19C321.183 241.497 321.603 241.588 321.906 241.463C322.212 241.336 322.366 241.007 322.366 240.474C322.366 239.542 321.826 238.768 320.747 238.15L319.639 237.516ZM319.639 241.724V245.172L320.969 245.933C321.549 246.265 321.996 246.367 322.31 246.241C322.628 246.112 322.787 245.773 322.787 245.223C322.787 244.091 322.12 243.143 320.786 242.38L319.639 241.724ZM330.846 243.946L328.368 242.529V251.283L327.254 250.646V241.892L324.788 240.481V239.344L330.846 242.809V243.946ZM338.04 256.407C337.408 256.428 336.616 256.167 335.662 255.621C334.432 254.917 333.449 253.906 332.714 252.587C331.978 251.264 331.611 249.862 331.611 248.381C331.611 246.789 332.025 245.744 332.852 245.247C333.68 244.75 334.731 244.866 336.006 245.595C336.826 246.064 337.504 246.586 338.04 247.161V248.495C337.427 247.753 336.752 247.171 336.017 246.751C335.06 246.203 334.28 246.126 333.678 246.517C333.076 246.905 332.775 247.723 332.775 248.97C332.775 250.153 333.055 251.255 333.617 252.274C334.179 253.289 334.914 254.057 335.823 254.577C336.673 255.063 337.412 255.264 338.04 255.181V256.407Z" fill="#F5F5F5"/>
<path d="M318.345 260.473V252.231L320.447 253.433C321.075 253.792 321.577 254.253 321.953 254.816C322.328 255.375 322.516 255.94 322.516 256.511C322.516 256.965 322.404 257.302 322.179 257.521C321.957 257.741 321.651 257.813 321.26 257.734V257.756C321.746 258.098 322.134 258.533 322.424 259.06C322.716 259.586 322.863 260.125 322.863 260.679C322.863 261.388 322.641 261.836 322.197 262.022C321.757 262.207 321.192 262.102 320.502 261.707L318.345 260.473ZM319.269 253.69V256.271L320.11 256.752C320.556 257.007 320.906 257.083 321.158 256.979C321.414 256.874 321.542 256.599 321.542 256.156C321.542 255.379 321.092 254.733 320.193 254.219L319.269 253.69ZM319.269 257.197V260.07L320.378 260.705C320.861 260.981 321.234 261.066 321.495 260.961C321.76 260.853 321.893 260.571 321.893 260.113C321.893 259.17 321.337 258.38 320.225 257.744L319.269 257.197ZM324.059 255.781C324.059 255.597 324.113 255.473 324.221 255.411C324.331 255.346 324.467 255.36 324.627 255.452C324.79 255.545 324.927 255.685 325.038 255.873C325.152 256.062 325.209 256.251 325.209 256.439C325.209 256.623 325.152 256.745 325.038 256.804C324.927 256.861 324.79 256.843 324.627 256.75C324.464 256.657 324.328 256.519 324.221 256.336C324.113 256.151 324.059 255.966 324.059 255.781ZM324.165 263.802V257.917L325.07 258.435V264.32L324.165 263.802ZM329.144 266.592C328.947 266.603 328.681 266.513 328.345 266.321C327.431 265.798 326.973 264.953 326.973 263.786V260.385L326.096 259.883V259.021L326.973 259.523V258.108L327.874 258.293V260.039L329.144 260.765V261.627L327.874 260.901V264.115C327.874 264.501 327.931 264.81 328.045 265.042C328.159 265.274 328.348 265.466 328.613 265.617C328.816 265.734 328.993 265.769 329.144 265.724V266.592ZM333.749 269.018C333.358 269.064 332.887 268.929 332.336 268.614C331.597 268.191 331.002 267.578 330.553 266.775C330.103 265.971 329.879 265.135 329.879 264.266C329.879 263.301 330.12 262.663 330.604 262.35C331.09 262.036 331.74 262.112 332.553 262.577C333.021 262.844 333.421 263.169 333.754 263.551V264.583C333.393 264.072 332.993 263.69 332.553 263.439C332.036 263.143 331.614 263.109 331.287 263.337C330.964 263.564 330.802 264.021 330.802 264.709C330.802 265.387 330.955 266.004 331.26 266.562C331.568 267.121 331.982 267.55 332.502 267.847C332.942 268.099 333.358 268.17 333.749 268.06V269.018ZM334.627 266.908C334.627 265.936 334.862 265.304 335.333 265.013C335.805 264.719 336.443 264.802 337.25 265.263C338.017 265.702 338.617 266.317 339.052 267.108C339.489 267.897 339.707 268.769 339.707 269.723C339.707 270.653 339.475 271.27 339.01 271.575C338.545 271.88 337.921 271.809 337.139 271.362C336.376 270.925 335.766 270.3 335.31 269.486C334.855 268.671 334.627 267.812 334.627 266.908ZM335.55 267.404C335.55 268.082 335.698 268.7 335.994 269.259C336.293 269.82 336.693 270.244 337.195 270.532C337.712 270.827 338.106 270.863 338.377 270.639C338.648 270.41 338.784 269.94 338.784 269.227C338.784 268.51 338.648 267.883 338.377 267.345C338.106 266.807 337.712 266.39 337.195 266.094C336.687 265.803 336.285 265.774 335.989 266.006C335.697 266.239 335.55 266.705 335.55 267.404ZM340.871 265.398C340.871 265.213 340.925 265.09 341.033 265.027C341.144 264.963 341.279 264.977 341.439 265.068C341.603 265.162 341.74 265.302 341.851 265.49C341.964 265.679 342.021 265.868 342.021 266.056C342.021 266.24 341.964 266.362 341.851 266.421C341.74 266.478 341.603 266.46 341.439 266.367C341.276 266.273 341.141 266.136 341.033 265.953C340.925 265.768 340.871 265.582 340.871 265.398ZM340.978 273.419V267.534L341.883 268.052V273.937L340.978 273.419ZM347.823 277.334L346.922 276.819V273.472C346.922 272.263 346.539 271.439 345.772 271C345.375 270.773 345.048 270.756 344.793 270.951C344.537 271.145 344.409 271.503 344.409 272.024V275.382L343.504 274.864V268.979L344.409 269.497V270.471L344.428 270.481C344.813 269.96 345.372 269.909 346.104 270.328C346.665 270.649 347.091 271.1 347.384 271.683C347.676 272.261 347.823 272.946 347.823 273.737V277.334Z" fill="#999999"/>
<path d="M302.7 235.9C302.5 233.5 300.7 231.7 298.5 230.2V227L296.8 226V229.2L295.4 228.4V225.2L293.7 224.2V227.4L292.6 226.8L290.2 225.4V227.4L291.5 228.1C292.2 228.5 292.4 229 292.5 229.5V233.1C292.5 233.2 292.6 233.1 292.7 233.2L292.5 233.1V238.2C292.5 238.4 292.3 238.8 291.8 238.5C291.8 238.6 290.5 237.8 290.5 237.8L290.1 239.9L292.4 241.2L293.6 241.9V245.2L295.3 246.2V243L296.7 243.8V247L298.4 248V244.7C301.3 246.1 303.4 246.4 303.6 243.6C303.8 241.2 302.8 239.5 301.1 238.2C302.1 238.3 302.8 237.6 302.7 235.9ZM301.2 242.7C301.2 245.1 296.6 241.7 295.1 240.8V236.6C296.6 237.4 301.2 239.6 301.2 242.7ZM300.2 234.5C300.2 237.2 296.3 234.8 295.1 234.1V229.2C296.4 230 300.2 231.7 300.2 234.5Z" fill="white"/>
<path fill-rule="evenodd" clip-rule="evenodd" d="M426.7 398.1L278.6 313.4C276.6 312.3 275 309.4 275 306.9V264.6C275 262.2 276.6 261.1 278.6 262.2L426.7 347C428.7 348.1 430.3 351 430.3 353.5V395.8C430.2 398.2 428.6 399.2 426.7 398.1Z" fill="#2F3133"/>
<path fill-rule="evenodd" clip-rule="evenodd" d="M308 322.7L285.9 310C283.9 308.9 282.3 306 282.3 303.5V276.3C282.3 273.9 283.9 272.8 285.9 273.9L308 286.6C310 287.7 311.6 290.6 311.6 293.1V320.3C311.6 322.8 310 323.8 308 322.7Z" fill="black"/>
<path d="M324.577 310.688L323.23 309.918L321.313 305.098C321.268 304.988 321.204 304.78 321.119 304.476L321.091 304.461C321.083 304.49 321.017 304.625 320.891 304.864L318.918 307.451L317.566 306.678L320.42 303.343L317.793 296.917L319.151 297.694L320.847 302.086C320.947 302.343 321.046 302.635 321.146 302.96L321.168 302.973C321.257 302.793 321.366 302.611 321.495 302.425L323.269 300.049L324.538 300.775L321.856 304.145L324.577 310.688ZM332.126 315.006L330.818 314.258L329.394 310.698C329.109 309.986 328.849 309.464 328.612 309.133C328.376 308.798 328.093 308.536 327.764 308.348L326.966 307.891V312.055L325.857 311.421V301.53L328.474 303.026C329.309 303.504 329.963 304.11 330.436 304.845C330.909 305.579 331.145 306.363 331.145 307.198C331.145 308.569 330.51 309.095 329.238 308.776V308.808C329.475 309.058 329.678 309.339 329.848 309.649C330.022 309.961 330.245 310.453 330.519 311.124L332.126 315.006ZM326.966 303.281V306.774L328.274 307.522C328.78 307.812 329.19 307.876 329.504 307.715C329.822 307.556 329.981 307.2 329.981 306.647C329.981 306.132 329.837 305.647 329.549 305.193C329.261 304.739 328.841 304.354 328.291 304.039L326.966 303.281ZM334.382 312.6V316.297L333.273 315.663V305.772L335.712 307.167C336.64 307.697 337.358 308.366 337.868 309.173C338.382 309.982 338.639 310.865 338.639 311.823C338.639 312.793 338.339 313.41 337.741 313.672C337.142 313.929 336.394 313.784 335.496 313.237L334.382 312.6ZM334.382 307.53V311.476L335.407 312.062C336.084 312.449 336.597 312.568 336.948 312.42C337.299 312.268 337.475 311.863 337.475 311.208C337.475 309.935 336.821 308.925 335.513 308.176L334.382 307.53Z" fill="#F5F5F5"/>
<path d="M323.569 325.036L322.479 324.413L321.292 321.445C321.055 320.852 320.838 320.418 320.641 320.142C320.444 319.862 320.208 319.644 319.934 319.487L319.269 319.107V322.576L318.345 322.048V313.806L320.525 315.053C321.221 315.451 321.766 315.956 322.161 316.568C322.555 317.18 322.752 317.834 322.752 318.529C322.752 319.671 322.222 320.11 321.163 319.844V319.871C321.36 320.079 321.529 320.313 321.671 320.571C321.816 320.831 322.002 321.241 322.23 321.801L323.569 325.036ZM319.269 315.265V318.176L320.359 318.799C320.781 319.041 321.123 319.094 321.385 318.96C321.649 318.828 321.782 318.531 321.782 318.07C321.782 317.641 321.662 317.237 321.422 316.858C321.181 316.48 320.832 316.159 320.373 315.897L319.269 315.265ZM324.299 317.493C324.299 317.309 324.353 317.185 324.461 317.123C324.572 317.058 324.707 317.072 324.867 317.164C325.03 317.257 325.167 317.397 325.278 317.585C325.392 317.774 325.449 317.963 325.449 318.151C325.449 318.335 325.392 318.457 325.278 318.516C325.167 318.573 325.03 318.555 324.867 318.462C324.704 318.369 324.568 318.231 324.461 318.049C324.353 317.863 324.299 317.678 324.299 317.493ZM324.405 325.514V319.629L325.311 320.147V326.032L324.405 325.514ZM327.837 326.647V330.186L326.932 329.668V321.074L327.837 321.592V322.608L327.856 322.619C328.256 322.078 328.841 322.028 329.611 322.468C330.263 322.842 330.775 323.398 331.144 324.138C331.517 324.876 331.703 325.689 331.703 326.576C331.703 327.555 331.492 328.222 331.07 328.576C330.651 328.929 330.086 328.902 329.375 328.495C328.719 328.12 328.213 327.508 327.856 326.658L327.837 326.647ZM327.832 325.048C327.832 325.527 327.966 326.008 328.234 326.491C328.502 326.971 328.838 327.326 329.241 327.557C329.722 327.832 330.097 327.834 330.368 327.563C330.639 327.292 330.775 326.781 330.775 326.029C330.775 325.394 330.648 324.825 330.396 324.322C330.143 323.816 329.799 323.438 329.361 323.188C328.915 322.932 328.548 322.905 328.262 323.107C327.976 323.309 327.832 323.695 327.832 324.266V325.048ZM333.878 330.103V333.641L332.973 333.124V324.53L333.878 325.048V326.064L333.897 326.075C334.297 325.534 334.882 325.484 335.652 325.924C336.305 326.297 336.816 326.854 337.186 327.594C337.558 328.332 337.744 329.145 337.744 330.032C337.744 331.011 337.533 331.677 337.112 332.032C336.693 332.385 336.128 332.358 335.417 331.951C334.761 331.576 334.254 330.963 333.897 330.113L333.878 330.103ZM333.874 328.504C333.874 328.983 334.008 329.464 334.276 329.947C334.544 330.427 334.879 330.782 335.283 331.012C335.763 331.287 336.139 331.289 336.41 331.019C336.681 330.748 336.816 330.237 336.816 329.484C336.816 328.85 336.69 328.281 336.437 327.778C336.185 327.272 335.84 326.894 335.403 326.643C334.956 326.388 334.59 326.361 334.303 326.563C334.017 326.764 333.874 327.151 333.874 327.722V328.504ZM339.01 333.868V325.158L339.915 325.675V334.386L339.01 333.868ZM345.698 335.017L342.123 332.972C342.138 333.609 342.288 334.181 342.571 334.687C342.854 335.189 343.25 335.586 343.758 335.877C344.331 336.204 344.856 336.293 345.333 336.144V337.075C344.884 337.184 344.288 337.025 343.546 336.601C342.807 336.178 342.229 335.578 341.814 334.801C341.401 334.026 341.195 333.16 341.195 332.202C341.195 331.301 341.421 330.687 341.874 330.361C342.329 330.036 342.894 330.067 343.569 330.452C344.237 330.835 344.759 331.382 345.135 332.093C345.51 332.801 345.698 333.6 345.698 334.491V335.017ZM344.793 333.664C344.79 333.13 344.68 332.656 344.465 332.242C344.249 331.828 343.946 331.509 343.555 331.285C343.195 331.079 342.882 331.055 342.617 331.212C342.356 331.371 342.191 331.679 342.123 332.137L344.793 333.664ZM354.714 342.51C354.187 342.529 353.527 342.31 352.732 341.856C351.707 341.269 350.888 340.427 350.275 339.328C349.663 338.225 349.356 337.057 349.356 335.822C349.356 334.495 349.701 333.625 350.391 333.211C351.08 332.796 351.957 332.893 353.019 333.501C353.702 333.892 354.267 334.327 354.714 334.806V335.918C354.203 335.299 353.641 334.814 353.028 334.464C352.231 334.008 351.581 333.943 351.079 334.269C350.577 334.592 350.326 335.274 350.326 336.313C350.326 337.299 350.56 338.217 351.028 339.067C351.496 339.913 352.109 340.552 352.866 340.985C353.575 341.391 354.19 341.558 354.714 341.489V342.51ZM358.769 340.318C358.618 340.107 358.411 339.926 358.146 339.775C357.795 339.574 357.505 339.598 357.277 339.848C357.05 340.093 356.936 340.525 356.936 341.142V344.122L356.03 343.604V337.719L356.936 338.237V339.434L356.954 339.445C357.213 338.727 357.659 338.55 358.294 338.912C358.5 339.03 358.658 339.148 358.769 339.264V340.318ZM363.804 345.374L360.229 343.329C360.244 343.966 360.394 344.537 360.677 345.043C360.96 345.546 361.356 345.943 361.864 346.233C362.437 346.561 362.962 346.65 363.439 346.501V347.432C362.989 347.54 362.394 347.382 361.651 346.958C360.912 346.535 360.335 345.935 359.919 345.158C359.507 344.383 359.3 343.516 359.3 342.559C359.3 341.658 359.527 341.044 359.979 340.717C360.435 340.393 361 340.423 361.675 340.809C362.343 341.191 362.865 341.738 363.24 342.45C363.616 343.158 363.804 343.957 363.804 344.847V345.374ZM362.899 344.021C362.895 343.487 362.786 343.013 362.571 342.599C362.355 342.184 362.052 341.866 361.661 341.642C361.3 341.436 360.988 341.411 360.723 341.568C360.461 341.727 360.297 342.036 360.229 342.494L362.899 344.021ZM369.443 351.276L368.538 350.759V349.779L368.52 349.769C368.147 350.301 367.568 350.342 366.783 349.893C366.136 349.523 365.622 348.965 365.24 348.218C364.858 347.467 364.668 346.641 364.668 345.74C364.668 344.768 364.883 344.113 365.314 343.774C365.745 343.432 366.309 343.46 367.005 343.858C367.701 344.256 368.206 344.857 368.52 345.661L368.538 345.672V342.048L369.443 342.566V351.276ZM368.543 347.26C368.543 346.788 368.407 346.317 368.136 345.846C367.868 345.374 367.537 345.025 367.143 344.799C366.663 344.524 366.284 344.515 366.007 344.772C365.73 345.025 365.591 345.508 365.591 346.221C365.591 346.877 365.724 347.473 365.988 348.007C366.256 348.54 366.612 348.933 367.055 349.187C367.493 349.437 367.85 349.455 368.127 349.241C368.404 349.024 368.543 348.636 368.543 348.079V347.26ZM370.949 344.177C370.949 343.993 371.003 343.869 371.111 343.807C371.222 343.743 371.357 343.756 371.517 343.848C371.68 343.941 371.817 344.082 371.928 344.269C372.042 344.459 372.099 344.647 372.099 344.835C372.099 345.02 372.042 345.141 371.928 345.2C371.817 345.258 371.68 345.24 371.517 345.146C371.354 345.053 371.219 344.915 371.111 344.733C371.003 344.547 370.949 344.362 370.949 344.177ZM371.055 352.198V346.313L371.961 346.831V352.716L371.055 352.198ZM376.034 354.988C375.837 354.999 375.571 354.909 375.235 354.717C374.321 354.194 373.864 353.349 373.864 352.182V348.782L372.986 348.28V347.418L373.864 347.92V346.504L374.764 346.69V348.435L376.034 349.161V350.023L374.764 349.297V352.511C374.764 352.897 374.821 353.207 374.935 353.439C375.049 353.671 375.238 353.862 375.503 354.014C375.706 354.13 375.884 354.166 376.034 354.121V354.988ZM376.824 354.227C377.28 354.867 377.771 355.337 378.298 355.639C379.003 356.042 379.355 355.978 379.355 355.446C379.355 355.219 379.278 354.988 379.124 354.755C378.97 354.518 378.658 354.163 378.187 353.692C377.62 353.105 377.252 352.636 377.083 352.283C376.914 351.927 376.829 351.567 376.829 351.201C376.829 350.68 377.02 350.372 377.402 350.279C377.786 350.183 378.259 350.296 378.82 350.616C379.254 350.865 379.657 351.182 380.03 351.569V352.575C379.648 352.073 379.215 351.683 378.732 351.407C378.442 351.241 378.207 351.179 378.025 351.221C377.843 351.262 377.753 351.402 377.753 351.639C377.753 351.874 377.817 352.093 377.947 352.298C378.079 352.505 378.37 352.84 378.82 353.303C379.389 353.874 379.774 354.348 379.974 354.725C380.174 355.102 380.274 355.484 380.274 355.87C380.274 356.409 380.082 356.725 379.697 356.817C379.315 356.907 378.82 356.778 378.21 356.429C377.68 356.126 377.218 355.747 376.824 355.291V354.227Z" fill="#999999"/>
<path d="M290.8 304.5L294.6 302.3C296.1 301.4 299.2 304.2 301.5 308.3L302.7 310.5L304.5 311.4L301.3 305.3C299.1 301.1 296 298.4 294.4 299.3L288 303L290.8 304.5Z" fill="white"/>
<path d="M303 294.1L299.2 296.2C297.7 297.1 294.6 294.3 292.3 290.1L291.1 287.9L289.3 287L292.5 293.1C294.7 297.3 297.8 300 299.4 299.2L305.9 295.7L303 294.1Z" fill="white"/>
<path fill-rule="evenodd" clip-rule="evenodd" d="M426.7 459.7L278.6 375C276.6 373.9 275 371 275 368.5V326.2C275 323.8 276.6 322.7 278.6 323.8L426.7 408.5C428.7 409.6 430.3 412.5 430.3 415V457.3C430.2 459.7 428.6 460.8 426.7 459.7Z" fill="#2F3133"/>
<path fill-rule="evenodd" clip-rule="evenodd" d="M308 384.301L285.9 371.601C283.9 370.501 282.3 367.601 282.3 365.101V337.901C282.3 335.501 283.9 334.401 285.9 335.501L308 348.201C310 349.301 311.6 352.201 311.6 354.701V381.901C311.6 384.301 310 385.401 308 384.301Z" fill="black"/>
<path d="M323.058 371.394L318.53 368.804V358.913L319.639 359.547V368.308L323.058 370.264V371.394ZM329.549 366.353L327.071 364.935V373.69L325.957 373.052V364.298L323.491 362.887V361.751L329.549 365.216V366.353ZM336.743 378.813C336.111 378.835 335.319 378.573 334.365 378.028C333.135 377.324 332.152 376.313 331.417 374.994C330.681 373.671 330.314 372.269 330.314 370.787C330.314 369.195 330.728 368.151 331.555 367.653C332.383 367.156 333.434 367.272 334.709 368.002C335.529 368.471 336.207 368.993 336.743 369.567V370.902C336.13 370.159 335.455 369.578 334.72 369.157C333.763 368.61 332.983 368.532 332.381 368.924C331.779 369.312 331.478 370.129 331.478 371.376C331.478 372.56 331.758 373.661 332.32 374.681C332.882 375.696 333.617 376.463 334.526 376.983C335.376 377.469 336.115 377.671 336.743 377.587V378.813Z" fill="#F5F5F5"/>
<path d="M379.804 419.983L379.264 419.674V418.472C378.562 418.07 377.98 417.57 377.518 416.973V415.903C377.98 416.604 378.562 417.171 379.264 417.604V414.758C378.522 413.932 378.04 413.282 377.818 412.808C377.596 412.333 377.485 411.859 377.485 411.383C377.485 410.83 377.65 410.443 377.98 410.224C378.312 410.003 378.74 410.001 379.264 410.219V409.181L379.804 409.49V410.507C380.478 410.921 380.937 411.293 381.18 411.624V412.667C380.826 412.152 380.368 411.721 379.804 411.374V414.311C380.5 415.075 380.979 415.714 381.24 416.229C381.502 416.74 381.633 417.223 381.633 417.677C381.633 418.248 381.468 418.624 381.139 418.805C380.809 418.982 380.364 418.958 379.804 418.733V419.983ZM379.264 411.097C378.672 410.908 378.377 411.134 378.377 411.776C378.377 412.085 378.44 412.376 378.566 412.651C378.692 412.925 378.925 413.267 379.264 413.677V411.097ZM379.804 417.871C380.429 418.072 380.742 417.866 380.742 417.253C380.742 416.738 380.429 416.111 379.804 415.37V417.871ZM387.12 420.422C387.12 421.228 386.888 421.744 386.423 421.971C385.961 422.2 385.339 422.09 384.557 421.643C383.886 421.259 383.385 420.858 383.056 420.439V419.374C383.539 420.013 384.032 420.475 384.534 420.763C385.033 421.048 385.434 421.12 385.739 420.979C386.047 420.835 386.201 420.501 386.201 419.976C386.201 419.451 386.041 418.952 385.721 418.478C385.404 418.002 384.954 417.597 384.372 417.265C383.922 417.007 383.518 416.799 383.157 416.639L383.421 412.607L386.765 414.52V415.435L384.183 413.958L384.035 416.21L384.686 416.55C385.444 416.984 386.038 417.542 386.469 418.225C386.903 418.906 387.12 419.638 387.12 420.422ZM391.744 419.528C391.744 419.085 391.622 418.668 391.379 418.277C391.136 417.882 390.805 417.565 390.386 417.326C390.09 417.157 389.791 417.073 389.49 417.074C389.188 417.075 388.906 417.162 388.644 417.335V416.324C388.878 416.178 389.143 416.115 389.439 416.135C389.738 416.157 390.087 416.282 390.487 416.511C391.134 416.881 391.654 417.379 392.049 418.005C392.443 418.628 392.64 419.28 392.64 419.961C392.64 420.568 392.518 421.023 392.275 421.327C392.035 421.633 391.622 421.852 391.037 421.982C390.44 422.115 390.039 422.227 389.836 422.316C389.636 422.408 389.496 422.524 389.416 422.667C389.336 422.809 389.296 423.015 389.296 423.284L392.852 425.319V426.244L388.353 423.671V423.261C388.353 422.786 388.409 422.415 388.52 422.149C388.634 421.88 388.82 421.664 389.079 421.5C389.337 421.332 389.741 421.185 390.289 421.059C390.849 420.925 391.231 420.746 391.434 420.522C391.641 420.296 391.744 419.965 391.744 419.528ZM398.224 426.774C398.224 427.579 397.991 428.095 397.526 428.322C397.065 428.551 396.443 428.442 395.66 427.994C394.989 427.61 394.489 427.209 394.159 426.79V425.726C394.643 426.364 395.135 426.827 395.637 427.114C396.136 427.399 396.538 427.471 396.843 427.33C397.151 427.187 397.305 426.853 397.305 426.328C397.305 425.803 397.145 425.303 396.824 424.829C396.507 424.353 396.058 423.949 395.476 423.616C395.026 423.359 394.621 423.15 394.261 422.99L394.524 418.959L397.868 420.871V421.787L395.286 420.31L395.139 422.561L395.79 422.902C396.547 423.335 397.142 423.893 397.573 424.576C398.007 425.257 398.224 425.99 398.224 426.774ZM399.457 429.474C399.457 429.283 399.514 429.154 399.628 429.088C399.742 429.022 399.884 429.037 400.053 429.134C400.225 429.233 400.369 429.382 400.482 429.582C400.596 429.778 400.653 429.971 400.653 430.159C400.653 430.343 400.596 430.47 400.482 430.54C400.369 430.606 400.224 430.589 400.048 430.488C399.879 430.392 399.737 430.245 399.623 430.048C399.513 429.85 399.457 429.659 399.457 429.474ZM401.85 430.013C402.339 430.729 402.892 431.264 403.508 431.616C404 431.898 404.39 431.982 404.676 431.869C404.966 431.755 405.111 431.463 405.111 430.995C405.111 429.952 404.462 429.06 403.166 428.318L402.57 427.977V427.115L403.138 427.44C404.287 428.097 404.861 427.936 404.861 426.957C404.861 426.053 404.422 425.349 403.545 424.847C403.043 424.56 402.57 424.485 402.127 424.622V423.637C402.595 423.593 403.141 423.749 403.766 424.107C404.376 424.456 404.866 424.92 405.235 425.5C405.605 426.077 405.79 426.658 405.79 427.243C405.79 428.322 405.312 428.742 404.358 428.505V428.526C404.875 428.886 405.283 429.33 405.582 429.86C405.883 430.387 406.034 430.917 406.034 431.449C406.034 432.19 405.802 432.655 405.337 432.843C404.875 433.033 404.259 432.908 403.489 432.467C402.812 432.08 402.265 431.622 401.85 431.093V430.013ZM411.443 429.695C411.07 429.262 410.681 428.929 410.274 428.697C409.655 428.343 409.158 428.369 408.782 428.775C408.407 429.18 408.216 429.919 408.21 430.99L408.233 431.004C408.572 430.442 409.112 430.373 409.854 430.798C410.473 431.152 410.967 431.667 411.337 432.343C411.706 433.019 411.891 433.742 411.891 434.511C411.891 435.317 411.677 435.856 411.249 436.129C410.824 436.404 410.281 436.352 409.619 435.973C408.892 435.558 408.321 434.904 407.905 434.014C407.492 433.122 407.286 432.074 407.286 430.872C407.286 429.417 407.557 428.418 408.099 427.873C408.644 427.326 409.36 427.306 410.247 427.814C410.755 428.104 411.153 428.412 411.443 428.737V429.695ZM408.265 432.363C408.265 432.906 408.39 433.442 408.639 433.971C408.892 434.502 409.226 434.887 409.642 435.124C410.036 435.35 410.356 435.366 410.602 435.174C410.849 434.981 410.972 434.622 410.972 434.097C410.972 433.53 410.855 433.021 410.621 432.572C410.39 432.124 410.06 431.778 409.632 431.533C409.226 431.3 408.896 431.271 408.644 431.446C408.391 431.621 408.265 431.927 408.265 432.363Z" fill="#00C383"/>
<path d="M322.119 385.781L318.345 383.622V375.38L319.269 375.908V383.209L322.119 384.839V385.781ZM322.978 378.312C322.978 378.127 323.032 378.004 323.14 377.941C323.251 377.877 323.386 377.891 323.546 377.982C323.709 378.076 323.846 378.216 323.957 378.404C324.071 378.593 324.128 378.782 324.128 378.97C324.128 379.154 324.071 379.276 323.957 379.335C323.846 379.392 323.709 379.374 323.546 379.281C323.383 379.187 323.247 379.049 323.14 378.867C323.032 378.681 322.978 378.496 322.978 378.312ZM323.084 386.333V380.448L323.99 380.966V386.851L323.084 386.333ZM328.063 389.122C327.866 389.134 327.6 389.044 327.264 388.852C326.35 388.328 325.893 387.483 325.893 386.316V382.916L325.015 382.414V381.552L325.893 382.054V380.639L326.793 380.824V382.569L328.063 383.296V384.158L326.793 383.431V386.645C326.793 387.032 326.85 387.341 326.964 387.573C327.078 387.805 327.267 387.997 327.532 388.148C327.735 388.264 327.913 388.3 328.063 388.255V389.122ZM333.301 389.5L329.726 387.456C329.742 388.092 329.891 388.664 330.174 389.17C330.457 389.672 330.853 390.069 331.361 390.36C331.934 390.687 332.459 390.776 332.936 390.627V391.558C332.487 391.667 331.891 391.509 331.149 391.084C330.41 390.661 329.832 390.062 329.417 389.285C329.004 388.509 328.798 387.643 328.798 386.685C328.798 385.784 329.024 385.17 329.477 384.844C329.932 384.519 330.498 384.55 331.172 384.936C331.84 385.318 332.362 385.865 332.738 386.576C333.113 387.284 333.301 388.083 333.301 388.974V389.5ZM332.396 388.147C332.393 387.613 332.283 387.139 332.068 386.725C331.852 386.311 331.549 385.992 331.158 385.768C330.798 385.562 330.485 385.538 330.22 385.695C329.959 385.854 329.794 386.162 329.726 386.62L332.396 388.147ZM338.035 394.619C337.644 394.665 337.173 394.53 336.622 394.215C335.883 393.792 335.289 393.179 334.839 392.376C334.39 391.572 334.165 390.736 334.165 389.867C334.165 388.902 334.407 388.263 334.89 387.951C335.377 387.637 336.026 387.712 336.839 388.177C337.307 388.445 337.707 388.77 338.04 389.152V390.184C337.68 389.673 337.279 389.291 336.839 389.039C336.322 388.743 335.9 388.71 335.574 388.938C335.25 389.164 335.089 389.622 335.089 390.31C335.089 390.988 335.241 391.605 335.546 392.163C335.854 392.722 336.268 393.15 336.788 393.448C337.229 393.7 337.644 393.771 338.035 393.661V394.619ZM338.913 392.508C338.913 391.536 339.149 390.905 339.62 390.614C340.091 390.319 340.73 390.403 341.536 390.864C342.303 391.303 342.904 391.918 343.338 392.709C343.775 393.498 343.994 394.37 343.994 395.324C343.994 396.253 343.761 396.871 343.296 397.176C342.831 397.481 342.208 397.41 341.426 396.963C340.662 396.526 340.052 395.9 339.597 395.086C339.141 394.272 338.913 393.413 338.913 392.508ZM339.837 393.005C339.837 393.682 339.985 394.301 340.28 394.86C340.579 395.421 340.979 395.845 341.481 396.132C341.998 396.428 342.392 396.464 342.663 396.239C342.934 396.011 343.07 395.541 343.07 394.828C343.07 394.111 342.934 393.484 342.663 392.946C342.392 392.407 341.998 391.99 341.481 391.694C340.973 391.404 340.571 391.374 340.276 391.606C339.983 391.84 339.837 392.306 339.837 393.005ZM345.158 390.999C345.158 390.814 345.212 390.691 345.319 390.628C345.43 390.564 345.566 390.578 345.726 390.669C345.889 390.762 346.026 390.903 346.137 391.09C346.251 391.28 346.308 391.468 346.308 391.657C346.308 391.841 346.251 391.963 346.137 392.022C346.026 392.079 345.889 392.061 345.726 391.967C345.563 391.874 345.427 391.736 345.319 391.554C345.212 391.368 345.158 391.183 345.158 390.999ZM345.264 399.02V393.135L346.169 393.652V399.538L345.264 399.02ZM352.109 402.935L351.208 402.42V399.073C351.208 397.863 350.825 397.039 350.058 396.601C349.661 396.373 349.335 396.357 349.079 396.551C348.823 396.746 348.696 397.104 348.696 397.625V400.983L347.79 400.465V394.58L348.696 395.098V396.071L348.714 396.082C349.099 395.561 349.658 395.51 350.391 395.929C350.951 396.249 351.378 396.701 351.67 397.283C351.963 397.862 352.109 398.547 352.109 399.338V402.935Z" fill="#999999"/>
<path fill-rule="evenodd" clip-rule="evenodd" d="M418.9 432.3L414.6 439L423.2 443.9L418.9 432.3Z" fill="#00C383"/>
<path d="M290.7 364.8L303.5 371.8L303.9 368.9L295.2 364L297.6 350.5L293.6 348.5L290.7 364.8Z" fill="white"/>
<path d="M289.5 358.5L298.5 359.5L298.8 358.1L289.8 357L289.5 358.5Z" fill="white"/>
<path fill-rule="evenodd" clip-rule="evenodd" d="M426.7 521.3L278.6 436.6C276.6 435.5 275 432.6 275 430.1V387.8C275 385.4 276.6 384.3 278.6 385.4L426.7 470.1C428.7 471.2 430.3 474.1 430.3 476.6V518.9C430.2 521.3 428.6 522.4 426.7 521.3Z" fill="#2F3133"/>
<path fill-rule="evenodd" clip-rule="evenodd" d="M308 445.801L285.9 433.101C283.9 432.001 282.3 429.101 282.3 426.601V399.401C282.3 397.001 283.9 395.901 285.9 397.001L308 409.701C310 410.801 311.6 413.701 311.6 416.201V443.401C311.6 445.901 310 447.001 308 445.801Z" fill="black"/>
<path d="M323.147 433.019L318.53 430.378V420.487L322.953 423.017V424.154L319.639 422.258V425.425L322.709 427.182V428.312L319.639 426.555V429.882L323.147 431.889V433.019ZM329.959 428.161L327.481 426.744V435.498L326.367 434.861V426.107L323.901 424.696V423.56L329.959 427.025V428.161ZM337.841 441.424L336.732 440.79V436.333L332.387 433.847V438.304L331.278 437.67V427.779L332.387 428.413V432.711L336.732 435.196V430.899L337.841 431.533V441.424Z" fill="#F5F5F5"/>
<path d="M374.431 478.483L373.89 478.174V476.972C373.188 476.57 372.606 476.07 372.144 475.473V474.403C372.606 475.104 373.188 475.671 373.89 476.104V473.258C373.148 472.432 372.666 471.782 372.445 471.308C372.223 470.833 372.112 470.359 372.112 469.883C372.112 469.33 372.277 468.943 372.606 468.724C372.939 468.503 373.367 468.501 373.89 468.719V467.681L374.431 467.99V469.007C375.105 469.421 375.564 469.793 375.807 470.124V471.167C375.453 470.652 374.994 470.221 374.431 469.874V472.811C375.127 473.575 375.605 474.214 375.867 474.729C376.129 475.24 376.26 475.723 376.26 476.177C376.26 476.748 376.095 477.124 375.766 477.305C375.436 477.482 374.991 477.458 374.431 477.233V478.483ZM373.89 469.597C373.299 469.408 373.004 469.634 373.004 470.276C373.004 470.585 373.067 470.876 373.193 471.151C373.319 471.425 373.552 471.767 373.89 472.177V469.597ZM374.431 476.371C375.056 476.572 375.368 476.366 375.368 475.753C375.368 475.238 375.056 474.611 374.431 473.87V476.371ZM377.539 477.681C378.029 478.397 378.582 478.931 379.197 479.284C379.69 479.565 380.08 479.65 380.366 479.537C380.655 479.422 380.8 479.131 380.8 478.663C380.8 477.62 380.152 476.728 378.856 475.986L378.26 475.645V474.783L378.828 475.108C379.976 475.765 380.551 475.604 380.551 474.625C380.551 473.72 380.112 473.017 379.234 472.515C378.732 472.228 378.26 472.153 377.816 472.289V471.305C378.284 471.261 378.831 471.417 379.456 471.775C380.066 472.123 380.555 472.588 380.925 473.168C381.294 473.745 381.479 474.326 381.479 474.911C381.479 475.99 381.002 476.41 380.047 476.173V476.194C380.565 476.554 380.973 476.998 381.271 477.527C381.573 478.055 381.724 478.584 381.724 479.117C381.724 479.858 381.491 480.323 381.026 480.511C380.565 480.701 379.949 480.575 379.179 480.135C378.501 479.748 377.955 479.29 377.539 478.761V477.681ZM382.883 479.817C382.883 479.342 383.006 478.974 383.253 478.714C383.499 478.454 383.816 478.35 384.204 478.402C383.893 478.021 383.647 477.622 383.465 477.202C383.283 476.782 383.193 476.388 383.193 476.019C383.193 475.629 383.279 475.322 383.451 475.098C383.627 474.875 383.869 474.76 384.176 474.751C384.487 474.745 384.829 474.848 385.202 475.061C385.577 475.276 385.921 475.565 386.232 475.927C386.543 476.286 386.785 476.676 386.957 477.098C387.129 477.519 387.216 477.927 387.216 478.32C387.216 478.682 387.126 478.972 386.948 479.189C386.772 479.404 386.527 479.525 386.213 479.551C386.601 479.947 386.917 480.414 387.16 480.954C387.403 481.494 387.525 482 387.525 482.472C387.525 482.94 387.428 483.305 387.234 483.567C387.04 483.825 386.765 483.954 386.407 483.956C386.05 483.957 385.648 483.83 385.202 483.575C384.758 483.321 384.36 482.99 384.006 482.582C383.651 482.174 383.376 481.727 383.179 481.242C382.982 480.757 382.883 480.282 382.883 479.817ZM383.77 480.276C383.77 480.766 383.901 481.233 384.163 481.677C384.424 482.121 384.772 482.467 385.206 482.716C385.631 482.959 385.978 483.008 386.246 482.863C386.517 482.717 386.652 482.404 386.652 481.925C386.652 481.471 386.515 481.011 386.241 480.546C385.97 480.079 385.625 479.725 385.206 479.486C384.791 479.248 384.447 479.204 384.176 479.354C383.905 479.501 383.77 479.808 383.77 480.276ZM384.029 476.582C384.029 476.951 384.143 477.334 384.37 477.73C384.598 478.123 384.877 478.414 385.206 478.602C385.53 478.787 385.808 478.814 386.042 478.682C386.28 478.551 386.398 478.303 386.398 477.938C386.398 477.565 386.284 477.184 386.056 476.795C385.832 476.408 385.548 476.116 385.206 475.921C384.868 475.727 384.586 475.693 384.361 475.82C384.14 475.945 384.029 476.199 384.029 476.582ZM392.851 485.274C392.851 486.079 392.618 486.595 392.153 486.822C391.691 487.051 391.069 486.942 390.287 486.494C389.616 486.11 389.116 485.709 388.786 485.29V484.226C389.269 484.864 389.762 485.327 390.264 485.614C390.763 485.899 391.165 485.971 391.47 485.83C391.777 485.687 391.931 485.353 391.931 484.828C391.931 484.303 391.771 483.803 391.451 483.329C391.134 482.853 390.684 482.449 390.102 482.116C389.653 481.859 389.248 481.65 388.888 481.49L389.151 477.459L392.495 479.371V480.287L389.913 478.81L389.765 481.061L390.416 481.402C391.174 481.835 391.768 482.393 392.199 483.076C392.634 483.757 392.851 484.49 392.851 485.274ZM398.592 483.503C397.84 484.584 397.249 485.645 396.818 486.686C396.39 487.726 396.125 488.708 396.024 489.632L395.081 489.093C395.195 488.19 395.465 487.239 395.89 486.24C396.315 485.242 396.883 484.231 397.594 483.209L394.047 481.18V480.259L398.592 482.859V483.503ZM399.636 491.15C399.636 490.959 399.693 490.83 399.807 490.764C399.92 490.698 400.062 490.713 400.231 490.81C400.404 490.908 400.547 491.058 400.661 491.258C400.775 491.454 400.832 491.646 400.832 491.834C400.832 492.019 400.775 492.146 400.661 492.216C400.547 492.282 400.402 492.264 400.227 492.164C400.057 492.067 399.916 491.921 399.802 491.724C399.691 491.526 399.636 491.335 399.636 491.15ZM401.783 488.968C401.783 487.513 401.993 486.534 402.412 486.028C402.83 485.519 403.437 485.492 404.231 485.946C405.746 486.813 406.504 488.654 406.504 491.471C406.504 492.862 406.29 493.803 405.862 494.296C405.437 494.788 404.84 494.813 404.07 494.373C403.343 493.957 402.78 493.285 402.379 492.358C401.982 491.432 401.783 490.302 401.783 488.968ZM402.707 489.448C402.707 491.637 403.189 493.007 404.153 493.558C405.101 494.101 405.575 493.26 405.575 491.036C405.575 488.734 405.11 487.316 404.181 486.785C403.198 486.223 402.707 487.111 402.707 489.448ZM411.215 490.079V495.523L412.287 496.136V496.998L411.215 496.385V498.322L410.337 497.82V495.883L406.998 493.973V493.159C407.592 492.729 408.19 492.184 408.79 491.523C409.391 490.863 409.886 490.203 410.277 489.543L411.215 490.079ZM408.014 493.692L410.337 495.021V491.094C410.017 491.574 409.674 492.022 409.307 492.436C408.941 492.847 408.51 493.266 408.014 493.692Z" fill="#F54E4E"/>
<path d="M322.193 447.397L318.345 445.196V436.954L322.031 439.062V440.01L319.269 438.43V441.069L321.828 442.533V443.474L319.269 442.011V444.783L322.193 446.455V447.397ZM325.883 449.45C325.686 449.461 325.42 449.371 325.084 449.179C324.17 448.656 323.712 447.811 323.712 446.643V443.243L322.835 442.741V441.879L323.712 442.381V440.966L324.613 441.151V442.896L325.883 443.623V444.485L324.613 443.758V446.972C324.613 447.359 324.67 447.668 324.784 447.9C324.898 448.132 325.087 448.324 325.352 448.475C325.555 448.592 325.732 448.627 325.883 448.582V449.45ZM331.273 452.591L330.373 452.076V448.692C330.373 447.507 329.991 446.696 329.227 446.259C328.836 446.036 328.511 446.024 328.253 446.223C327.994 446.42 327.865 446.78 327.865 447.305V450.642L326.959 450.124V441.413L327.865 441.931V445.725L327.883 445.735C328.274 445.221 328.83 445.17 329.551 445.582C330.699 446.239 331.273 447.368 331.273 448.968V452.591ZM336.95 453.162L333.375 451.117C333.39 451.754 333.54 452.325 333.823 452.831C334.106 453.334 334.502 453.73 335.01 454.021C335.583 454.349 336.108 454.438 336.585 454.289V455.22C336.136 455.328 335.54 455.17 334.798 454.746C334.059 454.323 333.481 453.723 333.066 452.946C332.653 452.171 332.447 451.304 332.447 450.346C332.447 449.445 332.673 448.832 333.126 448.505C333.581 448.181 334.146 448.211 334.821 448.597C335.489 448.979 336.011 449.526 336.386 450.238C336.762 450.945 336.95 451.745 336.95 452.635V453.162ZM336.045 451.809C336.042 451.275 335.932 450.801 335.717 450.387C335.501 449.972 335.198 449.653 334.807 449.43C334.447 449.224 334.134 449.199 333.869 449.356C333.608 449.515 333.443 449.824 333.375 450.282L336.045 451.809ZM340.894 453.242C340.744 453.031 340.536 452.85 340.271 452.699C339.92 452.498 339.63 452.522 339.403 452.772C339.175 453.017 339.061 453.449 339.061 454.066V457.046L338.155 456.528V450.643L339.061 451.161V452.358L339.079 452.368C339.338 451.651 339.784 451.473 340.419 451.836C340.625 451.954 340.784 452.072 340.894 452.188V453.242ZM345.929 458.298L342.354 456.253C342.369 456.89 342.519 457.461 342.802 457.967C343.085 458.47 343.481 458.866 343.989 459.157C344.562 459.485 345.087 459.574 345.564 459.425V460.356C345.115 460.464 344.519 460.306 343.777 459.882C343.038 459.459 342.46 458.859 342.045 458.082C341.632 457.307 341.426 456.44 341.426 455.482C341.426 454.581 341.652 453.968 342.105 453.641C342.56 453.317 343.125 453.347 343.8 453.733C344.468 454.115 344.99 454.662 345.365 455.374C345.741 456.082 345.929 456.881 345.929 457.771V458.298ZM345.024 456.945C345.021 456.411 344.911 455.937 344.696 455.523C344.48 455.108 344.177 454.789 343.786 454.566C343.426 454.36 343.113 454.335 342.848 454.492C342.586 454.651 342.422 454.96 342.354 455.418L345.024 456.945ZM351.351 464.076L350.442 463.556V462.63L350.423 462.619C350.081 463.133 349.556 463.188 348.848 462.782C347.638 462.09 347.033 460.911 347.033 459.243V455.721L347.929 456.233V459.602C347.929 460.797 348.326 461.622 349.121 462.076C349.515 462.302 349.833 462.317 350.077 462.123C350.32 461.925 350.442 461.571 350.442 461.06V457.671L351.351 458.191V464.076Z" fill="#999999"/>
<path fill-rule="evenodd" clip-rule="evenodd" d="M417.9 502L414 492L422.6 496.9L417.9 502Z" fill="#F54E4E"/>
<path d="M297.1 433.3L303.3 426.9L296.9 427.2L290.4 419.4L297.1 433.3Z" fill="white"/>
<path d="M290.1 418.3L296.8 425L303.2 425.1L296.9 409.7L290.1 418.3Z" fill="white"/>
<path d="M541.6 482.2L392.8 393.9C386.2 390 380.8 383.3 380.8 378.9V236.9C380.8 235.6 376.1 236.4 376.1 236.4C376.1 236.4 379.9 233.5 384.1 233.4C387.7 233.3 390.7 234.9 392.8 236.2L541.6 324.4C548.2 328.3 553.6 335 553.6 339.4V481.4C553.6 484.6 552.1 484.4 546.1 486.4C544.7 486.9 543.3 483.2 541.6 482.2Z" fill="#060606" stroke="#060606" stroke-miterlimit="10" stroke-linecap="round" stroke-linejoin="round"/>
<path d="M535.6 484.2L386.8 395.9C380.2 392 374.8 385.3 374.8 380.9V238.9C374.8 234.6 380.2 234.2 386.8 238.2L535.6 326.4C542.2 330.3 547.6 337 547.6 341.4V483.4C547.6 487.7 542.2 488.1 535.6 484.2Z" fill="#2F3133" stroke="#060606" stroke-miterlimit="10"/>
<path d="M374.6 256.4C374.6 255.4 377.1 256.9 377.2 256.9C381.1 259.9 382.3 265.5 383.7 269.9C385.4 275.3 386.7 280.9 387.8 286.4C388.4 289.7 388.8 294.4 392.3 295.9C397.5 298.1 402.3 287.7 406.3 285.7C411.6 283 414.6 288.3 416.9 292.2C421.9 300.7 425.3 310.3 428.5 319.7C430.3 325.1 431.4 331.2 434.3 336.2C436.2 339.6 439.6 343.1 443.5 343.9C446.4 344.5 448.2 343.4 450.2 341.4C453.1 338.5 457.2 336.1 461.4 337.3C467.6 339.1 470.2 346.7 472.1 352.1C476 363.3 476.7 375.8 484.1 385.5C485.8 387.7 488.3 390.3 491.3 390.3C494 390.3 496.3 387.2 497.8 385.3C500.6 381.8 502.8 377.9 505 374C507.6 369.3 509.5 364.2 512.3 359.5C514.6 355.5 518.8 349.2 524 349.2C529.6 349.2 532.3 355.9 534.4 360.1C539.2 369.5 542.8 379.5 546.4 389.4C547 391 546.6 392.6 547.2 394.3C547.2 398 547.2 401.6 547.2 405.3C547.2 413.7 547.2 422.1 547.2 430.5C547.2 439.8 547.2 449.1 547.2 458.4C547.2 463.5 547.2 468.6 547.2 473.7C547.2 476.1 547.3 478.4 547.2 480.8C547.1 482.7 547.3 485.3 545.2 486.3C543.5 487.1 540 485.7 535.2 483.3L381.6 394.3C381.6 394.3 374.6 393.3 374.6 375.3C374.6 357.4 374.6 256.4 374.6 256.4Z" fill="#B0F127" stroke="#060606" stroke-miterlimit="10"/>
<path d="M464.683 344.102C467.166 343.026 467.896 339.195 466.315 335.547C464.733 331.899 461.438 329.814 458.955 330.89C456.472 331.967 455.741 335.797 457.323 339.445C458.905 343.094 462.2 345.179 464.683 344.102Z" fill="white" stroke="#060606" stroke-miterlimit="10.0003"/>
<path d="M224.2 596C214.8 587.6 198.7 582 180.5 582C162.3 582 146.3 587.6 136.8 596H128V614C128.4 631.2 151.8 645 180.5 645C209.2 645 232.5 631.2 233 614V596H224.2Z" fill="#25282F" stroke="#060606" stroke-miterlimit="10"/>
<path d="M180.5 627C209.495 627 233 612.897 233 595.5C233 578.103 209.495 564 180.5 564C151.505 564 128 578.103 128 595.5C128 612.897 151.505 627 180.5 627Z" fill="white" stroke="#060606" stroke-miterlimit="10"/>
<path d="M202.2 597.5C205.7 594.8 203.1 591.7 198.6 588.6L204.1 585.2L200.3 583L194.8 586.4L191.8 584.6L197.3 581.2L193.5 579L188 582.4L185.5 581L180.3 577.9L176.8 580.1L179.7 581.7C181.2 582.6 181.1 583.3 180.3 583.9L174 587.8C174 587.9 174.3 587.9 174.4 588L174 587.8L165.1 593.2C164.7 593.4 163.5 593.7 162.4 593.1C162.4 593.2 159.5 591.5 159.5 591.5L154.6 593.5L159.5 596.4L162.1 598L156.4 601.5L160.2 603.7L165.7 600.2L168.7 602L163.2 605.4L167 607.6L172.7 604.1C179.5 607.6 185.6 609.3 191.3 606.4C196.1 604 195.8 601.5 192.9 598.9C196.4 599.7 199.6 599.4 202.2 597.5ZM185.8 603.9C181.5 606.5 172.5 599.5 169.5 597.5L177.2 593.3C180.2 595.1 191.3 600.5 185.8 603.9ZM196.8 594.4C192.1 597.3 183.9 592.1 181.3 590.5L189.8 585.3C192.4 587 201.7 591.4 196.8 594.4Z" fill="#060606"/>
<path d="M242.2 577C232.8 568.6 216.7 563 198.5 563C180.3 563 164.3 568.6 154.8 577H146V595C146.4 612.2 169.8 626 198.5 626C227.2 626 250.5 612.2 251 595V577H242.2Z" fill="#B0F127" stroke="#060606" stroke-miterlimit="10"/>
<path d="M198.5 608C227.495 608 251 593.897 251 576.5C251 559.103 227.495 545 198.5 545C169.505 545 146 559.103 146 576.5C146 593.897 169.505 608 198.5 608Z" fill="white" stroke="#060606" stroke-miterlimit="10"/>
<path d="M220.2 578.5C223.7 575.8 221.1 572.7 216.6 569.6L222.1 566.2L218.3 564L212.8 567.4L209.8 565.6L215.3 562.2L211.5 560L206 563.4L203.5 562L198.3 558.9L194.8 561.1L197.7 562.7C199.2 563.6 199.1 564.3 198.3 564.9L192 568.8C192 568.9 192.3 568.9 192.4 569L192 568.8L183.1 574.2C182.7 574.4 181.5 574.7 180.4 574.1C180.4 574.2 177.5 572.5 177.5 572.5L172.6 574.5L177.5 577.4L180.1 579L174.4 582.5L178.2 584.7L183.7 581.2L186.7 583L181.2 586.4L185 588.6L190.7 585.1C197.5 588.6 203.6 590.3 209.3 587.4C214.1 585 213.8 582.5 210.9 579.9C214.4 580.7 217.6 580.4 220.2 578.5ZM203.8 584.9C199.5 587.5 190.5 580.5 187.5 578.5L195.2 574.3C198.2 576.1 209.3 581.5 203.8 584.9ZM214.8 575.4C210.1 578.3 201.9 573.1 199.3 571.5L207.8 566.3C210.4 568 219.7 572.4 214.8 575.4Z" fill="#060606"/>
<path d="M615.3 603C606.8 595.3 592.2 590.3 575.7 590.3C559.2 590.3 544.6 595.3 536.1 603H528.1V619.3C528.5 634.9 549.7 647.4 575.7 647.4C601.8 647.4 622.9 634.8 623.3 619.3V603H615.3Z" fill="#25282F" stroke="#060606" stroke-miterlimit="10"/>
<path d="M575.6 631.2C601.889 631.2 623.2 618.395 623.2 602.6C623.2 586.805 601.889 574 575.6 574C549.311 574 528 586.805 528 602.6C528 618.395 549.311 631.2 575.6 631.2Z" fill="white" stroke="#060606" stroke-miterlimit="10"/>
<path d="M555.5 599L576.5 612L584.5 609L570.5 600L595.5 591L588.5 587L555.5 599Z" fill="#060606"/>
<path d="M562.5 593L583.5 599L586.5 598L565.5 592L562.5 593Z" fill="#060606"/>
<path d="M651.9 414.9C644.9 408.6 632.9 404.4 619.3 404.4C605.7 404.4 593.7 408.6 586.7 414.9H580.1V428.4C580.4 441.2 597.9 451.6 619.3 451.6C640.7 451.6 658.2 441.3 658.5 428.4V414.9H651.9Z" fill="#25282F" stroke="#060606" stroke-miterlimit="10"/>
<path d="M619.3 438C641.005 438 658.6 427.479 658.6 414.5C658.6 401.521 641.005 391 619.3 391C597.595 391 580 401.521 580 414.5C580 427.479 597.595 438 619.3 438Z" fill="white" stroke="#060606" stroke-miterlimit="10"/>
<path d="M604 423.5L626 421.5L612 418.5L608 409.5L604 423.5Z" fill="#060606"/>
<path d="M609 408.5L614 416.5L629 419.5L636 404.5L609 408.5Z" fill="#060606"/>
<path d="M182.3 338C173.8 330.3 159.2 325.3 142.7 325.3C126.2 325.3 111.6 330.3 103.1 338H95.1001V354.3C95.5001 369.9 116.7 382.4 142.7 382.4C168.7 382.4 189.9 369.8 190.3 354.3V338H182.3Z" fill="#25282F" stroke="#060606" stroke-miterlimit="10"/>
<path d="M142.6 366.2C168.889 366.2 190.2 353.395 190.2 337.6C190.2 321.805 168.889 309 142.6 309C116.311 309 95 321.805 95 337.6C95 353.395 116.311 366.2 142.6 366.2Z" fill="white" stroke="#060606" stroke-miterlimit="10"/>
<path d="M117.2 339.6H130.6C136 339.6 140.5 344.1 140.5 349.5V352.4L144 354.3V346.4C144 341 139.5 336.5 134.1 336.5H111.5L117.2 339.6Z" fill="#060606"/>
<path d="M165.3 336.3L151.9 336.2C146.5 336.2 142 331.7 142.1 326.2V323.3L138.6 321.4L138.5 329.3C138.5 334.7 142.9 339.2 148.3 339.3L170.9 339.5L165.3 336.3Z" fill="#060606"/>
</g>
</g>
<defs>
<clipPath id="clip0_3738_21165">
<rect width="750" height="689" fill="white"/>
</clipPath>
<clipPath id="clip1_3738_21165">
<rect width="569" height="689" fill="white" transform="translate(90)"/>
</clipPath>
</defs>
</svg>
