<svg width="27" height="27" viewBox="0 0 27 27" fill="none" xmlns="http://www.w3.org/2000/svg">
<path d="M22.3627 9.97949H12.6201C11.4244 9.97949 10.4551 10.9488 10.4551 12.1445V21.8871C10.4551 23.0828 11.4244 24.0521 12.6201 24.0521H22.3627C23.5584 24.0521 24.5277 23.0828 24.5277 21.8871V12.1445C24.5277 10.9488 23.5584 9.97949 22.3627 9.97949Z" stroke="#ea4b64" stroke-width="2.16502" stroke-linecap="round" stroke-linejoin="round"/>
<path d="M6.12545 16.4751H5.04295C4.46875 16.4751 3.91807 16.247 3.51205 15.841C3.10603 15.435 2.87793 14.8843 2.87793 14.3101V4.56754C2.87793 3.99335 3.10603 3.44266 3.51205 3.03665C3.91807 2.63063 4.46875 2.40253 5.04295 2.40253H14.7855C15.3597 2.40253 15.9104 2.63063 16.3164 3.03665C16.7224 3.44266 16.9505 3.99335 16.9505 4.56754V5.65005" stroke="#ea4b64" stroke-width="2.16502" stroke-linecap="round" stroke-linejoin="round"/>
</svg>
