<svg width="133" height="83" viewBox="0 0 133 83" fill="none" xmlns="http://www.w3.org/2000/svg">
<g opacity="0.2">
<path d="M147.207 29.1683C149.551 38.5056 151.885 47.8327 154.209 57.1497C155.578 62.9754 155.163 69.0773 153.016 74.6647C143.63 100.815 103.759 122.328 63.9496 122.755C33.588 123.06 11.971 110.976 7.72099 93.6139C5.37686 84.297 3.04299 74.9699 0.719238 65.6326C5.06098 82.995 26.5861 95.0786 56.9477 94.7735C96.696 94.3463 136.628 72.8339 146.015 46.6834C148.159 41.0956 148.574 34.9942 147.207 29.1683Z" fill="url(#paint0_linear_4949_8931)"/>
<g style="mix-blend-mode:overlay" opacity="0.6">
<path d="M57.0377 96.6616C96.7861 96.2344 136.718 74.722 146.105 48.5715C147.526 44.7686 148.2 40.7283 148.092 36.671C147.958 40.0904 147.288 43.4677 146.105 46.6796C136.534 72.7386 96.7861 94.3425 57.0377 94.7697C26.6761 95.0749 5.0591 82.9913 0.809082 65.6288L2.46029 72.2199C9.12578 87.0192 29.5197 96.9362 57.0377 96.6616Z" fill="white"/>
</g>
<path d="M90.9776 0.0567263C130.726 -0.37047 155.431 20.5317 146.014 46.6822C136.596 72.8327 96.787 94.3451 57.0387 94.7722C17.2904 95.1994 -7.41474 74.2973 2.00256 48.1163C11.4199 21.9353 51.1681 0.453409 90.9776 0.0567263Z" fill="url(#paint1_linear_4949_8931)"/>
<g style="mix-blend-mode:overlay" opacity="0.4">
<path d="M23.6206 21.5973L73.4589 93.3968C92.902 90.6173 111.322 82.964 126.997 71.152L78.0758 0.969818C58.4854 3.21007 39.7666 10.3007 23.6206 21.5973Z" fill="white"/>
</g>
<path d="M86.7261 11.7132C116.629 11.4081 135.127 26.9702 128.064 46.7433C121.001 66.5164 91.0677 82.5363 61.1953 82.8414C31.3229 83.1466 12.7942 67.5844 19.8572 47.8418C26.9202 28.0993 56.8537 12.1404 86.7261 11.7132Z" fill="#F28500"/>
<path d="M25.3633 53.3959C32.3956 33.7754 62.3597 17.6029 92.2321 17.2978C106.266 17.2978 117.824 20.5628 125.346 26.2079C118.741 17.3588 104.829 11.6527 86.7286 11.8357C56.8562 12.1409 26.9226 28.3134 19.8597 47.9644C18.0421 52.594 17.8635 57.7043 19.3537 62.449C20.844 67.1937 23.9136 71.2879 28.0539 74.0538C25.8758 71.126 24.485 67.6905 24.014 64.0744C23.543 60.4583 24.0075 56.7821 25.3633 53.3959Z" fill="#D96D00"/>
<g filter="url(#filter0_d_4949_8931)">
<path d="M54.5738 74.609L59.3055 66.0727L50.257 70.0122L49.3434 65.6868L62.7574 59.8454L66.2092 53.6181L57.2407 57.559L56.2471 53.2323L69.6611 47.3908L77.3792 33.4668L62.1016 33.2002L66.9884 24.384L109.542 25.1268L104.655 33.9429L89.2974 33.6749L85.5353 40.4619L95.2576 36.1809L96.2512 40.5077L82.0834 46.6892L78.6316 52.9165L88.2352 48.7041L89.2288 53.0308L75.1798 59.1438L66.492 74.817L54.5738 74.609Z" fill="#FBCA0A"/>
</g>
</g>
<defs>
<filter id="filter0_d_4949_8931" x="39.2961" y="24.384" width="70.2458" height="54.701" filterUnits="userSpaceOnUse" color-interpolation-filters="sRGB">
<feFlood flood-opacity="0" result="BackgroundImageFix"/>
<feColorMatrix in="SourceAlpha" type="matrix" values="0 0 0 0 0 0 0 0 0 0 0 0 0 0 0 0 0 0 127 0" result="hardAlpha"/>
<feOffset dy="4"/>
<feComposite in2="hardAlpha" operator="out"/>
<feColorMatrix type="matrix" values="0 0 0 0 0.720833 0 0 0 0 0.276518 0 0 0 0 0.0330382 0 0 0 1 0"/>
<feBlend mode="normal" in2="BackgroundImageFix" result="effect1_dropShadow_4949_8931"/>
<feBlend mode="normal" in="SourceGraphic" in2="effect1_dropShadow_4949_8931" result="shape"/>
</filter>
<linearGradient id="paint0_linear_4949_8931" x1="0.719238" y1="75.9463" x2="155.034" y2="75.9463" gradientUnits="userSpaceOnUse">
<stop stop-color="#F28500"/>
<stop offset="1" stop-color="#FBA905"/>
</linearGradient>
<linearGradient id="paint1_linear_4949_8931" x1="112.656" y1="60.6576" x2="-58.3114" y2="1.82832" gradientUnits="userSpaceOnUse">
<stop stop-color="#FBCF0A"/>
<stop offset="1" stop-color="#FBA505"/>
</linearGradient>
</defs>
</svg>
