<svg width="133" height="82" viewBox="0 0 133 82" fill="none" xmlns="http://www.w3.org/2000/svg">
<g opacity="0.2">
<path d="M147.207 29.1177C149.551 38.455 151.885 47.7821 154.209 57.0991C155.578 62.9248 155.163 69.0267 153.017 74.6141C143.63 100.765 103.759 122.277 63.9498 122.704C33.5882 123.009 11.9712 110.926 7.72117 93.5633C5.37704 84.2464 3.04317 74.9193 0.719421 65.582C5.06116 82.9445 26.5863 95.028 56.9479 94.7229C96.6962 94.2957 136.628 72.7833 146.015 46.6328C148.159 41.045 148.575 34.9436 147.207 29.1177Z" fill="#4E9224"/>
<g style="mix-blend-mode:overlay" opacity="0.6">
<path d="M57.038 96.6113C96.7863 96.1841 136.718 74.6718 146.105 48.5213C147.526 44.7183 148.201 40.6781 148.092 36.6208C147.958 40.0402 147.288 43.4175 146.105 46.6294C136.535 72.6884 96.7863 94.2923 57.038 94.7195C26.6764 95.0246 5.05934 82.9411 0.809326 65.5786L2.46053 72.1696C9.12602 86.9689 29.5199 96.886 57.038 96.6113Z" fill="white"/>
</g>
<path d="M90.9776 0.00643335C130.726 -0.420763 155.431 20.4814 146.014 46.6319C136.596 72.7824 96.787 94.2948 57.0387 94.7219C17.2904 95.1491 -7.41473 74.247 2.00256 48.066C11.4199 21.885 51.1681 0.403116 90.9776 0.00643335Z" fill="#73D638"/>
<g style="mix-blend-mode:overlay" opacity="0.5">
<path d="M23.6211 21.5468L73.4593 93.3463C92.9025 90.5668 111.322 82.9134 126.997 71.1015L78.0763 0.919312C58.4859 3.15957 39.7671 10.2502 23.6211 21.5468Z" fill="white"/>
</g>
<path d="M86.7263 11.6632C116.629 11.3581 135.127 26.9202 128.064 46.6933C121.002 66.4664 91.068 82.4863 61.1956 82.7914C31.3232 83.0965 12.7945 67.5344 19.8575 47.7918C26.9204 28.0492 56.854 12.0904 86.7263 11.6632Z" fill="#ADFF7B"/>
<path d="M25.3628 53.3461C32.3952 33.7255 62.3593 17.5531 92.2317 17.248C106.266 17.248 117.824 20.513 125.345 26.1581C118.741 17.309 104.829 11.6028 86.7281 11.7859C56.8557 12.0911 26.9222 28.2635 19.8592 47.9146C18.0416 52.5442 17.863 57.6545 19.3533 62.3992C20.8435 67.1438 23.9131 71.2381 28.0534 74.004C25.8753 71.0762 24.4845 67.6407 24.0135 64.0246C23.5425 60.4085 24.007 56.7323 25.3628 53.3461Z" fill="#74BF47"/>
<g filter="url(#filter0_d_4949_9089)">
<path d="M54.5738 74.5588L59.3056 66.0226L50.2571 69.9621L49.3435 65.6367L62.7574 59.7953L66.2093 53.568L57.2408 57.5089L56.2472 53.1821L69.6611 47.3407L77.3793 33.4167L62.1016 33.1501L66.9885 24.3339L109.542 25.0767L104.655 33.8928L89.2975 33.6248L85.5354 40.4118L95.2577 36.1308L96.2513 40.4576L82.0835 46.6391L78.6317 52.8664L88.2352 48.6539L89.2288 52.9807L75.1798 59.0937L66.492 74.7669L54.5738 74.5588Z" fill="#88DA56"/>
</g>
</g>
<defs>
<filter id="filter0_d_4949_9089" x="39.2961" y="24.3339" width="70.2458" height="54.701" filterUnits="userSpaceOnUse" color-interpolation-filters="sRGB">
<feFlood flood-opacity="0" result="BackgroundImageFix"/>
<feColorMatrix in="SourceAlpha" type="matrix" values="0 0 0 0 0 0 0 0 0 0 0 0 0 0 0 0 0 0 127 0" result="hardAlpha"/>
<feOffset dy="4"/>
<feComposite in2="hardAlpha" operator="out"/>
<feColorMatrix type="matrix" values="0 0 0 0 0.161929 0 0 0 0 0.391667 0 0 0 0 0.0212153 0 0 0 1 0"/>
<feBlend mode="normal" in2="BackgroundImageFix" result="effect1_dropShadow_4949_9089"/>
<feBlend mode="normal" in="SourceGraphic" in2="effect1_dropShadow_4949_9089" result="shape"/>
</filter>
</defs>
</svg>
