<svg width="24" height="16" viewBox="0 0 24 16" fill="none" xmlns="http://www.w3.org/2000/svg">
<path d="M22.0863 6.99501C22.3482 7.27064 22.4932 7.62872 22.4932 8.00001C22.4932 8.3713 22.3482 8.72939 22.0863 9.00502C20.4279 10.7 16.6531 14 12.2466 14C7.84006 14 4.06529 10.7 2.40692 9.00502C2.14499 8.72939 2 8.3713 2 8.00001C2 7.62872 2.14499 7.27064 2.40692 6.99501C4.06529 5.3 7.84006 2 12.2466 2C16.6531 2 20.4279 5.3 22.0863 6.99501Z" stroke="#808080" stroke-width="2.68421" stroke-linecap="round" stroke-linejoin="round"/>
<path d="M12.2472 10C13.6619 10 14.8088 9.10457 14.8088 8C14.8088 6.89543 13.6619 6 12.2472 6C10.8324 6 9.68555 6.89543 9.68555 8C9.68555 9.10457 10.8324 10 12.2472 10Z" stroke="#808080" stroke-width="2.68421" stroke-linecap="round" stroke-linejoin="round"/>
</svg>
