<svg width="100" height="100" viewBox="0 0 100 100" fill="none" xmlns="http://www.w3.org/2000/svg">
<g id="icons">
<circle id="Ellipse 330" cx="50" cy="50" r="45" fill="#121212"/>
<path id="user2" d="M50 0C22.5 0 0 22.5 0 50C0 77.5 22.5 100 50 100C77.5 100 100 77.5 100 50C100 22.5 77.5 0 50 0ZM50 16.6667C59.1667 16.6667 66.6667 25.8333 66.6667 37.5C66.6667 49.1667 59.1667 58.3333 50 58.3333C40.8333 58.3333 33.3333 49.1667 33.3333 37.5C33.3333 25.8333 40.8333 16.6667 50 16.6667ZM77.5 81.25C70.4167 87.5 60.4167 91.6667 50 91.6667C39.5833 91.6667 29.5833 87.5 22.5 81.25C20.8333 79.5833 20.4167 77.0833 22.0833 75.4167C26.6667 70 32.9167 66.25 39.5833 64.1667C42.9167 65.8333 46.25 66.6667 50 66.6667C53.75 66.6667 57.0833 65.8333 60.4167 64.1667C67.5 66.25 73.3333 70 77.9167 75.4167C79.5833 77.0833 79.5833 79.5833 77.5 81.25Z" fill="#ea4b64"/>
</g>
</svg>
