<svg width="182" height="173" viewBox="0 0 182 173" fill="none" xmlns="http://www.w3.org/2000/svg">
<ellipse cx="90" cy="84.3396" rx="84" ry="80.1345" fill="#141414"/>
<g clip-path="url(#clip0_2734_4143)">
<path fill-rule="evenodd" clip-rule="evenodd" d="M140.58 49.7435C141.823 49.0591 141.823 47.9495 140.58 47.2651L122.369 37.2348C121.127 36.5505 119.112 36.5505 117.869 37.2348L117.581 37.3938C117.424 37.4573 117.263 37.5338 117.1 37.6236L45.2587 77.1924C43.2708 78.2874 41.659 80.9502 41.659 83.1406V113.059C41.6544 113.139 41.6518 113.222 41.6518 113.307V140.391C41.6518 146.14 45.8828 153.131 51.1015 156.005L65.9019 164.157C71.1207 167.031 75.3517 164.701 75.3517 158.952V131.868C75.3517 129.796 73.9083 127.299 72.0684 126.109L117.1 101.307C119.088 100.212 120.7 97.5489 120.7 95.359V60.6933L140.58 49.7435Z" fill="#B0F127"/>
<mask id="mask0_2734_4143" style="mask-type:luminance" maskUnits="userSpaceOnUse" x="41" y="36" width="101" height="130">
<path fill-rule="evenodd" clip-rule="evenodd" d="M140.58 49.7435C141.823 49.0591 141.823 47.9495 140.58 47.2651L122.369 37.2348C121.127 36.5505 119.112 36.5505 117.869 37.2348L117.581 37.3938C117.424 37.4573 117.263 37.5338 117.1 37.6236L45.2587 77.1924C43.2708 78.2874 41.659 80.9502 41.659 83.1406V113.059C41.6544 113.139 41.6518 113.222 41.6518 113.307V140.391C41.6518 146.14 45.8828 153.131 51.1015 156.005L65.9019 164.157C71.1207 167.031 75.3517 164.701 75.3517 158.952V131.868C75.3517 129.796 73.9083 127.299 72.0684 126.109L117.1 101.307C119.088 100.212 120.7 97.5489 120.7 95.359V60.6933L140.58 49.7435Z" fill="#060606"/>
</mask>
<g mask="url(#mask0_2734_4143)">
<path d="M117.581 37.3934L117.841 37.8226L117.813 37.8379L117.783 37.8498L117.581 37.3934ZM41.659 113.058H42.1786V113.072L42.1781 113.086L41.659 113.058ZM72.0684 126.109L71.7769 126.519L71.0905 126.075L71.8086 125.68L72.0684 126.109ZM120.7 60.6929H120.18V60.4064L120.44 60.2636L120.7 60.6929ZM140.84 46.8354C141.556 47.2297 142.031 47.8158 142.031 48.5038C142.031 49.1918 141.556 49.778 140.84 50.1723L140.32 49.3138C140.847 49.0237 140.992 48.7129 140.992 48.5038C140.992 48.2949 140.847 47.984 140.32 47.6939L140.84 46.8354ZM122.629 36.8052L140.84 46.8354L140.32 47.6939L122.109 37.6637L122.629 36.8052ZM117.61 36.8052C118.328 36.4092 119.238 36.2255 120.119 36.2255C121.001 36.2255 121.91 36.4092 122.629 36.8052L122.109 37.6637C121.586 37.3752 120.866 37.2168 120.119 37.2168C119.372 37.2168 118.653 37.3752 118.129 37.6637L117.61 36.8052ZM117.321 36.9641L117.61 36.8052L118.129 37.6637L117.841 37.8226L117.321 36.9641ZM116.84 37.1939C117.02 37.0946 117.2 37.0088 117.378 36.9369L117.783 37.8498C117.647 37.9049 117.506 37.9721 117.36 38.0524L116.84 37.1939ZM44.9989 76.7627L116.84 37.1939L117.36 38.0524L45.5185 77.6213L44.9989 76.7627ZM41.1394 83.1401C41.1394 81.9376 41.5785 80.6394 42.2633 79.5073C42.9486 78.3757 43.9072 77.364 44.9989 76.7627L45.5185 77.6213C44.6222 78.115 43.7815 78.9819 43.1632 80.003C42.5454 81.0241 42.1786 82.1522 42.1786 83.1401H41.1394ZM41.1394 113.058V83.1401H42.1786V113.058H41.1394ZM42.1781 113.086C42.1739 113.157 42.1713 113.231 42.1713 113.307H41.1321C41.1321 113.213 41.1352 113.121 41.1404 113.03L42.1781 113.086ZM42.1713 113.307V140.391H41.1321V113.307H42.1713ZM42.1713 140.391C42.1713 143.158 43.1928 146.258 44.8695 149.028C46.5462 151.798 48.8496 154.192 51.3612 155.575L50.8417 156.434C48.1346 154.943 45.7133 152.405 43.9696 149.524C42.2259 146.642 41.1321 143.373 41.1321 140.391H42.1713ZM51.3612 155.575L66.1617 163.727L65.6421 164.586L50.8417 156.434L51.3612 155.575ZM66.1617 163.727C68.6765 165.112 70.8312 165.181 72.324 164.359C73.8168 163.536 74.8321 161.722 74.8321 158.952H75.8712C75.8712 161.931 74.7713 164.156 72.8436 165.217C70.9159 166.279 68.346 166.075 65.6421 164.586L66.1617 163.727ZM74.8321 158.952V131.868H75.8712V158.952H74.8321ZM74.8321 131.868C74.8321 130.934 74.5037 129.873 73.9441 128.895C73.3845 127.918 72.615 127.062 71.7769 126.519L72.3599 125.699C73.3616 126.346 74.234 127.333 74.856 128.42C75.4774 129.505 75.8712 130.729 75.8712 131.868H74.8321ZM117.36 101.736L72.3282 126.538L71.8086 125.68L116.84 100.877L117.36 101.736ZM121.219 95.3586C121.219 96.5611 120.78 97.8593 120.095 98.9909C119.41 100.123 118.451 101.135 117.36 101.736L116.84 100.877C117.737 100.383 118.577 99.5163 119.195 98.4952C119.813 97.4741 120.18 96.346 120.18 95.3586H121.219ZM121.219 60.6929V95.3586H120.18V60.6929H121.219ZM140.84 50.1723L120.959 61.1221L120.44 60.2636L140.32 49.3138L140.84 50.1723Z" fill="#060606"/>
</g>
<mask id="mask1_2734_4143" style="mask-type:alpha" maskUnits="userSpaceOnUse" x="41" y="37" width="101" height="128">
<path fill-rule="evenodd" clip-rule="evenodd" d="M140.632 51.4406L120.699 62.4194V95.3606C120.699 97.5505 119.087 100.214 117.099 101.309L72.0671 126.111C73.9065 127.302 75.3499 129.798 75.3499 131.87V158.484C75.3499 164.232 71.1189 166.563 65.9001 163.688L51.0997 155.536C45.8809 152.662 41.6499 145.671 41.6499 139.922V113.309C41.6499 113.218 41.6531 113.13 41.6582 113.044V83.1421C41.6582 80.9522 43.27 78.289 45.258 77.194L117.099 37.6254C118.363 36.9293 119.475 37.0344 120.117 37.7661C120.382 37.845 120.632 37.9462 120.856 38.0696L140.632 48.9621C141.875 49.6465 141.875 50.7561 140.632 51.4406Z" fill="#141414"/>
<mask id="mask2_2734_4143" style="mask-type:luminance" maskUnits="userSpaceOnUse" x="41" y="37" width="101" height="128">
<path fill-rule="evenodd" clip-rule="evenodd" d="M140.632 51.4406L120.699 62.4194V95.3606C120.699 97.5505 119.087 100.214 117.099 101.309L72.0671 126.111C73.9065 127.302 75.3499 129.798 75.3499 131.87V158.484C75.3499 164.232 71.1189 166.563 65.9001 163.688L51.0997 155.536C45.8809 152.662 41.6499 145.671 41.6499 139.922V113.309C41.6499 113.218 41.6531 113.13 41.6582 113.044V83.1421C41.6582 80.9522 43.27 78.289 45.258 77.194L117.099 37.6254C118.363 36.9293 119.475 37.0344 120.117 37.7661C120.382 37.845 120.632 37.9462 120.856 38.0696L140.632 48.9621C141.875 49.6465 141.875 50.7561 140.632 51.4406Z" fill="#060606"/>
</mask>
<g mask="url(#mask2_2734_4143)">
<path d="M120.699 62.4194H120.179V62.1329L120.439 61.9901L120.699 62.4194ZM72.0671 126.111L71.7756 126.522L71.0892 126.078L71.8073 125.682L72.0671 126.111ZM41.6582 113.044H42.1778V113.059L42.1767 113.074L41.6582 113.044ZM120.117 37.7661L119.962 38.2393L119.817 38.196L119.719 38.0843L120.117 37.7661ZM120.439 61.9901L140.372 51.0114L140.892 51.8699L120.959 62.8486L120.439 61.9901ZM120.179 95.3606V62.4194H121.218V95.3606H120.179ZM116.839 100.879C117.736 100.386 118.577 99.5183 119.195 98.4977C119.812 97.4766 120.179 96.348 120.179 95.3606H121.218C121.218 96.5631 120.779 97.8613 120.095 98.9934C119.41 100.125 118.451 101.137 117.359 101.738L116.839 100.879ZM71.8073 125.682L116.839 100.879L117.359 101.738L72.3269 126.541L71.8073 125.682ZM74.8302 131.87C74.8302 130.936 74.5018 129.876 73.9423 128.898C73.3827 127.92 72.6137 127.064 71.7756 126.522L72.3586 125.701C73.3598 126.349 74.2322 127.336 74.8541 128.422C75.4756 129.508 75.8694 130.731 75.8694 131.87H74.8302ZM74.8302 158.484V131.87H75.8694V158.484H74.8302ZM66.1599 163.259C68.6747 164.644 70.8294 164.712 72.3222 163.89C73.815 163.068 74.8302 161.254 74.8302 158.484H75.8694C75.8694 161.462 74.7694 163.687 72.8418 164.749C70.9141 165.811 68.3442 165.607 65.6403 164.117L66.1599 163.259ZM51.3594 155.107L66.1599 163.259L65.6403 164.117L50.8398 155.966L51.3594 155.107ZM42.1695 139.922C42.1695 142.689 43.1915 145.789 44.8677 148.56C46.5444 151.329 48.8477 153.724 51.3594 155.107L50.8398 155.966C48.1328 154.475 45.7115 151.936 43.9678 149.055C42.224 146.174 41.1303 142.904 41.1303 139.922H42.1695ZM42.1695 113.309V139.922H41.1303V113.309H42.1695ZM42.1767 113.074C42.1721 113.149 42.1695 113.228 42.1695 113.309H41.1303C41.1303 113.208 41.1334 113.11 41.1396 113.014L42.1767 113.074ZM42.1778 83.1421V113.044H41.1386V83.1421H42.1778ZM45.5177 77.6233C44.6214 78.117 43.7807 78.9844 43.1624 80.0055C42.5446 81.0266 42.1778 82.1548 42.1778 83.1421H41.1386C41.1386 81.9396 41.5777 80.6415 42.2625 79.5098C42.9478 78.3777 43.9064 77.366 44.9981 76.7648L45.5177 77.6233ZM117.359 38.0547L45.5177 77.6233L44.9981 76.7648L116.839 37.1961L117.359 38.0547ZM119.719 38.0843C119.299 37.6067 118.498 37.4271 117.359 38.0547L116.839 37.1961C118.228 36.4314 119.65 36.4622 120.515 37.4479L119.719 38.0843ZM120.596 38.4989C120.409 38.3961 120.196 38.3088 119.962 38.2393L120.272 37.2929C120.569 37.3812 120.854 37.4963 121.115 37.6404L120.596 38.4989ZM140.372 49.3913L120.596 38.4989L121.115 37.6404L140.892 48.5328L140.372 49.3913ZM140.372 51.0114C140.899 50.7209 141.044 50.4102 141.044 50.2013C141.044 49.9923 140.899 49.6814 140.372 49.3913L140.892 48.5328C141.608 48.9271 142.083 49.5133 142.083 50.2013C142.083 50.8894 141.608 51.4753 140.892 51.8699L140.372 51.0114Z" fill="#060606"/>
</g>
</mask>
<g mask="url(#mask1_2734_4143)">
<path d="M75.3484 101.463C75.3484 99.2724 73.7366 96.6097 71.7487 95.5147L38.1392 77.0032C36.1512 75.9082 34.5395 76.796 34.5395 78.9859V140.459C34.5395 146.208 38.7705 153.198 43.9892 156.073L65.8992 168.14C71.1179 171.015 75.3484 168.685 75.3484 162.936V101.463Z" fill="#141414"/>
</g>
<mask id="mask3_2734_4143" style="mask-type:luminance" maskUnits="userSpaceOnUse" x="41" y="36" width="101" height="130">
<path fill-rule="evenodd" clip-rule="evenodd" d="M140.58 49.7435C141.823 49.0591 141.823 47.9495 140.58 47.2651L122.369 37.2348C121.127 36.5505 119.112 36.5505 117.869 37.2348L117.581 37.3938C117.424 37.4573 117.263 37.5338 117.1 37.6236L45.2587 77.1924C43.2708 78.2874 41.659 80.9502 41.659 83.1406V113.059C41.6544 113.139 41.6518 113.222 41.6518 113.307V140.391C41.6518 146.14 45.8828 153.131 51.1015 156.005L65.9019 164.157C71.1207 167.031 75.3517 164.701 75.3517 158.952V131.868C75.3517 129.796 73.9083 127.299 72.0684 126.109L117.1 101.307C119.088 100.212 120.7 97.5489 120.7 95.359V60.6933L140.58 49.7435Z" fill="#060606"/>
</mask>
<g mask="url(#mask3_2734_4143)">
<path d="M117.581 37.3934L117.841 37.8226L117.813 37.8379L117.783 37.8498L117.581 37.3934ZM41.659 113.058H42.1786V113.072L42.1781 113.086L41.659 113.058ZM72.0684 126.109L71.7769 126.519L71.0905 126.075L71.8086 125.68L72.0684 126.109ZM120.7 60.6929H120.18V60.4064L120.44 60.2636L120.7 60.6929ZM140.84 46.8354C141.556 47.2297 142.031 47.8158 142.031 48.5038C142.031 49.1918 141.556 49.778 140.84 50.1723L140.32 49.3138C140.847 49.0237 140.992 48.7129 140.992 48.5038C140.992 48.2949 140.847 47.984 140.32 47.6939L140.84 46.8354ZM122.629 36.8052L140.84 46.8354L140.32 47.6939L122.109 37.6637L122.629 36.8052ZM117.61 36.8052C118.328 36.4092 119.238 36.2255 120.119 36.2255C121.001 36.2255 121.91 36.4092 122.629 36.8052L122.109 37.6637C121.586 37.3752 120.866 37.2168 120.119 37.2168C119.372 37.2168 118.653 37.3752 118.129 37.6637L117.61 36.8052ZM117.321 36.9641L117.61 36.8052L118.129 37.6637L117.841 37.8226L117.321 36.9641ZM116.84 37.1939C117.02 37.0946 117.2 37.0088 117.378 36.9369L117.783 37.8498C117.647 37.9049 117.506 37.9721 117.36 38.0524L116.84 37.1939ZM44.9989 76.7627L116.84 37.1939L117.36 38.0524L45.5185 77.6213L44.9989 76.7627ZM41.1394 83.1401C41.1394 81.9376 41.5785 80.6394 42.2633 79.5073C42.9486 78.3757 43.9072 77.364 44.9989 76.7627L45.5185 77.6213C44.6222 78.115 43.7815 78.9819 43.1632 80.003C42.5454 81.0241 42.1786 82.1522 42.1786 83.1401H41.1394ZM41.1394 113.058V83.1401H42.1786V113.058H41.1394ZM42.1781 113.086C42.1739 113.157 42.1713 113.231 42.1713 113.307H41.1321C41.1321 113.213 41.1352 113.121 41.1404 113.03L42.1781 113.086ZM42.1713 113.307V140.391H41.1321V113.307H42.1713ZM42.1713 140.391C42.1713 143.158 43.1928 146.258 44.8695 149.028C46.5462 151.798 48.8496 154.192 51.3612 155.575L50.8417 156.434C48.1346 154.943 45.7133 152.405 43.9696 149.524C42.2259 146.642 41.1321 143.373 41.1321 140.391H42.1713ZM51.3612 155.575L66.1617 163.727L65.6421 164.586L50.8417 156.434L51.3612 155.575ZM66.1617 163.727C68.6765 165.112 70.8312 165.181 72.324 164.359C73.8168 163.536 74.8321 161.722 74.8321 158.952H75.8712C75.8712 161.931 74.7713 164.156 72.8436 165.217C70.9159 166.279 68.346 166.075 65.6421 164.586L66.1617 163.727ZM74.8321 158.952V131.868H75.8712V158.952H74.8321ZM74.8321 131.868C74.8321 130.934 74.5037 129.873 73.9441 128.895C73.3845 127.918 72.615 127.062 71.7769 126.519L72.3599 125.699C73.3616 126.346 74.234 127.333 74.856 128.42C75.4774 129.505 75.8712 130.729 75.8712 131.868H74.8321ZM117.36 101.736L72.3282 126.538L71.8086 125.68L116.84 100.877L117.36 101.736ZM121.219 95.3586C121.219 96.5611 120.78 97.8593 120.095 98.9909C119.41 100.123 118.451 101.135 117.36 101.736L116.84 100.877C117.737 100.383 118.577 99.5163 119.195 98.4952C119.813 97.4741 120.18 96.346 120.18 95.3586H121.219ZM121.219 60.6929V95.3586H120.18V60.6929H121.219ZM140.84 50.1723L120.959 61.1221L120.44 60.2636L140.32 49.3138L140.84 50.1723Z" fill="#060606"/>
</g>
<path d="M138.481 48.0384L64.6172 88.7208C62.7534 89.7479 61.2425 92.2441 61.2425 94.2972V152.696C61.2425 163.51 69.2 167.893 79.0165 162.486L131.281 133.7C137.121 130.483 141.855 122.66 141.855 116.227L141.855 49.8971C141.855 47.844 140.345 47.0118 138.481 48.0384Z" fill="#F4F4F4" stroke="#060606"/>
<mask id="mask4_2734_4143" style="mask-type:alpha" maskUnits="userSpaceOnUse" x="60" y="47" width="83" height="119">
<path d="M138.481 48.0364L64.6172 88.7193C62.7534 89.7459 61.2425 92.2421 61.2425 94.2957V152.694C61.2425 163.508 69.2 167.891 79.0165 162.484L131.281 133.698C137.121 130.481 141.855 122.658 141.855 116.225L141.855 49.8952C141.855 47.842 140.345 47.0098 138.481 48.0364Z" fill="#B0F127" stroke="#060606"/>
</mask>
<g mask="url(#mask4_2734_4143)">
<path d="M41.65 101.122L152.944 39.8232L152.944 71.86L41.65 133.159L41.65 101.122Z" fill="white"/>
</g>
<path d="M138.481 48.0384L64.6172 88.7208C62.7534 89.7479 61.2425 92.2441 61.2425 94.2972V152.696C61.2425 163.51 69.2 167.893 79.0165 162.486L131.281 133.7C137.121 130.483 141.855 122.66 141.855 116.227L141.855 49.8971C141.855 47.844 140.345 47.0118 138.481 48.0384Z" stroke="#060606"/>
<path d="M104.482 131.764C93.1831 137.987 84.0231 132.942 84.0231 120.495C84.0231 108.048 93.1831 92.9124 104.482 86.6888C115.782 80.4653 124.942 85.5105 124.942 97.9575C124.942 110.405 115.782 125.54 104.482 131.764Z" fill="#939393" stroke="#060606"/>
<mask id="mask5_2734_4143" style="mask-type:alpha" maskUnits="userSpaceOnUse" x="83" y="83" width="43" height="52">
<path d="M104.482 131.764C93.1831 137.987 84.0231 132.942 84.0231 120.495C84.0231 108.048 93.1831 92.9124 104.482 86.6888C115.782 80.4653 124.942 85.5105 124.942 97.9575C124.942 110.405 115.782 125.54 104.482 131.764Z" fill="#939393" stroke="#060606"/>
</mask>
<g mask="url(#mask5_2734_4143)">
<path d="M40.0702 102.039L151.365 40.7402L151.365 72.8528L40.0702 134.152L40.0702 102.039Z" fill="#E7E7E7"/>
</g>
<path d="M104.482 131.764C93.1831 137.987 84.0231 132.942 84.0231 120.495C84.0231 108.048 93.1831 92.9124 104.482 86.6888C115.782 80.4653 124.942 85.5105 124.942 97.9575C124.942 110.405 115.782 125.54 104.482 131.764Z" stroke="#060606"/>
<path d="M104.482 126.93C95.6073 131.818 88.4127 127.855 88.4127 118.079C88.4127 108.303 95.6073 96.4148 104.482 91.5266C113.357 86.6384 120.552 90.6011 120.552 100.377C120.552 110.154 113.357 122.042 104.482 126.93Z" fill="#060606" stroke="#060606"/>
<path d="M103.302 126.281C95.0783 130.811 88.4117 127.139 88.4117 118.08C88.4117 109.021 95.0783 98.0052 103.302 93.4757C111.526 88.9463 118.192 92.6181 118.192 101.677C118.192 110.736 111.526 121.752 103.302 126.281Z" fill="white" stroke="#060606"/>
<path d="M102.249 105.887C102.249 104.528 103.249 102.876 104.482 102.197C105.715 101.518 106.715 102.068 106.715 103.427L106.715 113.866C106.715 115.225 105.715 116.877 104.482 117.556C103.249 118.236 102.249 117.685 102.249 116.326L102.249 105.887Z" fill="#060606" stroke="#060606"/>
<path d="M124.932 23.2727L124.827 48.9277C124.827 49.818 124.211 50.7084 122.98 51.3831C121.604 52.0448 120.082 52.3848 118.541 52.3749C116.999 52.3655 115.482 52.0066 114.115 51.3275C112.884 50.642 112.28 49.7406 112.286 48.8502L112.384 23.2063C112.384 18.7323 111.083 15.4307 108.765 14.1477C106.448 12.8647 102.776 13.3956 98.6984 15.6188L91.7626 19.396C80.8998 25.3189 71.687 40.3834 71.6402 52.2956L71.5415 77.9504C71.5415 78.8411 70.9201 79.7313 69.6886 80.4059C67.9028 81.2878 65.8692 81.6095 63.8797 81.3239C62.7974 81.205 61.7504 80.8818 60.8011 80.3727C60.494 80.2062 60.2077 80.0079 59.9469 79.7809C59.6533 79.5504 59.4143 79.2634 59.246 78.9382C59.0776 78.6131 58.9841 78.2577 58.9711 77.8953L59.0698 52.2515C59.1046 44.4592 61.8465 35.6992 66.8075 27.5974C71.768 19.4955 78.4255 12.8979 85.5179 9.02668L92.448 5.24399C95.9926 3.22817 99.9583 1.9766 104.066 1.57741C107.899 1.22553 111.753 2.00765 115.103 3.81717C118.405 5.69519 121.018 8.4975 122.585 11.8416C124.239 15.4418 125.04 19.3445 124.932 23.2727Z" fill="#060606" stroke="#060606" stroke-linecap="round" stroke-linejoin="round"/>
</g>
<defs>
<clipPath id="clip0_2734_4143">
<rect width="100.8" height="172" fill="white" transform="matrix(-1 0 0 1 142.08 1)"/>
</clipPath>
</defs>
</svg>
