<svg width="288" height="223" viewBox="0 0 288 223" fill="none" xmlns="http://www.w3.org/2000/svg">
<path d="M282 31.1122C284.762 22.3529 280.293 13.1403 272.018 10.5354C263.743 7.93047 254.796 12.9196 252.034 21.6789C249.272 30.4382 253.741 39.6508 262.016 42.2557C270.291 44.8606 279.238 39.8715 282 31.1122Z" fill="#383838" stroke="black" stroke-width="1.25198" stroke-miterlimit="10"/>
<path d="M277.395 29.3414C280.088 20.8004 276.304 11.9983 268.944 9.6814C261.584 7.36447 253.435 12.4101 250.742 20.9511C248.048 29.4921 251.832 38.2943 259.192 40.6112C266.552 42.9281 274.702 37.8825 277.395 29.3414Z" fill="white" stroke="black" stroke-width="1.25198" stroke-miterlimit="10"/>
<path d="M267.809 28.0117L261.847 30.3945L257.803 24.6445L260.499 36.0668L267.809 28.0117Z" fill="#060606"/>
<path d="M262.133 29.0997L268.095 26.6909L265.788 13.5332L258.115 23.3237L262.133 29.0997Z" fill="#060606"/>
<path d="M234.939 10.2705C234.908 10.2705 234.908 10.2705 234.877 10.2705L230.569 8.24109C230.507 8.21034 230.477 8.14884 230.477 8.08735V2.58343C230.477 2.52193 230.507 2.49119 230.538 2.46044C230.569 2.42969 230.6 2.42969 230.63 2.42969C230.661 2.42969 230.661 2.42969 230.692 2.42969L235 4.52056C235.062 4.55131 235.093 4.61281 235.093 4.6743V10.1167C235.093 10.1782 235.062 10.209 235.031 10.2397C235 10.2397 234.969 10.2705 234.939 10.2705Z" fill="white"/>
<path d="M230.632 2.58385L234.94 4.67472V10.1171L230.632 8.08777V2.58385ZM230.632 2.27637C230.57 2.27637 230.509 2.30712 230.478 2.33786C230.386 2.39936 230.324 2.4916 230.324 2.58385V8.08777C230.324 8.21076 230.386 8.30301 230.509 8.3645L234.817 10.3939C234.848 10.4246 234.909 10.4246 234.94 10.4246C235.002 10.4246 235.063 10.3939 235.094 10.3631C235.186 10.3016 235.248 10.2094 235.248 10.1171V4.67472C235.248 4.55173 235.186 4.45949 235.063 4.39799L230.755 2.30712C230.724 2.27637 230.693 2.27637 230.632 2.27637Z" fill="#060606"/>
<path d="M234.941 10.2694C234.91 10.2694 234.879 10.2694 234.849 10.2387C234.818 10.2079 234.787 10.1464 234.787 10.1157V4.67327C234.787 4.61177 234.818 4.55028 234.879 4.55028L239.095 2.33641C239.126 2.33641 239.157 2.30566 239.157 2.30566C239.188 2.30566 239.218 2.30566 239.249 2.33641C239.28 2.36716 239.311 2.42866 239.311 2.4594V8.05557C239.311 8.11706 239.28 8.17856 239.218 8.17856L235.003 10.2694C235.003 10.2694 234.972 10.2694 234.941 10.2694Z" fill="black"/>
<path d="M239.157 2.42858V8.02474L234.941 10.1156V4.67319L239.157 2.42858ZM239.157 2.12109C239.095 2.12109 239.064 2.1211 239.003 2.15184L234.787 4.36571C234.694 4.42721 234.633 4.51945 234.633 4.64244V10.0849C234.633 10.1771 234.694 10.3001 234.787 10.3309C234.848 10.3616 234.879 10.3923 234.941 10.3923C235.002 10.3923 235.033 10.3923 235.064 10.3616L239.28 8.27073C239.372 8.20923 239.464 8.11699 239.464 7.99399V2.42858C239.464 2.30558 239.403 2.21334 239.31 2.15184C239.28 2.15184 239.218 2.12109 239.157 2.12109Z" fill="#060606"/>
<path d="M234.939 4.82883C234.908 4.82883 234.908 4.82883 234.877 4.82883L230.569 2.73759C230.507 2.70684 230.477 2.64533 230.477 2.61458C230.477 2.55307 230.507 2.49157 230.569 2.46081L234.877 0.18505C234.908 0.18505 234.939 0.154297 234.939 0.154297C234.969 0.154297 235 0.154296 235 0.18505L239.216 2.30704C239.278 2.3378 239.309 2.3993 239.309 2.43006C239.309 2.46081 239.278 2.55307 239.216 2.55307L235 4.76733C235 4.79808 234.969 4.82883 234.939 4.82883Z" fill="#B0F127"/>
<path d="M234.94 0.307482L239.156 2.4291L234.94 4.64297L230.632 2.5521L234.94 0.307482ZM234.94 0C234.879 0 234.848 -4.69638e-07 234.786 0.0307477L230.478 2.30611C230.386 2.36761 230.324 2.45985 230.324 2.58284C230.324 2.70584 230.386 2.79808 230.509 2.85958L234.817 4.95045C234.848 4.9812 234.909 4.9812 234.94 4.9812C235.002 4.9812 235.033 4.9812 235.094 4.95045L239.31 2.73658C239.402 2.67509 239.464 2.58285 239.464 2.45985C239.464 2.33686 239.402 2.24462 239.31 2.18312L235.094 0.0614954C235.033 0.0307472 235.002 0 234.94 0Z" fill="#060606"/>
<path d="M251.055 112.179L251.036 112.189L251.018 112.201L248.394 113.993L246.35 112.534C246.25 112.447 246.126 112.411 246.005 112.425C245.885 112.438 245.785 112.497 245.715 112.567C245.645 112.637 245.586 112.737 245.573 112.857C245.558 112.986 245.599 113.117 245.697 113.219L247.518 115.212L245.961 117.156C245.869 117.257 245.831 117.384 245.845 117.509C245.859 117.629 245.918 117.729 245.988 117.799C246.057 117.869 246.157 117.928 246.278 117.941C246.403 117.955 246.533 117.916 246.634 117.822L248.491 116.262L250.849 118.275C250.919 118.34 251.021 118.394 251.146 118.385C251.273 118.376 251.364 118.308 251.418 118.243C251.516 118.126 251.56 117.937 251.475 117.767L251.464 117.745L251.45 117.725L249.715 115.299L251.583 112.782L251.599 112.76L251.611 112.736C251.792 112.375 251.414 112 251.055 112.179Z" fill="#F5F5F5" stroke="black" stroke-width="0.62599" stroke-miterlimit="10"/>
<path d="M34.6641 101.146C37.6715 95.4709 38.0971 87.2278 35.2067 79.0336C32.9214 72.568 29.0444 67.3486 24.5862 64.197L22.6797 57.2109C21.8791 57.5124 21.0785 57.8138 20.2457 58.1157C17.8118 59.0204 15.3778 59.9251 12.9439 60.8298C12.4633 60.9978 11.9833 61.1979 11.4705 61.3664C10.9261 61.5675 10.4133 61.7359 9.90203 62.0009C9.19851 62.333 8.52813 62.7291 7.92309 63.1884C6.64909 64.1404 5.57159 65.3146 4.68964 66.6468C3.74472 68.0765 3.02707 69.6315 2.50353 71.248C1.91799 73.0263 1.59142 74.8973 1.42536 76.7338C1.26214 78.7632 1.32477 80.8215 1.54789 82.8452C1.80559 85.0293 2.28817 87.1779 2.96296 89.2594C3.0643 89.5796 3.16564 89.8999 3.29917 90.2196C7.70258 102.735 18.154 110.496 26.8421 107.89C29.0223 107.246 31.069 106.283 33.1824 105.479C33.983 105.178 34.7836 104.877 35.5842 104.575C35.5837 104.543 34.6641 101.146 34.6641 101.146Z" fill="#383838" stroke="black" stroke-width="1.25198" stroke-miterlimit="10" stroke-linecap="round" stroke-linejoin="round"/>
<path d="M33.8211 105.02C25.547 105.142 17.095 97.5773 13.23 86.6305C8.69213 73.731 12.2985 60.6467 21.2683 57.4896C22.5177 57.0529 23.8344 56.8082 25.1866 56.7882C33.4606 56.6659 41.9126 64.2309 45.7776 75.1776C47.963 81.4195 48.3483 87.881 46.8511 93.3408C45.3549 98.8649 42.0959 102.774 37.7388 104.286C36.4904 104.787 35.1732 105 33.8211 105.02Z" fill="white"/>
<path d="M25.1912 57.1417C33.1111 57.0246 41.592 64.3639 45.457 75.3107C49.9608 88.082 46.4476 100.94 37.6379 104.03C36.3884 104.467 35.1035 104.679 33.8157 104.698C25.8958 104.815 17.4149 97.4757 13.5499 86.5289C9.04616 73.7575 12.5593 60.8998 21.3691 57.8095C22.6185 57.3727 23.9034 57.1607 25.1912 57.1417ZM25.1817 56.4983C23.7973 56.5188 22.4485 56.7639 21.1669 57.2011C16.7142 58.7792 13.3913 62.7215 11.8647 68.3748C10.3368 73.9315 10.7231 80.4573 12.9411 86.7309C14.857 92.1724 17.8884 96.8252 21.7387 100.243C25.5236 103.598 29.8009 105.401 33.8252 105.341C35.2096 105.321 36.5584 105.076 37.84 104.638C42.2927 103.06 45.6157 99.118 47.1422 93.4648C48.6701 87.908 48.2839 81.3822 46.0658 75.1086C44.1499 69.6671 41.1186 65.0144 37.2683 61.5964C33.5155 58.2413 29.206 56.4388 25.1817 56.4983Z" fill="black"/>
<path d="M36.133 71.9412C35.3512 69.1535 33.3849 69.0217 31.0461 69.8285L30.2462 65.8184L28.4874 66.6488L29.2859 70.5624C28.838 70.762 28.3589 71.0265 27.9115 71.2583L27.113 67.3448L25.3542 68.1752L26.1541 72.1852C25.7702 72.3518 25.3867 72.5505 25.0676 72.7483L25.0671 72.7161L22.6365 73.846L23.1579 76.4445C23.1579 76.4445 24.4362 75.7821 24.4372 75.8464C25.1729 75.5138 25.502 75.9916 25.6374 76.44L26.542 80.9955C26.5737 80.9629 26.6703 80.9614 26.7342 80.9283C26.6703 80.9614 26.6064 80.9946 26.542 80.9955L27.8278 87.3794C27.8647 87.7006 27.8406 88.2479 27.3288 88.4807C27.3615 88.5124 26.0496 89.0788 26.0496 89.0788L26.2884 92.1641L28.559 91.1009C28.9747 90.9017 29.3904 90.7025 29.8065 90.5355L30.5747 94.5782L32.3335 93.7478L31.5336 89.7377C32.0132 89.5054 32.4933 89.3053 32.9407 89.0734L33.7401 93.0514L35.4989 92.221L34.6985 88.1787C37.605 86.5592 39.475 84.5367 38.9336 80.5871C38.5323 77.4077 37.1986 76.4943 35.399 76.7462C36.3151 75.5421 36.7103 73.9597 36.133 71.9412ZM35.4088 81.7654C36.033 84.7806 32.2218 86.1883 31.0392 86.7849L29.9934 81.395C31.1444 80.831 34.7822 78.5893 35.4088 81.7654ZM33.0804 74.5603C33.6364 77.3192 30.4648 78.4279 29.4417 78.9256L28.4685 74.0815C29.4916 73.5838 32.4903 71.6733 33.0804 74.5603Z" fill="#060606"/>
<path d="M60.7072 61.1338C61.6577 61.1338 62.4286 60.3637 62.4286 59.4133C62.4286 58.463 61.6577 57.6929 60.7072 57.6929C59.7567 57.6929 58.9858 58.463 58.9858 59.4133C58.9858 60.3637 59.7567 61.1338 60.7072 61.1338Z" fill="#F5F5F5" stroke="black" stroke-width="0.62599" stroke-miterlimit="10"/>
<path d="M52.0534 50.5863L55.1371 50.3295C55.2722 50.3233 55.3737 50.2477 55.4307 50.1623C55.484 50.0824 55.5004 49.9953 55.5004 49.9261C55.5004 49.857 55.484 49.7699 55.4307 49.69C55.3761 49.6081 55.2806 49.5353 55.1539 49.5239L52.2256 49.0506L51.7508 45.9889C51.7398 45.8613 51.6665 45.7654 51.5844 45.7106C51.5045 45.6574 51.4175 45.6411 51.3484 45.6411C51.2793 45.6411 51.1923 45.6574 51.1124 45.7106C51.0314 45.7646 50.959 45.8586 50.9465 45.9834L50.3909 49.0576L47.9081 49.4781C47.7899 49.4861 47.6806 49.5376 47.6021 49.6284C47.5218 49.7212 47.4917 49.8336 47.4917 49.9318C47.4917 50.125 47.6127 50.3483 47.8651 50.4114L47.8951 50.4188L47.9259 50.4203L50.5995 50.5496L50.8996 52.9908C50.9051 53.118 50.9563 53.2418 51.0615 53.3294C51.1659 53.4163 51.2907 53.4403 51.3934 53.433C51.574 53.4201 51.8334 53.2813 51.8428 52.9843L52.0534 50.5863Z" fill="#F5F5F5" stroke="black" stroke-width="0.62599" stroke-miterlimit="10"/>
<path d="M74.1406 81.9229V110.599L144.262 146.605V117.857L74.1406 81.9229Z" fill="#B0F127" stroke="#17191A" stroke-width="1.11111" stroke-miterlimit="10"/>
<path d="M78.5234 117.857V165.722L144.262 201.369V151.995L78.5234 117.857Z" fill="#B0F127" stroke="#17191A" stroke-width="1.11111" stroke-miterlimit="10"/>
<path d="M78.5234 113.689V119.008L144.262 151.996V146.605L78.5234 113.689Z" fill="#17191A" stroke="#17191A" stroke-width="1.11111" stroke-miterlimit="10"/>
<path d="M210 117.857V165.722L144.262 201.369V151.995L210 117.857Z" fill="#B0F127" stroke="#17191A" stroke-width="1.11111" stroke-miterlimit="10"/>
<path d="M210 113.689V119.008L144.262 151.996V146.605L210 113.689Z" fill="#17191A" stroke="#17191A" stroke-width="1.11111" stroke-miterlimit="10"/>
<path d="M214.311 81.9229V110.599L144.262 146.605V117.857L214.311 81.9229Z" fill="#B0F127" stroke="#17191A" stroke-width="1.11111" stroke-miterlimit="10"/>
<path d="M74.1406 81.9227L144.262 46.4912L214.311 81.9227L144.262 117.857L74.1406 81.9227Z" fill="#B0F127" stroke="#17191A" stroke-width="1.11111" stroke-miterlimit="10"/>
<path d="M103.956 97.5186L103.166 125.548L114.446 130.794V102.765L103.956 97.5186Z" fill="white" stroke="#17191A" stroke-width="1.11111" stroke-miterlimit="10"/>
<path d="M105.681 133.094L104.891 179.665L116.17 186.133V138.34L105.681 133.094Z" fill="white" stroke="#17191A" stroke-width="1.11111" stroke-miterlimit="10"/>
<path d="M185.07 97.2305L185.789 125.547L174.509 130.793L174.365 102.549L185.07 97.2305Z" fill="white" stroke="#17191A" stroke-width="1.11111" stroke-miterlimit="10"/>
<path d="M183.275 133.094L184.065 179.665L172.785 186.133V138.34L183.275 133.094Z" fill="white" stroke="#17191A" stroke-width="1.11111" stroke-miterlimit="10"/>
<path d="M104.676 97.8058L172.857 61.0088L184.28 66.7583L114.662 103.052L104.676 97.8058Z" fill="white" stroke="#17191A" stroke-width="1.11111" stroke-miterlimit="10"/>
<path d="M184.854 97.0162L116.386 60.6504L104.891 66.3999L174.365 102.55L184.854 97.0162Z" fill="white" stroke="#17191A" stroke-width="1.11111" stroke-miterlimit="10"/>
<path d="M141.962 70.2792C141.962 70.2792 127.665 59.5707 120.049 60.0019C112.362 60.505 103.956 75.3101 107.117 84.5093C110.278 93.7085 123.354 97.3739 123.354 97.3739C119.331 94.571 117.175 88.9652 116.888 85.8748C116.385 80.0534 119.905 70.2073 124.216 68.9137C133.987 65.9671 135.496 71.8603 135.496 71.8603L141.962 70.2792Z" fill="white" stroke="#17191A" stroke-width="1.11111" stroke-miterlimit="10" stroke-linejoin="round"/>
<path d="M166.676 39.2324C166.676 39.2324 175.728 41.9634 181.332 48.5035C186.433 54.3968 180.614 67.4051 175.153 71.2142C168.687 75.7419 160.641 78.7604 153.6 82.3539C143.829 87.3847 134.202 92.5593 124.431 97.5901C124.215 97.7339 123.712 97.2308 123.497 97.3027C123.497 97.3027 120.12 94.356 118.252 89.1096L130.897 84.0787C133.124 82.857 135.351 81.4915 137.65 80.2697C138.584 79.7666 139.087 79.0479 138.872 77.9699C138.584 76.3888 137.578 75.0232 136.644 73.7296C135.639 72.2922 134.633 70.4955 133.052 68.9862C132.19 68.1957 127.448 62.2305 127.448 62.2305C127.448 62.2305 132.98 64.6741 132.765 64.3147C135.279 65.7521 136.644 67.1895 138.584 67.9801C143.039 69.9205 148.068 70.4236 152.881 69.9205C154.678 69.7768 156.474 69.4174 158.198 69.0581C163.443 67.8363 167.538 62.4461 169.549 57.1997C172.064 50.8033 168.903 45.2694 166.676 39.2324Z" fill="black" stroke="#17191A" stroke-width="1.11111" stroke-miterlimit="10"/>
<path d="M149.649 81.7069C149.649 81.7069 162.365 48.8628 175.298 43.4007C175.298 43.4007 169.909 39.376 163.73 38.4417C154.031 37.0044 142.033 70.2798 142.033 70.2798L149.649 81.7069Z" fill="white" stroke="#17191A" stroke-width="1.11111" stroke-miterlimit="10"/>
<path d="M177.346 126.058L170.111 140.84L197.173 177.094L204.426 162.275L177.346 126.058Z" fill="white" stroke="#17191A" stroke-miterlimit="10"/>
<path d="M170.539 145.687L158.463 170.36L183.357 205.323L195.814 179.871L170.539 145.687Z" fill="white" stroke="#17191A" stroke-miterlimit="10"/>
<path d="M171.59 143.538L170.248 146.28L195.813 179.872L197.173 177.093L171.59 143.538Z" fill="#17191A" stroke="#17191A" stroke-miterlimit="10"/>
<path d="M238.313 178.862L226.237 203.535L183.356 205.324L195.813 179.872L238.313 178.862Z" fill="white" stroke="#17191A" stroke-miterlimit="10"/>
<path d="M239.364 176.713L238.022 179.455L195.812 179.873L197.172 177.094L239.364 176.713Z" fill="#17191A" stroke="#17191A" stroke-miterlimit="10"/>
<path d="M249.6 161.425L242.365 176.207L197.171 177.093L204.424 162.274L249.6 161.425Z" fill="white" stroke="#17191A" stroke-miterlimit="10"/>
<path d="M177.344 126.058L222.43 125.486L249.6 161.425L204.425 162.275L177.344 126.058Z" fill="white" stroke="#17191A" stroke-miterlimit="10"/>
<path d="M188.78 141.62L181.301 155.87L185.792 161.42L192.864 146.971L188.78 141.62Z" fill="#B0F127" stroke="#17191A" stroke-miterlimit="10"/>
<path d="M180.695 160.394L168.537 184.201L172.72 190.382L184.778 165.745L180.695 160.394Z" fill="#B0F127" stroke="#17191A" stroke-miterlimit="10"/>
<path d="M230.665 161.938L223.891 176.717L216.753 176.575L223.805 161.979L230.665 161.938Z" fill="#B0F127" stroke="#17191A" stroke-miterlimit="10"/>
<path d="M220.69 179.972L209.348 204.178L201.902 204.667L213.96 180.03L220.69 179.972Z" fill="#B0F127" stroke="#17191A" stroke-miterlimit="10"/>
<path d="M189.078 141.95L233.508 140.185L237.946 146.031L192.902 147.174L189.078 141.95Z" fill="#B0F127" stroke="#17191A" stroke-miterlimit="10"/>
<path d="M230.61 161.773L204.49 125.751L197.114 125.814L223.807 161.979L230.61 161.773Z" fill="#B0F127" stroke="#17191A" stroke-miterlimit="10"/>
<path d="M215.246 137.17C215.246 137.17 210.577 128.043 206.543 126.343C202.453 124.663 194.385 130.174 193.693 135.714C193.002 141.253 198.818 146.442 198.818 146.442C197.451 143.982 197.754 140.549 198.386 138.883C199.595 135.755 203.894 131.568 206.442 131.989C212.223 132.935 211.514 136.354 211.514 136.354L215.246 137.17Z" fill="#B0F127" stroke="#17191A" stroke-miterlimit="10" stroke-linejoin="round"/>
<path d="M235.817 127.401C235.817 127.401 239.795 131.093 241.034 135.878C242.176 140.203 235.895 145.441 232.119 146.026C227.643 146.729 222.734 146.255 218.198 146.33C211.891 146.458 205.623 146.697 199.317 146.825C199.17 146.844 199.037 146.458 198.908 146.441C198.908 146.441 197.911 144.07 198.272 140.894L206.059 141.491C207.516 141.423 209.008 141.281 210.502 141.232C211.11 141.208 211.55 140.964 211.711 140.354C211.962 139.467 211.788 138.509 211.633 137.606C211.477 136.612 211.412 135.432 210.978 134.255C210.733 133.63 209.794 129.358 209.794 129.358C209.794 129.358 212.029 132.014 212.008 131.774C212.942 133.15 213.283 134.235 214.084 135.132C215.89 137.256 218.356 138.785 220.964 139.74C221.926 140.119 222.943 140.387 223.922 140.637C226.934 141.33 230.405 139.585 232.766 137.388C235.676 134.725 235.442 131.075 235.817 127.401Z" fill="black" stroke="#17191A" stroke-miterlimit="10"/>
<path d="M216.325 145C216.325 145 231.167 131.277 239.211 131.725C239.211 131.725 237.449 128.291 234.5 126.25C229.862 123.062 215.282 137.188 215.282 137.188L216.325 145Z" fill="#B0F127" stroke="#17191A" stroke-miterlimit="10"/>
</svg>
