<svg width="120" height="27" viewBox="0 0 120 27" fill="none" xmlns="http://www.w3.org/2000/svg">
<path fill-rule="evenodd" clip-rule="evenodd" d="M21.742 19.5911C23.0886 18.673 24.0725 17.2553 24.4031 15.5748L26.6963 3.91775C26.7638 3.57411 26.4972 3.25489 26.1425 3.25489L13.388 3.25488C11.9053 3.25488 10.5228 3.75403 9.42188 4.60456H13.7726C19.436 4.60456 23.6949 9.70112 22.6172 15.1888L21.8178 19.2596C21.7958 19.3714 21.7705 19.482 21.742 19.5911Z" fill="#121212"/>
<path d="M2.81041 11.4932C3.39093 8.53772 6.01291 6.40332 9.0631 6.40332H13.7523C18.2528 6.40332 21.6371 10.4534 20.7806 14.8143L19.9048 19.273C19.3939 21.8737 17.0867 23.7518 14.4027 23.7518H1.08211C0.729792 23.7518 0.464855 23.4347 0.531909 23.0934L2.81041 11.4932Z" fill="#121212"/>
<path d="M28.2891 23.825L31.9811 5.4397H40.8947C42.8989 5.4397 44.4287 5.79639 45.4835 6.50976C46.5558 7.22317 47.0924 8.25842 47.0924 9.61559C47.0924 10.764 46.7845 11.7296 46.1692 12.5126C45.5714 13.2956 44.7715 13.8871 43.7692 14.2873C42.7673 14.6875 41.6771 14.8876 40.4993 14.8876L41.185 13.8436C42.7322 13.8436 43.9629 14.2003 44.8769 14.9137C45.8088 15.6097 46.2746 16.6188 46.2746 17.9412C46.2746 19.2288 45.9143 20.3076 45.1935 21.1775C44.4903 22.0301 43.5146 22.7811 42.2661 23.1987C41.018 23.6163 39.5849 23.825 37.9676 23.825H28.2891ZM33.1942 20.525H38.2313C39.4091 20.525 40.3322 20.3076 41.0005 19.8726C41.6862 19.4202 42.0287 18.759 42.0287 17.889C42.0287 17.2104 41.7741 16.732 41.2642 16.4536C40.7718 16.1578 40.1036 16.0099 39.2599 16.0099H33.6162L34.2491 12.9302H39.0487C39.7873 12.9302 40.4202 12.8345 40.9476 12.6431C41.4925 12.4517 41.9057 12.1646 42.187 11.7818C42.4685 11.3816 42.609 10.9031 42.609 10.3464C42.609 9.73738 42.3715 9.30239 41.897 9.04139C41.4221 8.763 40.7543 8.62383 39.8927 8.62383H35.5677L33.1942 20.525Z" fill="#121212"/>
<path d="M46.9922 23.809L49.8379 9.66765H53.9252L51.0798 23.809H46.9922ZM52.5804 7.71019C51.8597 7.71019 51.2794 7.5101 50.8398 7.10993C50.4003 6.69233 50.1804 6.18775 50.1804 5.59616C50.1804 4.90021 50.4266 4.32601 50.919 3.87363C51.4289 3.40384 52.088 3.16895 52.897 3.16895C53.6177 3.16895 54.198 3.36904 54.6375 3.76923C55.0946 4.15202 55.3233 4.6305 55.3233 5.2047C55.3233 5.95285 55.0683 6.56183 54.5584 7.03163C54.066 7.484 53.4069 7.71019 52.5804 7.71019Z" fill="#121212"/>
<path d="M59.5252 23.8087C58.5054 23.8087 57.6352 23.6086 56.9144 23.2084C56.1937 22.7909 55.675 22.1993 55.3584 21.4337C55.0597 20.6507 55.0156 19.7286 55.2268 18.6672L57.6775 6.56152H61.7914L59.3407 18.6411C59.2353 19.2327 59.2966 19.7025 59.5252 20.0504C59.7539 20.3984 60.1756 20.5724 60.7913 20.5724C61.0725 20.5724 61.3537 20.5289 61.6349 20.4419C61.934 20.3549 62.2065 20.2331 62.4527 20.0765L63.0592 22.9736C62.5493 23.2867 61.9865 23.5042 61.3712 23.626C60.7559 23.7478 60.1406 23.8087 59.5252 23.8087ZM56.3582 13.1124L56.991 9.98052H64.6397L64.0068 13.1124H56.3582Z" fill="#121212"/>
<path d="M70.106 23.7629C68.9457 23.7629 67.9434 23.5193 67.0994 23.0321C66.2558 22.5275 65.6579 21.7968 65.3063 20.8398C64.9547 19.8828 64.9135 18.8549 65.1947 17.4455L66.7507 9.66797H70.8646L69.3615 17.1845C69.1507 18.2111 69.2299 19.0028 69.599 19.5595C69.9856 20.1163 70.6626 20.3947 71.6295 20.3947C72.6493 20.3947 73.5021 20.0989 74.1878 19.5073C74.891 18.9158 75.3568 18.011 75.5855 16.7931L77.0357 9.66797H81.15L78.2955 23.7629H74.3924L75.216 19.7422L75.7963 20.9428C75.1281 21.9694 74.299 22.5711 73.2971 23.0582C72.2948 23.528 71.2312 23.7629 70.106 23.7629Z" fill="#121212"/>
<path d="M92.0407 9.45898C93.2539 9.45898 94.2824 9.71127 95.1264 10.2158C95.9701 10.703 96.5679 11.4251 96.9195 12.3821C97.2711 13.3391 97.3065 14.5222 97.0249 15.9316L95.4179 23.7627H91.304L92.8581 16.1926C93.0693 15.166 92.9814 14.3743 92.5944 13.8175C92.2253 13.2608 91.5396 12.9824 90.5376 12.9824C89.5003 12.9824 88.63 13.2782 87.9268 13.8697C87.2411 14.4613 86.7662 15.3661 86.5025 16.5841L85.0537 23.7627H80.9395L83.7863 9.66778H87.6894L86.872 13.6348L86.2917 12.4343C86.9774 11.4077 87.8214 10.6595 88.8233 10.1897C89.8432 9.70256 90.9155 9.45898 92.0407 9.45898Z" fill="#121212"/>
<path d="M97.998 23.7626L100.846 9.66765H104.933L102.086 23.7626H97.998ZM103.588 7.71019C102.867 7.71019 102.287 7.5101 101.848 7.10993C101.408 6.69233 101.188 6.18775 101.188 5.59616C101.188 4.90021 101.435 4.32601 101.927 3.87363C102.437 3.40384 103.096 3.16895 103.905 3.16895C104.626 3.16895 105.206 3.36904 105.645 3.76923C106.103 4.15202 106.331 4.6305 106.331 5.2047C106.331 5.95285 106.076 6.56183 105.566 7.03163C105.074 7.484 104.415 7.71019 103.588 7.71019Z" fill="#121212"/>
<path d="M102.086 23.7629L108.715 16.5395L109.273 16.5646L109.097 16.8544L108.715 16.5395L104.933 9.66797H109.175L112.129 15.0705L110.23 15.0444L115.373 9.66797H119.909L112.102 17.7065L112.445 15.5403L117.03 23.7629H112.678L109.65 18.1241H111.575L106.78 23.7629H102.086Z" fill="#121212"/>
</svg>
