<svg width="361" height="260" viewBox="0 0 361 260" fill="none" xmlns="http://www.w3.org/2000/svg">
<path fill-rule="evenodd" clip-rule="evenodd" d="M310.913 54.5545C314.319 53.0938 317.095 49.5747 318.58 44.1699C321.932 31.968 317.436 14.7751 308.537 5.76872C303.853 1.0277 298.882 -0.499923 294.736 0.896962L294.735 0.8945L294.631 0.932856C294.538 0.965099 294.446 0.999053 294.355 1.03414L290.296 2.52537L290.598 3.5603C288.773 5.42855 287.301 8.10819 286.354 11.5546C283.002 23.7567 287.498 40.9493 296.397 49.9557C299.486 53.0827 302.7 54.8116 305.72 55.2259L306.05 56.3515L310.919 54.5735L310.913 54.5545Z" fill="white"/>
<path d="M310.914 54.5543L310.823 54.3437L310.635 54.4242L310.694 54.6204L310.914 54.5543ZM294.736 0.896701L294.516 0.962746L294.584 1.18944L294.809 1.11395L294.736 0.896701ZM294.735 0.894238L294.955 0.828184L294.884 0.595214L294.656 0.679147L294.735 0.894238ZM294.631 0.932595L294.707 1.14894L294.71 1.14768L294.631 0.932595ZM294.355 1.03388L294.434 1.24926L294.437 1.24793L294.355 1.03388ZM290.296 2.52511L290.217 2.31003L290.016 2.38378L290.076 2.58945L290.296 2.52511ZM290.599 3.56003L290.763 3.72016L290.857 3.62426L290.819 3.49571L290.599 3.56003ZM305.721 55.2256L305.941 55.1612L305.899 55.0188L305.752 54.9987L305.721 55.2256ZM306.05 56.3513L305.83 56.4156L305.899 56.6507L306.129 56.5666L306.05 56.3513ZM310.919 54.5732L310.998 54.7885L311.201 54.7145L311.139 54.5072L310.919 54.5732ZM318.359 44.1088C316.885 49.4721 314.143 52.9195 310.823 54.3437L311.004 54.7649C314.495 53.2679 317.305 49.6771 318.801 44.2304L318.359 44.1088ZM308.374 5.92962C312.789 10.3974 316.121 16.9081 317.931 23.8287C319.741 30.7492 320.022 38.0556 318.359 44.1088L318.801 44.2304C320.49 38.0814 320.2 30.6908 318.375 23.7129C316.55 16.735 313.185 10.1462 308.701 5.60759L308.374 5.92962ZM294.809 1.11395C298.842 -0.24457 303.725 1.22443 308.374 5.92962L308.701 5.60759C303.981 0.830221 298.922 -0.755502 294.662 0.679373L294.809 1.11395ZM294.955 0.830576L294.955 0.828184L294.515 0.960363L294.516 0.962746L294.955 0.830576ZM294.656 0.679147L294.552 0.717503L294.71 1.14768L294.814 1.1094L294.656 0.679147ZM294.437 1.24793C294.527 1.21353 294.617 1.18057 294.707 1.14894L294.555 0.716173C294.46 0.749403 294.366 0.784054 294.272 0.820046L294.437 1.24793ZM294.276 0.818798L290.217 2.31003L290.375 2.7402L294.434 1.24926L294.276 0.818798ZM290.076 2.58945L290.379 3.62445L290.819 3.49571L290.516 2.46099L290.076 2.58945ZM286.576 11.6151C287.515 8.19669 288.971 5.55442 290.763 3.72016L290.435 3.39992C288.576 5.3021 287.088 8.01916 286.133 11.4935L286.576 11.6151ZM296.56 49.7943C292.146 45.3265 288.813 38.8161 287.004 31.8953C285.194 24.9748 284.913 17.6683 286.576 11.6151L286.133 11.4935C284.444 17.6425 284.735 25.0334 286.56 32.011C288.385 38.9889 291.75 45.578 296.234 50.1163L296.56 49.7943ZM305.752 54.9987C302.795 54.5931 299.625 52.8964 296.56 49.7943L296.234 50.1163C299.348 53.2681 302.606 55.0297 305.689 55.4528L305.752 54.9987ZM305.5 55.29L305.83 56.4156L306.27 56.2871L305.941 55.1612L305.5 55.29ZM306.129 56.5666L310.998 54.7885L310.84 54.3579L305.971 56.136L306.129 56.5666ZM311.139 54.5072L311.133 54.4881L310.694 54.6204L310.7 54.6394L311.139 54.5072Z" fill="#060606"/>
<mask id="mask0_3309_15569" style="mask-type:alpha" maskUnits="userSpaceOnUse" x="285" y="0" width="35" height="57">
<path fill-rule="evenodd" clip-rule="evenodd" d="M310.914 54.5532C314.32 53.0924 317.096 49.5734 318.581 44.1685C321.933 31.9667 317.437 14.7738 308.538 5.76738C303.854 1.02635 298.883 -0.50097 294.737 0.895621L294.736 0.893158L294.632 0.931515C294.539 0.963757 294.447 0.997712 294.356 1.0328L290.297 2.52403L290.599 3.55895C288.774 5.42721 287.302 8.10685 286.355 11.5535C283.003 23.7554 287.499 40.948 296.398 49.9543C299.487 53.0813 302.701 54.8103 305.721 55.2245L306.051 56.3502L310.92 54.5722L310.914 54.5532Z" fill="white"/>
<path d="M310.915 54.5533L310.824 54.3427L310.636 54.4232L310.695 54.6194L310.915 54.5533ZM294.737 0.895724L294.517 0.96177L294.585 1.18847L294.81 1.11297L294.737 0.895724ZM294.736 0.893262L294.956 0.827208L294.885 0.594238L294.657 0.67817L294.736 0.893262ZM294.632 0.931619L294.708 1.14795L294.711 1.1467L294.632 0.931619ZM294.356 1.0329L294.435 1.24828L294.438 1.24695L294.356 1.0329ZM290.297 2.52413L290.218 2.30904L290.017 2.3831L290.077 2.58847L290.297 2.52413ZM290.6 3.55906L290.764 3.71918L290.858 3.62328L290.82 3.49473L290.6 3.55906ZM305.722 55.2247L305.942 55.1605L305.9 55.0179L305.753 54.9977L305.722 55.2247ZM306.051 56.3503L305.831 56.4146L305.9 56.6497L306.13 56.5656L306.051 56.3503ZM310.92 54.5723L310.999 54.7876L311.202 54.7135L311.14 54.5062L310.92 54.5723ZM318.36 44.1078C316.886 49.4712 314.144 52.9185 310.824 54.3427L311.005 54.7639C314.495 53.267 317.305 49.6761 318.802 44.2294L318.36 44.1078ZM308.375 5.92865C312.79 10.3965 316.122 16.9071 317.932 23.8277C319.742 30.7482 320.023 38.0547 318.36 44.1078L318.802 44.2294C320.491 38.0804 320.201 30.6898 318.376 23.7119C316.551 16.7341 313.186 10.1452 308.702 5.60661L308.375 5.92865ZM294.81 1.11297C298.843 -0.245547 303.726 1.22345 308.375 5.92865L308.702 5.60661C303.982 0.829244 298.923 -0.756479 294.663 0.678396L294.81 1.11297ZM294.956 0.8296L294.956 0.827208L294.516 0.959386L294.517 0.96177L294.956 0.8296ZM294.657 0.67817L294.553 0.716527L294.711 1.1467L294.815 1.10842L294.657 0.67817ZM294.438 1.24695C294.528 1.21256 294.618 1.17958 294.708 1.14795L294.556 0.715197C294.461 0.748426 294.367 0.783077 294.273 0.81907L294.438 1.24695ZM294.277 0.817812L290.218 2.30904L290.376 2.73922L294.435 1.24828L294.277 0.817812ZM290.077 2.58847L290.38 3.62347L290.82 3.49473L290.517 2.46002L290.077 2.58847ZM286.577 11.6144C287.516 8.19572 288.972 5.55344 290.764 3.71918L290.436 3.39893C288.577 5.30111 287.089 8.01819 286.134 11.4929L286.577 11.6144ZM296.561 49.7933C292.147 45.3256 288.814 38.8151 287.005 31.8943C285.195 24.9738 284.914 17.6673 286.577 11.6144L286.134 11.4929C284.445 17.6415 284.736 25.0325 286.561 32.0101C288.386 38.988 291.751 45.577 296.235 50.1156L296.561 49.7933ZM305.753 54.9977C302.796 54.5921 299.626 52.8955 296.561 49.7933L296.235 50.1156C299.349 53.2674 302.607 55.0287 305.69 55.4518L305.753 54.9977ZM305.501 55.289L305.831 56.4146L306.271 56.2862L305.942 55.1605L305.501 55.289ZM306.13 56.5656L310.999 54.7876L310.841 54.357L305.972 56.135L306.13 56.5656ZM311.14 54.5062L311.134 54.4872L310.695 54.6194L310.701 54.6384L311.14 54.5062Z" fill="#060606"/>
</mask>
<g mask="url(#mask0_3309_15569)">
<path d="M344.801 38.2585L297.875 50.498L292.354 70.594L339.279 58.3544L344.801 38.2585Z" fill="#2F3133"/>
</g>
<path d="M310.914 54.5543L310.823 54.3437L310.635 54.4242L310.694 54.6204L310.914 54.5543ZM294.736 0.896701L294.516 0.962746L294.584 1.18944L294.809 1.11395L294.736 0.896701ZM294.735 0.894238L294.955 0.828184L294.884 0.595214L294.656 0.679147L294.735 0.894238ZM294.631 0.932595L294.707 1.14894L294.71 1.14768L294.631 0.932595ZM294.355 1.03388L294.434 1.24926L294.437 1.24793L294.355 1.03388ZM290.296 2.52511L290.217 2.31003L290.016 2.38378L290.076 2.58945L290.296 2.52511ZM290.599 3.56003L290.763 3.72016L290.857 3.62426L290.819 3.49571L290.599 3.56003ZM305.721 55.2256L305.941 55.1612L305.899 55.0188L305.752 54.9987L305.721 55.2256ZM306.05 56.3513L305.83 56.4156L305.899 56.6507L306.129 56.5666L306.05 56.3513ZM310.919 54.5732L310.998 54.7885L311.201 54.7145L311.139 54.5072L310.919 54.5732ZM318.359 44.1088C316.885 49.4721 314.143 52.9195 310.823 54.3437L311.004 54.7649C314.495 53.2679 317.305 49.6771 318.801 44.2304L318.359 44.1088ZM308.374 5.92962C312.789 10.3974 316.121 16.9081 317.931 23.8287C319.741 30.7492 320.022 38.0556 318.359 44.1088L318.801 44.2304C320.49 38.0814 320.2 30.6908 318.375 23.7129C316.55 16.735 313.185 10.1462 308.701 5.60759L308.374 5.92962ZM294.809 1.11395C298.842 -0.24457 303.725 1.22443 308.374 5.92962L308.701 5.60759C303.981 0.830221 298.922 -0.755502 294.662 0.679373L294.809 1.11395ZM294.955 0.830576L294.955 0.828184L294.515 0.960363L294.516 0.962746L294.955 0.830576ZM294.656 0.679147L294.552 0.717503L294.71 1.14768L294.814 1.1094L294.656 0.679147ZM294.437 1.24793C294.527 1.21353 294.617 1.18057 294.707 1.14894L294.555 0.716173C294.46 0.749403 294.366 0.784054 294.272 0.820046L294.437 1.24793ZM294.276 0.818798L290.217 2.31003L290.375 2.7402L294.434 1.24926L294.276 0.818798ZM290.076 2.58945L290.379 3.62445L290.819 3.49571L290.516 2.46099L290.076 2.58945ZM286.576 11.6151C287.515 8.19669 288.971 5.55442 290.763 3.72016L290.435 3.39992C288.576 5.3021 287.088 8.01916 286.133 11.4935L286.576 11.6151ZM296.56 49.7943C292.146 45.3265 288.813 38.8161 287.004 31.8953C285.194 24.9748 284.913 17.6683 286.576 11.6151L286.133 11.4935C284.444 17.6425 284.735 25.0334 286.56 32.011C288.385 38.9889 291.75 45.578 296.234 50.1163L296.56 49.7943ZM305.752 54.9987C302.795 54.5931 299.625 52.8964 296.56 49.7943L296.234 50.1163C299.348 53.2681 302.606 55.0297 305.689 55.4528L305.752 54.9987ZM305.5 55.29L305.83 56.4156L306.27 56.2871L305.941 55.1612L305.5 55.29ZM306.129 56.5666L310.998 54.7885L310.84 54.3579L305.971 56.136L306.129 56.5666ZM311.139 54.5072L311.133 54.4881L310.694 54.6204L310.7 54.6394L311.139 54.5072Z" fill="#060606"/>
<path d="M292.183 51.4949C301.082 60.5013 311.013 57.9109 314.366 45.709C317.718 33.5071 313.222 16.3144 304.324 7.30802C295.425 -1.69838 285.493 0.892052 282.141 13.0939C278.788 25.2958 283.284 42.4885 292.183 51.4949Z" fill="#B0F127" stroke="#060606" stroke-width="1.5"/>
<mask id="mask1_3309_15569" style="mask-type:alpha" maskUnits="userSpaceOnUse" x="280" y="1" width="37" height="57">
<path d="M292.184 51.4946C301.083 60.501 311.014 57.9106 314.367 45.7087C317.719 33.5069 313.223 16.3142 304.324 7.30778C295.426 -1.69862 285.494 0.891808 282.142 13.0937C278.789 25.2955 283.285 42.4882 292.184 51.4946Z" fill="#B0F127" stroke="#060606" stroke-width="1.5"/>
</mask>
<g mask="url(#mask1_3309_15569)">
<path d="M315.03 47.3355L280.945 12.8384L287.831 -12.2244L321.916 22.2727L315.03 47.3355Z" fill="#B0F127"/>
<path d="M292.183 51.4944C301.082 60.5008 311.013 57.9104 314.366 45.7085C317.718 33.5066 313.222 16.3139 304.324 7.30754C295.425 -1.69887 285.493 0.891564 282.141 13.0934C278.788 25.2953 283.284 42.488 292.183 51.4944Z" stroke="#060606" stroke-width="1.5"/>
</g>
<path d="M182 169.325V187.328L226.024 209.932V191.885L182 169.325Z" fill="white" stroke="#17191A" stroke-miterlimit="10"/>
<path d="M184.752 191.885V221.934L226.024 244.313V213.316L184.752 191.885Z" fill="white" stroke="#17191A" stroke-miterlimit="10"/>
<path d="M184.752 189.268V192.607L226.024 213.316V209.932L184.752 189.268Z" fill="#17191A" stroke="#17191A" stroke-miterlimit="10"/>
<path d="M267.295 191.885V221.934L226.023 244.313V213.316L267.295 191.885Z" fill="white" stroke="#17191A" stroke-miterlimit="10"/>
<path d="M267.295 189.268V192.607L226.023 213.316V209.932L267.295 189.268Z" fill="#17191A" stroke="#17191A" stroke-miterlimit="10"/>
<path d="M270.002 169.325V187.328L226.023 209.932V191.885L270.002 169.325Z" fill="white" stroke="#17191A" stroke-miterlimit="10"/>
<path d="M182 169.325L226.024 147.081L270.002 169.325L226.024 191.884L182 169.325Z" fill="white" stroke="#17191A" stroke-miterlimit="10"/>
<path d="M200.719 179.116L200.223 196.712L207.304 200.006V182.41L200.719 179.116Z" fill="#B0F127" stroke="#17191A" stroke-miterlimit="10"/>
<path d="M201.802 201.45L201.306 230.687L208.387 234.748V204.744L201.802 201.45Z" fill="#B0F127" stroke="#17191A" stroke-miterlimit="10"/>
<path d="M251.644 178.936L252.095 196.713L245.013 200.006L244.923 182.275L251.644 178.936Z" fill="#B0F127" stroke="#17191A" stroke-miterlimit="10"/>
<path d="M250.516 201.45L251.012 230.687L243.931 234.748V204.744L250.516 201.45Z" fill="#B0F127" stroke="#17191A" stroke-miterlimit="10"/>
<path d="M201.17 179.297L243.976 156.196L251.147 159.805L207.44 182.59L201.17 179.297Z" fill="#B0F127" stroke="#17191A" stroke-miterlimit="10"/>
<path d="M251.509 178.8L208.523 155.97L201.306 159.579L244.923 182.274L251.509 178.8Z" fill="#B0F127" stroke="#17191A" stroke-miterlimit="10"/>
<path d="M224.58 162.016C224.58 162.016 215.604 155.294 210.822 155.564C205.996 155.88 200.719 165.175 202.703 170.95C204.688 176.725 212.897 179.026 212.897 179.026C210.371 177.267 209.018 173.747 208.838 171.807C208.522 168.153 210.732 161.971 213.439 161.159C219.573 159.309 220.52 163.009 220.52 163.009L224.58 162.016Z" fill="#B0F127" stroke="#17191A" stroke-miterlimit="10" stroke-linejoin="round"/>
<path d="M240.097 142.525C240.097 142.525 245.78 144.239 249.298 148.345C252.501 152.045 248.847 160.211 245.419 162.603C241.36 165.445 236.308 167.34 231.887 169.596C225.753 172.754 219.709 176.003 213.574 179.161C213.439 179.251 213.123 178.936 212.988 178.981C212.988 178.981 210.868 177.131 209.695 173.837L217.634 170.679C219.032 169.912 220.431 169.055 221.874 168.288C222.46 167.972 222.776 167.521 222.641 166.844C222.46 165.851 221.829 164.994 221.242 164.182C220.611 163.279 219.979 162.151 218.987 161.204C218.446 160.708 215.469 156.963 215.469 156.963C215.469 156.963 218.942 158.497 218.807 158.271C220.385 159.174 221.242 160.076 222.46 160.572C225.257 161.79 228.414 162.106 231.436 161.79C232.564 161.7 233.692 161.475 234.774 161.249C238.067 160.482 240.638 157.098 241.901 153.804C243.48 149.789 241.495 146.315 240.097 142.525Z" fill="black" stroke="#17191A" stroke-miterlimit="10"/>
<path d="M229.406 169.19C229.406 169.19 237.39 148.571 245.509 145.142C245.509 145.142 242.126 142.615 238.247 142.028C232.158 141.126 224.625 162.016 224.625 162.016L229.406 169.19Z" fill="#B0F127" stroke="#17191A" stroke-miterlimit="10"/>
<path d="M187.357 215.518L186.857 216.618C179.457 206.518 162.857 194.818 141.857 186.118C120.857 177.318 100.857 173.618 88.5566 175.518L89.0566 174.418L81.3566 171.218L76.1566 183.618H76.2566C73.7566 194.818 94.9566 213.418 125.157 226.118C155.357 238.818 183.457 240.818 189.757 231.118H189.857L195.057 218.718L187.357 215.518Z" fill="#2F3133" stroke="#060606" stroke-miterlimit="10"/>
<path d="M195.02 218.715C199.649 207.661 177.962 188.048 146.581 174.909C115.2 161.771 86.009 160.081 81.3805 171.136C76.7521 182.19 98.4391 201.803 129.82 214.942C161.201 228.08 190.392 229.77 195.02 218.715Z" fill="white" stroke="#060606" stroke-miterlimit="10"/>
<path d="M187.657 25.0176C194.457 25.0176 201.157 26.4176 207.557 29.0176C232.457 39.4176 244.757 66.9176 234.957 90.3176C227.557 108.118 211.957 119.118 194.257 119.118C190.957 119.118 187.457 118.718 184.057 117.918C183.957 117.918 183.957 117.918 183.857 117.918C183.457 117.918 183.057 118.118 182.957 118.518L179.657 126.318C179.457 126.718 179.657 127.318 180.057 127.518C189.357 133.518 195.757 142.018 198.557 152.218C201.257 162.118 200.357 172.818 196.057 183.218C189.057 199.918 172.157 210.718 153.057 210.718C146.257 210.718 139.557 209.318 133.157 206.718C108.257 196.318 95.9569 168.818 105.757 145.418C113.157 127.618 128.757 116.618 146.457 116.618C149.757 116.618 153.257 117.018 156.657 117.818C156.757 117.818 156.757 117.818 156.857 117.818C157.257 117.818 157.657 117.618 157.757 117.218L161.057 109.418C161.257 109.018 161.057 108.418 160.657 108.218C151.357 102.218 144.957 93.7176 142.157 83.5176C139.457 73.6176 140.357 62.9176 144.657 52.5176C151.657 35.8176 168.557 25.0176 187.657 25.0176ZM187.657 24.0176C168.757 24.0176 151.157 34.5176 143.757 52.1176C134.857 73.3176 140.257 96.2176 160.157 109.018L156.857 116.818C153.357 116.018 149.857 115.618 146.457 115.618C127.957 115.618 112.357 127.118 104.857 145.018C94.8568 168.918 107.357 196.918 132.857 207.618C139.557 210.418 146.457 211.718 153.157 211.718C172.057 211.718 189.657 201.218 197.057 183.618C205.957 162.418 200.557 139.518 180.657 126.718L183.957 118.918C187.457 119.718 190.957 120.118 194.357 120.118C212.857 120.118 228.457 108.618 235.957 90.7176C245.957 66.8176 233.457 38.8176 207.957 28.1176C201.357 25.4176 194.457 24.0176 187.657 24.0176Z" fill="#C6C6C9"/>
<path d="M250.656 64.3176L250.156 65.4176C242.756 55.3176 226.156 43.6176 205.156 34.9176C184.156 26.1176 164.156 22.4176 151.856 24.3176L152.356 23.2176L144.656 20.0176L139.456 32.4176H139.556C137.056 43.6176 158.256 62.2176 188.456 74.9176C218.656 87.5176 246.756 89.6176 253.056 79.9176H253.156L258.356 67.5176L250.656 64.3176Z" fill="#2F3133" stroke="#060606" stroke-miterlimit="10"/>
<path d="M258.313 67.596C262.942 56.5414 241.255 36.9288 209.874 23.79C178.493 10.6512 149.302 8.96159 144.674 20.0162C140.045 31.0707 161.732 50.6833 193.113 63.8221C224.494 76.961 253.685 78.6506 258.313 67.596Z" fill="white" stroke="#060606" stroke-miterlimit="10"/>
<path d="M149.756 76.9176C149.656 76.9176 149.656 77.1176 149.456 77.6176C146.756 85.5176 153.756 92.9176 158.756 98.0176C160.456 99.7176 162.156 101.418 163.956 103.118C165.156 104.218 166.656 104.918 167.756 106.118C169.056 107.618 168.856 109.318 168.156 110.918C166.756 114.018 165.456 117.118 164.156 120.318C163.456 122.018 162.856 123.618 162.156 125.318C161.756 126.418 161.056 127.518 160.856 128.618C160.756 129.018 160.756 129.318 160.956 129.718C161.156 130.118 161.556 130.418 161.956 130.618C164.356 131.918 165.456 128.518 166.056 127.018C166.656 125.618 167.256 124.318 167.856 122.918C167.856 122.918 169.056 119.918 169.656 118.418C169.956 117.518 171.156 117.618 171.856 118.218C172.756 118.918 171.756 121.018 171.756 121.018C171.756 121.018 169.856 125.418 168.956 127.618C168.156 129.518 167.456 131.518 166.656 133.418C166.256 134.318 165.956 135.318 165.556 136.218C165.256 137.018 164.756 137.918 164.756 138.818C164.756 139.718 165.456 140.218 166.256 140.218C167.356 140.218 167.856 139.318 168.356 138.518C169.156 137.318 169.756 135.918 170.156 134.518C170.156 134.518 172.356 129.218 173.456 126.618C175.256 122.318 177.056 118.018 178.856 113.718C178.856 113.618 178.856 113.618 178.956 113.518C178.956 113.518 179.756 111.518 183.056 111.918C190.756 112.918 198.956 113.718 206.456 111.018C209.756 109.818 212.856 107.618 214.056 104.118C210.956 103.118 207.956 101.618 205.056 100.318C198.256 97.4176 191.456 94.5176 184.656 91.6176C177.456 88.5176 170.256 85.5176 162.956 82.4176C160.256 81.3176 157.556 80.1176 154.856 79.0176C153.556 78.4176 151.656 77.2176 150.256 77.0176C149.956 76.9176 149.856 76.8176 149.756 76.9176Z" fill="#B0F127" stroke="#060606" stroke-miterlimit="10" stroke-linecap="round" stroke-linejoin="round"/>
<path d="M206.457 106.318C199.357 106.318 188.857 103.718 178.257 99.3176C160.857 92.0176 147.857 81.6176 149.957 76.7176C150.657 74.9176 153.457 74.0176 157.757 74.0176C164.857 74.0176 175.357 76.6176 185.957 81.0176C203.357 88.3176 216.357 98.7176 214.257 103.618C213.457 105.318 210.657 106.318 206.457 106.318Z" fill="#ea4b64"/>
<path d="M157.757 74.4175C164.857 74.4175 175.257 77.0175 185.757 81.4175C194.357 85.0175 202.057 89.4175 207.357 93.7175C212.257 97.7175 214.657 101.317 213.757 103.317C213.057 104.917 210.457 105.717 206.457 105.717C199.357 105.717 188.957 103.117 178.457 98.7175C169.857 95.1175 162.157 90.7175 156.857 86.4175C151.957 82.4175 149.557 78.8175 150.457 76.8175C151.057 75.3175 153.657 74.4175 157.757 74.4175ZM157.757 73.4175C153.357 73.4175 150.357 74.4175 149.457 76.5175C147.257 81.8175 160.057 92.2175 178.057 99.8175C189.057 104.417 199.457 106.917 206.457 106.917C210.857 106.917 213.857 105.917 214.757 103.817C216.957 98.5175 204.157 88.1175 186.157 80.5175C175.057 75.8175 164.657 73.4175 157.757 73.4175Z" fill="#060606"/>
<path d="M112.456 146.318C112.156 147.018 111.756 147.618 111.556 148.318C103.956 166.418 115.456 188.418 137.056 197.518C158.756 206.618 182.456 199.318 190.056 181.218C190.356 180.518 190.656 179.818 190.856 179.118C186.956 184.918 167.756 182.718 146.956 174.018C126.056 165.318 111.156 153.218 112.456 146.318Z" fill="#B0F127" stroke="#060606" stroke-miterlimit="10" stroke-linecap="round" stroke-linejoin="round"/>
<path d="M181.057 181.918C172.357 181.918 159.657 178.818 147.157 173.518C136.657 169.118 127.257 163.718 120.757 158.318C114.557 153.118 111.657 148.418 112.857 145.418C113.857 143.018 117.457 141.718 123.057 141.718C131.757 141.718 144.457 144.818 156.957 150.118C167.457 154.518 176.857 159.918 183.357 165.318C189.557 170.518 192.457 175.218 191.257 178.218C190.257 180.618 186.557 181.918 181.057 181.918Z" fill="#ea4b64"/>
<path d="M123.057 142.218C131.657 142.218 144.257 145.318 156.757 150.518C167.257 154.918 176.557 160.318 183.057 165.618C189.157 170.718 191.957 175.118 190.757 177.918C189.857 180.118 186.357 181.318 181.057 181.318C172.457 181.318 159.857 178.218 147.357 173.018C136.857 168.618 127.557 163.218 121.057 157.918C114.957 152.818 112.157 148.418 113.357 145.618C114.257 143.418 117.757 142.218 123.057 142.218ZM123.057 141.218C117.357 141.218 113.557 142.518 112.357 145.218C109.557 151.918 124.957 164.818 146.857 174.018C159.957 179.518 172.457 182.418 180.957 182.418C186.657 182.418 190.457 181.118 191.657 178.418C194.457 171.718 179.057 158.818 157.157 149.618C144.057 144.118 131.557 141.218 123.057 141.218Z" fill="#060606"/>
<path fill-rule="evenodd" clip-rule="evenodd" d="M101.983 211.009C100.44 208.198 97.7376 205.553 93.8759 203.323C81.0118 195.896 60.155 195.896 47.2908 203.323C43.4292 205.553 40.727 208.198 39.1833 211.009H37.6396V216.514H37.6455C37.5301 221.466 40.745 226.44 47.2908 230.219C60.155 237.646 81.0118 237.646 93.8759 230.219C100.421 226.44 103.637 221.466 103.521 216.514H103.546V211.009H101.983Z" fill="#B0F127"/>
<path d="M93.8758 203.323L94.0803 202.969L93.8758 203.323ZM101.983 211.009L101.624 211.206L101.741 211.418H101.983V211.009ZM47.2907 203.323L47.0861 202.969L47.2907 203.323ZM39.1832 211.009V211.418H39.4257L39.5421 211.206L39.1832 211.009ZM37.6395 211.009V210.6H37.2305V211.009H37.6395ZM37.6395 216.514H37.2305V216.922H37.6395V216.514ZM37.6454 216.514L38.0544 216.523L38.0641 216.105H37.6454V216.514ZM47.2907 230.219L47.0861 230.573L47.2907 230.219ZM93.8758 230.219L94.0803 230.573L93.8758 230.219ZM103.521 216.514V216.105H103.102L103.112 216.523L103.521 216.514ZM103.545 216.514V216.922H103.955V216.514H103.545ZM103.545 211.009H103.955V210.6H103.545V211.009ZM93.6712 203.677C97.4852 205.879 100.126 208.476 101.624 211.206L102.342 210.812C100.754 207.92 97.9892 205.226 94.0803 202.969L93.6712 203.677ZM47.4952 203.677C53.8506 200.008 62.2055 198.162 70.5832 198.162C78.961 198.162 87.3159 200.008 93.6712 203.677L94.0803 202.969C87.5715 199.211 79.0662 197.344 70.5832 197.344C62.1003 197.344 53.5949 199.211 47.0861 202.969L47.4952 203.677ZM39.5421 211.206C41.0405 208.476 43.6808 205.879 47.4952 203.677L47.0861 202.969C43.1773 205.226 40.4128 207.92 38.8248 210.812L39.5421 211.206ZM37.6395 211.418H39.1832V210.6H37.6395V211.418ZM38.0486 216.514V211.009H37.2305V216.514H38.0486ZM37.6454 216.105H37.6395V216.922H37.6454V216.105ZM47.4952 229.865C41.0254 226.129 37.9439 221.273 38.0544 216.523L37.2368 216.504C37.1165 221.659 40.4649 226.75 47.0861 230.573L47.4952 229.865ZM93.6712 229.865C87.3159 233.534 78.9605 235.38 70.5832 235.38C62.206 235.38 53.8506 233.534 47.4952 229.865L47.0861 230.573C53.5949 234.331 62.1003 236.198 70.5832 236.198C79.0662 236.198 87.5715 234.331 94.0803 230.573L93.6712 229.865ZM103.112 216.523C103.223 221.273 100.141 226.129 93.6712 229.865L94.0803 230.573C100.702 226.75 104.05 221.659 103.93 216.504L103.112 216.523ZM103.545 216.105H103.521V216.922H103.545V216.105ZM103.136 211.009V216.514H103.955V211.009H103.136ZM101.983 211.418H103.545V210.6H101.983V211.418Z" fill="#060606"/>
<mask id="mask2_3309_15569" style="mask-type:alpha" maskUnits="userSpaceOnUse" x="37" y="196" width="67" height="40">
<path fill-rule="evenodd" clip-rule="evenodd" d="M101.983 209.933C100.44 207.122 97.7376 204.477 93.8759 202.248C81.0118 194.82 60.155 194.82 47.2908 202.248C43.4292 204.477 40.727 207.122 39.1833 209.933H37.6396V215.438H37.6455C37.5301 220.391 40.745 225.364 47.2908 229.143C60.155 236.57 81.0118 236.57 93.8759 229.143C100.421 225.364 103.637 220.391 103.521 215.438H103.546V209.933H101.983Z" fill="#71A407"/>
<path d="M101.983 209.933L101.624 210.131L101.741 210.342H101.983V209.933ZM39.1832 209.933V210.342H39.4257L39.5421 210.131L39.1832 209.933ZM37.6395 209.933V209.525H37.2305V209.933H37.6395ZM37.6395 215.438H37.2305V215.847H37.6395V215.438ZM37.6454 215.438L38.0544 215.447L38.0641 215.029H37.6454V215.438ZM103.521 215.438V215.029H103.102L103.112 215.447L103.521 215.438ZM103.545 215.438V215.847H103.955V215.438H103.545ZM103.545 209.933H103.955V209.525H103.545V209.933ZM93.6712 202.602C97.4852 204.804 100.126 207.4 101.624 210.131L102.342 209.737C100.754 206.844 97.9892 204.15 94.0803 201.893L93.6712 202.602ZM47.4952 202.602C53.8506 198.932 62.2055 197.086 70.5832 197.086C78.961 197.086 87.3159 198.932 93.6712 202.602L94.0803 201.893C87.5715 198.135 79.0662 196.268 70.5832 196.268C62.1003 196.268 53.5949 198.135 47.0861 201.893L47.4952 202.602ZM39.5421 210.131C41.0405 207.4 43.6808 204.804 47.4952 202.602L47.0861 201.893C43.1773 204.15 40.4128 206.844 38.8248 209.737L39.5421 210.131ZM37.6395 210.342H39.1832V209.525H37.6395V210.342ZM38.0486 215.438V209.933H37.2305V215.438H38.0486ZM37.6454 215.029H37.6395V215.847H37.6454V215.029ZM47.4952 228.789C41.0254 225.054 37.9439 220.197 38.0544 215.447L37.2368 215.428C37.1165 220.584 40.4649 225.674 47.0861 229.498L47.4952 228.789ZM93.6712 228.789C87.3159 232.458 78.9605 234.304 70.5832 234.304C62.206 234.304 53.8506 232.458 47.4952 228.789L47.0861 229.498C53.5949 233.256 62.1003 235.123 70.5832 235.123C79.0662 235.123 87.5715 233.256 94.0803 229.498L93.6712 228.789ZM103.112 215.447C103.223 220.197 100.141 225.054 93.6712 228.789L94.0803 229.498C100.702 225.674 104.05 220.584 103.93 215.428L103.112 215.447ZM103.545 215.029H103.521V215.847H103.545V215.029ZM103.136 209.933V215.438H103.955V209.933H103.136ZM101.983 210.342H103.545V209.525H101.983V210.342Z" fill="#060606"/>
</mask>
<g mask="url(#mask2_3309_15569)">
<path d="M70.5967 209.931H37.6432V236.827H70.5967V209.931Z" fill="#2F3133"/>
</g>
<path d="M93.8758 203.323L94.0803 202.969L93.8758 203.323ZM101.983 211.009L101.624 211.206L101.741 211.418H101.983V211.009ZM47.2907 203.323L47.0861 202.969L47.2907 203.323ZM39.1832 211.009V211.418H39.4257L39.5421 211.206L39.1832 211.009ZM37.6395 211.009V210.6H37.2305V211.009H37.6395ZM37.6395 216.514H37.2305V216.922H37.6395V216.514ZM37.6454 216.514L38.0544 216.523L38.0641 216.105H37.6454V216.514ZM47.2907 230.219L47.0861 230.573L47.2907 230.219ZM93.8758 230.219L94.0803 230.573L93.8758 230.219ZM103.521 216.514V216.105H103.102L103.112 216.523L103.521 216.514ZM103.545 216.514V216.922H103.955V216.514H103.545ZM103.545 211.009H103.955V210.6H103.545V211.009ZM93.6712 203.677C97.4852 205.879 100.126 208.476 101.624 211.206L102.342 210.812C100.754 207.92 97.9892 205.226 94.0803 202.969L93.6712 203.677ZM47.4952 203.677C53.8506 200.008 62.2055 198.162 70.5832 198.162C78.961 198.162 87.3159 200.008 93.6712 203.677L94.0803 202.969C87.5715 199.211 79.0662 197.344 70.5832 197.344C62.1003 197.344 53.5949 199.211 47.0861 202.969L47.4952 203.677ZM39.5421 211.206C41.0405 208.476 43.6808 205.879 47.4952 203.677L47.0861 202.969C43.1773 205.226 40.4128 207.92 38.8248 210.812L39.5421 211.206ZM37.6395 211.418H39.1832V210.6H37.6395V211.418ZM38.0486 216.514V211.009H37.2305V216.514H38.0486ZM37.6454 216.105H37.6395V216.922H37.6454V216.105ZM47.4952 229.865C41.0254 226.129 37.9439 221.273 38.0544 216.523L37.2368 216.504C37.1165 221.659 40.4649 226.75 47.0861 230.573L47.4952 229.865ZM93.6712 229.865C87.3159 233.534 78.9605 235.38 70.5832 235.38C62.206 235.38 53.8506 233.534 47.4952 229.865L47.0861 230.573C53.5949 234.331 62.1003 236.198 70.5832 236.198C79.0662 236.198 87.5715 234.331 94.0803 230.573L93.6712 229.865ZM103.112 216.523C103.223 221.273 100.141 226.129 93.6712 229.865L94.0803 230.573C100.702 226.75 104.05 221.659 103.93 216.504L103.112 216.523ZM103.545 216.105H103.521V216.922H103.545V216.105ZM103.136 211.009V216.514H103.955V211.009H103.136ZM101.983 211.418H103.545V210.6H101.983V211.418Z" fill="#060606"/>
<path d="M93.8781 222.344C106.742 214.917 106.742 202.875 93.8781 195.448C81.0139 188.021 60.1569 188.021 47.2927 195.448C34.4285 202.875 34.4285 214.917 47.2927 222.344C60.1569 229.771 81.0139 229.771 93.8781 222.344Z" fill="#B0F127" stroke="#060606" stroke-width="1.68"/>
<path fill-rule="evenodd" clip-rule="evenodd" d="M134.948 232.522C133.405 229.711 130.702 227.066 126.84 224.836C113.976 217.409 93.1194 217.409 80.2552 224.836C76.3935 227.066 73.6914 229.711 72.1482 232.522H70.6045V238.026H70.6103C70.4949 242.979 73.7099 247.953 80.2552 251.732C93.1194 259.159 113.976 259.159 126.84 251.732C133.386 247.953 136.601 242.979 136.486 238.026H136.51V232.522H134.948Z" fill="white"/>
<path d="M126.84 224.836L126.636 225.191L126.84 224.836ZM134.948 232.522L134.589 232.719L134.706 232.931H134.948V232.522ZM80.255 224.836L80.4595 225.191L80.255 224.836ZM72.148 232.522V232.931H72.39L72.5064 232.719L72.148 232.522ZM70.6043 232.522V232.113H70.1953V232.522H70.6043ZM70.6043 238.027H70.1953V238.436H70.6043V238.027ZM70.6102 238.027L71.0188 238.036L71.0285 237.618H70.6102V238.027ZM80.255 251.732L80.0505 252.086L80.255 251.732ZM126.84 251.732L127.045 252.086L126.84 251.732ZM136.485 238.027V237.618H136.067L136.076 238.036L136.485 238.027ZM136.51 238.027V238.436H136.919V238.027H136.51ZM136.51 232.522H136.919V232.113H136.51V232.522ZM126.636 225.191C130.45 227.393 133.09 229.989 134.589 232.719L135.306 232.326C133.718 229.433 130.954 226.739 127.045 224.482L126.636 225.191ZM80.4595 225.191C86.8149 221.521 95.1703 219.675 103.548 219.675C111.925 219.675 120.281 221.521 126.636 225.191L127.045 224.482C120.536 220.724 112.031 218.857 103.548 218.857C95.0647 218.857 86.5593 220.724 80.0505 224.482L80.4595 225.191ZM72.5064 232.719C74.0053 229.989 76.6456 227.393 80.4595 225.191L80.0505 224.482C76.1416 226.739 73.3771 229.433 71.7891 232.326L72.5064 232.719ZM70.6043 232.931H72.148V232.113H70.6043V232.931ZM71.0129 238.027V232.522H70.1953V238.027H71.0129ZM70.6102 237.618H70.6043V238.436H70.6102V237.618ZM80.4595 251.378C73.9897 247.643 70.9082 242.786 71.0188 238.036L70.2011 238.017C70.0809 243.172 73.4292 248.264 80.0505 252.086L80.4595 251.378ZM126.636 251.378C120.281 255.047 111.925 256.894 103.548 256.894C95.1698 256.894 86.8149 255.047 80.4595 251.378L80.0505 252.086C86.5593 255.844 95.0647 257.712 103.548 257.712C112.031 257.712 120.536 255.844 127.045 252.086L126.636 251.378ZM136.076 238.036C136.187 242.786 133.105 247.643 126.636 251.378L127.045 252.086C133.666 248.264 137.014 243.172 136.895 238.017L136.076 238.036ZM136.51 237.618H136.485V238.436H136.51V237.618ZM136.101 232.522V238.027H136.919V232.522H136.101ZM134.948 232.931H136.51V232.113H134.948V232.931Z" fill="#060606"/>
<mask id="mask3_3309_15569" style="mask-type:alpha" maskUnits="userSpaceOnUse" x="70" y="217" width="67" height="40">
<path fill-rule="evenodd" clip-rule="evenodd" d="M134.948 231.44C133.405 228.628 130.702 225.983 126.84 223.754C113.976 216.327 93.1194 216.327 80.2552 223.754C76.3935 225.983 73.6914 228.628 72.1482 231.44H70.6045V236.944H70.6103C70.4949 241.897 73.7099 246.871 80.2552 250.649C93.1194 258.077 113.976 258.077 126.84 250.649C133.386 246.871 136.601 241.897 136.486 236.944H136.51V231.44H134.948Z" fill="white"/>
<path d="M134.948 231.44L134.589 231.637L134.706 231.849H134.948V231.44ZM72.148 231.44V231.849H72.39L72.5064 231.637L72.148 231.44ZM70.6043 231.44V231.031H70.1953V231.44H70.6043ZM70.6043 236.944H70.1953V237.353H70.6043V236.944ZM70.6102 236.944L71.0188 236.954L71.0285 236.535H70.6102V236.944ZM136.485 236.944V236.535H136.067L136.076 236.954L136.485 236.944ZM136.51 236.944V237.353H136.919V236.944H136.51ZM136.51 231.44H136.919V231.031H136.51V231.44ZM126.636 224.108C130.45 226.31 133.09 228.906 134.589 231.637L135.306 231.243C133.718 228.35 130.954 225.656 127.045 223.399L126.636 224.108ZM80.4595 224.108C86.8149 220.439 95.1703 218.593 103.548 218.593C111.925 218.593 120.281 220.439 126.636 224.108L127.045 223.399C120.536 219.641 112.031 217.774 103.548 217.774C95.0647 217.774 86.5593 219.641 80.0505 223.399L80.4595 224.108ZM72.5064 231.637C74.0053 228.906 76.6456 226.31 80.4595 224.108L80.0505 223.399C76.1416 225.656 73.3771 228.35 71.7891 231.243L72.5064 231.637ZM70.6043 231.849H72.148V231.031H70.6043V231.849ZM71.0129 236.944V231.44H70.1953V236.944H71.0129ZM70.6102 236.535H70.6043V237.353H70.6102V236.535ZM80.4595 250.295C73.9897 246.56 70.9082 241.704 71.0188 236.954L70.2011 236.935C70.0809 242.09 73.4292 247.181 80.0505 251.004L80.4595 250.295ZM126.636 250.295C120.281 253.965 111.925 255.811 103.548 255.811C95.1698 255.811 86.8149 253.965 80.4595 250.295L80.0505 251.004C86.5593 254.762 95.0647 256.629 103.548 256.629C112.031 256.629 120.536 254.762 127.045 251.004L126.636 250.295ZM136.076 236.954C136.187 241.704 133.105 246.56 126.636 250.295L127.045 251.004C133.666 247.181 137.014 242.09 136.895 236.935L136.076 236.954ZM136.51 236.535H136.485V237.353H136.51V236.535ZM136.101 231.44V236.944H136.919V231.44H136.101ZM134.948 231.849H136.51V231.031H134.948V231.849Z" fill="#060606"/>
</mask>
<g mask="url(#mask3_3309_15569)">
<path d="M103.562 231.444H70.6081V258.339H103.562V231.444Z" fill="#2F3133"/>
</g>
<path d="M126.84 224.836L126.636 225.191L126.84 224.836ZM134.948 232.522L134.589 232.719L134.706 232.931H134.948V232.522ZM80.255 224.836L80.4595 225.191L80.255 224.836ZM72.148 232.522V232.931H72.39L72.5064 232.719L72.148 232.522ZM70.6043 232.522V232.113H70.1953V232.522H70.6043ZM70.6043 238.027H70.1953V238.436H70.6043V238.027ZM70.6102 238.027L71.0188 238.036L71.0285 237.618H70.6102V238.027ZM80.255 251.732L80.0505 252.086L80.255 251.732ZM126.84 251.732L127.045 252.086L126.84 251.732ZM136.485 238.027V237.618H136.067L136.076 238.036L136.485 238.027ZM136.51 238.027V238.436H136.919V238.027H136.51ZM136.51 232.522H136.919V232.113H136.51V232.522ZM126.636 225.191C130.45 227.393 133.09 229.989 134.589 232.719L135.306 232.326C133.718 229.433 130.954 226.739 127.045 224.482L126.636 225.191ZM80.4595 225.191C86.8149 221.521 95.1703 219.675 103.548 219.675C111.925 219.675 120.281 221.521 126.636 225.191L127.045 224.482C120.536 220.724 112.031 218.857 103.548 218.857C95.0647 218.857 86.5593 220.724 80.0505 224.482L80.4595 225.191ZM72.5064 232.719C74.0053 229.989 76.6456 227.393 80.4595 225.191L80.0505 224.482C76.1416 226.739 73.3771 229.433 71.7891 232.326L72.5064 232.719ZM70.6043 232.931H72.148V232.113H70.6043V232.931ZM71.0129 238.027V232.522H70.1953V238.027H71.0129ZM70.6102 237.618H70.6043V238.436H70.6102V237.618ZM80.4595 251.378C73.9897 247.643 70.9082 242.786 71.0188 238.036L70.2011 238.017C70.0809 243.172 73.4292 248.264 80.0505 252.086L80.4595 251.378ZM126.636 251.378C120.281 255.047 111.925 256.894 103.548 256.894C95.1698 256.894 86.8149 255.047 80.4595 251.378L80.0505 252.086C86.5593 255.844 95.0647 257.712 103.548 257.712C112.031 257.712 120.536 255.844 127.045 252.086L126.636 251.378ZM136.076 238.036C136.187 242.786 133.105 247.643 126.636 251.378L127.045 252.086C133.666 248.264 137.014 243.172 136.895 238.017L136.076 238.036ZM136.51 237.618H136.485V238.436H136.51V237.618ZM136.101 232.522V238.027H136.919V232.522H136.101ZM134.948 232.931H136.51V232.113H134.948V232.931Z" fill="#060606"/>
<path d="M126.841 243.86C139.705 236.433 139.705 224.391 126.841 216.964C113.977 209.537 93.1198 209.537 80.2556 216.964C67.3914 224.391 67.3914 236.433 80.2556 243.86C93.1198 251.287 113.977 251.287 126.841 243.86Z" fill="white" stroke="#060606" stroke-width="1.68"/>
<path d="M110.642 222.499C108.36 220.719 104.875 221.065 101.119 222.123L98.3909 219.501L95.6273 220.46L98.2838 223.012L96.0943 223.795L93.4204 221.226L90.6584 222.184L93.3849 224.805L91.6401 225.429L91.6308 225.421L87.8184 226.742L89.5924 228.447L91.5987 227.749C92.7187 227.361 93.4735 227.61 93.9166 227.897L97.0249 230.884C97.1249 230.849 97.2263 230.819 97.3288 230.793L97.0366 230.895L101.39 235.079C101.553 235.299 101.683 235.696 100.902 235.968C100.956 235.973 98.8925 236.664 98.8925 236.664L100.327 238.761L103.923 237.513L105.908 236.837L108.668 239.488L111.429 238.531L108.699 235.907L110.92 235.154L113.636 237.765L116.4 236.807L113.646 234.159C118.132 232.394 120.681 230.589 118.464 227.93C116.678 225.788 114.083 225.456 111.065 226.006C112.177 224.979 112.315 223.801 110.642 222.499ZM112.675 229.51C114.739 231.491 108.628 233.304 106.756 233.955L103.1 230.442C104.975 229.792 110.525 227.444 112.675 229.51ZM106.232 225C108.107 226.803 102.987 228.293 101.427 228.834L98.1114 225.648C99.6716 225.107 104.274 223.12 106.232 225Z" fill="#060606"/>
<path fill-rule="evenodd" clip-rule="evenodd" d="M134.948 224.46C133.405 221.648 130.702 219.003 126.84 216.774C113.976 209.346 93.1194 209.346 80.2552 216.774C76.3935 219.003 73.6914 221.648 72.1482 224.46H70.6045V229.964H70.6103C70.4949 234.916 73.7099 239.89 80.2552 243.669C93.1194 251.096 113.976 251.096 126.84 243.669C133.386 239.89 136.601 234.916 136.486 229.964H136.51V224.46H134.948Z" fill="white"/>
<path d="M126.84 216.774L126.636 217.128L126.84 216.774ZM134.948 224.46L134.589 224.657L134.706 224.868H134.948V224.46ZM80.255 216.774L80.4595 217.128L80.255 216.774ZM72.148 224.46V224.868H72.39L72.5064 224.657L72.148 224.46ZM70.6043 224.46V224.051H70.1953V224.46H70.6043ZM70.6043 229.964H70.1953V230.373H70.6043V229.964ZM70.6102 229.964L71.0188 229.973L71.0285 229.555H70.6102V229.964ZM80.255 243.669L80.0505 244.024L80.255 243.669ZM126.84 243.669L127.045 244.024L126.84 243.669ZM136.485 229.964V229.555H136.067L136.076 229.973L136.485 229.964ZM136.51 229.964V230.373H136.919V229.964H136.51ZM136.51 224.46H136.919V224.051H136.51V224.46ZM126.636 217.128C130.45 219.33 133.09 221.926 134.589 224.657L135.306 224.263C133.718 221.37 130.954 218.676 127.045 216.419L126.636 217.128ZM80.4595 217.128C86.8149 213.458 95.1703 211.612 103.548 211.612C111.925 211.612 120.281 213.458 126.636 217.128L127.045 216.419C120.536 212.661 112.031 210.794 103.548 210.794C95.0647 210.794 86.5593 212.661 80.0505 216.419L80.4595 217.128ZM72.5064 224.657C74.0053 221.926 76.6456 219.33 80.4595 217.128L80.0505 216.419C76.1416 218.676 73.3771 221.37 71.7891 224.263L72.5064 224.657ZM70.6043 224.868H72.148V224.051H70.6043V224.868ZM71.0129 229.964V224.46H70.1953V229.964H71.0129ZM70.6102 229.555H70.6043V230.373H70.6102V229.555ZM80.4595 243.315C73.9897 239.58 70.9082 234.724 71.0188 229.973L70.2011 229.954C70.0809 235.11 73.4292 240.201 80.0505 244.024L80.4595 243.315ZM126.636 243.315C120.281 246.985 111.925 248.831 103.548 248.831C95.1698 248.831 86.8149 246.985 80.4595 243.315L80.0505 244.024C86.5593 247.782 95.0647 249.649 103.548 249.649C112.031 249.649 120.536 247.782 127.045 244.024L126.636 243.315ZM136.076 229.973C136.187 234.724 133.105 239.58 126.636 243.315L127.045 244.024C133.666 240.201 137.014 235.11 136.895 229.954L136.076 229.973ZM136.51 229.555H136.485V230.373H136.51V229.555ZM136.101 224.46V229.964H136.919V224.46H136.101ZM134.948 224.868H136.51V224.051H134.948V224.868Z" fill="#060606"/>
<mask id="mask4_3309_15569" style="mask-type:alpha" maskUnits="userSpaceOnUse" x="70" y="209" width="67" height="40">
<path fill-rule="evenodd" clip-rule="evenodd" d="M134.947 223.384C133.404 220.573 130.701 217.927 126.84 215.698C113.976 208.271 93.1189 208.271 80.2547 215.698C76.3931 217.927 73.6909 220.573 72.1477 223.384H70.6045V228.889H70.6094C70.494 233.841 73.7094 238.815 80.2547 242.594C93.1189 250.021 113.976 250.021 126.84 242.594C133.386 238.815 136.601 233.841 136.485 228.889H136.51V223.384H134.947Z" fill="white"/>
<path d="M134.947 223.384L134.588 223.581L134.705 223.793H134.947V223.384ZM72.1475 223.384V223.793H72.3896L72.506 223.581L72.1475 223.384ZM70.6043 223.384V222.975H70.1953V223.384H70.6043ZM70.6043 228.888H70.1953V229.297H70.6043V228.888ZM70.6092 228.888L71.0183 228.898L71.028 228.479H70.6092V228.888ZM136.485 228.888V228.479H136.066L136.076 228.898L136.485 228.888ZM136.51 228.888V229.297H136.919V228.888H136.51ZM136.51 223.384H136.919V222.975H136.51V223.384ZM126.635 216.052C130.45 218.254 133.09 220.851 134.588 223.581L135.306 223.187C133.718 220.294 130.953 217.601 127.044 215.343L126.635 216.052ZM80.4591 216.052C86.8145 212.383 95.1698 210.537 103.547 210.537C111.924 210.537 120.28 212.383 126.635 216.052L127.044 215.343C120.535 211.586 112.03 209.719 103.547 209.719C95.0641 209.719 86.5588 211.586 80.05 215.343L80.4591 216.052ZM72.506 223.581C74.0048 220.851 76.6452 218.254 80.4591 216.052L80.05 215.343C76.1412 217.601 73.3766 220.294 71.7887 223.187L72.506 223.581ZM70.6043 223.793H72.1475V222.975H70.6043V223.793ZM71.0129 228.888V223.384H70.1953V228.888H71.0129ZM70.6092 228.479H70.6043V229.297H70.6092V228.479ZM80.4591 242.24C73.9892 238.504 70.9077 233.648 71.0183 228.898L70.2007 228.879C70.0804 234.034 73.4288 239.125 80.05 242.948L80.4591 242.24ZM126.635 242.24C120.28 245.909 111.925 247.755 103.547 247.755C95.1693 247.755 86.8145 245.909 80.4591 242.24L80.05 242.948C86.5588 246.706 95.0641 248.573 103.547 248.573C112.03 248.573 120.535 246.706 127.044 242.948L126.635 242.24ZM136.076 228.898C136.186 233.648 133.105 238.504 126.635 242.24L127.044 242.948C133.665 239.125 137.014 234.034 136.894 228.879L136.076 228.898ZM136.51 228.479H136.485V229.297H136.51V228.479ZM136.101 223.384V228.888H136.919V223.384H136.101ZM134.947 223.793H136.51V222.975H134.947V223.793Z" fill="#060606"/>
</mask>
<g mask="url(#mask4_3309_15569)">
<path d="M103.562 223.384H70.6081V250.279H103.562V223.384Z" fill="#2F3133"/>
</g>
<path d="M126.84 216.774L126.636 217.128L126.84 216.774ZM134.948 224.46L134.589 224.657L134.706 224.868H134.948V224.46ZM80.255 216.774L80.4595 217.128L80.255 216.774ZM72.148 224.46V224.868H72.39L72.5064 224.657L72.148 224.46ZM70.6043 224.46V224.051H70.1953V224.46H70.6043ZM70.6043 229.964H70.1953V230.373H70.6043V229.964ZM70.6102 229.964L71.0188 229.973L71.0285 229.555H70.6102V229.964ZM80.255 243.669L80.0505 244.024L80.255 243.669ZM126.84 243.669L127.045 244.024L126.84 243.669ZM136.485 229.964V229.555H136.067L136.076 229.973L136.485 229.964ZM136.51 229.964V230.373H136.919V229.964H136.51ZM136.51 224.46H136.919V224.051H136.51V224.46ZM126.636 217.128C130.45 219.33 133.09 221.926 134.589 224.657L135.306 224.263C133.718 221.37 130.954 218.676 127.045 216.419L126.636 217.128ZM80.4595 217.128C86.8149 213.458 95.1703 211.612 103.548 211.612C111.925 211.612 120.281 213.458 126.636 217.128L127.045 216.419C120.536 212.661 112.031 210.794 103.548 210.794C95.0647 210.794 86.5593 212.661 80.0505 216.419L80.4595 217.128ZM72.5064 224.657C74.0053 221.926 76.6456 219.33 80.4595 217.128L80.0505 216.419C76.1416 218.676 73.3771 221.37 71.7891 224.263L72.5064 224.657ZM70.6043 224.868H72.148V224.051H70.6043V224.868ZM71.0129 229.964V224.46H70.1953V229.964H71.0129ZM70.6102 229.555H70.6043V230.373H70.6102V229.555ZM80.4595 243.315C73.9897 239.58 70.9082 234.724 71.0188 229.973L70.2011 229.954C70.0809 235.11 73.4292 240.201 80.0505 244.024L80.4595 243.315ZM126.636 243.315C120.281 246.985 111.925 248.831 103.548 248.831C95.1698 248.831 86.8149 246.985 80.4595 243.315L80.0505 244.024C86.5593 247.782 95.0647 249.649 103.548 249.649C112.031 249.649 120.536 247.782 127.045 244.024L126.636 243.315ZM136.076 229.973C136.187 234.724 133.105 239.58 126.636 243.315L127.045 244.024C133.666 240.201 137.014 235.11 136.895 229.954L136.076 229.973ZM136.51 229.555H136.485V230.373H136.51V229.555ZM136.101 224.46V229.964H136.919V224.46H136.101ZM134.948 224.868H136.51V224.051H134.948V224.868Z" fill="#060606"/>
<path d="M126.84 235.797C139.704 228.37 139.704 216.328 126.84 208.901C113.976 201.474 93.1188 201.474 80.2546 208.901C67.3904 216.328 67.3904 228.37 80.2546 235.797C93.1188 243.224 113.976 243.224 126.84 235.797Z" fill="white" stroke="#060606" stroke-width="1.68"/>
<path fill-rule="evenodd" clip-rule="evenodd" d="M134.947 216.774C133.404 213.962 130.701 211.317 126.839 209.087C113.975 201.661 93.1184 201.661 80.2542 209.087C76.3926 211.317 73.6904 213.962 72.1472 216.774H70.6035V222.278H70.6093C70.4939 227.231 73.7089 232.205 80.2542 235.983C93.1184 243.411 113.975 243.411 126.839 235.983C133.385 232.205 136.6 227.231 136.485 222.278H136.509V216.774H134.947Z" fill="white"/>
<path d="M126.839 209.087L126.635 209.442L126.839 209.087ZM134.947 216.774L134.588 216.971L134.705 217.183H134.947V216.774ZM80.2541 209.087L80.4586 209.442L80.2541 209.087ZM72.1471 216.774V217.183H72.3891L72.5055 216.971L72.1471 216.774ZM70.6034 216.774V216.365H70.1943V216.774H70.6034ZM70.6034 222.278H70.1943V222.687H70.6034V222.278ZM70.6092 222.278L71.0178 222.288L71.0275 221.869H70.6092V222.278ZM80.2541 235.983L80.0496 236.338L80.2541 235.983ZM126.839 235.983L127.044 236.338L126.839 235.983ZM136.485 222.278V221.869H136.066L136.075 222.288L136.485 222.278ZM136.509 222.278V222.687H136.918V222.278H136.509ZM136.509 216.774H136.918V216.365H136.509V216.774ZM126.635 209.442C130.449 211.644 133.089 214.24 134.588 216.971L135.305 216.577C133.717 213.684 130.953 210.99 127.044 208.733L126.635 209.442ZM80.4586 209.442C86.814 205.773 95.1693 203.926 103.547 203.926C111.924 203.926 120.28 205.773 126.635 209.442L127.044 208.733C120.535 204.975 112.03 203.108 103.547 203.108C95.0637 203.108 86.5584 204.975 80.0496 208.733L80.4586 209.442ZM72.5055 216.971C74.0044 214.24 76.6447 211.644 80.4586 209.442L80.0496 208.733C76.1407 210.99 73.3762 213.684 71.7882 216.577L72.5055 216.971ZM70.6034 217.183H72.1471V216.365H70.6034V217.183ZM71.012 222.278V216.774H70.1943V222.278H71.012ZM70.6092 221.869H70.6034V222.687H70.6092V221.869ZM80.4586 235.629C73.9888 231.894 70.9072 227.037 71.0178 222.288L70.2002 222.269C70.0799 227.424 73.4283 232.515 80.0496 236.338L80.4586 235.629ZM126.635 235.629C120.28 239.299 111.924 241.145 103.547 241.145C95.1689 241.145 86.814 239.299 80.4586 235.629L80.0496 236.338C86.5584 240.096 95.0637 241.963 103.547 241.963C112.03 241.963 120.535 240.096 127.044 236.338L126.635 235.629ZM136.075 222.288C136.186 227.037 133.104 231.894 126.635 235.629L127.044 236.338C133.665 232.515 137.013 227.424 136.894 222.269L136.075 222.288ZM136.509 221.869H136.485V222.687H136.509V221.869ZM136.1 216.774V222.278H136.918V216.774H136.1ZM134.947 217.183H136.509V216.365H134.947V217.183Z" fill="#060606"/>
<mask id="mask5_3309_15569" style="mask-type:alpha" maskUnits="userSpaceOnUse" x="70" y="202" width="67" height="39">
<path fill-rule="evenodd" clip-rule="evenodd" d="M134.947 215.699C133.404 212.888 130.701 210.243 126.84 208.013C113.976 200.586 93.1188 200.586 80.2547 208.013C76.393 210.243 73.6909 212.888 72.1477 215.699H70.6045V221.204H70.6094C70.494 226.157 73.7094 231.13 80.2547 234.909C93.1188 242.336 113.976 242.336 126.84 234.909C133.386 231.13 136.601 226.157 136.485 221.204H136.51V215.699H134.947Z" fill="white"/>
<path d="M134.947 215.699L134.588 215.896L134.705 216.108H134.947V215.699ZM72.1476 215.699V216.108H72.3896L72.506 215.896L72.1476 215.699ZM70.6044 215.699V215.29H70.1953V215.699H70.6044ZM70.6044 221.204H70.1953V221.613H70.6044V221.204ZM70.6093 221.204L71.0183 221.213L71.028 220.795H70.6093V221.204ZM136.485 221.204V220.795H136.066L136.076 221.213L136.485 221.204ZM136.51 221.204V221.613H136.919V221.204H136.51ZM136.51 215.699H136.919V215.29H136.51V215.699ZM126.635 208.368C130.45 210.57 133.09 213.166 134.588 215.896L135.306 215.503C133.718 212.61 130.953 209.916 127.044 207.659L126.635 208.368ZM80.4591 208.368C86.8145 204.698 95.1698 202.852 103.547 202.852C111.924 202.852 120.28 204.698 126.635 208.368L127.044 207.659C120.535 203.901 112.03 202.034 103.547 202.034C95.0642 202.034 86.5588 203.901 80.05 207.659L80.4591 208.368ZM72.506 215.896C74.0048 213.166 76.6452 210.57 80.4591 208.368L80.05 207.659C76.1412 209.916 73.3767 212.61 71.7887 215.503L72.506 215.896ZM70.6044 216.108H72.1476V215.29H70.6044V216.108ZM71.0129 221.204V215.699H70.1953V221.204H71.0129ZM70.6093 220.795H70.6044V221.613H70.6093V220.795ZM80.4591 234.555C73.9893 230.82 70.9077 225.963 71.0183 221.213L70.2007 221.194C70.0804 226.35 73.4288 231.441 80.05 235.264L80.4591 234.555ZM126.635 234.555C120.28 238.225 111.925 240.071 103.547 240.071C95.1694 240.071 86.8145 238.225 80.4591 234.555L80.05 235.264C86.5588 239.022 95.0642 240.889 103.547 240.889C112.03 240.889 120.535 239.022 127.044 235.264L126.635 234.555ZM136.076 221.213C136.187 225.963 133.105 230.82 126.635 234.555L127.044 235.264C133.665 231.441 137.014 226.35 136.894 221.194L136.076 221.213ZM136.51 220.795H136.485V221.613H136.51V220.795ZM136.101 215.699V221.204H136.919V215.699H136.101ZM134.947 216.108H136.51V215.29H134.947V216.108Z" fill="#060606"/>
</mask>
<g mask="url(#mask5_3309_15569)">
<path d="M103.562 215.696H70.6081V242.592H103.562V215.696Z" fill="#2F3133"/>
</g>
<path d="M126.839 209.087L126.635 209.442L126.839 209.087ZM134.947 216.774L134.588 216.971L134.705 217.183H134.947V216.774ZM80.2541 209.087L80.4586 209.442L80.2541 209.087ZM72.1471 216.774V217.183H72.3891L72.5055 216.971L72.1471 216.774ZM70.6034 216.774V216.365H70.1943V216.774H70.6034ZM70.6034 222.278H70.1943V222.687H70.6034V222.278ZM70.6092 222.278L71.0178 222.288L71.0275 221.869H70.6092V222.278ZM80.2541 235.983L80.0496 236.338L80.2541 235.983ZM126.839 235.983L127.044 236.338L126.839 235.983ZM136.485 222.278V221.869H136.066L136.075 222.288L136.485 222.278ZM136.509 222.278V222.687H136.918V222.278H136.509ZM136.509 216.774H136.918V216.365H136.509V216.774ZM126.635 209.442C130.449 211.644 133.089 214.24 134.588 216.971L135.305 216.577C133.717 213.684 130.953 210.99 127.044 208.733L126.635 209.442ZM80.4586 209.442C86.814 205.773 95.1693 203.926 103.547 203.926C111.924 203.926 120.28 205.773 126.635 209.442L127.044 208.733C120.535 204.975 112.03 203.108 103.547 203.108C95.0637 203.108 86.5584 204.975 80.0496 208.733L80.4586 209.442ZM72.5055 216.971C74.0044 214.24 76.6447 211.644 80.4586 209.442L80.0496 208.733C76.1407 210.99 73.3762 213.684 71.7882 216.577L72.5055 216.971ZM70.6034 217.183H72.1471V216.365H70.6034V217.183ZM71.012 222.278V216.774H70.1943V222.278H71.012ZM70.6092 221.869H70.6034V222.687H70.6092V221.869ZM80.4586 235.629C73.9888 231.894 70.9072 227.037 71.0178 222.288L70.2002 222.269C70.0799 227.424 73.4283 232.515 80.0496 236.338L80.4586 235.629ZM126.635 235.629C120.28 239.299 111.924 241.145 103.547 241.145C95.1689 241.145 86.814 239.299 80.4586 235.629L80.0496 236.338C86.5584 240.096 95.0637 241.963 103.547 241.963C112.03 241.963 120.535 240.096 127.044 236.338L126.635 235.629ZM136.075 222.288C136.186 227.037 133.104 231.894 126.635 235.629L127.044 236.338C133.665 232.515 137.013 227.424 136.894 222.269L136.075 222.288ZM136.509 221.869H136.485V222.687H136.509V221.869ZM136.1 216.774V222.278H136.918V216.774H136.1ZM134.947 217.183H136.509V216.365H134.947V217.183Z" fill="#060606"/>
<path d="M126.84 228.107C139.704 220.68 139.704 208.639 126.84 201.211C113.976 193.784 93.1188 193.784 80.2546 201.211C67.3904 208.639 67.3904 220.68 80.2546 228.107C93.1188 235.535 113.976 235.535 126.84 228.107Z" fill="#B0F127" stroke="#060606" stroke-width="1.68"/>
<path d="M70.054 72.0818C69.9669 72.0818 69.967 72.0818 69.8799 72.0818L57.6966 66.3351C57.5226 66.2481 57.4355 66.0739 57.4355 65.8998V50.314C57.4355 50.1399 57.5226 50.0528 57.6096 49.9657C57.6966 49.8787 57.7836 49.8787 57.8707 49.8787C57.9577 49.8787 57.9577 49.8787 58.0447 49.8787L70.228 55.7995C70.4021 55.8866 70.4891 56.0607 70.4891 56.2349V71.6465C70.4891 71.8206 70.4021 71.9077 70.3151 71.9948C70.228 71.9948 70.141 72.0818 70.054 72.0818Z" fill="white"/>
<path d="M57.8702 50.3141L70.0535 56.2349V71.6465L57.8702 65.8998V50.3141ZM57.8702 49.4434C57.6962 49.4434 57.5221 49.5304 57.4351 49.6175C57.174 49.7916 57 50.0529 57 50.3141V65.8998C57 66.2481 57.1741 66.5093 57.5221 66.6835L69.7055 72.4302C69.7925 72.5172 69.9665 72.5172 70.0535 72.5172C70.2276 72.5172 70.4016 72.4302 70.4887 72.3431C70.7497 72.1689 70.9238 71.9077 70.9238 71.6465V56.2349C70.9238 55.8866 70.7498 55.6254 70.4017 55.4513L58.2184 49.5304C58.1313 49.4434 58.0443 49.4434 57.8702 49.4434Z" fill="#060606"/>
<path d="M70.0533 72.0817C69.9663 72.0817 69.8792 72.0817 69.7922 71.9946C69.7052 71.9076 69.6182 71.7334 69.6182 71.6464V56.2348C69.6182 56.0606 69.7052 55.8865 69.8793 55.8865L81.8015 49.6173C81.8885 49.6173 81.9755 49.5303 81.9755 49.5303C82.0626 49.5303 82.1496 49.5303 82.2366 49.6173C82.3236 49.7044 82.4106 49.8786 82.4106 49.9656V65.8126C82.4106 65.9867 82.3236 66.1609 82.1496 66.1609L70.2273 72.0817C70.2273 72.0817 70.1403 72.0817 70.0533 72.0817Z" fill="black"/>
<path d="M81.9751 49.8785V65.7255L70.0529 71.6463V56.2347L81.9751 49.8785ZM81.9751 49.0078C81.8011 49.0078 81.714 49.0078 81.54 49.0949L69.6177 55.364C69.3567 55.5382 69.1826 55.7994 69.1826 56.1477V71.5593C69.1826 71.8205 69.3567 72.1688 69.6177 72.2558C69.7918 72.3429 69.8788 72.43 70.0529 72.43C70.2269 72.43 70.3139 72.43 70.401 72.3429L82.3232 66.4221C82.5843 66.2479 82.8453 65.9867 82.8453 65.6384V49.8785C82.8453 49.5302 82.6713 49.269 82.4102 49.0949C82.3232 49.0949 82.1491 49.0078 81.9751 49.0078Z" fill="#060606"/>
<path d="M70.054 56.6701C69.9669 56.6701 69.967 56.6701 69.8799 56.6701L57.6966 50.7493C57.5226 50.6622 57.4355 50.4881 57.4355 50.401C57.4355 50.2269 57.5226 50.0527 57.6966 49.9656L69.8799 43.5224C69.967 43.5224 70.054 43.4353 70.054 43.4353C70.141 43.4353 70.228 43.4353 70.228 43.5224L82.1503 49.5303C82.3243 49.6174 82.4113 49.7915 82.4113 49.8786C82.4113 49.9656 82.3243 50.2269 82.1503 50.2269L70.228 56.496C70.228 56.5831 70.141 56.6701 70.054 56.6701Z" fill="#B0F127"/>
<path d="M70.0535 43.8707L81.9758 49.8786L70.0535 56.1478L57.8702 50.2269L70.0535 43.8707ZM70.0535 43C69.8795 43 69.7925 43 69.6184 43.0871L57.4351 49.5303C57.174 49.7045 57 49.9657 57 50.314C57 50.6623 57.1741 50.9235 57.5221 51.0976L69.7055 57.0185C69.7925 57.1055 69.9665 57.1055 70.0535 57.1055C70.2276 57.1055 70.3146 57.1055 70.4887 57.0185L82.4109 50.7493C82.672 50.5752 82.846 50.314 82.846 49.9657C82.846 49.6174 82.672 49.3562 82.4109 49.1821L70.4887 43.1741C70.3146 43.0871 70.2276 43 70.0535 43Z" fill="#060606"/>
<path d="M16.5 157C21.1944 157 25 152.971 25 148C25 143.029 21.1944 139 16.5 139C11.8056 139 8 143.029 8 148C8 152.971 11.8056 157 16.5 157Z" fill="#B0F127" stroke="black" stroke-width="2" stroke-miterlimit="10"/>
<path d="M310.5 168.5C312.157 168.5 313.5 167.157 313.5 165.5C313.5 163.843 312.157 162.5 310.5 162.5C308.843 162.5 307.5 163.843 307.5 165.5C307.5 167.157 308.843 168.5 310.5 168.5Z" fill="#F5F5F5" stroke="black" stroke-miterlimit="10"/>
<path d="M359.843 85.5995L359.843 85.5986L359.843 85.5995ZM359.493 74.5824L359.462 74.5989L359.434 74.6196L354.598 78.1447L350.821 75.2667C350.657 75.1116 350.443 75.0426 350.229 75.068C350.018 75.0929 349.848 75.2026 349.733 75.3252C349.519 75.5537 349.349 76.0319 349.703 76.4208L353.108 80.3998L350.189 84.2923C349.852 84.6786 350.021 85.1479 350.232 85.3736C350.347 85.4962 350.517 85.6058 350.728 85.6308C350.95 85.6571 351.171 85.5821 351.338 85.4149L354.776 82.3309L359.131 86.3013C359.245 86.4146 359.418 86.5144 359.636 86.4984C359.855 86.4823 360.007 86.3575 360.091 86.2492C360.247 86.0497 360.311 85.7393 360.181 85.463L360.165 85.4286L360.144 85.397L356.915 80.5741L360.388 75.5752L360.413 75.5404L360.431 75.5021C360.56 75.226 360.502 74.9181 360.311 74.715C360.115 74.5057 359.789 74.4246 359.493 74.5824Z" fill="#F5F5F5" stroke="black" stroke-miterlimit="10"/>
<path d="M293.969 148.341L299.898 147.869C300.112 147.86 300.279 147.745 300.378 147.604C300.47 147.471 300.5 147.324 300.5 147.205C300.5 147.085 300.47 146.938 300.378 146.805C300.283 146.669 300.125 146.558 299.923 146.542L294.298 145.672L293.39 140.069C293.371 139.852 293.242 139.695 293.107 139.609C292.976 139.525 292.833 139.5 292.72 139.5C292.607 139.5 292.464 139.525 292.333 139.609C292.2 139.694 292.073 139.847 292.051 140.06L290.988 145.685L286.209 146.459C286.013 146.471 285.829 146.551 285.694 146.701C285.555 146.854 285.5 147.044 285.5 147.215C285.5 147.555 285.722 147.92 286.142 148.02L286.188 148.031L286.235 148.033L291.386 148.272L291.962 152.76C291.972 152.982 292.065 153.19 292.244 153.332C292.42 153.472 292.627 153.51 292.797 153.498C293.089 153.478 293.548 153.259 293.564 152.749L293.969 148.341Z" fill="#F5F5F5" stroke="black" stroke-miterlimit="10"/>
<path d="M31.3253 171.048L26.5411 169.854C26.062 169.732 25.706 170.056 25.5767 170.345C25.5072 170.501 25.4734 170.697 25.5248 170.898C25.5795 171.112 25.7221 171.294 25.932 171.402L25.932 171.403L25.9385 171.406L30.5974 173.728L29.2741 178.432L29.2716 178.441L29.2694 178.45C29.1581 178.91 29.445 179.274 29.7433 179.417C29.8998 179.492 30.1009 179.529 30.3083 179.473C30.5268 179.413 30.7002 179.262 30.8015 179.057L32.9885 174.785L38.5748 176.739L38.5769 176.74C38.7532 176.8 38.9534 176.799 39.1343 176.703C39.3052 176.611 39.4064 176.463 39.4559 176.327C39.5371 176.103 39.5291 175.692 39.1701 175.485L34.4074 172.343L35.888 166.39L35.9028 166.33V166.269C35.9028 165.973 35.7514 165.684 35.4663 165.558C35.327 165.496 35.156 165.477 34.9871 165.535C34.8261 165.591 34.7033 165.704 34.6275 165.841L31.3253 171.048ZM30.6232 173.622C30.6231 173.621 30.6231 173.621 30.6231 173.621L30.6232 173.622Z" fill="#F5F5F5" stroke="black" stroke-miterlimit="10"/>
</svg>
