<svg width="1024" height="1024" viewBox="0 0 1024 1024" fill="none" xmlns="http://www.w3.org/2000/svg">
<rect x="0.5" y="0.5" width="1023" height="1023" rx="179.5" fill="white"/>
<rect x="0.5" y="0.5" width="1023" height="1023" rx="179.5" stroke="#0D0D0D"/>
<path d="M512 978C769.365 978 978 769.365 978 512C978 254.635 769.365 46 512 46C254.636 46 46 254.635 46 512C46 769.365 254.636 978 512 978Z" stroke="#ea4b64" stroke-width="24.4632" stroke-miterlimit="10"/>
<path d="M307.06 356.876H207.098V514.129C207.098 651.572 318.521 762.995 455.964 762.995H661.897C747.502 762.995 816.892 693.606 816.892 608.001V600.858C816.892 549.622 789.867 521.167 775.899 511.149L771.807 508.511C805.916 483.757 816.573 460.363 816.573 406.278V405.237C816.573 325.593 752.009 261.041 672.377 261.041H413.044V612.85C413.044 639.674 434.782 661.412 461.606 661.412C488.43 661.412 510.167 639.674 510.167 612.85V358.177H667.314C694.351 358.177 716.279 380.093 716.279 407.141C716.279 434.178 694.363 456.106 667.314 456.106H613.619V614.187C613.619 695.498 547.21 762.995 465.899 762.995H452.073C372.051 762.995 307.06 697.154 307.06 617.132V356.9V356.876Z" fill="#ea4b64"/>
</svg>
