<svg width="1052" height="1052" viewBox="0 0 1052 1052" fill="none" xmlns="http://www.w3.org/2000/svg">
<path d="M526 1038C808.77 1038 1038 808.77 1038 526C1038 243.23 808.77 14 526 14C243.231 14 14 243.23 14 526C14 808.77 243.231 1038 526 1038Z" stroke="#ea4b64" stroke-width="26.878" stroke-miterlimit="10"/>
<path d="M300.83 355.564H191V528.34C191 679.35 313.423 801.772 464.433 801.772H690.694C784.749 801.772 860.989 725.533 860.989 631.478V623.629C860.989 567.337 831.296 536.072 815.949 525.065L811.453 522.167C848.93 494.97 860.638 469.266 860.638 409.842V408.699C860.638 321.193 789.701 250.269 702.208 250.269H417.275V636.806C417.275 666.277 441.16 690.162 470.631 690.162C500.103 690.162 523.987 666.277 523.987 636.806V356.993H696.646C726.352 356.993 750.443 381.072 750.443 410.791C750.443 440.496 726.365 464.588 696.646 464.588H637.651V638.274C637.651 727.612 564.686 801.772 475.348 801.772H460.158C372.236 801.772 300.83 729.431 300.83 641.51V355.59V355.564Z" fill="#ea4b64"/>
</svg>
