<svg xmlns="http://www.w3.org/2000/svg" width="200" height="40.005" viewBox="0 0 200 40.005"><g transform="translate(0.5 -0.137)"><path d="M35.577,16.337C32.942,10.5,33.054,3.367,26.612.137c.7,4.521-.814,5.673-1.718,6.458A7.363,7.363,0,0,1,28.382,8c-5.314-2.375-15.89-.6-20.131,3.653a8.137,8.137,0,0,1,2.845-2.8C7.07,6.057-.5,7.995-.5,7.995a10.743,10.743,0,0,1,4.993,6.566c1.074,5.005-.054,11.894-4.08,11.894,6.576,8.774,20.757,9.659,25.662,8.949S40.463,25.378,40.463,20.75C40.141,21.18,37.886,21.449,35.577,16.337ZM13.458,24.518c-2.309-.538-3.651-2.53-4.456-4.79,2.094.7,3.221.216,5.637.431a5.139,5.139,0,0,1,4.188,3.66c-.966-.27-3.06,1.237-5.369.7ZM26.5,27.477c-.765.172-2.619-.514-2.115-1.2a3.92,3.92,0,0,1,3.263-.792C28.277,25.808,27.342,27.288,26.5,27.477Zm5.744-7.266c-1.283,1.122-2.9.915-3.64,1.73-.268-.77-.064-3.668,1.546-4.744,2.02-1.35,2.738-.915,3.221-2.045.269,2.314.156,3.937-1.127,5.059ZM199.5,15.1v7.642a6.55,6.55,0,0,1-10.882,4.931,6.551,6.551,0,0,1-10.827-4.954h0V18.166a3.086,3.086,0,0,0,1.357-5.143A2.254,2.254,0,0,1,182.3,15.1v7.55h0a2.047,2.047,0,0,0,4.092,0h0V15.1a2.253,2.253,0,1,1,4.506,0v7.6h0a2.047,2.047,0,0,0,4.092,0h0V15.1a2.253,2.253,0,1,1,4.506,0ZM57.155,12.837H49.167A2.256,2.256,0,0,0,46.914,15.1h0a2.256,2.256,0,0,0,2.048,2.248V33.983a2.256,2.256,0,0,0,2.253,2.258h0a2.256,2.256,0,0,0,2.253-2.258v-5.6a8.206,8.206,0,1,0,3.687-15.545Zm0,11.907a3.7,3.7,0,1,1,3.687-3.7A3.691,3.691,0,0,1,57.155,24.744ZM83.371,12.837A8.208,8.208,0,1,0,87.4,28.2,2.252,2.252,0,0,0,91.563,27V21.049a8.2,8.2,0,0,0-8.193-8.212Zm0,11.907a3.7,3.7,0,1,1,3.687-3.7,3.691,3.691,0,0,1-3.687,3.7ZM70.161,5.857H66.269a2.256,2.256,0,0,0-2.253,2.258h0a2.256,2.256,0,0,0,2.253,2.258h1.638V27a2.253,2.253,0,1,0,4.506,0V8.115h0a2.256,2.256,0,0,0-2.253-2.258Zm38.289,6.98h-.1a2.064,2.064,0,0,0-1.932,1.341l-3.568,9.511-4.2-9.613a2.064,2.064,0,0,0-1.891-1.24h0a2.069,2.069,0,0,0-1.891,2.9l5.9,13.506-3.016,8.042a2.113,2.113,0,0,0,1.974,2.858h0a2.109,2.109,0,0,0,1.974-1.37l3.567-9.511h.015l-.008-.019,5.1-13.608a2.069,2.069,0,0,0-1.932-2.8Zm21.414-.046a6.515,6.515,0,0,0-4.328,1.638,6.552,6.552,0,0,0-10.828,4.977V27a2.253,2.253,0,1,0,4.506,0v-7.55h0a2.047,2.047,0,0,1,4.092,0h0V27a2.253,2.253,0,1,0,4.506,0v-7.6h0a2.047,2.047,0,0,1,4.092,0h0V27a2.253,2.253,0,1,0,4.506,0V19.36A6.562,6.562,0,0,0,129.864,12.791Zm23.725,8.258a2.258,2.258,0,0,0-2.086,1.407,3.686,3.686,0,1,1-2.848-5.059l-1.978,1.983a2.129,2.129,0,0,0-.021,3.008h0a2.118,2.118,0,0,0,3-.021l4.154-4.164a2.13,2.13,0,0,0,.07-2.954l.006-.007a8.21,8.21,0,1,0,1.791,8.917,2.258,2.258,0,0,0-2.088-3.111Z" fill="#ff6363" fill-rule="evenodd"/><path d="M1531.986,61.046a8.212,8.212,0,1,0,8.212,8.212A8.212,8.212,0,0,0,1531.986,61.046Zm0,11.907a3.7,3.7,0,1,1,3.7-3.7,3.7,3.7,0,0,1-3.7,3.7Zm-7.055-11.23a2.258,2.258,0,1,1-1.609-2.758,2.258,2.258,0,0,1,1.609,2.758Zm19.5,2.258a2.258,2.258,0,1,1-1.609-2.758,2.258,2.258,0,0,1,1.609,2.758Zm-12.646-6.515a2.873,2.873,0,1,1-2.047-3.511,2.874,2.874,0,0,1,2.047,3.511Zm8.417.924a2.873,2.873,0,1,1-2.047-3.511,2.874,2.874,0,0,1,2.047,3.511Z" transform="translate(-1365.334 -48.209)" fill="#fff" fill-rule="evenodd"/></g></svg>