<svg xmlns="http://www.w3.org/2000/svg" width="128" height="80.001" viewBox="0 0 128 80.001"><g transform="translate(-1072 -3157)"><rect width="128" height="80" transform="translate(1072 3157)" fill="rgba(255,255,255,0)"/><path d="M53.587,45.824a64.62,64.62,0,0,0,6.677-16.864H44.493V23.28H63.81V20.111H44.493v-9.47H36.61A1.342,1.342,0,0,0,35.227,12v8.106H15.69V23.28H35.227v5.679H19.1v3.169H50.383a55.677,55.677,0,0,1-4.507,11.011c-10.15-3.349-20.983-6.064-27.79-4.392-4.35,1.073-7.153,2.985-8.8,4.991C1.727,52.934,7.147,66.9,23.107,66.9c9.437,0,18.53-5.262,25.577-13.933C59.193,58.022,80,66.7,80,66.7v.525A12.808,12.808,0,0,1,67.19,80.034H12.817A12.814,12.814,0,0,1,0,67.218V12.85A12.812,12.812,0,0,1,12.817.034H67.19A12.809,12.809,0,0,1,80,12.85V54.331s-2.613-.207-14.133-4.065C62.667,49.193,58.37,47.555,53.587,45.824ZM19.447,43.49c-2,.2-5.75,1.083-7.8,2.895-6.15,5.362-2.47,15.166,9.977,15.166,7.233,0,14.463-4.626,20.14-12.031C33.68,45.58,26.84,42.762,19.447,43.49Z" transform="translate(1096 3156.967)" fill="#2386f8"/></g></svg>