<svg width="86" height="86" viewBox="0 0 86 86" fill="none" xmlns="http://www.w3.org/2000/svg">
<rect width="86" height="86" fill="white"/>
<path d="M17.7275 17.7285H23.132V23.1329H17.7275V17.7285Z" fill="#808080"/>
<path d="M32.8605 8H8V32.8606H17.728V37.1842H23.1324V32.8606H32.8604V27.456H37.184V23.1324H32.8604V8H32.8605ZM27.456 27.456H13.4044V13.4044H27.456V27.456Z" fill="#808080"/>
<path d="M17.7275 62.0439H23.132V67.4484H17.7275V62.0439Z" fill="#808080"/>
<path d="M62.0449 17.7285H67.4494V23.1329H62.0449V17.7285Z" fill="#808080"/>
<path d="M42.5879 42.1525V47.9927H47.9924V42.5882H52.3159V37.1838H47.9924V32.8604H42.5879V37.2112V42.1525Z" fill="#808080"/>
<path d="M42.5879 61.9165V67.4481H47.9924V61.9165V57.7199H52.3159V52.3154H47.8256H42.5879V56.9753V61.9165Z" fill="#808080"/>
<path d="M47.9922 67.4502H52.3157V71.7737H47.9922V67.4502Z" fill="#808080"/>
<path d="M37.1836 71.7725V77.177H42.8845H47.9925V71.7725H42.8845H37.1836Z" fill="#808080"/>
<path d="M57.7199 57.7207H52.3154V61.9173V67.4488H57.7075H62.0435V62.0442H57.7199V57.7207Z" fill="#808080"/>
<path d="M62.0449 77.1782H67.5915H72.5327H77.1775V71.7737H72.5327H67.4495V67.4502H62.0449V71.8011V77.1782Z" fill="#808080"/>
<path d="M77.1772 42.59V37.1855H72.5324H67.4492V42.59H72.5324H77.1772Z" fill="#808080"/>
<path d="M71.7715 62.0439H77.176V67.4484H71.7715V62.0439Z" fill="#808080"/>
<path d="M37.1836 27.457H42.588V32.8614H37.1836V27.457Z" fill="#808080"/>
<path d="M62.0439 37.1841V32.8605H77.1764V8H52.3159V13.4044H47.8256H42.5879V17.728H47.8256H52.3159V23.1324H47.9923V27.456H52.3159V32.8604H57.7203V37.184H62.0439V37.1841ZM57.7204 13.4044H71.7719V27.456H57.7204V13.4044Z" fill="#808080"/>
<path d="M57.7207 47.9922H62.0443V52.3157H57.7207V47.9922Z" fill="#808080"/>
<path d="M67.4495 57.7202H62.0449V62.0437H67.5915H71.773V56.9755V52.3157H77.1775V47.9922H72.5327H67.4495V52.0343V57.7202Z" fill="#808080"/>
<path d="M37.1836 17.7285H42.588V23.1329H37.1836V17.7285Z" fill="#808080"/>
<path d="M23.1328 42.5889H27.4564V47.9934H23.1328V42.5889Z" fill="#808080"/>
<path d="M37.1841 37.1855H33.0026H27.4561V42.59H32.8606V47.9945H37.1841V42.1542V37.1855Z" fill="#808080"/>
<path d="M32.8605 67.4494V57.7212H37.1841V52.3168H33.0025H17.728V47.0943V42.5889H13.2377H8V47.9933H13.4045V52.3168H8V77.1774H32.8606V71.7729H37.1841V67.4494H32.8605ZM27.456 71.7728H13.4044V57.7212H27.456V71.7728Z" fill="#808080"/>
</svg>
