<svg width="25" height="24" viewBox="0 0 25 24" fill="none" xmlns="http://www.w3.org/2000/svg">
<g id="single/go">
<path id="Vector" d="M5.44136 0.439428C5.7068 0.173949 6.06212 0.0176536 6.43718 0.00140654C6.81223 -0.0148406 7.17974 0.110141 7.46714 0.351672L7.56239 0.439428L18.0625 10.9401C18.328 11.2056 18.4843 11.5609 18.5005 11.936C18.5168 12.3111 18.3918 12.6786 18.1503 12.966L18.0625 13.0613L7.56239 23.562C7.2889 23.8348 6.9207 23.9916 6.53449 23.9997C6.14828 24.0078 5.77384 23.8666 5.48915 23.6054C5.20446 23.3443 5.03147 22.9834 5.00622 22.5979C4.98098 22.2125 5.10541 21.8321 5.35361 21.5361L5.44136 21.4408L14.8795 12.0007L5.44136 2.56057C5.17589 2.29512 5.01961 1.93977 5.00336 1.5647C4.98711 1.18963 5.11209 0.822097 5.35361 0.534684L5.44136 0.439428Z" fill="#999999"/>
</g>
</svg>
