<svg width="110" height="34" viewBox="0 0 3402 1052" fill="none" xmlns="http://www.w3.org/2000/svg">
<path d="M526 1038C808.77 1038 1038 808.77 1038 526C1038 243.23 808.77 14 526 14C243.231 14 14 243.23 14 526C14 808.77 243.231 1038 526 1038Z" stroke="#ea4b64" stroke-width="26.878" stroke-miterlimit="10"/>
<path d="M1593.1 247.657H1685.02V605.41C1685.02 646.1 1676.19 680.172 1658.54 707.626C1640.89 735.079 1616.87 755.792 1586.48 769.764C1556.33 783.49 1522.62 790.354 1485.37 790.354C1446.88 790.354 1412.57 783.49 1382.42 769.764C1352.27 755.792 1328.49 735.079 1311.09 707.626C1293.93 680.172 1285.35 646.1 1285.35 605.41V247.657H1377.27V605.41C1377.27 631.148 1381.68 652.351 1390.5 669.019C1399.33 685.442 1411.83 697.576 1428.01 705.419C1444.19 713.263 1463.3 717.185 1485.37 717.185C1507.43 717.185 1526.42 713.263 1542.36 705.419C1558.53 697.576 1571.04 685.442 1579.86 669.019C1588.68 652.351 1593.1 631.148 1593.1 605.41V247.657ZM1776.94 218.243H1865.55V698.066L1857.09 783H1776.94V218.243ZM2125.13 580.408V588.129C2125.13 617.544 2121.82 644.63 2115.2 669.387C2108.83 693.899 2099.02 715.224 2085.79 733.363C2072.8 751.502 2056.62 765.596 2037.25 775.646C2018.13 785.451 1995.95 790.354 1970.7 790.354C1945.95 790.354 1924.38 785.696 1905.99 776.382C1887.61 767.067 1872.17 753.831 1859.66 736.672C1847.41 719.514 1837.48 699.046 1829.88 675.27C1822.28 651.493 1816.89 625.265 1813.7 596.586V571.952C1816.89 543.027 1822.28 516.799 1829.88 493.268C1837.48 469.491 1847.41 449.024 1859.66 431.865C1872.17 414.462 1887.49 401.103 1905.62 391.788C1924.01 382.474 1945.46 377.816 1969.97 377.816C1995.46 377.816 2017.89 382.719 2037.25 392.524C2056.86 402.328 2073.16 416.3 2086.16 434.439C2099.15 452.333 2108.83 473.658 2115.2 498.415C2121.82 523.173 2125.13 550.503 2125.13 580.408ZM2036.52 588.129V580.408C2036.52 562.514 2035.05 545.724 2032.11 530.036C2029.16 514.103 2024.26 500.131 2017.4 488.12C2010.78 476.11 2001.71 466.672 1990.19 459.809C1978.92 452.701 1964.82 449.146 1947.91 449.146C1932.22 449.146 1918.74 451.843 1907.46 457.235C1896.19 462.628 1886.75 469.981 1879.15 479.296C1871.55 488.611 1865.55 499.396 1861.13 511.652C1856.97 523.908 1854.15 537.144 1852.68 551.361V617.912C1854.88 636.296 1859.54 653.209 1866.65 668.651C1874 683.849 1884.3 696.105 1897.54 705.419C1910.77 714.489 1927.81 719.024 1948.64 719.024C1965.07 719.024 1978.92 715.715 1990.19 709.096C2001.47 702.478 2010.41 693.286 2017.03 681.52C2023.89 669.509 2028.8 655.537 2031.74 639.605C2034.93 623.672 2036.52 606.513 2036.52 588.129ZM2295 385.17V783H2206.02V385.17H2295ZM2200.14 280.749C2200.14 267.267 2204.55 256.114 2213.37 247.29C2222.44 238.22 2234.94 233.686 2250.88 233.686C2266.56 233.686 2278.94 238.22 2288.01 247.29C2297.08 256.114 2301.62 267.267 2301.62 280.749C2301.62 293.985 2297.08 305.016 2288.01 313.84C2278.94 322.664 2266.56 327.076 2250.88 327.076C2234.94 327.076 2222.44 322.664 2213.37 313.84C2204.55 305.016 2200.14 293.985 2200.14 280.749ZM2574.43 385.17V449.882H2350.15V385.17H2574.43ZM2414.86 287.735H2503.47V673.064C2503.47 685.32 2505.19 694.757 2508.62 701.375C2512.3 707.748 2517.32 712.038 2523.69 714.244C2530.07 716.45 2537.54 717.553 2546.12 717.553C2552.25 717.553 2558.13 717.185 2563.77 716.45C2569.41 715.715 2573.94 714.979 2577.38 714.244L2577.74 781.897C2570.39 784.103 2561.81 786.064 2552.01 787.78C2542.45 789.496 2531.42 790.354 2518.92 790.354C2498.57 790.354 2480.55 786.799 2464.87 779.691C2449.18 772.337 2436.92 760.449 2428.1 744.026C2419.27 727.603 2414.86 705.787 2414.86 678.579V287.735ZM3002.05 709.832V783H2717.83V709.832H3002.05ZM2743.94 247.657V783H2651.65V247.657H2743.94ZM2964.91 471.207V543.272H2717.83V471.207H2964.91ZM3000.21 247.657V321.194H2717.83V247.657H3000.21ZM3136.25 385.17L3211.99 517.167L3289.21 385.17H3386.64L3266.04 580.408L3391.42 783H3293.99L3213.1 645.488L3132.21 783H3034.4L3159.41 580.408L3039.18 385.17H3136.25Z" fill="#ea4b64"/>
<path d="M292.848 355.564H186.074V528.34C186.074 679.35 305.089 801.772 451.896 801.772H671.86C763.297 801.772 837.415 725.533 837.415 631.478V623.629C837.415 567.337 808.548 536.072 793.629 525.065L789.258 522.167C825.691 494.97 837.074 469.266 837.074 409.842V408.699C837.074 321.193 768.111 250.269 683.053 250.269H406.052V636.806C406.052 666.277 429.271 690.162 457.922 690.162C486.574 690.162 509.793 666.277 509.793 636.806V356.993H677.646C706.525 356.993 729.946 381.072 729.946 410.791C729.946 440.496 706.538 464.588 677.646 464.588H620.293V638.274C620.293 727.612 549.359 801.772 462.508 801.772H447.74C362.266 801.772 292.848 729.431 292.848 641.51V355.59V355.564Z" fill="#ea4b64"/>
</svg>
