<svg width="24" height="24" viewBox="0 0 24 24" fill="none" xmlns="http://www.w3.org/2000/svg">
<g id="Group 40009">
<path id="Vector" d="M12 24C15.3137 24 18.3137 22.6568 20.4853 20.4853C22.6568 18.3137 24 15.3137 24 12C24 8.68632 22.6568 5.68632 20.4853 3.51472C18.3137 1.34315 15.3137 0 12 0C8.68632 0 5.68632 1.34315 3.51472 3.51472C1.34315 5.68632 0 8.68632 0 12C0 15.3137 1.34315 18.3137 3.51472 20.4853C5.68632 22.6568 8.68632 24 12 24Z" fill="#E39D35"/>
<path id="Vector_2" fill-rule="evenodd" clip-rule="evenodd" d="M12 19.7993C12.8284 19.7993 13.5 19.1277 13.5 18.2993C13.5 17.4709 12.8284 16.7993 12 16.7993C11.1716 16.7993 10.5 17.4709 10.5 18.2993C10.5 19.1277 11.1716 19.7993 12 19.7993Z" fill="#3C270B"/>
<path id="Vector_3" d="M12 4.79932V14.3993" stroke="#3C270B" stroke-width="3" stroke-linecap="round" stroke-linejoin="round"/>
</g>
</svg>
