<svg xmlns="http://www.w3.org/2000/svg" width="40" height="40" viewBox="0 0 40 40" fill="none">
<path d="M27.9945 35.5883H12.0055C4.95469 35.5883 2.8125 33.4461 2.8125 26.3953V13.6047C2.8125 6.55393 4.95469 4.41174 12.0055 4.41174H27.9938C35.0453 4.41174 37.1875 6.55393 37.1875 13.6047V26.3953C37.1875 33.4461 35.0453 35.5883 27.9945 35.5883ZM12.0055 6.8094C6.28125 6.8094 5.21016 7.8969 5.21016 13.6047V26.3953C5.21016 32.1032 6.28125 33.1907 12.0055 33.1907H27.9938C33.718 33.1907 34.7891 32.1032 34.7891 26.3953V13.6047C34.7891 7.8969 33.718 6.8094 27.9938 6.8094H12.0055Z" fill="#F5F5F5"/>
<path d="M31.1922 14.804H23.1976C22.5422 14.804 21.9984 14.2602 21.9984 13.6047C21.9984 12.9493 22.5422 12.4055 23.1976 12.4055H31.1922C31.8476 12.4055 32.3914 12.9493 32.3914 13.6047C32.3906 14.2602 31.8476 14.804 31.1922 14.804ZM31.1922 21.1993H24.7969C24.1414 21.1993 23.5976 20.6555 23.5976 20C23.5976 19.3446 24.1414 18.8008 24.7969 18.8008H31.1922C31.8476 18.8008 32.3914 19.3446 32.3914 20C32.3914 20.6555 31.8476 21.1993 31.1922 21.1993ZM31.1922 27.5946H27.9945C27.339 27.5946 26.7953 27.0508 26.7953 26.3954C26.7953 25.7399 27.339 25.1961 27.9945 25.1961H31.1922C31.8476 25.1961 32.3914 25.7399 32.3914 26.3954C32.3914 27.0508 31.8476 27.5946 31.1922 27.5946Z" fill="#F5F5F5"/>
<path d="M14.4039 20.0641C12.1492 20.0641 10.3109 18.2258 10.3109 15.9711C10.3109 13.7165 12.1492 11.8782 14.4039 11.8782C16.6586 11.8782 18.4969 13.7165 18.4969 15.9711C18.4969 18.2258 16.6586 20.0641 14.4039 20.0641ZM14.4039 14.2766C13.4766 14.2766 12.7094 15.0438 12.7094 15.9711C12.7094 16.8985 13.4766 17.6657 14.4039 17.6657C15.3313 17.6657 16.0984 16.8985 16.0984 15.9711C16.0992 15.0438 15.3313 14.2766 14.4039 14.2766ZM20 28.1219C19.3922 28.1219 18.8648 27.6586 18.8008 27.0344C18.625 25.3079 17.2336 23.9165 15.4914 23.7571C14.7574 23.693 14.0192 23.693 13.2852 23.7571C11.5422 23.9172 10.1516 25.2922 9.97578 27.0344C9.91172 27.6899 9.32031 28.1852 8.66485 28.1055C8.00938 28.0415 7.52969 27.45 7.59375 26.7946C7.88125 23.9165 10.168 21.6305 13.0617 21.3743C13.9414 21.2946 14.8367 21.2946 15.7156 21.3743C18.5938 21.6461 20.8961 23.9321 21.1836 26.7946C21.2477 27.45 20.768 28.0415 20.1125 28.1055C20.0797 28.1219 20.032 28.1219 20 28.1219Z" fill="#ea4b64"/>
</svg>
