<svg xmlns="http://www.w3.org/2000/svg" width="40" height="40" viewBox="0 0 40 40" fill="none">
<path d="M29.569 5H10.431C7.41379 5 5 7.41379 5 10.431V29.569C5 32.5862 7.41379 35 10.431 35H29.569C32.5862 35 35 32.5862 35 29.569V10.431C35 7.41379 32.5862 5 29.569 5ZM32.3276 29.569C32.3276 31.0345 31.1207 32.3276 29.569 32.3276H10.431C8.96552 32.3276 7.67241 31.1207 7.67241 29.569V10.431C7.67241 8.96552 8.87931 7.67241 10.431 7.67241H29.569C31.0345 7.67241 32.3276 8.87931 32.3276 10.431V29.569Z" fill="#F5F5F5"/>
<path d="M10.431 13.1894C10.431 13.7382 10.649 14.2644 11.037 14.6524C11.425 15.0404 11.9513 15.2584 12.5 15.2584C13.0487 15.2584 13.575 15.0404 13.963 14.6524C14.351 14.2644 14.569 13.7382 14.569 13.1894C14.569 12.6407 14.351 12.1145 13.963 11.7265C13.575 11.3385 13.0487 11.1205 12.5 11.1205C11.9513 11.1205 11.425 11.3385 11.037 11.7265C10.649 12.1145 10.431 12.6407 10.431 13.1894Z" fill="#ea4b64"/>
<path d="M25.0862 19.2239C23.9655 18.1032 22.2413 18.1894 21.2069 19.2239C21.1207 19.3101 21.1207 19.3963 21.0344 19.4825L17.931 24.4825C17.4138 23.8791 17.0689 23.4481 16.8103 23.1894L16.2069 22.6722L16.1207 22.586C15.0862 21.5515 13.362 21.5515 12.2413 22.6722C12.1551 22.7584 12.0689 22.8446 12.0689 22.9308C11.9827 23.017 11.5517 23.7067 9.2241 26.3791V26.4653C8.79307 27.0687 8.87927 27.8446 9.39652 28.3618C9.65514 28.5343 9.99996 28.7067 10.2586 28.7067C10.6896 28.7067 11.1207 28.4481 11.3793 28.1032C13.1034 26.0343 13.8793 25.086 14.3103 24.5687L14.3965 24.655C14.5689 24.9136 15.1724 25.6032 16.6379 27.4136C16.7241 27.7584 16.8965 28.017 17.1551 28.1894C17.4138 28.3618 17.6724 28.3618 17.931 28.3618C18.362 28.3618 18.7931 28.1032 19.0517 27.7584L23.1034 21.2929L23.1896 21.3791C23.362 21.5515 24.3103 22.4136 29.0517 27.9308C29.5689 28.5343 30.431 28.5343 30.9482 28.1032C31.4655 27.6722 31.5517 26.7239 31.1207 26.2067C28.7931 23.3618 25.9482 20.086 25.0862 19.2239Z" fill="#ea4b64"/>
</svg>
