<svg width="24" height="24" viewBox="0 0 24 24" fill="none" xmlns="http://www.w3.org/2000/svg">
<g id="proof-of-address-d">
<rect id="Rectangle 6338" x="3.75" y="4.75" width="16.5" height="14.5" rx="1.25" stroke="#F5F5F5" stroke-width="1.5"/>
<path id="Star 1" d="M11.6797 6.64892C11.8107 6.38348 12.1893 6.38348 12.3203 6.64892L13.3864 8.80909C13.4384 8.91449 13.5389 8.98755 13.6553 9.00446L16.0392 9.35086C16.3321 9.39342 16.4491 9.75341 16.2371 9.96003L14.5121 11.6415C14.4279 11.7235 14.3895 11.8417 14.4094 11.9576L14.8166 14.3318C14.8666 14.6236 14.5604 14.8461 14.2984 14.7083L12.1662 13.5874C12.0621 13.5327 11.9379 13.5327 11.8338 13.5874L9.7016 14.7083C9.43959 14.8461 9.13336 14.6236 9.1834 14.3318L9.59062 11.9576C9.61049 11.8417 9.57208 11.7235 9.48791 11.6415L7.76291 9.96003C7.55094 9.75341 7.66791 9.39342 7.96085 9.35086L10.3447 9.00446C10.4611 8.98755 10.5616 8.91449 10.6136 8.80909L11.6797 6.64892Z" fill="#ea4b64"/>
<path id="Line 41" d="M15 17H9" stroke="#ea4b64" stroke-width="1.5" stroke-linecap="round"/>
</g>
</svg>
