<svg width="40" height="40" viewBox="0 0 40 40" fill="none" xmlns="http://www.w3.org/2000/svg">
<path d="M18.0562 21.5354L20.0196 20.5598L22.7726 21.9273C22.8766 21.9787 22.9928 22.0002 23.1083 21.9895C23.2238 21.9788 23.3341 21.9362 23.4269 21.8666C23.5196 21.797 23.5911 21.703 23.6335 21.5951C23.6758 21.4872 23.6874 21.3697 23.6668 21.2556L23.151 18.4096L25.306 16.4235C25.3933 16.3431 25.4559 16.2396 25.4866 16.125C25.5172 16.0104 25.5146 15.8894 25.4791 15.7762C25.4434 15.663 25.3764 15.5622 25.2857 15.4857C25.195 15.4091 25.0844 15.3599 24.9668 15.3438L21.9546 14.931L20.5746 12.2882C20.5215 12.187 20.4417 12.1024 20.3439 12.0433C20.2461 11.9843 20.1341 11.9531 20.0198 11.9531C19.9056 11.9531 19.7936 11.9843 19.6958 12.0434C19.5981 12.1024 19.5183 12.1871 19.4652 12.2882L18.0846 14.931L15.0713 15.3438C14.9538 15.3601 14.8434 15.4094 14.7528 15.486C14.6623 15.5627 14.5953 15.6635 14.5598 15.7766C14.5244 15.8898 14.5219 16.0107 14.5526 16.1252C14.5833 16.2397 14.6459 16.3432 14.7332 16.4234L16.8888 18.4096L16.3729 21.2556C16.3525 21.3696 16.3641 21.4871 16.4065 21.5949C16.4489 21.7027 16.5205 21.7966 16.6132 21.8661C16.7059 21.9357 16.8161 21.9782 16.9316 21.9889C17.047 21.9996 17.1632 21.9781 17.2671 21.9268L18.0562 21.5354Z" fill="#ea4b64"/>
<path d="M25.0353 25.0391H15.0038C14.1676 25.0391 13.75 25.4558 13.75 26.2893C13.75 27.1223 14.1675 27.5391 15.0038 27.5391H25.0353C25.871 27.5391 26.2891 27.1223 26.2891 26.2893C26.2891 25.4558 25.871 25.0391 25.0353 25.0391Z" fill="#ea4b64"/>
<rect x="8" y="6" width="24" height="28" rx="3" stroke="#F5F5F5" stroke-width="2"/>
</svg>
