<svg width="20" height="24" viewBox="0 0 20 24" fill="none" xmlns="http://www.w3.org/2000/svg">
<path d="M0 3.38462C6.45161 2.76923 8.70968 1.12821 10 0V24C8.8172 23.5897 5.56268 22.5367 3.22581 20.3077C0.322581 17.5385 0 16.3077 0 14.1538V3.38462Z" fill="#808899"/>
<path d="M10 0C8.70968 1.12821 6.45161 2.76923 0 3.38462V12H10V0Z" fill="#576072"/>
<path d="M20 3.38462C13.5484 2.76923 11.2903 1.12821 10 0V24C11.1828 23.5897 14.4373 22.5367 16.7742 20.3077C19.6774 17.5385 20 16.3077 20 14.1538V3.38462Z" fill="#576072"/>
<path d="M10 0C11.2903 1.12821 13.5484 2.76923 20 3.38462V12H10V0Z" fill="#808899"/>
</svg>
