<svg width="24" height="24" viewBox="0 0 24 24" fill="none" xmlns="http://www.w3.org/2000/svg">
<g clip-path="url(#clip0_312_5588)">
<path d="M2.07104 3.38462C8.52266 2.76923 10.7807 1.12821 12.071 0V24C10.8882 23.5897 7.63373 22.5367 5.29685 20.3077C2.39363 17.5385 2.07104 16.3077 2.07104 14.1538V3.38462Z" fill="#83E5DA"/>
<path d="M22.071 3.38462C15.6194 2.76923 13.3614 1.12821 12.071 0V24C13.2538 23.5897 16.5084 22.5367 18.8452 20.3077C21.7485 17.5385 22.071 16.3077 22.071 14.1538V3.38462Z" fill="#D5ED86"/>
<mask id="mask0_312_5588" style="mask-type:alpha" maskUnits="userSpaceOnUse" x="2" y="0" width="11" height="24">
<path d="M2.07104 3.38462C8.52266 2.76923 10.7807 1.12821 12.071 0V24C10.8882 23.5897 7.63373 22.5367 5.29685 20.3077C2.39363 17.5385 2.07104 16.3077 2.07104 14.1538V3.38462Z" fill="#83E5DA"/>
</mask>
<g mask="url(#mask0_312_5588)">
<path d="M-1.26227 -3H12.0711V12H-1.26227V-3Z" fill="#D5ED86"/>
</g>
<mask id="mask1_312_5588" style="mask-type:alpha" maskUnits="userSpaceOnUse" x="12" y="0" width="11" height="24">
<path d="M22.071 3.38462C15.6194 2.76923 13.3614 1.12821 12.071 0V24C13.2538 23.5897 16.5084 22.5367 18.8452 20.3077C21.7485 17.5385 22.071 16.3077 22.071 14.1538V3.38462Z" fill="#D5ED86"/>
</mask>
<g mask="url(#mask1_312_5588)">
<path d="M12.071 -1H23.1822V12H12.071V-1Z" fill="#83E5DA"/>
</g>
</g>
<defs>
<clipPath id="clip0_312_5588">
<rect width="24" height="24" fill="white"/>
</clipPath>
</defs>
</svg>
