<svg width="66" height="77" viewBox="0 0 66 77" fill="none" xmlns="http://www.w3.org/2000/svg">
<path d="M32.7669 50.5388L0.25 33.8425V20.9026L32.7669 37.5656V50.5388Z" fill="white" stroke="#17191A" stroke-width="0.5" stroke-miterlimit="10"/>
<path d="M32.7659 76.3129L2.3125 59.8001V37.8241L32.7659 53.6377V76.3129Z" fill="white" stroke="#17191A" stroke-width="0.5" stroke-miterlimit="10"/>
<path d="M32.5159 52.6757L2.5625 37.6457V35.0183L32.5159 51.246V52.6757Z" fill="#17191A" stroke="#17191A" stroke-miterlimit="10"/>
<path d="M33.2661 53.6377L63.7195 37.8241V59.8001L33.2661 76.3129V53.6377Z" fill="white" stroke="#17191A" stroke-width="0.5" stroke-miterlimit="10"/>
<path d="M33.2661 51.0974L63.7195 34.5985L63.7195 37.8003L33.2661 53.0813V51.0974Z" fill="#17191A" stroke="#17191A" stroke-width="0.5" stroke-miterlimit="10"/>
<path d="M33.2661 37.5656L65.7492 20.9028V33.8426L33.2661 50.5386V37.5656Z" fill="white" stroke="#17191A" stroke-width="0.5" stroke-miterlimit="10"/>
<path d="M33.0169 37.1326L0.551252 20.496L33.0169 4.09217L65.4492 20.496L33.0169 37.1326Z" fill="white" stroke="#17191A" stroke-width="0.5" stroke-miterlimit="10"/>
<path d="M18.7276 43.1121L13.921 40.8766L14.2775 28.2359L18.7276 30.4616V43.1121Z" fill="#B0F127" stroke="#17191A" stroke-width="0.5" stroke-miterlimit="10"/>
<path d="M19.5401 69.1279L14.7315 66.3706L15.0944 44.9879L19.5401 47.2114V69.1279Z" fill="#B0F127" stroke="#17191A" stroke-width="0.5" stroke-miterlimit="10"/>
<path d="M47.4422 30.3598L51.9919 28.0996L52.3161 40.876L47.5071 43.1127L47.4422 30.3598Z" fill="#B0F127" stroke="#17191A" stroke-width="0.5" stroke-miterlimit="10"/>
<path d="M46.6978 47.2114L51.1435 44.9879L51.5064 66.3706L46.6978 69.1279V47.2114Z" fill="#B0F127" stroke="#17191A" stroke-width="0.5" stroke-miterlimit="10"/>
<path d="M19.0801 30.1599L14.9093 27.9688L46.485 10.9285L51.3114 13.3575L19.0801 30.1599Z" fill="#B0F127" stroke="#17191A" stroke-width="0.5" stroke-miterlimit="10"/>
<path d="M15.0291 13.1888L19.8882 10.7586L51.5961 27.5989L47.1907 29.9229L15.0291 13.1888Z" fill="#B0F127" stroke="#17191A" stroke-width="0.5" stroke-miterlimit="10"/>
<path d="M31.3514 14.8977L29.0474 15.4611C29.0167 15.3915 28.9762 15.3094 28.924 15.2194C28.7707 14.9555 28.5147 14.6221 28.1025 14.3372C27.2688 13.7609 25.8561 13.4219 23.5077 14.13C22.9292 14.3036 22.4053 14.7532 21.9533 15.3354C21.4983 15.9216 21.0978 16.6656 20.7726 17.4691C20.124 19.0718 19.7572 20.9563 19.8799 22.3768L19.8801 22.3784C19.9511 23.1421 20.2493 24.1959 20.7684 25.2256C21.1 25.8836 21.5263 26.5406 22.0494 27.1095C21.4867 26.885 20.7765 26.5673 20.0319 26.1474C18.3244 25.1845 16.4789 23.7093 15.7647 21.6311C15.0526 19.5588 15.6378 16.8097 16.877 14.5267C17.4937 13.3906 18.2641 12.3865 19.0949 11.6549C19.928 10.9213 20.8032 10.4776 21.6327 10.423C22.4748 10.3756 23.5271 10.6369 24.6513 11.0767C25.7705 11.5145 26.9361 12.119 27.9957 12.7331C29.0545 13.3467 30.0026 13.967 30.6863 14.4341C30.9508 14.6148 31.1754 14.7725 31.3514 14.8977Z" fill="#B0F127" stroke="#17191A" stroke-width="0.5" stroke-miterlimit="10" stroke-linejoin="round"/>
<path d="M50.133 4.92135L50.1338 4.9223C51.2435 6.20435 51.1952 8.31195 50.496 10.3935C49.8003 12.4644 48.4978 14.3905 47.2705 15.2466L47.2701 15.2468C45.765 16.3007 44.0715 17.1819 42.3328 18.0135C41.7018 18.3154 41.0627 18.6115 40.4249 18.9071C39.3136 19.4222 38.2061 19.9356 37.1512 20.4739L37.1504 20.4743C34.849 21.6592 32.5647 22.8609 30.2815 24.0621L30.2812 24.0622C28.0165 25.2536 25.7529 26.4444 23.473 27.6187C23.4619 27.613 23.4481 27.6057 23.431 27.5963C23.426 27.5935 23.4204 27.5904 23.4145 27.5871C23.3798 27.5679 23.3315 27.541 23.2868 27.5217C23.2591 27.5098 23.2225 27.4961 23.1811 27.4882C23.1801 27.488 23.179 27.4878 23.178 27.4877C23.1676 27.4797 23.156 27.4706 23.1431 27.4605C23.0803 27.4113 22.9887 27.3377 22.8757 27.2414C22.6496 27.0488 22.3383 26.7661 22 26.4079C21.3682 25.7385 20.6522 24.8157 20.2145 23.7317L26.6486 21.7476L26.6729 21.7401L26.6952 21.7279C27.1664 21.4694 27.6264 21.204 28.0864 20.9386C28.6735 20.5998 29.2609 20.2609 29.8722 19.936L29.8734 19.9354C30.1184 19.8034 30.3302 19.631 30.4625 19.3994C30.5975 19.163 30.6358 18.8894 30.5756 18.5856C30.4324 17.8018 29.9474 17.1307 29.5258 16.5475C29.5122 16.5286 29.4986 16.5098 29.4851 16.4911C29.3801 16.341 29.2727 16.1784 29.1602 16.0081C28.785 15.4399 28.353 14.7856 27.7625 14.2218L27.7625 14.2218L27.7588 14.2184C27.6718 14.1386 27.4676 13.9076 27.1973 13.5874C26.9324 13.2734 26.6163 12.8888 26.3122 12.5149C26.1233 12.2825 25.9391 12.0546 25.7751 11.8509C25.8955 11.9021 26.0203 11.9547 26.1446 12.0066C26.4644 12.1401 26.7848 12.2699 27.0203 12.356C27.136 12.3983 27.2403 12.4334 27.3159 12.4522C27.3375 12.4575 27.3746 12.4664 27.4153 12.4692C27.8819 12.7419 28.2615 13.013 28.6188 13.2682C28.6734 13.3072 28.7275 13.3458 28.7813 13.384C29.2042 13.6844 29.6129 13.9614 30.0975 14.1593C32.2411 15.0923 34.6519 15.3312 36.9496 15.0915C37.8118 15.0222 38.6707 14.8501 39.4809 14.6812L39.4809 14.6813L39.4866 14.6799C40.7864 14.3772 41.928 13.5623 42.8595 12.5222C43.7915 11.4815 44.5251 10.2026 45.008 8.94352C45.6243 7.37503 45.5415 5.91445 45.1777 4.49769C44.9311 3.53755 44.5484 2.57755 44.1664 1.61915C44.0578 1.34685 43.9493 1.07468 43.844 0.802677C43.9045 0.82489 43.9698 0.849336 44.0396 0.876047C44.474 1.04224 45.0812 1.29581 45.7699 1.64442C47.1502 2.34315 48.8435 3.4165 50.133 4.92135ZM23.5092 27.6348C23.5092 27.6348 23.5092 27.6348 23.5092 27.6348L23.5092 27.6348Z" fill="black" stroke="#17191A" stroke-width="0.5" stroke-miterlimit="10"/>
<path d="M35.4987 19.8574L32.2471 14.9786C32.2533 14.9617 32.2602 14.9432 32.2677 14.9229C32.3099 14.809 32.3725 14.6419 32.4539 14.4292C32.6167 14.0038 32.8544 13.3964 33.154 12.6696C33.7533 11.2153 34.5992 9.28514 35.5863 7.37764C36.5749 5.4674 37.6989 3.59228 38.8523 2.24031C39.4291 1.56422 40.0049 1.02889 40.5658 0.684102C41.1258 0.339839 41.654 0.195453 42.148 0.268555C43.564 0.482713 44.8974 1.05283 45.8822 1.57461C46.3734 1.83485 46.775 2.08149 47.0532 2.26269C47.0804 2.28042 47.1064 2.29751 47.1312 2.31393C45.6894 3.05006 44.2825 4.43927 42.9787 6.10513C41.549 7.93199 40.2221 10.1196 39.0896 12.2198C37.9565 14.3211 37.0148 16.3408 36.3566 17.8348C36.0273 18.5819 35.7688 19.198 35.5925 19.6276C35.5581 19.7115 35.5268 19.7882 35.4987 19.8574Z" fill="#B0F127" stroke="#17191A" stroke-width="0.5" stroke-miterlimit="10"/>
</svg>
