<svg width="24" height="24" viewBox="0 0 24 24" fill="none" xmlns="http://www.w3.org/2000/svg">
<path d="M0 2C0 0.89543 0.895431 0 2 0H8.90909C10.0137 0 10.9091 0.895431 10.9091 2V11.0909C10.9091 12.1955 10.0137 13.0909 8.90909 13.0909H2C0.895431 13.0909 0 12.1955 0 11.0909V2Z" fill="#D5ED86"/>
<path d="M13.0909 2C13.0909 0.89543 13.9863 0 15.0909 0H22C23.1046 0 24 0.895431 24 2V6.72727C24 7.83184 23.1046 8.72727 22 8.72727H15.0909C13.9863 8.72727 13.0909 7.83184 13.0909 6.72727V2Z" fill="#83E5DA"/>
<path d="M0 17.2727C0 16.1682 0.895431 15.2727 2 15.2727H8.90909C10.0137 15.2727 10.9091 16.1682 10.9091 17.2727V22C10.9091 23.1046 10.0137 24 8.90909 24H2C0.895431 24 0 23.1046 0 22V17.2727Z" fill="#83E5DA"/>
<path d="M13.0908 12.9091C13.0908 11.8045 13.9863 10.9091 15.0908 10.9091H21.9999C23.1045 10.9091 23.9999 11.8045 23.9999 12.9091V22C23.9999 23.1046 23.1045 24 21.9999 24H15.0908C13.9863 24 13.0908 23.1046 13.0908 22V12.9091Z" fill="#D5ED86"/>
</svg>
