<svg width="24" height="24" viewBox="0 0 24 24" fill="none" xmlns="http://www.w3.org/2000/svg">
<g id="single/go">
<path id="Vector" d="M23.5606 5.43941C23.8261 5.70484 23.9823 6.06017 23.9986 6.43522C24.0148 6.81028 23.8899 7.17779 23.6483 7.46519L23.5606 7.56044L13.0599 18.0606C12.7944 18.3261 12.4391 18.4823 12.064 18.4986C11.6889 18.5148 11.3214 18.3899 11.034 18.1483L10.9387 18.0606L0.438049 7.56044C0.165226 7.28694 0.0084323 6.91875 0.000331812 6.53254C-0.00776868 6.14633 0.133448 5.77188 0.394564 5.48719C0.65568 5.2025 1.01656 5.02952 1.40205 5.00427C1.78754 4.97902 2.16791 5.10346 2.46393 5.35165L2.55919 5.43941L11.9993 14.8775L21.4394 5.43941C21.7049 5.17394 22.0602 5.01765 22.4353 5.00141C22.8104 4.98516 23.1779 5.11014 23.4653 5.35165L23.5606 5.43941Z" fill="#999999"/>
</g>
</svg>
