<svg width="24" height="24" viewBox="0 0 24 24" fill="none" xmlns="http://www.w3.org/2000/svg">
<g id="single/go">
<path id="Vector" d="M0.439428 18.5606C0.173949 18.2952 0.0176536 17.9398 0.00140648 17.5648C-0.0148406 17.1897 0.110141 16.8222 0.351672 16.5348L0.439428 16.4396L10.9401 5.9394C11.2056 5.67394 11.5609 5.51765 11.936 5.50141C12.3111 5.48516 12.6786 5.61013 12.966 5.85165L13.0613 5.9394L23.562 16.4396C23.8348 16.7131 23.9916 17.0812 23.9997 17.4675C24.0078 17.8537 23.8666 18.2281 23.6054 18.5128C23.3443 18.7975 22.9834 18.9705 22.5979 18.9957C22.2125 19.021 21.8321 18.8965 21.5361 18.6483L21.4408 18.5606L12.0007 9.12245L2.56057 18.5606C2.29512 18.8261 1.93977 18.9823 1.5647 18.9986C1.18963 19.0148 0.822097 18.8899 0.534684 18.6483L0.439428 18.5606Z" fill="#999999"/>
</g>
</svg>
