<svg width="24" height="24" viewBox="0 0 24 24" fill="none" xmlns="http://www.w3.org/2000/svg">
<path d="M18.0363 5.99869C18.0363 9.31167 15.3505 11.9974 12.0376 11.9974C8.72458 11.9974 6.03888 9.31167 6.03888 5.99869C6.03888 2.6857 8.72458 0 12.0376 0C15.3505 0 18.0363 2.6857 18.0363 5.99869Z" fill="#D5ED86"/>
<path d="M0 19.9524C0 16.665 2.91988 14 6.52174 14H17.4783C21.0801 14 24 16.665 24 19.9524V22.8095C24 23.467 23.416 24 22.6957 24H1.30435C0.583976 24 0 23.467 0 22.8095V19.9524Z" fill="#D5ED86"/>
<path d="M22.0057 20.1181C22.0094 20.1038 22.0123 20.0918 22.0127 20.084L22.0151 20.0779L22.0185 20.0599C22.0661 19.7747 21.9551 19.5358 21.7346 19.4502L21.6983 19.436C21.3224 19.29 21.135 18.8696 21.2784 18.5005C21.3116 18.415 21.3989 18.3094 21.4326 18.2733C21.6347 18.0692 21.6297 17.7451 21.4214 17.5L20.7714 16.7146L20.758 16.7033C20.7038 16.6594 20.6411 16.6078 20.5607 16.5766C20.4106 16.5183 20.2154 16.5214 20.0709 16.5838C19.8908 16.6604 19.5517 16.7473 19.3939 16.686C19.2369 16.625 19.0443 16.3325 18.9634 16.1536C18.8941 16.002 18.7648 15.8789 18.607 15.8176C18.5243 15.7855 18.4458 15.7813 18.3759 15.7779L18.3599 15.7778L17.3094 15.9043L17.3028 15.9052C17.041 15.9536 16.839 16.2192 16.8543 16.4982L16.8547 16.5019L16.855 16.5055C16.8575 16.5495 16.861 16.6965 16.818 16.8071C16.674 17.1778 16.251 17.3593 15.8766 17.2139L15.8403 17.1998C15.6098 17.1102 15.3722 17.211 15.2181 17.461L15.209 17.4751L15.207 17.4804C15.204 17.4881 15.1968 17.4975 15.1891 17.5104C15.125 17.618 14.9731 17.8715 14.8869 18.0935C14.8007 18.3154 14.7408 18.6047 14.7162 18.7276C14.7124 18.742 14.7095 18.754 14.7092 18.7618L14.7068 18.7679L14.7034 18.7859C14.6558 19.0711 14.7668 19.31 14.9872 19.3956L15.0058 19.4028C15.3817 19.5488 15.5691 19.9692 15.4257 20.3384C15.3925 20.4238 15.3051 20.5295 15.2715 20.5656C15.0789 20.7567 15.0611 21.0913 15.2304 21.3291L15.2354 21.3345L15.8804 22.103L15.8938 22.1144C15.9479 22.1582 16.0091 22.2092 16.0896 22.2405C16.2613 22.3072 16.4411 22.3024 16.5793 22.2332C16.5912 22.23 16.6041 22.2244 16.6185 22.2195C16.7507 22.1725 17.1044 22.0501 17.28 22.1183C17.4107 22.1691 17.5771 22.3891 17.7131 22.6921C17.7824 22.8437 17.9117 22.9668 18.0695 23.0281C18.1762 23.0695 18.2664 23.0712 18.373 23.0626L18.3766 23.0623L19.3954 22.9305L19.3997 22.9286C19.6615 22.8802 19.8635 22.6146 19.8482 22.3356L19.8478 22.332L19.8474 22.3283C19.8462 22.327 19.8329 22.1664 19.8924 22.05L19.8969 22.0429L19.8998 22.0353C20.0438 21.6646 20.4669 21.4831 20.8412 21.6285L20.8799 21.6436C21.1103 21.7331 21.348 21.6323 21.5021 21.3823L21.5111 21.3682L21.5132 21.3629C21.5171 21.3574 21.5222 21.3489 21.5293 21.3376C21.5929 21.2332 21.741 20.9897 21.834 20.7502C21.9215 20.5296 21.981 20.2411 22.0057 20.1181ZM17.9437 20.4924C17.3489 20.2613 17.0517 19.5989 17.2795 19.0124C17.5074 18.4259 18.1738 18.1379 18.7686 18.369C19.3633 18.6 19.6606 19.2624 19.4327 19.8489C19.2049 20.4354 18.5384 20.7234 17.9437 20.4924Z" fill="#111111"/>
</svg>
