<svg width="24" height="24" viewBox="0 0 24 24" fill="none" xmlns="http://www.w3.org/2000/svg">
<path fill-rule="evenodd" clip-rule="evenodd" d="M5 10H2C0.895431 10 0 10.8954 0 12V22C0 23.1046 0.89543 24 2 24H22C23.1046 24 24 23.1046 24 22V12C24 10.8954 23.1046 10 22 10H19V19H5V10Z" fill="#D5ED86"/>
<path fill-rule="evenodd" clip-rule="evenodd" d="M8 0C6.89543 0 6 0.89543 6 2V18H18V2C18 0.895431 17.1046 0 16 0H8ZM11.1746 3.04078C11.5744 2.50203 12.3808 2.50203 12.7806 3.04078L15.9552 7.31852H12.8963V13.0822C12.8963 13.5895 12.485 14.0007 11.9777 14.0007C11.4704 14.0007 11.0591 13.5895 11.0591 13.0822V7.31852H8L11.1746 3.04078Z" fill="#83E5DA"/>
</svg>
