<svg width="24" height="24" viewBox="0 0 24 24" fill="none" xmlns="http://www.w3.org/2000/svg">
<g clip-path="url(#clip0_1099_57354)">
<path d="M18.0796 12.0953L6.15876 0L4.27196 1.91441L7.44552 5.13441L0.585041 12.0953C-0.195014 12.8868 -0.195014 14.1721 0.585041 14.9635L7.91888 22.4047C8.30558 22.8038 8.81895 23 9.33231 23C9.84568 23 10.3591 22.8038 10.7457 22.4047L18.0796 14.9635C18.8596 14.1721 18.8596 12.8868 18.0796 12.0953ZM2.93854 13.5294L9.33231 7.04882L15.7261 13.5294H2.93854ZM21.3331 15.5588C21.3331 15.5588 18.6663 18.4879 18.6663 20.2941C18.6663 21.7891 19.8597 23 21.3331 23C22.8066 23 24 21.7891 24 20.2941C24 18.4879 21.3331 15.5588 21.3331 15.5588Z" fill="#D5ED86"/>
<path d="M21.3332 15.5588C21.3332 15.5588 18.6663 18.488 18.6663 20.2941C18.6663 21.7891 19.8597 23 21.3332 23C22.8066 23 24 21.7891 24 20.2941C24 18.488 21.3332 15.5588 21.3332 15.5588Z" fill="#83E5DA"/>
</g>
<defs>
<clipPath id="clip0_1099_57354">
<rect width="24" height="24" fill="white"/>
</clipPath>
</defs>
</svg>
