<svg width="20" height="24" viewBox="0 0 20 24" fill="none" xmlns="http://www.w3.org/2000/svg">
<path fill-rule="evenodd" clip-rule="evenodd" d="M9.99994 0C11.3725 1.2 15.2941 3.54 19.9999 3.3V14.4C19.9019 16.6 17.7646 21.6 9.99994 24V15.6794L10.6168 15.8378C11.1625 15.9753 13.2306 16.0012 13.6768 14.1616C13.8198 13.6697 13.7951 13.143 13.6067 12.6672C13.4183 12.1914 13.0772 11.7945 12.639 11.5409C12.639 11.5409 13.914 11.1439 14.0925 9.95553C14.271 8.76715 13.4575 8.21447 12.9858 7.91088C12.6147 7.69278 12.2203 7.51867 11.8102 7.39194L12.136 6.06203C12.2068 5.77313 12.0304 5.48145 11.7417 5.40997C11.4517 5.33817 11.1586 5.5157 11.0879 5.80595L10.7673 7.12209L9.99994 6.92808V6.61029L10.253 5.59031C10.3126 5.35013 10.2029 5.10773 9.99994 4.98863V0ZM9.99994 10.4775V8.09535L10.9458 8.33642C11.1676 8.3935 12.2004 8.85536 11.9658 9.78687C11.9085 10.0441 11.7625 10.2719 11.5543 10.429C11.3461 10.5861 11.0895 10.6621 10.831 10.6431C10.7256 10.6429 10.6205 10.6316 10.5174 10.6094L9.99994 10.4775ZM9.99994 14.2119V11.7133L10.854 11.9327C10.9995 11.9726 11.1356 12.0423 11.2538 12.1376C11.372 12.2328 11.4699 12.3515 11.5415 12.4866C11.6131 12.6216 11.6569 12.77 11.6702 12.9229C11.6835 13.0757 11.6661 13.2297 11.619 13.3754C11.4379 14.1175 10.7214 14.2809 10.3669 14.2809C10.3146 14.2826 10.2623 14.2773 10.2113 14.2654L9.99994 14.2119Z" fill="#D5ED86"/>
<path fill-rule="evenodd" clip-rule="evenodd" d="M9.99995 0C8.6274 1.2 4.70583 3.54 -4.76837e-05 3.3V14.4C0.097991 16.6 2.23525 21.6 9.99995 24V15.6794L9.79831 15.6276L9.49769 16.8494C9.42308 17.1526 9.11559 17.3369 8.81298 17.2598C8.51416 17.1836 8.33252 16.8808 8.40589 16.5813L8.7069 15.3526L7.99545 15.1709L7.7035 16.3644C7.62552 16.6832 7.3026 16.8773 6.98451 16.7966C6.67028 16.7168 6.47908 16.3987 6.55611 16.0838L6.85049 14.8803L5.30885 14.4886C4.975 14.4038 4.7719 14.0658 4.85376 13.7312C4.93667 13.3923 5.28003 13.1861 5.61814 13.2721L6.16709 13.4117C6.26884 13.4376 6.27924 13.3938 6.29701 13.3188L6.29714 13.3183L7.69455 7.62027C7.70475 7.57876 7.72005 7.51649 7.59765 7.48535L6.92247 7.31395C6.62311 7.23796 6.44135 6.93443 6.5157 6.63465C6.59063 6.33256 6.89703 6.14908 7.19871 6.22565L8.8701 6.64985L9.19416 5.32905C9.26588 5.0367 9.56094 4.85776 9.85335 4.92928C9.90619 4.94221 9.95533 4.96242 9.99995 4.9886V0ZM9.99995 6.61048L9.92581 6.90932L9.99995 6.92807V6.61048ZM9.99995 8.09533L9.65296 8.00689L9.09195 10.2461L9.99995 10.4775V8.09533ZM9.99995 11.7133L8.8344 11.4138L8.26065 13.7724L9.99995 14.2119V11.7133Z" fill="#83E5DA"/>
</svg>
