<svg width="24" height="21" viewBox="0 0 24 21" fill="none" xmlns="http://www.w3.org/2000/svg">
<path d="M6.25003 4.5C6.03913 4.5 5.82413 4.5126 5.62503 4.5625C5.50843 4.5921 5.39343 4.642 5.28123 4.6875C5.23783 4.7052 5.19883 4.7299 5.15623 4.75C5.13853 4.7582 5.14263 4.7726 5.12503 4.7812C5.01923 4.8336 4.91223 4.8716 4.81253 4.9375C4.79853 4.9466 4.76393 4.9594 4.75003 4.9688C4.72073 4.9888 4.71623 5.01 4.68753 5.0312C4.60593 5.0898 4.51413 5.1522 4.43753 5.2188C4.36763 5.2816 4.31543 5.3678 4.25003 5.4375C4.02883 5.6644 3.81243 5.9061 3.65623 6.1875C3.38803 6.6578 3.20943 7.173 3.12503 7.7188C3.08433 7.7102 3.03573 7.707 3.00003 7.7188C2.72673 7.8076 2.66583 8.328 2.84383 8.875C2.94823 9.196 3.10413 9.451 3.28123 9.594C3.51923 10.519 4.03093 11.298 4.68753 11.781V12.312L4.15623 12.812L3.12503 13.344C2.28343 13.761 1.43443 14.177 0.593829 14.594C0.127929 14.875 -0.0443814 15.42 2.85725e-05 15.938C0.0217106 16.263 -0.104901 16.689 0.218779 16.906C0.526279 17.064 0.916169 16.974 1.24998 17H3.06248C3.24418 16.762 3.47128 16.542 3.74998 16.375L3.78118 16.344H3.81248C5.22348 15.651 6.61658 14.944 8.03118 14.25L9.65618 13.469C9.56408 13.423 9.46698 13.389 9.37498 13.344L8.34378 12.812L7.81248 12.312V11.781C8.22798 11.476 8.57918 11.034 8.84378 10.531C8.48728 9.955 8.21288 9.293 8.03118 8.594C7.72928 8.284 7.44628 7.9398 7.28118 7.4375C7.11128 6.9204 7.06278 6.3861 7.12498 5.9375C7.18008 5.5401 7.37098 5.1639 7.74998 4.9688C7.63838 4.8963 7.49318 4.8398 7.37498 4.7812C7.31538 4.752 7.27998 4.7123 7.21878 4.6875C7.17528 4.6698 7.13798 4.6716 7.09378 4.6562C6.96088 4.6102 6.82568 4.5548 6.68748 4.5312C6.67688 4.5296 6.66688 4.533 6.65618 4.5312C6.52648 4.5108 6.38293 4.4985 6.25003 4.5Z" fill="#83E5DA"/>
<path d="M13.499 0.199951C13.145 0.199951 12.796 0.199927 12.461 0.299927C12.266 0.299927 12.076 0.4 11.888 0.5C11.815 0.5 11.741 0.499976 11.669 0.599976H11.587C11.41 0.699976 11.236 0.800024 11.068 0.900024H10.986C10.937 1.00002 10.898 0.999976 10.85 1.09998C10.713 1.19998 10.569 1.20002 10.44 1.40002C10.323 1.50002 10.222 1.59995 10.112 1.69995C9.74093 2.09995 9.41883 2.5 9.15653 3C8.70603 3.7 8.36973 4.6 8.22783 5.5H8.03663C7.57763 5.7 7.46463 6.50002 7.76353 7.40002C7.93893 8.00002 8.23083 8.39998 8.52833 8.59998C8.92793 10.2 9.77443 11.4999 10.877 12.2999V13.2L10.003 14L8.25513 14.9C6.84163 15.6 5.43353 16.3 4.02163 17C3.23913 17.4 2.93643 18.4 3.01103 19.2C3.04743 19.8 2.84973 20.4999 3.39333 20.7999C3.90983 21.0999 4.52603 20.9 5.08683 20.9H10.003H16.995C19.064 20.9 21.127 21 23.196 20.9C23.867 20.9 24.053 20.2 23.988 19.6C24 18.8 24.048 17.8999 23.414 17.2999C22.897 16.7999 22.161 16.6 21.53 16.2C20.603 15.8 19.67 15.3 18.744 14.9L16.995 14L16.121 13.2V12.2999C17.224 11.4999 18.071 10.2 18.47 8.59998C18.768 8.39998 19.06 8.00002 19.235 7.40002C19.534 6.50002 19.421 5.7 18.962 5.5H18.771C18.629 4.6 18.293 3.7 17.842 3C17.58 2.5 17.258 2.09995 16.886 1.69995C16.776 1.59995 16.676 1.50002 16.558 1.40002H16.531C16.189 1.10002 15.808 0.799976 15.411 0.599976C15.311 0.599976 15.214 0.5 15.111 0.5C15.038 0.5 14.967 0.400024 14.892 0.400024C14.669 0.300024 14.442 0.299951 14.209 0.199951H14.155H13.499Z" fill="#D5ED86"/>
</svg>
