<svg width="24" height="18" viewBox="0 0 24 18" fill="none" xmlns="http://www.w3.org/2000/svg">
<path fill-rule="evenodd" clip-rule="evenodd" d="M6.74231 6C6.74231 4 7.79695 0 12.0155 0C16.2341 0 17.2887 4 17.2887 6C19.366 5.83333 24 6.8 24 12C24 16.5 19.6856 18 17.2887 18H6.26293C4.3454 18 -0.428465 16.2927 0.0309654 11.5C0.510264 6.5 4.3454 6 6.74231 6ZM12 15C14.2091 15 16 13.2091 16 11C16 8.79086 14.2091 7 12 7C9.79085 7 7.99999 8.79086 7.99999 11C7.99999 13.2091 9.79085 15 12 15Z" fill="#D5ED86"/>
<path d="M5.99997 11C6.52127 8.15556 9.00967 6 12 6C14.9903 6 17.4781 8.15556 18 11C17.4787 13.8444 14.9903 16 12 16C9.00967 16 6.52183 13.8444 5.99997 11ZM12 13.7778C12.7354 13.7778 13.4407 13.4851 13.9607 12.9642C14.4807 12.4433 14.7729 11.7367 14.7729 11C14.7729 10.2633 14.4807 9.55675 13.9607 9.03581C13.4407 8.51488 12.7354 8.22222 12 8.22222C11.2646 8.22222 10.5593 8.51488 10.0392 9.03581C9.51921 9.55675 9.22707 10.2633 9.22707 11C9.22707 11.7367 9.51921 12.4433 10.0392 12.9642C10.5593 13.4851 11.2646 13.7778 12 13.7778ZM12 12.6667C11.5587 12.6667 11.1355 12.4911 10.8235 12.1785C10.5115 11.866 10.3362 11.442 10.3362 11C10.3362 10.558 10.5115 10.134 10.8235 9.82149C11.1355 9.50893 11.5587 9.33333 12 9.33333C12.4412 9.33333 12.8644 9.50893 13.1764 9.82149C13.4884 10.134 13.6637 10.558 13.6637 11C13.6637 11.442 13.4884 11.866 13.1764 12.1785C12.8644 12.4911 12.4412 12.6667 12 12.6667Z" fill="#83E5DA"/>
</svg>
