<svg width="24" height="24" viewBox="0 0 24 24" fill="none" xmlns="http://www.w3.org/2000/svg">
<g clip-path="url(#clip0_312_3249)">
<path d="M12.0294 24L16.9386 15.5273C18.664 13.1106 18.3878 9.80623 16.2841 7.7063H23.1569C25.5932 13.8549 22.5652 20.8065 16.3927 23.2401C14.9854 23.7119 13.514 23.9687 12.0294 24Z" fill="#D5ED86"/>
<path d="M10.1758 23.8918C3.64196 22.9064 -0.852232 16.8347 0.13615 10.3302C0.13615 10.325 0.137459 10.3185 0.138768 10.3133C0.329899 8.89118 0.812962 7.52251 1.55654 6.29462L6.46572 14.7674C7.74734 17.4565 10.7884 18.833 13.6658 18.0261L10.1744 23.8918H10.1758Z" fill="#D5ED86"/>
<path d="M11.9208 16.3967C9.51072 16.3967 7.55753 14.4519 7.55753 12.0521C7.55753 9.6524 9.51072 7.70758 11.9208 7.70758C14.3309 7.70758 16.2841 9.6524 16.2841 12.0521C16.2383 14.4323 14.3112 16.3524 11.9208 16.3967Z" fill="#83E5DA"/>
<path d="M5.92111 10.531L2.53836 4.55576C6.5796 -0.598269 14.052 -1.51593 19.2296 2.50666C20.4156 3.42824 21.4158 4.56619 22.1764 5.85926H11.8121C9.06692 6.05218 6.7236 7.90836 5.92111 10.5297V10.531Z" fill="#D5ED86"/>
</g>
<defs>
<clipPath id="clip0_312_3249">
<rect width="24" height="24" fill="white"/>
</clipPath>
</defs>
</svg>
