<svg width="24" height="24" viewBox="0 0 24 24" fill="none" xmlns="http://www.w3.org/2000/svg">
<path d="M11.994 0C5.364 0 0 5.37 0 12C0 18.63 5.364 24 11.994 24C18.624 24 24 18.63 24 12C24 5.37 18.624 0 11.994 0ZM20.304 7.2H16.764C16.374 5.7 15.828 4.26 15.108 2.928C17.316 3.684 19.152 5.214 20.304 7.2ZM12 2.442C13.002 3.882 13.782 5.484 14.292 7.2H9.708C10.218 5.484 10.998 3.882 12 2.442ZM2.712 14.4C2.514 13.632 2.4 12.828 2.4 12C2.4 11.172 2.514 10.368 2.712 9.6H6.762C6.666 10.386 6.6 11.184 6.6 12C6.6 12.816 6.666 13.614 6.768 14.4H2.712ZM3.69 16.8H7.23C7.62 18.3 8.166 19.74 8.886 21.078C6.678 20.322 4.842 18.786 3.69 16.8ZM7.23 7.2H3.69C4.842 5.214 6.678 3.678 8.886 2.922C8.166 4.26 7.62 5.7 7.23 7.2ZM12 21.558C11.004 20.118 10.224 18.516 9.708 16.8H14.292C13.776 18.516 12.996 20.118 12 21.558ZM14.808 14.4H9.192C9.078 13.614 9 12.816 9 12C9 11.184 9.078 10.386 9.192 9.6H14.808C14.922 10.386 15 11.184 15 12C15 12.816 14.922 13.614 14.808 14.4ZM15.114 21.072C15.834 19.734 16.38 18.3 16.77 16.8H20.31C19.152 18.786 17.316 20.316 15.114 21.072ZM17.232 14.4C17.328 13.614 17.4 12.816 17.4 12C17.4 11.184 17.334 10.386 17.232 9.6H21.282C21.48 10.368 21.6 11.172 21.6 12C21.6 12.828 21.486 13.632 21.282 14.4H17.232Z" fill="#D5ED86"/>
</svg>
