<svg width="18" height="24" viewBox="0 0 18 24" fill="none" xmlns="http://www.w3.org/2000/svg">
<path fill-rule="evenodd" clip-rule="evenodd" d="M0 2C0 0.89543 0.895431 0 2 0H16C17.1046 0 18 0.895431 18 2V22C18 23.1046 17.1046 24 16 24H2C0.89543 24 0 23.1046 0 22V2ZM11 20C11 21.1046 10.1046 22 9 22C7.89543 22 7 21.1046 7 20C7 18.8954 7.89543 18 9 18C10.1046 18 11 18.8954 11 20ZM4 4H14V16H4L4 4ZM3 4C3 3.44772 3.44772 3 4 3H14C14.5523 3 15 3.44772 15 4V16C15 16.5523 14.5523 17 14 17H4C3.44772 17 3 16.5523 3 16V4Z" fill="#D5ED86"/>
<rect x="4" y="4" width="10" height="12" fill="#83E5DA"/>
</svg>
