<svg width="24" height="24" viewBox="0 0 24 24" fill="none" xmlns="http://www.w3.org/2000/svg">
<path d="M0.744019 10.56V11.376C0.744019 13.392 2.30402 15.048 4.32002 15.192V20.928C4.32002 21.336 4.63202 21.648 5.04002 21.648H7.58402C7.99202 21.648 8.30402 21.336 8.30402 20.928V15.216H8.71202V6.72003H4.58402C2.47202 6.72003 0.744019 8.44803 0.744019 10.56Z" fill="#83E5DA"/>
<path d="M22.944 2.47201C22.752 2.32801 22.488 2.30401 22.272 2.40001L10.416 7.44001V14.472L22.272 19.512C22.632 19.656 23.064 19.488 23.208 19.128C23.256 19.032 23.256 18.936 23.256 18.84V3.07201C23.256 2.83201 23.136 2.61601 22.944 2.47201Z" fill="#D5ED86"/>
</svg>
