<svg width="24" height="24" viewBox="0 0 24 24" fill="none" xmlns="http://www.w3.org/2000/svg">
<path d="M4.85858 7.32893C4.85858 7.92542 4.97607 8.51607 5.20433 9.06715C5.4326 9.61823 5.76718 10.119 6.18896 10.5407C6.61074 10.9625 7.11147 11.2971 7.66255 11.5254C8.21363 11.7536 8.80428 11.8711 9.40077 11.8711C9.99726 11.8711 10.5879 11.7536 11.139 11.5254C11.6901 11.2971 12.1908 10.9625 12.6126 10.5407C13.0344 10.119 13.3689 9.61823 13.5972 9.06715C13.8255 8.51607 13.943 7.92542 13.943 7.32893C13.943 6.12427 13.4644 4.96894 12.6126 4.11712C11.7608 3.26529 10.6054 2.78674 9.40077 2.78674C8.19611 2.78674 7.04078 3.26529 6.18896 4.11712C5.33713 4.96894 4.85858 6.12427 4.85858 7.32893Z" fill="#D5ED86"/>
<path d="M17.318 19.5281C17.318 23.4961 1.48596 23.4961 1.48596 19.5281C1.48596 15.5602 5.02971 13.1719 9.40081 13.1719C13.7719 13.1719 17.318 15.5602 17.318 19.5281Z" fill="#D5ED86"/>
<path d="M14.9062 1.48828C13.8 1.48828 12.7875 1.88438 12 2.54062C13.7648 3.39609 14.9859 5.20078 14.9859 7.29609C14.9859 8.48672 14.5875 9.58125 13.9242 10.4648C14.2406 10.5352 14.5664 10.5727 14.9039 10.5727C17.4117 10.5727 19.4461 8.53828 19.4461 6.03047C19.4461 3.52266 17.4164 1.48828 14.9062 1.48828Z" fill="#83E5DA"/>
<path d="M14.5922 12.0281C14.1141 12.0281 12.6446 12.1711 12.15 12.4055C15.2391 13.0336 18.5977 15.4359 18.5977 19.275C18.5977 19.875 18.3539 20.4047 17.925 20.8664C20.5055 20.4445 22.5071 19.5024 22.5071 18.0399C22.5094 13.9289 18.9633 12.0281 14.5922 12.0281Z" fill="#83E5DA"/>
</svg>
