<svg width="24" height="24" viewBox="0 0 24 24" fill="none" xmlns="http://www.w3.org/2000/svg">
<path fill-rule="evenodd" clip-rule="evenodd" d="M16 8V6C16 3.79086 14.2091 2 12 2C9.79086 2 8 3.79086 8 6V8H16ZM12 0C8.68629 0 6 2.68629 6 6V10H18V6C18 2.68629 15.3137 0 12 0Z" fill="#83E5DA"/>
<path fill-rule="evenodd" clip-rule="evenodd" d="M2 8C0.895431 8 0 8.89543 0 10V22C0 23.1046 0.89543 24 2 24H22C23.1046 24 24 23.1046 24 22V10C24 8.89543 23.1046 8 22 8H2ZM14 14C14 14.7403 13.5978 15.3866 13 15.7324V18C13 18.5523 12.5523 19 12 19C11.4477 19 11 18.5523 11 18V15.7324C10.4022 15.3866 10 14.7403 10 14C10 12.8954 10.8954 12 12 12C13.1046 12 14 12.8954 14 14Z" fill="#D5ED86"/>
</svg>
