<svg width="24" height="24" viewBox="0 0 24 24" fill="none" xmlns="http://www.w3.org/2000/svg">
<g clip-path="url(#clip0_1099_57668)">
<path d="M8.2125 13.5422C7.07297 13.6433 6.01031 14.1141 5.19469 14.9344C4.14469 15.9895 3.67969 17.4141 3.80062 18.7959C3.90628 20.0063 3.00422 20.9569 1.50234 20.9569C0.672187 21 0 21.6703 0 22.5C0 23.3297 0.672187 24 1.50187 24H4.02281C6.58172 24 10.2666 23.6453 12.0994 21.8006C13.2089 20.6841 13.6223 19.1588 13.4208 17.7042L8.2125 13.5422ZM23.4141 0.818441C22.9932 0.336566 22.4109 0.0478164 21.773 0.00609769C21.1378 -0.0407773 20.5205 0.173816 20.0423 0.596254L10.4203 9.07969C10.1156 9.34688 9.84844 9.66563 9.64219 9.98907C9.1988 10.6898 8.99719 11.4736 8.99625 12.2484L14.1666 16.3819C15.2461 16.1271 16.1686 15.4753 16.7639 14.5331L23.6264 3.67688C24.1969 2.7886 24.1031 1.6125 23.4141 0.818441Z" fill="#D5ED86"/>
<path d="M8.2125 13.5422C7.07297 13.6432 6.01031 14.1141 5.19469 14.9344C4.14469 15.9895 3.67969 17.4141 3.80062 18.7959C3.90628 20.0062 3.00422 20.9569 1.50234 20.9569C0.672187 21 0 21.6703 0 22.5C0 23.3297 0.672187 24 1.50187 24H4.02281C6.58172 24 10.2666 23.6452 12.0994 21.8006C13.2089 20.6841 13.6223 19.1587 13.4208 17.7042L8.2125 13.5422Z" fill="#83E5DA"/>
</g>
<defs>
<clipPath id="clip0_1099_57668">
<rect width="24" height="24" fill="white"/>
</clipPath>
</defs>
</svg>
