<svg width="23" height="24" viewBox="0 0 23 24" fill="none" xmlns="http://www.w3.org/2000/svg">
<path fill-rule="evenodd" clip-rule="evenodd" d="M7 0C5.89543 0 5 0.895431 5 2L18 2C19.1046 2 20 2.89543 20 4V20H21C22.1046 20 23 19.1046 23 18V2C23 0.895431 22.1046 0 21 0H7Z" fill="#83E5DA"/>
<path fill-rule="evenodd" clip-rule="evenodd" d="M2 4C0.895431 4 0 4.89543 0 6V22C0 23.1046 0.89543 24 2 24H16C17.1046 24 18 23.1046 18 22V6C18 4.89543 17.1046 4 16 4H2ZM4 7C3.44772 7 3 7.44772 3 8C3 8.55228 3.44772 9 4 9H12C12.5523 9 13 8.55228 13 8C13 7.44772 12.5523 7 12 7H4ZM3 20C3 19.4477 3.44772 19 4 19H9C9.55228 19 10 19.4477 10 20C10 20.5523 9.55228 21 9 21H4C3.44772 21 3 20.5523 3 20ZM4 13C3.44772 13 3 13.4477 3 14C3 14.5523 3.44772 15 4 15H15C15.5523 15 16 14.5523 16 14C16 13.4477 15.5523 13 15 13H4Z" fill="#D5ED86"/>
</svg>
