<svg width="32" height="32" viewBox="0 0 32 32" fill="none" xmlns="http://www.w3.org/2000/svg">
<g id="single/more">
<g id="Union">
<path d="M2 16C2 16.8251 2.32778 17.6164 2.91124 18.1999C3.49469 18.7833 4.28603 19.1111 5.11116 19.1111C5.93629 19.1111 6.72763 18.7833 7.31108 18.1999C7.89454 17.6164 8.22232 16.8251 8.22232 16C8.22232 15.1748 7.89454 14.3835 7.31108 13.8C6.72763 13.2166 5.93629 12.8888 5.11116 12.8888C4.28603 12.8888 3.49469 13.2166 2.91124 13.8C2.32778 14.3835 2 15.1748 2 16Z" fill="#999999"/>
<path d="M12.8888 16C12.8888 16.8251 13.2166 17.6164 13.8001 18.1999C14.3835 18.7833 15.1749 19.1111 16 19.1111C16.8251 19.1111 17.6165 18.7833 18.1999 18.1999C18.7834 17.6164 19.1112 16.8251 19.1112 16C19.1112 15.1748 18.7834 14.3835 18.1999 13.8C17.6165 13.2166 16.8251 12.8888 16 12.8888C15.1749 12.8888 14.3835 13.2166 13.8001 13.8C13.2166 14.3835 12.8888 15.1748 12.8888 16Z" fill="#999999"/>
<path d="M24.6889 18.1999C24.1055 17.6164 23.7777 16.8251 23.7777 16C23.7777 15.1748 24.1055 14.3835 24.6889 13.8C25.2724 13.2166 26.0637 12.8888 26.8888 12.8888C27.714 12.8888 28.5053 13.2166 29.0888 13.8C29.6722 14.3835 30 15.1748 30 16C30 16.8251 29.6722 17.6164 29.0888 18.1999C28.5053 18.7833 27.714 19.1111 26.8888 19.1111C26.0637 19.1111 25.2724 18.7833 24.6889 18.1999Z" fill="#999999"/>
</g>
</g>
</svg>
