<svg width="60" height="60" viewBox="0 0 60 60" fill="none" xmlns="http://www.w3.org/2000/svg">
<rect width="60" height="60" rx="8" fill="#F2F3F5"/>
<path d="M12 24.7501L29.5237 34.2421C29.8208 34.403 30.1792 34.403 30.4763 34.2421L48 24.7501V41.5001C48 42.6046 47.1046 43.5001 46 43.5001H14C12.8954 43.5001 12 42.6046 12 41.5001L12 24.7501Z" fill="#1A1B1E"/>
<path d="M12 18.5C12 17.3954 12.8954 16.5 14 16.5H46C47.1046 16.5 48 17.3954 48 18.5V22.5L30.4472 31.2764C30.1657 31.4172 29.8343 31.4172 29.5528 31.2764L12 22.5V18.5Z" fill="#A7C553"/>
</svg>
