<svg width="30" height="30" viewBox="0 0 30 30" fill="none" xmlns="http://www.w3.org/2000/svg">
<g clip-path="url(#clip0_1774_66602)">
<path fill-rule="evenodd" clip-rule="evenodd" d="M19.8627 5.38411L13.6018 5.38411L13.4766 5.38411V5.37673C12.9825 5.31807 12.6001 4.91678 12.6001 4.43046V3.95364C12.6001 3.42696 13.0486 3 13.6018 3H14.478C14.4781 3 14.4782 3 14.4784 3L19.8627 3L25.9984 3C26.5516 3 27.0001 3.42696 27.0001 3.95364V14.0861V19.0927V20.0464C27.0001 20.573 26.5516 21 25.9984 21H25.4975C24.9442 21 24.4957 20.573 24.4957 20.0464V14.0861V5.86093C24.4957 5.59759 24.2715 5.38411 23.9949 5.38411H19.8627Z" fill="#83E5DA"/>
<path fill-rule="evenodd" clip-rule="evenodd" d="M3 7.75754C3 7.1183 3.45383 6.6001 4.01366 6.6001H22.3863C22.9462 6.6001 23.4 7.1183 23.4 7.75754V25.8426C23.4 26.4819 22.9462 27.0001 22.3863 27.0001H4.01366C3.45383 27.0001 3 26.4819 3 25.8426V7.75754ZM9 14.7059C9 14.2056 9.41787 13.8 9.93333 13.8H15C15.5155 13.8 15.9333 14.2056 15.9333 14.7059C15.9333 15.2062 15.5155 15.6118 15 15.6118H9.93333C9.41787 15.6118 9 15.2062 9 14.7059ZM9.93333 18.0703C9.41787 18.0703 9 18.4759 9 18.9762C9 19.4765 9.41787 19.8821 9.93333 19.8821H17C17.5155 19.8821 17.9333 19.4765 17.9333 18.9762C17.9333 18.4759 17.5155 18.0703 17 18.0703H9.93333Z" fill="#D5ED86"/>
</g>
<defs>
<clipPath id="clip0_1774_66602">
<rect width="24" height="24" fill="white" transform="translate(3 3)"/>
</clipPath>
</defs>
</svg>
