<svg width="30" height="30" viewBox="0 0 30 30" fill="none" xmlns="http://www.w3.org/2000/svg">
<path d="M3 5C3 4.44771 3.44772 4 4 4H26C26.5523 4 27 4.44772 27 5V7.8C27 8.35229 26.5523 8.8 26 8.8H4C3.44772 8.8 3 8.35228 3 7.8V5Z" fill="#83E5DA"/>
<path fill-rule="evenodd" clip-rule="evenodd" d="M23.3996 6.39844H6.59961V24.5984C6.59961 25.1507 7.04732 25.5984 7.59961 25.5984H22.3996C22.9519 25.5984 23.3996 25.1507 23.3996 24.5984V6.39844ZM14.21 21.2771C14.21 21.6739 14.5413 21.9985 14.9514 21.9985V21.994H15.5259C15.9337 21.994 16.2673 21.6717 16.2673 21.2726V20.6662C16.2789 20.6624 16.2912 20.6594 16.3039 20.6562C16.3139 20.6537 16.3242 20.6512 16.3345 20.6482C16.543 20.5941 16.7585 20.5377 16.967 20.4588C18.1902 19.9944 18.7694 18.989 18.5562 17.704C18.4613 17.1381 18.1508 16.6467 17.6017 16.2071C17.1453 15.8419 16.6264 15.5713 16.1352 15.3346C15.7113 15.1295 15.2178 14.8792 14.7591 14.5726C14.5205 14.4148 14.3792 14.1015 14.4046 13.7971C14.4209 13.6236 14.5043 13.3079 14.9027 13.1231C15.1645 13.0036 15.4356 12.9382 15.7368 12.927H15.7993C16.1167 12.927 16.6055 13.0081 17.2102 13.1592C17.2774 13.1749 17.3446 13.184 17.4141 13.184C17.8635 13.184 18.2296 12.8278 18.2296 12.3904C18.2296 12.0635 18.0211 11.7637 17.706 11.6465C17.2705 11.4819 16.9415 11.3917 16.7307 11.376C16.5777 11.3647 16.4248 11.3579 16.2673 11.3512V10.7199C16.2673 10.3232 15.936 9.99854 15.5259 9.99854H14.9468C14.539 9.99854 14.2054 10.3232 14.2054 10.7199C14.2054 10.9138 14.2054 11.4571 14.2077 11.6961C14.0687 11.7592 13.9228 11.8358 13.7652 11.9283C13.0633 12.3408 12.6393 13.0374 12.6022 13.8377C12.5652 14.6245 12.9243 15.3865 13.5382 15.8283C13.9297 16.1079 14.3514 16.3513 14.6757 16.5317C14.873 16.6435 15.0764 16.7435 15.2745 16.8408C15.2881 16.8475 15.3016 16.8542 15.3151 16.8608C15.5236 16.9623 15.7391 17.0705 15.943 17.1832C16.1584 17.3027 16.3646 17.4515 16.5407 17.6138C16.7631 17.8167 16.8581 18.1661 16.777 18.4817C16.733 18.6598 16.587 18.9754 16.126 19.0972C15.8572 19.1693 15.5815 19.2054 15.3082 19.2054C15.1715 19.2054 15.0325 19.1964 14.8958 19.1783C14.6549 19.1468 14.2772 19.025 13.8023 18.8244C13.6934 18.777 13.5776 18.7545 13.4594 18.7545C13.2324 18.7545 13.01 18.8447 12.8501 19.0025C12.6879 19.1603 12.5999 19.3722 12.5999 19.5954C12.5999 19.9155 12.7829 20.1995 13.0748 20.3416C13.3181 20.4588 13.4942 20.5332 13.6146 20.5648C13.8017 20.614 13.9908 20.649 14.176 20.6833L14.2054 20.6887H14.21V21.2771Z" fill="#D5ED86"/>
</svg>
