<svg width="32" height="32" viewBox="0 0 32 32" fill="none" xmlns="http://www.w3.org/2000/svg">
<g id="single/see">
<g id="Union">
<path d="M0.136947 16.623C3.60238 24.2408 9.53335 28.7891 16.0014 28.7891C19.4799 28.7395 22.8324 27.4787 25.4815 25.2238C25.7907 24.9715 25.9871 24.6066 26.0273 24.2096C26.0675 23.8125 25.9484 23.4157 25.696 23.1065C25.4437 22.7972 25.0789 22.6009 24.6818 22.5607C24.2847 22.5205 23.8879 22.6396 23.5787 22.892C21.4653 24.7059 18.786 25.7271 16.0014 25.7799C10.916 25.7799 6.15677 22.1382 3.16892 16C6.15677 9.86188 10.916 6.22014 16.0014 6.22014C21.0867 6.22014 25.846 9.86188 28.8338 16C28.3726 16.9503 27.8489 17.869 27.2661 18.7499C27.155 18.9145 27.0777 19.0994 27.0384 19.2939C26.9992 19.4885 26.9988 19.689 27.0374 19.8837C27.076 20.0784 27.1527 20.2636 27.2631 20.4285C27.3736 20.5935 27.5156 20.735 27.6809 20.8448C27.8463 20.9546 28.0317 21.0306 28.2266 21.0684C28.4215 21.1063 28.6219 21.1052 28.8164 21.0652C29.0108 21.0252 29.1954 20.9471 29.3595 20.8355C29.5237 20.7238 29.6641 20.5808 29.7727 20.4147C30.57 19.208 31.2702 17.9399 31.8665 16.6223C31.9552 16.4267 32.001 16.2144 32.0009 15.9996C32.0007 15.7848 31.9547 15.5725 31.8658 15.377C28.4003 7.75927 22.4694 3.21094 16.0014 3.21094C9.53335 3.21094 3.60238 7.75927 0.136947 15.377C0.0479834 15.5727 0.00195312 15.7851 0.00195312 16C0.00195312 16.215 0.0479834 16.4274 0.136947 16.623Z" fill="#999999"/>
<path d="M13.4363 21.443C14.2381 21.8211 15.1136 22.0176 16.0001 22.0184C17.5963 22.0184 19.1271 21.3843 20.2557 20.2557C21.3844 19.127 22.0185 17.5962 22.0185 16C22.0185 14.4039 21.3844 12.873 20.2557 11.7444C19.1271 10.6157 17.5963 9.98163 16.0001 9.98163L15.7084 9.98898C15.5146 10.0005 15.3251 10.0509 15.1512 10.1371C14.9773 10.2233 14.8224 10.3436 14.6958 10.4908C14.5693 10.6379 14.4736 10.8091 14.4144 10.9939C14.3553 11.1788 14.3338 11.3737 14.3514 11.567C14.386 11.9584 14.5667 12.3224 14.8575 12.5867C15.1483 12.8509 15.5279 12.996 15.9207 12.993C16.7281 12.9855 17.5057 13.2974 18.0842 13.8606C18.6627 14.4238 18.9952 15.1928 19.0093 16C19.0092 16.4195 18.9215 16.8343 18.7517 17.2179C18.5819 17.6014 18.3338 17.9452 18.0234 18.2273C17.7129 18.5093 17.3469 18.7234 16.9488 18.8556C16.5508 18.9879 16.1295 19.0355 15.7119 18.9954C15.2944 18.9553 14.8899 18.8283 14.5243 18.6227C14.1587 18.417 13.8401 18.1372 13.589 17.8012C13.3379 17.4652 13.1599 17.0805 13.0662 16.6716C12.9726 16.2627 12.9654 15.8388 13.0452 15.427C13.1201 15.035 13.0361 14.6293 12.8118 14.2992C12.5875 13.969 12.2412 13.7415 11.8492 13.6667C11.4572 13.5919 11.0515 13.6759 10.7214 13.9002C10.3913 14.1245 10.1638 14.4707 10.0889 14.8628C9.92239 15.7335 9.95008 16.6303 10.17 17.4891C10.39 18.3479 10.7968 19.1475 11.3614 19.831C11.926 20.5145 12.6345 21.0649 13.4363 21.443Z" fill="#999999"/>
</g>
</g>
</svg>
