<svg width="24" height="24" viewBox="0 0 24 24" fill="none" xmlns="http://www.w3.org/2000/svg">
<path fill-rule="evenodd" clip-rule="evenodd" d="M19.7082 15.0407C22.2206 14.0575 24.0001 11.6122 24.0001 8.75135C24.0001 5.02269 20.9774 2 17.2487 2C15.7088 2 14.2892 2.5156 13.1533 3.38356C17.0978 4.76774 19.926 8.52451 19.926 12.9418C19.926 13.6615 19.8509 14.3636 19.7082 15.0407Z" fill="#576072"/>
<path fill-rule="evenodd" clip-rule="evenodd" d="M9.0794 22.2542C14.0938 22.2542 18.1588 18.1893 18.1588 13.1749C18.1588 8.16044 14.0938 4.09546 9.0794 4.09546C4.06498 4.09546 0 8.16044 0 13.1749C0 18.1893 4.06498 22.2542 9.0794 22.2542ZM7.55598 17.9638C7.55598 18.3577 7.8849 18.68 8.29203 18.68V18.6756H8.86247C9.2673 18.6756 9.59852 18.3555 9.59852 17.9593V17.3572C9.61004 17.3535 9.62228 17.3505 9.63483 17.3473C9.64483 17.3448 9.65503 17.3423 9.66523 17.3393C9.87224 17.2856 10.0862 17.2297 10.2932 17.1513C11.5077 16.6902 12.0827 15.692 11.8711 14.4162C11.7768 13.8544 11.4686 13.3665 10.9234 12.93C10.4703 12.5674 9.95505 12.2988 9.46741 12.0638C9.04648 11.8601 8.55655 11.6117 8.10112 11.3073C7.8642 11.1506 7.72389 10.8395 7.74919 10.5373C7.76529 10.365 7.8481 10.0516 8.24373 9.8681C8.50364 9.74947 8.77276 9.68456 9.07178 9.67337H9.13389C9.44901 9.67337 9.93434 9.75395 10.5347 9.90391C10.6014 9.91958 10.6681 9.92853 10.7371 9.92853C11.1833 9.92853 11.5468 9.57489 11.5468 9.14067C11.5468 8.81613 11.3397 8.51844 11.0269 8.40205C10.5945 8.23866 10.2679 8.14913 10.0586 8.13346C9.90674 8.12227 9.75493 8.11556 9.59852 8.10884V7.48214C9.59852 7.08821 9.2696 6.7659 8.86247 6.7659H8.28743C7.8826 6.7659 7.55138 7.08821 7.55138 7.48214C7.55138 7.67462 7.55138 8.21404 7.55368 8.45129C7.41567 8.51396 7.27076 8.59006 7.11435 8.68183C6.4174 9.09143 5.99647 9.78304 5.95967 10.5776C5.92286 11.3588 6.27939 12.1153 6.88893 12.554C7.27766 12.8315 7.69629 13.0733 8.01831 13.2523C8.21422 13.3633 8.41616 13.4626 8.61284 13.5593C8.62631 13.5659 8.63975 13.5725 8.65316 13.5791C8.86017 13.6798 9.07408 13.7873 9.2765 13.8992C9.49041 14.0178 9.69513 14.1655 9.86994 14.3267C10.0908 14.5281 10.1851 14.875 10.1046 15.1884C10.0609 15.3652 9.91594 15.6786 9.45821 15.7994C9.19139 15.8711 8.91767 15.9069 8.64625 15.9069C8.51054 15.9069 8.37254 15.8979 8.23683 15.88C7.99761 15.8487 7.62268 15.7278 7.15115 15.5286C7.04304 15.4816 6.92803 15.4592 6.81073 15.4592C6.58531 15.4592 6.36449 15.5487 6.20578 15.7054C6.04477 15.8621 5.95737 16.0725 5.95737 16.2941C5.95737 16.6119 6.13908 16.8939 6.4289 17.0349C6.67042 17.1513 6.84523 17.2252 6.96484 17.2565C7.15053 17.3054 7.33829 17.3402 7.52222 17.3742L7.55138 17.3796H7.55598V17.9638Z" fill="#49505F"/>
</svg>
