<svg width="30" height="30" viewBox="0 0 30 30" fill="none" xmlns="http://www.w3.org/2000/svg">
<path d="M3 6C3 5.44771 3.44772 5 4 5H26C26.5523 5 27 5.44772 27 6V9.8H3V6Z" fill="#83E5DA"/>
<path fill-rule="evenodd" clip-rule="evenodd" d="M27 12.2H3V23.2C3 23.7522 3.44772 24.2 4 24.2H26C26.5523 24.2 27 23.7522 27 23.2V12.2ZM8.13207 13.8625C8.16709 13.8105 8.20687 13.7612 8.25184 13.7148C8.45822 13.5019 8.72967 13.3968 9.00029 13.4C9.27091 13.3968 9.54256 13.5019 9.74894 13.7148C9.79391 13.7612 9.83369 13.8105 9.86871 13.8625L12.2952 16.3651C12.7021 16.7849 12.7021 17.4653 12.2952 17.8851C11.8884 18.3048 11.2286 18.3048 10.8217 17.8851L10.1999 17.2439V21.8C10.1999 22.4628 9.66267 23 8.99993 23C8.33718 23 7.79993 22.4628 7.79993 21.8V17.2448L7.1791 17.8851C6.77214 18.3048 6.11237 18.3048 5.70561 17.8851C5.29865 17.4653 5.29865 16.7849 5.70561 16.3651L8.13207 13.8625Z" fill="#D5ED86"/>
</svg>
