<svg width="30" height="30" viewBox="0 0 30 30" fill="none" xmlns="http://www.w3.org/2000/svg">
<path fill-rule="evenodd" clip-rule="evenodd" d="M22.7082 18.0407C25.2207 17.0575 27.0001 14.6122 27.0001 11.7514C27.0001 8.02269 23.9774 5 20.2487 5C18.7088 5 17.2892 5.5156 16.1533 6.38356C20.0978 7.76775 22.926 11.5245 22.926 15.9419C22.926 16.6615 22.8509 17.3636 22.7082 18.0407Z" fill="#D5ED86"/>
<path fill-rule="evenodd" clip-rule="evenodd" d="M12.0794 25.2543C17.0938 25.2543 21.1588 21.1893 21.1588 16.1749C21.1588 11.1605 17.0938 7.09546 12.0794 7.09546C7.06499 7.09546 3 11.1605 3 16.1749C3 21.1893 7.06499 25.2543 12.0794 25.2543ZM10.556 20.9637C10.556 21.3576 10.8849 21.6799 11.292 21.6799V21.6755H11.8625C12.2673 21.6755 12.5985 21.3554 12.5985 20.9592V20.3571C12.61 20.3534 12.6223 20.3503 12.6348 20.3472C12.6448 20.3447 12.655 20.3422 12.6652 20.3392C12.8722 20.2855 13.0861 20.2295 13.2932 20.1512C14.5076 19.6901 15.0827 18.6919 14.8711 17.4161C14.7768 16.8543 14.4685 16.3663 13.9234 15.9299C13.4703 15.5673 12.955 15.2987 12.4674 15.0637C12.0465 14.86 11.5565 14.6116 11.1011 14.3072C10.8642 14.1505 10.7239 13.8394 10.7492 13.5372C10.7653 13.3649 10.8481 13.0515 11.2437 12.868C11.5036 12.7493 11.7727 12.6844 12.0718 12.6732H12.1339C12.449 12.6732 12.9343 12.7538 13.5347 12.9038C13.6014 12.9194 13.6681 12.9284 13.7371 12.9284C14.1833 12.9284 14.5467 12.5748 14.5467 12.1405C14.5467 11.816 14.3397 11.5183 14.0269 11.4019C13.5945 11.2385 13.2679 11.149 13.0585 11.1333C12.9067 11.1221 12.7549 11.1154 12.5985 11.1087V10.482C12.5985 10.0881 12.2696 9.76576 11.8625 9.76576H11.2874C10.8826 9.76576 10.5514 10.0881 10.5514 10.482C10.5514 10.6745 10.5514 11.2139 10.5537 11.4512C10.4156 11.5138 10.2707 11.5899 10.1143 11.6817C9.41738 12.0913 8.99645 12.7829 8.95964 13.5775C8.92284 14.3586 9.27937 15.1152 9.88891 15.5539C10.2776 15.8314 10.6963 16.0731 11.0183 16.2522C11.2142 16.3632 11.4161 16.4625 11.6128 16.5591C11.6262 16.5657 11.6397 16.5724 11.6531 16.579C11.8602 16.6797 12.0741 16.7871 12.2765 16.899C12.4904 17.0177 12.6951 17.1654 12.8699 17.3265C13.0907 17.528 13.185 17.8749 13.1045 18.1883C13.0608 18.3651 12.9159 18.6784 12.4582 18.7993C12.1914 18.8709 11.9177 18.9067 11.6462 18.9067C11.5105 18.9067 11.3725 18.8978 11.2368 18.8799C10.9976 18.8485 10.6227 18.7277 10.1511 18.5285C10.043 18.4815 9.92801 18.4591 9.8107 18.4591C9.58529 18.4591 9.36447 18.5486 9.20576 18.7053C9.04475 18.862 8.95734 19.0724 8.95734 19.294C8.95734 19.6118 9.13906 19.8938 9.42888 20.0348C9.67039 20.1512 9.84521 20.2251 9.96482 20.2564C10.1505 20.3053 10.3382 20.3401 10.5222 20.3741L10.5514 20.3795H10.556V20.9637Z" fill="#83E5DA"/>
</svg>
