<svg width="40" height="40" viewBox="0 0 40 40" fill="none" xmlns="http://www.w3.org/2000/svg">
<rect width="40" height="40" rx="4" fill="#F2F3F5"/>
<path d="M23.6522 13C23.6522 15.7614 21.3163 18 18.4348 18C15.5533 18 13.2174 15.7614 13.2174 13C13.2174 10.2386 15.5533 8 18.4348 8C21.3163 8 23.6522 10.2386 23.6522 13Z" fill="#111111"/>
<path d="M24.5847 31.6199C22.2111 30.7669 20.5217 28.5725 20.5217 26C20.5217 23.464 22.1634 21.2956 24.4839 20.4173C22.7775 19.4746 20.6897 19 18.4348 19C12.6718 19 8 22.1 8 28.1919C8 31.037 12.6718 32 18.4348 32C20.7343 32 22.8601 31.9233 24.5847 31.6199Z" fill="#111111"/>
<path fill-rule="evenodd" clip-rule="evenodd" d="M26.7826 31C29.6641 31 32 28.7614 32 26C32 23.2386 29.6641 21 26.7826 21C23.9011 21 21.5652 23.2386 21.5652 26C21.5652 28.7614 23.9011 31 26.7826 31ZM29.5769 24.8647C29.7572 24.7007 29.7572 24.4171 29.5769 24.2531C29.4192 24.1096 29.1782 24.1096 29.0205 24.2531L26.131 26.8822L24.5446 25.4387C24.3869 25.2952 24.1459 25.2952 23.9882 25.4387C23.8079 25.6027 23.8079 25.8863 23.9882 26.0503L26.131 28L29.5769 24.8647Z" fill="#A7C553"/>
</svg>
