<svg width="32" height="32" viewBox="0 0 32 32" fill="none" xmlns="http://www.w3.org/2000/svg">
<g id="single/unsee" clip-path="url(#clip0_2734_7583)">
<g id="Union">
<path fill-rule="evenodd" clip-rule="evenodd" d="M5.01599 8.13756L3.06046 6.18202C2.47467 5.59624 2.47467 4.64649 3.06045 4.0607C3.64624 3.47491 4.59599 3.47491 5.18177 4.0607L27.8117 26.6906C28.3975 27.2764 28.3975 28.2262 27.8117 28.812C27.2259 29.3977 26.2762 29.3977 25.6904 28.812L23.5171 26.6386C21.2591 28.0017 18.6673 28.7511 16.0014 28.7891C9.53335 28.7891 3.60238 24.2408 0.136947 16.623C0.0479834 16.4274 0.00195312 16.215 0.00195312 16C0.00195312 15.7851 0.0479834 15.5727 0.136947 15.377C1.44609 12.4993 3.1071 10.0595 5.01599 8.13756ZM21.3068 24.4284C19.6771 25.2766 17.8628 25.7446 16.0014 25.7799C10.916 25.7799 6.15677 22.1382 3.16892 16C4.27548 13.7268 5.62499 11.7959 7.14405 10.2656L10.7559 13.8774C10.7443 13.8848 10.7328 13.8924 10.7214 13.9002C10.3913 14.1245 10.1638 14.4707 10.0889 14.8628C9.92239 15.7335 9.95008 16.6303 10.17 17.4891C10.39 18.3479 10.7968 19.1475 11.3614 19.831C11.926 20.5145 12.6345 21.0649 13.4363 21.443C14.2381 21.8211 15.1136 22.0176 16.0001 22.0184C16.8333 22.0184 17.6487 21.8456 18.3984 21.5199L21.3068 24.4284Z" fill="#999999"/>
<path d="M15.2246 10.1033L21.9598 16.8385C21.9987 16.5623 22.0185 16.2822 22.0185 16C22.0185 14.4039 21.3844 12.873 20.2557 11.7444C19.1271 10.6157 17.5963 9.98163 16.0001 9.98163L15.7084 9.98898C15.5415 9.99893 15.3779 10.0377 15.2246 10.1033Z" fill="#999999"/>
<path d="M9.79037 4.66908L12.0781 6.95684C13.3457 6.47268 14.6622 6.22014 16.0014 6.22014C21.0867 6.22014 25.846 9.86188 28.8338 16C28.3726 16.9503 27.8489 17.869 27.2661 18.7499C27.155 18.9145 27.0777 19.0994 27.0384 19.2939C26.9992 19.4885 26.9988 19.689 27.0374 19.8837C27.076 20.0784 27.1527 20.2636 27.2631 20.4285C27.3736 20.5935 27.5156 20.735 27.6809 20.8448C27.8463 20.9546 28.0317 21.0306 28.2266 21.0684C28.4215 21.1063 28.6219 21.1052 28.8164 21.0652C29.0108 21.0252 29.1954 20.9471 29.3595 20.8355C29.5237 20.7238 29.6641 20.5808 29.7727 20.4147C30.57 19.208 31.2702 17.9399 31.8665 16.6223C31.9552 16.4267 32.001 16.2144 32.0009 15.9996C32.0007 15.7848 31.9547 15.5725 31.8658 15.377C28.4003 7.75927 22.4694 3.21094 16.0014 3.21094C13.8478 3.21094 11.7537 3.71518 9.79037 4.66908Z" fill="#999999"/>
</g>
</g>
<defs>
<clipPath id="clip0_2734_7583">
<rect width="32" height="32" fill="white"/>
</clipPath>
</defs>
</svg>
