<svg width="24" height="24" viewBox="0 0 24 24" fill="none" xmlns="http://www.w3.org/2000/svg">
<path fill-rule="evenodd" clip-rule="evenodd" d="M16.8626 2.38411L10.6017 2.38411L10.4765 2.38411V2.37673C9.98235 2.31807 9.59998 1.91678 9.59998 1.43046V0.953642C9.59998 0.42696 10.0485 0 10.6017 0H11.4779C11.478 0 11.4781 0 11.4782 0L16.8626 4.54732e-07L22.9982 0C23.5515 0 24 0.42696 24 0.953642V11.0861V16.0927V17.0464C24 17.573 23.5515 18 22.9982 18H22.4974C21.9441 18 21.4956 17.573 21.4956 17.0464V11.0861V2.86093C21.4956 2.59759 21.2714 2.38411 20.9948 2.38411H16.8626Z" fill="#576072"/>
<path fill-rule="evenodd" clip-rule="evenodd" d="M0 4.75742C0 4.11818 0.453833 3.59998 1.01366 3.59998H19.3863C19.9462 3.59998 20.4 4.11818 20.4 4.75742V22.8425C20.4 23.4818 19.9462 24 19.3863 24H1.01366C0.453833 24 0 23.4818 0 22.8425V4.75742ZM6 11.7058C6 11.2055 6.41787 10.7999 6.93333 10.7999H12C12.5155 10.7999 12.9333 11.2055 12.9333 11.7058C12.9333 12.2061 12.5155 12.6116 12 12.6116H6.93333C6.41787 12.6116 6 12.2061 6 11.7058ZM6.93333 15.0702C6.41787 15.0702 6 15.4758 6 15.9761C6 16.4764 6.41787 16.882 6.93333 16.882H14C14.5155 16.882 14.9333 16.4764 14.9333 15.9761C14.9333 15.4758 14.5155 15.0702 14 15.0702H6.93333Z" fill="#49505F"/>
</svg>
