<svg width="24" height="24" viewBox="0 0 24 24" fill="none" xmlns="http://www.w3.org/2000/svg">
<path d="M0 3C0 2.44771 0.447715 2 1 2H23C23.5523 2 24 2.44772 24 3V6.8H0V3Z" fill="#576072"/>
<path fill-rule="evenodd" clip-rule="evenodd" d="M24 9.2002H0V20.2002C0 20.7525 0.447716 21.2002 1 21.2002H23C23.5523 21.2002 24 20.7525 24 20.2002V9.2002ZM5.13182 10.863C5.16684 10.811 5.20663 10.7616 5.25159 10.7153C5.45798 10.5024 5.72942 10.3973 6.00004 10.4005C6.27066 10.3973 6.54232 10.5024 6.7487 10.7153C6.79367 10.7616 6.83345 10.811 6.86847 10.863L9.29492 13.3656C9.70189 13.7854 9.70189 14.4658 9.29492 14.8856C8.88817 15.3053 8.2284 15.3053 7.82144 14.8856L7.1998 14.2445V18.8005C7.1998 19.4633 6.66255 20.0005 5.9998 20.0005C5.33706 20.0005 4.7998 19.4633 4.7998 18.8005V14.2451L4.17886 14.8856C3.77189 15.3053 3.11213 15.3053 2.70537 14.8856C2.29841 14.4658 2.29841 13.7854 2.70537 13.3656L5.13182 10.863Z" fill="#49505F"/>
</svg>
