<svg width="60" height="60" viewBox="0 0 60 60" fill="none" xmlns="http://www.w3.org/2000/svg">
<rect width="60" height="60" rx="8" fill="#1A1B1E"/>
<path fill-rule="evenodd" clip-rule="evenodd" d="M16 15C16 13.3431 17.3431 12 19 12H40C41.6569 12 43 13.3431 43 15V45C43 46.6569 41.6569 48 40 48H19C17.3431 48 16 46.6569 16 45V15ZM32.5 42C32.5 43.6569 31.1569 45 29.5 45C27.8431 45 26.5 43.6569 26.5 42C26.5 40.3431 27.8431 39 29.5 39C31.1569 39 32.5 40.3431 32.5 42ZM22 18H37V36H22L22 18ZM20.5 18C20.5 17.1716 21.1716 16.5 22 16.5H37C37.8284 16.5 38.5 17.1716 38.5 18V36C38.5 36.8284 37.8284 37.5 37 37.5H22C21.1716 37.5 20.5 36.8284 20.5 36V18Z" fill="#D5ED86"/>
<path d="M22 18H37V36H22V18Z" fill="#83E5DA"/>
</svg>
