<svg width="16" height="16" viewBox="0 0 16 16" fill="none" xmlns="http://www.w3.org/2000/svg">
<path fill-rule="evenodd" clip-rule="evenodd" d="M11.7707 2.71084L10.3275 4.15399C10.0772 4.40431 9.67135 4.40431 9.42104 4.15399L9.19442 3.92737C8.94411 3.67706 8.94411 3.27122 9.19442 3.02091L12.0271 0.188195C12.1581 0.0571976 12.3317 -0.00524468 12.5033 0.000867613C12.6749 -0.00525462 12.8485 0.0571873 12.9796 0.188193L15.8123 3.02091C16.0626 3.27122 16.0626 3.67706 15.8123 3.92737L15.5856 4.15399C15.3353 4.4043 14.9295 4.4043 14.6792 4.15399L13.3731 2.84789L13.3731 7.50671C13.3731 7.86071 13.0861 8.14768 12.7321 8.14768L12.4116 8.14768C12.0576 8.14768 11.7707 7.86071 11.7707 7.50671L11.7707 2.71084Z" fill="#D5ED86"/>
<path fill-rule="evenodd" clip-rule="evenodd" d="M13.3652 3.27627C13.3652 2.9227 13.0774 2.63608 12.7223 2.63608L11.7579 2.63608L11.7579 14.0795C11.7579 14.2562 11.614 14.3996 11.4365 14.3996L10.8739 14.3996L6.93598 14.3996L6.85562 14.3996C6.50054 14.3996 6.21269 14.6862 6.21269 15.0398L6.21269 15.3598C6.21269 15.7134 6.50054 16 6.85562 16L7.57891 16L10.8739 16L12.7223 16C13.0774 16 13.3652 15.7134 13.3652 15.3598L13.3652 3.27627Z" fill="#D5ED86"/>
<path fill-rule="evenodd" clip-rule="evenodd" d="M4.22935 13.2892L5.67249 11.846C5.92281 11.5957 6.32865 11.5957 6.57896 11.846L6.80558 12.0727C7.05589 12.323 7.05589 12.7288 6.80558 12.9791L3.97287 15.8118C3.84187 15.9428 3.66828 16.0053 3.49668 15.9992C3.32506 16.0053 3.15145 15.9428 3.02045 15.8118L0.187736 12.9791C-0.0625784 12.7288 -0.0625784 12.323 0.187736 12.0727L0.414353 11.846C0.664667 11.5957 1.07051 11.5957 1.32082 11.846L2.62692 13.1521L2.62692 8.49332C2.62692 8.13932 2.91389 7.85235 3.26789 7.85235L3.58838 7.85235C3.94237 7.85235 4.22935 8.13932 4.22935 8.49332L4.22935 13.2892Z" fill="#D5ED86"/>
<path fill-rule="evenodd" clip-rule="evenodd" d="M2.63477 12.7238C2.63477 13.0773 2.92261 13.364 3.27769 13.364L4.24208 13.364L4.24208 1.92056C4.24208 1.74378 4.386 1.60047 4.56354 1.60047L5.1261 1.60047L9.06402 1.60047L9.14438 1.60047C9.49946 1.60047 9.78731 1.31385 9.78731 0.960279L9.78731 0.640186C9.78731 0.286619 9.49946 -4.46831e-06 9.14438 -4.48383e-06L8.42109 -4.51544e-06L5.1261 -4.65947e-06L3.27769 -4.74027e-06C2.92261 -4.75579e-06 2.63477 0.286618 2.63477 0.640185L2.63477 12.7238Z" fill="#D5ED86"/>
</svg>
