<svg width="30" height="30" viewBox="0 0 30 30" fill="none" xmlns="http://www.w3.org/2000/svg">
<path fill-rule="evenodd" clip-rule="evenodd" d="M3 5.8972C3 5.40169 3.40169 5 3.8972 5H26.1028C26.5983 5 27 5.40169 27 5.8972V23.1682C27 23.6637 26.5983 24.0654 26.1028 24.0654H3.8972C3.40169 24.0654 3 23.6637 3 23.1682V5.8972ZM4.68224 11.0561C4.68224 10.5606 5.08393 10.1589 5.57944 10.1589H12.0841C12.5796 10.1589 12.9813 10.5606 12.9813 11.0561V11.5047C12.9813 12.0002 12.5796 12.4019 12.0841 12.4019H5.57944C5.08393 12.4019 4.68224 12.0002 4.68224 11.5047V11.0561ZM5.57944 13.4112C5.08393 13.4112 4.68224 13.8129 4.68224 14.3084V14.757C4.68224 15.2525 5.08393 15.6542 5.57944 15.6542H12.0841C12.5796 15.6542 12.9813 15.2525 12.9813 14.757V14.3084C12.9813 13.8129 12.5796 13.4112 12.0841 13.4112H5.57944ZM4.68224 17.5607C4.68224 17.0652 5.08393 16.6636 5.57944 16.6636H12.0841C12.5796 16.6636 12.9813 17.0652 12.9813 17.5607V18.0093C12.9813 18.5049 12.5796 18.9065 12.0841 18.9065H5.57944C5.08393 18.9065 4.68224 18.5049 4.68224 18.0093V17.5607ZM25.5421 14.5327C25.5421 14.9182 25.4988 15.2935 25.417 15.6542H21.5047C20.8853 15.6542 20.3832 15.1521 20.3832 14.5327C20.3832 13.9133 20.8853 13.4112 21.5047 13.4112H25.417C25.4988 13.7719 25.5421 14.1473 25.5421 14.5327Z" fill="#D5ED86"/>
<path fill-rule="evenodd" clip-rule="evenodd" d="M25.4166 13.4096H21.5542C20.9348 13.4096 20.4327 13.9117 20.4327 14.5311C20.4327 15.1505 20.9348 15.6526 21.5542 15.6526H25.4166C24.9067 17.9001 22.8968 19.5778 20.495 19.5778C17.7077 19.5778 15.4482 17.3183 15.4482 14.5311C15.4482 11.7439 17.7077 9.48438 20.495 9.48438C22.8968 9.48438 24.9067 11.1621 25.4166 13.4096Z" fill="#83E5DA"/>
</svg>
