<svg width="14" height="14" viewBox="0 0 14 14" fill="none" xmlns="http://www.w3.org/2000/svg">
<path d="M12.4331 7.35284C12.4331 8.46972 12.0978 9.56151 11.4697 10.4902C10.8415 11.4188 9.94874 12.1426 8.90418 12.57C7.85962 12.9974 6.71021 13.1093 5.60131 12.8914C4.4924 12.6735 3.47381 12.1356 2.67434 11.3459C1.87486 10.5561 1.33042 9.54994 1.10984 8.45452C0.889268 7.3591 1.00247 6.22367 1.43515 5.19181C1.86782 4.15996 2.60052 3.27801 3.54061 2.65751C4.48069 2.037 5.58592 1.70581 6.71655 1.70581" stroke="#EAECEF" stroke-width="1.5" stroke-linecap="round"/>
<path d="M7.22034 6.69005L11.0864 2.90942" stroke="#EAECEF" stroke-width="1.5" stroke-linecap="round" stroke-linejoin="round"/>
<path d="M9.625 7.35288H6.71655V4.375" stroke="#EAECEF" stroke-width="1.5" stroke-linecap="round" stroke-linejoin="round"/>
</svg>
