<svg width="110" height="110" viewBox="0 0 110 110" fill="none" xmlns="http://www.w3.org/2000/svg">
<circle cx="55" cy="55" r="55" fill="#E7F9F7"/>
<path d="M45.4036 37.1541C45.366 35.1147 46.9888 33.492 49.0282 33.5295C51.0675 33.567 52.7511 35.2507 52.7887 37.29L53.2644 61.3043C53.302 63.3436 51.6792 64.9664 49.6399 64.9289C47.6005 64.8913 45.9169 63.2077 45.8794 61.1684L45.4036 37.1541Z" fill="#3DCFBF"/>
<path d="M71.2847 57.2504C73.3241 57.2879 75.0077 58.9716 75.0453 61.0109C75.0828 63.0502 73.46 64.673 71.4207 64.6355L49.7923 65.0435C47.7529 65.006 46.0693 63.3224 46.0318 61.283C45.9942 59.2437 47.617 57.6209 49.6563 57.6585L71.2847 57.2504Z" fill="#3DCFBF"/>
</svg>
