<svg width="24" height="24" viewBox="0 0 24 24" fill="none" xmlns="http://www.w3.org/2000/svg">
<path fill-rule="evenodd" clip-rule="evenodd" d="M24 9.19995H0V20.2C0 20.7522 0.447716 21.2 1 21.2H23C23.5523 21.2 24 20.7522 24 20.2V9.19995ZM14.04 16.3998C13.5761 16.3998 13.2 16.8296 13.2 17.3598V17.8398C13.2 18.3699 13.5761 18.7998 14.04 18.7998H20.76C21.2239 18.7998 21.6 18.3699 21.6 17.8398V17.3598C21.6 16.8296 21.2239 16.3998 20.76 16.3998H14.04Z" fill="#49505F"/>
<path d="M0 3C0 2.44771 0.447715 2 1 2H23C23.5523 2 24 2.44772 24 3V6.8H0V3Z" fill="#576072"/>
</svg>
