<svg width="110" height="110" viewBox="0 0 110 110" fill="none" xmlns="http://www.w3.org/2000/svg">
<circle cx="55" cy="55" r="55" fill="#E1F4EB"/>
<path d="M31.8527 55.7167C30.7158 54.6209 30.7158 52.8441 31.8527 51.7482C32.9897 50.6523 34.8331 50.6523 35.9701 51.7482L50.3809 65.6381C51.5179 66.734 51.5179 68.5108 50.3809 69.6067C49.244 70.7025 47.4005 70.7025 46.2636 69.6067L31.8527 55.7167Z" fill="#2EA26D"/>
<path d="M73.1727 39.8219C74.3097 38.726 76.1531 38.726 77.2901 39.8219C78.4271 40.9178 78.4271 42.6946 77.2901 43.7905L50.5272 69.586C49.3902 70.6819 47.5468 70.6819 46.4098 69.586C45.2728 68.4901 45.2728 66.7133 46.4098 65.6175L73.1727 39.8219Z" fill="#2EA26D"/>
</svg>
