<svg width="24" height="24" viewBox="0 0 24 24" fill="none" xmlns="http://www.w3.org/2000/svg">
<g id="single/info">
<g id="Vector">
<path fill-rule="evenodd" clip-rule="evenodd" d="M12.0004 2.80002C6.91937 2.80002 2.80039 6.919 2.80039 12C2.80039 17.081 6.91937 21.2 12.0004 21.2C17.0814 21.2 21.2004 17.081 21.2004 12C21.2004 6.919 17.0814 2.80002 12.0004 2.80002ZM0.400391 12C0.400391 5.59352 5.59389 0.400024 12.0004 0.400024C18.4069 0.400024 23.6004 5.59352 23.6004 12C23.6004 18.4065 18.4069 23.6 12.0004 23.6C5.59389 23.6 0.400391 18.4065 0.400391 12Z" fill="#999999"/>
<path d="M10.3207 16.8797C10.3207 17.0898 10.3621 17.2979 10.4425 17.492C10.5229 17.6861 10.6408 17.8625 10.7893 18.0111C10.9379 18.1597 11.1143 18.2775 11.3084 18.3579C11.5025 18.4383 11.7106 18.4797 11.9207 18.4797C12.1308 18.4797 12.3389 18.4383 12.533 18.3579C12.7271 18.2775 12.9035 18.1597 13.0521 18.0111C13.2006 17.8625 13.3185 17.6861 13.3989 17.492C13.4793 17.2979 13.5207 17.0898 13.5207 16.8797C13.5207 16.4554 13.3521 16.0484 13.0521 15.7483C12.752 15.4483 12.345 15.2797 11.9207 15.2797C11.4964 15.2797 11.0894 15.4483 10.7893 15.7483C10.4893 16.0484 10.3207 16.4554 10.3207 16.8797Z" fill="#999999"/>
<path d="M13.4723 12.592C13.4723 13.472 12.7523 14.192 11.8723 14.192C10.9923 14.192 10.2723 13.472 10.2723 12.592V6.36799C10.2723 5.48799 10.9923 4.76799 11.8723 4.76799C12.7523 4.76799 13.4723 5.48799 13.4723 6.36799V12.592Z" fill="#999999"/>
</g>
</g>
</svg>
