<svg width="24" height="24" viewBox="0 0 24 24" fill="none" xmlns="http://www.w3.org/2000/svg">
<path fill-rule="evenodd" clip-rule="evenodd" d="M16.8627 2.38411L10.6018 2.38411L10.4766 2.38411V2.37673C9.98247 2.31807 9.6001 1.91678 9.6001 1.43046V0.953642C9.6001 0.42696 10.0486 0 10.6018 0H11.478C11.4781 0 11.4782 0 11.4784 0L16.8627 4.54732e-07L22.9984 0C23.5516 0 24.0001 0.42696 24.0001 0.953642V11.0861V16.0927V17.0464C24.0001 17.573 23.5516 18 22.9984 18H22.4975C21.9442 18 21.4957 17.573 21.4957 17.0464V11.0861V2.86093C21.4957 2.59759 21.2715 2.38411 20.9949 2.38411H16.8627Z" fill="#83E5DA"/>
<path fill-rule="evenodd" clip-rule="evenodd" d="M0 4.75754C0 4.1183 0.453833 3.6001 1.01366 3.6001H19.3863C19.9462 3.6001 20.4 4.1183 20.4 4.75754V22.8426C20.4 23.4819 19.9462 24.0001 19.3863 24.0001H1.01366C0.453833 24.0001 0 23.4819 0 22.8426V4.75754ZM6 11.7059C6 11.2056 6.41787 10.8 6.93333 10.8H12C12.5155 10.8 12.9333 11.2056 12.9333 11.7059C12.9333 12.2062 12.5155 12.6118 12 12.6118H6.93333C6.41787 12.6118 6 12.2062 6 11.7059ZM6.93333 15.0703C6.41787 15.0703 6 15.4759 6 15.9762C6 16.4765 6.41787 16.8821 6.93333 16.8821H14C14.5155 16.8821 14.9333 16.4765 14.9333 15.9762C14.9333 15.4759 14.5155 15.0703 14 15.0703H6.93333Z" fill="#D5ED86"/>
</svg>
