<svg width="60" height="60" viewBox="0 0 60 60" fill="none" xmlns="http://www.w3.org/2000/svg">
<rect width="60" height="60" rx="8" fill="#F2F3F5"/>
<g clip-path="url(#clip0_10797_41512)">
<path d="M30.0449 48L37.4087 35.2909C39.9968 31.6659 39.5825 26.7093 36.4269 23.5594H46.7361C50.3905 32.7823 45.8486 43.2096 36.5898 46.8601C34.4789 47.5679 32.2717 47.9531 30.0449 48Z" fill="#1A1B1E"/>
<path d="M27.2638 47.8377C17.4631 46.3596 10.7218 37.252 12.2044 27.4953C12.2044 27.4875 12.2064 27.4777 12.2083 27.4699C12.495 25.3367 13.2196 23.2837 14.335 21.4419L21.6988 34.151C23.6212 38.1847 28.1828 40.2494 32.499 39.0391L27.2618 47.8377H27.2638Z" fill="#1A1B1E"/>
<path d="M29.8809 36.595C26.2657 36.595 23.3359 33.6778 23.3359 30.0782C23.3359 26.4786 26.2657 23.5614 29.8809 23.5614C33.496 23.5614 36.4258 26.4786 36.4258 30.0782C36.357 33.6485 33.4665 36.5286 29.8809 36.595Z" fill="#A7C553"/>
<path d="M20.8827 27.7964L15.8086 18.8336C21.8705 11.1025 33.0791 9.72604 40.8454 15.7599C42.6245 17.1423 44.1247 18.8492 45.2656 20.7888H29.7192C25.6014 21.0782 22.0865 23.8625 20.8827 27.7945V27.7964Z" fill="#1A1B1E"/>
</g>
<defs>
<clipPath id="clip0_10797_41512">
<rect width="36" height="36" fill="white" transform="translate(12 12)"/>
</clipPath>
</defs>
</svg>
