<svg width="110" height="110" viewBox="0 0 110 110" fill="none" xmlns="http://www.w3.org/2000/svg">
<circle cx="55" cy="55" r="55" fill="#F6E0DD"/>
<path d="M66.6157 39.8219C67.7527 38.726 69.5961 38.726 70.7331 39.8219C71.8701 40.9178 71.8701 42.6946 70.7331 43.7905L43.9701 69.586C42.8331 70.6819 40.9897 70.6819 39.8527 69.586C38.7158 68.4901 38.7158 66.7133 39.8527 65.6175L66.6157 39.8219Z" fill="#CB4335"/>
<path d="M44.3843 39.8219C43.2473 38.726 41.4039 38.726 40.2669 39.8219C39.1299 40.9178 39.1299 42.6946 40.2669 43.7905L67.0299 69.586C68.1669 70.6819 70.0103 70.6819 71.1473 69.586C72.2842 68.4901 72.2842 66.7133 71.1473 65.6175L44.3843 39.8219Z" fill="#CB4335"/>
</svg>
