<svg width="24" height="24" viewBox="0 0 24 24" fill="none" xmlns="http://www.w3.org/2000/svg">
<path d="M0 2C0 1.44771 0.447715 1 1 1H23C23.5523 1 24 1.44772 24 2V4.8C24 5.35229 23.5523 5.8 23 5.8H1C0.447716 5.8 0 5.35228 0 4.8V2Z" fill="#83E5DA"/>
<path fill-rule="evenodd" clip-rule="evenodd" d="M20.3996 3.39844H3.59961V21.5984C3.59961 22.1507 4.04732 22.5984 4.59961 22.5984H19.3996C19.9519 22.5984 20.3996 22.1507 20.3996 21.5984V3.39844ZM11.2103 18.2771C11.2103 18.6739 11.5416 18.9985 11.9516 18.9985V18.994H12.5262C12.9339 18.994 13.2675 18.6717 13.2675 18.2726V17.6662C13.2792 17.6624 13.2915 17.6594 13.3041 17.6562C13.3142 17.6537 13.3245 17.6512 13.3347 17.6482C13.5432 17.5941 13.7587 17.5377 13.9672 17.4588C15.1904 16.9944 15.7696 15.989 15.5565 14.704C15.4615 14.1381 15.1511 13.6467 14.602 13.2071C14.1456 12.8419 13.6266 12.5713 13.1355 12.3346C12.7115 12.1295 12.2181 11.8792 11.7594 11.5726C11.5207 11.4148 11.3794 11.1015 11.4049 10.7971C11.4211 10.6236 11.5045 10.3079 11.903 10.1231C12.1648 10.0036 12.4358 9.93823 12.737 9.92696H12.7996C13.117 9.92696 13.6058 10.0081 14.2105 10.1592C14.2776 10.1749 14.3448 10.184 14.4143 10.184C14.8638 10.184 15.2298 9.82777 15.2298 9.39042C15.2298 9.06354 15.0213 8.76371 14.7062 8.64648C14.2707 8.48191 13.9417 8.39173 13.7309 8.37595C13.578 8.36468 13.4251 8.35792 13.2675 8.35116V7.71993C13.2675 7.32316 12.9363 6.99854 12.5262 6.99854H11.947C11.5393 6.99854 11.2057 7.32316 11.2057 7.71993C11.2057 7.91381 11.2057 8.45711 11.208 8.69607C11.069 8.7592 10.923 8.83584 10.7655 8.92827C10.0635 9.34082 9.63954 10.0374 9.60247 10.8377C9.5654 11.6245 9.9245 12.3865 10.5384 12.8283C10.93 13.1079 11.3516 13.3513 11.6759 13.5317C11.8733 13.6435 12.0766 13.7435 12.2747 13.8408C12.2883 13.8475 12.3018 13.8542 12.3154 13.8608C12.5239 13.9623 12.7393 14.0705 12.9432 14.1832C13.1587 14.3027 13.3649 14.4515 13.5409 14.6138C13.7633 14.8167 13.8583 15.1661 13.7772 15.4817C13.7332 15.6598 13.5873 15.9754 13.1262 16.0972C12.8575 16.1693 12.5818 16.2054 12.3084 16.2054C12.1717 16.2054 12.0327 16.1964 11.896 16.1783C11.6551 16.1468 11.2775 16.025 10.8025 15.8244C10.6937 15.777 10.5778 15.7545 10.4597 15.7545C10.2326 15.7545 10.0102 15.8447 9.85036 16.0025C9.68819 16.1603 9.60015 16.3722 9.60015 16.5954C9.60015 16.9155 9.78317 17.1995 10.0751 17.3416C10.3183 17.4588 10.4944 17.5332 10.6149 17.5648C10.8019 17.614 10.991 17.649 11.1763 17.6833L11.2057 17.6887H11.2103V18.2771Z" fill="#D5ED86"/>
</svg>
