<svg width="24" height="24" viewBox="0 0 24 24" fill="none" xmlns="http://www.w3.org/2000/svg">
<path fill-rule="evenodd" clip-rule="evenodd" d="M0 2.8972C0 2.40169 0.401688 2 0.897196 2H23.1028C23.5983 2 24 2.40169 24 2.8972V20.1682C24 20.6637 23.5983 21.0654 23.1028 21.0654H0.897197C0.401689 21.0654 0 20.6637 0 20.1682V2.8972ZM1.68224 8.05607C1.68224 7.56057 2.08393 7.15888 2.57944 7.15888H9.08411C9.57962 7.15888 9.98131 7.56057 9.98131 8.05607V8.50467C9.98131 9.00018 9.57962 9.40187 9.08411 9.40187H2.57944C2.08393 9.40187 1.68224 9.00018 1.68224 8.50467V8.05607ZM2.57944 10.4112C2.08393 10.4112 1.68224 10.8129 1.68224 11.3084V11.757C1.68224 12.2525 2.08393 12.6542 2.57944 12.6542H9.08411C9.57962 12.6542 9.98131 12.2525 9.98131 11.757V11.3084C9.98131 10.8129 9.57962 10.4112 9.08411 10.4112H2.57944ZM1.68224 14.5607C1.68224 14.0652 2.08393 13.6636 2.57944 13.6636H9.08411C9.57962 13.6636 9.98131 14.0652 9.98131 14.5607V15.0093C9.98131 15.5049 9.57962 15.9065 9.08411 15.9065H2.57944C2.08393 15.9065 1.68224 15.5049 1.68224 15.0093V14.5607ZM22.5421 11.5327C22.5421 11.9182 22.4988 12.2935 22.417 12.6542H18.5047C17.8853 12.6542 17.3832 12.1521 17.3832 11.5327C17.3832 10.9133 17.8853 10.4112 18.5047 10.4112H22.417C22.4988 10.7719 22.5421 11.1473 22.5421 11.5327Z" fill="#49505F"/>
<path fill-rule="evenodd" clip-rule="evenodd" d="M22.4169 10.4112H18.5545C17.9351 10.4112 17.433 10.9133 17.433 11.5327C17.433 12.1521 17.9351 12.6542 18.5545 12.6542H22.4169C21.907 14.9017 19.8971 16.5794 17.4953 16.5794C14.708 16.5794 12.4485 14.3199 12.4485 11.5327C12.4485 8.74546 14.708 6.48596 17.4953 6.48596C19.8971 6.48596 21.907 8.16373 22.4169 10.4112Z" fill="#576072"/>
</svg>
