<svg width="20" height="20" viewBox="0 0 20 20" fill="none" xmlns="http://www.w3.org/2000/svg">
<path d="M1.90483 4.89758V17.1113L6.7288 15.0446L12.4433 17.9018L17.1434 15.8856V3.67277L18.3844 3.14133C18.4569 3.11026 18.5359 3.09768 18.6145 3.1047C18.693 3.11172 18.7686 3.13813 18.8344 3.18156C18.9002 3.22499 18.9542 3.28408 18.9915 3.35352C19.0288 3.42297 19.0483 3.50059 19.0483 3.57944V17.1428L12.3814 20L6.66689 17.1428L0.663832 19.7152C0.591367 19.7463 0.512322 19.7589 0.433792 19.7519C0.355262 19.7448 0.279704 19.7184 0.2139 19.675C0.148096 19.6316 0.094104 19.5725 0.0567705 19.503C0.019437 19.4336 -6.99608e-05 19.356 1.88531e-07 19.2771V5.7138L1.90483 4.89758ZM13.5652 9.75489L9.52414 13.795L5.48304 9.75489C4.68396 8.95566 4.1398 7.93744 3.91939 6.82897C3.69897 5.72049 3.81219 4.57155 4.24474 3.52742C4.67728 2.48329 5.40972 1.59087 6.34944 0.962996C7.28916 0.335124 8.39396 0 9.52414 0C10.6543 0 11.7591 0.335124 12.6988 0.962996C13.6386 1.59087 14.371 2.48329 14.8035 3.52742C15.2361 4.57155 15.3493 5.72049 15.1289 6.82897C14.9085 7.93744 14.3643 8.95566 13.5652 9.75489ZM9.52414 11.1016L12.2176 8.40722C12.7505 7.87448 13.1134 7.19567 13.2605 6.45663C13.4076 5.7176 13.3322 4.95155 13.0439 4.25536C12.7556 3.55917 12.2673 2.96411 11.6408 2.54545C11.0143 2.12679 10.2777 1.90333 9.52414 1.90333C8.77061 1.90333 8.03401 2.12679 7.40749 2.54545C6.78097 2.96411 6.29267 3.55917 6.00436 4.25536C5.71605 4.95155 5.64068 5.7176 5.78777 6.45663C5.93486 7.19567 6.29781 7.87448 6.83071 8.40722L9.52414 11.1016Z" fill="#D5ED86"/>
</svg>
