<svg width="24" height="24" viewBox="0 0 24 24" fill="none" xmlns="http://www.w3.org/2000/svg">
<g clip-path="url(#clip0_312_5820)">
<ellipse cx="10.4348" cy="5" rx="5.21739" ry="5" fill="#808899"/>
<path fill-rule="evenodd" clip-rule="evenodd" d="M16.5847 23.6199C14.2111 22.7669 12.5217 20.5725 12.5217 18C12.5217 15.4641 14.1634 13.2956 16.4839 12.4173C14.7775 11.4746 12.6897 11 10.4348 11C4.67181 11 0 14.1001 0 20.1919C0 23.037 4.67181 24 10.4348 24C12.7343 24 14.8601 23.9233 16.5847 23.6199Z" fill="#808899"/>
<path fill-rule="evenodd" clip-rule="evenodd" d="M18.7826 23C21.6641 23 24 20.7614 24 18C24 15.2386 21.6641 13 18.7826 13C15.9011 13 13.5652 15.2386 13.5652 18C13.5652 20.7614 15.9011 23 18.7826 23ZM21.5769 16.8647C21.7572 16.7007 21.7572 16.4171 21.5769 16.2531C21.4192 16.1096 21.1782 16.1096 21.0205 16.2531L18.131 18.8822L16.5446 17.4387C16.3869 17.2952 16.1459 17.2952 15.9882 17.4387C15.8079 17.6027 15.8079 17.8863 15.9882 18.0503L18.131 20L21.5769 16.8647Z" fill="#576072"/>
</g>
<defs>
<clipPath id="clip0_312_5820">
<rect width="24" height="24" fill="white"/>
</clipPath>
</defs>
</svg>
