<svg width="20" height="18" viewBox="0 0 20 18" fill="none" xmlns="http://www.w3.org/2000/svg">
<path fill-rule="evenodd" clip-rule="evenodd" d="M18 2H2V16H18V2ZM2 0C0.895431 0 0 0.89543 0 2V16C0 17.1046 0.895431 18 2 18H18C19.1046 18 20 17.1046 20 16V2C20 0.895431 19.1046 0 18 0H2Z" fill="#D5ED86"/>
<path d="M5 9C5 8.44772 5.44772 8 6 8H14C14.5523 8 15 8.44772 15 9C15 9.55228 14.5523 10 14 10H6C5.44772 10 5 9.55228 5 9Z" fill="#D5ED86"/>
<path d="M5 13C5 12.4477 5.44772 12 6 12H14C14.5523 12 15 12.4477 15 13C15 13.5523 14.5523 14 14 14H6C5.44772 14 5 13.5523 5 13Z" fill="#D5ED86"/>
<path d="M5 5C5 4.44772 5.44772 4 6 4H14C14.5523 4 15 4.44772 15 5C15 5.55228 14.5523 6 14 6H6C5.44772 6 5 5.55228 5 5Z" fill="#D5ED86"/>
</svg>
