<svg width="60" height="60" viewBox="0 0 60 60" fill="none" xmlns="http://www.w3.org/2000/svg">
<circle cx="30" cy="30" r="30" fill="#1A1C1E"/>
<path d="M25.0796 21.3296C25.2786 21.1305 25.5451 21.0132 25.8264 21.0011C26.1077 20.9889 26.3833 21.0826 26.5989 21.2638L26.6703 21.3296L34.5454 29.2051C34.7445 29.4042 34.8618 29.6707 34.8739 29.952C34.8861 30.2333 34.7924 30.5089 34.6113 30.7245L34.5454 30.7959L26.6703 38.6715C26.4652 38.8761 26.1891 38.9937 25.8994 38.9998C25.6097 39.0058 25.3289 38.8999 25.1154 38.7041C24.9019 38.5082 24.7721 38.2376 24.7532 37.9485C24.7343 37.6593 24.8276 37.3741 25.0137 37.1521L25.0796 37.0806L32.1582 30.0005L25.0796 22.9204C24.8805 22.7213 24.7632 22.4548 24.7511 22.1735C24.7389 21.8922 24.8326 21.6166 25.0137 21.401L25.0796 21.3296Z" fill="#999999"/>
</svg>
