<svg width="60" height="60" viewBox="0 0 60 60" fill="none" xmlns="http://www.w3.org/2000/svg">
<circle cx="30" cy="30" r="30" transform="matrix(-1 0 0 1 60 0)" fill="#1A1C1E"/>
<path d="M31.9204 21.3296C31.7214 21.1305 31.4549 21.0132 31.1736 21.0011C30.8923 20.9889 30.6167 21.0826 30.4011 21.2638L30.3297 21.3296L22.4546 29.2051C22.2555 29.4042 22.1382 29.6707 22.1261 29.952C22.1139 30.2333 22.2076 30.5089 22.3887 30.7245L22.4546 30.7959L30.3297 38.6715C30.5348 38.8761 30.8109 38.9937 31.1006 38.9998C31.3903 39.0058 31.6711 38.8999 31.8846 38.7041C32.0981 38.5082 32.2279 38.2376 32.2468 37.9485C32.2657 37.6593 32.1724 37.3741 31.9863 37.1521L31.9204 37.0806L24.8418 30.0005L31.9204 22.9204C32.1195 22.7213 32.2368 22.4548 32.2489 22.1735C32.2611 21.8922 32.1674 21.6166 31.9863 21.401L31.9204 21.3296Z" fill="#999999"/>
</svg>
