<svg width="68" height="68" viewBox="0 0 68 68" fill="none" xmlns="http://www.w3.org/2000/svg">
<g filter="url(#filter0_d_3974_3174)">
<circle cx="30" cy="30" r="30" transform="matrix(-1 0 0 1 64 4)" fill="#ea4b64"/>
</g>
<path d="M35.9204 25.3296C35.7214 25.1305 35.4549 25.0132 35.1736 25.0011C34.8923 24.9889 34.6167 25.0826 34.4011 25.2638L34.3297 25.3296L26.4546 33.2051C26.2555 33.4042 26.1382 33.6707 26.1261 33.952C26.1139 34.2333 26.2076 34.5089 26.3887 34.7245L26.4546 34.7959L34.3297 42.6715C34.5348 42.8761 34.8109 42.9937 35.1006 42.9998C35.3903 43.0058 35.6711 42.8999 35.8846 42.7041C36.0981 42.5082 36.2279 42.2376 36.2468 41.9485C36.2657 41.6593 36.1724 41.3741 35.9863 41.1521L35.9204 41.0806L28.8418 34.0005L35.9204 26.9204C36.1195 26.7213 36.2368 26.4548 36.2489 26.1735C36.2611 25.8922 36.1674 25.6166 35.9863 25.401L35.9204 25.3296Z" fill="#131F00"/>
<defs>
<filter id="filter0_d_3974_3174" x="0" y="0" width="68" height="68" filterUnits="userSpaceOnUse" color-interpolation-filters="sRGB">
<feFlood flood-opacity="0" result="BackgroundImageFix"/>
<feColorMatrix in="SourceAlpha" type="matrix" values="0 0 0 0 0 0 0 0 0 0 0 0 0 0 0 0 0 0 127 0" result="hardAlpha"/>
<feOffset/>
<feGaussianBlur stdDeviation="2"/>
<feComposite in2="hardAlpha" operator="out"/>
<feColorMatrix type="matrix" values="0 0 0 0 0 0 0 0 0 0 0 0 0 0 0 0 0 0 0.25 0"/>
<feBlend mode="normal" in2="BackgroundImageFix" result="effect1_dropShadow_3974_3174"/>
<feBlend mode="normal" in="SourceGraphic" in2="effect1_dropShadow_3974_3174" result="shape"/>
</filter>
</defs>
</svg>
