<svg width="68" height="68" viewBox="0 0 68 68" fill="none" xmlns="http://www.w3.org/2000/svg">
<g filter="url(#filter0_d_3974_3177)">
<circle cx="34" cy="34" r="30" fill="#ea4b64"/>
</g>
<path d="M29.0796 25.3296C29.2786 25.1305 29.5451 25.0132 29.8264 25.0011C30.1077 24.9889 30.3833 25.0826 30.5989 25.2638L30.6703 25.3296L38.5454 33.2051C38.7445 33.4042 38.8618 33.6707 38.8739 33.952C38.8861 34.2333 38.7924 34.5089 38.6113 34.7245L38.5454 34.7959L30.6703 42.6715C30.4652 42.8761 30.1891 42.9937 29.8994 42.9998C29.6097 43.0058 29.3289 42.8999 29.1154 42.7041C28.9019 42.5082 28.7721 42.2376 28.7532 41.9485C28.7343 41.6593 28.8276 41.3741 29.0137 41.1521L29.0796 41.0806L36.1582 34.0005L29.0796 26.9204C28.8805 26.7213 28.7632 26.4548 28.7511 26.1735C28.7389 25.8922 28.8326 25.6166 29.0137 25.401L29.0796 25.3296Z" fill="#131F00"/>
<defs>
<filter id="filter0_d_3974_3177" x="0" y="0" width="68" height="68" filterUnits="userSpaceOnUse" color-interpolation-filters="sRGB">
<feFlood flood-opacity="0" result="BackgroundImageFix"/>
<feColorMatrix in="SourceAlpha" type="matrix" values="0 0 0 0 0 0 0 0 0 0 0 0 0 0 0 0 0 0 127 0" result="hardAlpha"/>
<feOffset/>
<feGaussianBlur stdDeviation="2"/>
<feComposite in2="hardAlpha" operator="out"/>
<feColorMatrix type="matrix" values="0 0 0 0 0 0 0 0 0 0 0 0 0 0 0 0 0 0 0.25 0"/>
<feBlend mode="normal" in2="BackgroundImageFix" result="effect1_dropShadow_3974_3177"/>
<feBlend mode="normal" in="SourceGraphic" in2="effect1_dropShadow_3974_3177" result="shape"/>
</filter>
</defs>
</svg>
