<svg width="16" height="18" viewBox="0 0 16 18" fill="none" xmlns="http://www.w3.org/2000/svg">
<path d="M8.78001 9.00001C8.78001 8.94001 8.72001 8.82001 8.66001 8.76001L0.86001 1.32001C0.80001 1.26001 0.68001 1.26001 0.62001 1.26001C0.50001 1.26001 0.44001 1.32001 0.38001 1.44001C0.32001 1.62001 0.26001 1.80001 0.26001 1.98001V16.02C0.26001 16.2 0.32001 16.38 0.38001 16.56C0.44001 16.62 0.50001 16.74 0.62001 16.74H0.68001C0.74001 16.74 0.86001 16.74 0.86001 16.68L8.72001 9.24001C8.78001 9.18001 8.78001 9.06001 8.78001 9.00001ZM9.20001 8.40001C9.26001 8.46001 9.32001 8.46001 9.38001 8.46001C9.44001 8.46001 9.50001 8.46001 9.56001 8.40001L11.72 6.36001C11.78 6.30001 11.84 6.18001 11.84 6.12001C11.84 6.00001 11.78 5.94001 11.66 5.88001L2.30001 0.780006C2.12001 0.660006 1.94001 0.660006 1.76001 0.600006C1.64001 0.600006 1.52001 0.660006 1.46001 0.780006C1.40001 0.900006 1.46001 1.02001 1.52001 1.14001L9.20001 8.40001ZM9.62001 9.60001C9.50001 9.48001 9.32001 9.48001 9.20001 9.60001L1.52001 16.86C1.46001 16.98 1.40001 17.1 1.46001 17.22C1.52001 17.34 1.64001 17.4 1.76001 17.4C1.94001 17.4 2.12001 17.34 2.30001 17.22L11.6 12.06C11.66 12 11.72 11.94 11.78 11.82C11.78 11.7 11.78 11.64 11.66 11.58L9.62001 9.60001ZM15.08 7.74001L12.8 6.48001C12.68 6.42001 12.56 6.42001 12.44 6.54001L10.04 8.82001C9.98001 8.88001 9.92001 8.94001 9.92001 9.06001C9.92001 9.18001 9.98001 9.24001 10.04 9.30001L12.38 11.52C12.44 11.58 12.5 11.58 12.56 11.58C12.62 11.58 12.68 11.58 12.68 11.52L15.08 10.2C15.5 9.96001 15.8 9.48001 15.8 9.00001C15.8 8.52001 15.62 7.98001 15.08 7.74001Z" fill="currentColor"/>
</svg>
