<svg width="16" height="18" viewBox="0 0 16 18" fill="none" xmlns="http://www.w3.org/2000/svg">
<path fill-rule="evenodd" clip-rule="evenodd" d="M11.7828 0.00973383C11.8159 0.444027 11.9058 1.62158 10.8171 2.91422C10.0296 3.8337 9.07336 4.37241 8.02623 4.29236C7.93753 3.18249 8.35075 2.19811 9.05389 1.40194C9.69212 0.659864 10.8128 0.0562507 11.782 0L11.7828 0.00973383ZM15.1008 6.10514C13.7508 6.9251 13.0823 8.03714 13.0909 9.51264C13.0909 9.51471 13.0908 9.5185 13.0907 9.52395C13.0853 9.71778 13.022 12.0041 15.5703 13.2057C15.0814 14.6855 13.4025 17.9719 11.4489 18C10.9017 18 10.4642 17.8314 10.0132 17.6576C9.5333 17.4726 9.03801 17.2817 8.37886 17.2817C7.66627 17.2817 7.12961 17.4849 6.62683 17.6752C6.19999 17.8368 5.79757 17.9891 5.33267 18C3.39635 18.0584 1.54007 14.4432 1.02516 12.9677C0.64006 11.847 0.44751 10.7588 0.44751 9.70519C0.44751 6.13976 2.82951 4.38733 5.07089 4.35272C5.6931 4.35272 6.41188 4.61261 7.02587 4.83461C7.48359 5.00011 7.88308 5.14455 8.14088 5.14455C8.34929 5.14455 8.68934 5.01896 9.10649 4.86489C9.83255 4.59674 10.7922 4.24232 11.6977 4.31377C13.2034 4.42844 14.3458 5.0234 15.1008 6.10514Z" fill="currentColor"/>
</svg>
