<svg
            id="图层_1"
            data-name="图层 1"
            xmlns="http://www.w3.org/2000/svg"
            xmlns:xlink="http://www.w3.org/1999/xlink"
            viewBox="0 0 140 24"
            width="140"
            height="23"
          >
            <defs>
              <radialGradient
                id="未命名的渐变"
                cx="-229.07"
                cy="420.63"
                r="1"
                gradientTransform="matrix(25.04, -18.86, -22.74, -30.18, 15307.58, 8391.44)"
                gradientUnits="userSpaceOnUse"
              >
                <stop offset="0" stop-color="#d591fe" />
                <stop offset="0.86" stop-color="#91fef1" />
              </radialGradient>
              <radialGradient
                id="未命名的渐变_2"
                cx="-224.62"
                cy="449.33"
                r="1"
                gradientTransform="matrix(-23.94, 18.64, 17.26, 22.18, -13111.76, -5776.03)"
                gradientUnits="userSpaceOnUse"
              >
                <stop offset="0.54" stop-color="#d5ed86" stop-opacity="0.9" />
                <stop offset="1" stop-color="#19fca2" />
              </radialGradient>
            </defs>
            <path
              class="cls-1"
              fill="url(#未命名的渐变)"
              d="M28.82,17.16a4,4,0,0,1-3.88,3H11.11a4,4,0,0,1-3.89-5l3-12a4,4,0,0,1,3.88-3H31.72a1,1,0,0,1,1,1.24Z"
            />
            <path
              class="cls-2"
              fill="url(#未命名的渐变_2)"
              d="M3.8,7.76A6,6,0,0,1,9.63,3.2h9.71a6,6,0,0,1,5.83,7.44l-2,8a6,6,0,0,1-5.83,4.56H1.28A1,1,0,0,1,.31,22Z"
            />
            <path
              class="cls-3"
              fill="currentColor"
              d="M44.93,23c-1.21,0-2.46-.05-3.74-.15a25.2,25.2,0,0,1-3.46-.47L42.59,2.49a31.43,31.43,0,0,1,3.62-.44c1.27-.08,2.44-.12,3.49-.12a11,11,0,0,1,3.13.39,6.18,6.18,0,0,1,2.16,1,3.85,3.85,0,0,1,1.25,1.49,3.89,3.89,0,0,1,.42,1.78,6.75,6.75,0,0,1-.15,1.37A4.05,4.05,0,0,1,56,9.35a5.12,5.12,0,0,1-1.12,1.31A7,7,0,0,1,53,11.78a4.18,4.18,0,0,1,2,1.64,4.07,4.07,0,0,1,.64,2.25,6.8,6.8,0,0,1-.58,2.76,6.36,6.36,0,0,1-1.85,2.35,10.19,10.19,0,0,1-3.32,1.63A17.66,17.66,0,0,1,44.93,23Zm-.42-9.26L43.2,19.09c.32.05.73.1,1.21.14l1.4,0a13.38,13.38,0,0,0,1.8-.12,5.24,5.24,0,0,0,1.61-.5,3.14,3.14,0,0,0,1.18-1,2.59,2.59,0,0,0,.46-1.6,2,2,0,0,0-.18-.83,2,2,0,0,0-.52-.75,3,3,0,0,0-1-.53,4.13,4.13,0,0,0-1.4-.21Zm.88-3.47h3a4,4,0,0,0,2.7-.77A2.34,2.34,0,0,0,52,7.66a1.61,1.61,0,0,0-.27-1A1.68,1.68,0,0,0,51,6.06a2.93,2.93,0,0,0-1-.33,5.29,5.29,0,0,0-1.13-.12c-.42,0-.88,0-1.36.06a9.79,9.79,0,0,0-1.1.09ZM62.08,22.74h-4.5l3.8-15.62h4.53ZM64.27,5.22a2.89,2.89,0,0,1-1.71-.53A2,2,0,0,1,61.8,3a2.81,2.81,0,0,1,.25-1.16,2.93,2.93,0,0,1,.7-.95,3.06,3.06,0,0,1,1-.65A3.11,3.11,0,0,1,64.93,0a2.85,2.85,0,0,1,1.71.56,1.92,1.92,0,0,1,.76,1.67,2.56,2.56,0,0,1-.28,1.18,2.88,2.88,0,0,1-.67,1,3.28,3.28,0,0,1-1,.63A3.06,3.06,0,0,1,64.27,5.22Zm6.32-2.43H75.1l-1,4.33h5l-.91,3.62h-5l-1.34,5.47a8.25,8.25,0,0,0-.24,1.27,2.43,2.43,0,0,0,.15,1,1.39,1.39,0,0,0,.7.65,3.06,3.06,0,0,0,1.34.24,7.82,7.82,0,0,0,1.39-.12,11.6,11.6,0,0,0,1.4-.38L77,22.29a14.93,14.93,0,0,1-2,.56,11.59,11.59,0,0,1-2.52.24,7.31,7.31,0,0,1-3.25-.59,3.72,3.72,0,0,1-1.65-1.66,5.34,5.34,0,0,1-.42-2.44,15.41,15.41,0,0,1,.42-2.88Zm25,4.33L93.42,16a9.35,9.35,0,0,0-.24,3.41,12,12,0,0,0,.69,3l-4,.56c-.22-.43-.43-.92-.64-1.45a8.67,8.67,0,0,1-1.91,1.1,6.21,6.21,0,0,1-2.37.44A6.05,6.05,0,0,1,82,22.47a4.28,4.28,0,0,1-1.64-1.69,6,6,0,0,1-.61-2.44,10.05,10.05,0,0,1,.34-2.79l2.06-8.43h4.53l-2,8.37c-.11.44-.2.88-.28,1.34a4.57,4.57,0,0,0,0,1.28,1.74,1.74,0,0,0,.46.95,1.8,1.8,0,0,0,1.21.35,3.32,3.32,0,0,0,1.28-.24,4.58,4.58,0,0,0,1.28-.89c0-.49.1-1,.18-1.54s.2-1.06.3-1.51l2-8.11Zm4.59.72,1.12-.33a11.87,11.87,0,0,1,1.4-.36,13.74,13.74,0,0,1,1.73-.26,18.06,18.06,0,0,1,2.19-.12q3.58,0,4.92,2t.46,5.52l-2.21,8.89h-4.53l2.15-8.72a14.07,14.07,0,0,0,.27-1.48,3.42,3.42,0,0,0,0-1.28,1.45,1.45,0,0,0-.57-.89,2.13,2.13,0,0,0-1.34-.35,9.13,9.13,0,0,0-1.79.18L100.88,23.2H96.35Zm17.9,15.36h-4.49l4-16.08h4.53Zm2.35-18a2.84,2.84,0,0,1-1.7-.53A2,2,0,0,1,118,3a2.8,2.8,0,0,1,.24-1.16,3.09,3.09,0,0,1,.7-.95A3.06,3.06,0,0,1,121.09,0a2.82,2.82,0,0,1,1.7.56,1.89,1.89,0,0,1,.76,1.67,2.68,2.68,0,0,1-.27,1.18,3.2,3.2,0,0,1-.67,1,3.45,3.45,0,0,1-1,.63A3.06,3.06,0,0,1,120.42,5.22Zm8.33,1.9L131.06,12q1-1.24,1.95-2.43c.62-.79,1.22-1.61,1.79-2.44h4.53q-1.28,1.79-2.8,3.71c-1,1.27-2.19,2.6-3.52,4,.81,1.49,1.5,2.86,2.06,4.13s1.29,2.87,2,4.26h-4.47c-.48-.93-1.16-2.32-1.53-3.14s-.72-1.56-1.06-2.25l-4.78,5.39h-4.74l7.63-8.42-3.92-7.66Z"
            />
          </svg>
