<svg width="159" height="37" viewBox="0 0 159 37" fill="none" xmlns="http://www.w3.org/2000/svg">
<g id="Bitunix">
<path d="M0.729492 36.1088L7.08761 4.03036H22.4379C25.8895 4.03036 28.5236 4.6527 30.3402 5.89739C32.187 7.14208 33.1105 8.9484 33.1105 11.3163C33.1105 13.32 32.5806 15.0049 31.5209 16.371C30.4915 17.7371 29.1139 18.7693 27.3882 19.4675C25.6624 20.1658 23.7852 20.5149 21.7567 20.5149L22.9375 18.6934C25.6018 18.6934 27.7212 19.3158 29.2956 20.5604C30.9003 21.7748 31.7026 23.5356 31.7026 25.8428C31.7026 28.0893 31.0819 29.9715 29.8406 31.4894C28.6295 32.977 26.9492 34.2873 24.7995 35.0159C22.6499 35.7445 20.1823 36.1088 17.3968 36.1088H0.729492ZM9.17671 30.351H17.851C19.8795 30.351 21.4691 29.9715 22.6196 29.2126C23.8004 28.4232 24.3908 27.2696 24.3908 25.7517C24.3908 24.5677 23.9518 23.7329 23.0737 23.2471C22.226 22.7311 21.0755 22.473 19.6222 22.473H9.90335L10.9933 17.0996H19.2589C20.5305 17.0996 21.6205 16.9326 22.5288 16.5987C23.4673 16.2647 24.1788 15.7638 24.6633 15.096C25.1477 14.3977 25.3899 13.5629 25.3899 12.5914C25.3899 11.5289 24.9812 10.7699 24.1637 10.3145C23.3462 9.82879 22.1957 9.58593 20.7121 9.58593H13.2641L9.17671 30.351Z" fill="#F5F5F5"/>
<path d="M32.9386 36.0811L37.8389 11.4074H44.8782L39.9779 36.0811H32.9386ZM42.5621 7.99211C41.3207 7.99211 40.3216 7.643 39.5647 6.94475C38.8078 6.21616 38.4293 5.33577 38.4293 4.30359C38.4293 3.08925 38.8532 2.08743 39.7009 1.29811C40.5789 0.47844 41.7143 0.0686035 43.1071 0.0686035C44.3484 0.0686035 45.3475 0.417724 46.1045 1.11596C46.8916 1.78385 47.2852 2.6187 47.2852 3.62052C47.2852 4.92593 46.8462 5.98847 45.9682 6.80814C45.1205 7.59746 43.9851 7.99211 42.5621 7.99211Z" fill="#F5F5F5"/>
<path d="M54.5215 36.0811C52.7654 36.0811 51.2667 35.7319 50.0254 35.0337C48.784 34.3051 47.8909 33.2729 47.3459 31.9372C46.8312 30.571 46.7555 28.9621 47.1188 27.1102L51.3395 5.98847H58.4243L54.2036 27.0647C54.0219 28.0968 54.1279 28.9165 54.5215 29.5237C54.9151 30.1308 55.6417 30.4344 56.7014 30.4344C57.1859 30.4344 57.6703 30.3585 58.1547 30.2067C58.6694 30.055 59.1387 29.8424 59.5626 29.5692L60.6071 34.6239C59.7291 35.1703 58.7602 35.5498 57.7006 35.7623C56.6409 35.9748 55.5812 36.0811 54.5215 36.0811ZM49.0673 17.4184L50.1573 11.9539H63.3291L62.2392 17.4184H49.0673Z" fill="#F5F5F5"/>
<path d="M72.742 36C70.7437 36 69.0179 35.575 67.5646 34.725C66.1113 33.8446 65.0819 32.5696 64.4764 30.8999C63.8709 29.2301 63.8001 27.4366 64.2845 24.9776L66.964 11.4074H74.0488L71.4601 24.5222C71.0968 26.3133 71.233 27.6946 71.8689 28.6661C72.535 29.6376 73.7006 30.1233 75.3658 30.1233C77.1219 30.1233 78.5903 29.6072 79.7711 28.575C80.9822 27.5428 81.7845 25.9642 82.1781 23.8391L84.6759 11.4074H91.7607L86.8454 36H80.124L81.5423 28.9849L82.5414 31.0796C81.3909 32.8707 79.963 33.9205 78.2372 34.7705C76.5114 35.5902 74.6797 36 72.742 36Z" fill="#F5F5F5"/>
<path d="M110.517 11.0431C112.606 11.0431 114.377 11.4833 115.83 12.3637C117.284 13.2137 118.313 14.4736 118.918 16.1433C119.524 17.813 119.585 19.8774 119.1 22.3364L116.332 36H109.248L111.925 22.7918C112.288 21.0006 112.137 19.6193 111.47 18.6479C110.835 17.6764 109.654 17.1907 107.928 17.1907C106.142 17.1907 104.643 17.7068 103.432 18.7389C102.251 19.7711 101.434 21.3498 100.98 23.4748L98.4842 36H91.3994L96.3018 11.4074H103.023L101.615 18.3291L100.616 16.2344C101.797 14.4432 103.25 13.1378 104.976 12.3182C106.732 11.4681 108.579 11.0431 110.517 11.0431Z" fill="#F5F5F5"/>
<path d="M120.776 36L125.68 11.4074H132.719L127.815 36H120.776ZM130.403 7.99211C129.161 7.99211 128.162 7.643 127.405 6.94475C126.648 6.21616 126.27 5.33577 126.27 4.30359C126.27 3.08925 126.694 2.08743 127.542 1.29811C128.42 0.47844 129.555 0.0686035 130.948 0.0686035C132.189 0.0686035 133.188 0.417724 133.945 1.11596C134.732 1.78385 135.126 2.6187 135.126 3.62052C135.126 4.92593 134.687 5.98847 133.809 6.80814C132.961 7.59746 131.826 7.99211 130.403 7.99211Z" fill="#F5F5F5"/>
<path d="M127.815 36L139.231 23.3967L140.191 23.4406L139.888 23.9462L139.231 23.3967L132.719 11.4074H140.024L145.11 20.8337L141.84 20.7881L150.696 11.4074H158.508L145.065 25.4329L145.655 21.6533L153.55 36H146.057L140.841 26.1615H144.157L135.899 36H127.815Z" fill="#F5F5F5"/>
</g>
</svg>
