<svg width="424" height="245" viewBox="0 0 424 245" fill="none" xmlns="http://www.w3.org/2000/svg">
<path d="M342.084 0.56052C340.733 0.518668 339.604 1.58038 339.563 2.93131C339.521 4.28225 340.581 5.41179 341.932 5.45364C343.283 5.49549 344.412 4.43378 344.454 3.08284C344.495 1.73191 343.435 0.602372 342.084 0.56052Z" fill="#F5F5F5" stroke="black" stroke-miterlimit="10"/>
<path d="M355.655 15.64L355.35 12.3085C355.347 12.1173 355.275 11.9263 355.119 11.7869C354.962 11.6483 354.773 11.6061 354.617 11.6124C354.344 11.6234 353.941 11.8212 353.912 12.2747L353.525 15.5254L349.312 15.7456C349.101 15.7491 348.939 15.8627 348.847 15.9926C348.76 16.114 348.731 16.2473 348.728 16.3527C348.725 16.4582 348.745 16.593 348.824 16.7195C348.905 16.849 349.05 16.9675 349.246 16.9921L353.221 17.7625L353.739 21.9679C353.751 22.1667 353.861 22.3195 353.985 22.4085C354.107 22.495 354.24 22.524 354.346 22.5273C354.451 22.5306 354.586 22.5098 354.713 22.431C354.841 22.3511 354.958 22.2085 354.984 22.0153L355.873 17.8348L359.271 17.3662C359.45 17.3587 359.62 17.285 359.744 17.1498C359.872 17.011 359.922 16.8407 359.927 16.6918C359.936 16.3996 359.764 16.054 359.383 15.9461L359.335 15.9327L359.286 15.9288L355.655 15.64Z" fill="#F5F5F5" stroke="black" stroke-miterlimit="10"/>
<path d="M391.002 68.0001C392.659 68.0001 394.002 66.6569 394.002 65.0001C394.002 63.3432 392.659 62.0001 391.002 62.0001C389.345 62.0001 388.002 63.3432 388.002 65.0001C388.002 66.6569 389.345 68.0001 391.002 68.0001Z" fill="#B0F127" stroke="black" stroke-miterlimit="10"/>
<path d="M61.2885 60.4901L57.915 63.5501C57.5755 63.8548 57.6082 64.2992 57.7653 64.5707C57.8482 64.714 57.9865 64.8534 58.1817 64.9221C58.3899 64.9954 58.6128 64.9698 58.8064 64.8604L58.8065 64.8604L58.8126 64.8568L62.8968 62.471L65.5434 65.7643L65.5496 65.7719L65.556 65.7793C65.8686 66.1387 66.3268 66.0781 66.5863 65.9206C66.7257 65.8361 66.86 65.6996 66.9291 65.511C67.0022 65.312 66.9879 65.0921 66.8839 64.8944L64.9756 61.1303L69.3154 57.8351L69.3171 57.8338C69.4553 57.7279 69.5615 57.5727 69.5881 57.3812C69.6137 57.1972 69.5583 57.0323 69.4758 56.9116C69.3364 56.7077 68.9936 56.4955 68.6311 56.6797L63.9025 58.7452L60.435 54.7038L60.3927 54.6545L60.3393 54.6176C60.0949 54.4492 59.7784 54.4281 59.5283 54.5891C59.283 54.7472 59.1372 55.0812 59.2901 55.4059L61.2885 60.4901Z" fill="#F5F5F5" stroke="black" stroke-miterlimit="10"/>
<path d="M409.813 243.774C409.721 243.774 409.721 243.774 409.629 243.774L396.737 237.693C396.553 237.601 396.461 237.417 396.461 237.232V220.74C396.461 220.556 396.553 220.463 396.645 220.371C396.737 220.279 396.829 220.279 396.921 220.279C397.013 220.279 397.013 220.279 397.106 220.279L409.998 226.544C410.182 226.637 410.274 226.821 410.274 227.005V243.313C410.274 243.498 410.182 243.59 410.09 243.682C409.998 243.682 409.906 243.774 409.813 243.774Z" fill="white"/>
<path d="M396.921 220.74L409.813 227.005V243.313L396.921 237.232V220.74ZM396.921 219.818C396.737 219.818 396.553 219.911 396.46 220.003C396.184 220.187 396 220.463 396 220.74V237.232C396 237.601 396.184 237.877 396.553 238.062L409.445 244.143C409.537 244.235 409.721 244.235 409.813 244.235C409.997 244.235 410.181 244.143 410.273 244.05C410.55 243.866 410.734 243.59 410.734 243.313V227.005C410.734 226.637 410.55 226.36 410.181 226.176L397.289 219.911C397.197 219.818 397.105 219.818 396.921 219.818Z" fill="#060606"/>
<path d="M410.79 243.968C410.701 243.968 410.613 243.968 410.525 243.879C410.436 243.79 410.348 243.612 410.348 243.524V227.805C410.348 227.628 410.436 227.45 410.613 227.45L422.729 221.056C422.817 221.056 422.905 220.968 422.905 220.968C422.994 220.968 423.082 220.968 423.171 221.056C423.259 221.145 423.348 221.323 423.348 221.412L423.113 237.112C423.113 237.29 423.025 237.468 422.848 237.468L410.967 243.968C410.967 243.968 410.878 243.968 410.79 243.968Z" fill="black"/>
<path d="M422.52 220.86V237.098L411.176 243.165V227.373L422.52 220.86ZM422.52 219.968C422.354 219.968 422.271 219.968 422.106 220.057L410.762 226.481C410.513 226.659 410.348 226.927 410.348 227.284V243.075C410.348 243.343 410.513 243.7 410.762 243.789C410.927 243.878 411.01 243.968 411.176 243.968C411.341 243.968 411.424 243.968 411.507 243.878L422.851 237.811C423.099 237.633 423.348 237.365 423.348 237.008V220.86C423.348 220.503 423.182 220.235 422.934 220.057C422.851 220.057 422.685 219.968 422.52 219.968Z" fill="#060606"/>
<path d="M409.813 227.466C409.721 227.466 409.721 227.466 409.629 227.466L396.737 221.2C396.553 221.108 396.461 220.924 396.461 220.832C396.461 220.647 396.553 220.463 396.737 220.371L409.629 213.553C409.721 213.553 409.813 213.461 409.813 213.461C409.906 213.461 409.998 213.461 409.998 213.553L422.614 219.91C422.798 220.003 422.89 220.187 422.89 220.279C422.89 220.371 422.798 220.647 422.614 220.647L409.998 227.281C409.998 227.373 409.906 227.466 409.813 227.466Z" fill="#B0F127"/>
<path d="M409.813 213.921L422.429 220.279L409.813 226.913L396.921 220.647L409.813 213.921ZM409.813 213C409.629 213 409.537 213 409.353 213.092L396.46 219.91C396.184 220.095 396 220.371 396 220.739C396 221.108 396.184 221.384 396.553 221.569L409.445 227.834C409.537 227.926 409.721 227.926 409.813 227.926C409.997 227.926 410.089 227.926 410.273 227.834L422.889 221.2C423.166 221.016 423.35 220.739 423.35 220.371C423.35 220.002 423.166 219.726 422.889 219.542L410.273 213.184C410.089 213.092 409.997 213 409.813 213Z" fill="#060606"/>
<path d="M7.34236 212.692C10.8451 212.692 13.6847 209.851 13.6847 206.346C13.6847 202.841 10.8451 200 7.34236 200C3.83957 200 1 202.841 1 206.346C1 209.851 3.83957 212.692 7.34236 212.692Z" fill="#B0F127" stroke="black" stroke-miterlimit="10"/>
<path d="M34.0436 229.352L27.665 227.854C27.1566 227.731 26.7524 228.05 26.5937 228.385C26.5106 228.56 26.4702 228.781 26.5315 229.007C26.5964 229.246 26.7622 229.439 26.9945 229.552L26.9945 229.552L27.0009 229.555L33.1874 232.458L31.4338 238.324L31.431 238.334L31.4286 238.343C31.2939 238.868 31.6442 239.266 31.9737 239.414C32.1488 239.492 32.3668 239.529 32.5881 239.473C32.8204 239.413 33.0177 239.258 33.1377 239.029L36.0584 233.66L43.5054 236.111L43.5075 236.112C43.6974 236.174 43.9057 236.171 44.0942 236.076C44.2759 235.985 44.3914 235.832 44.45 235.68C44.5509 235.418 44.5234 234.975 44.1326 234.766L37.828 230.851L39.7813 223.459L39.7979 223.396V223.331C39.7979 222.987 39.6114 222.683 39.3085 222.557C39.0106 222.432 38.6197 222.51 38.4231 222.853L34.0436 229.352Z" fill="#F5F5F5" stroke="black" stroke-miterlimit="10"/>
</svg>
