<svg width="106" height="96" viewBox="0 0 106 96" fill="none" xmlns="http://www.w3.org/2000/svg">
<path fill-rule="evenodd" clip-rule="evenodd" d="M2.3046 21.5572C1.34031 17.9584 3.47598 14.2593 7.07476 13.295L48.5672 2.17715C52.166 1.21286 55.8651 3.34854 56.8294 6.94731L74.9056 74.4088C75.8699 78.0076 73.7342 81.7067 70.1354 82.671L28.643 93.7888C25.0442 94.7531 21.3451 92.6174 20.3808 89.0187L2.3046 21.5572ZM8.10182 17.1281C6.61997 17.5251 5.74057 19.0483 6.13763 20.5301L24.2139 87.9916C24.6109 89.4735 26.1341 90.3528 27.616 89.9558L69.1084 78.8379C70.5902 78.4409 71.4696 76.9177 71.0726 75.4359L52.9963 7.97437C52.5993 6.49252 51.0761 5.61313 49.5943 6.01019L8.10182 17.1281Z" fill="#F6F6F9"/>
<path d="M44.6047 7.4503C45.0614 4.86033 47.5312 3.13096 50.1212 3.58764L86.4653 9.99608L83.9157 24.4556C83.459 27.0455 85.1884 29.5153 87.7784 29.972L99.8931 32.1082L90.3149 86.4289C89.8582 89.0189 87.3884 90.7483 84.7984 90.2916L36.3396 81.747C33.7496 81.2903 32.0203 78.8205 32.4769 76.2305L44.6047 7.4503Z" fill="#F6F6F9"/>
<path fill-rule="evenodd" clip-rule="evenodd" d="M49.8148 5.15249C48.0881 4.84803 46.4416 6.00095 46.1371 7.7276L34.0093 76.5078C33.7049 78.2345 34.8578 79.881 36.5844 80.1855L85.0432 88.73C86.7699 89.0345 88.4164 87.8816 88.7209 86.1549L98.0234 33.3974L87.4719 31.5369C84.0186 30.928 81.7128 27.6349 82.3217 24.1816L84.5957 11.2853L49.8148 5.15249ZM87.2657 14.4246L96.6864 29.938L88.0232 28.4105C86.2965 28.106 85.1436 26.4595 85.4481 24.7329L87.2657 14.4246ZM43.0108 7.17633C43.6197 3.72303 46.9127 1.4172 50.366 2.02611L87.4181 8.55939L101.529 31.7968L91.8472 86.7062C91.2383 90.1595 87.9453 92.4653 84.492 91.8564L36.0332 83.3118C32.5799 82.7029 30.274 79.4098 30.8829 75.9566L43.0108 7.17633Z" fill="#F6F6F9"/>
<path d="M46.259 20.1078C46.4493 19.0286 47.4783 18.3081 48.5575 18.4983L72.037 22.6384C73.1162 22.8287 73.8368 23.8578 73.6465 24.9369C73.4562 26.0161 72.4271 26.7367 71.348 26.5464L47.8684 22.4063C46.7893 22.216 46.0687 21.1869 46.259 20.1078Z" fill="#E2E2E5"/>
<path d="M43.8664 31.6984C44.0567 30.6192 45.0858 29.8986 46.1649 30.0889L83.3634 36.648C84.4426 36.8383 85.1632 37.8674 84.9729 38.9465C84.7826 40.0257 83.7535 40.7463 82.6743 40.556L45.4758 33.9969C44.3967 33.8066 43.6761 32.7775 43.8664 31.6984Z" fill="#E2E2E5"/>
<path d="M41.2671 47.9525C41.5716 46.2259 43.2181 45.073 44.9447 45.3774L59.5546 47.9535C61.2812 48.258 62.4342 49.9045 62.1297 51.6312C61.8253 53.3578 60.1787 54.5108 58.4521 54.2063L43.8422 51.6302C42.1156 51.3257 40.9626 49.6792 41.2671 47.9525Z" fill="#E2E2E5"/>
<path fill-rule="evenodd" clip-rule="evenodd" d="M84.8053 63.3577C80.2853 58.8378 72.957 58.8378 68.4371 63.3577C63.9171 67.8777 63.9171 75.206 68.4371 79.7259C72.957 84.2459 80.2853 84.2459 84.8053 79.7259C89.3252 75.206 89.3252 67.8777 84.8053 63.3577ZM66.0988 61.0194C71.9101 55.208 81.3322 55.208 87.1436 61.0194C92.5598 66.4356 92.9281 74.9881 88.2485 80.8309L96.064 89.7369C96.6376 90.3904 96.6054 91.377 95.9906 91.9918Lnan nanL95.9906 91.9918C95.3164 92.6661 94.2127 92.6301 93.5838 91.9134L85.9102 83.1692C80.0675 87.8488 71.515 87.4805 66.0988 82.0643C60.2874 76.2529 60.2874 66.8308 66.0988 61.0194Z" fill="#E2E2E5"/>
</svg>
