<svg width="32" height="33" viewBox="0 0 32 33" fill="none" xmlns="http://www.w3.org/2000/svg">
<path fill-rule="evenodd" clip-rule="evenodd" d="M25.6 8.7H6.4C4.63269 8.7 3.2 10.2222 3.2 12.1V25.7C3.2 27.5778 4.63269 29.1 6.4 29.1H25.6C27.3673 29.1 28.8 27.5778 28.8 25.7V12.1C28.8 10.2222 27.3673 8.7 25.6 8.7ZM6.4 5.3C2.86538 5.3 0 8.34446 0 12.1V25.7C0 29.4555 2.86538 32.5 6.4 32.5H25.6C29.1346 32.5 32 29.4555 32 25.7V12.1C32 8.34446 29.1346 5.3 25.6 5.3H6.4Z" fill="#ea4b64"/>
<path d="M1.6 16.5H28.8V19.7H1.6V16.5Z" fill="#ea4b64"/>
<path d="M8 2.1C8 1.21634 8.71634 0.5 9.6 0.5C10.4837 0.5 11.2 1.21634 11.2 2.1V11.7C11.2 12.5837 10.4837 13.3 9.6 13.3C8.71634 13.3 8 12.5837 8 11.7V2.1Z" fill="#ea4b64"/>
<path d="M20.8 2.1C20.8 1.21634 21.5163 0.5 22.4 0.5C23.2837 0.5 24 1.21634 24 2.1V11.7C24 12.5837 23.2837 13.3 22.4 13.3C21.5163 13.3 20.8 12.5837 20.8 11.7V2.1Z" fill="#ea4b64"/>
</svg>
