<svg width="36" height="36" viewBox="0 0 36 36" fill="none" xmlns="http://www.w3.org/2000/svg">
<g id="single/charging">
<path id="Vector" d="M15.7733 33.9548C23.1287 33.9548 29.0915 27.992 29.0915 20.6366C29.0915 13.2811 23.1287 7.31836 15.7733 7.31836C8.41784 7.31836 2.45508 13.2811 2.45508 20.6366C2.45508 27.992 8.41784 33.9548 15.7733 33.9548Z" stroke="#111111" stroke-width="2.45455"/>
<path id="Vector_2" d="M14.7612 25.9356C14.8107 26.6797 15.4062 27.2752 16.101 27.2754C16.8951 27.2756 17.4907 26.6798 17.3913 25.8857L17.3915 19.236L19.972 21.8166C20.3691 22.2136 20.9643 22.3127 21.4606 21.9157L21.957 21.4194C22.3042 21.0722 22.3539 20.4269 21.9568 20.0298L16.9944 15.1668L16.647 14.8194C16.4486 14.621 16.1506 14.5214 15.9525 14.5217C15.7042 14.5711 15.5056 14.6702 15.307 14.8689L14.9598 15.2161L10.0466 20.1293C9.69928 20.4765 9.74903 21.0224 10.1462 21.4196L10.6423 21.9157C11.0391 22.3125 11.6344 22.3127 12.0316 21.9156L14.7113 19.2359L14.7612 25.9356Z" fill="#ea4b64"/>
<path id="Vector_3" d="M27.8926 14.5763C31.2398 14.5763 33.9532 11.8629 33.9532 8.51568C33.9532 5.1685 31.2398 2.45508 27.8926 2.45508C24.5454 2.45508 21.832 5.1685 21.832 8.51568" stroke="#111111" stroke-width="2.45455"/>
</g>
</svg>
