<svg width="12" height="9" viewBox="0 0 12 9" fill="none" xmlns="http://www.w3.org/2000/svg">
<path d="M0.21706 4.92186C-0.0723535 4.64291 -0.0723534 4.19064 0.21706 3.91168C0.506474 3.63273 0.975707 3.63273 1.26512 3.91168L4.93333 7.4473C5.22275 7.72625 5.22275 8.17852 4.93333 8.45747C4.64392 8.73643 4.17469 8.73643 3.88527 8.45747L0.21706 4.92186Z" fill="#58C191"/>
<path d="M10.7349 0.875901C11.0243 0.596949 11.4935 0.596949 11.7829 0.875901C12.0724 1.15485 12.0724 1.60712 11.7829 1.88608L4.97055 8.45222C4.68113 8.73117 4.2119 8.73117 3.92249 8.45222C3.63307 8.17326 3.63307 7.72099 3.92249 7.44204L10.7349 0.875901Z" fill="#58C191"/>
</svg>
