<svg width="12" height="12" viewBox="0 0 12 12" fill="none" xmlns="http://www.w3.org/2000/svg">
<circle cx="6" cy="6" r="6" fill="#99A3AF"/>
<path d="M5.38492 6.90572H6.64304C6.49675 5.52081 8.28153 5.34525 8.28153 3.87256C8.28153 2.63394 7.39402 2 6.1749 2C5.27763 2 4.54616 2.40962 4 3.03381L4.79974 3.77503C5.17035 3.36541 5.55072 3.1606 6.01886 3.1606C6.57477 3.1606 6.90637 3.47269 6.90637 3.99935C6.90637 4.97464 5.17035 5.3355 5.38492 6.90572ZM5.00455 8.53446C5.00455 9.10013 5.43368 9.5 6.01886 9.5C6.60403 9.5 7.03316 9.10013 7.03316 8.53446C7.03316 7.96879 6.60403 7.57867 6.01886 7.57867C5.43368 7.57867 5.00455 7.96879 5.00455 8.53446Z" fill="white"/>
</svg>
