<svg width="16" height="16" viewBox="0 0 16 16" fill="none" xmlns="http://www.w3.org/2000/svg">
<g clip-path="url(#clip0_15389_48360)">
<path fill-rule="evenodd" clip-rule="evenodd" d="M8.80469 1C8.80469 0.585786 9.14047 0.25 9.55469 0.25H14.9991C15.4133 0.25 15.7491 0.585786 15.7491 1V6.44444C15.7491 6.85866 15.4133 7.19444 14.9991 7.19444C14.5849 7.19444 14.2491 6.85866 14.2491 6.44444V1.75H9.55469C9.14047 1.75 8.80469 1.41421 8.80469 1Z" fill="#576072"/>
<path fill-rule="evenodd" clip-rule="evenodd" d="M2.16667 1.75C1.93655 1.75 1.75 1.93655 1.75 2.16667V13.8333C1.75 14.0635 1.93654 14.25 2.16667 14.25H13.8333C14.0635 14.25 14.25 14.0635 14.25 13.8333V10.1287C14.25 9.71445 14.5858 9.37866 15 9.37866C15.4142 9.37866 15.75 9.71445 15.75 10.1287V13.8333C15.75 14.8919 14.8919 15.75 13.8333 15.75H2.16667C1.10813 15.75 0.25 14.8919 0.25 13.8333V2.16667C0.25 1.10812 1.10812 0.25 2.16667 0.25H5.66667C6.08088 0.25 6.41667 0.585786 6.41667 1C6.41667 1.41421 6.08088 1.75 5.66667 1.75H2.16667Z" fill="#576072"/>
<path fill-rule="evenodd" clip-rule="evenodd" d="M15.1795 0.819646C15.4724 1.11254 15.4724 1.58741 15.1795 1.88031L9.22955 7.83031C8.93666 8.1232 8.46178 8.1232 8.16889 7.83031C7.876 7.53741 7.876 7.06254 8.16889 6.76965L14.1189 0.819646C14.4118 0.526752 14.8867 0.526752 15.1795 0.819646Z" fill="#576072"/>
</g>
<defs>
<clipPath id="clip0_15389_48360">
<rect width="16" height="16" fill="white"/>
</clipPath>
</defs>
</svg>
