<svg width="16" height="16" viewBox="0 0 16 16" fill="none" xmlns="http://www.w3.org/2000/svg">
<g clip-path="url(#clip0_15389_48366)">
<path fill-rule="evenodd" clip-rule="evenodd" d="M7.22414 2.08487C4.38573 2.08487 2.08475 4.38586 2.08475 7.22427C2.08475 10.0627 4.38573 12.3637 7.22414 12.3637C10.0626 12.3637 12.3635 10.0627 12.3635 7.22427C12.3635 4.38586 10.0626 2.08487 7.22414 2.08487ZM-0.048584 7.22427C-0.048584 3.20765 3.20753 -0.0484619 7.22414 -0.0484619C11.2408 -0.0484619 14.4969 3.20765 14.4969 7.22427C14.4969 11.2409 11.2408 14.497 7.22414 14.497C3.20753 14.497 -0.048584 11.2409 -0.048584 7.22427Z" fill="#EAECEF"/>
<path fill-rule="evenodd" clip-rule="evenodd" d="M10.8529 10.8531C11.2695 10.4365 11.9449 10.4365 12.3614 10.8531L15.736 14.2276C16.1525 14.6442 16.1525 15.3195 15.736 15.7361C15.3194 16.1527 14.644 16.1527 14.2275 15.7361L10.8529 12.3615C10.4364 11.945 10.4364 11.2696 10.8529 10.8531Z" fill="#EAECEF"/>
</g>
<defs>
<clipPath id="clip0_15389_48366">
<rect width="16" height="16" fill="white"/>
</clipPath>
</defs>
</svg>
