<svg width="18" height="18" viewBox="0 0 18 18" fill="none" xmlns="http://www.w3.org/2000/svg">
<path d="M5.66065 16.3129C12.4531 16.3129 16.1683 10.6854 16.1683 5.80525C16.1683 5.64543 16.1683 5.48631 16.1575 5.3279C16.8803 4.80509 17.5042 4.15783 18 3.41631C17.326 3.71496 16.611 3.91079 15.8789 3.99734C16.6496 3.53595 17.2269 2.80969 17.5025 1.95469C16.7776 2.38483 15.9844 2.68802 15.1574 2.85111C14.4592 2.10857 13.4839 1.68701 12.4647 1.68701C10.4368 1.68701 8.76822 3.35567 8.76822 5.38348C8.76822 5.6648 8.80035 5.94524 8.86391 6.21925C5.89609 6.0705 3.12711 4.66671 1.25279 2.36078C0.278121 4.03865 0.782437 6.21306 2.39614 7.2906C1.80851 7.2732 1.23349 7.11464 0.72 6.82837V6.87516C0.720492 8.62643 1.96618 10.1486 3.68279 10.4953C3.13914 10.6436 2.56859 10.6652 2.0153 10.5587C2.49789 12.0593 3.88951 13.0937 5.46553 13.1233C4.15807 14.1509 2.54204 14.709 0.879117 14.7073C0.585281 14.7068 0.291727 14.689 0 14.654C1.6887 15.7377 3.65414 16.3127 5.66065 16.31" fill="#1DA1F2"/>
</svg>
