<svg width="99" height="113" viewBox="0 0 99 113" fill="none" xmlns="http://www.w3.org/2000/svg">
<path d="M1 46.1109L47.2887 22.8662L93.5774 46.1109L47.2887 70.7798L1 46.1109Z" fill="#F2F2F2" stroke="#17191A" stroke-miterlimit="10" stroke-linejoin="round"/>
<path d="M1 46.1109L47.2887 22.8662V46.1109V70.7798L1 46.1109Z" fill="#D8D8D8" stroke="#17191A" stroke-miterlimit="10" stroke-linejoin="round"/>
<path d="M8.19291 53.994L7.85005 53.6434L8.19291 53.994C8.48121 53.7122 8.71068 53.3759 8.86803 53.0046C9.02538 52.6334 9.10746 52.2347 9.10953 51.8315C9.1116 51.4283 9.03362 51.0287 8.88009 50.6559L8.41776 50.8463L8.88009 50.6559C8.72656 50.283 8.50055 49.9444 8.21517 49.6596C7.92978 49.3748 7.59069 49.1495 7.21756 48.9967C7.00162 48.9083 6.77676 48.8452 6.54748 48.8082L6.56151 46.1124C7.03188 46.0705 7.49456 45.9602 7.93475 45.7843C8.53177 45.5458 9.07559 45.1912 9.53476 44.7413L9.1848 44.3841L9.53476 44.7413C9.99394 44.2913 10.3594 43.7547 10.6099 43.1626C10.8605 42.5705 10.9912 41.9347 10.9945 41.2917C10.9978 40.6488 10.8737 40.0116 10.6293 39.417C10.3848 38.8224 10.025 38.2821 9.57047 37.8274L9.21683 38.1808L9.57047 37.8274C9.11596 37.3726 8.57584 37.0125 7.98131 36.7678C7.54295 36.5874 7.08143 36.4723 6.61151 36.4256L6.6252 33.7298C6.85485 33.6952 7.08035 33.6344 7.29719 33.5483C7.67187 33.3993 8.01325 33.1775 8.30155 32.8956C8.58985 32.6137 8.81932 32.2774 8.97667 31.9062C9.13401 31.535 9.2161 31.1362 9.21817 30.733C9.22024 30.3298 9.14225 29.9303 8.98872 29.5574C8.8352 29.1846 8.60919 28.846 8.3238 28.5612C8.03842 28.2763 7.69933 28.051 7.3262 27.8982L7.14362 28.3442L7.3262 27.8982C7.11026 27.8098 6.8854 27.7467 6.65612 27.7098L6.67025 24.9944C7.29399 24.8946 7.87594 24.6029 8.33151 24.1535C8.78745 23.7037 9.08729 23.1252 9.19538 22.5024L61.8189 22.7735C61.9205 23.3975 62.2144 23.9792 62.6657 24.4336C63.1166 24.8878 63.6956 25.1856 64.3183 25.2918L64.3045 28.0071C64.0748 28.0417 63.8493 28.1025 63.6325 28.1887C63.2578 28.3376 62.9164 28.5595 62.6281 28.8414C62.3398 29.1232 62.1104 29.4595 61.953 29.8308C61.7957 30.202 61.7136 30.6008 61.7115 31.004C61.7095 31.4071 61.7875 31.8067 61.941 32.1796C62.0945 32.5524 62.3205 32.891 62.6059 33.1758C62.8913 33.4606 63.2304 33.686 63.6036 33.8387C63.8195 33.9271 64.0444 33.9902 64.2736 34.0271L64.2596 36.7234C63.7896 36.7657 63.3272 36.8764 62.8875 37.0525C62.2911 37.2914 61.7479 37.6461 61.2893 38.096C60.8307 38.5459 60.4657 39.0822 60.2155 39.674C59.9653 40.2657 59.8348 40.9011 59.8314 41.5436C59.8281 42.1861 59.9521 42.8228 60.1962 43.4171C60.4403 44.0114 60.7997 44.5514 61.2536 45.0061C61.7075 45.4607 62.247 45.821 62.8409 46.066C63.2789 46.2467 63.74 46.3621 64.2096 46.4093L64.1959 49.1026C63.9655 49.136 63.739 49.1957 63.5211 49.281C63.1441 49.4286 62.8002 49.65 62.5097 49.932C62.2192 50.2141 61.9878 50.5513 61.8291 50.9238C61.6705 51.2963 61.5876 51.6968 61.5855 52.1017C61.5834 52.5066 61.662 52.9079 61.8168 53.2821C61.9716 53.6562 62.1994 53.9958 62.487 54.2809C62.7745 54.566 63.1161 54.7909 63.4915 54.9425C63.7086 55.0301 63.9344 55.0922 64.1646 55.1279L64.1508 57.8402C63.527 57.94 62.945 58.2317 62.4893 58.6811C62.0333 59.1309 61.7334 59.7095 61.6253 60.3325L9.00171 60.0613C8.90001 59.4374 8.60612 58.8558 8.15482 58.4015C7.70391 57.9475 7.12502 57.6497 6.50238 57.5435L6.51651 54.8282C6.74618 54.7937 6.9717 54.7329 7.18856 54.6467C7.56323 54.4977 7.90462 54.2759 8.19291 53.994ZM21.9816 28.252H21.9817L21.9816 28.2478C21.9796 27.6346 21.7355 27.0471 21.3024 26.6131C20.8692 26.1791 20.2822 25.9338 19.669 25.9306C19.0559 25.9274 18.4663 26.1666 18.0287 26.5961C17.5911 27.0255 17.3408 27.6104 17.3324 28.2235L17.3324 28.2235L17.3324 28.2278L17.2814 38.0487H17.2813L17.2814 38.053C17.2834 38.6661 17.5275 39.2536 17.9607 39.6876C18.3938 40.1216 18.9809 40.3668 19.594 40.37C20.2071 40.3732 20.7967 40.134 21.2343 39.7046C21.6719 39.2751 21.9222 38.6902 21.9306 38.0771H21.9306L21.9306 38.0729L21.9816 28.252ZM29.2808 28.2894H29.2808L29.2808 28.2852C29.2788 27.672 29.0346 27.0845 28.6015 26.6506C28.1683 26.2166 27.5813 25.9713 26.9681 25.9681C26.355 25.9649 25.7655 26.2041 25.3278 26.6336C24.8902 27.063 24.64 27.648 24.6316 28.261L24.6315 28.2653L24.5804 38.0867H24.5804L24.5804 38.0909C24.5824 38.704 24.8265 39.2916 25.2596 39.7256C25.6928 40.1596 26.2798 40.4049 26.893 40.4081C27.5061 40.4113 28.0957 40.1722 28.5333 39.7427C28.971 39.3133 29.2212 38.7283 29.2297 38.1152L29.2297 38.111L29.2808 28.2894ZM36.5793 28.3285L36.5793 28.3285L36.5793 28.3243C36.5773 27.7112 36.3332 27.1236 35.9 26.6897C35.4669 26.2557 34.8799 26.0104 34.2667 26.0072C33.6536 26.004 33.064 26.2432 32.6264 26.6726C32.1887 27.102 31.9385 27.687 31.9301 28.3001L31.9301 28.3043L31.8796 38.1253H31.8796L31.8796 38.1295C31.8816 38.7426 32.1257 39.3302 32.5588 39.7641C32.992 40.1981 33.579 40.4434 34.1922 40.4466C34.8053 40.4498 35.3949 40.2107 35.8325 39.7812C36.2702 39.3518 36.5204 38.7668 36.5288 38.1537L36.5288 38.1495L36.5793 28.3285Z" fill="#ea4b64" stroke="black"/>
<path d="M92.8068 12.7021L92.82 12.7049L92.8332 12.7071C93.1777 12.7634 93.4722 12.7948 93.6994 12.7895C93.8104 12.7869 93.9374 12.7751 94.0564 12.7358C94.1667 12.6993 94.37 12.6042 94.461 12.3676C94.5523 12.1301 94.4642 11.9229 94.4058 11.8216C94.3432 11.7126 94.256 11.6193 94.1749 11.5437C94.0089 11.3888 93.7682 11.2169 93.4737 11.0305L93.4624 11.0233L93.4506 11.0167C93.0093 10.7696 92.66 10.3883 92.4538 9.92969C92.2475 9.47108 92.195 8.95896 92.3037 8.46863L92.3066 8.45538L92.3088 8.44199C92.3655 8.0994 92.3972 7.80601 92.3918 7.57928C92.3891 7.46854 92.3773 7.34135 92.3373 7.22202C92.2999 7.11035 92.2035 6.9087 91.9674 6.81899C91.732 6.72957 91.5265 6.81562 91.4247 6.87345C91.3156 6.93548 91.2219 7.02198 91.1457 7.10266C90.9899 7.26776 90.8168 7.50721 90.6293 7.80007L90.622 7.81148L90.6153 7.82327C90.3672 8.2612 89.9838 8.60886 89.5211 8.81446C89.0584 9.02008 88.5413 9.07253 88.0461 8.96393L88.033 8.96105L88.0197 8.95887C87.6752 8.90257 87.3807 8.87116 87.1535 8.87653C87.0425 8.87915 86.9155 8.89089 86.7965 8.93026C86.6862 8.96676 86.4829 9.06181 86.3919 9.29842C86.3006 9.53584 86.3887 9.74304 86.447 9.84444C86.5097 9.95338 86.5969 10.0467 86.6779 10.1223C86.8439 10.2772 87.0847 10.4491 87.3791 10.6355L87.3906 10.6427L87.4024 10.6493C87.8438 10.8964 88.1931 11.2775 88.3994 11.7362C88.6056 12.1948 88.6581 12.7069 88.5493 13.1972L88.5463 13.2106L88.5441 13.2241C88.4875 13.5667 88.4558 13.8601 88.4613 14.0868C88.464 14.1976 88.4759 14.3248 88.5159 14.4441C88.5533 14.5559 88.6498 14.7574 88.8858 14.847C89.1212 14.9364 89.3266 14.8504 89.4284 14.7926C89.5376 14.7306 89.6313 14.6441 89.7075 14.5634C89.8634 14.3983 90.0365 14.1589 90.224 13.866L90.2314 13.8546L90.2381 13.8427C90.4861 13.4048 90.8694 13.0572 91.332 12.8516C91.7946 12.646 92.3117 12.5935 92.8068 12.7021ZM79.1857 40.345L79.2038 40.3257C79.2951 40.3348 79.3801 40.3393 79.4563 40.3375C79.5271 40.3357 79.6227 40.3282 79.7189 40.2962C79.8066 40.2671 79.9955 40.1825 80.0807 39.9601C80.1661 39.7371 80.0815 39.5477 80.0351 39.467C79.9844 39.3788 79.9178 39.3095 79.8661 39.2612C79.7587 39.1609 79.6113 39.0569 79.4449 38.9516L79.4338 38.9446L79.4224 38.9381C79.2193 38.824 79.0589 38.6484 78.9643 38.4377C78.8698 38.227 78.8458 37.9919 78.8957 37.7669L78.8987 37.7535L78.9009 37.74C78.933 37.5462 78.9533 37.3671 78.9498 37.2201C78.9481 37.1493 78.9405 37.0534 78.9082 36.9568C78.8785 36.868 78.7932 36.6801 78.5712 36.5957C78.3497 36.5115 78.1615 36.5946 78.0807 36.6406C77.9925 36.6908 77.9229 36.7569 77.8743 36.8085C77.7735 36.9155 77.6687 37.0623 77.5627 37.228L77.5554 37.2395L77.5487 37.2514C77.4351 37.4523 77.2593 37.6121 77.0467 37.7068C76.834 37.8015 76.5962 37.8258 76.3683 37.776L76.3555 37.7732L76.3425 37.771C76.1479 37.7391 75.9685 37.7188 75.8215 37.7222C75.7507 37.7238 75.6551 37.7313 75.5588 37.7631C75.4711 37.7922 75.282 37.8765 75.1965 38.099C75.1109 38.3219 75.1954 38.5115 75.2417 38.5922C75.2923 38.6804 75.3588 38.7498 75.4105 38.7981C75.5179 38.8985 75.6652 39.0028 75.8316 39.1084L75.8429 39.1156L75.8547 39.1222C76.0578 39.2362 76.2181 39.4117 76.3127 39.6224C76.4072 39.833 76.4312 40.068 76.3812 40.2929L76.3783 40.3063L76.376 40.3198C76.344 40.5137 76.3237 40.6929 76.3272 40.8398C76.3289 40.9107 76.3365 41.0065 76.3688 41.1032C76.3986 41.1921 76.484 41.3799 76.706 41.4642C76.9273 41.5483 77.1154 41.4654 77.1962 41.4194C77.2845 41.3691 77.3541 41.3031 77.4027 41.2515C77.5036 41.1445 77.6084 40.9977 77.7145 40.832L77.7218 40.8205L77.7285 40.8086C77.8421 40.6078 78.0179 40.448 78.2306 40.3534C78.4432 40.2587 78.6811 40.2345 78.9089 40.2843L79.1857 40.345ZM76.6666 40.5741C76.6667 40.574 76.6668 40.5739 76.6669 40.5738L76.6666 40.5741ZM25.8248 5.22894L25.8381 5.23111C26.0327 5.2628 26.2123 5.28278 26.3594 5.27903C26.4303 5.27723 26.5261 5.26952 26.6225 5.23725C26.7108 5.2077 26.8989 5.12261 26.9836 4.90055C27.0683 4.67834 26.9845 4.48955 26.9381 4.40862C26.8876 4.32031 26.8211 4.25085 26.7693 4.20234C26.6619 4.10173 26.5145 3.99731 26.3481 3.89163L26.3367 3.88441L26.325 3.87781C26.1219 3.76372 25.9616 3.58819 25.867 3.37752L25.4109 3.58228L25.867 3.37752C25.7725 3.16689 25.7485 2.93187 25.7984 2.70686L25.8013 2.69358L25.8035 2.68015C25.8356 2.48628 25.8559 2.30719 25.8524 2.16028C25.8507 2.08945 25.8432 1.9936 25.8109 1.89699C25.7812 1.80817 25.6959 1.6203 25.4738 1.53582C25.2524 1.45157 25.0641 1.53469 24.9833 1.58071C24.8951 1.63097 24.8255 1.69706 24.7769 1.74865C24.6761 1.8556 24.5714 2.00241 24.4654 2.16814L24.4579 2.17988L24.451 2.19203C24.3377 2.39312 24.162 2.55322 23.9494 2.64815C23.7368 2.7431 23.4989 2.76763 23.2709 2.71796L23.2582 2.71519L23.2454 2.71309C23.0507 2.68118 22.8713 2.66099 22.7243 2.66443C22.6535 2.66609 22.5579 2.67357 22.4617 2.70546C22.3739 2.7345 22.1849 2.81884 22.0995 3.04124C22.0139 3.26424 22.0984 3.4538 22.1447 3.5345C22.1954 3.62273 22.2619 3.69209 22.3136 3.74045C22.421 3.8408 22.5683 3.94503 22.7347 4.05055L22.746 4.05771L22.7576 4.06425C22.9607 4.17831 23.121 4.35382 23.2156 4.56448C23.3101 4.77511 23.3341 5.01012 23.2842 5.23511L23.2812 5.24845L23.279 5.26193C23.247 5.4558 23.2266 5.6349 23.2301 5.78181C23.2318 5.85264 23.2394 5.9485 23.2717 6.04513C23.3014 6.13397 23.3867 6.32184 23.6088 6.40628C23.8303 6.49048 24.0185 6.40735 24.0993 6.36133C24.1875 6.31108 24.257 6.245 24.3057 6.1934C24.4065 6.08644 24.5112 5.93963 24.6172 5.77389L24.6245 5.76242L24.6312 5.75056C24.7448 5.54969 24.9206 5.38985 25.1332 5.29518C25.3459 5.2005 25.5838 5.17621 25.8116 5.22606L25.8248 5.22894ZM25.5146 2.42461C25.5146 2.42463 25.514 2.42515 25.5129 2.42608C25.514 2.42505 25.5146 2.42459 25.5146 2.42461ZM24.8519 2.17023C24.8519 2.1702 24.852 2.17093 24.8521 2.17248L24.8519 2.17023ZM22.9865 2.99999C22.9865 2.99999 22.9871 3.00055 22.988 3.00165C22.987 3.00054 22.9865 2.99999 22.9865 2.99999ZM22.7335 3.66495C22.7335 3.66493 22.7341 3.66484 22.7356 3.66472L22.7335 3.66495ZM23.568 5.51744C23.568 5.5174 23.5686 5.51688 23.5696 5.51598C23.5685 5.51703 23.568 5.51749 23.568 5.51744ZM24.2306 5.77183C24.2306 5.77188 24.2305 5.77115 24.2304 5.76959L24.2306 5.77183ZM26.0957 4.94213C26.0956 4.94212 26.0951 4.94157 26.0942 4.94049C26.0952 4.94159 26.0957 4.94213 26.0957 4.94213ZM26.3481 4.27855C26.3482 4.27857 26.3474 4.27866 26.3459 4.27878L26.3481 4.27855ZM8.6105 19.6256L8.604 19.6137L8.59687 19.6022C8.38873 19.2667 8.29471 18.8739 8.3283 18.4817C8.3619 18.0895 8.52141 17.718 8.78384 17.422L8.79302 17.4117L8.80161 17.4008C8.98017 17.1755 9.12425 16.9718 9.21475 16.799C9.25876 16.7149 9.30558 16.6096 9.32676 16.4951C9.34645 16.3886 9.36105 16.1716 9.2006 15.9831C9.0411 15.7957 8.82592 15.7747 8.71907 15.7762C8.60331 15.7778 8.49189 15.8058 8.40133 15.8348C8.21528 15.8944 7.98931 16.0013 7.7358 16.1386L7.72398 16.145L7.71252 16.152C7.37417 16.3594 6.97741 16.4534 6.5808 16.4199C6.1842 16.3863 5.80934 16.227 5.5114 15.9659L5.50101 15.9568L5.49014 15.9482C5.26346 15.7707 5.05871 15.6277 4.88528 15.5379C4.80087 15.4942 4.6956 15.448 4.58156 15.4272C4.47602 15.4079 4.26045 15.3933 4.07226 15.5516C3.88333 15.7105 3.86139 15.9263 3.86294 16.0345C3.8646 16.1509 3.89301 16.2625 3.92228 16.3528C3.98244 16.5384 4.09018 16.7634 4.22827 17.0155L4.23477 17.0273L4.2419 17.0388C4.45004 17.3743 4.54406 17.7671 4.51046 18.1593C4.47687 18.5515 4.31736 18.9231 4.05493 19.219L4.04575 19.2294L4.03716 19.2402C3.8586 19.4655 3.71452 19.6693 3.62402 19.8421C3.58001 19.9261 3.53319 20.0315 3.51201 20.1459C3.49232 20.2524 3.47772 20.4694 3.63817 20.6579C3.79767 20.8453 4.01285 20.8664 4.1197 20.8648C4.23546 20.8632 4.34688 20.8353 4.43744 20.8062C4.62349 20.7466 4.84946 20.6397 5.10297 20.5025L5.11479 20.4961L5.12625 20.4891C5.4646 20.2816 5.86136 20.1876 6.25797 20.2212C6.65457 20.2547 7.02943 20.4141 7.32737 20.6752L7.33776 20.6843L7.34863 20.6928C7.57531 20.8703 7.78006 21.0134 7.95349 21.1031C8.0379 21.1468 8.14317 21.193 8.25721 21.2138C8.36275 21.2331 8.57832 21.2478 8.76651 21.0895C8.95544 20.9305 8.97738 20.7147 8.97583 20.6065C8.97417 20.4902 8.94576 20.3785 8.91649 20.2882C8.85633 20.1027 8.74859 19.8776 8.6105 19.6256Z" fill="white" stroke="black"/>
<path d="M50.9009 6.95323L51.1715 6.53275L50.9009 6.95323C51.2405 7.17171 51.6201 7.32051 52.0177 7.39097C52.4153 7.46143 52.8229 7.45215 53.2169 7.36366C53.6108 7.27517 53.9833 7.10924 54.3126 6.87552C54.6418 6.64181 54.9213 6.34496 55.1349 6.00225C55.3484 5.65953 55.4916 5.27779 55.5563 4.87922C55.5937 4.64865 55.6044 4.41511 55.5885 4.18318L58.2357 3.58848C58.4729 4.17405 58.8878 4.67583 59.4279 5.01906C59.9685 5.36256 60.5996 5.52502 61.231 5.49061L72.7655 56.8352C72.1801 57.0741 71.6792 57.4908 71.3375 58.0324C70.996 58.5736 70.8355 59.2046 70.8716 59.8353L68.2228 60.4303C68.1375 60.2144 68.0275 60.0084 67.8948 59.8166C67.6655 59.4853 67.3727 59.2028 67.0335 58.9855C66.6943 58.7681 66.3153 58.6201 65.9185 58.5502L65.8318 59.0426L65.9185 58.5502C65.5218 58.4803 65.115 58.4898 64.722 58.5781C64.3289 58.6665 63.9572 58.8319 63.6285 59.0649C63.2998 59.2978 63.0205 59.5937 62.8069 59.9353C62.5933 60.2769 62.4496 60.6575 62.3841 61.055C62.3462 61.2852 62.3349 61.5183 62.3501 61.7499L59.7157 62.3416C59.5661 61.8962 59.3526 61.4741 59.0811 61.0886C58.7132 60.5663 58.246 60.1216 57.7063 59.7799C57.1666 59.4381 56.5648 59.206 55.9354 59.0969C55.3059 58.9877 54.6611 59.0036 54.0378 59.1436C53.4145 59.2836 52.8249 59.545 52.3026 59.9129C51.7804 60.2807 51.3357 60.7479 50.9939 61.2876C50.6522 61.8274 50.4201 62.4291 50.3109 63.0586C50.2304 63.5232 50.2179 63.9961 50.2732 64.4626L47.6376 65.0547C47.5518 64.8395 47.4414 64.6342 47.3084 64.4431C47.0788 64.1133 46.7862 63.8322 46.4474 63.6159C46.1087 63.3996 45.7305 63.2526 45.3347 63.1831C44.9388 63.1137 44.5331 63.1232 44.141 63.2112L44.2505 63.6991L44.141 63.2113C43.7489 63.2993 43.378 63.464 43.0499 63.696C42.7217 63.928 42.4426 64.2226 42.2288 64.5629C42.015 64.9032 41.8706 65.2824 41.804 65.6787C41.7654 65.9084 41.7534 66.1412 41.7678 66.3725L39.1174 66.9679C38.8803 66.3823 38.4654 65.8805 37.9252 65.5373C37.3846 65.1938 36.7535 65.0314 36.1222 65.0658L24.5882 13.7211C25.1734 13.4821 25.6742 13.0653 26.0158 12.5237C26.3571 11.9825 26.5175 11.3517 26.4815 10.7211L29.1348 10.1251C29.3723 10.7098 29.7874 11.2105 30.3276 11.5525C31.0102 11.9847 31.8365 12.128 32.6248 11.951C33.4131 11.7739 34.0988 11.291 34.531 10.6084C34.873 10.0682 35.0341 9.43809 34.9988 8.80802L37.6353 8.21581C37.7832 8.66293 37.9957 9.08706 38.2665 9.47452C38.6337 9.99974 39.101 10.4473 39.6416 10.7913C40.1822 11.1354 40.7854 11.3693 41.4167 11.4796C42.048 11.5899 42.6948 11.5744 43.32 11.4339C43.9453 11.2935 44.5366 11.0309 45.0601 10.6613C45.5836 10.2916 46.0288 9.82221 46.3704 9.27998C46.7119 8.73775 46.9429 8.13339 47.0502 7.50161C47.1294 7.03552 47.14 6.56129 47.0825 6.09383L49.713 5.50291C49.7978 5.71934 49.9073 5.92587 50.0397 6.11829L50.4516 5.83485L50.0397 6.11829C50.2686 6.45093 50.5614 6.73474 50.9009 6.95323Z" fill="url(#paint0_linear_3647_2057)" stroke="black"/>
<path d="M84.3537 33.8544L84.357 33.8561C84.9027 34.1365 85.5372 34.1899 86.1221 34.0045C86.7069 33.8191 87.1948 33.41 87.4793 32.8664C87.7638 32.3228 87.8219 31.6888 87.6408 31.1025C87.4598 30.5163 87.0544 30.0254 86.5129 29.7368L86.5096 29.7351L77.8082 25.1821L77.805 25.1804C77.2593 24.9 76.6248 24.8466 76.0399 25.032C75.4551 25.2174 74.9672 25.6265 74.6827 26.1701C74.3982 26.7137 74.3401 27.3477 74.5211 27.934C74.7022 28.5202 75.1076 29.0111 75.6491 29.2997L75.6524 29.3014L84.3537 33.8544ZM67.5452 72.8235L65.1409 71.5654C65.2161 71.3454 65.2661 71.1171 65.2895 70.8847C65.33 70.4829 65.2901 70.0772 65.1724 69.6909C65.0546 69.3047 64.8612 68.9457 64.6035 68.6349C64.3458 68.3241 64.0288 68.0676 63.6711 67.8804C63.3133 67.6932 62.9219 67.5789 62.5196 67.5443C62.1173 67.5097 61.7122 67.5554 61.3277 67.6788C60.9432 67.8022 60.5871 68.0008 60.2801 68.263C60.1025 68.4147 59.9433 68.5859 59.8055 68.7731L57.4176 67.5232C57.5946 67.0863 57.7075 66.6252 57.752 66.1541C57.8123 65.5155 57.7458 64.8712 57.5562 64.2584C57.3665 63.6456 57.0576 63.0763 56.6471 62.5834C56.2367 62.0905 55.7327 61.6836 55.1644 61.3861C54.5961 61.0887 53.9745 60.9066 53.3355 60.8503C52.6965 60.794 52.0527 60.8646 51.4411 61.0581C50.8295 61.2516 50.2622 61.5641 49.7719 61.9777C49.4102 62.2827 49.0957 62.6383 48.8376 63.0328L46.4492 61.7829C46.5244 61.563 46.5744 61.3346 46.5978 61.1022C46.6383 60.7005 46.5985 60.2947 46.4807 59.9085C46.3629 59.5222 46.1696 59.1633 45.9118 58.8525C45.6541 58.5416 45.3371 58.2852 44.9794 58.0979C44.6216 57.9107 44.2302 57.7965 43.8279 57.7619C43.4257 57.7273 43.0205 57.773 42.636 57.8964C42.2516 58.0197 41.8954 58.2183 41.5884 58.4805C41.4108 58.6322 41.2517 58.8034 41.1138 58.9906L38.71 57.7324C38.9078 57.1324 38.9157 56.4814 38.7256 55.8703C38.5354 55.2588 38.1591 54.7268 37.6553 54.3448L62.0572 7.7203C62.6583 7.9166 63.31 7.9226 63.921 7.73031C64.5315 7.53817 65.0619 7.16049 65.4422 6.65595L67.8514 7.91699C67.7793 8.13653 67.7323 8.36407 67.7116 8.5953C67.6758 8.99375 67.719 9.39533 67.8384 9.77712C68.0797 10.5482 68.6175 11.1918 69.3333 11.5664C70.0492 11.941 70.8845 12.0159 71.6556 11.7745C72.2657 11.5836 72.796 11.2071 73.1764 10.7036L75.57 11.9565C75.3933 12.3934 75.2808 12.8544 75.2366 13.3253C75.1766 13.9637 75.2434 14.6076 75.4332 15.22C75.623 15.8324 75.9319 16.4013 76.3423 16.894C76.7527 17.3866 77.2564 17.7933 77.8244 18.0906C78.3925 18.3879 79.0138 18.5699 79.6525 18.6263C80.2911 18.6827 80.9347 18.6123 81.546 18.4191C82.1574 18.2259 82.7246 17.9138 83.2149 17.5006C83.5766 17.1959 83.8912 16.8407 84.1495 16.4466L86.5431 17.6994C86.471 17.919 86.4239 18.1465 86.4032 18.3777C86.3675 18.7762 86.4106 19.1778 86.5301 19.5596C86.6496 19.9414 86.8431 20.2959 87.0996 20.6029C87.3561 20.9099 87.6705 21.1634 88.025 21.3488C88.3795 21.5343 88.767 21.6482 89.1654 21.6839C89.5639 21.7196 89.9655 21.6765 90.3472 21.557C90.729 21.4375 91.0836 21.244 91.3906 20.9875C91.5687 20.8387 91.7288 20.6704 91.868 20.486L94.2773 21.7471C94.0795 22.3471 94.0716 22.9982 94.2617 23.6092C94.452 24.2208 94.8283 24.7527 95.3321 25.1347L70.9296 71.7593C70.3286 71.5631 69.677 71.5572 69.0661 71.7494C68.4557 71.9416 67.9254 72.3191 67.5452 72.8235Z" fill="url(#paint1_linear_3647_2057)" stroke="black"/>
<path d="M72.0264 112.081L67.4229 109.538C67.524 109.589 67.6252 109.64 67.7264 109.69L72.33 112.234C72.2288 112.183 72.1276 112.132 72.0264 112.081Z" fill="#060606"/>
<path d="M1 46.1113V79.9865L47.2887 105.215V70.2716L1 46.1113Z" fill="white" stroke="#17191A" stroke-miterlimit="10" stroke-linejoin="round"/>
<path d="M1 79.9861V84.3604L47.2887 109.436V105.672L1 79.9861Z" fill="#2D2F30" stroke="#17191A" stroke-miterlimit="10" stroke-linejoin="round"/>
<path d="M93.5768 46.1113V79.9865L47.2881 105.215V70.2716L93.5768 46.1113Z" fill="white" stroke="#17191A" stroke-miterlimit="10" stroke-linejoin="round"/>
<path d="M93.5768 79.9861V85.0216L47.2881 109.436V105.672L93.5768 79.9861Z" fill="#2D2F30" stroke="#17191A" stroke-miterlimit="10" stroke-linejoin="round"/>
<path d="M20.1219 56.335L19.5654 89.8541L27.5079 94.4319L27.6596 60.3532L20.1219 56.335Z" fill="#B0F127" stroke="#17191A" stroke-miterlimit="10"/>
<path d="M74.758 56.1819L75.3145 89.8536L67.3721 94.4314V60.0984L74.758 56.1819Z" fill="#B0F127" stroke="#17191A" stroke-miterlimit="10"/>
<defs>
<linearGradient id="paint0_linear_3647_2057" x1="52.0165" y1="67.5564" x2="51.3551" y2="3.00678" gradientUnits="userSpaceOnUse">
<stop stop-color="#FDFFF8"/>
<stop offset="1" stop-color="#BADFFA"/>
</linearGradient>
<linearGradient id="paint1_linear_3647_2057" x1="70.4853" y1="73.4794" x2="69.8806" y2="6.00542" gradientUnits="userSpaceOnUse">
<stop stop-color="#FDFFF8"/>
<stop offset="1" stop-color="#BADFFA"/>
</linearGradient>
</defs>
</svg>
