<svg width="88" height="88" viewBox="0 0 88 88" fill="none" xmlns="http://www.w3.org/2000/svg">
<circle cx="44" cy="44" r="43.5" fill="#0D0D0D" stroke="#2A2F33"/>
<g clip-path="url(#clip0_4112_2637)">
<path d="M40.509 28.417L40.509 52.8015C40.5089 52.923 40.4702 53.0415 40.3981 53.141C40.326 53.2404 40.224 53.3159 40.1059 53.3573C39.9879 53.3986 39.8595 53.4038 39.7383 53.372C39.6171 53.3403 39.509 53.2733 39.4286 53.18L31.3915 43.8401C31.3172 43.7537 31.2699 43.6487 31.255 43.5373C31.2402 43.4258 31.2584 43.3126 31.3077 43.2109C31.3569 43.1091 31.4351 43.0231 31.5331 42.9627C31.631 42.9024 31.7447 42.8704 31.8609 42.8703L36.5247 42.8703L36.5247 32.2722C36.5247 30.1436 38.3091 28.417 40.509 28.417ZM47.491 59.5813L47.491 35.1991C47.4911 35.0777 47.5298 34.9592 47.6019 34.8597C47.674 34.7603 47.776 34.6848 47.8941 34.6434C48.0121 34.6021 48.1405 34.5969 48.2617 34.6286C48.3829 34.6604 48.491 34.7274 48.5714 34.8207L56.6085 44.1583C56.6828 44.2446 56.7301 44.3496 56.745 44.4611C56.7598 44.5725 56.7416 44.6857 56.6923 44.7875C56.6431 44.8892 56.5649 44.9753 56.4669 45.0356C56.369 45.0959 56.2553 45.1279 56.1391 45.128L51.4753 45.128L51.4753 55.7285C51.4753 57.8571 49.6909 59.5837 47.491 59.5837L47.491 59.5813Z" fill="#ea4b64" stroke="#ea4b64" stroke-width="1.0625"/>
</g>
<defs>
<clipPath id="clip0_4112_2637">
<rect width="34" height="34" fill="white" transform="translate(27 61) rotate(-90)"/>
</clipPath>
</defs>
</svg>
