<svg width="32" height="32" viewBox="0 0 32 32" fill="none" xmlns="http://www.w3.org/2000/svg">
<g id="single/copy">
<g id="Vector">
<path fill-rule="evenodd" clip-rule="evenodd" d="M1.47896 6.85708C0.662152 6.85708 0 7.51923 0 8.33603V30.5203C0 31.3371 0.662152 31.9993 1.47896 31.9993H23.6633C24.4801 31.9993 25.1423 31.3371 25.1423 30.5203V8.33603C25.1423 7.51923 24.4801 6.85708 23.6633 6.85708H1.47896ZM4.43687 10.5545C4.02847 10.5545 3.69739 10.8855 3.69739 11.2939V27.5624C3.69739 27.9708 4.02847 28.3019 4.43687 28.3019H20.7054C21.1138 28.3019 21.4449 27.9708 21.4449 27.5624V11.2939C21.4449 10.8855 21.1138 10.5545 20.7054 10.5545H4.43687Z" fill="#999999"/>
<path d="M19.784 3.76461C19.7761 3.76473 19.7681 3.76479 19.7602 3.76479L8.08985 3.76479C7.25819 3.76479 6.584 3.0906 6.584 2.25895V1.50603C6.584 0.674374 7.25819 0.000184503 8.08985 0.000184576L12.023 0.00018492C12.031 6.17911e-05 12.0389 0 12.0469 0H30.4935C31.3252 0 31.9993 0.674189 31.9993 1.50584V10.8608C32 10.8797 32.0004 10.8986 32.0004 10.9176V22.5879C32.0004 23.4195 31.3262 24.0937 30.4945 24.0937H29.7416C28.91 24.0937 28.2358 23.4195 28.2358 22.5879V21.4583H28.2347V4.51753C28.2347 4.1017 27.8976 3.76461 27.4818 3.76461H19.784Z" fill="#999999"/>
</g>
</g>
</svg>
