<svg width="17" height="16" viewBox="0 0 17 16" fill="none" xmlns="http://www.w3.org/2000/svg">
<path d="M1.16665 0.5H16.1666C16.3877 0.5 16.5996 0.587797 16.7559 0.744078C16.9122 0.900358 17 1.11232 17 1.33333V14.6667C17 14.8877 16.9122 15.0996 16.7559 15.2559C16.5996 15.4122 16.3877 15.5 16.1666 15.5H1.16665C0.945633 15.5 0.733671 15.4122 0.577391 15.2559C0.42111 15.0996 0.333313 14.8877 0.333313 14.6667V1.33333C0.333313 1.11232 0.42111 0.900358 0.577391 0.744078C0.733671 0.587797 0.945633 0.5 1.16665 0.5ZM15.3333 4.03167L10.051 8.76228C9.29573 9.43868 8.1538 9.44291 7.39354 8.77212L1.99998 4.01333V13.8333H15.3333V4.03167ZM2.42581 2.16667L8.71748 7.71833L14.9183 2.16667H2.42581Z" fill="currentColor"/>
</svg>
