<svg width="60" height="60" viewBox="0 0 60 60" fill="none" xmlns="http://www.w3.org/2000/svg">
<path d="M43.0072 15.3057L50.45 19.7715C51.4021 20.3426 52.19 21.1506 52.737 22.1167C53.284 23.0828 53.5715 24.1741 53.5714 25.2843V48.5714C53.5714 50.2764 52.8941 51.9115 51.6886 53.1171C50.483 54.3227 48.8478 55 47.1429 55H12.8572C11.1522 55 9.51707 54.3227 8.31147 53.1171C7.10588 51.9115 6.42859 50.2764 6.42859 48.5714V25.2843C6.42831 24.1738 6.71568 23.0822 7.26271 22.1159C7.80974 21.1495 8.59777 20.3413 9.55002 19.77L16.9929 15.3057L19.1972 18.98L11.7543 23.4457C11.4367 23.6364 11.1739 23.9061 10.9917 24.2286C10.8094 24.5511 10.7138 24.9153 10.7143 25.2857V48.5714C10.7143 49.1398 10.9401 49.6848 11.3419 50.0867C11.7438 50.4885 12.2888 50.7143 12.8572 50.7143H47.1429C47.7112 50.7143 48.2562 50.4885 48.6581 50.0867C49.06 49.6848 49.2857 49.1398 49.2857 48.5714V25.2843C49.286 24.9141 49.1903 24.5502 49.008 24.228C48.8258 23.9058 48.5631 23.6363 48.2457 23.4457L40.8029 18.98L43.0072 15.3057ZM30 7.14288L38.5714 12.2857L34.9214 20H34.7972L37.1429 39.6243L30 45.7143L22.8572 39.6243L25.2014 20H25.1014L21.4286 12.2857L30 7.14288ZM31.03 20H28.9686L26.8086 38.0786L30 40.7986L33.1914 38.0786L31.0286 20H31.03ZM30 12.1415L26.9714 13.9572L27.8072 15.7143H32.2072L33.0357 13.9629L30 12.1429V12.1415Z" fill="#999999"/>
<path d="M43.0069 15.3057L50.4498 19.7714C51.4018 20.3426 52.1897 21.1506 52.7367 22.1167C53.2837 23.0828 53.5712 24.1741 53.5712 25.2843V48.5714C53.5712 50.2764 52.8939 51.9115 51.6883 53.1171C50.4827 54.3227 48.8476 55 47.1426 55H12.8569C11.152 55 9.51682 54.3227 8.31123 53.1171C7.10564 51.9115 6.42834 50.2764 6.42834 48.5714V25.2843C6.42806 24.1738 6.71544 23.0822 7.26247 22.1159C7.8095 21.1495 8.59753 20.3413 9.54977 19.77L16.9926 15.3057L19.1969 18.98L11.7541 23.4457C11.4365 23.6364 11.1737 23.9061 10.9914 24.2286C10.8091 24.5511 10.7136 24.9153 10.7141 25.2857V48.5714C10.7141 49.1398 10.9398 49.6848 11.3417 50.0867C11.7436 50.4885 12.2886 50.7143 12.8569 50.7143H47.1426C47.711 50.7143 48.256 50.4885 48.6579 50.0867C49.0597 49.6848 49.2855 49.1398 49.2855 48.5714V25.2843C49.2857 24.9141 49.19 24.5502 49.0078 24.228C48.8255 23.9058 48.5629 23.6362 48.2455 23.4457L40.8026 18.98L43.0069 15.3057Z" fill="#ea4b64"/>
</svg>
