<svg width="32" height="32" viewBox="0 0 32 32" fill="none" xmlns="http://www.w3.org/2000/svg">
<g id="single/choose_single">
<g id="Vector">
<path d="M0.578828 15.7916C-0.192943 15.0477 -0.192943 13.8417 0.578828 13.0978C1.3506 12.3539 2.60189 12.3539 3.37366 13.0978L13.1556 22.5261C13.9273 23.27 13.9273 24.476 13.1556 25.2199C12.3838 25.9638 11.1325 25.9638 10.3607 25.2199L0.578828 15.7916Z" fill="#ea4b64"/>
<path d="M28.6263 5.00236C29.3981 4.25849 30.6494 4.25849 31.4212 5.00236C32.1929 5.74623 32.1929 6.95229 31.4212 7.69616L13.2548 25.2059C12.483 25.9497 11.2317 25.9497 10.46 25.2059C9.6882 24.462 9.6882 23.2559 10.46 22.5121L28.6263 5.00236Z" fill="#ea4b64"/>
</g>
</g>
</svg>
