<svg width="32" height="32" viewBox="0 0 32 32" fill="none" xmlns="http://www.w3.org/2000/svg">
<g id="single/close">
<path id="Union" d="M29.6417 4.0423C30.336 3.34804 30.336 2.22241 29.6417 1.52815C28.9474 0.83388 27.8218 0.83388 27.1275 1.52815L15.5848 13.0708L4.04216 1.52815C3.34789 0.833882 2.22226 0.833882 1.528 1.52815C0.833733 2.22241 0.833733 3.34804 1.528 4.0423L13.0707 15.585L1.52754 27.1281C0.83327 27.8224 0.83327 28.948 1.52754 29.6423C2.2218 30.3366 3.34743 30.3366 4.04169 29.6423L15.5848 18.0992L27.128 29.6423C27.8223 30.3366 28.9479 30.3366 29.6422 29.6423C30.3364 28.948 30.3364 27.8224 29.6422 27.1281L18.099 15.585L29.6417 4.0423Z" fill="#F5F5F5"/>
</g>
</svg>
