<svg style="margin:0" width="20" height="18" viewBox="0 0 20 18" fill="currentColor" xmlns="http://www.w3.org/2000/svg">
  <path
    d="M9.99991 9.83268C10.4601 9.83268 10.8332 10.2058 10.8332 10.666V14.4868L11.767 13.5531C12.0926 13.2275 12.6205 13.2275 12.9461 13.5531C13.2718 13.8787 13.2717 14.4066 12.9461 14.7322L10.7069 16.9709C10.3164 17.3613 9.68342 17.3613 9.29294 16.9709L7.05377 14.7322C6.7281 14.4066 6.72807 13.8787 7.0537 13.5531C7.37929 13.2275 7.90719 13.2275 8.23279 13.5531L9.16658 14.4868V10.666C9.16658 10.2058 9.53967 9.83268 9.99991 9.83268ZM9.99991 0.666016C11.4307 0.666084 12.8116 1.19194 13.8801 2.14361C14.9485 3.09528 15.63 4.4064 15.7949 5.82768C16.8318 6.11045 17.7363 6.7486 18.3505 7.63062C18.9646 8.51264 19.2492 9.58243 19.1546 10.653C19.06 11.7236 18.5922 12.7269 17.8329 13.4875C17.0736 14.2482 16.0712 14.7178 15.0007 14.8144V13.136C15.3842 13.0813 15.7529 12.9506 16.0854 12.7518C16.4178 12.553 16.7074 12.29 16.937 11.978C17.1667 11.6661 17.332 11.3115 17.4231 10.9351C17.5143 10.5586 17.5296 10.1677 17.468 9.78524C17.4065 9.40279 17.2693 9.03644 17.0647 8.70756C16.86 8.37868 16.5919 8.09386 16.2759 7.86974C15.96 7.64562 15.6025 7.48667 15.2245 7.40219C14.8465 7.31771 14.4554 7.30938 14.0741 7.37768C14.2046 6.77009 14.1975 6.14099 14.0534 5.53648C13.9093 4.93196 13.6318 4.36734 13.2412 3.88396C12.8507 3.40058 12.3569 3.01069 11.7961 2.74284C11.2354 2.475 10.6218 2.33599 10.0003 2.33599C9.37887 2.33599 8.76529 2.475 8.20452 2.74284C7.64375 3.01069 7.14999 3.40058 6.75941 3.88396C6.36884 4.36734 6.09133 4.93196 5.94723 5.53648C5.80313 6.14099 5.79607 6.77009 5.92658 7.37768C5.16629 7.23491 4.38043 7.4 3.74186 7.83665C3.1033 8.2733 2.66435 8.94573 2.52158 9.70602C2.3788 10.4663 2.5439 11.2522 2.98055 11.8907C3.41719 12.5293 4.08962 12.9682 4.84991 13.111L4.99991 13.136V14.8144C3.92945 14.718 2.92692 14.2484 2.16752 13.4878C1.40813 12.7273 0.940184 11.724 0.845474 10.6534C0.750763 9.58276 1.03531 8.51292 1.64939 7.63083C2.26346 6.74874 3.168 6.1105 4.20491 5.82768C4.36967 4.40633 5.05108 3.09511 6.11956 2.1434C7.18804 1.1917 8.56904 0.665902 9.99991 0.666016Z"
  />
</svg>