<svg width="48" height="48" viewBox="0 0 48 48" fill="none" xmlns="http://www.w3.org/2000/svg">
<g id="Frame">
<path id="Union" fill-rule="evenodd" clip-rule="evenodd" d="M31.591 10.409C30.7123 9.53033 29.2877 9.53033 28.409 10.409C27.5303 11.2877 27.5303 12.7123 28.409 13.591L36.568 21.75H6C4.75736 21.75 3.75 22.7574 3.75 24C3.75 25.2426 4.75736 26.25 6 26.25H36.568L28.409 34.409C27.5303 35.2877 27.5303 36.7123 28.409 37.591C29.2877 38.4697 30.7123 38.4697 31.591 37.591L43.591 25.591C43.8176 25.3644 43.9858 25.1014 44.0955 24.8209C44.1815 24.6015 44.2341 24.3653 44.2469 24.1186C44.251 24.0396 44.251 23.9604 44.2469 23.8814C44.2341 23.6347 44.1815 23.3985 44.0955 23.1791C43.9858 22.8986 43.8176 22.6356 43.591 22.409L31.591 10.409Z" fill="#ea4b64"/>
</g>
</svg>
