<svg width="382" height="318" viewBox="0 0 382 318" fill="none" xmlns="http://www.w3.org/2000/svg">
<path d="M36.9961 150.683L97.4741 119.307L126.593 270.584L68.355 301.96L36.9961 150.683Z" fill="#71A407" stroke="black" stroke-width="1.13772" stroke-miterlimit="10" stroke-linecap="round" stroke-linejoin="round"/>
<path d="M209.469 281.764L267.707 251.509L126.592 270.559L68.3535 301.935L209.469 281.764Z" fill="#364E05" stroke="black" stroke-width="1.13772" stroke-miterlimit="10" stroke-linecap="round" stroke-linejoin="round"/>
<path d="M212.797 13.916L304.634 62.1008L260.956 173.038L166.879 120.371L212.797 13.916Z" fill="#D8D8D8" stroke="black" stroke-width="1.13772" stroke-miterlimit="10" stroke-linecap="round" stroke-linejoin="round"/>
<path d="M328.149 182.06L260.951 173.095L304.63 62.1582L371.827 68.8817L328.149 182.06Z" fill="white" stroke="black" stroke-width="1.13772" stroke-miterlimit="10" stroke-linecap="round" stroke-linejoin="round"/>
<path d="M280.092 22.8806L371.929 68.8242L304.731 62.1008L212.895 13.916L280.092 22.8806Z" fill="#E7E7E7" stroke="black" stroke-width="1.13772" stroke-miterlimit="10" stroke-linecap="round" stroke-linejoin="round"/>
<path d="M239.428 110.311L252.531 109.751L264.851 162.194L260.371 172.503L251.411 167.349L239.428 110.311Z" fill="#C0C0C0"/>
<path d="M238.6 99.082L97.4844 119.252L126.603 270.53L267.719 251.48L238.6 99.082Z" fill="#B0F127" stroke="black" stroke-width="1.13772" stroke-miterlimit="10" stroke-linecap="round" stroke-linejoin="round"/>
<path d="M228.955 142.814L233.995 166.346C235.226 172.061 234.891 176.544 232.875 180.018C230.747 183.827 226.491 186.965 220.219 189.767L208.795 194.921C204.092 197.162 201.964 200.076 202.636 203.55L204.54 212.178L170.381 218.117L166.685 200.748C165.789 196.714 166.461 193.352 168.477 190.439C170.045 188.086 173.741 185.396 179.452 182.483L193.452 175.423C198.044 173.182 199.948 170.269 199.052 166.795L196.7 155.701C196.028 150.77 192.332 149.09 185.724 150.434L129.054 160.407L124.574 139.901L193.9 127.799C203.084 126.23 210.363 126.23 215.627 127.911C222.795 129.928 227.275 134.858 228.955 142.814ZM163.773 158.951L168.365 180.242L134.43 186.181L129.838 164.89L163.773 158.951ZM205.995 220.358L210.811 242.658L176.876 248.597L172.061 226.297L205.995 220.358Z" fill="black"/>
<path d="M292.309 177.556L302.388 178.676L347.187 66.6186L335.987 65.498L292.309 177.556Z" fill="#B0F127" stroke="black" stroke-width="1.13772" stroke-miterlimit="10" stroke-linecap="round" stroke-linejoin="round"/>
<path d="M245.365 18.4619L259.925 20.7031L347.282 66.6467L336.082 65.5261L245.365 18.4619Z" fill="#B0F127" stroke="black" stroke-width="1.13772" stroke-miterlimit="10" stroke-linecap="round" stroke-linejoin="round"/>
<path d="M132.616 53.3846C138.85 33.5878 128.763 12.7667 110.086 6.87935C91.4097 0.992 71.2161 12.2678 64.9824 32.0646C58.7487 51.8614 68.8356 72.6825 87.5121 78.5699C106.189 84.4572 126.382 73.1814 132.616 53.3846Z" fill="#383838" stroke="black" stroke-width="1.13772" stroke-miterlimit="10"/>
<path d="M122.259 49.3231C128.338 30.0197 119.799 10.1262 103.187 4.88978C86.5756 -0.346651 68.1818 11.0569 62.1034 30.3603C56.0251 49.6637 64.564 69.5572 81.1756 74.7936C97.7872 80.0301 116.181 68.6265 122.259 49.3231Z" fill="white" stroke="black" stroke-width="1.13772" stroke-miterlimit="10"/>
<path d="M100.585 46.389L87.1289 51.7745L78.002 38.779L84.0866 64.5944L100.585 46.389Z" fill="#060606"/>
<path d="M87.8126 48.8189L101.269 43.3748L96.062 13.6374L78.7441 35.7649L87.8126 48.8189Z" fill="#060606"/>
<path d="M356.918 294.284C362.535 284.04 363.529 269.054 358.498 254.068C354.519 242.244 347.615 232.643 339.6 226.79L336.324 214.028C334.861 214.555 333.398 215.082 331.877 215.609C327.431 217.189 322.984 218.77 318.538 220.35C317.66 220.643 316.783 220.994 315.847 221.287C314.852 221.638 313.916 221.931 312.98 222.399C311.693 222.985 310.464 223.687 309.352 224.507C307.012 226.204 305.023 228.312 303.385 230.712C301.63 233.287 300.284 236.097 299.289 239.024C298.178 242.244 297.534 245.639 297.183 248.975C296.832 252.663 296.891 256.41 297.242 260.098C297.651 264.078 298.47 268 299.64 271.805C299.816 272.391 299.991 272.976 300.225 273.562C307.89 296.45 326.67 310.85 342.525 306.343C346.504 305.231 350.248 303.533 354.11 302.128C355.572 301.601 357.035 301.074 358.498 300.548C358.498 300.489 356.918 294.284 356.918 294.284Z" fill="#383838" stroke="black" stroke-width="1.13772" stroke-miterlimit="10" stroke-linecap="round" stroke-linejoin="round"/>
<path d="M355.318 301.362C340.282 301.362 325.129 287.371 318.401 267.351C310.503 243.76 317.406 220.052 333.788 214.55C336.07 213.789 338.469 213.379 340.926 213.379C355.962 213.379 371.115 227.369 377.843 247.389C381.646 258.804 382.173 270.571 379.306 280.464C376.439 290.474 370.413 297.498 362.456 300.132C360.174 301.01 357.776 301.362 355.318 301.362Z" fill="white"/>
<path d="M340.957 213.993C355.349 213.993 370.561 227.574 377.289 247.594C385.129 270.951 378.401 294.249 362.311 299.634C360.03 300.395 357.689 300.747 355.349 300.747C340.957 300.747 325.745 287.166 319.017 267.146C311.177 243.789 317.905 220.491 333.994 215.105C336.276 214.344 338.616 213.993 340.957 213.993ZM340.957 212.822C338.441 212.822 335.984 213.232 333.643 213.993C325.511 216.744 319.368 223.827 316.443 234.072C313.517 244.14 314.044 256.023 317.905 267.497C321.24 277.448 326.623 285.995 333.526 292.317C340.313 298.522 348.036 301.917 355.349 301.917C357.865 301.917 360.322 301.508 362.662 300.747C370.795 297.995 376.938 290.912 379.863 280.668C382.789 270.599 382.262 258.716 378.401 247.243C375.066 237.291 369.683 228.745 362.779 222.422C356.051 216.217 348.27 212.822 340.957 212.822Z" fill="black"/>
<path d="M360.299 241.19C358.954 236.097 355.385 235.805 351.114 237.21L349.768 229.892L346.55 231.356L347.896 238.498C347.077 238.849 346.199 239.317 345.38 239.727L344.034 232.585L340.817 234.049L342.162 241.366C341.46 241.659 340.758 242.01 340.173 242.361V242.303L335.727 244.293L336.604 249.034C336.604 249.034 338.944 247.864 338.944 247.981C340.29 247.395 340.875 248.273 341.109 249.093L342.63 257.405C342.689 257.347 342.864 257.347 342.981 257.288C342.864 257.347 342.747 257.405 342.63 257.405L344.795 269.055C344.854 269.64 344.795 270.635 343.859 271.045C343.917 271.103 341.519 272.098 341.519 272.098L341.87 277.718L346.024 275.845C346.784 275.494 347.545 275.142 348.305 274.85L349.593 282.226L352.81 280.762L351.465 273.445C352.342 273.035 353.22 272.684 354.039 272.274L355.385 279.533L358.602 278.069L357.257 270.694C362.581 267.825 366.033 264.196 365.155 256.996C364.512 251.2 362.113 249.503 358.837 249.913C360.533 247.747 361.294 244.878 360.299 241.19ZM358.719 259.044C359.773 264.547 352.81 267.006 350.646 268.059L348.89 258.225C350.997 257.23 357.666 253.249 358.719 259.044ZM354.683 245.873C355.619 250.908 349.827 252.839 347.954 253.717L346.316 244.878C348.188 244 353.688 240.605 354.683 245.873Z" fill="#060606"/>
<path d="M261.271 317.647C261.212 317.647 261.212 317.647 261.154 317.647L252.963 313.783C252.846 313.725 252.787 313.608 252.787 313.491V303.012C252.787 302.895 252.846 302.837 252.904 302.778C252.963 302.72 253.021 302.72 253.08 302.72C253.138 302.72 253.138 302.72 253.197 302.72L261.388 306.7C261.505 306.759 261.563 306.876 261.563 306.993V317.354C261.563 317.471 261.505 317.53 261.446 317.588C261.388 317.588 261.329 317.647 261.271 317.647Z" fill="white"/>
<path d="M253.001 303.027L261.192 307.007V317.369L253.001 313.505V303.027ZM253.001 302.441C252.884 302.441 252.767 302.5 252.709 302.558C252.533 302.675 252.416 302.851 252.416 303.027V313.505C252.416 313.739 252.533 313.915 252.767 314.032L260.958 317.895C261.016 317.954 261.133 317.954 261.192 317.954C261.309 317.954 261.426 317.895 261.484 317.837C261.66 317.72 261.777 317.544 261.777 317.369V307.007C261.777 306.773 261.66 306.597 261.426 306.48L253.235 302.5C253.177 302.441 253.118 302.441 253.001 302.441Z" fill="#060606"/>
<path d="M261.429 317.603C261.371 317.603 261.312 317.603 261.254 317.544C261.195 317.486 261.137 317.369 261.137 317.31V306.949C261.137 306.832 261.195 306.715 261.312 306.715L269.328 302.5C269.386 302.5 269.445 302.441 269.445 302.441C269.503 302.441 269.562 302.441 269.62 302.5C269.679 302.558 269.737 302.675 269.737 302.734V313.388C269.737 313.505 269.679 313.622 269.562 313.622L261.546 317.603C261.546 317.603 261.488 317.603 261.429 317.603Z" fill="black"/>
<path d="M269.366 302.656V313.31L261.351 317.29V306.929L269.366 302.656ZM269.366 302.07C269.249 302.07 269.191 302.07 269.074 302.129L261.058 306.343C260.883 306.461 260.766 306.636 260.766 306.87V317.232C260.766 317.407 260.883 317.641 261.058 317.7C261.175 317.758 261.234 317.817 261.351 317.817C261.468 317.817 261.526 317.817 261.585 317.758L269.6 313.778C269.776 313.661 269.951 313.485 269.951 313.251V302.656C269.951 302.421 269.834 302.246 269.659 302.129C269.6 302.129 269.483 302.07 269.366 302.07Z" fill="#060606"/>
<path d="M261.271 307.257C261.212 307.257 261.212 307.257 261.154 307.257L252.963 303.276C252.846 303.218 252.787 303.101 252.787 303.042C252.787 302.925 252.846 302.808 252.963 302.75L261.154 298.418C261.212 298.418 261.271 298.359 261.271 298.359C261.329 298.359 261.388 298.359 261.388 298.418L269.403 302.457C269.52 302.515 269.578 302.633 269.578 302.691C269.578 302.75 269.52 302.925 269.403 302.925L261.388 307.14C261.388 307.199 261.329 307.257 261.271 307.257Z" fill="#B0F127"/>
<path d="M261.192 298.666L269.207 302.705L261.192 306.92L253.001 302.94L261.192 298.666ZM261.192 298.081C261.075 298.081 261.016 298.081 260.899 298.139L252.709 302.471C252.533 302.588 252.416 302.764 252.416 302.998C252.416 303.232 252.533 303.408 252.767 303.525L260.958 307.506C261.016 307.564 261.133 307.564 261.192 307.564C261.309 307.564 261.367 307.564 261.484 307.506L269.5 303.291C269.675 303.174 269.792 302.998 269.792 302.764C269.792 302.53 269.675 302.354 269.5 302.237L261.484 298.198C261.367 298.139 261.309 298.081 261.192 298.081Z" fill="#060606"/>
<path d="M262.423 77.9447C261.107 77.904 260.008 78.9379 259.967 80.2534C259.927 81.5688 260.96 82.6688 262.275 82.7096C263.591 82.7503 264.689 81.7164 264.73 80.4009C264.771 79.0855 263.738 77.9855 262.423 77.9447Z" fill="#F5F5F5" stroke="black" stroke-width="1.13772" stroke-miterlimit="10"/>
<path d="M135.971 208.637L137.958 206.304C138.112 206.144 138.18 205.936 138.164 205.73C138.148 205.531 138.056 205.365 137.948 205.25C137.84 205.135 137.681 205.033 137.482 205.005C137.275 204.975 137.06 205.033 136.89 205.181L134.551 207.028L131.703 204.436C131.591 204.326 131.42 204.229 131.204 204.237C130.984 204.246 130.824 204.359 130.73 204.465C130.561 204.655 130.479 204.966 130.612 205.255L130.631 205.296L130.655 205.333L132.724 208.429L130.295 211.504L130.264 211.543L130.24 211.587C129.919 212.183 130.533 212.839 131.15 212.554L131.185 212.538L131.217 212.517L134.569 210.375L137.044 212.262C137.202 212.406 137.404 212.47 137.603 212.454C137.802 212.438 137.968 212.346 138.083 212.238C138.198 212.13 138.3 211.971 138.328 211.772C138.358 211.561 138.297 211.341 138.142 211.169L135.971 208.637Z" fill="#F5F5F5" stroke="black" stroke-width="1.13772" stroke-miterlimit="10"/>
<path d="M275.131 92.0586L274.856 89.0448C274.851 88.8432 274.775 88.6382 274.605 88.4875C274.436 88.3371 274.231 88.2923 274.065 88.299C273.778 88.3106 273.343 88.5202 273.31 89.0098L272.961 91.9493L269.124 92.1498C268.89 92.1542 268.711 92.2802 268.609 92.4232C268.515 92.5565 268.483 92.7017 268.48 92.8153C268.476 92.9288 268.498 93.0757 268.585 93.2146C268.673 93.3568 268.833 93.4879 269.05 93.516L272.676 94.2188L273.149 98.0593C273.163 98.2784 273.284 98.4468 273.421 98.5444C273.555 98.6395 273.7 98.6707 273.814 98.6742C273.927 98.6777 274.074 98.6556 274.213 98.569C274.354 98.4814 274.483 98.3244 274.513 98.1118L275.326 94.2914L278.415 93.8654C278.606 93.8561 278.788 93.7768 278.922 93.6309C279.061 93.4802 279.115 93.2964 279.12 93.1376C279.13 92.8261 278.946 92.456 278.538 92.3405L278.484 92.3252L278.428 92.3208L275.131 92.0586Z" fill="#F5F5F5" stroke="black" stroke-width="1.13772" stroke-miterlimit="10"/>
<path d="M6.90913 240.511C10.1726 240.511 12.8183 237.864 12.8183 234.599C12.8183 231.333 10.1726 228.686 6.90913 228.686C3.64561 228.686 1 231.333 1 234.599C1 237.864 3.64561 240.511 6.90913 240.511Z" fill="#B0F127" stroke="black" stroke-width="1.13772" stroke-miterlimit="10"/>
<path d="M32.0609 260.048L33.029 256.281L33.0469 256.212V256.14C33.0469 255.855 32.8945 255.572 32.6071 255.449C32.4681 255.389 32.2966 255.37 32.1253 255.427C31.9634 255.481 31.8369 255.592 31.7572 255.728L29.5905 259.034L26.4701 258.28C26.0174 258.168 25.679 258.465 25.555 258.733C25.4883 258.878 25.4526 259.067 25.5051 259.266C25.5616 259.48 25.7071 259.652 25.9048 259.751L25.9048 259.751L25.9122 259.755L28.9174 261.204L28.0704 264.118L28.0673 264.128L28.0647 264.139C27.9513 264.592 28.2475 264.932 28.5171 265.056C28.6618 265.123 28.8511 265.159 29.0499 265.106C29.2611 265.051 29.4318 264.908 29.5312 264.714L30.9351 262.061L34.5774 263.293L34.5798 263.294C34.7474 263.35 34.9457 263.351 35.1295 263.256C35.304 263.166 35.409 263.019 35.4606 262.881C35.5444 262.658 35.5368 262.24 35.1657 262.03L32.0609 260.048Z" fill="#F5F5F5" stroke="black" stroke-width="1.13772" stroke-miterlimit="10"/>
</svg>
