<svg width="32" height="32" viewBox="0 0 32 32" fill="none" xmlns="http://www.w3.org/2000/svg">
<path fill-rule="evenodd" clip-rule="evenodd" d="M15.9999 3.73333C9.22518 3.73333 3.7332 9.2253 3.7332 16C3.7332 22.7747 9.22518 28.2667 15.9999 28.2667C22.7746 28.2667 28.2665 22.7747 28.2665 16C28.2665 9.2253 22.7746 3.73333 15.9999 3.73333ZM0.533203 16C0.533203 7.45799 7.45787 0.533325 15.9999 0.533325C24.5419 0.533325 31.4665 7.45799 31.4665 16C31.4665 24.542 24.5419 31.4667 15.9999 31.4667C7.45787 31.4667 0.533203 24.542 0.533203 16Z" fill="#999999"/>
<path d="M13.7603 22.5062C13.7603 22.7864 13.8155 23.0638 13.9227 23.3226C14.0299 23.5815 14.187 23.8166 14.3851 24.0147C14.5832 24.2128 14.8184 24.37 15.0772 24.4772C15.3361 24.5844 15.6135 24.6396 15.8936 24.6396C16.1738 24.6396 16.4512 24.5844 16.71 24.4772C16.9688 24.37 17.204 24.2128 17.4021 24.0147C17.6002 23.8166 17.7574 23.5815 17.8646 23.3226C17.9718 23.0638 18.027 22.7864 18.027 22.5062C18.027 21.9404 17.8022 21.3978 17.4021 20.9977C17.002 20.5977 16.4594 20.3729 15.8936 20.3729C15.3278 20.3729 14.7852 20.5977 14.3851 20.9977C13.985 21.3978 13.7603 21.9404 13.7603 22.5062Z" fill="#999999"/>
<path d="M17.9624 16.7893C17.9624 17.9626 17.0024 18.9226 15.829 18.9226C14.6557 18.9226 13.6957 17.9626 13.6957 16.7893V8.49062C13.6957 7.31728 14.6557 6.35728 15.829 6.35728C17.0024 6.35728 17.9624 7.31728 17.9624 8.49062V16.7893Z" fill="#999999"/>
</svg>
