<svg width="20" height="20" viewBox="0 0 20 20" fill="none" xmlns="http://www.w3.org/2000/svg">
<path d="M3.15789 16H5.26316V18H17.8947V2H5.26316V4H3.15789V1C3.15789 0.734784 3.2688 0.48043 3.4662 0.292893C3.66361 0.105357 3.93135 0 4.21053 0H18.9474C19.2265 0 19.4943 0.105357 19.6917 0.292893C19.8891 0.48043 20 0.734784 20 1V19C20 19.2652 19.8891 19.5196 19.6917 19.7071C19.4943 19.8946 19.2265 20 18.9474 20H4.21053C3.93135 20 3.66361 19.8946 3.4662 19.7071C3.2688 19.5196 3.15789 19.2652 3.15789 19V16ZM5.26316 9H12.6316V11H5.26316V14L0 10L5.26316 6V9Z" fill="#576072"/>
</svg>
