<svg width="32" height="32" viewBox="0 0 32 32" fill="none" xmlns="http://www.w3.org/2000/svg">
<path d="M21.6104 20.4C21.6104 19.7373 22.2306 19.2 22.9956 19.2H30.6147C31.3797 19.2 32 19.7373 32 20.4V21C32 21.6627 31.3797 22.2 30.6147 22.2H22.9956C22.2306 22.2 21.6104 21.6627 21.6104 21V20.4Z" fill="#999999"/>
<path d="M21.6104 26.8C21.6104 26.1373 22.2306 25.6 22.9956 25.6H30.6147C31.3797 25.6 32 26.1373 32 26.8V27.4C32 28.0627 31.3797 28.6 30.6147 28.6H22.9956C22.2306 28.6 21.6104 28.0627 21.6104 27.4V26.8Z" fill="#999999"/>
<path fill-rule="evenodd" clip-rule="evenodd" d="M0 1.49708C0 0.670264 0.700253 0 1.56406 0H26.6852C27.549 0 28.2492 0.670264 28.2492 1.49708V11.8293C28.3025 12.2681 28.1533 12.7252 27.8016 13.0618L19.8424 20.6802V26.7602C19.8424 27.0363 19.7643 27.295 19.6281 27.517C19.526 28.0724 19.0987 28.5488 18.492 28.7044L11.6281 31.7438C11.3783 31.9056 11.0771 32 10.7529 32H9.97087C9.10706 32 8.40681 31.3297 8.40681 30.5029V20.6114L0.667286 13.2033C0.263793 12.9326 0 12.4841 0 11.9766V1.49708ZM12.317 27.6925L15.9323 25.4862V19.8363C15.9323 19.5843 15.9973 19.347 16.1121 19.1386C16.1883 18.9494 16.3061 18.772 16.4656 18.6194L24.5346 10.896V4.49123C24.5346 4.07782 24.1845 3.74269 23.7526 3.74269H4.69217C4.26027 3.74269 3.91015 4.07782 3.91015 4.49123V11.0143L11.8555 18.6194C12.203 18.9521 12.3528 19.4023 12.3049 19.8363C12.3128 19.8976 12.317 19.96 12.317 20.0234V27.6925Z" fill="#999999"/>
</svg>
