<svg width="36" height="36" viewBox="0 0 36 36" fill="none" xmlns="http://www.w3.org/2000/svg">
<circle cx="18" cy="18" r="18" fill="#EAECEF"/>
<path d="M28.7989 11.6848C27.9899 12.0426 27.132 12.2776 26.2536 12.382C27.1795 11.8283 27.8724 10.9568 28.2034 9.93C27.3344 10.4471 26.3818 10.8095 25.3889 11.0056C24.722 10.292 23.838 9.8187 22.8743 9.65935C21.9107 9.5 20.9214 9.66349 20.0602 10.1244C19.199 10.5853 18.5143 11.3178 18.1124 12.208C17.7105 13.0983 17.614 14.0963 17.8378 15.0471C16.0757 14.9588 14.3519 14.5009 12.7783 13.7031C11.2046 12.9053 9.81637 11.7855 8.7036 10.4164C8.30972 11.0929 8.10273 11.862 8.10384 12.6448C8.10384 14.1813 8.88586 15.5388 10.0748 16.3335C9.37119 16.3113 8.68308 16.1213 8.06781 15.7793V15.8344C8.06802 16.8577 8.42212 17.8495 9.07008 18.6415C9.71804 19.4335 10.62 19.9771 11.6229 20.18C10.9698 20.357 10.2849 20.3831 9.6202 20.2563C9.90299 21.1372 10.4542 21.9075 11.1965 22.4595C11.9389 23.0115 12.8353 23.3175 13.7603 23.3346C12.841 24.0566 11.7884 24.5903 10.6628 24.9052C9.53711 25.2201 8.36041 25.3101 7.19995 25.17C9.22569 26.4727 11.5838 27.1644 13.9923 27.1621C22.1443 27.1621 26.6022 20.4089 26.6022 14.5522C26.6022 14.3615 26.5969 14.1686 26.5885 13.98C27.4562 13.3529 28.2051 12.576 28.8 11.6859L28.7989 11.6848Z" fill="#1A1B1E"/>
</svg>
