<svg width="36" height="36" viewBox="0 0 36 36" fill="none" xmlns="http://www.w3.org/2000/svg">
<circle cx="18" cy="18" r="18" fill="#EAECEF"/>
<path d="M28.3064 12.2978C28.8 14.2224 28.8 18.24 28.8 18.24C28.8 18.24 28.8 22.2576 28.3064 24.1821C28.0321 25.2459 27.2296 26.0829 26.2134 26.3659C24.3676 26.88 18 26.88 18 26.88C18 26.88 11.6355 26.88 9.78655 26.3659C8.76595 26.0786 7.96459 25.2427 7.69351 24.1821C7.19995 22.2576 7.19995 18.24 7.19995 18.24C7.19995 18.24 7.19995 14.2224 7.69351 12.2978C7.96783 11.234 8.77027 10.397 9.78655 10.1141C11.6355 9.59998 18 9.59998 18 9.59998C18 9.59998 24.3676 9.59998 26.2134 10.1141C27.234 10.4013 28.0353 11.2373 28.3064 12.2978ZM15.84 22.02L22.32 18.24L15.84 14.46V22.02Z" fill="#1A1B1E"/>
</svg>
