<svg width="36" height="36" viewBox="0 0 36 36" fill="none" xmlns="http://www.w3.org/2000/svg">
<circle cx="18" cy="18" r="18" fill="#EAECEF"/>
<mask id="mask0_463_51850" style="mask-type:alpha" maskUnits="userSpaceOnUse" x="3" y="3" width="30" height="30">
<path d="M5.2001 3.60001H30.8001C31.2244 3.60001 31.6314 3.76858 31.9315 4.06864C32.2315 4.36869 32.4001 4.77566 32.4001 5.20001V30.8C32.4001 31.2243 32.2315 31.6313 31.9315 31.9314C31.6314 32.2314 31.2244 32.4 30.8001 32.4H5.2001C4.77575 32.4 4.36878 32.2314 4.06873 31.9314C3.76867 31.6313 3.6001 31.2243 3.6001 30.8V5.20001C3.6001 4.77566 3.76867 4.36869 4.06873 4.06864C4.36878 3.76858 4.77575 3.60001 5.2001 3.60001ZM6.8001 6.80001V29.2H29.2001V6.80001H6.8001ZM26.4801 24.304L28.0081 25.8304V25.9104H20.1345V25.8304L21.7409 24.304C21.9009 24.144 21.9809 23.984 21.9809 23.7424V14.2624C21.9809 13.8592 21.9809 13.2976 22.0625 12.816L16.7601 26.072H16.6801L11.2161 13.8592C11.1361 13.5392 11.0561 13.5392 10.9761 13.3792V21.4112C10.8945 21.9744 10.9761 22.456 11.2161 22.9392L13.3857 25.8304V25.9104H7.6001V25.8304L9.7697 22.8576C10.0097 22.3776 10.0897 21.8144 10.0097 21.3312V12.496C10.0097 12.0944 9.9297 11.6112 9.6097 11.2912L8.1617 9.28001V9.20001H13.7857L18.4449 19.5648L22.5441 9.20001H28.0081V9.28001L26.4817 11.048C26.3217 11.208 26.2417 11.4496 26.2417 11.6096V23.8224C26.2417 23.9824 26.3217 24.224 26.4817 24.304H26.4801Z" fill="black"/>
</mask>
<g mask="url(#mask0_463_51850)">
<path d="M6.80005 8.40002H29.2V26H6.80005V8.40002Z" fill="#1A1B1E"/>
</g>
</svg>
