<svg width="30" height="30" viewBox="0 0 30 30" fill="none" xmlns="http://www.w3.org/2000/svg">
<path d="M24.7785 15.9423H5.21973C4.41201 15.9423 3.75488 15.2852 3.75488 14.4774V10.498C3.75488 9.69033 4.41201 9.0332 5.21973 9.0332H24.7785C25.5862 9.0332 26.2433 9.69033 26.2433 10.498V14.4774C26.2433 15.2852 25.5862 15.9423 24.7785 15.9423ZM5.5127 14.1845H24.4855V10.791H5.5127V14.1845Z" fill="#ea4b64"/>
<path d="M23.1993 25.9933H6.8025C5.97149 25.9933 5.29541 25.3173 5.29541 24.4863V15.5658H7.05322V24.2356H22.9486V15.5658H24.7064V24.4863C24.7064 25.3173 24.0303 25.9933 23.1993 25.9933Z" fill="#ea4b64"/>
<path d="M14.1211 9.91223H15.8789V24.5738H14.1211V9.91223Z" fill="#ea4b64"/>
<path d="M17.2964 10.6264C17.1883 10.6264 17.078 10.6246 16.9652 10.6209C15.9209 10.5868 15.0315 10.407 14.9942 10.3994L14.4253 10.2831L14.3091 9.71426C14.3014 9.67694 14.1217 8.78746 14.0876 7.74323C14.0367 6.1875 14.3371 5.07255 14.9803 4.42931C15.688 3.72165 16.6289 3.33191 17.6297 3.33191C18.6306 3.33191 19.5715 3.72165 20.2792 4.42934C21.74 5.8902 21.74 8.26723 20.2792 9.72812L20.2792 9.72815C19.6826 10.3247 18.6799 10.6264 17.2964 10.6264ZM15.9365 8.77152C16.2392 8.81168 16.631 8.8522 17.0452 8.86471C18.496 8.90842 18.9361 8.58528 19.0362 8.48514C19.8117 7.70962 19.8117 6.44778 19.0362 5.67226C18.6605 5.29659 18.161 5.08969 17.6297 5.08969C17.0985 5.08969 16.599 5.29659 16.2233 5.67226C16.1223 5.77328 15.7964 6.21701 15.8444 7.68581C15.8578 8.09359 15.8973 8.47553 15.9365 8.77152Z" fill="#ea4b64"/>
<path d="M12.7014 10.6264C11.3178 10.6264 10.3154 10.3248 9.7187 9.72815L9.71867 9.72812C8.25784 8.26723 8.25784 5.8902 9.7187 4.42934C10.4264 3.72165 11.3673 3.33191 12.3681 3.33191C13.3689 3.33191 14.3098 3.72165 15.0175 4.42934C15.6607 5.07255 15.9611 6.18753 15.9103 7.74323C15.8762 8.78749 15.6964 9.67694 15.6888 9.71426L15.5725 10.2831L15.0037 10.3994C14.9664 10.407 14.0769 10.5868 13.0326 10.6209C12.9223 10.6245 12.8119 10.6263 12.7014 10.6264ZM10.9616 8.48514C11.0627 8.58616 11.5066 8.91197 12.9752 8.86401C13.383 8.85068 13.7649 8.81116 14.0609 8.7719C14.1011 8.4692 14.1416 8.0775 14.1541 7.66328C14.198 6.21188 13.8747 5.7724 13.7746 5.67229C13.3989 5.29659 12.8994 5.08969 12.3681 5.08969C11.8368 5.08969 11.3373 5.29659 10.9616 5.67226C10.1861 6.44778 10.1862 7.70962 10.9616 8.48514Z" fill="#ea4b64"/>
</svg>
