<svg width="20" height="20" viewBox="0 0 20 20" fill="none" xmlns="http://www.w3.org/2000/svg">
<g id="single/go">
<path id="Vector" d="M4.53268 0.36619C4.75387 0.144957 5.04998 0.0147114 5.36252 0.00117212C5.67507 -0.0123671 5.98133 0.0917845 6.22083 0.29306L6.3002 0.36619L15.0503 9.11677C15.2716 9.33797 15.4018 9.6341 15.4153 9.94666C15.4289 10.2592 15.3247 10.5655 15.1235 10.805L15.0503 10.8844L6.3002 19.635C6.07229 19.8623 5.76546 19.993 5.44362 19.9997C5.12178 20.0065 4.80974 19.8888 4.5725 19.6712C4.33526 19.4536 4.1911 19.1529 4.17006 18.8316C4.14902 18.5104 4.25272 18.1934 4.45955 17.9467L4.53268 17.8673L12.3978 10.0006L4.53268 2.13381C4.31145 1.9126 4.18121 1.61648 4.16768 1.30392C4.15414 0.991356 4.25828 0.68508 4.45955 0.44557L4.53268 0.36619Z" fill="#999999"/>
</g>
</svg>
