<svg width="187" height="220" viewBox="0 0 187 220" fill="none" xmlns="http://www.w3.org/2000/svg">
<path d="M1 92.3549V160.202L93.7101 210.732V140.745L1 92.3549Z" fill="white" stroke="#17191A" stroke-miterlimit="10" stroke-linejoin="round"/>
<path d="M1 160.201V168.962L93.7101 219.186V211.647L1 160.201Z" fill="#2D2F30" stroke="#17191A" stroke-miterlimit="10" stroke-linejoin="round"/>
<path d="M186.419 92.3549V160.202L93.709 210.732V140.745L186.419 92.3549Z" fill="white" stroke="#17191A" stroke-miterlimit="10" stroke-linejoin="round"/>
<path d="M186.419 160.201V170.287L93.709 219.186V211.647L186.419 160.201Z" fill="#2D2F30" stroke="#17191A" stroke-miterlimit="10" stroke-linejoin="round"/>
<path d="M39.3001 112.832L38.1855 179.966L54.0932 189.135L54.3972 120.88L39.3001 112.832Z" fill="#B0F127" stroke="#17191A" stroke-miterlimit="10"/>
<path d="M148.729 112.525L149.844 179.965L133.936 189.134V120.369L148.729 112.525Z" fill="#B0F127" stroke="#17191A" stroke-miterlimit="10"/>
<path d="M1 92.354L93.7101 45.798L186.42 92.354L93.7101 141.763L1 92.354Z" fill="#F2F2F2" stroke="#17191A" stroke-miterlimit="10" stroke-linejoin="round"/>
<path d="M1 92.354L93.7101 45.798V92.354V141.763L1 92.354Z" fill="#D8D8D8" stroke="#17191A" stroke-miterlimit="10" stroke-linejoin="round"/>
<ellipse cx="92.5953" cy="55.816" rx="51.5225" ry="52.9537" fill="#CC7307"/>
<circle cx="91.1641" cy="50.0913" r="50.0913" fill="#F7931A"/>
<path d="M79.5262 63.7166C79.5342 64.036 79.5399 64.223 79.0985 64.2304L74.0655 64.315L74.1579 69.5012L83.4396 69.3424L83.5741 76.8788L88.5292 76.7929L88.3946 69.2565L91.4747 69.2073L91.6065 76.7333L96.3201 76.6566L96.1959 69.1175L99.7409 69.0656C102.102 69.0207 110.519 66.8763 110.364 59.0571C110.418 56.9406 109.755 54.8678 108.483 53.1758C107.21 51.4837 105.403 50.2719 103.354 49.7374C103.354 49.7374 108.102 46.7688 107.557 41.8371C107.011 36.9054 103.121 35.5862 100.883 34.8887C99.1448 34.4225 97.3588 34.1571 95.56 34.0976L95.4223 26.2184L90.8936 26.3231L91.0409 34.1554L87.4 34.2219L87.2857 26.3474L82.7053 26.4661L82.8403 34.335L73.2392 34.5017L73.3068 39.1401L78.5709 39.0489C79.1007 39.04 79.1052 39.3049 79.1082 39.4815L79.5262 63.7166ZM87.4656 38.8941L93.0622 38.8026C94.0231 38.789 98.706 39.5077 98.7493 43.4764C98.7918 44.564 98.443 45.6309 97.7663 46.4835C97.0896 47.3361 96.1297 47.9179 95.0608 48.1234C94.6329 48.2371 94.1945 48.3063 93.7524 48.3299L87.5819 48.4311L87.4656 38.8941ZM87.7844 53.366L96.5315 53.2396C97.1647 53.2405 97.791 53.3705 98.3723 53.6217C98.9536 53.8728 99.4776 54.2398 99.9122 54.7003C100.347 55.1607 100.683 55.705 100.9 56.2997C101.118 56.8945 101.211 57.5273 101.176 58.1595C101.234 61.3148 98.502 62.7454 97.0641 63.1306C96.8537 63.194 96.6361 63.2299 96.4165 63.2377L87.9764 63.3926L87.7844 53.366Z" fill="white"/>
</svg>
