<svg width="30" height="30" viewBox="0 0 30 30" fill="none" xmlns="http://www.w3.org/2000/svg">
<path d="M18.6522 8C18.6522 10.7614 16.3163 13 13.4348 13C10.5533 13 8.21739 10.7614 8.21739 8C8.21739 5.23858 10.5533 3 13.4348 3C16.3163 3 18.6522 5.23858 18.6522 8Z" fill="#D5ED86"/>
<path d="M19.5847 26.6199C17.2111 25.7669 15.5217 23.5725 15.5217 21C15.5217 18.4641 17.1634 16.2956 19.4839 15.4173C17.7775 14.4746 15.6897 14 13.4348 14C7.67181 14 3 17.1 3 23.1919C3 26.037 7.67181 27 13.4348 27C15.7343 27 17.8601 26.9233 19.5847 26.6199Z" fill="#83E5DA"/>
<path fill-rule="evenodd" clip-rule="evenodd" d="M21.7826 26C24.6641 26 27 23.7614 27 21C27 18.2386 24.6641 16 21.7826 16C18.9011 16 16.5652 18.2386 16.5652 21C16.5652 23.7614 18.9011 26 21.7826 26ZM24.5769 19.8647C24.7572 19.7007 24.7572 19.4171 24.5769 19.2531C24.4192 19.1096 24.1782 19.1096 24.0205 19.2531L21.131 21.8822L19.5446 20.4387C19.3869 20.2952 19.1459 20.2952 18.9882 20.4387C18.8079 20.6028 18.8079 20.8863 18.9882 21.0503L21.131 23L24.5769 19.8647Z" fill="#83E5DA"/>
</svg>
