<svg width="30" height="30" viewBox="0 0 30 30" fill="none" xmlns="http://www.w3.org/2000/svg">
<path d="M3 5C3 3.89543 3.89543 3 5 3H11.9091C13.0137 3 13.9091 3.89543 13.9091 5V14.0909C13.9091 15.1955 13.0137 16.0909 11.9091 16.0909H5C3.89543 16.0909 3 15.1955 3 14.0909V5Z" fill="#D5ED86"/>
<path d="M16.0909 5C16.0909 3.89543 16.9863 3 18.0909 3H25C26.1046 3 27 3.89543 27 5V9.72727C27 10.8318 26.1046 11.7273 25 11.7273H18.0909C16.9863 11.7273 16.0909 10.8318 16.0909 9.72727V5Z" fill="#83E5DA"/>
<path d="M3 20.2727C3 19.1682 3.89543 18.2727 5 18.2727H11.9091C13.0137 18.2727 13.9091 19.1682 13.9091 20.2727V25C13.9091 26.1046 13.0137 27 11.9091 27H5C3.89543 27 3 26.1046 3 25V20.2727Z" fill="#83E5DA"/>
<path d="M16.0908 15.9091C16.0908 14.8045 16.9863 13.9091 18.0908 13.9091H24.9999C26.1045 13.9091 26.9999 14.8045 26.9999 15.9091V25C26.9999 26.1046 26.1045 27 24.9999 27H18.0908C16.9863 27 16.0908 26.1046 16.0908 25V15.9091Z" fill="#D5ED86"/>
</svg>
