<svg width="30" height="30" viewBox="0 0 30 30" fill="none" xmlns="http://www.w3.org/2000/svg">
<rect x="6.48242" y="16.8142" width="17.0343" height="10.1857" rx="0.5" fill="#83E5DA"/>
<path fill-rule="evenodd" clip-rule="evenodd" d="M19.7833 4.55074C20.1874 4.79104 20.541 5.23173 20.541 6.09464C20.541 6.74704 20.07 7.58619 19.3139 8.44886C18.6512 9.20496 17.8636 9.87394 17.2959 10.2962H12.736C12.1684 9.87394 11.3808 9.20496 10.7181 8.44888C9.96199 7.58621 9.49098 6.74705 9.49097 6.09465C9.49096 5.23175 9.84461 4.79106 10.2487 4.55076C10.696 4.28474 11.2732 4.22921 11.6938 4.30275C12.0264 4.3609 12.6727 4.58883 13.2429 5.29189C13.8108 5.99208 14.3519 7.22401 14.367 9.37766C14.3694 9.72924 14.6549 10.0122 15.0047 10.0098L15.0163 10.0096L15.0273 10.0097C15.377 10.0122 15.6625 9.72922 15.665 9.37764C15.6801 7.224 16.2212 5.99207 16.7891 5.29187C17.3593 4.58881 18.0056 4.36088 18.3382 4.30274C18.7588 4.22919 19.3359 4.28472 19.7833 4.55074ZM10.753 10.2962C10.4207 9.9893 10.0828 9.65 9.76783 9.29059C8.98831 8.40118 8.2245 7.25094 8.22448 6.09467C8.22447 4.79309 8.80481 3.93012 9.60388 3.45492C10.3597 3.00546 11.2548 2.93368 11.9108 3.04837C12.4964 3.15075 13.4332 3.51168 14.2245 4.48732C14.5227 4.85499 14.7934 5.30145 15.016 5.84111C15.2386 5.30144 15.5093 4.85498 15.8075 4.48731C16.5988 3.51167 17.5356 3.15073 18.1211 3.04836C18.7771 2.93366 19.6723 3.00544 20.4281 3.45491C21.2272 3.9301 21.8075 4.79308 21.8075 6.09465C21.8075 7.25093 21.0437 8.40117 20.2641 9.29057C19.9491 9.64999 19.6113 9.9893 19.2789 10.2962H26.5C26.7761 10.2962 27 10.5201 27 10.7962V14.6981C27 14.9742 26.7761 15.1981 26.5 15.1981H3.5C3.22386 15.1981 3 14.9742 3 14.6981V10.7962C3 10.5201 3.22386 10.2962 3.5 10.2962H10.753Z" fill="#D5ED86"/>
</svg>
