<svg width="19" height="19" viewBox="0 0 19 19" fill="none" xmlns="http://www.w3.org/2000/svg">
<path d="M14.8332 6.66658C14.8332 6.20635 15.2063 5.83325 15.6665 5.83325H18.1665C18.6267 5.83325 18.9998 6.20635 18.9998 6.66658C18.9998 7.12682 18.6267 7.49992 18.1665 7.49992H15.6665C15.2063 7.49992 14.8332 7.12682 14.8332 6.66658ZM13.1665 10.8333C13.1665 10.373 13.5396 9.99992 13.9998 9.99992H18.1665C18.6267 9.99992 18.9998 10.373 18.9998 10.8333C18.9998 11.2935 18.6267 11.6666 18.1665 11.6666H13.9998C13.5396 11.6666 13.1665 11.2935 13.1665 10.8333ZM15.6665 14.9999C15.6665 14.5397 16.0396 14.1666 16.4998 14.1666H18.1665C18.6267 14.1666 18.9998 14.5397 18.9998 14.9999C18.9998 15.4602 18.6267 15.8333 18.1665 15.8333H16.4998C16.0396 15.8333 15.6665 15.4602 15.6665 14.9999ZM0.666504 18.3333C0.666504 16.5651 1.36888 14.8694 2.61913 13.6192C3.86937 12.369 5.56506 11.6666 7.33317 11.6666C9.10128 11.6666 10.797 12.369 12.0472 13.6192C13.2975 14.8694 13.9998 16.5651 13.9998 18.3333H12.3332C12.3332 17.0072 11.8064 15.7354 10.8687 14.7977C9.93102 13.86 8.65925 13.3333 7.33317 13.3333C6.00709 13.3333 4.73532 13.86 3.79764 14.7977C2.85995 15.7354 2.33317 17.0072 2.33317 18.3333H0.666504ZM7.33317 10.8333C4.57067 10.8333 2.33317 8.59575 2.33317 5.83325C2.33317 3.07075 4.57067 0.833252 7.33317 0.833252C10.0957 0.833252 12.3332 3.07075 12.3332 5.83325C12.3332 8.59575 10.0957 10.8333 7.33317 10.8333ZM7.33317 9.16658C9.17484 9.16658 10.6665 7.67492 10.6665 5.83325C10.6665 3.99159 9.17484 2.49992 7.33317 2.49992C5.4915 2.49992 3.99984 3.99159 3.99984 5.83325C3.99984 7.67492 5.4915 9.16658 7.33317 9.16658Z" fill="currentColor"/>
</svg>
