<svg width="25" height="24" viewBox="0 0 25 24" fill="none" xmlns="http://www.w3.org/2000/svg">
<path d="M5.84766 0C6.54531 0 7.23612 0.137412 7.88066 0.40439C8.52521 0.671368 9.11085 1.06268 9.60416 1.556C10.0975 2.04931 10.4888 2.63495 10.7558 3.27949C11.0227 3.92404 11.1602 4.61485 11.1602 5.3125V9.625C11.1602 10.1773 10.7124 10.625 10.1602 10.625H5.84766C4.4387 10.625 3.08744 10.0653 2.09115 9.06901C1.09487 8.07272 0.535159 6.72146 0.535159 5.3125C0.535159 3.90354 1.09487 2.55228 2.09115 1.556C3.08744 0.559708 4.4387 0 5.84766 0ZM8.66016 8.125V5.3125C8.66016 4.75624 8.49521 4.21247 8.18617 3.74996C7.87713 3.28745 7.43787 2.92696 6.92396 2.71409C6.41004 2.50122 5.84454 2.44552 5.29897 2.55404C4.7534 2.66256 4.25226 2.93043 3.85892 3.32376C3.46559 3.7171 3.19772 4.21824 3.0892 4.76381C2.98068 5.30938 3.03638 5.87488 3.24925 6.3888C3.46212 6.90271 3.8226 7.34197 4.28512 7.65101C4.74763 7.96005 5.2914 8.125 5.84766 8.125H8.66016ZM5.84766 13.125H10.1602C10.7124 13.125 11.1602 13.5727 11.1602 14.125V18.4375C11.1602 19.4882 10.8486 20.5153 10.2648 21.389C9.6811 22.2626 8.8514 22.9435 7.88066 23.3456C6.90993 23.7477 5.84177 23.8529 4.81124 23.6479C3.78072 23.4429 2.83412 22.937 2.09115 22.194C1.34819 21.451 0.842221 20.5044 0.637237 19.4739C0.432253 18.4434 0.537458 17.3752 0.939549 16.4045C1.34164 15.4338 2.02256 14.6041 2.89619 14.0203C3.76983 13.4366 4.79695 13.125 5.84766 13.125ZM5.84766 15.625C5.2914 15.625 4.74763 15.79 4.28512 16.099C3.8226 16.408 3.46212 16.8473 3.24925 17.3612C3.03638 17.8751 2.98068 18.4406 3.0892 18.9862C3.19772 19.5318 3.46559 20.0329 3.85892 20.4262C4.25226 20.8196 4.7534 21.0874 5.29897 21.196C5.84454 21.3045 6.41004 21.2488 6.92396 21.0359C7.43787 20.823 7.87713 20.4626 8.18617 20C8.49521 19.5375 8.66016 18.9938 8.66016 18.4375V15.625H5.84766ZM18.9727 0C20.3816 0 21.7329 0.559708 22.7292 1.556C23.7255 2.55228 24.2852 3.90354 24.2852 5.3125C24.2852 6.72146 23.7255 8.07272 22.7292 9.06901C21.7329 10.0653 20.3816 10.625 18.9727 10.625H14.6602C14.1079 10.625 13.6602 10.1773 13.6602 9.625V5.3125C13.6602 3.90354 14.2199 2.55228 15.2162 1.556C16.2124 0.559708 17.5637 0 18.9727 0ZM18.9727 8.125C19.5289 8.125 20.0727 7.96005 20.5352 7.65101C20.9977 7.34197 21.3582 6.90271 21.5711 6.3888C21.7839 5.87488 21.8396 5.30938 21.7311 4.76381C21.6226 4.21824 21.3547 3.7171 20.9614 3.32376C20.5681 2.93043 20.0669 2.66256 19.5214 2.55404C18.9758 2.44552 18.4103 2.50122 17.8964 2.71409C17.3824 2.92696 16.9432 3.28745 16.6341 3.74996C16.3251 4.21247 16.1602 4.75624 16.1602 5.3125V8.125H18.9727ZM13.6602 14.125C13.6602 13.5727 14.1079 13.125 14.6602 13.125H18.9727C20.0234 13.125 21.0505 13.4366 21.9241 14.0203C22.7978 14.6041 23.4787 15.4338 23.8808 16.4045C24.2829 17.3752 24.3881 18.4434 24.1831 19.4739C23.9781 20.5044 23.4721 21.451 22.7292 22.194C21.9862 22.937 21.0396 23.4429 20.0091 23.6479C18.9786 23.8529 17.9104 23.7477 16.9397 23.3456C15.9689 22.9435 15.1392 22.2626 14.5555 21.389C13.9717 20.5153 13.6602 19.4882 13.6602 18.4375V14.125ZM16.1602 15.625V18.4375C16.1602 18.9938 16.3251 19.5375 16.6341 20C16.9432 20.4626 17.3824 20.823 17.8964 21.0359C18.4103 21.2488 18.9758 21.3045 19.5214 21.196C20.0669 21.0874 20.5681 20.8196 20.9614 20.4262C21.3547 20.0329 21.6226 19.5318 21.7311 18.9862C21.8396 18.4406 21.7839 17.8751 21.5711 17.3612C21.3582 16.8473 20.9977 16.408 20.5352 16.099C20.0727 15.79 19.5289 15.625 18.9727 15.625H16.1602Z" fill="currentColor"/>
</svg>
