<svg width="25" height="25" viewBox="0 0 25 25" fill="none" xmlns="http://www.w3.org/2000/svg">
<path d="M12.4999 17.2125L22.4999 10.2604V2.3308C22.4999 1.05748 21.3985 0.0250244 20.0415 0.0250244H4.95826C3.59976 0.0250244 2.49988 1.05748 2.49988 2.3308V10.2604L12.4999 17.2125Z" fill="#83E5DA"/>
<path fill-rule="evenodd" clip-rule="evenodd" d="M23.1236 10.8855L12.4986 18.1501L1.8736 10.8855V9.93146L1.2094 9.51805C0.671282 9.18201 -0.000976562 9.60359 -0.000976562 10.2772V21.8034C-0.000976562 24.3343 0.350571 24.4 2.68652 24.4H22.3115C24.6475 24.4 24.999 24.3343 24.999 21.8034V10.2772C24.999 9.60511 24.3268 9.18354 23.7886 9.51805L23.1236 9.93199V10.8855Z" fill="#D5ED86"/>
<g clip-path="url(#clip0_3572_73104)">
<path d="M8.49908 6.52362C8.14024 6.52362 7.81069 6.71403 7.63493 7.02527C7.45551 7.33285 7.45551 7.71732 7.63493 8.0249C7.81435 8.33248 8.1439 8.52655 8.49908 8.52655H16.4998C16.8587 8.52655 17.1882 8.33614 17.364 8.0249C17.5434 7.71732 17.5434 7.33285 17.364 7.02527C17.1845 6.71769 16.855 6.52362 16.4998 6.52362H8.49908Z" fill="#111111"/>
<path d="M13.4973 3.52472C13.4973 3.16588 13.3068 2.83633 12.9956 2.66057C12.6844 2.48115 12.3036 2.48115 11.996 2.66057C11.6884 2.83999 11.4943 3.16954 11.4943 3.52472V11.5255C11.4943 11.8843 11.6847 12.2138 11.996 12.3896C12.3036 12.569 12.688 12.569 12.9956 12.3896C13.3032 12.2102 13.4973 11.8806 13.4973 11.5255V3.52472Z" fill="#111111"/>
</g>
<defs>
<clipPath id="clip0_3572_73104">
<rect width="10" height="10" fill="white" transform="translate(7.49945 2.52509)"/>
</clipPath>
</defs>
</svg>
