<svg width="30" height="30" viewBox="0 0 30 30" fill="none" xmlns="http://www.w3.org/2000/svg">
<path d="M4.8916 6.28892C11.4149 5.6667 13.6981 4.00744 15.0027 2.8667V27.1334C13.8068 26.7186 10.5161 25.6538 8.15325 23.4C5.21777 20.6 4.8916 19.3556 4.8916 17.1778V6.28892Z" fill="#83E5DA"/>
<path d="M25.1121 6.28892C18.5888 5.6667 16.3056 4.00744 15.001 2.8667V27.1334C16.1969 26.7186 19.4876 25.6538 21.8504 23.4C24.7859 20.6 25.1121 19.3556 25.1121 17.1778V6.28892Z" fill="#D5ED86"/>
<mask id="mask0_1128_64328" style="mask-type:alpha" maskUnits="userSpaceOnUse" x="4" y="2" width="12" height="26">
<path d="M4.89062 6.28892C11.4139 5.6667 13.6971 4.00744 15.0017 2.8667V27.1334C13.8058 26.7186 10.5151 25.6538 8.15227 23.4C5.21679 20.6 4.89062 19.3556 4.89062 17.1778V6.28892Z" fill="#83E5DA"/>
</mask>
<g mask="url(#mask0_1128_64328)">
<path d="M1.52148 -0.166748H15.003V14.9999H1.52148V-0.166748Z" fill="#D5ED86"/>
</g>
<mask id="mask1_1128_64328" style="mask-type:alpha" maskUnits="userSpaceOnUse" x="15" y="2" width="11" height="26">
<path d="M25.1121 6.28892C18.5888 5.6667 16.3056 4.00744 15.001 2.8667V27.1334C16.1969 26.7186 19.4876 25.6538 21.8504 23.4C24.7859 20.6 25.1121 19.3556 25.1121 17.1778V6.28892Z" fill="#D5ED86"/>
</mask>
<g mask="url(#mask1_1128_64328)">
<path d="M15.001 1.85547H26.2355V14.9999H15.001V1.85547Z" fill="#83E5DA"/>
</g>
</svg>
