<svg width="30" height="30" viewBox="0 0 30 30" fill="none" xmlns="http://www.w3.org/2000/svg">
<g clip-path="url(#clip0_1322_64116)">
<path d="M7.2 27C6.88174 27 6.57652 26.8736 6.35147 26.6485C6.12643 26.4235 6 26.1183 6 25.8V4.2C6 3.88174 6.12643 3.57652 6.35147 3.35147C6.57652 3.12643 6.88174 3 7.2 3H24C24.3183 3 24.6235 3.12643 24.8485 3.35147C25.0736 3.57652 25.2 3.88174 25.2 4.2V25.8C25.2 26.1183 25.0736 26.4235 24.8485 26.6485C24.6235 26.8736 24.3183 27 24 27H7.2ZM19.2 19.8L25.2 15L19.2 10.2V13.8H12V16.2H19.2V19.8Z" fill="#D5ED86"/>
</g>
<defs>
<clipPath id="clip0_1322_64116">
<rect width="24" height="24" fill="white" transform="translate(3 3)"/>
</clipPath>
</defs>
</svg>
