<svg width="30" height="30" viewBox="0 0 30 30" fill="none" xmlns="http://www.w3.org/2000/svg">
<path fill-rule="evenodd" clip-rule="evenodd" d="M27 12.3125H3V23.5C3 24.0523 3.44772 24.5 4 24.5H26C26.5523 24.5 27 24.0523 27 23.5V12.3125ZM17.04 19.625C16.5761 19.625 16.2 20.0615 16.2 20.6V21.0875C16.2 21.626 16.5761 22.0625 17.04 22.0625H23.76C24.2239 22.0625 24.6 21.626 24.6 21.0875V20.6C24.6 20.0615 24.2239 19.625 23.76 19.625H17.04Z" fill="#D5ED86"/>
<path d="M3 6C3 5.44772 3.44772 5 4 5H26C26.5523 5 27 5.44772 27 6V9.875H3V6Z" fill="#83E5DA"/>
</svg>
