<svg width="23" height="24" viewBox="0 0 23 24" fill="none" xmlns="http://www.w3.org/2000/svg">
<path d="M8.94429 0.255133C10.5627 -0.0842338 12.2337 -0.0850509 13.8524 0.252733C13.9603 0.964524 14.2271 1.64286 14.6332 2.23732C15.0393 2.83178 15.5741 3.32708 16.1979 3.68639C16.8213 4.04695 17.5179 4.26235 18.2359 4.31656C18.954 4.37077 19.675 4.26241 20.3454 3.99952C21.4471 5.23293 22.2817 6.68099 22.7965 8.25261C22.2342 8.702 21.7805 9.27233 21.4689 9.9212C21.1574 10.5701 20.996 11.2808 20.9969 12.0006C20.9969 13.5171 21.6999 14.8692 22.7989 15.7486C22.281 17.3189 21.4455 18.7658 20.3442 19.9993C19.674 19.7366 18.9532 19.6283 18.2353 19.6825C17.5175 19.7367 16.8211 19.952 16.1979 20.3124C15.5746 20.6716 15.0402 21.1666 14.6344 21.7606C14.2285 22.3546 13.9617 23.0324 13.8536 23.7437C12.2354 24.0838 10.5644 24.0855 8.94549 23.7485C8.83817 23.036 8.57154 22.357 8.16545 21.7619C7.75936 21.1667 7.22426 20.6709 6.6 20.3112C5.97657 19.9508 5.27992 19.7357 4.56187 19.6817C3.84381 19.6276 3.12281 19.7362 2.45249 19.9993C1.35065 18.7655 0.516118 17.317 0.00142303 15.745C0.563373 15.2958 1.01695 14.7259 1.3285 14.0775C1.64004 13.4291 1.80155 12.7188 1.80103 11.9994C1.80162 11.2794 1.63992 10.5686 1.32794 9.91967C1.01596 9.27078 0.56173 8.70057 -0.000976562 8.25141C0.516914 6.68109 1.35247 5.23418 2.45369 4.00072C3.12393 4.26342 3.84476 4.37168 4.56259 4.31747C5.28043 4.26326 5.97682 4.04797 6.6 3.68759C7.22332 3.32839 7.75773 2.83341 8.16357 2.23939C8.56941 1.64538 8.83626 0.967588 8.94429 0.256332V0.255133ZM11.399 15.5998C12.3535 15.5998 13.269 15.2206 13.944 14.5456C14.619 13.8706 14.9982 12.9552 14.9982 12.0006C14.9982 11.046 14.619 10.1305 13.944 9.45556C13.269 8.78058 12.3535 8.40137 11.399 8.40137C10.4444 8.40137 9.52891 8.78058 8.85393 9.45556C8.17894 10.1305 7.79974 11.046 7.79974 12.0006C7.79974 12.9552 8.17894 13.8706 8.85393 14.5456C9.52891 15.2206 10.4444 15.5998 11.399 15.5998Z" fill="#D5ED86"/>
</svg>
