<svg width="36" height="36" viewBox="0 0 36 36" fill="none" xmlns="http://www.w3.org/2000/svg">
<g id="single/close">
<path id="Union" d="M33.347 4.54751C34.1281 3.76647 34.1281 2.50014 33.347 1.71909C32.566 0.938039 31.2996 0.938039 30.5186 1.71909L17.5331 14.7046L4.54755 1.71909C3.7665 0.938041 2.50017 0.938041 1.71912 1.71909C0.938071 2.50014 0.938071 3.76647 1.71912 4.54752L14.7046 17.533L1.7186 30.5191C0.93755 31.3001 0.93755 32.5665 1.7186 33.3475C2.49965 34.1286 3.76598 34.1286 4.54703 33.3475L17.5331 20.3615L30.5191 33.3475C31.3002 34.1286 32.5665 34.1286 33.3475 33.3475C34.1286 32.5665 34.1286 31.3001 33.3475 30.5191L20.3615 17.533L33.347 4.54751Z" fill="#F5F5F5"/>
</g>
</svg>
