<svg width="40" height="40" viewBox="0 0 40 40" fill="none" xmlns="http://www.w3.org/2000/svg">
<g id="transaction-history-d">
<g id="Group 934">
<g id="Group 40208">
<path id="Line 40" d="M20 19.9999L10 19.9999" stroke="#999999" stroke-width="2.5" stroke-linecap="round"/>
<path id="Line 42" d="M25 26.6665L10 26.6665" stroke="#999999" stroke-width="2.5" stroke-linecap="round"/>
<path id="Line 41" d="M16.667 13.3333H10.0003" stroke="#999999" stroke-width="2.5" stroke-linecap="round"/>
<path id="Vector 51" d="M30 9.99988H34.1667C34.6269 9.99988 34.9968 9.62669 34.9284 9.17156C34.7045 7.6805 33.8412 4.99988 30.8333 4.99988" stroke="#999999" stroke-width="2.5" stroke-linecap="round"/>
<path id="Rectangle 6248" d="M5 8.33321V33.6237L10.9524 34.9999L16.4203 33.8507C17.1315 33.7012 17.8668 33.7085 18.575 33.8723L22.3774 34.7514C23.0855 34.9151 23.8208 34.9224 24.5321 34.7729L30 33.6237V8.94725V4.99988H8.33333C6.49238 4.99988 5 6.49226 5 8.33321Z" stroke="#999999" stroke-width="2.5" stroke-linecap="round"/>
</g>
</g>
</g>
</svg>
