<svg width="40" height="40" viewBox="0 0 40 40" fill="none" xmlns="http://www.w3.org/2000/svg">
<g id="transaction-history-d">
<g id="Group 934">
<g id="Group 40208">
<path id="Line 40" d="M20 19.9998L10 19.9998" stroke="#ea4b64" stroke-width="2.5" stroke-linecap="round"/>
<path id="Line 42" d="M25 26.6664L10 26.6664" stroke="#ea4b64" stroke-width="2.5" stroke-linecap="round"/>
<path id="Line 41" d="M16.667 13.3331H10.0003" stroke="#ea4b64" stroke-width="2.5" stroke-linecap="round"/>
<path id="Vector 51" d="M30 9.99976H34.1667C34.6269 9.99976 34.9968 9.62657 34.9284 9.17144C34.7045 7.68038 33.8412 4.99976 30.8333 4.99976" stroke="#F5F5F5" stroke-width="2.5" stroke-linecap="round"/>
<path id="Rectangle 6248" d="M5 8.33309V33.6236L10.9524 34.9998L16.4203 33.8505C17.1315 33.701 17.8668 33.7084 18.575 33.8721L22.3774 34.7512C23.0855 34.9149 23.8208 34.9223 24.5321 34.7728L30 33.6236V8.94712V4.99976H8.33333C6.49238 4.99976 5 6.49214 5 8.33309Z" stroke="#F5F5F5" stroke-width="2.5" stroke-linecap="round"/>
</g>
</g>
</g>
</svg>
