<svg width="32" height="32" viewBox="0 0 32 32" fill="none" xmlns="http://www.w3.org/2000/svg">
<g id="single/history">
<g id="Vector">
<path d="M4 7.20013C4 6.53739 4.59695 6.00013 5.33333 6.00013H12.6667C13.403 6.00013 14 6.53739 14 7.20013V7.80013C14 8.46287 13.403 9.00013 12.6667 9.00013H5.33333C4.59695 9.00013 4 8.46287 4 7.80013V7.20013Z" fill="#999999"/>
<path d="M4 13.2001C4 12.5374 4.59695 12.0001 5.33333 12.0001H9.66667C10.403 12.0001 11 12.5374 11 13.2001V13.8001C11 14.4629 10.403 15.0001 9.66667 15.0001H5.33333C4.59695 15.0001 4 14.4629 4 13.8001V13.2001Z" fill="#999999"/>
<path fill-rule="evenodd" clip-rule="evenodd" d="M21 32.0001C27.0751 32.0001 32 27.0753 32 21.0001C32 14.925 27.0751 10.0001 21 10.0001C14.9249 10.0001 10 14.925 10 21.0001C10 27.0753 14.9249 32.0001 21 32.0001ZM21 29.0001C25.4183 29.0001 29 25.4184 29 21.0001C29 16.5819 25.4183 13.0001 21 13.0001C16.5817 13.0001 13 16.5819 13 21.0001C13 25.4184 16.5817 29.0001 21 29.0001Z" fill="#999999"/>
<path d="M0 1.00013C0 0.447845 0.447715 0.0001297 1 0.0001297H21C21.5523 0.0001297 22 0.447845 22 1.00013V10.045C21.6706 10.0153 21.3371 10.0001 21 10.0001C20.317 10.0001 19.6486 10.0624 19 10.1815V4.00013C19 3.44784 18.5523 3.00013 18 3.00013H4C3.44772 3.00013 3 3.44785 3 4.00013V28.0001C3 28.5524 3.44772 29.0001 4 29.0001H13.4501C15.4201 30.86 18.0769 32.0001 21 32.0001H1C0.447716 32.0001 0 31.5524 0 31.0001V1.00013Z" fill="#999999"/>
<path d="M19 17.5001C19 16.6717 19.6716 16.0001 20.5 16.0001C21.3284 16.0001 22 16.6717 22 17.5001V22.5001C22 23.3286 21.3284 24.0001 20.5 24.0001C19.6716 24.0001 19 23.3286 19 22.5001V17.5001Z" fill="#999999"/>
<path d="M24.5 21.0001C25.3284 21.0001 26 21.6717 26 22.5001C26 23.3286 25.3284 24.0001 24.5 24.0001H20.5C19.6716 24.0001 19 23.3286 19 22.5001C19 21.6717 19.6716 21.0001 20.5 21.0001H24.5Z" fill="#999999"/>
</g>
</g>
</svg>
