<svg width="24" height="18" viewBox="0 0 24 18" fill="none" xmlns="http://www.w3.org/2000/svg">
<path d="M0.434121 9.51496C-0.144707 8.95198 -0.144707 8.03922 0.434121 7.47624C1.01295 6.91326 1.95141 6.91326 2.53024 7.47624L9.86666 14.6118C10.4455 15.1747 10.4455 16.0875 9.86666 16.6505C9.28784 17.2134 8.34937 17.2134 7.77054 16.6505L0.434121 9.51496Z" fill="#D5ED86"/>
<path d="M21.4698 1.34948C22.0486 0.786502 22.9871 0.786502 23.5659 1.34948C24.1447 1.91245 24.1447 2.82522 23.5659 3.3882L9.9411 16.6399C9.36227 17.2028 8.4238 17.2028 7.84498 16.6399C7.26615 16.0769 7.26615 15.1641 7.84498 14.6011L21.4698 1.34948Z" fill="#D5ED86"/>
</svg>
