<svg width="16" height="18" viewBox="0 0 16 18" fill="none" xmlns="http://www.w3.org/2000/svg">
<path d="M8.77977 9.0001C8.77977 8.9401 8.71977 8.8201 8.65977 8.7601L0.859766 1.3201C0.799766 1.2601 0.679766 1.2601 0.619766 1.2601C0.499766 1.2601 0.439766 1.3201 0.379766 1.4401C0.319766 1.6201 0.259766 1.8001 0.259766 1.9801V16.0201C0.259766 16.2001 0.319766 16.3801 0.379766 16.5601C0.439766 16.6201 0.499766 16.7401 0.619766 16.7401H0.679766C0.739766 16.7401 0.859766 16.7401 0.859766 16.6801L8.71977 9.2401C8.77977 9.1801 8.77977 9.0601 8.77977 9.0001ZM9.19977 8.4001C9.25977 8.4601 9.31977 8.4601 9.37977 8.4601C9.43977 8.4601 9.49977 8.4601 9.55976 8.4001L11.7198 6.3601C11.7798 6.3001 11.8398 6.1801 11.8398 6.1201C11.8398 6.0001 11.7798 5.9401 11.6598 5.8801L2.29977 0.780098C2.11977 0.660098 1.93977 0.660098 1.75977 0.600098C1.63977 0.600098 1.51977 0.660098 1.45977 0.780098C1.39977 0.900098 1.45977 1.0201 1.51977 1.1401L9.19977 8.4001ZM9.61977 9.6001C9.49977 9.4801 9.31977 9.4801 9.19977 9.6001L1.51977 16.8601C1.45977 16.9801 1.39977 17.1001 1.45977 17.2201C1.51977 17.3401 1.63977 17.4001 1.75977 17.4001C1.93977 17.4001 2.11977 17.3401 2.29977 17.2201L11.5998 12.0601C11.6598 12.0001 11.7198 11.9401 11.7798 11.8201C11.7798 11.7001 11.7798 11.6401 11.6598 11.5801L9.61977 9.6001ZM15.0798 7.7401L12.7998 6.4801C12.6798 6.4201 12.5598 6.4201 12.4398 6.5401L10.0398 8.8201C9.97977 8.8801 9.91977 8.9401 9.91977 9.0601C9.91977 9.1801 9.97977 9.2401 10.0398 9.3001L12.3798 11.5201C12.4398 11.5801 12.4998 11.5801 12.5598 11.5801C12.6198 11.5801 12.6798 11.5801 12.6798 11.5201L15.0798 10.2001C15.4998 9.9601 15.7998 9.4801 15.7998 9.0001C15.7998 8.5201 15.6198 7.9801 15.0798 7.7401Z" fill="currentColor"/>
</svg>
