<svg width="20" height="20" viewBox="0 0 20 20" fill="none" xmlns="http://www.w3.org/2000/svg">
<g clip-path="url(#clip0_475_52014)">
<path d="M12.76 1.51227C12.6293 1.47748 12.4928 1.46911 12.3587 1.48768C12.2246 1.50625 12.0958 1.55136 11.98 1.62028L4.72 5.89191H2C1.46957 5.89191 0.960859 6.09882 0.585786 6.46714C0.210714 6.83545 0 7.33499 0 7.85587L0 11.7838C0 12.3047 0.210714 12.8042 0.585786 13.1725C0.960859 13.5408 1.46957 13.7478 2 13.7478H4.72L12 18.0292C12.1544 18.1191 12.3305 18.1666 12.51 18.1667C12.6062 18.1805 12.7038 18.1805 12.8 18.1667C12.9339 18.1253 13.0574 18.0567 13.1625 17.9653C13.2676 17.874 13.3519 17.7619 13.41 17.6364C13.41 17.5382 14.5 15.2502 14.5 9.69218C14.5 4.13416 13.5 2.22911 13.38 2.0229C13.3186 1.90006 13.2317 1.79118 13.1249 1.70325C13.0182 1.61531 12.8939 1.55026 12.76 1.51227ZM2 7.85587H4V11.7838H2V7.85587ZM11.92 15.7117L6 12.206V7.43362L11.95 3.92794C12.3628 5.80825 12.5475 7.72995 12.5 9.6529C12.5424 11.6876 12.3478 13.7204 11.92 15.7117ZM19 8.83785H17C16.7348 8.83785 16.4804 8.94131 16.2929 9.12547C16.1054 9.30963 16 9.5594 16 9.81983C16 10.0803 16.1054 10.33 16.2929 10.5142C16.4804 10.6984 16.7348 10.8018 17 10.8018H19C19.2652 10.8018 19.5196 10.6984 19.7071 10.5142C19.8946 10.33 20 10.0803 20 9.81983C20 9.5594 19.8946 9.30963 19.7071 9.12547C19.5196 8.94131 19.2652 8.83785 19 8.83785ZM19 13.3844L17.27 12.4024C17.0415 12.285 16.7756 12.2589 16.5279 12.3295C16.2801 12.4 16.0698 12.5619 15.9407 12.7811C15.8116 13.0004 15.7738 13.2602 15.8352 13.5062C15.8966 13.7522 16.0523 13.9654 16.27 14.1013L18 15.0833C18.2285 15.2007 18.4944 15.2268 18.7421 15.1562C18.9899 15.0857 19.2002 14.9238 19.3293 14.7046C19.4584 14.4853 19.4962 14.2255 19.4348 13.9795C19.3734 13.7335 19.2177 13.5203 19 13.3844ZM17.23 7.23722L18.96 6.25524C19.1777 6.11936 19.3334 5.90616 19.3948 5.66015C19.4562 5.41415 19.4184 5.15438 19.2893 4.9351C19.1602 4.71582 18.9499 4.554 18.7021 4.48343C18.4544 4.41286 18.1885 4.43901 17.96 4.55641L16.23 5.53839C16.0123 5.67427 15.8566 5.88748 15.7952 6.13348C15.7338 6.37948 15.7716 6.63925 15.9007 6.85853C16.0298 7.07781 16.2401 7.23963 16.4879 7.3102C16.7356 7.38077 17.0015 7.35462 17.23 7.23722Z" fill="#576072"/>
</g>
<defs>
<clipPath id="clip0_475_52014">
<rect width="20" height="19.6396" fill="white"/>
</clipPath>
</defs>
</svg>
