<svg width="32" height="32" viewBox="0 0 32 32" fill="currentColor" xmlns="http://www.w3.org/2000/svg">
<g clip-path="url(#clip0_137_2372)">
<path fill-rule="evenodd" clip-rule="evenodd" d="M22.7241 0.0173044C22.783 0.789382 22.9428 2.88282 21.0074 5.18084C19.6074 6.81547 17.9074 7.77318 16.0458 7.63087C15.8881 5.65777 16.6227 3.90774 17.8727 2.49234C19.0074 1.17309 20.9997 0.100001 22.7228 0L22.7241 0.0173044ZM28.6236 10.8536C26.2236 12.3113 25.0351 14.2882 25.0505 16.9114C25.0505 16.915 25.0503 16.9218 25.05 16.9315C25.0405 17.2761 24.9278 21.3407 29.4582 23.4768C28.589 26.1076 25.6043 31.95 22.1312 32C21.1585 32 20.3808 31.7003 19.5789 31.3913C18.7258 31.0624 17.8452 30.7231 16.6734 30.7231C15.4066 30.7231 14.4525 31.0842 13.5587 31.4226C12.7999 31.7098 12.0845 31.9806 11.258 32C7.81562 32.1039 4.51558 25.6769 3.60018 23.0537C2.91555 21.0614 2.57324 19.1268 2.57324 17.2537C2.57324 10.9151 6.80791 7.7997 10.7926 7.73816C11.8987 7.73816 13.1766 8.20019 14.2681 8.59486C15.0818 8.88908 15.792 9.14587 16.2503 9.14587C16.6209 9.14587 17.2254 8.92259 17.967 8.6487C19.2578 8.17198 20.9637 7.5419 22.5735 7.66893C25.2505 7.87278 27.2813 8.93048 28.6236 10.8536Z" fill="currentColor"/>
</g>
<defs>
<clipPath id="clip0_137_2372">
<rect width="32" height="32" fill="white"/>
</clipPath>
</defs>
</svg>
