<svg width="14" height="24" viewBox="0 0 14 24" fill="none" xmlns="http://www.w3.org/2000/svg">
<path d="M0.439406 0.439428C0.704843 0.173949 1.06017 0.0176536 1.43522 0.00140654C1.81028 -0.0148406 2.17779 0.110141 2.46519 0.351672L2.56044 0.439428L13.0606 10.9401C13.3261 11.2056 13.4823 11.5609 13.4986 11.936C13.5148 12.3111 13.3899 12.6786 13.1483 12.966L13.0606 13.0613L2.56044 23.562C2.28695 23.8348 1.91875 23.9916 1.53254 23.9997C1.14633 24.0078 0.771885 23.8666 0.487195 23.6054C0.202505 23.3443 0.0295199 22.9834 0.00427111 22.5979C-0.0209777 22.2125 0.103456 21.8321 0.351655 21.5361L0.439406 21.4408L9.87755 12.0007L0.439406 2.56057C0.17394 2.29512 0.0176527 1.93977 0.00140646 1.5647C-0.0148398 1.18963 0.110136 0.822097 0.351655 0.534684L0.439406 0.439428Z" fill="currentColor"/>
</svg>
