<svg width="80" height="80" viewBox="0 0 80 80" fill="none" xmlns="http://www.w3.org/2000/svg">
<path fill-rule="evenodd" clip-rule="evenodd" d="M37.4237 22.299C37.4254 23.6866 38.5489 24.8101 39.9365 24.8118C41.3232 24.8101 42.4475 23.6866 42.4492 22.299V7.84612C42.4467 6.45851 41.3224 5.33505 39.9356 5.33337C38.5488 5.33588 37.4245 6.45851 37.4237 7.84612V22.299ZM54.269 22.2037C54.2706 23.5905 55.3949 24.7148 56.7817 24.7165L56.7851 24.7156C57.1589 24.7166 57.5282 24.6334 57.8657 24.4724C58.2031 24.3113 58.5 24.0765 58.7344 23.7853L64.4779 16.7018C64.8992 16.1852 65.0965 15.5214 65.0246 14.8586C64.9569 14.1949 64.6267 13.5855 64.1068 13.1675C63.6546 12.8006 63.1079 12.6066 62.5278 12.6066C62.1532 12.6059 61.7833 12.6891 61.4451 12.8501C61.1069 13.0111 60.809 13.2458 60.5734 13.537L54.8299 20.6205C54.4679 21.0685 54.269 21.6269 54.269 22.2037ZM22.2825 24.2764C22.6226 24.4403 22.9954 24.525 23.3729 24.5242H23.3771C23.9459 24.5233 24.4977 24.33 24.9427 23.9758C26.0261 23.1107 26.2033 21.5308 25.3398 20.4458L19.6932 13.3623C19.2142 12.7613 18.497 12.416 17.7272 12.416C17.1582 12.4139 16.6058 12.6072 16.1623 12.9636C15.0782 13.8296 14.9001 15.4094 15.7636 16.4944L21.4093 23.5779C21.6439 23.8737 21.9425 24.1125 22.2825 24.2764ZM28.2061 52.5397C29.5703 57.9113 34.4345 61.6645 40.0318 61.6645C45.619 61.6645 50.4714 57.9113 51.8356 52.5389L51.946 52.1059L72.6435 52.0934C72.6462 52.1345 72.6485 52.1734 72.6505 52.2097V65.3377L72.6547 65.4898C72.6547 65.5776 72.5744 66.1268 72.2175 66.4469C71.8188 66.8039 70.9377 66.971 70.4345 66.9777L9.724 66.9769C9.4214 66.9585 8.55623 66.8106 8.20682 66.5531L8.16754 66.5247L8.1341 66.4887C7.885 66.2296 7.73955 65.6553 7.70862 65.4179L7.70444 65.3811V52.1972C7.70395 52.1631 7.7029 52.1284 7.70144 52.0937L28.0958 52.1059L28.2061 52.5397ZM8.95401 47.0691C8.97838 47.0236 8.99923 46.9858 9.01598 46.956C9.01598 46.956 9.04441 46.905 9.04608 46.9L9.04524 46.9025L9.11629 46.783L15.6949 35.1454L15.715 35.1179C15.9448 34.8044 16.5024 34.1332 16.9747 33.8389C17.3099 33.6291 18.0338 33.5263 18.4242 33.5229H60.1077L60.1603 33.5254C60.6694 33.5731 61.6566 33.7511 62.1423 34.0287C62.7015 34.3497 63.4028 35.102 63.6954 35.4547L63.7196 35.4832L71.0301 47.069L49.6882 47.0829C48.3014 47.0863 47.1779 48.2106 47.1754 49.5965C47.1754 53.5462 44.0374 56.639 40.0326 56.639C36.0127 56.639 32.8647 53.5462 32.8647 49.5965C32.8622 48.2097 31.7404 47.0863 30.3536 47.0829L8.95401 47.0691ZM9.68931 72.0011L9.60154 71.9995C9.09582 71.9828 6.46772 71.8147 4.71648 70.173C2.92095 68.4895 2.70695 66.0687 2.68188 65.5997C2.67937 65.5554 2.67853 65.5111 2.67853 65.4677V52.2812C2.65178 51.7387 2.61668 49.903 3.23191 47.8659C3.82122 45.9115 4.54847 44.6293 4.75744 44.2832L11.377 32.5704C11.4105 32.5127 11.4456 32.4551 11.4832 32.3999C11.6896 32.0931 12.7989 30.5166 14.3203 29.5712C15.921 28.5739 17.8587 28.497 18.4154 28.497H60.231C60.2845 28.497 60.338 28.4979 60.3931 28.5012C60.8086 28.528 62.9669 28.7102 64.6379 29.6656C66.2328 30.5793 67.5176 32.1759 67.7575 32.4852C67.8068 32.5487 67.8528 32.6147 67.8954 32.6824L75.7572 45.1408C75.7914 45.196 75.8249 45.2528 75.8558 45.3114C76.0063 45.6006 76.7836 47.1295 77.1774 48.6157C77.5661 50.0869 77.6597 51.7128 77.6739 52.0229L77.6756 52.129V65.318C77.6848 66.0152 77.556 68.4076 75.5707 70.1864C73.6908 71.8691 71.1596 71.9995 70.4291 71.9995L9.68931 72.0011Z" fill="#999999"/>
</svg>
