<svg width="26" height="30" viewBox="0 0 26 30" fill="none" xmlns="http://www.w3.org/2000/svg">
<path fill-rule="evenodd" clip-rule="evenodd" d="M19.3044 0.0171956C19.3597 0.741015 19.5094 2.70361 17.695 4.85801C16.3825 6.39048 14.7887 7.28833 13.0435 7.15492C12.8957 5.30513 13.5844 3.66449 14.7563 2.33755C15.82 1.10075 17.6878 0.0947278 19.3032 0.000976562L19.3044 0.0171956ZM24.8345 10.1762C22.5845 11.5428 21.4703 13.3962 21.4847 15.8554C21.4847 15.8588 21.4845 15.8652 21.4843 15.8742C21.4753 16.1973 21.3697 20.0079 25.6169 22.0105C24.802 24.4769 22.0039 29.9541 18.7479 30.001C17.836 30.001 17.1069 29.72 16.3551 29.4303C15.5553 29.122 14.7298 28.8039 13.6312 28.8039C12.4436 28.8039 11.5491 29.1424 10.7112 29.4596C9.99976 29.7289 9.32907 29.9828 8.55423 30.001C5.32702 30.0984 2.23323 24.073 1.37505 21.6139C0.73321 19.746 0.412292 17.9323 0.412292 16.1763C0.412292 10.2339 4.3823 7.31319 8.11792 7.2555C9.15494 7.2555 10.3529 7.68866 11.3762 8.05866C12.1391 8.33449 12.8049 8.57523 13.2346 8.57523C13.5819 8.57523 14.1487 8.36591 14.8439 8.10913C16.054 7.6622 17.6534 7.07151 19.1625 7.1906C21.6722 7.3817 23.5761 8.3733 24.8345 10.1762Z" fill="currentColor"/>
</svg>
