<svg width="20" height="21" viewBox="0 0 20 21" fill="currentColor" xmlns="http://www.w3.org/2000/svg">
<path d="M5.85186 20.2265C5.0101 20.7629 3.90934 20.4854 3.39808 19.6121C3.15571 19.1975 3.08039 18.7023 3.18808 18.2316L4.27759 13.4663C4.29057 13.4109 4.28866 13.3528 4.27206 13.2984C4.25547 13.2439 4.22481 13.1951 4.18334 13.1571L0.617042 9.96998C-0.123718 9.30845 -0.209219 8.15154 0.42404 7.38027C0.574721 7.19627 0.759453 7.0447 0.967567 6.93432C1.17568 6.82395 1.40305 6.75695 1.63656 6.73721L6.31687 6.34619C6.41887 6.33747 6.51012 6.2685 6.55187 6.16363L8.35515 1.64037C8.7309 0.698075 9.77591 0.248083 10.6877 0.643717C11.1225 0.833248 11.4666 1.19155 11.6447 1.64037L13.448 6.16337C13.4897 6.2685 13.581 6.33773 13.683 6.34619L18.3638 6.73746C19.3453 6.81951 20.0721 7.71001 19.9943 8.72102C19.9578 9.20349 19.7383 9.65206 19.383 9.97049L15.8167 13.1576C15.7337 13.2317 15.6962 13.3517 15.7225 13.4666L16.812 18.2319C17.0375 19.2178 16.452 20.2111 15.4962 20.4488C15.2684 20.5055 15.0318 20.5151 14.8003 20.4769C14.5688 20.4388 14.3471 20.3538 14.148 20.2267L10.1407 17.6729C10.0985 17.6458 10.0497 17.6314 9.99992 17.6314C9.95012 17.6314 9.90134 17.6458 9.85917 17.6729L5.85161 20.2267L5.85186 20.2265Z" fill="currentColor"/>
</svg>
