<svg width="32" height="32" viewBox="0 0 32 32" fill="none" xmlns="http://www.w3.org/2000/svg">
<g id="single/search" clip-path="url(#clip0_2734_8734)">
<g id="Vector">
<path fill-rule="evenodd" clip-rule="evenodd" d="M14.4483 3.53711C8.42166 3.53711 3.53613 8.42263 3.53613 14.4492C3.53613 20.4758 8.42166 25.3614 14.4483 25.3614C20.4749 25.3614 25.3604 20.4758 25.3604 14.4492C25.3604 8.42263 20.4749 3.53711 14.4483 3.53711ZM0.536133 14.4492C0.536133 6.76578 6.7648 0.537109 14.4483 0.537109C22.1317 0.537109 28.3604 6.76578 28.3604 14.4492C28.3604 22.1327 22.1317 28.3614 14.4483 28.3614C6.7648 28.3614 0.536133 22.1327 0.536133 14.4492Z" fill="#999999"/>
<path fill-rule="evenodd" clip-rule="evenodd" d="M22.1537 22.1546C22.7394 21.5688 23.6892 21.5688 24.275 22.1546L31.0241 28.9037C31.6099 29.4895 31.6099 30.4393 31.0241 31.025C30.4383 31.6108 29.4885 31.6108 28.9028 31.025L22.1537 24.276C21.5679 23.6902 21.5679 22.7404 22.1537 22.1546Z" fill="#999999"/>
</g>
</g>
<defs>
<clipPath id="clip0_2734_8734">
<rect width="32" height="32" fill="white"/>
</clipPath>
</defs>
</svg>
