<svg width="111" height="125" viewBox="0 0 111 125" fill="none" xmlns="http://www.w3.org/2000/svg">
<path d="M83.2512 8V14.9722C83.2512 15.5245 82.8035 15.9722 82.2512 15.9722H31.5528C31.3363 15.9722 31.1256 16.0425 30.9524 16.1725L23.2937 21.9222C23.0421 22.1111 22.8941 22.4073 22.8941 22.7219V110.111C22.8941 110.663 22.4464 111.111 21.8941 111.111H8C3.58172 111.111 0 107.529 0 103.111V8C0 3.58172 3.58172 0 7.99999 0H75.2512C79.6695 0 83.2512 3.58172 83.2512 8Z" fill="currentColor"/>
<path fill-rule="evenodd" clip-rule="evenodd" d="M98.9751 19.4442H32.8367C29.516 19.4442 26.8241 21.9315 26.8241 24.9998V113.889C26.8241 116.957 29.516 119.444 32.8367 119.444H98.9751C102.296 119.444 104.988 116.957 104.988 113.889V24.9998C104.988 21.9315 102.296 19.4442 98.9751 19.4442ZM32.8367 13.8887C26.1954 13.8887 20.8115 18.8633 20.8115 24.9998V113.889C20.8115 120.025 26.1954 125 32.8367 125H98.9751C105.616 125 111 120.025 111 113.889V24.9998C111 18.8633 105.616 13.8887 98.9751 13.8887H32.8367Z" fill="currentColor"/>
<rect x="34.6865" y="27.7778" width="41.6256" height="5.55555" rx="2" fill="currentColor"/>
<rect x="34.6865" y="41.667" width="62.4384" height="5.55555" rx="2" fill="currentColor"/>
<rect x="34.6865" y="55.5557" width="27.7504" height="5.55555" rx="2" fill="currentColor"/>
<path fill-rule="evenodd" clip-rule="evenodd" d="M66.0423 88.912C73.3424 93.1308 82.6769 90.6272 86.8916 83.3199C91.1063 76.0127 88.6051 66.6689 81.305 62.4501C74.005 58.2312 64.6705 60.7349 60.4558 68.0421C56.2411 75.3494 58.7423 84.6931 66.0423 88.912ZM63.2673 93.7232C73.2219 99.4762 85.9508 96.0621 91.6981 86.0977C97.4454 76.1333 94.0347 63.3918 84.0801 57.6388C74.1255 51.8859 61.3966 55.2999 55.6493 65.2644C49.902 75.2288 53.3127 87.9703 63.2673 93.7232Z" fill="currentColor"/>
<rect width="2.77572" height="8.33128" transform="matrix(0.865812 0.50037 -0.49963 0.866239 62.7598 91.8262)" fill="currentColor"/>
<rect width="8.32717" height="27.7709" rx="4" transform="matrix(0.865812 0.50037 -0.49963 0.866239 56.8867 96.4512)" fill="currentColor"/>
</svg>
