<svg width="30" height="26" viewBox="0 0 30 26" fill="none" xmlns="http://www.w3.org/2000/svg">
<path d="M18.4276 24.8809L28.7273 14.5812C29.5317 13.7768 29.5317 12.4729 28.7273 11.6685L18.4276 1.36879C17.6232 0.564393 16.3192 0.564393 15.5148 1.36879C14.7104 2.17319 14.7104 3.47715 15.5148 4.28155L22.2982 11.065L2.55166 11.065C1.41354 11.065 0.491706 11.9868 0.491706 13.1249C0.491706 14.263 1.41354 15.1849 2.55166 15.1849L22.2982 15.1849L15.5148 21.9683C15.1131 22.37 14.9113 22.8973 14.9113 23.4247C14.9113 23.952 15.1121 24.4794 15.5148 24.8811C16.3192 25.6855 17.6232 25.6855 18.4276 24.8811L18.4276 24.8809Z" fill="#F5F5F5"/>
</svg>
