<svg width="32" height="26" viewBox="0 0 32 26" fill="currentColor" xmlns="http://www.w3.org/2000/svg">
<path d="M22.3442 21.0239L15.4352 21.0239C10.4533 21.0239 6.781 16.3673 7.94234 11.5226L9.33802 5.70043C9.93098 3.22683 12.1428 1.48255 14.6865 1.48255L30.9596 1.48255C31.1668 1.48255 31.3195 1.67625 31.2712 1.87778L27.6927 16.806C27.0997 19.2796 24.8879 21.0239 22.3442 21.0239Z" stroke="currentColor"/>
<path d="M9.65578 4.57864L19.361 4.57864C23.1741 4.57864 25.9849 8.14277 25.096 11.8508L23.0485 20.3922C22.4127 23.0446 20.041 24.9149 17.3135 24.9149L1.04045 24.9149C0.576245 24.9149 0.234067 24.481 0.342279 24.0296L3.92082 9.10131C4.55663 6.44896 6.92829 4.57864 9.65578 4.57864Z" fill="currentColor" stroke="currentColor" stroke-width="0.205128"/>
</svg>
