<svg width="19" height="18" viewBox="0 0 19 18" fill="none" xmlns="http://www.w3.org/2000/svg">
<g clip-path="url(#clip0_1023_57184)">
<path d="M12.2204 7.63574C12.2204 7.0888 12.6333 6.6786 13.1837 6.6786C13.7341 6.6786 14.1469 7.0888 14.1469 7.63574C14.1469 8.18269 13.7341 8.59289 13.1837 8.59289C12.6333 8.59289 12.2204 8.18269 12.2204 7.63574ZM4.7898 7.63574C4.7898 7.0888 5.20261 6.6786 5.75303 6.6786C6.30345 6.6786 6.71626 7.0888 6.71626 7.63574C6.71626 8.18269 6.30345 8.59289 5.75303 8.59289C5.20261 8.59289 4.7898 8.18269 4.7898 7.63574ZM18.1374 10.9858C17.8622 8.31942 16.1422 6.13165 13.5965 4.9694L15.1789 2.6449C15.3165 2.50816 15.2477 2.30306 15.1101 2.23469C14.9725 2.16632 14.8349 2.23469 14.6973 2.30306L13.0461 4.69593C11.9452 4.28572 10.7068 4.01225 9.46835 4.01225C8.16111 4.01225 6.92267 4.28572 5.82183 4.69593L4.17058 2.30306C4.03297 2.16632 3.89537 2.09795 3.75777 2.23469C3.62016 2.30306 3.62016 2.50816 3.68896 2.6449L5.27142 4.9694C2.72573 6.13165 0.936875 8.31942 0.730469 10.9858H18.1374Z" fill="currentColor"/>
</g>
<path d="M0.860352 11.8794H18.1404V12.1994C18.1404 14.4085 16.3495 16.1994 14.1404 16.1994H4.86035C2.65121 16.1994 0.860352 14.4085 0.860352 12.1994V11.8794Z" fill="currentColor"/>
<defs>
<clipPath id="clip0_1023_57184">
<rect width="18" height="9.36" fill="white" transform="translate(0.5 2.16016)"/>
</clipPath>
</defs>
</svg>
