<svg width="18" height="18" viewBox="0 0 18 18" fill="none" xmlns="http://www.w3.org/2000/svg">
<path opacity="0.3" fill-rule="evenodd" clip-rule="evenodd" d="M0.176758 0.364746V8.26153H8.23644V0.364746H0.176758ZM1.64682 1.7962H6.78528V6.83503H1.64682V1.7962ZM8.23698 9.73365H0.182698V17.6319H8.23698V9.73365ZM1.64646 11.1672H6.78573V16.2067H1.64646V11.1672ZM9.75663 0.367716V8.2654H17.8238V0.367716H9.75663ZM11.2148 6.83224V1.79278H16.3535V6.83224H11.2148ZM9.76077 17.6339H11.1984L11.1983 17.3843L11.1984 11.4183C11.1984 11.4025 11.1977 11.3864 11.1969 11.3703C11.1949 11.3288 11.1929 11.2872 11.2041 11.2495C11.2151 11.2123 11.2607 11.1584 11.2915 11.158C11.6613 11.1533 12.0311 11.1535 12.4169 11.1538C12.5088 11.1539 12.6015 11.1539 12.6954 11.1539V14.7507H17.8181V9.73942H16.3623V13.3259C16.3362 13.3272 16.3119 13.3287 16.2888 13.3302C16.2432 13.333 16.2024 13.3356 16.1615 13.3356C15.9795 13.3359 15.7975 13.3354 15.6156 13.335C15.1997 13.334 14.7837 13.3331 14.368 13.3398C14.1967 13.3426 14.1426 13.2959 14.1439 13.1196C14.1498 12.3329 14.1491 11.5462 14.1483 10.7594C14.1481 10.4952 14.1478 10.231 14.1478 9.96675V9.7351H9.76077V17.6339ZM12.7025 15.5127V17.6287H14.8747V15.5127H12.7025ZM15.6511 17.6351H17.8229V15.5102H15.6511V17.6351ZM3.12012 3.24971V5.36525C3.13235 5.36872 3.14248 5.37216 3.15126 5.37514C3.16684 5.38042 3.17817 5.38427 3.18951 5.38433C3.4075 5.38492 3.62548 5.3852 3.84346 5.38548C4.28621 5.38605 4.72894 5.38662 5.17167 5.38982C5.3001 5.39081 5.31054 5.32088 5.31009 5.22188C5.30856 4.89127 5.30885 4.56067 5.30914 4.23003C5.30924 4.11386 5.30934 3.99769 5.30937 3.88151V3.24971H3.12012ZM3.1239 12.6099V14.7392H5.30838C5.30838 14.5594 5.30827 14.3812 5.30817 14.2042C5.30787 13.7086 5.30758 13.2222 5.30964 12.7357C5.31021 12.6082 5.23285 12.6091 5.15224 12.6101C5.14498 12.6102 5.1377 12.6103 5.13045 12.6102C4.77829 12.6099 4.42618 12.6099 4.07405 12.6099C3.92276 12.6099 3.77146 12.6099 3.62016 12.6099H3.1239ZM14.8772 3.24854H12.7117C12.7091 3.26326 12.7064 3.27584 12.704 3.28702C12.6997 3.30735 12.6963 3.3231 12.6963 3.3389C12.696 3.53684 12.6961 3.73479 12.6961 3.93274C12.6963 4.3701 12.6964 4.80744 12.6925 5.24474C12.6913 5.3873 12.7699 5.38982 12.8726 5.38955C13.2773 5.38832 13.682 5.38854 14.0867 5.38875C14.2166 5.38882 14.3466 5.38889 14.4766 5.38892H14.8772V3.24854Z" fill="currentColor"/>
</svg>
