<svg width="20" height="20" viewBox="0 0 20 20" fill="none" xmlns="http://www.w3.org/2000/svg">
<path d="M17.2915 0C17.5678 0 17.8327 0.105357 18.0281 0.292893C18.2234 0.48043 18.3332 0.734784 18.3332 1C18.3332 1.26522 18.2234 1.51957 18.0281 1.70711C17.8327 1.89464 17.5678 2 17.2915 2H16.2498V5C16.2504 5.99019 15.9955 6.96509 15.5078 7.8376C15.0201 8.71011 14.3148 9.45304 13.455 10C14.2821 10.5257 14.9666 11.2331 15.4519 12.0635C15.9372 12.8939 16.2093 13.8234 16.2457 14.775L16.2498 15V18H17.2915C17.5678 18 17.8327 18.1054 18.0281 18.2929C18.2234 18.4804 18.3332 18.7348 18.3332 19C18.3332 19.2652 18.2234 19.5196 18.0281 19.7071C17.8327 19.8946 17.5678 20 17.2915 20H2.70817C2.4319 20 2.16695 19.8946 1.9716 19.7071C1.77625 19.5196 1.6665 19.2652 1.6665 19C1.6665 18.7348 1.77625 18.4804 1.9716 18.2929C2.16695 18.1054 2.4319 18 2.70817 18H3.74984V15C3.74924 14.0098 4.00418 13.0349 4.49188 12.1624C4.97957 11.2899 5.68483 10.547 6.54463 10C5.71762 9.47431 5.03308 8.76692 4.54776 7.9365C4.06244 7.10608 3.79033 6.17655 3.754 5.225L3.74984 5V2H2.70817C2.4319 2 2.16695 1.89464 1.9716 1.70711C1.77625 1.51957 1.6665 1.26522 1.6665 1C1.6665 0.734784 1.77625 0.48043 1.9716 0.292893C2.16695 0.105357 2.4319 0 2.70817 0H17.2915ZM9.99984 11C8.93083 11 7.90272 11.3944 7.12816 12.1017C6.35359 12.809 5.89183 13.775 5.83838 14.8L5.83317 15V18H14.1665V15C14.1665 13.9391 13.7275 12.9217 12.9461 12.1716C12.1647 11.4214 11.1049 11 9.99984 11ZM14.1665 2H5.83317V5C5.83315 6.04355 6.25795 7.0458 7.01692 7.79288C7.7759 8.53996 8.80894 8.97271 9.89564 8.99881C10.9823 9.02491 12.0366 8.64228 12.8336 7.93256C13.6305 7.22285 14.107 6.24225 14.1613 5.2L14.1665 5V2Z" fill="#999999"/>
</svg>
