<svg width="17" height="16" viewBox="0 0 17 16" xmlns="http://www.w3.org/2000/svg">
<path opacity="0.65" d="M14.5931 5.45517C13.6545 4.08056 12.1906 3.89123 11.6686 3.86923C10.4233 3.74258 9.23736 4.60253 8.60606 4.60253C7.97475 4.60253 7.00012 3.88656 5.9675 3.90523C4.60956 3.92523 3.35828 4.69453 2.65831 5.91181C1.24703 8.35972 2.29698 11.9862 3.67159 13.9715C4.34425 14.9441 5.14553 16.0361 6.19683 15.9967C7.21011 15.9567 7.59409 15.3407 8.81672 15.3407C10.042 15.3407 10.386 15.9967 11.4579 15.9767C12.5486 15.9567 13.2392 14.9861 13.9058 14.0108C14.6778 12.8829 14.9951 11.7922 15.0138 11.7362C14.9891 11.7249 12.8892 10.9203 12.8672 8.50037C12.8472 6.47579 14.5185 5.50383 14.5938 5.45517H14.5931ZM11.6853 0.000732422C10.8806 0.0340605 9.90667 0.536701 9.3287 1.21136C8.81139 1.81133 8.4114 2.76795 8.53339 3.68658C9.43203 3.75658 10.2946 3.23059 10.8533 2.55329C11.4113 1.87865 11.7879 0.938014 11.6853 0.000732422Z"/>
</svg>
