<svg width="24" height="24" viewBox="0 0 24 24" fill="none" xmlns="http://www.w3.org/2000/svg">
  <path
    d="M12 0C5.376 0 0 5.376 0 12C0 18.624 5.376 24 12 24C18.624 24 24 18.624 24 12C24 5.376 18.624 0 12 0ZM12 21.328C6.848 21.328 2.672 17.136 2.672 12C2.672 6.864 6.848 2.672 12 2.672C14.4739 2.672 16.8466 3.65477 18.5959 5.40411C20.3452 7.15345 21.328 9.52606 21.328 12C21.328 14.4739 20.3452 16.8466 18.5959 18.5959C16.8466 20.3452 14.4739 21.328 12 21.328Z"
    fill="currentColor" />
  <path
    d="M12.1548 6C10.9002 6 9.89004 6.36261 9.14054 7.05631C8.37476 7.76576 8.00002 8.74324 8.00002 9.95721C8.00002 10.0045 8.00001 10.4932 8.35847 10.8716C8.5214 11.045 8.83097 11.2342 9.33606 11.2342C10.3137 11.2342 10.721 10.4932 10.7536 9.97297C10.7536 9.4527 10.8513 9.05856 11.0469 8.80631C11.1609 8.64865 11.389 8.42793 12.057 8.42793C12.4481 8.42793 12.7251 8.52252 12.9043 8.68018C13.0998 8.86937 13.1976 9.15315 13.1976 9.48423C13.1976 9.73649 13.0998 9.98874 12.9043 10.2095L12.7739 10.3671C11.6986 11.3131 11.0957 11.9595 10.8676 12.4009C10.6232 12.8581 10.5092 13.3941 10.5092 14.0721V14.277C10.5092 14.7027 10.8676 15.3333 11.8615 15.3333C12.888 15.3333 13.2302 14.6712 13.279 14.277V14.0721C13.279 13.8041 13.3279 13.5676 13.4583 13.3311C13.5723 13.1104 13.7352 12.9212 13.9471 12.7477C14.6314 12.1644 15.1202 11.7387 15.332 11.5023C15.7719 10.9347 16 10.2252 16 9.38964C16 8.3491 15.6416 7.51351 14.9247 6.89865C14.2078 6.31531 13.2953 6 12.1548 6Z"
    fill="currentColor" />
  <path
    d="M10.6665 17.0001C10.6665 17.4422 10.807 17.8661 11.057 18.1787C11.3071 18.4912 11.6462 18.6668 11.9998 18.6668C12.3534 18.6668 12.6926 18.4912 12.9426 18.1787C13.1927 17.8661 13.3332 17.4422 13.3332 17.0001C13.3332 16.5581 13.1927 16.1342 12.9426 15.8216C12.6926 15.5091 12.3534 15.3335 11.9998 15.3335C11.6462 15.3335 11.3071 15.5091 11.057 15.8216C10.807 16.1342 10.6665 16.5581 10.6665 17.0001Z"
    fill="currentColor" />
</svg>