<svg width="16" height="17" viewBox="0 0 16 17" fill="none" xmlns="http://www.w3.org/2000/svg">
<path fill-rule="evenodd" clip-rule="evenodd" d="M7.99998 3.16671C5.05446 3.16671 2.66665 5.55452 2.66665 8.50004C2.66665 11.4456 5.05446 13.8334 7.99998 13.8334C10.9455 13.8334 13.3333 11.4456 13.3333 8.50004C13.3333 5.55452 10.9455 3.16671 7.99998 3.16671ZM1.33331 8.50004C1.33331 4.81814 4.31808 1.83337 7.99998 1.83337C11.6819 1.83337 14.6666 4.81814 14.6666 8.50004C14.6666 12.1819 11.6819 15.1667 7.99998 15.1667C4.31808 15.1667 1.33331 12.1819 1.33331 8.50004ZM8.66665 5.16673V6.50006H7.33331V5.16673H8.66665ZM7.33331 11.8334V7.16673H8.66665V11.8334H7.33331Z" fill="#576072"/>
</svg>
