<svg width="384" height="260" viewBox="0 0 384 260" fill="none" xmlns="http://www.w3.org/2000/svg">
<g clip-path="url(#clip0_3309_15570)">
<path d="M192.945 207.076L113.304 165.137L192.945 120.233L272.481 165.137L192.945 207.076Z" fill="#141414"/>
<path d="M192.945 102.624L113.304 146.999V47.4472L192.945 3.17847V102.624Z" fill="url(#paint0_linear_3309_15570)"/>
<path d="M192.945 188.938L113.304 146.999L192.945 102.095L272.481 146.999L192.945 188.938Z" fill="url(#paint1_linear_3309_15570)"/>
<path d="M192.945 102.624L272.481 146.999V47.4472L192.945 3.17847V102.624Z" fill="url(#paint2_linear_3309_15570)"/>
<path d="M192.945 159.814C208.621 159.814 221.328 156.921 221.328 153.353C221.328 149.785 208.621 146.893 192.945 146.893C177.27 146.893 164.562 149.785 164.562 153.353C164.562 156.921 177.27 159.814 192.945 159.814Z" fill="#1A1C1E"/>
<path d="M192.945 3.17891L272.586 47.5536V147.105L192.945 189.044L113.304 147.105V47.5536L192.945 3.17891ZM192.945 1.06079C192.627 1.06079 192.204 1.1667 191.886 1.37851L112.245 45.7532C111.609 46.1768 111.186 46.8122 111.186 47.5536V147.105C111.186 147.847 111.609 148.588 112.351 149.012L191.992 190.95C192.31 191.162 192.627 191.162 192.945 191.162C193.263 191.162 193.581 191.056 193.898 190.95L273.54 149.012C274.281 148.694 274.705 147.953 274.705 147.105V47.5536C274.705 46.8122 274.281 46.0709 273.646 45.7532L194.004 1.37851C193.581 1.06079 193.263 1.06079 192.945 1.06079Z" fill="#B0F127"/>
<path d="M150.795 95.953L193.157 77.4194L228.318 95.953L193.157 119.146L150.795 95.953Z" fill="#212121" stroke="black" stroke-miterlimit="10" stroke-linecap="round" stroke-linejoin="round"/>
<path d="M193.263 22.6655V107.708L151.96 86.1033L193.263 22.6655Z" fill="#B0F127" stroke="black" stroke-miterlimit="10" stroke-linecap="round" stroke-linejoin="round"/>
<path d="M193.157 153.884V119.147L228.318 95.9534L193.157 153.884Z" fill="white" stroke="black" stroke-miterlimit="10" stroke-linecap="round" stroke-linejoin="round"/>
<path d="M193.157 153.884V119.147L150.795 95.9534L193.157 153.884Z" fill="#B0F127" stroke="black" stroke-miterlimit="10" stroke-linecap="round" stroke-linejoin="round"/>
<path d="M193.157 22.6655V107.708L229.907 84.7265L193.157 22.6655Z" fill="white" stroke="black" stroke-miterlimit="10" stroke-linejoin="round"/>
<path d="M113.939 47.7649L115.74 48.824" stroke="#6EA002" stroke-linecap="round" stroke-linejoin="round"/>
<path d="M119.341 50.8362L189.239 90.0214" stroke="#6EA002" stroke-linecap="round" stroke-linejoin="round" stroke-dasharray="3.88 3.88"/>
<path d="M191.039 91.0813L192.945 92.0344L194.746 91.0813" stroke="#6EA002" stroke-linecap="round" stroke-linejoin="round"/>
<path d="M198.347 89.0678L268.351 49.7766" stroke="#6EA002" stroke-linecap="round" stroke-linejoin="round" stroke-dasharray="3.89 3.89"/>
<path d="M270.151 48.718L272.058 47.7649" stroke="#6EA002" stroke-linecap="round" stroke-linejoin="round"/>
<path d="M192.945 92.0347V188.515" stroke="#6EA002" stroke-miterlimit="10" stroke-linecap="round" stroke-linejoin="round" stroke-dasharray="4 4"/>
<path d="M290.379 267.441L230.118 235.669L290.379 201.674L350.533 235.669L290.379 267.441Z" fill="#141414"/>
<path d="M290.379 108.66L350.639 142.233V217.532L290.379 249.304L230.118 217.532V142.233L290.379 108.66ZM290.379 106.542C290.061 106.542 289.637 106.648 289.32 106.86L229.059 140.326C228.424 140.75 228 141.385 228 142.127V217.426C228 218.167 228.424 218.909 229.165 219.332L289.426 251.104C289.743 251.316 290.061 251.316 290.379 251.316C290.696 251.316 291.014 251.21 291.332 251.104L351.592 219.332C352.334 219.015 352.757 218.273 352.757 217.426V142.127C352.757 141.385 352.334 140.644 351.698 140.326L291.438 106.754C291.014 106.648 290.696 106.542 290.379 106.542Z" fill="#B0F127"/>
<path d="M290.379 183.959L230.118 217.531V142.232L290.379 108.66V183.959Z" fill="url(#paint3_linear_3309_15570)"/>
<path d="M290.379 249.303L230.118 217.532L290.379 183.536L350.533 217.532L290.379 249.303Z" fill="url(#paint4_linear_3309_15570)"/>
<path d="M290.379 183.959L350.534 217.531V142.232L290.379 108.66V183.959Z" fill="url(#paint5_linear_3309_15570)"/>
<path d="M247.274 153.882L289.107 130.159L330.834 153.882L290.378 176.546L247.274 153.882Z" fill="#D6FF8A"/>
<path d="M330.834 203.023L290.378 223.78V176.546L330.834 153.882V203.023Z" fill="#243600"/>
<path d="M247.274 153.882V203.023L290.378 223.78V176.546L247.274 153.882Z" fill="#B0F127"/>
<path d="M230.542 142.444L232.448 143.503" stroke="#6EA002" stroke-linecap="round" stroke-linejoin="round"/>
<path d="M236.155 145.622L286.673 173.899" stroke="#6EA002" stroke-linecap="round" stroke-linejoin="round" stroke-dasharray="4.05 4.05"/>
<path d="M288.473 174.958L290.379 176.017L292.179 174.958" stroke="#6EA002" stroke-linecap="round" stroke-linejoin="round"/>
<path d="M295.886 172.839L346.509 144.562" stroke="#6EA002" stroke-linecap="round" stroke-linejoin="round" stroke-dasharray="4.05 4.05"/>
<path d="M348.31 143.503L350.216 142.444" stroke="#6EA002" stroke-linecap="round" stroke-linejoin="round"/>
<path d="M290.379 176.017V248.88" stroke="#6EA002" stroke-miterlimit="10" stroke-linecap="round" stroke-linejoin="round" stroke-dasharray="4 4"/>
<path d="M187.242 156.333C101.921 210.784 23.9235 240.381 13.3041 222.547C4.88185 208.127 42.2328 167.716 101.189 124.269C34.726 167.147 -9.03319 214.009 1.58619 232.981C13.121 253.472 83.9779 233.361 159.778 187.827C212.143 156.522 253.155 121.423 270 96C247.48 115.162 219.1 136.032 187.242 156.333Z" fill="#F4F4F4"/>
<path d="M303.087 90.7345C306.391 87.8865 302.754 78.2564 294.964 69.225C287.175 60.1936 278.182 55.181 274.878 58.029C271.574 60.877 275.21 70.5072 283 79.5385C290.79 88.5699 299.783 93.5825 303.087 90.7345Z" fill="#B0F127" stroke="black" stroke-miterlimit="9.9996" stroke-linecap="round" stroke-linejoin="round"/>
<path d="M303.906 23.0512C303.906 23.0512 296.254 17.2519 284.282 20.46C274.284 23.1746 260.83 33.7863 250.092 45.2617C249.722 45.6319 247.13 48.5933 246.76 48.84C246.76 48.84 276.135 44.1512 279.468 50.074L303.906 23.0512Z" fill="#B0F127" stroke="black" stroke-miterlimit="10" stroke-linecap="round" stroke-linejoin="round"/>
<path d="M341.428 66.4849C341.428 66.4849 346.118 74.8755 341.058 86.2275C336.861 95.7286 324.395 107.451 311.435 116.458C311.065 116.705 307.733 119.05 307.362 119.173C307.362 119.173 316.372 90.7929 310.942 86.721L341.428 66.4849Z" fill="#B0F127" stroke="black" stroke-miterlimit="10" stroke-linecap="round" stroke-linejoin="round"/>
<path d="M295.02 69.1994C302.796 78.207 306.375 87.8315 303.166 90.6695C315.015 85.9806 328.345 77.8368 341.305 66.7316C370.064 41.9299 375.001 0.347019 375.001 0.347019C375.001 0.347019 333.159 -0.886886 304.277 23.9148C291.441 35.02 281.32 47.1123 274.901 58.0942C278.234 55.1328 287.121 60.1918 295.02 69.1994Z" fill="white" stroke="black" stroke-miterlimit="10" stroke-linecap="round" stroke-linejoin="round"/>
<path d="M373.272 1.58081C373.272 1.58081 354.881 19.3492 348.957 19.9661C343.032 20.7065 325.259 24.2848 318.224 37.3643C311.312 50.4438 293.785 65.8677 293.785 65.8677C293.785 65.8677 282.553 54.8859 277.122 55.873C275.271 56.2432 290.206 37.6111 292.057 36.8707C292.057 36.8707 305.017 21.817 322.42 12.8094C336.244 5.77612 355.005 1.7042 373.272 1.58081Z" fill="#F4F4F4"/>
<path d="M336.491 47.7293C344.399 47.7293 350.809 41.321 350.809 33.4159C350.809 25.5109 344.399 19.1025 336.491 19.1025C328.584 19.1025 322.174 25.5109 322.174 33.4159C322.174 41.321 328.584 47.7293 336.491 47.7293Z" fill="#B0F127" stroke="black" stroke-miterlimit="10"/>
<path d="M88.1649 80.1181L139.212 108.501V172.362L88.1649 199.263L37.1181 172.362V108.501L88.1649 80.1181ZM88.1649 78C87.8472 78 87.4235 78.1059 87.1058 78.3177L36.0591 106.701C35.4236 107.124 35 107.76 35 108.501V172.362C35 173.104 35.4236 173.845 36.165 174.269L87.2117 201.169C87.5294 201.381 87.8472 201.381 88.1649 201.381C88.4826 201.381 88.8003 201.275 89.118 201.169L140.165 174.269C140.906 173.951 141.33 173.21 141.33 172.362V108.501C141.33 107.76 140.906 107.018 140.271 106.701L89.2239 78.3177C88.8003 78.1059 88.4826 78 88.1649 78Z" fill="#B0F127"/>
<path d="M88.1649 143.979L37.1182 172.362V108.606L88.1649 80.1177V143.979Z" fill="url(#paint6_linear_3309_15570)"/>
<path d="M88.1649 199.263L37.1182 172.362L88.1649 143.556L139.212 172.362L88.1649 199.263Z" fill="url(#paint7_linear_3309_15570)"/>
<path d="M88.165 143.979L139.212 172.362V108.606L88.165 80.1177V143.979Z" fill="url(#paint8_linear_3309_15570)"/>
<path d="M51.627 118.456L87.1055 98.334L122.478 118.456L88.1646 137.625L51.627 118.456Z" fill="#232323"/>
<path d="M122.479 160.077L88.165 177.657V137.625L122.479 118.456V160.077Z" fill="#0E0E0E"/>
<path d="M51.627 118.456V160.077L88.1646 177.657V137.625L51.627 118.456Z" fill="#DBDBDB"/>
<path d="M37.4355 108.819L39.3419 109.772" stroke="#6EA002" stroke-linecap="round" stroke-linejoin="round"/>
<path d="M42.9424 111.89L84.4576 135.084" stroke="#6EA002" stroke-linecap="round" stroke-linejoin="round" stroke-dasharray="3.91 3.91"/>
<path d="M86.2578 136.143L88.1641 137.202L89.9645 136.143" stroke="#6EA002" stroke-linecap="round" stroke-linejoin="round"/>
<path d="M93.5654 134.13L135.187 110.831" stroke="#6EA002" stroke-linecap="round" stroke-linejoin="round" stroke-dasharray="3.92 3.92"/>
<path d="M136.987 109.772L138.894 108.713" stroke="#6EA002" stroke-linecap="round" stroke-linejoin="round"/>
<path d="M88.165 137.201V198.944" stroke="#6EA002" stroke-miterlimit="10" stroke-linecap="round" stroke-linejoin="round" stroke-dasharray="4 4"/>
<path fill-rule="evenodd" clip-rule="evenodd" d="M81.4219 114C80.5951 114 79.9248 114.641 79.9248 115.433V117.538C79.9248 117.663 79.9413 117.783 79.9723 117.898C80.0513 118.677 80.6288 119.442 81.7045 120.037C84.0269 121.321 87.7917 121.321 90.1141 120.037C91.1149 119.484 91.6845 118.782 91.8226 118.061C91.8885 117.899 91.9248 117.723 91.9248 117.538V115.433C91.9248 114.641 91.2549 114 90.4277 114H81.4219Z" fill="#2F2F2F"/>
<path d="M80.2384 117.422L80.498 117.351L80.5033 117.373L80.5051 117.395L80.2384 117.422ZM91.559 117.595L91.2952 117.544L91.2998 117.517L91.3091 117.491L91.559 117.595ZM79.9248 114.807C79.9248 113.809 80.6853 113 81.6232 113V113.57C80.9814 113.57 80.4611 114.124 80.4611 114.807H79.9248ZM79.9248 117.041V114.807H80.4611V117.041H79.9248ZM79.9788 117.494C79.9434 117.349 79.9248 117.197 79.9248 117.041H80.4611C80.4611 117.148 80.474 117.252 80.498 117.351L79.9788 117.494ZM81.759 119.94C80.6857 119.281 80.0582 118.399 79.9713 117.45L80.5051 117.395C80.5695 118.099 81.045 118.842 82.0272 119.446L81.759 119.94ZM90.0609 119.94C88.9014 120.652 87.3983 121 85.9102 121C84.4217 121 82.9185 120.652 81.759 119.94L82.0272 119.446C83.0862 120.096 84.4907 120.43 85.9102 120.43C87.3293 120.43 88.7337 120.096 89.7927 119.446L90.0609 119.94ZM91.8229 117.646C91.672 118.521 91.0599 119.326 90.0609 119.94L89.7927 119.446C90.7063 118.885 91.1822 118.201 91.2952 117.544L91.8229 117.646ZM91.9248 117.041C91.9248 117.272 91.8837 117.495 91.8086 117.699L91.3091 117.491C91.3606 117.352 91.3885 117.2 91.3885 117.041H91.9248ZM91.9248 114.807V117.041H91.3885V114.807H91.9248ZM90.2265 113C91.1647 113 91.9248 113.809 91.9248 114.807H91.3885C91.3885 114.124 90.8683 113.57 90.2265 113.57V113ZM81.6232 113H90.2265V113.57H81.6232V113Z" fill="#060606"/>
<path d="M90.0056 117.095C92.2158 115.819 92.2158 113.75 90.0056 112.474C87.7954 111.198 84.212 111.198 82.0019 112.474C79.7917 113.75 79.7917 115.819 82.0019 117.095C84.212 118.371 87.7954 118.371 90.0056 117.095Z" fill="#060606" stroke="#060606" stroke-width="1.5"/>
<path d="M130.082 72.3858C124.029 73.5709 117.975 76.7934 111.965 79.9925C110.731 80.6493 109.499 81.3051 108.269 81.9421C101.097 85.6572 93.999 88.7355 86.9248 87.8451V57C94.2657 62.4093 101.606 63.6621 108.903 64.3866C109.968 64.4923 111.031 64.5869 112.093 64.6813C118.459 65.2473 124.772 65.8086 131.09 68.7534C131.848 69.107 132.065 69.885 131.841 70.6821C131.614 71.4841 130.955 72.2149 130.082 72.3858Z" fill="white" stroke="#060606" stroke-width="1.5"/>
<mask id="mask0_3309_15570" style="mask-type:alpha" maskUnits="userSpaceOnUse" x="86" y="55" width="47" height="35">
<path d="M129.726 72.6708C123.742 73.8547 117.758 77.074 111.818 80.2699C110.598 80.9261 109.38 81.5813 108.165 82.2176C101.075 85.9291 94.0589 89.0043 87.0664 88.1149V57.3C94.3225 62.7041 101.579 63.9556 108.791 64.6794C109.844 64.785 110.895 64.8795 111.945 64.9738C118.237 65.5392 124.477 66.1 130.722 69.0419C131.472 69.3952 131.686 70.1724 131.464 70.9687C131.24 71.7699 130.589 72.5 129.726 72.6708Z" fill="white" stroke="#060606" stroke-width="1.5"/>
</mask>
<g mask="url(#mask0_3309_15570)">
<path d="M107.073 49.2593L79.9355 45.5842L73.279 94.7388L100.417 98.4138L107.073 49.2593Z" fill="#B0F127"/>
</g>
<path d="M130.082 72.3858C124.029 73.5709 117.975 76.7934 111.965 79.9925C110.731 80.6493 109.499 81.3051 108.269 81.9421C101.097 85.6572 93.999 88.7355 86.9248 87.8451V57C94.2657 62.4093 101.606 63.6621 108.903 64.3866C109.968 64.4923 111.031 64.5869 112.093 64.6813C118.459 65.2473 124.772 65.8086 131.09 68.7534C131.848 69.107 132.065 69.885 131.841 70.6821C131.614 71.4841 130.955 72.2149 130.082 72.3858Z" stroke="#060606" stroke-width="1.5"/>
<path d="M86.9248 51.1572C86.9248 50.5181 86.4771 50 85.9248 50C85.3725 50 84.9248 50.5181 84.9248 51.1572V114.843C84.9248 115.482 85.3725 116 85.9248 116C86.4771 116 86.9248 115.482 86.9248 114.843V51.1572Z" fill="#717172" stroke="#060606" stroke-width="1.5"/>
</g>
<defs>
<linearGradient id="paint0_linear_3309_15570" x1="132.897" y1="24.0853" x2="179.957" y2="142.898" gradientUnits="userSpaceOnUse">
<stop stop-opacity="0"/>
<stop offset="1" stop-color="#3D3D3D"/>
</linearGradient>
<linearGradient id="paint1_linear_3309_15570" x1="138.809" y1="98.371" x2="254.859" y2="202.687" gradientUnits="userSpaceOnUse">
<stop stop-opacity="0"/>
<stop offset="1" stop-color="#3D3D3D"/>
</linearGradient>
<linearGradient id="paint2_linear_3309_15570" x1="197.392" y1="62.4613" x2="286.15" y2="80.3417" gradientUnits="userSpaceOnUse">
<stop stop-opacity="0"/>
<stop offset="0.9403" stop-color="#212121"/>
</linearGradient>
<linearGradient id="paint3_linear_3309_15570" x1="244.939" y1="124.54" x2="280.546" y2="214.435" gradientUnits="userSpaceOnUse">
<stop stop-opacity="0"/>
<stop offset="1" stop-color="#3D3D3D"/>
</linearGradient>
<linearGradient id="paint4_linear_3309_15570" x1="249.412" y1="180.745" x2="337.218" y2="259.673" gradientUnits="userSpaceOnUse">
<stop stop-opacity="0"/>
<stop offset="1" stop-color="#3D3D3D"/>
</linearGradient>
<linearGradient id="paint5_linear_3309_15570" x1="293.737" y1="153.576" x2="385.878" y2="188.845" gradientUnits="userSpaceOnUse">
<stop stop-opacity="0"/>
<stop offset="1" stop-color="#353535"/>
</linearGradient>
<linearGradient id="paint6_linear_3309_15570" x1="49.6519" y1="93.5787" x2="79.8282" y2="169.764" gradientUnits="userSpaceOnUse">
<stop stop-opacity="0"/>
<stop offset="1" stop-color="#3D3D3D"/>
</linearGradient>
<linearGradient id="paint7_linear_3309_15570" x1="53.4433" y1="141.213" x2="127.857" y2="208.102" gradientUnits="userSpaceOnUse">
<stop stop-opacity="0"/>
<stop offset="1" stop-color="#3D3D3D"/>
</linearGradient>
<linearGradient id="paint8_linear_3309_15570" x1="91.0075" y1="118.186" x2="137.367" y2="134.721" gradientUnits="userSpaceOnUse">
<stop stop-opacity="0"/>
<stop offset="1" stop-color="#202020"/>
</linearGradient>
<clipPath id="clip0_3309_15570">
<rect width="384" height="260" fill="white"/>
</clipPath>
</defs>
</svg>
