<svg width="255" height="153" viewBox="0 0 255 153" fill="none" xmlns="http://www.w3.org/2000/svg">
<path d="M87.9883 52.6819V29.3932L154.376 66.4687L166.859 76.3431L158.91 91.6205L87.9883 52.6819Z" fill="#060606" stroke="#060606" stroke-width="1.07746"/>
<path d="M74.5704 108.586L74.6711 36.9198L138.478 72.431L158.351 79.8834L169.157 74.7909V132.575C169.157 139.098 165.703 145.133 160.079 148.438L158.524 149.351C152.813 152.706 145.739 152.732 140.003 149.419L77.1981 113.145C75.5698 112.205 74.568 110.467 74.5704 108.586Z" fill="white"/>
<mask id="mask0_2230_6339" style="mask-type:alpha" maskUnits="userSpaceOnUse" x="74" y="36" width="96" height="117">
<path d="M74.5704 108.586L74.6711 36.9198L138.478 72.431L158.351 79.8834L169.157 74.7909V132.575C169.157 139.098 165.703 145.133 160.079 148.438L158.524 149.351C152.813 152.706 145.739 152.732 140.003 149.419L77.1981 113.145C75.5698 112.205 74.568 110.467 74.5704 108.586Z" fill="white" stroke="#060606" stroke-width="1.07746"/>
</mask>
<g mask="url(#mask0_2230_6339)">
<path d="M169.274 63.4902H145.558V170.462H169.274V63.4902Z" fill="#B0F127"/>
</g>
<path d="M74.5704 108.586L74.6711 36.9198L138.478 72.431L158.351 79.8834L169.157 74.7909V132.575C169.157 139.098 165.703 145.133 160.079 148.438L158.524 149.351C152.813 152.706 145.739 152.732 140.003 149.419L77.1981 113.145C75.5698 112.205 74.568 110.467 74.5704 108.586Z" stroke="#060606" stroke-width="1.07746"/>
<path fill-rule="evenodd" clip-rule="evenodd" d="M89.0691 27.6452C90.4948 26.822 92.8063 26.822 94.2323 27.6452L165.442 68.7581C170.551 71.7077 170.551 76.4902 165.442 79.4397C160.333 82.3896 152.05 82.3896 146.941 79.4397L75.731 38.3268C74.3053 37.5036 74.3053 36.1692 75.731 35.346C77.1566 34.5228 79.4682 34.5228 80.8942 35.346L152.104 76.459C154.361 77.7621 158.021 77.7621 160.279 76.459C162.536 75.1556 162.536 73.0423 160.279 71.7392L89.0691 30.6262C87.6434 29.803 87.6434 28.4683 89.0691 27.6452Z" fill="white" stroke="#060606" stroke-width="1.07746"/>
<path fill-rule="evenodd" clip-rule="evenodd" d="M73.6054 65.0653L71.1812 66.4648L76.9313 69.7846C74.9969 71.206 73.8237 73.8592 73.8237 77.506C73.8237 79.0974 74.9411 81.0329 76.3198 81.8289L99.0796 94.9695C99.5884 95.2631 100.081 95.467 100.548 95.5866V99.0999L102.721 97.8451C103.727 97.2642 104.542 95.8522 104.542 94.6911V91.8477V91.8155V83.9851C104.542 82.2432 103.319 80.1254 101.811 79.2544L93.3586 74.3741L93.3647 74.3707L77.2471 65.0653C76.2416 64.4847 74.6109 64.4847 73.6054 65.0653Z" fill="#C0C0C0"/>
<path d="M71.1813 66.4649L71.0812 66.2917L70.7809 66.4649L71.0812 66.6384L71.1813 66.4649ZM76.9314 69.7847L77.0499 69.9462L77.2969 69.7647L77.0315 69.6115L76.9314 69.7847ZM100.548 95.5867H100.748V95.4314L100.598 95.3927L100.548 95.5867ZM100.548 99.1H100.348V99.4468L100.648 99.2733L100.548 99.1ZM104.542 91.8479L104.342 91.8474V91.8479H104.542ZM104.542 91.8156L104.743 91.8161V91.8156H104.542ZM93.3587 74.3743L93.2586 74.201L92.9583 74.3743L93.2586 74.5478L93.3587 74.3743ZM93.3648 74.3708L93.4649 74.5443L93.7652 74.3708L93.4649 74.1976L93.3648 74.3708ZM71.2814 66.6384L73.7056 65.2387L73.5054 64.8919L71.0812 66.2917L71.2814 66.6384ZM77.0315 69.6115L71.2814 66.2917L71.0812 66.6384L76.8313 69.9582L77.0315 69.6115ZM76.8126 69.6235C74.8099 71.0953 73.6237 73.8204 73.6237 77.5061H74.0241C74.0241 73.8981 75.1841 71.3172 77.0499 69.9462L76.8126 69.6235ZM73.6237 77.5061C73.6237 78.3454 73.917 79.2614 74.3815 80.066C74.8462 80.8708 75.493 81.5827 76.2198 82.0023L76.42 81.6555C75.7682 81.2794 75.167 80.6257 74.7282 79.8658C74.2896 79.1058 74.0241 78.2583 74.0241 77.5061H73.6237ZM76.2198 82.0023L98.9796 95.1428L99.1798 94.7961L76.42 81.6555L76.2198 82.0023ZM98.9796 95.1428C99.5018 95.4442 100.011 95.6559 100.498 95.7808L100.598 95.3927C100.151 95.2784 99.675 95.082 99.1798 94.7961L98.9796 95.1428ZM100.348 95.5867V99.1H100.748V95.5867H100.348ZM100.648 99.2733L102.822 98.0184L102.621 97.6717L100.448 98.9265L100.648 99.2733ZM102.822 98.0184C103.362 97.7064 103.84 97.179 104.182 96.5858C104.525 95.993 104.743 95.3153 104.743 94.6912H104.342C104.342 95.2285 104.152 95.8374 103.836 96.3857C103.519 96.9342 103.087 97.4032 102.621 97.6717L102.822 98.0184ZM104.743 94.6912V91.8479H104.342V94.6912H104.743ZM104.743 91.8482V91.8161L104.342 91.8153V91.8474L104.743 91.8482ZM104.743 91.8156V83.9853H104.342V91.8156H104.743ZM104.743 83.9853C104.743 83.071 104.423 82.0717 103.916 81.1932C103.409 80.3147 102.703 79.5383 101.911 79.081L101.711 79.4277C102.428 79.8415 103.088 80.5595 103.569 81.3934C104.05 82.227 104.342 83.1578 104.342 83.9853H104.743ZM101.911 79.081L93.4588 74.201L93.2586 74.5478L101.711 79.4277L101.911 79.081ZM93.2647 74.1973L93.2586 74.201L93.4588 74.5478L93.4649 74.5443L93.2647 74.1973ZM77.1471 65.2387L93.2647 74.5443L93.4649 74.1976L77.3473 64.8919L77.1471 65.2387ZM73.7056 65.2387C74.1709 64.9702 74.7931 64.83 75.4262 64.83C76.0596 64.83 76.6819 64.9702 77.1471 65.2387L77.3473 64.8919C76.807 64.5799 76.1112 64.4296 75.4262 64.4296C74.7416 64.4296 74.0457 64.5799 73.5054 64.8919L73.7056 65.2387Z" fill="#060606"/>
<path d="M70.4679 68.181C70.4679 66.5842 71.5887 65.9372 72.9717 66.7353L98.4552 81.4484C99.9637 82.3194 101.186 84.4374 101.186 86.1791V97.4261C101.186 99.0229 100.066 99.6702 98.6827 98.8718L73.1991 84.1588C71.6907 83.288 70.4679 81.17 70.4679 79.428V68.181Z" fill="white" stroke="#060606" stroke-width="1.07746"/>
<mask id="mask1_2230_6339" style="mask-type:alpha" maskUnits="userSpaceOnUse" x="110" y="25" width="57" height="53">
<path d="M152.103 76.2117C154.36 77.5151 158.02 77.5151 160.278 76.2117L166.329 44.146L126.153 25.3076L110.006 51.9312L152.103 76.2117Z" fill="white"/>
</mask>
<g mask="url(#mask1_2230_6339)">
<path fill-rule="evenodd" clip-rule="evenodd" d="M154.628 80.1788C157.288 78.0556 158.89 74.2615 158.89 69.1109C158.89 57.483 150.727 43.3438 140.657 37.5299C135.356 34.4693 130.583 34.326 127.251 36.5732L127.251 36.5722L127.219 36.5949C127.11 36.6691 127.003 36.7457 126.897 36.8249L123.717 39.0981L124.236 39.9403C123.075 42.0399 122.424 44.7724 122.424 48.057C122.424 59.6846 130.587 73.8238 140.657 79.6377C144.153 81.6562 147.419 82.4058 150.194 82.0377L150.76 82.9562L154.639 80.1951L154.628 80.1788Z" fill="#B0F127"/>
<path d="M154.628 80.1787L154.503 80.022L154.364 80.1336L154.459 80.285L154.628 80.1787ZM127.251 36.5732L127.082 36.6794L127.192 36.8548L127.363 36.7389L127.251 36.5732ZM127.251 36.5721L127.42 36.4659L127.307 36.2857L127.134 36.4093L127.251 36.5721ZM127.219 36.5948L127.332 36.7603L127.334 36.759L127.336 36.7576L127.219 36.5948ZM126.897 36.8249L127.014 36.9877L127.016 36.9864L127.017 36.985L126.897 36.8249ZM123.717 39.098L123.6 38.9352L123.448 39.0439L123.547 39.203L123.717 39.098ZM124.236 39.9402L124.411 40.0371L124.468 39.9349L124.407 39.8353L124.236 39.9402ZM150.194 82.0376L150.364 81.9324L150.296 81.8222L150.167 81.8393L150.194 82.0376ZM150.76 82.9561L150.59 83.061L150.702 83.2431L150.876 83.1192L150.76 82.9561ZM154.639 80.195L154.755 80.3581L154.908 80.2487L154.808 80.0888L154.639 80.195ZM158.69 69.1108C158.69 74.2238 157.1 77.9493 154.503 80.022L154.753 80.3351C157.476 78.1616 159.09 74.2994 159.09 69.1108H158.69ZM140.557 37.7034C145.554 40.5886 150.09 45.5475 153.376 51.2403C156.663 56.9328 158.69 63.3401 158.69 69.1108H159.09C159.09 63.2534 157.035 56.7775 153.723 51.0401C150.41 45.3025 145.829 40.2851 140.757 37.3566L140.557 37.7034ZM127.363 36.7389C130.608 34.5501 135.294 34.6646 140.557 37.7034L140.757 37.3566C135.417 34.2739 130.557 34.1017 127.139 36.4072L127.363 36.7389ZM127.421 36.4667L127.42 36.4659L127.081 36.6786L127.082 36.6794L127.421 36.4667ZM127.134 36.4093L127.103 36.432L127.336 36.7576L127.367 36.7352L127.134 36.4093ZM127.017 36.985C127.121 36.9076 127.226 36.8326 127.332 36.7603L127.107 36.4293C126.995 36.5051 126.885 36.5836 126.777 36.6647L127.017 36.985ZM126.781 36.6621L123.6 38.9352L123.833 39.2609L127.014 36.9877L126.781 36.6621ZM123.547 39.203L124.066 40.0454L124.407 39.8353L123.887 38.9929L123.547 39.203ZM122.624 48.0569C122.624 44.7978 123.27 42.1004 124.411 40.0371L124.061 39.8433C122.879 41.9793 122.223 44.747 122.223 48.0569H122.624ZM140.757 79.4642C135.759 76.5789 131.224 71.62 127.937 65.9275C124.651 60.2347 122.624 53.8274 122.624 48.0569H122.223C122.223 53.9141 124.278 60.3901 127.59 66.1277C130.903 71.865 135.484 76.8824 140.557 79.8112L140.757 79.4642ZM150.167 81.8393C147.448 82.1999 144.226 81.4675 140.757 79.4642L140.557 79.8112C144.079 81.8446 147.39 82.6115 150.22 82.2362L150.167 81.8393ZM150.023 82.1428L150.59 83.061L150.93 82.8509L150.364 81.9324L150.023 82.1428ZM150.876 83.1192L154.755 80.3581L154.522 80.0319L150.644 82.793L150.876 83.1192ZM154.808 80.0888L154.798 80.0722L154.459 80.285L154.469 80.3015L154.808 80.0888Z" fill="#060606"/>
<mask id="mask2_2230_6339" style="mask-type:alpha" maskUnits="userSpaceOnUse" x="122" y="34" width="38" height="50">
<path fill-rule="evenodd" clip-rule="evenodd" d="M154.628 80.1748C157.288 78.0516 158.89 74.2578 158.89 69.1069C158.89 57.479 150.727 43.3398 140.657 37.5259C135.356 34.4653 130.583 34.3222 127.251 36.5692L127.251 36.5684L127.219 36.5908C127.11 36.665 127.003 36.7417 126.897 36.8209L123.717 39.0941L124.236 39.9362C123.075 42.0359 122.424 44.7687 122.424 48.053C122.424 59.6806 130.587 73.82 140.657 79.6337C144.153 81.6522 147.419 82.4017 150.194 82.0337L150.76 82.9522L154.639 80.1913L154.628 80.1748Z" fill="#B0F127"/>
<path d="M154.628 80.1748L154.503 80.0184L154.364 80.1299L154.459 80.2813L154.628 80.1748ZM127.251 36.5692L127.082 36.6757L127.192 36.8508L127.363 36.7353L127.251 36.5692ZM127.251 36.5684L127.42 36.4619L127.307 36.282L127.134 36.4056L127.251 36.5684ZM127.219 36.5908L127.332 36.7563L127.334 36.7553L127.336 36.7539L127.219 36.5908ZM126.897 36.8209L127.014 36.9838L127.016 36.9827L127.017 36.9811L126.897 36.8209ZM123.717 39.0941L123.6 38.9313L123.448 39.0399L123.547 39.1993L123.717 39.0941ZM124.236 39.9362L124.411 40.0334L124.468 39.9309L124.407 39.8313L124.236 39.9362ZM150.194 82.0336L150.364 81.9287L150.296 81.8182L150.167 81.8353L150.194 82.0336ZM150.76 82.9522L150.59 83.0573L150.702 83.2394L150.876 83.1152L150.76 82.9522ZM154.639 80.1913L154.755 80.3544L154.908 80.2447L154.808 80.0848L154.639 80.1913ZM158.69 69.1069C158.69 74.2199 157.1 77.9457 154.503 80.0184L154.753 80.3312C157.476 78.1576 159.09 74.2954 159.09 69.1069H158.69ZM140.557 37.6994C145.554 40.5846 150.09 45.5436 153.376 51.2364C156.663 56.9289 158.69 63.3364 158.69 69.1069H159.09C159.09 63.2497 157.035 56.7735 153.723 51.0362C150.41 45.2988 145.829 40.2814 140.757 37.3527L140.557 37.6994ZM127.363 36.7353C130.608 34.5464 135.294 34.661 140.557 37.6994L140.757 37.3527C135.417 34.2699 130.557 34.098 127.139 36.4032L127.363 36.7353ZM127.421 36.4627L127.42 36.4619L127.081 36.6749L127.082 36.6757L127.421 36.4627ZM127.134 36.4056L127.103 36.428L127.336 36.7539L127.367 36.7312L127.134 36.4056ZM127.017 36.9811C127.121 36.9037 127.226 36.8289 127.332 36.7563L127.107 36.4256C126.995 36.5014 126.885 36.5799 126.777 36.6608L127.017 36.9811ZM126.781 36.6581L123.6 38.9313L123.833 39.2569L127.014 36.9838L126.781 36.6581ZM123.547 39.1993L124.066 40.0414L124.407 39.8313L123.887 38.9889L123.547 39.1993ZM122.624 48.053C122.624 44.7941 123.27 42.0965 124.411 40.0334L124.061 39.8394C122.879 41.9753 122.223 44.7433 122.223 48.053H122.624ZM140.757 79.4605C135.759 76.5753 131.224 71.616 127.937 65.9235C124.651 60.2307 122.624 53.8234 122.624 48.053H122.223C122.223 53.9102 124.278 60.3864 127.59 66.1237C130.903 71.861 135.484 76.8785 140.557 79.8072L140.757 79.4605ZM150.167 81.8353C147.448 82.1959 144.226 81.4635 140.757 79.4605L140.557 79.8072C144.079 81.8409 147.39 82.6078 150.22 82.2323L150.167 81.8353ZM150.023 82.1388L150.59 83.0573L150.93 82.847L150.364 81.9287L150.023 82.1388ZM150.876 83.1152L154.755 80.3544L154.522 80.0282L150.644 82.7891L150.876 83.1152ZM154.808 80.0848L154.798 80.0683L154.459 80.2813L154.469 80.2978L154.808 80.0848Z" fill="#060606"/>
</mask>
<g mask="url(#mask2_2230_6339)">
<path d="M180.667 57.489L142.097 79.7578L142.097 98.9082L180.667 76.6393L180.667 57.489Z" fill="#B0F127"/>
</g>
<path d="M154.628 80.1787L154.503 80.022L154.364 80.1336L154.459 80.285L154.628 80.1787ZM127.251 36.5732L127.082 36.6794L127.192 36.8548L127.363 36.7389L127.251 36.5732ZM127.251 36.5721L127.42 36.4659L127.307 36.2857L127.134 36.4093L127.251 36.5721ZM127.219 36.5948L127.332 36.7603L127.334 36.759L127.336 36.7576L127.219 36.5948ZM126.897 36.8249L127.014 36.9877L127.016 36.9864L127.017 36.985L126.897 36.8249ZM123.717 39.098L123.6 38.9352L123.448 39.0439L123.547 39.203L123.717 39.098ZM124.236 39.9402L124.411 40.0371L124.468 39.9349L124.407 39.8353L124.236 39.9402ZM150.194 82.0376L150.364 81.9324L150.296 81.8222L150.167 81.8393L150.194 82.0376ZM150.76 82.9561L150.59 83.061L150.702 83.2431L150.876 83.1192L150.76 82.9561ZM154.639 80.195L154.755 80.3581L154.908 80.2487L154.808 80.0888L154.639 80.195ZM158.69 69.1108C158.69 74.2238 157.1 77.9493 154.503 80.022L154.753 80.3351C157.476 78.1616 159.09 74.2994 159.09 69.1108H158.69ZM140.557 37.7034C145.554 40.5886 150.09 45.5475 153.376 51.2403C156.663 56.9328 158.69 63.3401 158.69 69.1108H159.09C159.09 63.2534 157.035 56.7775 153.723 51.0401C150.41 45.3025 145.829 40.2851 140.757 37.3566L140.557 37.7034ZM127.363 36.7389C130.608 34.5501 135.294 34.6646 140.557 37.7034L140.757 37.3566C135.417 34.2739 130.557 34.1017 127.139 36.4072L127.363 36.7389ZM127.421 36.4667L127.42 36.4659L127.081 36.6786L127.082 36.6794L127.421 36.4667ZM127.134 36.4093L127.103 36.432L127.336 36.7576L127.367 36.7352L127.134 36.4093ZM127.017 36.985C127.121 36.9076 127.226 36.8326 127.332 36.7603L127.107 36.4293C126.995 36.5051 126.885 36.5836 126.777 36.6647L127.017 36.985ZM126.781 36.6621L123.6 38.9352L123.833 39.2609L127.014 36.9877L126.781 36.6621ZM123.547 39.203L124.066 40.0454L124.407 39.8353L123.887 38.9929L123.547 39.203ZM122.624 48.0569C122.624 44.7978 123.27 42.1004 124.411 40.0371L124.061 39.8433C122.879 41.9793 122.223 44.747 122.223 48.0569H122.624ZM140.757 79.4642C135.759 76.5789 131.224 71.62 127.937 65.9275C124.651 60.2347 122.624 53.8274 122.624 48.0569H122.223C122.223 53.9141 124.278 60.3901 127.59 66.1277C130.903 71.865 135.484 76.8824 140.557 79.8112L140.757 79.4642ZM150.167 81.8393C147.448 82.1999 144.226 81.4675 140.757 79.4642L140.557 79.8112C144.079 81.8446 147.39 82.6115 150.22 82.2362L150.167 81.8393ZM150.023 82.1428L150.59 83.061L150.93 82.8509L150.364 81.9324L150.023 82.1428ZM150.876 83.1192L154.755 80.3581L154.522 80.0319L150.644 82.793L150.876 83.1192ZM154.808 80.0888L154.798 80.0722L154.459 80.285L154.469 80.3015L154.808 80.0888Z" fill="#060606"/>
<path d="M137.301 82.0277C147.371 87.8416 155.534 83.1285 155.534 71.5008C155.534 59.873 147.371 45.7338 137.301 39.9199C127.231 34.106 119.068 38.8191 119.068 50.4469C119.068 62.0746 127.231 76.2138 137.301 82.0277Z" fill="white" stroke="#060606" stroke-width="1.07746"/>
<mask id="mask3_2230_6339" style="mask-type:alpha" maskUnits="userSpaceOnUse" x="118" y="36" width="39" height="50">
<path d="M137.301 82.0277C147.371 87.8416 155.534 83.1285 155.534 71.5008C155.534 59.873 147.371 45.7338 137.301 39.9199C127.231 34.106 119.068 38.8191 119.068 50.4469C119.068 62.0746 127.231 76.2138 137.301 82.0277Z" fill="#B0F127" stroke="#060606" stroke-width="1.07746"/>
</mask>
<g mask="url(#mask3_2230_6339)">
<path d="M156.517 72.7816L117.946 50.5128L117.946 26.6292L156.517 48.898L156.517 72.7816Z" fill="white"/>
<path d="M137.301 82.0277C147.371 87.8416 155.534 83.1285 155.534 71.5008C155.534 59.873 147.371 45.7338 137.301 39.9199C127.231 34.106 119.068 38.8191 119.068 50.4469C119.068 62.0746 127.231 76.2138 137.301 82.0277Z" stroke="#060606" stroke-width="1.07746"/>
<path d="M142.119 68.9918L136.142 65.5415L137.26 61.836L138.975 62.2562L139.338 61.0259L137.624 60.6359L139.442 54.5454V54.4555C139.442 54.2454 139.312 54.0204 139.13 53.9152L136.818 52.58C136.636 52.4751 136.48 52.5352 136.428 52.7151L134.298 59.9157L132.583 59.5258L132.193 60.7109L133.908 61.1009L132.375 66.2465L141.495 71.5119C141.677 71.617 141.833 71.557 141.885 71.407L142.405 69.6367V69.5467C142.43 69.3217 142.3 69.0967 142.119 68.9918Z" fill="#060606"/>
</g>
</g>
<path d="M152.95 37.2756L165.556 45.5479V53.5603L152.95 37.2756Z" fill="#060606" stroke="#060606" stroke-width="1.07746" stroke-linecap="round" stroke-linejoin="round"/>
<path d="M178.164 37.2756L165.556 45.5479V53.5603L178.164 37.2756Z" fill="white" stroke="#060606" stroke-width="1.07746" stroke-linecap="round" stroke-linejoin="round"/>
<path d="M178.164 37.2756L165.556 45.5479V53.5603L178.164 37.2756Z" fill="#B0F127" stroke="#060606" stroke-width="1.07746" stroke-linecap="round" stroke-linejoin="round"/>
<path d="M152.95 37.2751L165.556 30.6118L178.164 37.2751L165.556 45.5474L152.95 37.2751Z" fill="white" stroke="#060606" stroke-width="1.07746" stroke-linecap="round" stroke-linejoin="round"/>
<path d="M152.95 37.2751L165.556 30.6118L178.164 37.2751L165.556 45.5474L152.95 37.2751Z" fill="#060606" stroke="#060606" stroke-width="1.07746" stroke-linecap="round" stroke-linejoin="round"/>
<path d="M165.556 17.2689V42.1864L178.164 33.8287L165.556 17.2689Z" fill="white" stroke="#060606" stroke-width="1.07746" stroke-linecap="round" stroke-linejoin="round"/>
<path d="M165.556 17.2689V42.1864L178.164 33.8287L165.556 17.2689Z" fill="#B0F127" stroke="#060606" stroke-width="1.07746" stroke-linecap="round" stroke-linejoin="round"/>
<path d="M165.556 17.2689V42.1864L152.95 33.8287L165.556 17.2689Z" fill="#547907" stroke="#060606" stroke-width="1.07746" stroke-linecap="round" stroke-linejoin="round"/>
<path d="M67.6895 53.2371L63.5251 68.7781L72.7851 65.6724L67.6895 53.2371Z" fill="#B0F127" stroke="#060606" stroke-width="1.07746" stroke-linecap="round" stroke-linejoin="round"/>
<path d="M67.6895 53.2371L63.5252 68.7781L57.0596 61.4587L67.6895 53.2371Z" fill="#547907" stroke="#060606" stroke-width="1.07746" stroke-linecap="round" stroke-linejoin="round"/>
<path fill-rule="evenodd" clip-rule="evenodd" d="M119.027 40.0799C121.125 38.4041 122.39 35.41 122.39 31.3452C122.39 22.1681 115.947 11.009 107.999 6.42048C103.816 4.00512 100.049 3.89189 97.4199 5.66497L97.4189 5.66342L97.3492 5.71331C97.2934 5.75188 97.2384 5.79128 97.1837 5.83153L94.63 7.65681L95.0403 8.32215C94.1231 9.97932 93.609 12.1363 93.609 14.7287C93.609 23.9057 100.052 35.0648 107.999 39.6533C110.759 41.2466 113.337 41.8381 115.527 41.5474L115.973 42.2711L119.034 40.0921L119.027 40.0799Z" fill="#B0F127"/>
<mask id="mask4_2230_6339" style="mask-type:alpha" maskUnits="userSpaceOnUse" x="93" y="4" width="30" height="39">
<path fill-rule="evenodd" clip-rule="evenodd" d="M119.027 40.0791C121.126 38.4034 122.39 35.4092 122.39 31.3445C122.39 22.1674 115.947 11.0083 108 6.41979C103.816 4.00442 100.05 3.89119 97.4204 5.66425L97.4194 5.66273L97.3497 5.71262C97.2939 5.75116 97.2389 5.79056 97.1842 5.83082L94.6305 7.65612L95.0408 8.32146C94.1236 9.97863 93.6095 12.1356 93.6095 14.728C93.6095 23.905 100.052 35.0641 108 39.6526C110.759 41.2459 113.337 41.8374 115.527 41.5467L115.973 42.2703L119.035 40.0914L119.027 40.0791Z" fill="#B0F127"/>
</mask>
<g mask="url(#mask4_2230_6339)">
<path d="M139.578 22.1736L109.137 39.7489L109.137 54.863L139.578 37.2877L139.578 22.1736Z" fill="#B0F127"/>
</g>
<path d="M105.351 41.5411C113.298 46.1296 119.741 42.4099 119.741 33.2329C119.741 24.0559 113.298 12.8967 105.351 8.30824C97.4033 3.71974 90.9606 7.43946 90.9606 16.6165C90.9606 25.7935 97.4033 36.9526 105.351 41.5411Z" fill="white"/>
<mask id="mask5_2230_6339" style="mask-type:alpha" maskUnits="userSpaceOnUse" x="90" y="6" width="30" height="38">
<path d="M105.351 41.5411C113.299 46.1296 119.742 42.4099 119.742 33.2329C119.742 24.0559 113.299 12.8967 105.351 8.30824C97.4039 3.71974 90.9612 7.43946 90.9612 16.6165C90.9612 25.7935 97.4039 36.9526 105.351 41.5411Z" fill="#B0F127"/>
</mask>
<g mask="url(#mask5_2230_6339)">
<path d="M120.517 34.2429L90.0759 16.6675L90.0759 -2.18213L120.517 15.3932L120.517 34.2429Z" fill="white"/>
<path d="M105.35 16.4905L105.252 16.8184V27.9712L105.35 28.1406L109.834 27.669L105.35 16.4905Z" fill="#060606"/>
<path d="M105.351 16.4907L100.867 22.4922L105.351 28.1408V22.7276V16.4907Z" fill="#060606"/>
<path d="M105.35 29.1217L105.295 29.1674V33.1403L105.35 33.3584L109.837 28.653L105.35 29.1217Z" fill="#060606"/>
<path d="M105.351 33.3571V29.1204L100.867 23.4732L105.351 33.3571Z" fill="#060606"/>
<path d="M105.351 28.1417L109.834 27.6701L105.351 22.7285V28.1417Z" fill="#060606"/>
<path d="M100.867 22.4926L105.351 28.1411V22.7279L100.867 22.4926Z" fill="#060606"/>
</g>
<path d="M105.351 41.5411C113.298 46.1296 119.741 42.4099 119.741 33.2329C119.741 24.0559 113.298 12.8967 105.351 8.30824C97.4033 3.71974 90.9606 7.43946 90.9606 16.6165C90.9606 25.7935 97.4033 36.9526 105.351 41.5411Z" stroke="#060606" stroke-width="1.07746"/>
<path d="M51.6573 91.3121L50.9962 91.1191C50.032 86.447 43.6958 81.7336 36.0098 80.2313C30.1145 79.0736 25.018 80.1211 22.5249 82.6156L21.8637 82.4227L21.2301 84.6002C21.1475 84.8207 21.0924 85.0413 21.0373 85.2618L21.0235 85.3307C20.9546 85.689 20.8995 86.0473 20.8995 86.4332C20.8995 91.4775 27.6627 96.8938 36.0098 98.5201C43.6821 100.022 50.0182 97.8034 50.9824 93.5172L51.6573 91.3121Z" fill="#B0F127" stroke="#060606" stroke-width="0.523359" stroke-miterlimit="10"/>
<path d="M51.7084 91.2336C53.1112 86.5288 47.5763 80.7232 39.3458 78.2663C31.1154 75.8094 23.306 77.6317 21.9032 82.3364C20.5004 87.0412 26.0353 92.8469 34.2658 95.3037C42.4962 97.7606 50.3056 95.9384 51.7084 91.2336Z" fill="white" stroke="#060606" stroke-width="0.523359" stroke-miterlimit="10"/>
<path d="M40.6992 83.5175C39.6524 82.1945 37.8617 81.9877 35.9058 82.1669L34.6937 80.2925L33.2474 80.5268L34.4457 82.3461C34.0738 82.415 33.6606 82.4839 33.3025 82.5528L32.1041 80.7198L30.6578 80.9541L31.8699 82.8284C31.5394 82.8836 31.2501 82.9387 30.9608 82.9938L30.9471 82.98L28.936 83.3108L29.7349 84.5236C29.7349 84.5236 30.7956 84.3307 30.7956 84.3445C31.4016 84.248 31.746 84.4961 31.9526 84.7028L33.3438 86.839C33.3713 86.8252 33.454 86.8252 33.4953 86.8115C33.4402 86.8252 33.3989 86.839 33.3438 86.839L35.2859 89.8159C35.3548 89.9675 35.3961 90.2156 34.9829 90.2845C35.0105 90.2983 33.9223 90.4637 33.9223 90.4637L34.5146 91.8695L36.4017 91.5525C36.7598 91.4836 37.1041 91.4422 37.4485 91.3871L38.6469 93.2752L40.1069 93.0547L38.8948 91.1804C39.2942 91.1115 39.6799 91.0563 40.0518 90.9874L41.264 92.848L42.7102 92.6137L41.4843 90.7256C43.8673 90.2156 45.2722 89.4576 44.3081 87.6246C43.5505 86.1499 42.2557 85.6538 40.6717 85.6124C41.319 85.1576 41.4706 84.4685 40.6992 83.5175ZM41.2915 87.8865C42.2144 89.2922 39.0188 89.6506 38.027 89.8159L36.4017 87.3076C37.3796 87.1422 40.3273 86.4118 41.2915 87.8865ZM38.3163 84.4685C39.1565 85.7502 36.4705 86.0259 35.6303 86.1499L34.1427 83.8897C34.9829 83.7518 37.4347 83.1179 38.3163 84.4685Z" fill="#060606"/>
<path d="M238.592 82.116C238.268 79.5997 235.712 76.7116 229.383 74.0527C223.255 71.4784 214.437 69.4956 203.467 68.2554C181.568 65.7796 151.688 66.326 119.051 70.5313C86.4135 74.7366 57.3708 81.7826 36.8145 89.7288C26.5169 93.7094 18.4897 97.8628 13.2148 101.906C7.76641 106.083 6.02621 109.524 6.35043 112.041C6.67466 114.557 9.23046 117.445 15.5596 120.104C21.6872 122.678 30.505 124.661 41.4754 125.901C63.3745 128.377 93.2547 127.831 125.892 123.625C158.529 119.42 187.572 112.374 208.128 104.428C218.425 100.447 226.453 96.2939 231.728 92.2504C237.176 88.0739 238.916 84.6323 238.592 82.116Z" stroke="url(#paint0_linear_2230_6339)" stroke-width="5.23359"/>
<path d="M199.322 107.786L225.746 108.98L232.918 121.072L199.322 107.786Z" fill="#060606" stroke="#060606" stroke-width="1.33682" stroke-linecap="round" stroke-linejoin="round"/>
<path d="M237.372 85.1936L225.753 108.969L232.925 121.061L237.372 85.1936Z" fill="#B0F127" stroke="#060606" stroke-width="1.33682" stroke-linecap="round" stroke-linejoin="round"/>
<path d="M199.317 107.782L212.374 86.4359L237.361 85.2001L225.742 108.976L199.317 107.782Z" fill="#060606" stroke="#060606" stroke-width="1.33682" stroke-linecap="round" stroke-linejoin="round"/>
<path d="M200.444 66.304L222.747 103.907L234.289 80.0033L200.444 66.304Z" fill="#B0F127" stroke="#060606" stroke-width="1.33682" stroke-linecap="round" stroke-linejoin="round"/>
<path d="M200.437 66.3003L222.74 103.904L196.239 102.581L200.437 66.3003Z" fill="#547907" stroke="#060606" stroke-width="1.33682" stroke-linecap="round" stroke-linejoin="round"/>
<defs>
<linearGradient id="paint0_linear_2230_6339" x1="126.226" y1="126.221" x2="118.716" y2="67.936" gradientUnits="userSpaceOnUse">
<stop stop-color="#B0F127"/>
<stop offset="1" stop-color="#B0F127" stop-opacity="0"/>
</linearGradient>
</defs>
</svg>
