<svg width="16" height="16" viewBox="0 0 16 17" fill="none" xmlns="http://www.w3.org/2000/svg">
<g id="single/cutover">
<path id="Vector" d="M14.0687 7.13859C14.373 7.13859 14.6473 6.95531 14.7639 6.67406C14.8805 6.39312 14.8159 6.06937 14.6009 5.85406L11.1558 2.40922C11.0417 2.29515 10.857 2.29515 10.743 2.40922L10.0916 3.06062C9.97749 3.17469 9.97749 3.35953 10.0916 3.47344L12.2522 5.6339H1.34874C1.18952 5.6339 1.0603 5.76297 1.0603 5.92234V6.85031C1.0603 7.00953 1.18937 7.13875 1.34874 7.13875H14.0687V7.13859ZM14.6508 9.855H1.93437C1.63015 9.855 1.35577 10.0383 1.23921 10.3195C1.12265 10.6005 1.18718 10.9242 1.40218 11.1395L4.84733 14.5845C4.9614 14.6986 5.14608 14.6986 5.26015 14.5845L5.91155 13.9331C6.02561 13.8191 6.02561 13.6342 5.91155 13.5203L3.75093 11.3597H14.6508C14.812 11.3597 14.9426 11.2289 14.9426 11.0678V10.147C14.9426 9.98578 14.812 9.855 14.6508 9.855Z" fill="#ea4b64"/>
</g>
</svg>
