<svg width="48" height="48" viewBox="0 0 48 48" fill="none" xmlns="http://www.w3.org/2000/svg">
<g id="Bitunix logo new">
<path id="Subtract" fill-rule="evenodd" clip-rule="evenodd" d="M37.4529 34.722C39.7718 33.12 41.4662 30.6466 42.0355 27.7144L45.9846 7.37542C46.101 6.77585 45.6418 6.21887 45.031 6.21887L23.0664 6.21887C20.5131 6.21887 18.1322 7.08977 16.2363 8.5738L23.7288 8.5738C33.4818 8.5738 40.816 17.4661 38.9601 27.0409L37.5834 34.1435C37.5456 34.3388 37.502 34.5316 37.4529 34.722Z" fill="#ea4b64"/>
<path id="Rectangle 26" d="M4.8516 20.5917C5.85131 15.435 10.3667 11.7109 15.6194 11.7109L23.6946 11.7109C31.4449 11.7109 37.2731 18.7775 35.798 26.3861L34.2898 34.1657C33.4101 38.7033 29.4369 41.9803 24.8148 41.9803L1.8753 41.9803C1.26857 41.9803 0.812324 41.4271 0.927798 40.8314L4.8516 20.5917Z" fill="#ea4b64"/>
</g>
</svg>
