<svg width="48" height="48" viewBox="0 0 48 48" fill="none" xmlns="http://www.w3.org/2000/svg">
<path fill-rule="evenodd" clip-rule="evenodd" d="M38.1558 34.8372C40.5191 33.2046 42.2459 30.6838 42.8261 27.6955L46.8508 6.96725C46.9694 6.35621 46.5014 5.78858 45.8789 5.78858L23.4939 5.78857C20.8918 5.78857 18.4653 6.67614 16.5332 8.18856L24.169 8.18856C34.1086 8.18856 41.5832 17.2511 39.6918 27.0091L38.2888 34.2477C38.2502 34.4466 38.2058 34.6432 38.1558 34.8372Z" fill="#121212"/>
<path d="M4.93096 20.436C5.9498 15.1806 10.5516 11.3853 15.9048 11.3853L24.1345 11.3853C32.0332 11.3853 37.9729 18.587 36.4696 26.3413L34.9325 34.2698C34.036 38.8942 29.9867 42.2339 25.2762 42.2339L1.89769 42.2339C1.27936 42.2339 0.814376 41.6701 0.93206 41.063L4.93096 20.436Z" fill="#121212"/>
</svg>
