<svg width="81" height="90" viewBox="0 0 81 90" fill="none" xmlns="http://www.w3.org/2000/svg">
<path d="M60.9677 8V10.6855C60.9677 11.2378 60.52 11.6855 59.9677 11.6855H23.1962C22.9799 11.6855 22.7693 11.7557 22.5962 11.8855L17.1661 15.9581C16.9143 16.1469 16.7661 16.4433 16.7661 16.7581V80.2903C16.7661 80.8426 16.3184 81.2903 15.7661 81.2903H8C3.58172 81.2903 0 77.7086 0 73.2903V8C0 3.58172 3.58172 0 8 0H52.9677C57.386 0 60.9677 3.58172 60.9677 8Z" fill="#49505F"/>
<path fill-rule="evenodd" clip-rule="evenodd" d="M71.4019 13.05H23.8819C21.4961 13.05 19.5619 14.8632 19.5619 17.1V81.9C19.5619 84.1368 21.4961 85.95 23.8819 85.95H71.4019C73.7878 85.95 75.7219 84.1368 75.7219 81.9V17.1C75.7219 14.8632 73.7878 13.05 71.4019 13.05ZM23.8819 9C19.1102 9 15.2419 12.6265 15.2419 17.1V81.9C15.2419 86.3735 19.1102 90 23.8819 90H71.4019C76.1737 90 80.0419 86.3735 80.0419 81.9V17.1C80.0419 12.6265 76.1737 9 71.4019 9H23.8819Z" fill="#49505F"/>
<rect x="25.3125" y="18.7983" width="30.2121" height="4.03548" rx="2" fill="#49505F"/>
<rect x="25.3125" y="28.8871" width="45.3182" height="4.03548" rx="2" fill="#49505F"/>
<rect x="25.3125" y="38.9756" width="20.1414" height="4.03548" rx="2" fill="#49505F"/>
<path fill-rule="evenodd" clip-rule="evenodd" d="M48.0706 63.2054C53.3691 66.2699 60.1441 64.4513 63.2032 59.1434C66.2622 53.8355 64.4468 47.0484 59.1484 43.9838C53.85 40.9193 47.0749 42.738 44.0159 48.0458C40.9568 53.3537 42.7722 60.1409 48.0706 63.2054ZM46.0565 66.7003C53.2816 70.8791 62.5203 68.3992 66.6918 61.1612C70.8632 53.9231 68.3877 44.6679 61.1626 40.489C53.9374 36.3101 44.6987 38.7901 40.5273 46.0281C36.3559 53.2661 38.8314 62.5214 46.0565 66.7003Z" fill="#49505F"/>
<rect width="2.01504" height="6.05053" transform="matrix(0.865638 0.50067 -0.49933 0.866412 45.6882 65.3221)" fill="#49505F"/>
<rect width="6.04513" height="20.1684" rx="3.02256" transform="matrix(0.865638 0.50067 -0.49933 0.866412 41.4255 68.6818)" fill="#49505F"/>
</svg>
