<svg width="24" height="24" viewBox="0 0 24 24" fill="none" xmlns="http://www.w3.org/2000/svg">
<path d="M12 24C15.3137 24 18.3137 22.6568 20.4853 20.4853C22.6568 18.3137 24 15.3137 24 12C24 8.68632 22.6568 5.68632 20.4853 3.51472C18.3137 1.34315 15.3137 0 12 0C8.68632 0 5.68632 1.34315 3.51472 3.51472C1.34315 5.68632 0 8.68632 0 12C0 15.3137 1.34315 18.3137 3.51472 20.4853C5.68632 22.6568 8.68632 24 12 24Z" fill="#E39D35"/>
<path fill-rule="evenodd" clip-rule="evenodd" d="M12 19.7996C12.8284 19.7996 13.5 19.128 13.5 18.2996C13.5 17.4711 12.8284 16.7996 12 16.7996C11.1716 16.7996 10.5 17.4711 10.5 18.2996C10.5 19.128 11.1716 19.7996 12 19.7996Z" fill="#2A1800"/>
<path d="M12 4.79956V14.3996" stroke="#2A1800" stroke-width="3" stroke-linecap="round" stroke-linejoin="round"/>
</svg>
