<svg width="36" height="36" viewBox="0 0 36 36" fill="none" xmlns="http://www.w3.org/2000/svg">
<g clip-path="url(#clip0_458_1920)">
<path fill-rule="evenodd" clip-rule="evenodd" d="M24.7908 9.91964C22.9908 8.47964 20.7003 7.60064 18.1653 7.60064C13.4433 7.60064 9.46525 10.5841 8.07025 14.7331L2.01025 10.2031C4.93825 4.38314 11.0523 0.400635 18.1653 0.400635C22.7463 0.400635 26.8368 2.08064 30.0273 4.80014L24.7908 9.91964ZM8.06657 14.7331C7.72157 15.7606 7.52657 16.8571 7.52657 18.0001C7.52722 19.1064 7.70757 20.2052 8.06057 21.2536L2.00657 25.7911C0.827569 23.4451 0.164569 20.8021 0.164569 18.0001C0.160655 15.2925 0.792618 12.6218 2.00957 10.2031L8.06657 14.7331ZM18.1646 28.3996C13.4414 28.3993 9.46369 25.4159 8.06725 21.2671L2.01025 25.7971C4.93675 31.6171 11.0508 35.5996 18.1653 35.5996C22.5543 35.5996 26.7453 34.0741 29.8923 31.2136L29.8915 31.213C33.1954 28.21 35.3445 23.7373 35.3445 18.0004C35.3445 16.9609 35.1795 15.8404 34.935 14.8009H18.162V21.6004H27.816C27.3346 23.9193 26.0207 25.7012 24.1414 26.8607L24.1413 26.8606C22.5199 27.861 20.4772 28.3995 18.1646 28.3996ZM18.1646 28.3996C18.1643 28.3996 18.164 28.3996 18.1638 28.3996H18.1653C18.165 28.3996 18.1648 28.3996 18.1646 28.3996Z" fill="#999999"/>
</g>
<defs>
<clipPath id="clip0_458_1920">
<rect width="36" height="36" fill="white"/>
</clipPath>
</defs>
</svg>
