<svg width="36" height="36" viewBox="0 0 36 36" fill="none" xmlns="http://www.w3.org/2000/svg">
<path fill-rule="evenodd" clip-rule="evenodd" d="M3 18C3 17.1716 3.67157 16.5 4.5 16.5H31.5C32.3284 16.5 33 17.1716 33 18C33 18.8284 32.3284 19.5 31.5 19.5H4.5C3.67157 19.5 3 18.8284 3 18Z" fill="#F5F5F5"/>
<path fill-rule="evenodd" clip-rule="evenodd" d="M3 9C3 8.17157 3.67157 7.5 4.5 7.5H31.5C32.3284 7.5 33 8.17157 33 9C33 9.82843 32.3284 10.5 31.5 10.5H4.5C3.67157 10.5 3 9.82843 3 9Z" fill="#F5F5F5"/>
<path fill-rule="evenodd" clip-rule="evenodd" d="M3 27C3 26.1716 3.67157 25.5 4.5 25.5H31.5C32.3284 25.5 33 26.1716 33 27C33 27.8284 32.3284 28.5 31.5 28.5H4.5C3.67157 28.5 3 27.8284 3 27Z" fill="#F5F5F5"/>
</svg>
