<svg width="36" height="36" viewBox="0 0 36 36" fill="none" xmlns="http://www.w3.org/2000/svg">
<path d="M18 36C8.0586 36 0 27.9414 0 18C0 8.0586 8.0586 0 18 0C27.9414 0 36 8.0586 36 18C36 27.9414 27.9414 36 18 36ZM13.878 31.8006C12.1021 28.0338 11.0734 23.9584 10.8486 19.8H3.7116C4.06185 22.57 5.20906 25.1787 7.01382 27.3091C8.81859 29.4394 11.2032 30.9998 13.878 31.8006ZM14.454 19.8C14.7258 24.1902 15.9804 28.314 18 31.9536C20.0742 28.2178 21.2858 24.0651 21.546 19.8H14.454ZM32.2884 19.8H25.1514C24.9266 23.9584 23.8979 28.0338 22.122 31.8006C24.7968 30.9998 27.1814 29.4394 28.9862 27.3091C30.7909 25.1787 31.9381 22.57 32.2884 19.8ZM3.7116 16.2H10.8486C11.0734 12.0416 12.1021 7.96623 13.878 4.1994C11.2032 5.00018 8.81859 6.56055 7.01382 8.69093C5.20906 10.8213 4.06185 13.43 3.7116 16.2ZM14.4558 16.2H21.5442C21.2846 11.9351 20.0735 7.78236 18 4.0464C15.9258 7.78221 14.7142 11.9349 14.454 16.2H14.4558ZM22.122 4.1994C23.8979 7.96623 24.9266 12.0416 25.1514 16.2H32.2884C31.9381 13.43 30.7909 10.8213 28.9862 8.69093C27.1814 6.56055 24.7968 5.00018 22.122 4.1994Z" fill="#F5F5F5"/>
</svg>
