<svg width="36" height="37" viewBox="0 0 36 37" fill="none" xmlns="http://www.w3.org/2000/svg">
<path d="M18 36.5C8.0586 36.5 0 28.4414 0 18.5C0 8.5586 8.0586 0.5 18 0.5C27.9414 0.5 36 8.5586 36 18.5C36 28.4414 27.9414 36.5 18 36.5ZM13.878 32.3006C12.1021 28.5338 11.0734 24.4584 10.8486 20.3H3.7116C4.06185 23.07 5.20906 25.6787 7.01382 27.8091C8.81859 29.9394 11.2032 31.4998 13.878 32.3006ZM14.454 20.3C14.7258 24.6902 15.9804 28.814 18 32.4536C20.0742 28.7178 21.2858 24.5651 21.546 20.3H14.454ZM32.2884 20.3H25.1514C24.9266 24.4584 23.8979 28.5338 22.122 32.3006C24.7968 31.4998 27.1814 29.9394 28.9862 27.8091C30.7909 25.6787 31.9381 23.07 32.2884 20.3ZM3.7116 16.7H10.8486C11.0734 12.5416 12.1021 8.46623 13.878 4.6994C11.2032 5.50018 8.81859 7.06055 7.01382 9.19093C5.20906 11.3213 4.06185 13.93 3.7116 16.7ZM14.4558 16.7H21.5442C21.2846 12.4351 20.0735 8.28236 18 4.5464C15.9258 8.28221 14.7142 12.4349 14.454 16.7H14.4558ZM22.122 4.6994C23.8979 8.46623 24.9266 12.5416 25.1514 16.7H32.2884C31.9381 13.93 30.7909 11.3213 28.9862 9.19093C27.1814 7.06055 24.7968 5.50018 22.122 4.6994Z" fill="#F5F5F5"/>
</svg>
