<svg width="64" height="64" viewBox="0 0 64 64" fill="none" xmlns="http://www.w3.org/2000/svg">
<rect width="64" height="64" rx="32" fill="#ea4b64"/>
<path fill-rule="evenodd" clip-rule="evenodd" d="M38.5778 19.2H25.7778C23.1269 19.2 20.9778 21.349 20.9778 24V40C20.9778 42.651 23.1269 44.8 25.7778 44.8H38.5778C41.2288 44.8 43.3778 42.651 43.3778 40V24C43.3778 21.349 41.2288 19.2 38.5778 19.2ZM25.7778 16C21.3596 16 17.7778 19.5817 17.7778 24V40C17.7778 44.4183 21.3596 48 25.7778 48H38.5778C42.9961 48 46.5778 44.4183 46.5778 40V24C46.5778 19.5817 42.9961 16 38.5778 16H25.7778Z" fill="#131F00"/>
<path fill-rule="evenodd" clip-rule="evenodd" d="M24.8887 40.0004C24.8887 39.1167 25.605 38.4004 26.4887 38.4004H37.2887C38.1723 38.4004 38.8887 39.1167 38.8887 40.0004C38.8887 40.884 38.1723 41.6004 37.2887 41.6004H26.4887C25.605 41.6004 24.8887 40.884 24.8887 40.0004Z" fill="#131F00"/>
<path fill-rule="evenodd" clip-rule="evenodd" d="M31.6621 21.7598C32.4573 21.7598 33.1021 22.4045 33.1021 23.1998L33.1021 31.8398C33.1021 32.6351 32.4574 33.2798 31.6621 33.2798C30.8668 33.2798 30.2221 32.6351 30.2221 31.8398L30.2221 23.1998C30.2221 22.4045 30.8668 21.7598 31.6621 21.7598Z" fill="#131F00"/>
<path fill-rule="evenodd" clip-rule="evenodd" d="M26.9821 30.2204C27.4789 29.5994 28.3851 29.4987 29.0061 29.9955L31.7066 32.1559L34.407 29.9955C35.028 29.4987 35.9342 29.5994 36.431 30.2204C36.9278 30.8414 36.8271 31.7476 36.2061 32.2444L32.6061 35.1244C32.0802 35.5451 31.3329 35.5451 30.807 35.1244L27.207 32.2444C26.586 31.7476 26.4853 30.8414 26.9821 30.2204Z" fill="#131F00"/>
</svg>
