<svg width="46" height="46" viewBox="0 0 46 46" fill="none" xmlns="http://www.w3.org/2000/svg">
<path fill-rule="evenodd" clip-rule="evenodd" d="M36.5673 33.3853C38.8321 31.8207 40.487 29.405 41.043 26.5412L44.9 6.67662C45.0137 6.09104 44.5651 5.54706 43.9686 5.54706L22.5163 5.54705C20.0226 5.54705 17.6973 6.39764 15.8456 7.84705L23.1632 7.84705C32.6888 7.84705 39.8519 16.532 38.0393 25.8834L36.6947 32.8203C36.6578 33.011 36.6152 33.1994 36.5673 33.3853Z" fill="#ea4b64"/>
<path d="M4.72656 19.5845C5.70295 14.5481 10.113 10.9109 15.2432 10.911L23.13 10.911C30.6995 10.911 36.3917 17.8126 34.9511 25.2438L33.4781 32.8419C32.6189 37.2737 28.7383 40.4742 24.2241 40.4742L1.81968 40.4742C1.22711 40.4742 0.781502 39.9339 0.894282 39.3522L4.72656 19.5845Z" fill="#ea4b64"/>
</svg>
