<svg width="23" height="23" viewBox="0 0 23 23" fill="none" xmlns="http://www.w3.org/2000/svg">
<path d="M22.2315 3.032C22.7522 2.5113 22.7522 1.66708 22.2315 1.14638C21.7108 0.625685 20.8666 0.625685 20.3459 1.14638L11.6889 9.8034L3.03186 1.14639C2.51116 0.625686 1.66694 0.625686 1.14624 1.14639C0.625544 1.66708 0.625544 2.5113 1.14624 3.032L9.80326 11.689L1.1459 20.3464C0.625196 20.8671 0.625196 21.7113 1.1459 22.232C1.66659 22.7527 2.51081 22.7527 3.03151 22.232L11.6889 13.5746L20.3462 22.232C20.8669 22.7527 21.7112 22.7527 22.2319 22.232C22.7526 21.7113 22.7526 20.8671 22.2319 20.3464L13.5745 11.689L22.2315 3.032Z" fill="#999999"/>
</svg>
