<svg width="201" height="47" viewBox="0 0 201 47" fill="none" xmlns="http://www.w3.org/2000/svg">
<path fill-rule="evenodd" clip-rule="evenodd" d="M36.2751 33.8187C38.5211 32.2671 40.1622 29.8714 40.7137 27.0314L44.5385 7.33208C44.6513 6.75137 44.2065 6.21192 43.6149 6.21192L22.3411 6.21191C19.8681 6.21191 17.5621 7.05542 15.7258 8.49278L22.9826 8.49278C32.4288 8.49278 39.5324 17.1054 37.7349 26.3791L36.4015 33.2583C36.3648 33.4474 36.3227 33.6342 36.2751 33.8187Z" fill="#ea4b64"/>
<path d="M4.69898 20.1327C5.66725 15.1382 10.0406 11.5313 15.1281 11.5313L22.9493 11.5313C30.4559 11.5313 36.1008 18.3755 34.6721 25.7449L33.2113 33.2798C32.3593 37.6747 28.511 40.8486 24.0343 40.8486L1.81628 40.8486C1.22863 40.8486 0.786734 40.3128 0.898576 39.7359L4.69898 20.1327Z" fill="#ea4b64"/>
<path d="M47.1965 40.9731L53.3547 9.90356H68.2222C71.5652 9.90356 74.1165 10.5063 75.8759 11.7119C77.6647 12.9174 78.5591 14.6669 78.5591 16.9604C78.5591 18.901 78.0459 20.5329 77.0196 21.8561C76.0225 23.1792 74.6883 24.179 73.0168 24.8552C71.3453 25.5315 69.5272 25.8697 67.5624 25.8697L68.7061 24.1054C71.2866 24.1054 73.3394 24.7082 74.8642 25.9138C76.4184 27.0899 77.1955 28.7953 77.1955 31.03C77.1955 33.2058 76.5944 35.0288 75.3921 36.499C74.2191 37.9398 72.5916 39.2089 70.5095 39.9146C68.4275 40.6203 66.0375 40.9731 63.3397 40.9731H47.1965ZM55.3781 35.3964H63.7796C65.7443 35.3964 67.2838 35.0288 68.3982 34.2938C69.5418 33.5293 70.1137 32.4119 70.1137 30.9418C70.1137 29.795 69.6884 28.9864 68.838 28.516C68.017 28.0161 66.9026 27.7662 65.495 27.7662H56.0819L57.1376 22.5618H65.1431C66.3748 22.5618 67.4305 22.4 68.3102 22.0766C69.2193 21.7532 69.9084 21.268 70.3776 20.6211C70.8468 19.9449 71.0814 19.1363 71.0814 18.1953C71.0814 17.1662 70.6855 16.4311 69.8937 15.9901C69.102 15.5196 67.9876 15.2844 66.5507 15.2844H59.3369L55.3781 35.3964Z" fill="#F5F5F5"/>
<path d="M78.3926 40.9463L83.1388 17.0486H89.9568L85.2106 40.9463H78.3926ZM87.7134 13.7407C86.5111 13.7407 85.5434 13.4026 84.8103 12.7263C84.0772 12.0206 83.7107 11.1679 83.7107 10.1682C83.7107 8.99205 84.1212 8.02174 84.9423 7.25725C85.7927 6.46335 86.8924 6.06641 88.2413 6.06641C89.4436 6.06641 90.4113 6.40455 91.1444 7.08083C91.9069 7.7277 92.2881 8.5363 92.2881 9.50661C92.2881 10.771 91.8629 11.8001 91.0125 12.594C90.1914 13.3585 89.0917 13.7407 87.7134 13.7407Z" fill="#F5F5F5"/>
<path d="M99.2967 40.9463C97.5959 40.9463 96.1444 40.6081 94.9421 39.9318C93.7397 39.2261 92.8747 38.2264 92.3468 36.9327C91.8483 35.6095 91.775 34.0511 92.1269 32.2575L96.2149 11.8001H103.077L98.9888 32.2134C98.8129 33.2131 98.9155 34.007 99.2967 34.5951C99.678 35.1832 100.382 35.4772 101.408 35.4772C101.877 35.4772 102.347 35.4037 102.816 35.2567C103.314 35.1097 103.769 34.9038 104.179 34.6392L105.191 39.5349C104.341 40.0642 103.402 40.4317 102.376 40.6375C101.349 40.8433 100.323 40.9463 99.2967 40.9463ZM94.0141 22.8705L95.0698 17.5779H107.827L106.772 22.8705H94.0141Z" fill="#F5F5F5"/>
<path d="M116.944 40.8678C115.009 40.8678 113.337 40.4561 111.93 39.6328C110.522 38.7801 109.525 37.5452 108.939 35.928C108.352 34.3108 108.284 32.5737 108.753 30.192L111.348 17.0486H118.21L115.703 29.7509C115.351 31.4857 115.483 32.8236 116.099 33.7645C116.744 34.7054 117.873 35.1759 119.486 35.1759C121.186 35.1759 122.609 34.676 123.752 33.6763C124.925 32.6766 125.702 31.1476 126.084 29.0893L128.503 17.0486H135.365L130.604 40.8678H124.094L125.468 34.0732L126.435 36.1021C125.321 37.8369 123.938 38.8536 122.267 39.6769C120.595 40.4708 118.821 40.8678 116.944 40.8678Z" fill="#F5F5F5"/>
<path d="M153.531 16.6958C155.554 16.6958 157.27 17.1221 158.677 17.9748C160.085 18.7981 161.082 20.0184 161.668 21.6356C162.255 23.2527 162.314 25.2522 161.844 27.6339L159.164 40.8678H152.302L154.894 28.0749C155.246 26.3401 155.1 25.0023 154.455 24.0613C153.839 23.1204 152.695 22.65 151.024 22.65C149.293 22.65 147.842 23.1498 146.669 24.1496C145.525 25.1493 144.734 26.6783 144.294 28.7365L141.877 40.8678H135.015L139.763 17.0486H146.273L144.909 23.7526L143.942 21.7238C145.085 19.989 146.493 18.7246 148.164 17.9307C149.865 17.1074 151.654 16.6958 153.531 16.6958Z" fill="#F5F5F5"/>
<path d="M163.467 40.8678L168.217 17.0486H175.035L170.285 40.8678H163.467ZM172.792 13.7407C171.589 13.7407 170.621 13.4026 169.888 12.7263C169.155 12.0206 168.789 11.1679 168.789 10.1682C168.789 8.99205 169.199 8.02174 170.02 7.25725C170.871 6.46335 171.97 6.06641 173.319 6.06641C174.522 6.06641 175.489 6.40455 176.222 7.08083C176.985 7.7277 177.366 8.5363 177.366 9.50661C177.366 10.771 176.941 11.8001 176.091 12.594C175.269 13.3585 174.17 13.7407 172.792 13.7407Z" fill="#F5F5F5"/>
<path d="M170.285 40.8678L181.342 28.6608L182.272 28.7034L181.978 29.1931L181.342 28.6608L175.035 17.0486H182.11L187.036 26.1784L183.869 26.1343L192.447 17.0486H200.013L186.992 30.633L187.564 26.9723L195.211 40.8678H187.953L182.902 31.3387H186.113L178.115 40.8678H170.285Z" fill="#F5F5F5"/>
</svg>
