<svg width="24" height="14" viewBox="0 0 24 14" fill="none" xmlns="http://www.w3.org/2000/svg">
<path d="M23.5606 13.0606C23.8261 12.7952 23.9823 12.4398 23.9986 12.0648C24.0148 11.6897 23.8899 11.3222 23.6483 11.0348L23.5606 10.9396L13.0599 0.439405C12.7944 0.173939 12.4391 0.017653 12.064 0.00140719C11.6889 -0.0148396 11.3214 0.110135 11.034 0.351653L10.9387 0.439405L0.438049 10.9396C0.165226 11.2131 0.0084323 11.5813 0.000331812 11.9675C-0.00776868 12.3537 0.133448 12.7281 0.394564 13.0128C0.65568 13.2975 1.01656 13.4705 1.40205 13.4957C1.78754 13.521 2.16791 13.3965 2.46393 13.1483L2.55919 13.0606L11.9993 3.62245L21.4394 13.0606C21.7049 13.3261 22.0602 13.4823 22.4353 13.4986C22.8104 13.5148 23.1779 13.3899 23.4653 13.1483L23.5606 13.0606Z" fill="#999999"/>
</svg>
