<svg width="80" height="80" viewBox="0 0 80 80" fill="none" xmlns="http://www.w3.org/2000/svg">
<rect width="80" height="80" rx="17.931" fill="#111111"/>
<path fill-rule="evenodd" clip-rule="evenodd" d="M58.3318 54.037C61.3894 51.9248 63.6235 48.6635 64.3742 44.7973L69.581 17.98C69.7345 17.1895 69.129 16.4551 68.3237 16.4551L39.3629 16.4551C35.9964 16.4551 32.8572 17.6034 30.3574 19.5601L40.2363 19.5601C53.0958 19.5601 62.7661 31.2848 60.3191 43.9094L58.5039 53.2743C58.454 53.5317 58.3966 53.786 58.3318 54.037Z" fill="#ea4b64"/>
<path d="M15.3457 35.4047C16.6638 28.6055 22.6174 23.6953 29.5432 23.6953L40.1905 23.6953C50.4095 23.6953 58.094 33.0127 56.1491 43.0448L54.1605 53.3024C53.0006 59.2853 47.7618 63.606 41.6675 63.606L11.4214 63.606C10.6214 63.606 10.0198 62.8766 10.1721 62.0912L15.3457 35.4047Z" fill="#ea4b64"/>
</svg>
