<svg width="36" height="37" viewBox="0 0 36 37" fill="none" xmlns="http://www.w3.org/2000/svg">
<path fill-rule="evenodd" clip-rule="evenodd" d="M25.4 4.1H11C8.01766 4.1 5.6 6.51766 5.6 9.5V27.5C5.6 30.4823 8.01766 32.9 11 32.9H25.4C28.3823 32.9 30.8 30.4823 30.8 27.5V9.5C30.8 6.51766 28.3823 4.1 25.4 4.1ZM11 0.5C6.02944 0.5 2 4.52944 2 9.5V27.5C2 32.4706 6.02944 36.5 11 36.5H25.4C30.3706 36.5 34.4 32.4706 34.4 27.5V9.5C34.4 4.52944 30.3706 0.5 25.4 0.5H11Z" fill="#F5F5F5"/>
<path fill-rule="evenodd" clip-rule="evenodd" d="M10 27.5002C10 26.5061 10.8059 25.7002 11.8 25.7002H23.95C24.9441 25.7002 25.75 26.5061 25.75 27.5002C25.75 28.4943 24.9441 29.3002 23.95 29.3002H11.8C10.8059 29.3002 10 28.4943 10 27.5002Z" fill="#F5F5F5"/>
<path fill-rule="evenodd" clip-rule="evenodd" d="M17.62 6.97998C18.5147 6.97998 19.24 7.70528 19.24 8.59998L19.24 18.32C19.24 19.2147 18.5147 19.94 17.62 19.94C16.7253 19.94 16 19.2147 16 18.32L16 8.59998C16 7.70528 16.7253 6.97998 17.62 6.97998Z" fill="#F5F5F5"/>
<path fill-rule="evenodd" clip-rule="evenodd" d="M12.3551 16.4982C12.914 15.7995 13.9334 15.6863 14.6321 16.2452L17.6701 18.6756L20.7081 16.2452C21.4067 15.6863 22.4262 15.7995 22.9851 16.4982C23.544 17.1968 23.4307 18.2163 22.7321 18.7752L18.6821 22.0152C18.0904 22.4885 17.2497 22.4885 16.6581 22.0152L12.6081 18.7752C11.9094 18.2163 11.7961 17.1968 12.3551 16.4982Z" fill="#F5F5F5"/>
</svg>
