<svg width="36" height="37" viewBox="0 0 36 37" fill="none" xmlns="http://www.w3.org/2000/svg">
<path fill-rule="evenodd" clip-rule="evenodd" d="M14.9975 18.7119L18.5102 22.1182L22.0228 18.7119L18.5102 15.3056L14.9975 18.7119ZM11.967 21.3424C10.4689 19.8896 10.4689 17.5342 11.967 16.0814L15.7975 12.3669C17.2957 10.9141 19.7246 10.9141 21.2228 12.3669L25.0533 16.0814C26.5514 17.5342 26.5514 19.8896 25.0533 21.3424L21.2228 25.0569C19.7246 26.5097 17.2957 26.5097 15.7975 25.0569L11.967 21.3424Z" fill="#F5F5F5"/>
<path fill-rule="evenodd" clip-rule="evenodd" d="M2.19598 11.0105C5.15341 4.83175 11.2105 0.5 18.4378 0.5C25.6476 0.5 31.8385 4.8149 34.804 11.0105C35.2809 12.0068 34.8598 13.2011 33.8634 13.678C32.8671 14.1549 31.6729 13.7338 31.196 12.7375C28.8429 7.82134 23.9898 4.5 18.4378 4.5C12.9032 4.5 8.16512 7.80448 5.80397 12.7375C5.32709 13.7338 4.13282 14.1549 3.1365 13.678C2.14018 13.2011 1.71909 12.0068 2.19598 11.0105Z" fill="#F5F5F5"/>
<path fill-rule="evenodd" clip-rule="evenodd" d="M4 2.84375C5.10457 2.84375 6 3.73918 6 4.84375V11.8742C6 12.9788 5.10457 13.8742 4 13.8742C2.89543 13.8742 2 12.9788 2 11.8742V4.84375C2 3.73918 2.89543 2.84375 4 2.84375Z" fill="#F5F5F5"/>
<path fill-rule="evenodd" clip-rule="evenodd" d="M2 11.874C2 10.7695 2.89543 9.87402 4 9.87402H10.4444C11.549 9.87402 12.4444 10.7695 12.4444 11.874C12.4444 12.9786 11.549 13.874 10.4444 13.874H4C2.89543 13.874 2 12.9786 2 11.874Z" fill="#F5F5F5"/>
<path fill-rule="evenodd" clip-rule="evenodd" d="M3.07421 24.1616C4.05333 23.6504 5.26153 24.0296 5.77279 25.0088C8.08322 29.4336 12.9173 32.5273 18.5622 32.5273C24.1898 32.5273 28.9086 29.4488 31.2271 25.0088C31.7383 24.0296 32.9465 23.6504 33.9256 24.1616C34.9048 24.6729 35.284 25.8811 34.7728 26.8602C31.7726 32.6059 25.6964 36.5273 18.5622 36.5273C11.4451 36.5273 5.2352 32.6212 2.22706 26.8602C1.7158 25.8811 2.09508 24.6729 3.07421 24.1616Z" fill="#F5F5F5"/>
<path fill-rule="evenodd" clip-rule="evenodd" d="M33 23.9346C34.1046 23.9346 35 24.83 35 25.9346V32.9651C35 34.0696 34.1046 34.9651 33 34.9651C31.8954 34.9651 31 34.0696 31 32.9651V25.9346C31 24.83 31.8954 23.9346 33 23.9346Z" fill="#F5F5F5"/>
<path fill-rule="evenodd" clip-rule="evenodd" d="M24.5557 25.9346C24.5557 24.83 25.4511 23.9346 26.5557 23.9346H33.0001C34.1047 23.9346 35.0001 24.83 35.0001 25.9346C35.0001 27.0391 34.1047 27.9346 33.0001 27.9346H26.5557C25.4511 27.9346 24.5557 27.0391 24.5557 25.9346Z" fill="#F5F5F5"/>
</svg>
