<svg width="33" height="33" viewBox="0 0 33 33" fill="none" xmlns="http://www.w3.org/2000/svg">
<path d="M32.347 3.54751C33.1281 2.76647 33.1281 1.50014 32.347 0.719087C31.566 -0.0619614 30.2996 -0.0619614 29.5186 0.719087L16.5331 13.7046L3.54755 0.719089C2.7665 -0.0619593 1.50017 -0.0619593 0.71912 0.719089C-0.0619287 1.50014 -0.0619287 2.76647 0.71912 3.54752L13.7046 16.533L0.718599 29.5191C-0.0624497 30.3001 -0.0624497 31.5665 0.718599 32.3475C1.49965 33.1286 2.76598 33.1286 3.54703 32.3475L16.5331 19.3615L29.5191 32.3475C30.3002 33.1286 31.5665 33.1286 32.3475 32.3475C33.1286 31.5665 33.1286 30.3001 32.3475 29.5191L19.3615 16.533L32.347 3.54751Z" fill="#F5F5F5"/>
</svg>
