<svg width="750" height="556" viewBox="0 0 750 556" fill="none" xmlns="http://www.w3.org/2000/svg">
<path d="M380.508 541.917C546.803 541.917 681.612 524.097 681.612 502.115C681.612 480.133 546.803 462.313 380.508 462.313C214.213 462.313 79.4043 480.133 79.4043 502.115C79.4043 524.097 214.213 541.917 380.508 541.917Z" fill="black" stroke="black" stroke-miterlimit="10"/>
<path d="M529.836 470.885C529.591 470.885 529.468 470.885 529.224 470.763L319.92 358.093C319.43 357.848 319.185 357.359 319.308 356.869C319.308 356.379 319.675 356.011 320.164 355.766L365.452 343.52C365.575 343.52 365.697 343.52 365.82 343.52C366.064 343.52 366.187 343.52 366.432 343.642L572.064 456.312C572.553 456.557 572.798 457.047 572.676 457.537C572.553 458.026 572.308 458.394 571.819 458.639L530.203 470.885C530.08 470.885 529.958 470.885 529.836 470.885Z" fill="#D6FF8A"/>
<path d="M365.82 344.745L571.452 457.414L529.836 469.661L320.532 356.991L365.82 344.745ZM365.82 342.295C365.575 342.295 365.33 342.295 365.208 342.418L319.92 354.664C318.941 354.909 318.206 355.767 318.084 356.746C317.962 357.726 318.451 358.706 319.308 359.196L528.612 471.865C528.979 472.11 529.346 472.11 529.714 472.11C529.958 472.11 530.203 472.11 530.448 471.988L572.064 459.741C573.043 459.496 573.655 458.639 573.778 457.659C573.9 456.679 573.41 455.7 572.554 455.21L366.922 342.54C366.677 342.418 366.187 342.295 365.82 342.295Z" fill="black"/>
<path d="M529.835 514.974C529.591 514.974 529.346 514.851 529.101 514.729C528.856 514.484 528.611 514.116 528.611 513.749V469.661C528.611 469.171 528.979 468.681 529.468 468.436L571.084 456.189C571.207 456.189 571.329 456.189 571.451 456.189C571.696 456.189 571.941 456.312 572.186 456.434C572.553 456.679 572.675 457.047 572.675 457.414V502.727C572.675 503.339 572.308 503.829 571.819 503.952L530.203 514.974C530.08 514.974 529.958 514.974 529.835 514.974Z" fill="#547907"/>
<path d="M571.452 457.414V502.727L529.836 513.749V469.661L571.452 457.414ZM571.452 454.965C571.207 454.965 570.962 454.965 570.717 455.087L529.101 467.334C528 467.701 527.388 468.559 527.388 469.661V513.749C527.388 514.484 527.755 515.219 528.367 515.708C528.856 516.076 529.346 516.198 529.836 516.198C530.08 516.198 530.203 516.198 530.448 516.076L572.064 505.054C573.165 504.809 573.9 503.829 573.9 502.727V457.414C573.9 456.679 573.533 455.945 572.921 455.455C572.431 455.087 571.941 454.965 571.452 454.965Z" fill="black"/>
<path d="M529.836 514.973C529.591 514.973 529.468 514.973 529.224 514.851L319.92 404.631C319.552 404.386 319.308 404.018 319.308 403.528V356.991C319.308 356.501 319.552 356.134 319.92 355.889C320.164 355.766 320.287 355.766 320.532 355.766C320.776 355.766 320.899 355.766 321.144 355.889L530.448 468.558C530.815 468.803 531.06 469.171 531.06 469.661V513.749C531.06 514.239 530.815 514.606 530.448 514.851C530.325 514.973 530.08 514.973 529.836 514.973Z" fill="#B0F127"/>
<path d="M320.532 356.991L529.836 469.661V513.749L320.532 403.529V356.991ZM320.532 354.542C320.042 354.542 319.675 354.664 319.308 354.909C318.574 355.399 318.084 356.134 318.084 356.991V403.529C318.084 404.386 318.574 405.243 319.43 405.733L528.734 515.953C529.102 516.198 529.469 516.198 529.836 516.198C530.326 516.198 530.693 516.076 531.06 515.831C531.794 515.341 532.284 514.606 532.284 513.749V469.661C532.284 468.803 531.794 467.946 530.938 467.456L321.634 354.787C321.389 354.664 320.899 354.542 320.532 354.542Z" fill="black"/>
<path d="M580.021 81.4404C579.898 81.4404 579.776 81.4404 579.531 81.3179L535.467 64.1726C534.978 63.9276 534.61 63.4378 534.733 62.9479C534.733 62.458 535.1 61.9682 535.712 61.8457L577.328 52.0483C577.45 52.0483 577.573 52.0483 577.573 52.0483C577.695 52.0483 577.818 52.0483 578.062 52.1708L623.35 69.3162C623.84 69.5611 624.207 70.051 624.085 70.5408C623.962 71.0307 623.718 71.5206 623.106 71.6431L580.266 81.4404C580.143 81.4404 580.143 81.4404 580.021 81.4404Z" fill="#D6FF8A"/>
<path d="M577.572 53.2731L622.86 70.4184L580.02 80.2158L535.956 63.0704L577.572 53.2731ZM577.572 50.8237C577.328 50.8237 577.205 50.8237 576.96 50.9462L535.344 60.7436C534.243 60.9885 533.508 61.8458 533.508 62.948C533.386 64.0502 534.12 65.0299 535.1 65.3973L579.164 82.5427C579.408 82.6651 579.776 82.6651 580.02 82.6651C580.143 82.6651 580.388 82.6651 580.51 82.5427L623.35 72.7453C624.452 72.5004 625.186 71.6431 625.186 70.5409C625.308 69.4387 624.574 68.459 623.595 68.0916L578.307 50.9462C578.184 50.8237 577.817 50.8237 577.572 50.8237Z" fill="black"/>
<path d="M544.524 298.207C544.279 298.207 544.034 298.085 543.912 297.962C543.545 297.717 543.3 297.227 543.422 296.737L578.918 79.9709C579.041 79.4811 579.408 79.1137 579.898 78.9912L622.738 69.1938C622.86 69.1938 622.86 69.1938 622.982 69.1938C623.35 69.1938 623.594 69.3163 623.839 69.5612C624.084 69.8062 624.329 70.2961 624.206 70.6635L592.872 265.631C592.872 265.998 592.627 266.243 592.382 266.488L545.381 298.085C545.014 298.085 544.769 298.207 544.524 298.207Z" fill="#D6FF8A"/>
<path d="M622.86 70.4186L591.525 265.386L544.524 296.982L580.02 80.2159L622.86 70.4186ZM622.86 67.9692C622.615 67.9692 622.37 67.9692 622.248 68.0917L579.408 77.8891C578.428 78.134 577.694 78.8688 577.572 79.8485L542.076 296.615C541.953 297.595 542.321 298.575 543.177 299.064C543.545 299.309 544.034 299.432 544.524 299.432C545.013 299.432 545.503 299.309 545.87 299.064L592.872 267.468C593.484 267.101 593.851 266.488 593.973 265.876L625.308 71.0309C625.308 70.9084 625.308 70.6635 625.308 70.541C625.308 69.0714 624.206 67.9692 622.86 67.9692Z" fill="black"/>
<path d="M641.22 298.207C640.731 298.207 640.364 297.962 640.119 297.595L614.415 249.833C614.292 249.465 614.17 249.098 614.415 248.73C614.537 248.363 614.904 248.118 615.272 247.996L656.888 238.198C657.01 238.198 657.132 238.198 657.132 238.198C657.622 238.198 657.989 238.443 658.234 238.811L683.938 287.797C684.06 288.165 684.183 288.532 683.938 288.9C683.816 289.267 683.448 289.512 683.081 289.634L641.465 298.207C641.343 298.207 641.343 298.207 641.22 298.207Z" fill="#D6FF8A"/>
<path d="M657.132 239.423L682.836 288.41L641.22 296.982L615.516 249.22L657.132 239.423ZM657.132 236.974C656.887 236.974 656.765 236.974 656.52 237.096L614.904 246.893C614.17 247.016 613.558 247.628 613.19 248.241C612.823 248.975 612.946 249.71 613.313 250.445L639.017 298.207C639.506 299.064 640.241 299.554 641.22 299.554C641.342 299.554 641.587 299.554 641.71 299.554L683.326 290.982C684.06 290.859 684.672 290.369 685.039 289.634C685.406 288.9 685.406 288.165 685.039 287.43L659.335 238.443C658.846 237.463 657.989 236.974 657.132 236.974Z" fill="black"/>
<path d="M500.459 281.062C499.97 281.062 499.603 280.817 499.358 280.449L451.622 188.599C451.499 188.232 451.377 187.864 451.622 187.497C451.867 187.13 452.111 186.885 452.479 186.885L494.095 178.312C494.217 178.312 494.217 178.312 494.339 178.312C494.829 178.312 495.196 178.557 495.441 178.924L512.822 210.276C512.944 210.521 512.944 210.766 512.944 211.011L501.683 280.082C501.561 280.572 501.194 281.062 500.704 281.062C500.582 281.062 500.582 281.062 500.459 281.062Z" fill="#D6FF8A"/>
<path d="M494.34 179.414L511.721 210.766L500.46 279.837L452.724 187.987L494.34 179.414ZM494.34 176.965C494.217 176.965 493.973 176.965 493.85 176.965L452.234 185.538C451.5 185.66 450.888 186.15 450.521 186.885C450.153 187.619 450.153 188.354 450.521 189.089L498.257 280.939C498.624 281.797 499.48 282.286 500.46 282.286C500.582 282.286 500.704 282.286 500.827 282.286C501.928 282.164 502.663 281.307 502.908 280.204L514.169 211.133C514.291 210.643 514.168 210.031 513.924 209.541L496.543 178.19C496.053 177.455 495.196 176.965 494.34 176.965Z" fill="black"/>
<path d="M504.132 390.67C503.887 390.67 503.642 390.547 503.52 390.302C503.397 390.057 503.52 389.69 503.765 389.567L642.689 297.105C642.811 297.105 642.811 296.982 642.933 296.982L682.713 287.797H682.836C683.08 287.797 683.325 287.92 683.448 288.165C683.57 288.41 683.448 288.777 683.203 288.9L549.787 384.424C549.664 384.424 549.664 384.546 549.542 384.546L504.132 390.67Z" fill="#547907"/>
<path d="M682.836 288.41L549.42 383.934L504.132 390.057L643.056 297.595L682.836 288.41ZM682.836 287.185C682.714 287.185 682.591 287.185 682.591 287.185L642.811 296.37C642.689 296.37 642.566 296.493 642.444 296.493L503.52 388.955C503.03 389.323 502.908 389.812 503.03 390.425C503.153 390.915 503.642 391.16 504.132 391.16H504.254L549.542 385.036C549.787 385.036 549.91 384.914 550.032 384.791L683.448 289.267C683.815 289.022 683.938 288.655 683.938 288.287C684.06 287.797 683.57 287.185 682.836 287.185Z" fill="black"/>
<path d="M504.132 391.282C504.009 391.282 503.887 391.282 503.887 391.282C503.52 391.159 503.275 390.914 503.153 390.669L412.577 214.317C412.332 213.705 412.454 213.092 412.944 212.725L452.112 187.007C452.356 186.884 452.601 186.762 452.724 186.762C452.846 186.762 452.968 186.762 453.091 186.762C453.458 186.884 453.703 187.129 453.825 187.374L499.848 275.918L534.732 62.8254C534.732 62.458 534.976 62.0906 535.344 61.9682C535.588 61.8457 535.711 61.8457 535.956 61.8457C536.078 61.8457 536.2 61.8457 536.445 61.9682L581.733 79.1135C582.223 79.3585 582.59 79.8483 582.468 80.4607L546.237 294.41L614.904 248.24C615.148 248.118 615.393 247.995 615.638 247.995C615.76 247.995 615.883 247.995 615.883 247.995C616.25 248.118 616.495 248.24 616.617 248.608L642.321 296.37C642.566 296.982 642.444 297.595 641.954 297.962L504.866 391.037C504.621 391.159 504.376 391.282 504.132 391.282Z" fill="#B0F127"/>
<path d="M535.956 63.0704L581.244 80.2158L544.524 296.982L615.516 249.22L641.22 296.982L504.132 390.057L413.556 213.705L452.724 187.987L500.46 279.837L535.956 63.0704ZM535.956 60.6211C535.589 60.6211 535.099 60.7436 534.732 60.9885C534.12 61.3559 533.63 61.9682 533.508 62.703L499.236 272.244L454.927 186.885C454.56 186.272 454.07 185.782 453.336 185.66C453.091 185.66 452.969 185.537 452.724 185.537C452.234 185.537 451.745 185.66 451.378 185.905L412.21 211.623C411.108 212.358 410.863 213.705 411.353 214.807L501.929 391.159C502.296 391.772 502.786 392.262 503.52 392.384C503.765 392.384 503.887 392.507 504.132 392.507C504.622 392.507 505.111 392.384 505.478 392.139L642.566 299.064C643.546 298.329 643.913 296.982 643.301 295.88L617.597 248.118C617.23 247.506 616.74 247.016 616.006 246.893C615.761 246.893 615.638 246.771 615.394 246.771C614.904 246.771 614.414 246.893 614.047 247.138L547.829 291.716L583.57 80.5832C583.814 79.481 583.08 78.2563 581.978 77.8889L536.69 60.7436C536.568 60.6211 536.201 60.6211 535.956 60.6211Z" fill="black"/>
<path d="M238.646 415.898C250.397 394.466 252.478 363.115 241.951 331.763C233.628 307.025 219.185 286.94 202.416 274.693L195.562 247.996C192.502 249.098 189.442 250.2 186.259 251.302C176.957 254.609 167.654 257.915 158.352 261.222C156.516 261.834 154.68 262.569 152.722 263.182C150.641 263.916 148.682 264.529 146.724 265.508C144.031 266.733 141.461 268.203 139.135 269.917C134.239 273.469 130.078 277.878 126.65 282.899C122.978 288.287 120.163 294.166 118.082 300.289C115.757 307.025 114.41 314.128 113.676 321.108C112.942 328.824 113.064 336.662 113.798 344.377C114.655 352.705 116.369 360.91 118.817 368.871C119.184 370.095 119.551 371.32 120.041 372.545C136.075 420.429 175.366 450.556 208.536 441.126C216.859 438.799 224.693 435.248 232.771 432.308C235.831 431.206 238.891 430.104 241.951 429.002C241.951 428.879 238.646 415.898 238.646 415.898Z" fill="#060606" stroke="black" stroke-width="2" stroke-miterlimit="10" stroke-linecap="round" stroke-linejoin="round"/>
<path d="M235.218 430.594C203.761 430.594 172.06 401.324 157.984 359.441C141.46 310.086 155.903 260.487 190.175 248.975C194.949 247.383 199.967 246.526 205.108 246.526C236.565 246.526 268.266 275.796 282.342 317.679C290.298 341.56 291.4 366.176 285.402 386.873C279.405 407.815 266.797 422.511 250.151 428.022C245.377 429.859 240.359 430.594 235.218 430.594Z" fill="white"/>
<path d="M205.108 247.873C235.219 247.873 267.043 276.285 281.119 318.169C297.52 367.034 283.444 415.775 249.784 427.042C245.011 428.634 240.115 429.369 235.219 429.369C205.108 429.369 173.284 400.957 159.208 359.073C142.807 310.209 156.883 261.467 190.543 250.2C195.316 248.608 200.212 247.873 205.108 247.873ZM205.108 245.424C199.845 245.424 194.704 246.281 189.808 247.873C172.795 253.629 159.943 268.448 153.823 289.879C147.703 310.944 148.804 335.804 156.883 359.808C163.86 380.627 175.12 398.508 189.564 411.734C203.762 424.715 219.919 431.819 235.219 431.819C240.482 431.819 245.623 430.961 250.519 429.369C267.532 423.613 280.384 408.795 286.504 387.363C292.624 366.299 291.523 341.438 283.444 317.434C276.468 296.615 265.207 278.735 250.764 265.508C236.688 252.527 220.408 245.424 205.108 245.424Z" fill="black"/>
<path d="M245.868 304.82C243.053 294.166 235.586 293.553 226.651 296.492L223.836 281.184L217.104 284.246L219.919 299.187C218.206 299.922 216.37 300.901 214.656 301.759L211.841 286.818L205.109 289.879L207.924 305.188C206.455 305.8 204.986 306.535 203.762 307.27V307.147L194.46 311.311L196.296 321.231C196.296 321.231 201.192 318.781 201.192 319.026C204.007 317.802 205.231 319.639 205.721 321.353L208.903 338.744C209.026 338.621 209.393 338.621 209.638 338.499C209.393 338.621 209.148 338.744 208.903 338.744L213.432 363.114C213.554 364.339 213.432 366.421 211.474 367.278C211.596 367.401 206.578 369.483 206.578 369.483L207.312 381.24L216.002 377.321C217.594 376.586 219.185 375.851 220.776 375.239L223.469 390.67L230.201 387.608L227.386 372.299C229.222 371.442 231.058 370.707 232.771 369.85L235.586 385.036L242.318 381.974L239.503 366.544C250.642 360.543 257.863 352.95 256.027 337.886C254.681 325.762 249.662 322.21 242.808 323.068C246.358 318.536 247.949 312.536 245.868 304.82ZM242.563 342.173C244.766 353.685 230.201 358.828 225.672 361.033L222 340.458C226.406 338.376 240.36 330.048 242.563 342.173ZM234.118 314.618C236.076 325.15 223.958 329.191 220.042 331.028L216.614 312.536C220.531 310.699 232.037 303.596 234.118 314.618Z" fill="#060606"/>
<path d="M451.796 126.349C464.838 84.9323 443.735 41.3728 404.662 29.0559C365.589 16.7391 323.342 40.3291 310.301 81.7457C297.26 123.162 318.362 166.722 357.435 179.039C396.508 191.355 438.755 167.766 451.796 126.349Z" fill="#060606" stroke="black" stroke-width="2" stroke-miterlimit="10"/>
<path d="M430.044 117.975C442.761 77.5908 424.897 35.9719 390.144 25.0168C355.391 14.0618 316.909 37.919 304.193 78.3033C291.477 118.688 309.341 160.307 344.094 171.262C378.846 182.217 417.328 158.36 430.044 117.975Z" fill="white" stroke="black" stroke-width="2" stroke-miterlimit="10"/>
<path d="M384.792 111.69L356.64 122.957L337.546 95.769L350.275 149.777L384.792 111.69Z" fill="#060606"/>
<path d="M357.987 116.834L386.139 105.444L375.245 43.231L339.015 89.5235L357.987 116.834Z" fill="#060606"/>
<path d="M262.76 134.346C262.637 134.346 262.637 134.346 262.515 134.346L245.379 126.263C245.134 126.141 245.012 125.896 245.012 125.651V103.73C245.012 103.485 245.134 103.362 245.257 103.24C245.379 103.117 245.501 103.117 245.624 103.117C245.746 103.117 245.746 103.117 245.869 103.117L263.005 111.445C263.249 111.567 263.372 111.812 263.372 112.057V133.734C263.372 133.979 263.249 134.101 263.127 134.224C263.005 134.224 262.882 134.346 262.76 134.346Z" fill="white"/>
<path d="M245.623 103.73L262.759 112.057V133.734L245.623 125.651V103.73ZM245.623 102.505C245.379 102.505 245.134 102.627 245.011 102.75C244.644 102.995 244.399 103.362 244.399 103.73V125.651C244.399 126.141 244.644 126.508 245.134 126.753L262.27 134.836C262.392 134.959 262.637 134.959 262.759 134.959C263.004 134.959 263.249 134.836 263.371 134.714C263.739 134.469 263.983 134.101 263.983 133.734V112.057C263.983 111.567 263.739 111.2 263.249 110.955L246.113 102.627C245.991 102.505 245.868 102.505 245.623 102.505Z" fill="#060606"/>
<path d="M262.759 134.346C262.637 134.346 262.515 134.346 262.392 134.224C262.27 134.101 262.147 133.857 262.147 133.734V112.057C262.147 111.812 262.27 111.568 262.515 111.568L279.283 102.75C279.406 102.75 279.528 102.627 279.528 102.627C279.651 102.627 279.773 102.627 279.895 102.75C280.018 102.872 280.14 103.117 280.14 103.24V125.529C280.14 125.774 280.018 126.019 279.773 126.019L263.004 134.346C263.004 134.346 262.882 134.346 262.759 134.346Z" fill="black"/>
<path d="M279.528 103.117V125.406L262.759 133.734V112.057L279.528 103.117ZM279.528 101.893C279.283 101.893 279.161 101.893 278.916 102.015L262.147 110.833C261.78 111.078 261.535 111.445 261.535 111.935V133.612C261.535 133.979 261.78 134.469 262.147 134.591C262.392 134.714 262.514 134.836 262.759 134.836C263.004 134.836 263.126 134.836 263.249 134.714L280.018 126.386C280.385 126.141 280.752 125.774 280.752 125.284V103.117C280.752 102.627 280.507 102.26 280.14 102.015C280.018 102.015 279.773 101.893 279.528 101.893Z" fill="#060606"/>
<path d="M262.76 112.67C262.637 112.67 262.637 112.67 262.515 112.67L245.379 104.342C245.134 104.219 245.012 103.975 245.012 103.852C245.012 103.607 245.134 103.362 245.379 103.24L262.515 94.1772C262.637 94.1772 262.76 94.0547 262.76 94.0547C262.882 94.0547 263.005 94.0547 263.005 94.1772L279.773 102.627C280.018 102.75 280.141 102.995 280.141 103.117C280.141 103.24 280.018 103.607 279.773 103.607L263.005 112.425C263.005 112.547 262.882 112.67 262.76 112.67Z" fill="#B0F127"/>
<path d="M262.759 94.6671L279.528 103.117L262.759 111.935L245.623 103.607L262.759 94.6671ZM262.759 93.4424C262.515 93.4424 262.392 93.4424 262.147 93.5648L245.011 102.627C244.644 102.872 244.399 103.24 244.399 103.73C244.399 104.219 244.644 104.587 245.134 104.832L262.27 113.16C262.392 113.282 262.637 113.282 262.759 113.282C263.004 113.282 263.127 113.282 263.371 113.16L280.14 104.342C280.507 104.097 280.752 103.73 280.752 103.24C280.752 102.75 280.507 102.382 280.14 102.138L263.371 93.6873C263.127 93.5648 263.004 93.4424 262.759 93.4424Z" fill="#060606"/>
<path d="M69.0001 382.097C75.8277 382.097 81.3625 376.559 81.3625 369.728C81.3625 362.897 75.8277 357.359 69.0001 357.359C62.1725 357.359 56.6377 362.897 56.6377 369.728C56.6377 376.559 62.1725 382.097 69.0001 382.097Z" fill="#B0F127" stroke="black" stroke-width="2" stroke-miterlimit="10"/>
<path d="M433.752 344.632C436.124 344.632 438.047 342.708 438.047 340.336C438.047 337.963 436.124 336.039 433.752 336.039C431.38 336.039 429.458 337.963 429.458 340.336C429.458 342.708 431.38 344.632 433.752 344.632Z" fill="#F5F5F5" stroke="black" stroke-miterlimit="10"/>
<path d="M651.645 190.234L651.614 190.249L651.586 190.268L644.326 195.232C644.323 195.233 644.319 195.234 644.315 195.235L638.6 191.151C638.404 190.974 638.161 190.904 637.924 190.93C637.69 190.956 637.489 191.073 637.347 191.215C637.204 191.358 637.088 191.558 637.062 191.793C637.035 192.04 637.112 192.294 637.307 192.495L642.386 198.061C642.39 198.071 642.393 198.081 642.395 198.091C642.397 198.098 642.399 198.104 642.4 198.11L638.028 203.578C637.843 203.775 637.77 204.024 637.796 204.265C637.823 204.5 637.939 204.7 638.081 204.843C638.224 204.985 638.424 205.102 638.659 205.128C638.902 205.155 639.153 205.08 639.352 204.891L644.584 200.488L651.164 206.114C651.3 206.243 651.489 206.339 651.713 206.324C651.938 206.308 652.105 206.186 652.207 206.064C652.394 205.839 652.476 205.475 652.316 205.154L652.298 205.118L652.275 205.087L647.457 198.337L652.637 191.346L652.663 191.311L652.683 191.272C653.019 190.598 652.32 189.896 651.645 190.234Z" fill="#F5F5F5" stroke="black" stroke-miterlimit="10"/>
<path d="M410.12 316.202L418.724 315.484C418.965 315.475 419.147 315.341 419.25 315.186C419.348 315.039 419.38 314.875 419.38 314.74C419.38 314.605 419.348 314.441 419.25 314.294C419.151 314.144 418.978 314.014 418.749 313.997L410.6 312.678L409.28 304.158C409.264 303.928 409.134 303.754 408.983 303.654C408.837 303.557 408.673 303.524 408.537 303.524C408.402 303.524 408.238 303.557 408.092 303.654C407.943 303.753 407.814 303.924 407.795 304.15L406.253 312.696L399.308 313.874C399.069 313.886 398.855 313.987 398.704 314.162C398.551 314.34 398.49 314.558 398.49 314.755C398.49 315.145 398.733 315.589 399.236 315.715L399.284 315.727L399.333 315.729L406.825 316.092L407.671 322.98C407.679 323.245 407.782 323.488 407.984 323.657C408.183 323.823 408.427 323.872 408.634 323.857C409.01 323.831 409.512 323.546 409.527 322.971L410.12 316.202Z" fill="#F5F5F5" stroke="black" stroke-miterlimit="10"/>
<path d="M94.8861 395.19L90.0757 402.53L83.0728 400.839C82.5329 400.705 82.1112 401.054 81.949 401.406C81.8637 401.591 81.8236 401.821 81.8852 402.055C81.9504 402.301 82.1182 402.506 82.363 402.629L82.3629 402.629L82.3694 402.632L89.1824 405.918L87.2474 412.574L87.2447 412.583L87.2424 412.592C87.1073 413.133 87.4563 413.556 87.8085 413.719C87.9935 413.804 88.2241 413.844 88.4577 413.783C88.7025 413.718 88.9058 413.552 89.0285 413.311L92.2427 407.236L100.419 410.003L100.421 410.004C100.622 410.071 100.84 410.067 101.036 409.966C101.224 409.869 101.341 409.708 101.4 409.552C101.5 409.285 101.476 408.827 101.076 408.607L94.1403 404.18L96.2901 395.815L96.3059 395.754V395.691C96.3059 395.334 96.1187 395.014 95.804 394.879C95.6508 394.813 95.4668 394.795 95.2862 394.855C95.1119 394.913 94.9733 395.034 94.8861 395.19ZM94.1037 404.323L94.1037 404.323C94.1037 404.323 94.1037 404.323 94.1037 404.323C94.1037 404.323 94.1037 404.323 94.1037 404.323Z" fill="#F5F5F5" stroke="black" stroke-miterlimit="10"/>
</svg>
