<svg width="100" height="100" viewBox="0 0 100 100" fill="none" xmlns="http://www.w3.org/2000/svg">
<path d="M46.7797 27.8737C46.7818 29.6082 48.1861 31.0125 49.9206 31.0146C51.6541 31.0125 53.0595 29.6082 53.0615 27.8737V9.80756C53.0584 8.07304 51.653 6.66872 49.9196 6.66663C48.1861 6.66976 46.7807 8.07304 46.7797 9.80756V27.8737Z" fill="#999999"/>
<path d="M67.8363 27.7546C67.8384 29.488 69.2437 30.8934 70.9772 30.8955L70.9814 30.8944C71.4487 30.8956 71.9103 30.7917 72.3321 30.5904C72.7539 30.3891 73.125 30.0956 73.4181 29.7315L80.5975 20.8771C81.1241 20.2314 81.3707 19.4017 81.2808 18.5731C81.1962 17.7435 80.7835 16.9818 80.1335 16.4593C79.5683 16.0006 78.8849 15.7582 78.1598 15.7582C77.6916 15.7573 77.2291 15.8613 76.8064 16.0626C76.3836 16.2638 76.0113 16.5572 75.7168 16.9212L68.5374 25.7755C68.0849 26.3356 67.8363 27.0336 67.8363 27.7546Z" fill="#999999"/>
<path d="M27.8532 30.3454C28.2783 30.5503 28.7443 30.6562 29.2162 30.6552H29.2214C29.9324 30.654 30.6221 30.4125 31.1785 29.9697C32.5326 28.8883 32.7542 26.9134 31.6748 25.5572L24.6166 16.7028C24.0178 15.9515 23.1213 15.52 22.159 15.52C21.4478 15.5172 20.7573 15.7589 20.203 16.2044C18.8477 17.2869 18.6252 19.2617 19.7045 20.618L26.7617 29.4723C27.0549 29.8421 27.4281 30.1405 27.8532 30.3454Z" fill="#999999"/>
<path fill-rule="evenodd" clip-rule="evenodd" d="M12.1117 90.0013L12.002 89.9993C11.3698 89.9784 8.08468 89.7683 5.89564 87.7162C3.65122 85.6118 3.38373 82.5858 3.35239 81.9996C3.34925 81.9442 3.34821 81.8888 3.34821 81.8345V65.3514C3.31477 64.6733 3.27088 62.3787 4.03992 59.8323C4.77657 57.3893 5.68562 55.7865 5.94684 55.3539L14.2213 40.7129C14.2631 40.6408 14.307 40.5687 14.354 40.4998C14.6121 40.1163 15.9987 38.1456 17.9004 36.9639C19.9013 35.7173 22.3234 35.6212 23.0193 35.6212H75.2887C75.3556 35.6212 75.4225 35.6222 75.4914 35.6264C76.0107 35.6599 78.7087 35.8876 80.7974 37.0819C82.791 38.224 84.397 40.2197 84.6969 40.6064C84.7586 40.6858 84.816 40.7683 84.8693 40.8529L94.6965 56.426C94.7393 56.4949 94.7811 56.566 94.8198 56.6391C95.0079 57.0006 95.9796 58.9117 96.4717 60.7696C96.9576 62.6086 97.0746 64.6409 97.0924 65.0285L97.0945 65.1612V81.6475C97.106 82.5189 96.9451 85.5094 94.4635 87.7329C92.1135 89.8362 88.9496 89.9993 88.0364 89.9993L12.1117 90.0013ZM35.2577 65.6746C36.963 72.389 43.0432 77.0806 50.0397 77.0806C57.0238 77.0806 63.0893 72.389 64.7946 65.6735L64.9325 65.1323L90.8044 65.1166C90.8078 65.1681 90.8107 65.2167 90.8132 65.262V81.672L90.8184 81.8622C90.8184 81.9719 90.7181 82.6584 90.2719 83.0586C89.7735 83.5047 88.6722 83.7137 88.0432 83.7221L12.155 83.721C11.7768 83.698 10.6953 83.5131 10.2586 83.1913L10.2095 83.1557L10.1677 83.1108C9.85629 82.7869 9.67448 82.0691 9.63582 81.7723L9.63059 81.7263V65.2464C9.62998 65.2038 9.62866 65.1604 9.62684 65.117L35.1198 65.1323L35.2577 65.6746ZM11.1925 58.8363C11.223 58.7794 11.2491 58.7322 11.27 58.6949C11.27 58.6949 11.3055 58.6312 11.3076 58.6249L11.3066 58.6281L11.3954 58.4786L19.6187 43.9317L19.6438 43.8972C19.9311 43.5054 20.628 42.6664 21.2184 42.2985C21.6374 42.0363 22.5423 41.9078 23.0302 41.9036H75.1346L75.2004 41.9067C75.8368 41.9663 77.0708 42.1888 77.6779 42.5357C78.3769 42.937 79.2536 43.8774 79.6193 44.3183L79.6496 44.3538L88.7876 58.8361L62.1103 58.8535C60.3768 58.8577 58.9725 60.2631 58.9693 61.9955C58.9693 66.9326 55.0468 70.7987 50.0408 70.7987C45.0159 70.7987 41.0809 66.9326 41.0809 61.9955C41.0777 60.2621 39.6755 58.8577 37.942 58.8535L11.1925 58.8363Z" fill="#999999"/>
</svg>
