<svg width="40" height="39" viewBox="0 0 40 39" fill="none" xmlns="http://www.w3.org/2000/svg">
<path d="M20 27.5L36 16.3766V3.68923C36 1.65193 34.2378 0 32.0666 0H7.93341C5.75981 0 4 1.65193 4 3.68923V16.3766L20 27.5Z" fill="#83E5DA"/>
<path fill-rule="evenodd" clip-rule="evenodd" d="M37 17.3766L20 29L3 17.3766V15.8507L1.9366 15.1888C1.07561 14.6512 0 15.3257 0 16.4035V34.8453C0 38.8949 0.562476 39 4.29999 39H35.7C39.4375 39 40 38.8949 40 34.8453V16.4035C40 15.3281 38.9244 14.6536 38.0634 15.1888L37 15.8507V17.3766Z" fill="#D5ED86"/>
<g clip-path="url(#clip0_1212_71356)">
<path d="M13.5994 10.3976C13.0253 10.3976 12.498 10.7023 12.2168 11.2003C11.9297 11.6924 11.9297 12.3076 12.2168 12.7997C12.5038 13.2918 13.0311 13.6023 13.5994 13.6023H26.4006C26.9747 13.6023 27.502 13.2977 27.7832 12.7997C28.0703 12.3076 28.0703 11.6924 27.7832 11.2003C27.4962 10.7082 26.9689 10.3976 26.4006 10.3976H13.5994Z" fill="#111111"/>
<path d="M21.5965 5.59941C21.5965 5.02527 21.2918 4.49799 20.7938 4.21677C20.2958 3.9297 19.6865 3.9297 19.1944 4.21677C18.7023 4.50384 18.3918 5.03112 18.3918 5.59941V18.4006C18.3918 18.9747 18.6964 19.502 19.1944 19.7832C19.6865 20.0703 20.3017 20.0703 20.7938 19.7832C21.286 19.4962 21.5965 18.9689 21.5965 18.4006V5.59941Z" fill="#111111"/>
</g>
<defs>
<clipPath id="clip0_1212_71356">
<rect width="16" height="16" fill="white" transform="translate(12 4)"/>
</clipPath>
</defs>
</svg>
