<svg width="46" height="40" viewBox="0 0 46 40" fill="none" xmlns="http://www.w3.org/2000/svg">
<path d="M41.0945 17.0108C40.9701 17.0341 40.8576 17.0936 40.7745 17.1803L40.6968 17.2836C40.6558 17.3576 40.6321 17.4394 40.6321 17.5232V19.5879H34.2817C33.9161 19.6008 33.5702 19.7409 33.3166 19.979C33.063 20.217 32.9214 20.5344 32.9214 20.8647C32.9214 21.195 33.063 21.5124 33.3166 21.7504C33.5702 21.9885 33.9161 22.1286 34.2817 22.1415L40.6321 22.1396L40.6342 24.1186L40.6493 24.2394C40.672 24.327 40.7195 24.4078 40.787 24.474C40.8546 24.5403 40.9399 24.5896 41.0348 24.6172C41.1297 24.6448 41.2309 24.6499 41.3286 24.6318C41.4263 24.6137 41.5171 24.5731 41.5923 24.514L45.8022 21.2163L45.9036 21.1111C46.0438 20.9202 46.033 20.6612 45.8583 20.4781L45.8 20.4274L41.5923 17.1297L41.4628 17.0518C41.3484 17.002 41.2189 16.9876 41.0945 17.0108Z" fill="#83E5DA"/>
<path fill-rule="evenodd" clip-rule="evenodd" d="M37.2237 17C37.2237 15.6434 38.1243 14.497 39.3601 14.1262C36.8357 5.94687 29.177 0 20.1209 0C9.00845 0 0 8.9543 0 20C0 31.0457 9.00845 40 20.1209 40C28.8442 40 36.2709 34.4822 39.0612 26.7664C38.2858 26.4402 37.6763 25.7975 37.3945 25H33.1754C30.9662 25 29.1754 23.2091 29.1754 21C29.1754 18.7909 30.9662 17 33.1754 17H37.2237ZM21.4782 12.8623V18.7141C23.2858 19.0437 24.8572 19.8804 25.9068 21.098C26.8186 22.1559 27.2585 23.4494 27.146 24.7403C27.005 26.3576 26.0523 27.8055 24.4635 28.8173C23.5869 29.3758 22.5661 29.7646 21.4782 29.965V31.5552C21.4782 32.353 20.8408 33 20.0549 33C19.269 33 18.6316 32.353 18.6316 31.5552V30.058C16.5082 29.8115 14.6099 28.8629 13.4642 27.4529C12.9638 26.8375 13.0501 25.9268 13.6563 25.4189C14.2625 24.911 15.1597 24.9985 15.66 25.6139C16.2809 26.3779 17.3782 26.9323 18.6316 27.1409V21.2841C16.8796 20.9382 15.3589 20.1133 14.335 18.9254C13.4232 17.8676 12.9834 16.574 13.0959 15.2832C13.2369 13.6659 14.1896 12.218 15.7783 11.2062C16.6199 10.6702 17.593 10.291 18.6316 10.0842V8.4448C18.6316 7.647 19.269 7 20.0549 7C20.8408 7 21.4782 7.647 21.4782 8.4448V9.9519C23.6505 10.1736 25.6022 11.129 26.7724 12.5643C27.2736 13.1788 27.1891 14.0894 26.5833 14.5983C25.978 15.1071 25.0809 15.0213 24.5796 14.4064C23.9365 13.6176 22.784 13.0523 21.4782 12.8623ZM15.9313 15.5387C15.8864 16.0516 16.0701 16.551 16.4771 17.0233C16.9784 17.6048 17.7376 18.0518 18.6316 18.3141V13.0578C18.1419 13.2022 17.6869 13.4023 17.2915 13.6542C16.4749 14.1743 15.9918 14.8434 15.9313 15.5387ZM22.9504 26.3697C23.767 25.8496 24.25 25.1805 24.3105 24.4852C24.355 23.9727 24.1713 23.4729 23.7648 23.0007C23.2391 22.3907 22.4296 21.9288 21.4782 21.6728V27.0036C22.0181 26.8574 22.5198 26.6443 22.9504 26.3697Z" fill="#D5ED86"/>
</svg>
