<svg width="40" height="40" viewBox="0 0 40 40" fill="none" xmlns="http://www.w3.org/2000/svg">
<rect x="19.8995" y="10" width="14" height="14" rx="2" transform="rotate(45 19.8995 10)" fill="#83E5DA"/>
<path fill-rule="evenodd" clip-rule="evenodd" d="M20 40C31.0457 40 40 31.0457 40 20C40 8.9543 31.0457 0 20 0C8.9543 0 0 8.9543 0 20C0 31.0457 8.9543 40 20 40ZM21.3137 6.31375C20.5327 5.5327 19.2664 5.5327 18.4853 6.31375L6.31379 18.4853C5.53274 19.2663 5.53274 20.5327 6.31379 21.3137L18.4853 33.4852C19.2664 34.2663 20.5327 34.2663 21.3137 33.4852L33.4853 21.3137C34.2663 20.5327 34.2663 19.2663 33.4853 18.4853L21.3137 6.31375Z" fill="#D5ED86"/>
</svg>
