<svg width="43" height="39" viewBox="0 0 43 39" fill="none" xmlns="http://www.w3.org/2000/svg">
<path fill-rule="evenodd" clip-rule="evenodd" d="M2 0C0.895431 0 0 0.895431 0 2V8.75C0 9.85457 0.895431 10.75 2 10.75H21.3696C23.7889 9.38126 26.5845 8.6 29.5625 8.6C30.4771 8.6 31.3744 8.67368 32.249 8.81543C32.2496 8.79371 32.25 8.77189 32.25 8.75V2C32.25 0.895431 31.3546 0 30.25 0H2ZM13.1156 27.95C13.8289 32.3489 16.2645 36.1704 19.7081 38.7H2C0.895431 38.7 0 37.8046 0 36.7V29.95C0 28.8454 0.895431 27.95 2 27.95H13.1156ZM17.3055 13.975C14.6834 16.8209 13.0398 20.5821 12.9085 24.725H2C0.895431 24.725 0 23.8296 0 22.725V15.975C0 14.8704 0.895431 13.975 2 13.975H17.3055Z" fill="#D5ED86"/>
<path fill-rule="evenodd" clip-rule="evenodd" d="M29.5625 38.7C36.9838 38.7 43 32.6838 43 25.2625C43 17.8412 36.9838 11.825 29.5625 11.825C22.1412 11.825 16.125 17.8412 16.125 25.2625C16.125 32.6838 22.1412 38.7 29.5625 38.7ZM21.583 24.5966H38.617C39.1162 24.5966 39.5634 24.2732 39.7111 23.782C39.8668 23.2908 39.6991 22.7586 39.2998 22.4516L35.4426 19.5822C34.9275 19.1933 34.2008 19.3038 33.8215 19.8319C33.4421 20.3599 33.5499 21.1049 34.065 21.4938L35.0992 22.2224H21.583C20.9441 22.2224 20.425 22.7546 20.425 23.4095C20.425 24.0644 20.9441 24.5966 21.583 24.5966ZM38.617 27.0035H21.583C21.0838 27.0035 20.6366 27.3268 20.4849 27.818C20.3292 28.3092 20.4969 28.8414 20.8962 29.1484L24.7534 32.0178C25.2685 32.4067 25.9952 32.2962 26.3745 31.7681C26.7539 31.2401 26.6461 30.4951 26.131 30.1062L25.0968 29.3776H38.617C39.2559 29.3776 39.775 28.8455 39.775 28.1905C39.775 27.5356 39.2559 27.0035 38.617 27.0035Z" fill="#83E5DA"/>
</svg>
