<svg width="95" height="110" viewBox="0 0 95 110" fill="none" xmlns="http://www.w3.org/2000/svg">
<path d="M1 46.1112V79.9864L47.2887 105.215V70.2714L1 46.1112Z" fill="white" stroke="#17191A" stroke-miterlimit="10" stroke-linejoin="round"/>
<path d="M1 79.986V84.3602L47.2887 109.436V105.672L1 79.986Z" fill="#2D2F30" stroke="#17191A" stroke-miterlimit="10" stroke-linejoin="round"/>
<path d="M93.5768 46.1112V79.9864L47.2881 105.215V70.2714L93.5768 46.1112Z" fill="white" stroke="#17191A" stroke-miterlimit="10" stroke-linejoin="round"/>
<path d="M93.5768 79.986V85.0215L47.2881 109.436V105.672L93.5768 79.986Z" fill="#2D2F30" stroke="#17191A" stroke-miterlimit="10" stroke-linejoin="round"/>
<path d="M20.1219 56.335L19.5654 89.8541L27.5079 94.4319L27.6596 60.3532L20.1219 56.335Z" fill="#B0F127" stroke="#17191A" stroke-miterlimit="10"/>
<path d="M74.758 56.1819L75.3145 89.8536L67.3721 94.4314V60.0984L74.758 56.1819Z" fill="#B0F127" stroke="#17191A" stroke-miterlimit="10"/>
<path d="M1 46.1109L47.2887 22.8662L93.5774 46.1109L47.2887 70.7798L1 46.1109Z" fill="#F2F2F2" stroke="#17191A" stroke-miterlimit="10" stroke-linejoin="round"/>
<path d="M1 46.1109L47.2887 22.8662V46.1109V70.7798L1 46.1109Z" fill="#D8D8D8" stroke="#17191A" stroke-miterlimit="10" stroke-linejoin="round"/>
<ellipse cx="46.7322" cy="27.868" rx="25.7244" ry="26.4389" fill="#0F7154"/>
<circle cx="46.0176" cy="25.0098" r="25.0098" fill="#1BA27A"/>
<path d="M56.3626 19.9331V15H36.1647V19.9331H43.611V23.1561C37.558 23.4283 33 24.6215 33 26.0531C33 27.4847 37.558 28.6779 43.611 28.9501V39.2935H48.9163V28.9477C54.946 28.6714 59.4809 27.4803 59.4809 26.0531C59.4809 24.6256 54.946 23.4342 48.9163 23.1582V19.9331H56.3626V19.9331ZM57.2004 25.7616C57.2004 26.7032 53.676 27.493 48.9163 27.7123L48.6087 27.7253H48.5747L48.2863 27.7359H48.2551C48.0406 27.7433 47.8235 27.7496 47.6036 27.7545H47.5899L47.295 27.7606H47.2117L46.9789 27.7638H45.5051L45.2747 27.7606H45.1947L44.9196 27.7549H44.8893C44.5632 27.7476 44.2419 27.7375 43.9255 27.7253H43.9213L43.6063 27.7117C38.8229 27.4957 35.2757 26.7032 35.2757 25.7571C35.2757 24.8109 38.8235 24.0207 43.6063 23.8024V26.7944C44.4365 26.8377 45.3198 26.8614 46.2358 26.8614C47.1664 26.8614 48.0675 26.8373 48.9118 26.792V23.8113C53.6756 24.03 57.2004 24.8202 57.2004 25.7616Z" fill="white"/>
</svg>
