<svg width="36" height="36" viewBox="0 0 36 36" fill="none" xmlns="http://www.w3.org/2000/svg">
<g id="&#229;&#175;&#134;&#231;&#160;&#129; 3">
<path id="Vector" d="M27.4186 12.9371H26.7608V10.3975C26.7608 5.56531 22.8303 1.63477 17.9997 1.63477C13.1692 1.63477 9.237 5.56531 9.237 10.3975V12.9371H8.58082C7.39931 12.9389 6.26671 13.4091 5.43141 14.2447C4.59611 15.0803 4.1263 16.2131 4.125 17.3946V29.9079C4.125 32.3624 6.12464 34.362 8.58082 34.362H27.4186C28.5999 34.3603 29.7322 33.8903 30.5675 33.055C31.4027 32.2198 31.8727 31.0874 31.8745 29.9062V17.3929C31.8732 16.2116 31.4033 15.079 30.5679 14.2436C29.7326 13.4083 28.6 12.9384 27.4186 12.9371ZM11.6915 10.3975C11.6915 6.91858 14.5208 4.08931 17.9997 4.08931C21.4786 4.08931 24.3063 6.91858 24.3063 10.3975V12.9371H11.6915V10.3975ZM29.4199 29.9062C29.4199 31.0091 28.5215 31.9075 27.4186 31.9075H8.58082C8.05031 31.9066 7.54178 31.6955 7.16666 31.3204C6.79154 30.9453 6.58041 30.4367 6.57955 29.9062V17.3929C6.57955 16.2884 7.47791 15.39 8.58082 15.39H27.4186C28.5215 15.39 29.4199 16.2884 29.4199 17.3929V29.9062Z" fill="#F5F5F5"/>
<path id="Vector_2" d="M19.3807 23.8419C19.7881 23.4672 20.0532 22.9403 20.0532 22.343C20.0532 22.0735 20.0001 21.8067 19.897 21.5577C19.7939 21.3088 19.6427 21.0826 19.4522 20.892C19.2617 20.7015 19.0354 20.5503 18.7865 20.4472C18.5375 20.3441 18.2707 20.291 18.0012 20.291C17.7317 20.291 17.4649 20.3441 17.216 20.4472C16.967 20.5503 16.7408 20.7015 16.5502 20.892C16.3597 21.0826 16.2085 21.3088 16.1054 21.5577C16.0023 21.8067 15.9492 22.0735 15.9492 22.343C15.9503 22.626 16.0107 22.9056 16.1266 23.1638C16.2424 23.4219 16.4111 23.653 16.6218 23.8419V25.5732C16.6218 25.9391 16.7671 26.2899 17.0258 26.5486C17.2845 26.8073 17.6354 26.9526 18.0012 26.9526C18.3671 26.9526 18.7179 26.8073 18.9766 26.5486C19.2353 26.2899 19.3807 25.9391 19.3807 25.5732V23.8419Z" fill="#ea4b64"/>
</g>
</svg>
