<svg width="36" height="36" viewBox="0 0 36 36" fill="none" xmlns="http://www.w3.org/2000/svg">
<g id="&#229;&#175;&#134;&#231;&#160;&#129; 5">
<g id="Group 40228">
<path id="Subtract" fill-rule="evenodd" clip-rule="evenodd" d="M24.6358 12.6383H25.2936C26.475 12.6396 27.6076 13.1095 28.4429 13.9448C29.2764 14.7782 29.746 15.9075 29.7494 17.0859H27.2949C27.2905 15.9851 26.3938 15.0912 25.2936 15.0912H6.45582C5.35291 15.0912 4.45455 15.9896 4.45455 17.0941V29.6074C4.45541 30.1379 4.66654 30.6464 5.04166 31.0216C5.41678 31.3967 5.92531 31.6078 6.45582 31.6087H25.2936C26.3193 31.6087 27.168 30.8318 27.2819 29.8359H29.7433C29.6854 30.9339 29.2237 31.975 28.4425 32.7562C27.6072 33.5915 26.4749 34.0615 25.2936 34.0632H6.45582C3.99964 34.0632 2 32.0636 2 29.609V17.0958C2.0013 15.9142 2.47111 14.7815 3.30641 13.9459C4.14171 13.1103 5.27431 12.64 6.45582 12.6383H7.112V10.0987C7.112 5.26648 11.0442 1.33594 15.8747 1.33594C20.7053 1.33594 24.6358 5.26648 24.6358 10.0987V12.6383ZM15.8747 3.79048C12.3958 3.79048 9.56654 6.61976 9.56654 10.0987V12.6383H22.1813V10.0987C22.1813 6.61976 19.3536 3.79048 15.8747 3.79048Z" fill="#111111"/>
<path id="Vector" d="M17.3775 21.7492L16.3429 22.0994V20.9652C16.3429 20.732 16.2541 20.5084 16.096 20.3435C15.9379 20.1786 15.7235 20.0859 15.5 20.0859C15.2765 20.0859 15.0621 20.1786 14.904 20.3435C14.7459 20.5084 14.6571 20.732 14.6571 20.9652V22.0994L13.6225 21.7492C13.5165 21.7103 13.4041 21.6939 13.2919 21.701C13.1797 21.7081 13.07 21.7385 12.9692 21.7905C12.8685 21.8425 12.7787 21.915 12.7052 22.0037C12.6317 22.0924 12.5759 22.1955 12.5412 22.3071C12.5065 22.4186 12.4935 22.5363 12.503 22.6531C12.5125 22.7699 12.5444 22.8836 12.5966 22.9874C12.6489 23.0912 12.7205 23.1831 12.8073 23.2576C12.8941 23.3321 12.9944 23.3878 13.1021 23.4212L14.136 23.7722L13.4968 24.6896C13.3654 24.8783 13.3112 25.1137 13.3462 25.3441C13.3812 25.5744 13.5024 25.7809 13.6833 25.918C13.8642 26.0551 14.0899 26.1116 14.3107 26.0751C14.5315 26.0386 14.7294 25.9121 14.8608 25.7234L15.5 24.8061L16.1392 25.7234C16.2706 25.9121 16.4685 26.0386 16.6893 26.0751C16.9101 26.1116 17.1358 26.0551 17.3167 25.918C17.4976 25.7809 17.6188 25.5744 17.6538 25.3441C17.6888 25.1137 17.6346 24.8783 17.5032 24.6896L16.864 23.7722L17.8979 23.4212C18.0056 23.3878 18.1059 23.3321 18.1927 23.2576C18.2795 23.1831 18.3511 23.0912 18.4034 22.9874C18.4556 22.8836 18.4875 22.7699 18.497 22.6531C18.5065 22.5363 18.4935 22.4186 18.4588 22.3071C18.4241 22.1955 18.3683 22.0924 18.2948 22.0037C18.2213 21.915 18.1315 21.8425 18.0308 21.7905C17.93 21.7385 17.8203 21.7081 17.7081 21.701C17.5959 21.6939 17.4835 21.7103 17.3775 21.7492Z" fill="#ea4b64"/>
<path id="Vector_2" d="M24.8775 21.7492L23.8429 22.0994V20.9652C23.8429 20.732 23.7541 20.5084 23.596 20.3435C23.4379 20.1786 23.2235 20.0859 23 20.0859C22.7765 20.0859 22.5621 20.1786 22.404 20.3435C22.2459 20.5084 22.1571 20.732 22.1571 20.9652V22.0994L21.1225 21.7492C21.0165 21.7103 20.9041 21.6939 20.7919 21.701C20.6797 21.7081 20.57 21.7385 20.4692 21.7905C20.3685 21.8425 20.2787 21.915 20.2052 22.0037C20.1317 22.0924 20.0759 22.1955 20.0412 22.3071C20.0065 22.4186 19.9935 22.5363 20.003 22.6531C20.0125 22.7699 20.0444 22.8836 20.0966 22.9874C20.1489 23.0912 20.2205 23.1831 20.3073 23.2576C20.3941 23.3321 20.4944 23.3878 20.6021 23.4212L21.636 23.7722L20.9968 24.6896C20.8654 24.8783 20.8112 25.1137 20.8462 25.3441C20.8812 25.5744 21.0024 25.7809 21.1833 25.918C21.3642 26.0551 21.5899 26.1116 21.8107 26.0751C22.0315 26.0386 22.2294 25.9121 22.3608 25.7234L23 24.8061L23.6392 25.7234C23.7706 25.9121 23.9685 26.0386 24.1893 26.0751C24.4101 26.1116 24.6358 26.0551 24.8167 25.918C24.9976 25.7809 25.1188 25.5744 25.1538 25.3441C25.1888 25.1137 25.1346 24.8783 25.0032 24.6896L24.364 23.7722L25.3979 23.4212C25.5056 23.3878 25.6059 23.3321 25.6927 23.2576C25.7795 23.1831 25.8511 23.0912 25.9034 22.9874C25.9556 22.8836 25.9875 22.7699 25.997 22.6531C26.0065 22.5363 25.9935 22.4186 25.9588 22.3071C25.9241 22.1955 25.8683 22.0924 25.7948 22.0037C25.7213 21.915 25.6315 21.8425 25.5308 21.7905C25.43 21.7385 25.3203 21.7081 25.2081 21.701C25.0959 21.6939 24.9835 21.7103 24.8775 21.7492Z" fill="#ea4b64"/>
<path id="Vector_3" d="M32.3775 21.7492L31.3429 22.0994V20.9652C31.3429 20.732 31.2541 20.5084 31.096 20.3435C30.9379 20.1786 30.7235 20.0859 30.5 20.0859C30.2765 20.0859 30.0621 20.1786 29.904 20.3435C29.7459 20.5084 29.6571 20.732 29.6571 20.9652V22.0994L28.6225 21.7492C28.5165 21.7103 28.4041 21.6939 28.2919 21.701C28.1797 21.7081 28.07 21.7385 27.9692 21.7905C27.8685 21.8425 27.7787 21.915 27.7052 22.0037C27.6317 22.0924 27.5759 22.1955 27.5412 22.3071C27.5065 22.4186 27.4935 22.5363 27.503 22.6531C27.5125 22.7699 27.5444 22.8836 27.5966 22.9874C27.6489 23.0912 27.7205 23.1831 27.8073 23.2576C27.8941 23.3321 27.9944 23.3878 28.1021 23.4212L29.136 23.7722L28.4968 24.6896C28.3654 24.8783 28.3112 25.1137 28.3462 25.3441C28.3812 25.5744 28.5024 25.7809 28.6833 25.918C28.8642 26.0551 29.0899 26.1116 29.3107 26.0751C29.5315 26.0386 29.7294 25.9121 29.8608 25.7234L30.5 24.8061L31.1392 25.7234C31.2706 25.9121 31.4685 26.0386 31.6893 26.0751C31.9101 26.1116 32.1358 26.0551 32.3167 25.918C32.4976 25.7809 32.6188 25.5744 32.6538 25.3441C32.6888 25.1137 32.6346 24.8783 32.5032 24.6896L31.864 23.7722L32.8979 23.4212C33.0056 23.3878 33.1059 23.3321 33.1927 23.2576C33.2795 23.1831 33.3511 23.0912 33.4034 22.9874C33.4556 22.8836 33.4875 22.7699 33.497 22.6531C33.5065 22.5363 33.4935 22.4186 33.4588 22.3071C33.4241 22.1955 33.3683 22.0924 33.2948 22.0037C33.2213 21.915 33.1315 21.8425 33.0308 21.7905C32.93 21.7385 32.8203 21.7081 32.7081 21.701C32.5959 21.6939 32.4835 21.7103 32.3775 21.7492Z" fill="#ea4b64"/>
</g>
</g>
</svg>
