<?xml version="1.0" standalone="no"?><!DOCTYPE svg PUBLIC "-//W3C//DTD SVG 1.1//EN" "http://www.w3.org/Graphics/SVG/1.1/DTD/svg11.dtd"><svg t="1716968197295" class="icon" viewBox="0 0 1024 1024" version="1.1" xmlns="http://www.w3.org/2000/svg" p-id="1227" width="32" height="32" xmlns:xlink="http://www.w3.org/1999/xlink"><path d="M818.390585 626.380426A238.328552 238.328552 0 0 1 991.98516 856.101247v57.182213C991.98516 974.369551 942.642702 1023.968001 881.780604 1023.968001H110.220716A110.460548 110.460548 0 0 1 0.01616 913.251461v-57.182213a238.328552 238.328552 0 0 1 173.594575-229.720821 1225.977688 1225.977688 0 0 1 167.514765-34.750914l115.900378 116.47636a54.942283 54.942283 0 0 0 77.949564 0l115.932377-116.47636a1225.241711 1225.241711 0 0 1 167.514765 34.782913h-0.031999zM496.00066 0c152.187244 0 275.543389 123.900128 275.543389 276.759351 0 152.827224-123.356145 276.727352-275.543389 276.727353S220.457271 429.586575 220.457271 276.79135C220.457271 123.900128 343.813416 0 496.00066 0z" fill="#0b0b0b" p-id="1228"></path></svg>