<svg width="26" height="26" viewBox="0 0 26 26" fill="currentColor" xmlns="http://www.w3.org/2000/svg">
<path fill-rule="evenodd" clip-rule="evenodd" d="M13 22.75C18.3848 22.75 22.75 18.3848 22.75 13C22.75 7.61522 18.3848 3.25 13 3.25C7.61522 3.25 3.25 7.61522 3.25 13C3.25 18.3848 7.61522 22.75 13 22.75ZM13 26C20.1797 26 26 20.1797 26 13C26 5.8203 20.1797 0 13 0C5.8203 0 0 5.8203 0 13C0 20.1797 5.8203 26 13 26Z" fill="currentColor"/>
<path d="M6.5 13C6.5 12.1025 7.22754 11.375 8.125 11.375H17.875C18.7725 11.375 19.5 12.1025 19.5 13C19.5 13.8975 18.7725 14.625 17.875 14.625H8.125C7.22754 14.625 6.5 13.8975 6.5 13Z" fill="currentColor"/>
<path d="M13 6.5C13.8975 6.5 14.625 7.22754 14.625 8.125V17.875C14.625 18.7725 13.8975 19.5 13 19.5C12.1025 19.5 11.375 18.7725 11.375 17.875L11.375 8.125C11.375 7.22754 12.1025 6.5 13 6.5Z" fill="currentColor"/>
</svg>
