<svg width="30" height="30" viewBox="0 0 30 30" fill="none" xmlns="http://www.w3.org/2000/svg">
<path d="M28.6419 3.0423C29.3362 2.34804 29.3362 1.22241 28.6419 0.528145C27.9477 -0.16612 26.822 -0.16612 26.1278 0.528145L14.5851 12.0708L3.0424 0.528147C2.34813 -0.166118 1.22251 -0.166118 0.528242 0.528147C-0.166023 1.22241 -0.166023 2.34804 0.528242 3.0423L12.0709 14.585L0.527779 26.1281C-0.166486 26.8224 -0.166486 27.948 0.527779 28.6423C1.22204 29.3366 2.34767 29.3366 3.04194 28.6423L14.5851 17.0992L26.1282 28.6423C26.8225 29.3366 27.9481 29.3366 28.6424 28.6423C29.3367 27.948 29.3367 26.8224 28.6424 26.1281L17.0992 14.585L28.6419 3.0423Z" fill="#999999"/>
</svg>
