<svg width="32" height="32" viewBox="0 0 32 32" fill="none" xmlns="http://www.w3.org/2000/svg">
<g id="single/qr" clip-path="url(#clip0_4606_3966)">
<path id="Vector" d="M0.989245 0H13.8064C15.1099 0.127376 14.7957 2.39123 14.7957 3.86207V10.8647C14.7957 12.3866 15.0862 14.252 14.0646 14.6844C13.3992 14.9659 11.6136 14.7692 10.7527 14.7692H3.95705C2.38614 14.7692 0.241124 15.1392 3.56919e-05 13.7931V0.976052C0.175736 0.498685 0.484677 0.152837 0.989245 0ZM2.75268 2.88595V12.0106H12V2.75857H2.79575C2.74565 2.76571 2.74907 2.82567 2.75268 2.88595ZM18.1935 0H31.0107C31.5335 0.191368 31.8928 0.544322 32 1.14585V13.6233C31.8827 14.1419 31.6084 14.5848 31.0968 14.7268C30.2607 14.959 28.8715 14.7692 27.8709 14.7692H21.2903C20.2979 14.7692 18.8272 14.9755 18.0215 14.7268C16.8841 14.3757 17.2043 12.1849 17.2043 10.6525V4.11672C17.2043 2.34737 16.8107 0.247254 18.1935 0ZM19.957 2.88595V12.0106H29.2043V2.75857H20C19.9499 2.76571 19.9533 2.82567 19.957 2.88595ZM6.96775 5.55964C8.25565 5.31985 9.26843 6.17852 9.29039 7.34219C9.31921 8.87674 7.7308 9.71964 6.49464 9.08229C5.08047 8.35288 5.17349 5.89381 6.96775 5.55964ZM24.172 5.55964C27.2055 5.00046 27.1474 9.74099 24.172 9.25202C22.2785 8.94084 22.2174 5.92006 24.172 5.55964ZM13.7204 32H1.03231C0.505533 31.8407 0.149667 31.5128 0 30.9815V18.207C0.125347 17.8331 0.41454 17.397 0.86022 17.2732C1.70223 17.0394 3.07737 17.2308 4.08597 17.2308H10.6667C11.6392 17.2308 13.0546 17.0166 13.9354 17.2732C15.1271 17.6204 14.7956 19.7755 14.7956 21.3051V28.053C14.7957 29.7039 15.1559 31.8527 13.7204 32ZM2.75268 20.1168V29.2414H12V19.9894H2.79575C2.74565 19.9966 2.74907 20.0565 2.75268 20.1168ZM32 18.3767V21.9417C31.8996 23.1441 31.9856 24.5304 31.9569 25.8037H22.7957V23.7242C21.9354 23.6251 20.8889 23.7099 19.957 23.6817C19.8566 26.3696 19.9427 29.2414 19.914 32H18.2365C16.7942 31.7147 17.2043 29.5793 17.2043 27.8834V21.305C17.2043 20.3159 17.0014 18.8331 17.2473 18.0371C17.5407 17.0875 18.8129 17.2308 20.086 17.2308H26.3225V22.8753H29.2042C29.2328 21.008 29.1468 19.0274 29.2472 17.2308C30.634 17.1497 31.9185 17.1697 32 18.3767ZM7.1828 22.748C8.55795 22.5978 9.69479 23.9019 9.16133 25.3369C8.42185 27.3259 4.8863 26.5783 5.54843 24.0636C5.73138 23.3686 6.26009 22.8488 7.1828 22.748ZM25.8925 32H22.7957C22.8243 30.9107 22.7383 29.7083 22.8387 28.6896H25.8925V32ZM32 28.6896V30.8541C31.8803 31.4577 31.5228 31.8262 30.9677 32H28.7741C28.8028 30.9107 28.7168 29.7083 28.8172 28.6896H32Z" fill="#999999"/>
</g>
<defs>
<clipPath id="clip0_4606_3966">
<rect width="32" height="32" fill="white"/>
</clipPath>
</defs>
</svg>
