<svg width="17" height="16" viewBox="0 0 17 16" fill="none" xmlns="http://www.w3.org/2000/svg">
<path d="M11.4109 11.0769H13.8724V8.61539H16.334V12.3077H13.8724V13.5385H11.4109V12.3077H8.94937V8.61539H11.4109V11.0769ZM0.333984 8.61539H7.7186V16H0.333984V8.61539ZM2.79552 11.0769V13.5385H5.25706V11.0769H2.79552ZM0.333984 0H7.7186V7.38461H0.333984V0ZM2.79552 2.46154V4.92308H5.25706V2.46154H2.79552ZM8.94937 0H16.334V7.38461H8.94937V0ZM11.4109 2.46154V4.92308H13.8724V2.46154H11.4109ZM13.8724 13.5385H16.334V16H13.8724V13.5385ZM8.94937 13.5385H11.4109V16H8.94937V13.5385Z" fill="#576072"/>
</svg>
