<svg width="355" height="213" viewBox="0 0 355 213" fill="none" xmlns="http://www.w3.org/2000/svg">
<path d="M122.494 73.3415V40.92L214.916 92.5349L232.294 106.282L221.227 127.55L122.494 73.3415Z" fill="#060606" stroke="#060606" stroke-width="1.5"/>
<path d="M103.814 151.169L103.954 51.3982L192.783 100.835L220.449 111.21L235.493 104.121V184.565C235.493 193.646 230.684 202.048 222.855 206.648L220.691 207.92C212.74 212.591 202.892 212.627 194.907 208.015L107.472 157.516C105.205 156.207 103.811 153.787 103.814 151.169Z" fill="white"/>
<mask id="mask0_2230_7119" style="mask-type:alpha" maskUnits="userSpaceOnUse" x="103" y="50" width="134" height="163">
<path d="M103.814 151.169L103.954 51.3982L192.783 100.835L220.449 111.21L235.493 104.121V184.565C235.493 193.646 230.684 202.048 222.855 206.648L220.691 207.92C212.74 212.591 202.892 212.627 194.907 208.015L107.472 157.516C105.205 156.207 103.811 153.787 103.814 151.169Z" fill="white" stroke="#060606" stroke-width="1.5"/>
</mask>
<g mask="url(#mask0_2230_7119)">
<path d="M235.656 88.3883H202.64V237.309H235.656V88.3883Z" fill="#B0F127"/>
</g>
<path d="M103.814 151.169L103.954 51.3982L192.783 100.835L220.449 111.21L235.493 104.121V184.565C235.493 193.646 230.684 202.048 222.855 206.648L220.691 207.92C212.74 212.591 202.892 212.627 194.907 208.015L107.472 157.516C105.205 156.207 103.811 153.787 103.814 151.169Z" stroke="#060606" stroke-width="1.5"/>
<path fill-rule="evenodd" clip-rule="evenodd" d="M123.998 38.4864C125.983 37.3405 129.201 37.3405 131.186 38.4864L230.321 95.7221C237.434 99.8284 237.434 106.486 230.321 110.593C223.209 114.699 211.677 114.699 204.564 110.593L105.429 53.3569C103.445 52.2109 103.445 50.3532 105.429 49.2072C107.414 48.0612 110.632 48.0612 112.617 49.2072L211.752 106.443C214.895 108.257 219.99 108.257 223.133 106.443C226.276 104.628 226.276 101.686 223.133 99.8722L123.998 42.6365C122.013 41.4905 122.013 39.6324 123.998 38.4864Z" fill="white" stroke="#060606" stroke-width="1.5"/>
<path fill-rule="evenodd" clip-rule="evenodd" d="M102.471 90.5812L99.0957 92.5295L107.101 97.1511C104.408 99.1299 102.775 102.824 102.775 107.901C102.775 110.116 104.33 112.811 106.249 113.919L137.935 132.212C138.643 132.621 139.328 132.905 139.979 133.072V137.963L143.005 136.216C144.405 135.407 145.54 133.441 145.54 131.825V127.867V127.822V116.921C145.54 114.495 143.837 111.547 141.737 110.335L129.97 103.541L129.979 103.536L107.54 90.5812C106.141 89.7729 103.87 89.7729 102.471 90.5812Z" fill="#C0C0C0"/>
<path d="M99.0955 92.5297L98.9561 92.2885L98.5381 92.5297L98.9561 92.7712L99.0955 92.5297ZM107.101 97.1513L107.266 97.3761L107.609 97.1234L107.24 96.9101L107.101 97.1513ZM139.979 133.072H140.257V132.855L140.048 132.802L139.979 133.072ZM139.979 137.963H139.7V138.446L140.118 138.204L139.979 137.963ZM145.539 127.867L145.261 127.866V127.867H145.539ZM145.539 127.822L145.818 127.822V127.822H145.539ZM129.97 103.541L129.831 103.3L129.413 103.541L129.831 103.782L129.97 103.541ZM129.978 103.536L130.118 103.777L130.536 103.536L130.118 103.295L129.978 103.536ZM99.2348 92.7712L102.61 90.8225L102.331 90.3398L98.9561 92.2885L99.2348 92.7712ZM107.24 96.9101L99.2348 92.2885L98.9561 92.7712L106.961 97.3928L107.24 96.9101ZM106.935 96.9269C104.147 98.9759 102.496 102.77 102.496 107.901H103.053C103.053 102.878 104.668 99.2847 107.266 97.3761L106.935 96.9269ZM102.496 107.901C102.496 109.069 102.904 110.344 103.551 111.464C104.198 112.585 105.098 113.576 106.11 114.16L106.389 113.677C105.481 113.154 104.644 112.244 104.033 111.186C103.423 110.128 103.053 108.948 103.053 107.901H102.496ZM106.11 114.16L137.795 132.454L138.074 131.971L106.389 113.677L106.11 114.16ZM137.795 132.454C138.522 132.873 139.231 133.168 139.91 133.342L140.048 132.802C139.425 132.643 138.763 132.369 138.074 131.971L137.795 132.454ZM139.7 133.072V137.963H140.257V133.072H139.7ZM140.118 138.204L143.144 136.457L142.865 135.974L139.839 137.721L140.118 138.204ZM143.144 136.457C143.896 136.023 144.562 135.288 145.038 134.463C145.515 133.637 145.818 132.694 145.818 131.825H145.261C145.261 132.573 144.996 133.421 144.555 134.184C144.115 134.948 143.513 135.601 142.865 135.974L143.144 136.457ZM145.818 131.825V127.867H145.261V131.825H145.818ZM145.818 127.867V127.822L145.261 127.821V127.866L145.818 127.867ZM145.818 127.822V116.921H145.261V127.822H145.818ZM145.818 116.921C145.818 115.648 145.373 114.257 144.667 113.034C143.961 111.811 142.979 110.73 141.877 110.093L141.598 110.576C142.595 111.152 143.514 112.152 144.185 113.312C144.855 114.473 145.261 115.769 145.261 116.921H145.818ZM141.877 110.093L130.109 103.3L129.831 103.782L141.598 110.576L141.877 110.093ZM129.839 103.294L129.831 103.3L130.109 103.782L130.118 103.777L129.839 103.294ZM107.401 90.8225L129.839 103.777L130.118 103.295L107.68 90.3398L107.401 90.8225ZM102.61 90.8225C103.257 90.4487 104.124 90.2536 105.005 90.2536C105.887 90.2536 106.753 90.4487 107.401 90.8225L107.68 90.3398C106.927 89.9054 105.959 89.6962 105.005 89.6962C104.052 89.6962 103.083 89.9054 102.331 90.3398L102.61 90.8225Z" fill="#060606"/>
<path d="M98.1025 94.9187C98.1025 92.6957 99.6629 91.795 101.588 92.9061L137.065 113.389C139.165 114.601 140.868 117.55 140.868 119.975V135.632C140.868 137.855 139.307 138.757 137.382 137.645L101.905 117.162C99.8049 115.95 98.1025 113.001 98.1025 110.576V94.9187Z" fill="white" stroke="#060606" stroke-width="1.5"/>
<mask id="mask1_2230_7119" style="mask-type:alpha" maskUnits="userSpaceOnUse" x="153" y="35" width="79" height="73">
<path d="M211.751 106.099C214.894 107.913 219.989 107.913 223.132 106.099L231.557 61.4582L175.626 35.2322L153.146 72.2965L211.751 106.099Z" fill="white"/>
</mask>
<g mask="url(#mask1_2230_7119)">
<path fill-rule="evenodd" clip-rule="evenodd" d="M215.267 111.621C218.97 108.666 221.2 103.384 221.2 96.2132C221.2 80.0254 209.835 60.3415 195.816 52.2475C188.437 47.9867 181.792 47.7872 177.154 50.9157L177.153 50.9142L177.109 50.9458C176.958 51.0491 176.808 51.1558 176.661 51.2661L172.234 54.4307L172.957 55.6031C171.339 58.5262 170.433 62.3303 170.433 66.9029C170.433 83.0904 181.798 102.774 195.816 110.868C200.684 113.678 205.231 114.722 209.093 114.209L209.882 115.488L215.281 111.644L215.267 111.621Z" fill="#B0F127"/>
<path d="M215.267 111.621L215.093 111.403L214.899 111.559L215.031 111.769L215.267 111.621ZM177.154 50.9156L176.918 51.0635L177.071 51.3076L177.31 51.1464L177.154 50.9156ZM177.153 50.9141L177.389 50.7662L177.232 50.5154L176.991 50.6874L177.153 50.9141ZM177.109 50.9457L177.266 51.1761L177.269 51.1742L177.271 51.1724L177.109 50.9457ZM176.661 51.266L176.823 51.4927L176.826 51.4908L176.828 51.489L176.661 51.266ZM172.233 54.4306L172.071 54.2039L171.86 54.3552L171.996 54.5766L172.233 54.4306ZM172.957 55.603L173.2 55.7379L173.279 55.5956L173.194 55.457L172.957 55.603ZM209.093 114.209L209.33 114.063L209.236 113.909L209.057 113.933L209.093 114.209ZM209.881 115.488L209.644 115.634L209.8 115.887L210.043 115.715L209.881 115.488ZM215.281 111.644L215.443 111.871L215.657 111.719L215.517 111.496L215.281 111.644ZM220.921 96.2131C220.921 103.331 218.708 108.518 215.093 111.403L215.441 111.839C219.231 108.813 221.479 103.436 221.479 96.2131H220.921ZM195.677 52.489C202.634 56.5056 208.948 63.4093 213.524 71.3345C218.1 79.2594 220.921 88.1794 220.921 96.2131H221.479C221.479 88.0586 218.618 79.0431 214.007 71.0558C209.395 63.0682 203.018 56.0831 195.956 52.0062L195.677 52.489ZM177.31 51.1464C181.828 48.0992 188.35 48.2586 195.677 52.489L195.956 52.0062C188.522 47.7146 181.757 47.4749 176.998 50.6844L177.31 51.1464ZM177.39 50.7673L177.389 50.7662L176.917 51.0624L176.918 51.0635L177.39 50.7673ZM176.991 50.6874L176.947 50.719L177.271 51.1724L177.315 51.1411L176.991 50.6874ZM176.828 51.489C176.972 51.3812 177.118 51.2768 177.266 51.1761L176.952 50.7153C176.797 50.8208 176.644 50.9301 176.494 51.043L176.828 51.489ZM176.499 51.0393L172.071 54.2039L172.396 54.6573L176.823 51.4927L176.499 51.0393ZM171.996 54.5766L172.719 55.7494L173.194 55.457L172.471 54.2842L171.996 54.5766ZM170.712 66.9028C170.712 62.3655 171.611 58.6104 173.2 55.7379L172.713 55.4681C171.068 58.4417 170.154 62.2949 170.154 66.9028H170.712ZM195.956 110.627C188.998 106.61 182.684 99.7062 178.109 91.7814C173.533 83.8561 170.712 74.9361 170.712 66.9028H170.154C170.154 75.0569 173.015 84.0724 177.626 92.0601C182.238 100.047 188.615 107.032 195.677 111.11L195.956 110.627ZM209.057 113.933C205.271 114.435 200.786 113.415 195.956 110.627L195.677 111.11C200.581 113.941 205.19 115.008 209.13 114.486L209.057 113.933ZM208.856 114.356L209.644 115.634L210.119 115.341L209.33 114.063L208.856 114.356ZM210.043 115.715L215.443 111.871L215.12 111.417L209.72 115.261L210.043 115.715ZM215.517 111.496L215.503 111.473L215.031 111.769L215.045 111.792L215.517 111.496Z" fill="#060606"/>
<mask id="mask2_2230_7119" style="mask-type:alpha" maskUnits="userSpaceOnUse" x="170" y="48" width="52" height="68">
<path fill-rule="evenodd" clip-rule="evenodd" d="M215.267 111.616C218.97 108.66 221.2 103.378 221.2 96.2076C221.2 80.0198 209.835 60.3358 195.816 52.2419C188.437 47.9811 181.792 47.7819 177.154 50.9101L177.153 50.909L177.109 50.9402C176.958 51.0435 176.808 51.1501 176.661 51.2605L172.234 54.4251L172.957 55.5975C171.339 58.5205 170.433 62.325 170.433 66.8973C170.433 83.0847 181.798 102.769 195.816 110.863C200.684 113.673 205.231 114.716 209.093 114.204L209.882 115.482L215.281 111.639L215.267 111.616Z" fill="#B0F127"/>
<path d="M215.267 111.616L215.093 111.398L214.899 111.553L215.031 111.764L215.267 111.616ZM177.154 50.9101L176.918 51.0583L177.071 51.3021L177.31 51.1412L177.154 50.9101ZM177.153 50.9089L177.389 50.7607L177.232 50.5102L176.991 50.6823L177.153 50.9089ZM177.109 50.9402L177.266 51.1706L177.269 51.1691L177.271 51.1672L177.109 50.9402ZM176.661 51.2605L176.823 51.4872L176.826 51.4857L176.828 51.4834L176.661 51.2605ZM172.233 54.4251L172.071 54.1984L171.86 54.3496L171.996 54.5715L172.233 54.4251ZM172.957 55.5975L173.2 55.7327L173.279 55.5901L173.194 55.4514L172.957 55.5975ZM209.093 114.204L209.33 114.058L209.236 113.904L209.057 113.928L209.093 114.204ZM209.881 115.482L209.644 115.629L209.8 115.882L210.043 115.709L209.881 115.482ZM215.281 111.639L215.443 111.866L215.657 111.713L215.517 111.491L215.281 111.639ZM220.921 96.2076C220.921 103.326 218.708 108.513 215.093 111.398L215.441 111.834C219.231 108.808 221.479 103.431 221.479 96.2076H220.921ZM195.677 52.4834C202.634 56.5001 208.948 63.4038 213.524 71.329C218.1 79.2539 220.921 88.1742 220.921 96.2076H221.479C221.479 88.0535 218.618 79.0376 214.007 71.0503C209.395 63.063 203.018 56.078 195.956 52.0007L195.677 52.4834ZM177.31 51.1412C181.828 48.094 188.35 48.2535 195.677 52.4834L195.956 52.0007C188.522 47.7091 181.757 47.4697 176.998 50.6789L177.31 51.1412ZM177.39 50.7618L177.389 50.7607L176.917 51.0572L176.918 51.0583L177.39 50.7618ZM176.991 50.6823L176.947 50.7135L177.271 51.1672L177.315 51.1356L176.991 50.6823ZM176.828 51.4834C176.972 51.3757 177.118 51.2716 177.266 51.1706L176.952 50.7101C176.797 50.8157 176.644 50.9249 176.494 51.0375L176.828 51.4834ZM176.499 51.0338L172.071 54.1984L172.396 54.6518L176.823 51.4872L176.499 51.0338ZM171.996 54.5715L172.719 55.7439L173.194 55.4514L172.471 54.2787L171.996 54.5715ZM170.712 66.8973C170.712 62.3603 171.611 58.6049 173.2 55.7327L172.713 55.4626C171.068 58.4362 170.154 62.2897 170.154 66.8973H170.712ZM195.956 110.621C188.998 106.605 182.684 99.7007 178.109 91.7758C173.533 83.8506 170.712 74.9306 170.712 66.8973H170.154C170.154 75.0514 173.015 84.0673 177.626 92.0545C182.238 100.042 188.615 107.027 195.677 111.104L195.956 110.621ZM209.057 113.928C205.271 114.43 200.786 113.41 195.956 110.621L195.677 111.104C200.581 113.935 205.19 115.003 209.13 114.48L209.057 113.928ZM208.856 114.35L209.644 115.629L210.119 115.336L209.33 114.058L208.856 114.35ZM210.043 115.709L215.443 111.866L215.12 111.412L209.72 115.255L210.043 115.709ZM215.517 111.491L215.503 111.468L215.031 111.764L215.045 111.787L215.517 111.491Z" fill="#060606"/>
</mask>
<g mask="url(#mask2_2230_7119)">
<path d="M251.518 80.0337L197.821 111.035L197.821 137.696L251.518 106.694L251.518 80.0337Z" fill="#B0F127"/>
</g>
<path d="M215.267 111.621L215.093 111.403L214.899 111.559L215.031 111.769L215.267 111.621ZM177.154 50.9156L176.918 51.0635L177.071 51.3076L177.31 51.1464L177.154 50.9156ZM177.153 50.9141L177.389 50.7662L177.232 50.5154L176.991 50.6874L177.153 50.9141ZM177.109 50.9457L177.266 51.1761L177.269 51.1742L177.271 51.1724L177.109 50.9457ZM176.661 51.266L176.823 51.4927L176.826 51.4908L176.828 51.489L176.661 51.266ZM172.233 54.4306L172.071 54.2039L171.86 54.3552L171.996 54.5766L172.233 54.4306ZM172.957 55.603L173.2 55.7379L173.279 55.5956L173.194 55.457L172.957 55.603ZM209.093 114.209L209.33 114.063L209.236 113.909L209.057 113.933L209.093 114.209ZM209.881 115.488L209.644 115.634L209.8 115.887L210.043 115.715L209.881 115.488ZM215.281 111.644L215.443 111.871L215.657 111.719L215.517 111.496L215.281 111.644ZM220.921 96.2131C220.921 103.331 218.708 108.518 215.093 111.403L215.441 111.839C219.231 108.813 221.479 103.436 221.479 96.2131H220.921ZM195.677 52.489C202.634 56.5056 208.948 63.4093 213.524 71.3345C218.1 79.2594 220.921 88.1794 220.921 96.2131H221.479C221.479 88.0586 218.618 79.0431 214.007 71.0558C209.395 63.0682 203.018 56.0831 195.956 52.0062L195.677 52.489ZM177.31 51.1464C181.828 48.0992 188.35 48.2586 195.677 52.489L195.956 52.0062C188.522 47.7146 181.757 47.4749 176.998 50.6844L177.31 51.1464ZM177.39 50.7673L177.389 50.7662L176.917 51.0624L176.918 51.0635L177.39 50.7673ZM176.991 50.6874L176.947 50.719L177.271 51.1724L177.315 51.1411L176.991 50.6874ZM176.828 51.489C176.972 51.3812 177.118 51.2768 177.266 51.1761L176.952 50.7153C176.797 50.8208 176.644 50.9301 176.494 51.043L176.828 51.489ZM176.499 51.0393L172.071 54.2039L172.396 54.6573L176.823 51.4927L176.499 51.0393ZM171.996 54.5766L172.719 55.7494L173.194 55.457L172.471 54.2842L171.996 54.5766ZM170.712 66.9028C170.712 62.3655 171.611 58.6104 173.2 55.7379L172.713 55.4681C171.068 58.4417 170.154 62.2949 170.154 66.9028H170.712ZM195.956 110.627C188.998 106.61 182.684 99.7062 178.109 91.7814C173.533 83.8561 170.712 74.9361 170.712 66.9028H170.154C170.154 75.0569 173.015 84.0724 177.626 92.0601C182.238 100.047 188.615 107.032 195.677 111.11L195.956 110.627ZM209.057 113.933C205.271 114.435 200.786 113.415 195.956 110.627L195.677 111.11C200.581 113.941 205.19 115.008 209.13 114.486L209.057 113.933ZM208.856 114.356L209.644 115.634L210.119 115.341L209.33 114.063L208.856 114.356ZM210.043 115.715L215.443 111.871L215.12 111.417L209.72 115.261L210.043 115.715ZM215.517 111.496L215.503 111.473L215.031 111.769L215.045 111.792L215.517 111.496Z" fill="#060606"/>
<path d="M191.144 114.196C205.163 122.289 216.528 115.728 216.528 99.5404C216.528 83.3527 205.163 63.6687 191.144 55.5748C177.125 47.481 165.761 54.0424 165.761 70.23C165.761 86.4177 177.125 106.102 191.144 114.196Z" fill="white" stroke="#060606" stroke-width="1.5"/>
<mask id="mask3_2230_7119" style="mask-type:alpha" maskUnits="userSpaceOnUse" x="165" y="51" width="53" height="68">
<path d="M191.144 114.196C205.163 122.289 216.528 115.728 216.528 99.5404C216.528 83.3527 205.163 63.6687 191.144 55.5748C177.125 47.481 165.761 54.0424 165.761 70.23C165.761 86.4177 177.125 106.102 191.144 114.196Z" fill="#B0F127" stroke="#060606" stroke-width="1.5"/>
</mask>
<g mask="url(#mask3_2230_7119)">
<path d="M217.896 101.323L164.2 70.3218L164.2 37.0721L217.896 68.0738L217.896 101.323Z" fill="white"/>
<path d="M191.144 114.196C205.163 122.289 216.528 115.728 216.528 99.5404C216.528 83.3527 205.163 63.6687 191.144 55.5748C177.125 47.481 165.761 54.0424 165.761 70.23C165.761 86.4177 177.125 106.102 191.144 114.196Z" stroke="#060606" stroke-width="1.5"/>
<path d="M197.852 96.0475L189.532 91.2441L191.087 86.0855L193.475 86.6704L193.981 84.9577L191.594 84.4148L194.126 75.9359V75.8106C194.126 75.5182 193.945 75.2049 193.692 75.0585L190.472 73.1997C190.219 73.0537 190.002 73.1373 189.93 73.3878L186.964 83.4122L184.576 82.8693L184.034 84.5192L186.421 85.0621L184.287 92.2256L196.984 99.5558C197.237 99.7022 197.454 99.6186 197.526 99.4098L198.25 96.9453V96.8201C198.286 96.5068 198.105 96.1936 197.852 96.0475Z" fill="#060606"/>
</g>
</g>
<path d="M212.931 51.8934L230.481 63.4098V74.5643L212.931 51.8934Z" fill="#060606" stroke="#060606" stroke-width="1.5" stroke-linecap="round" stroke-linejoin="round"/>
<path d="M248.032 51.8934L230.48 63.4098V74.5643L248.032 51.8934Z" fill="white" stroke="#060606" stroke-width="1.5" stroke-linecap="round" stroke-linejoin="round"/>
<path d="M248.032 51.8934L230.48 63.4098V74.5643L248.032 51.8934Z" fill="#B0F127" stroke="#060606" stroke-width="1.5" stroke-linecap="round" stroke-linejoin="round"/>
<path d="M212.931 51.8927L230.481 42.6163L248.032 51.8927L230.481 63.4091L212.931 51.8927Z" fill="white" stroke="#060606" stroke-width="1.5" stroke-linecap="round" stroke-linejoin="round"/>
<path d="M212.931 51.8927L230.481 42.6163L248.032 51.8927L230.481 63.4091L212.931 51.8927Z" fill="#060606" stroke="#060606" stroke-width="1.5" stroke-linecap="round" stroke-linejoin="round"/>
<path d="M230.48 24.0411V58.7302L248.032 47.0949L230.48 24.0411Z" fill="white" stroke="#060606" stroke-width="1.5" stroke-linecap="round" stroke-linejoin="round"/>
<path d="M230.48 24.0411V58.7302L248.032 47.0949L230.48 24.0411Z" fill="#B0F127" stroke="#060606" stroke-width="1.5" stroke-linecap="round" stroke-linejoin="round"/>
<path d="M230.481 24.0411V58.7302L212.931 47.0949L230.481 24.0411Z" fill="#547907" stroke="#060606" stroke-width="1.5" stroke-linecap="round" stroke-linejoin="round"/>
<path d="M94.2344 74.1144L88.437 95.75L101.328 91.4263L94.2344 74.1144Z" fill="#B0F127" stroke="#060606" stroke-width="1.5" stroke-linecap="round" stroke-linejoin="round"/>
<path d="M94.2346 74.1144L88.4372 95.75L79.436 85.5602L94.2346 74.1144Z" fill="#547907" stroke="#060606" stroke-width="1.5" stroke-linecap="round" stroke-linejoin="round"/>
<path fill-rule="evenodd" clip-rule="evenodd" d="M165.704 55.7975C168.626 53.4646 170.386 49.2963 170.386 43.6375C170.386 30.8616 161.416 15.3263 150.352 8.93838C144.528 5.57581 139.284 5.41818 135.624 7.88659L135.622 7.88443L135.525 7.95389C135.448 8.00758 135.371 8.06243 135.295 8.11847L131.74 10.6595L132.311 11.5858C131.034 13.8928 130.318 16.8956 130.318 20.5047C130.318 33.2806 139.288 48.8158 150.352 55.2037C154.194 57.4218 157.783 58.2453 160.832 57.8406L161.453 58.848L165.714 55.8146L165.704 55.7975Z" fill="#B0F127"/>
<mask id="mask4_2230_7119" style="mask-type:alpha" maskUnits="userSpaceOnUse" x="130" y="6" width="41" height="53">
<path fill-rule="evenodd" clip-rule="evenodd" d="M165.705 55.7964C168.627 53.4635 170.387 49.2952 170.387 43.6364C170.387 30.8605 161.417 15.3252 150.353 8.9373C144.529 5.57472 139.285 5.41708 135.625 7.88547L135.623 7.88335L135.526 7.9528C135.449 8.00646 135.372 8.06131 135.296 8.11735L131.741 10.6585L132.312 11.5847C131.035 13.8918 130.319 16.8945 130.319 20.5036C130.319 33.2795 139.289 48.8147 150.353 55.2026C154.195 57.4207 157.784 58.2442 160.833 57.8395L161.454 58.8469L165.715 55.8135L165.705 55.7964Z" fill="#B0F127"/>
</mask>
<g mask="url(#mask4_2230_7119)">
<path d="M194.315 30.8691L151.936 55.3367L151.936 76.3779L194.315 51.9103L194.315 30.8691Z" fill="#B0F127"/>
</g>
<path d="M146.665 57.8317C157.729 64.2196 166.698 59.0412 166.698 46.2653C166.698 33.4895 157.729 17.9542 146.665 11.5663C135.601 5.17842 126.631 10.3568 126.631 23.1327C126.631 35.9085 135.601 51.4438 146.665 57.8317Z" fill="white"/>
<mask id="mask5_2230_7119" style="mask-type:alpha" maskUnits="userSpaceOnUse" x="126" y="8" width="41" height="53">
<path d="M146.666 57.8317C157.73 64.2196 166.699 59.0412 166.699 46.2653C166.699 33.4895 157.73 17.9542 146.666 11.5663C135.602 5.17842 126.632 10.3568 126.632 23.1327C126.632 35.9085 135.602 51.4438 146.666 57.8317Z" fill="#B0F127"/>
</mask>
<g mask="url(#mask5_2230_7119)">
<path d="M167.779 47.6714L125.4 23.2039L125.4 -3.03785L167.779 21.4297L167.779 47.6714Z" fill="white"/>
<path d="M146.664 22.9574L146.527 23.4138V38.9403L146.664 39.1761L152.906 38.5196L146.664 22.9574Z" fill="#060606"/>
<path d="M146.665 22.9576L140.423 31.3126L146.665 39.1764V31.6403V22.9576Z" fill="#060606"/>
<path d="M146.664 40.5421L146.588 40.6056V46.1366L146.664 46.4402L152.91 39.8895L146.664 40.5421Z" fill="#060606"/>
<path d="M146.665 46.4382V40.5401L140.423 32.6783L146.665 46.4382Z" fill="#060606"/>
<path d="M146.665 39.1776L152.907 38.521L146.665 31.6416V39.1776Z" fill="#060606"/>
<path d="M140.423 31.3131L146.665 39.1768V31.6408L140.423 31.3131Z" fill="#060606"/>
</g>
<path d="M146.665 57.8317C157.729 64.2196 166.698 59.0412 166.698 46.2653C166.698 33.4895 157.729 17.9542 146.665 11.5663C135.601 5.17842 126.631 10.3568 126.631 23.1327C126.631 35.9085 135.601 51.4438 146.665 57.8317Z" stroke="#060606" stroke-width="1.5"/>
<path d="M71.9149 127.121L70.9945 126.852C69.6521 120.348 60.8313 113.786 50.1311 111.695C41.9239 110.083 34.8288 111.541 31.358 115.014L30.4375 114.745L29.5554 117.777C29.4404 118.084 29.3637 118.391 29.287 118.698L29.2678 118.794C29.1719 119.293 29.0952 119.791 29.0952 120.329C29.0952 127.351 38.5106 134.891 50.1311 137.155C60.8121 139.247 69.633 136.158 70.9753 130.191L71.9149 127.121Z" fill="#B0F127" stroke="#060606" stroke-width="0.728597" stroke-miterlimit="10"/>
<path d="M71.9862 127.011C73.9391 120.462 66.2337 112.379 54.7756 108.959C43.3175 105.539 32.4456 108.075 30.4927 114.625C28.5397 121.175 36.2452 129.257 47.7033 132.678C59.1614 136.098 70.0332 133.561 71.9862 127.011Z" fill="white" stroke="#060606" stroke-width="0.728597" stroke-miterlimit="10"/>
<path d="M56.6599 116.269C55.2025 114.428 52.7096 114.14 49.9867 114.389L48.2992 111.78L46.2857 112.106L47.954 114.639C47.4363 114.735 46.861 114.83 46.3624 114.926L44.6941 112.375L42.6807 112.701L44.3681 115.31C43.9079 115.387 43.5052 115.464 43.1025 115.54L43.0834 115.521L40.2837 115.982L41.3959 117.67C41.3959 117.67 42.8724 117.402 42.8724 117.421C43.7162 117.286 44.1956 117.632 44.4832 117.92L46.42 120.894C46.4583 120.874 46.5734 120.874 46.6309 120.855C46.5542 120.874 46.4967 120.894 46.42 120.894L49.1238 125.038C49.2196 125.249 49.2772 125.594 48.7019 125.69C48.7402 125.709 47.2254 125.94 47.2254 125.94L48.0499 127.897L50.677 127.455C51.1756 127.359 51.655 127.302 52.1344 127.225L53.8027 129.854L55.8353 129.547L54.1478 126.937C54.7039 126.841 55.2409 126.765 55.7586 126.669L57.4461 129.259L59.4596 128.933L57.7529 126.304C61.0703 125.594 63.0263 124.539 61.684 121.987C60.6293 119.934 58.8267 119.243 56.6215 119.186C57.5228 118.553 57.7337 117.593 56.6599 116.269ZM57.4844 122.352C58.7692 124.309 54.3204 124.808 52.9398 125.038L50.677 121.546C52.0385 121.316 56.1421 120.299 57.4844 122.352ZM53.3425 117.593C54.5122 119.378 50.7729 119.761 49.6032 119.934L47.5322 116.788C48.7019 116.596 52.1152 115.713 53.3425 117.593Z" fill="#060606"/>
<path d="M332.157 114.318C331.706 110.815 328.148 106.795 319.337 103.093C310.806 99.5092 298.53 96.7488 283.258 95.0222C252.771 91.5756 211.173 92.3362 165.737 98.1906C120.301 104.045 79.8689 113.854 51.2514 124.917C36.9154 130.458 25.7403 136.24 18.3968 141.869C10.8119 147.684 8.38922 152.475 8.8406 155.978C9.29198 159.481 12.85 163.502 21.6611 167.204C30.1918 170.787 42.4676 173.548 57.7401 175.274C88.2271 178.721 129.825 177.96 175.261 172.106C220.697 166.251 261.129 156.442 289.746 145.38C304.082 139.838 315.257 134.056 322.601 128.427C330.186 122.613 332.608 117.821 332.157 114.318Z" stroke="url(#paint0_linear_2230_7119)" stroke-width="7.28597"/>
<path d="M277.487 150.056L314.274 151.717L324.258 168.551L277.487 150.056Z" fill="#060606" stroke="#060606" stroke-width="1.86106" stroke-linecap="round" stroke-linejoin="round"/>
<path d="M330.459 118.603L314.284 151.702L324.268 168.536L330.459 118.603Z" fill="#B0F127" stroke="#060606" stroke-width="1.86106" stroke-linecap="round" stroke-linejoin="round"/>
<path d="M277.481 150.049L295.657 120.332L330.443 118.612L314.268 151.711L277.481 150.049Z" fill="#060606" stroke="#060606" stroke-width="1.86106" stroke-linecap="round" stroke-linejoin="round"/>
<path d="M279.05 92.3055L310.099 144.656L326.168 111.377L279.05 92.3055Z" fill="#B0F127" stroke="#060606" stroke-width="1.86106" stroke-linecap="round" stroke-linejoin="round"/>
<path d="M279.04 92.3005L310.089 144.651L273.195 142.809L279.04 92.3005Z" fill="#547907" stroke="#060606" stroke-width="1.86106" stroke-linecap="round" stroke-linejoin="round"/>
<defs>
<linearGradient id="paint0_linear_2230_7119" x1="175.726" y1="175.719" x2="165.271" y2="94.5775" gradientUnits="userSpaceOnUse">
<stop stop-color="#B0F127"/>
<stop offset="1" stop-color="#B0F127" stop-opacity="0"/>
</linearGradient>
</defs>
</svg>
