<svg width="391" height="349" viewBox="0 0 391 349" fill="none" xmlns="http://www.w3.org/2000/svg">
<path fill-rule="evenodd" clip-rule="evenodd" d="M211.518 7.76457C195.514 3.47632 179.064 12.9738 174.775 28.9778L109.765 271.6C105.477 287.604 114.974 304.054 130.978 308.342L252.95 341.025C268.954 345.313 285.404 335.815 289.692 319.811L354.703 77.1891C358.991 61.1851 349.493 44.735 333.489 40.4468L211.518 7.76457ZM207.089 21.9188C200.688 20.2035 194.108 24.0025 192.392 30.4041L129.11 266.578C127.394 272.979 131.193 279.559 137.595 281.275L260.754 314.275C267.155 315.99 273.735 312.191 275.451 305.789L338.733 69.616C340.448 63.2144 336.649 56.6343 330.248 54.919L207.089 21.9188Z" fill="#EAECEF"/>
<circle cx="238.279" cy="196.326" r="66.1747" transform="rotate(-9.44604 238.279 196.326)" stroke="#252730" stroke-width="14"/>
<mask id="path-3-outside-1_1212_63339" maskUnits="userSpaceOnUse" x="195.661" y="201.169" width="99.4491" height="73.1348" fill="black">
<rect fill="white" x="195.661" y="201.169" width="99.4491" height="73.1348"/>
<path fill-rule="evenodd" clip-rule="evenodd" d="M213.316 249.098C215.016 233.927 226.576 221.098 242.381 218.468C258.185 215.839 273.277 224.234 279.797 238.038C272.284 247.393 261.434 254.125 248.666 256.25C235.899 258.374 223.453 255.517 213.316 249.098Z"/>
</mask>
<path fill-rule="evenodd" clip-rule="evenodd" d="M213.316 249.098C215.016 233.927 226.576 221.098 242.381 218.468C258.185 215.839 273.277 224.234 279.797 238.038C272.284 247.393 261.434 254.125 248.666 256.25C235.899 258.374 223.453 255.517 213.316 249.098Z" fill="#D5ED86"/>
<path d="M213.316 249.098L203.378 247.985L202.681 254.201L207.966 257.547L213.316 249.098ZM279.797 238.038L287.594 244.299L291.511 239.422L288.839 233.766L279.797 238.038ZM223.253 250.212C224.469 239.367 232.744 230.209 244.022 228.332L240.739 208.604C220.408 211.986 205.562 228.487 203.378 247.985L223.253 250.212ZM244.022 228.332C255.3 226.456 266.094 232.441 270.756 242.309L288.839 233.766C280.459 216.026 261.071 205.221 240.739 208.604L244.022 228.332ZM272.001 231.776C265.967 239.289 257.275 244.68 247.025 246.385L250.308 266.114C265.593 263.571 278.601 255.497 287.594 244.299L272.001 231.776ZM247.025 246.385C236.775 248.091 226.806 245.804 218.665 240.65L207.966 257.547C220.1 265.23 235.023 268.657 250.308 266.114L247.025 246.385Z" fill="#252730" mask="url(#path-3-outside-1_1212_63339)"/>
<circle cx="235.816" cy="181.519" r="16.2576" transform="rotate(-9.44604 235.816 181.519)" fill="#83E5DA" stroke="#252730" stroke-width="10"/>
<circle cx="340.508" cy="120.262" r="26.5764" transform="rotate(-24.446 340.508 120.262)" fill="#D5ED86" stroke="#252730" stroke-width="15"/>
<circle cx="19.0764" cy="19.0764" r="26.5764" transform="matrix(0.995305 0.0967831 0.0967831 -0.995305 335.541 265.756)" fill="#83E5DA" stroke="#252730" stroke-width="15"/>
<line x1="290.276" y1="161.466" x2="318.71" y2="138.071" stroke="#252730" stroke-width="15"/>
<line y1="-7.5" x2="36.8214" y2="-7.5" transform="matrix(0.936342 0.351089 0.351089 -0.936342 298.142 218.874)" stroke="#252730" stroke-width="15"/>
<path d="M244.662 106.19L240.862 92.0058C240.479 90.5787 238.832 89.7772 237.187 90.2179L217.688 95.4427C216.043 95.8835 215.017 97.4014 215.399 98.8284L219.201 113.017C219.583 114.444 221.231 115.246 222.876 114.805L225.296 114.157L225.915 116.467C226.045 116.955 226.478 117.315 227.038 117.4C227.277 117.438 227.524 117.423 227.752 117.361C228.06 117.279 228.347 117.114 228.561 116.881L232.997 112.088L242.374 109.576C244.019 109.135 245.045 107.617 244.662 106.19Z" fill="#83E5DA"/>
<path d="M27.5636 231.221L50.9471 224.955L55.4225 241.658L32.039 247.924L27.5636 231.221ZM77.671 217.795L82.1464 234.497L58.7629 240.763L54.2875 224.06L77.671 217.795ZM76.7759 214.454L53.3924 220.72L48.917 204.017L72.3005 197.752L76.7759 214.454ZM45.5766 204.912L50.052 221.615L26.6685 227.881L22.1931 211.178L45.5766 204.912ZM35.8213 190.074L50.7964 198.72L47.338 204.71L32.3629 196.064L35.8213 190.074Z" fill="#D5ED86"/>
<path d="M41.3707 201.244L50.0165 186.269L56.0066 189.727L47.3607 204.702L41.3707 201.244Z" fill="#D5ED86"/>
</svg>
