<svg width="32" height="32" viewBox="0 0 32 32" fill="none" xmlns="http://www.w3.org/2000/svg">
<g clip-path="url(#clip0_638_2089)">
<path fill-rule="evenodd" clip-rule="evenodd" d="M14.4483 3.53662C8.42166 3.53662 3.53613 8.42214 3.53613 14.4487C3.53613 20.4753 8.42166 25.3609 14.4483 25.3609C20.4749 25.3609 25.3604 20.4753 25.3604 14.4487C25.3604 8.42214 20.4749 3.53662 14.4483 3.53662ZM0.536133 14.4487C0.536133 6.76529 6.7648 0.536621 14.4483 0.536621C22.1317 0.536621 28.3604 6.76529 28.3604 14.4487C28.3604 22.1322 22.1317 28.3609 14.4483 28.3609C6.7648 28.3609 0.536133 22.1322 0.536133 14.4487Z" fill="#999999"/>
<path fill-rule="evenodd" clip-rule="evenodd" d="M22.1537 22.1541C22.7394 21.5684 23.6892 21.5684 24.275 22.1541L31.0241 28.9032C31.6099 29.489 31.6099 30.4388 31.0241 31.0246C30.4383 31.6103 29.4885 31.6103 28.9028 31.0246L22.1537 24.2755C21.5679 23.6897 21.5679 22.7399 22.1537 22.1541Z" fill="#999999"/>
</g>
<defs>
<clipPath id="clip0_638_2089">
<rect width="32" height="32" fill="white"/>
</clipPath>
</defs>
</svg>
