<svg width="120" height="120" viewBox="0 0 120 120" fill="none" xmlns="http://www.w3.org/2000/svg">
<path d="M59.5004 45.6569C60.485 45.6569 61.4292 46.048 62.1254 46.7442C62.8216 47.4404 63.2128 48.3847 63.2128 49.3693V64.219C63.2128 65.2036 62.8216 66.1478 62.1254 66.844C61.4292 67.5403 60.485 67.9314 59.5004 67.9314C58.5158 67.9314 57.5715 67.5403 56.8753 66.844C56.1791 66.1478 55.7879 65.2036 55.7879 64.219V49.3693C55.7879 48.8818 55.884 48.399 56.0705 47.9486C56.2571 47.4982 56.5306 47.089 56.8753 46.7442C57.22 46.3995 57.6293 46.126 58.0797 45.9395C58.5301 45.7529 59.0128 45.6569 59.5004 45.6569ZM56.8757 72.7316C57.5718 72.0354 58.5159 71.6444 59.5004 71.6444C60.4848 71.6444 61.4289 72.0354 62.125 72.7316C62.8211 73.4277 63.2122 74.3718 63.2122 75.3562C63.2122 76.3407 62.8211 77.2848 62.125 77.9809C61.4289 78.677 60.4848 79.0681 59.5004 79.0681C58.5159 79.0681 57.5718 78.677 56.8757 77.9809C56.1796 77.2848 55.7885 76.3407 55.7885 75.3562C55.7885 74.3718 56.1796 73.4277 56.8757 72.7316ZM59.5004 30.4248C58.2047 30.4248 57.0056 31.1005 56.33 32.2031L24.9229 84.6336C24.5992 85.1918 24.4267 85.8248 24.4224 86.47C24.4182 87.1153 24.5825 87.7505 24.8989 88.3129C25.2153 88.8753 25.673 89.3453 26.2267 89.6767C26.7804 90.008 27.411 90.1892 28.0562 90.2022H90.9037C91.5468 90.1952 92.1771 90.0212 92.7328 89.6972C93.2885 89.3733 93.7504 88.9106 94.0734 88.3544C94.3964 87.7982 94.5694 87.1676 94.5754 86.5245C94.5814 85.8813 94.4201 85.2476 94.1075 84.6855L62.6745 32.2105C62.3434 31.6652 61.8774 31.2145 61.3214 30.9017C60.7655 30.5889 60.1383 30.4247 59.5004 30.4248ZM59.5004 23C63.3947 23 67.0032 25.0344 69.0338 28.3793L100.508 80.9249C101.482 82.6119 101.996 84.525 102 86.4731C102.004 88.4212 101.496 90.3361 100.528 92.0268C99.5605 93.7175 98.1662 95.1247 96.4845 96.1081C94.8028 97.0914 92.8926 97.6164 90.9445 97.6307H28.0153C26.0656 97.6094 24.1557 97.0766 22.4765 96.0855C20.7973 95.0945 19.4078 93.68 18.4467 91.9834C17.4857 90.2869 16.9869 88.3678 17.0003 86.418C17.0136 84.4682 17.5386 82.5561 18.5227 80.8729L49.9669 28.3793C50.9592 26.7385 52.3579 25.3813 54.0279 24.439C55.698 23.4967 57.5828 23.0011 59.5004 23Z" fill="#EF892A" stroke="#EF892A" stroke-width="0.6"/>
</svg>
