<svg width="120" height="120" viewBox="0 0 120 120" fill="none" xmlns="http://www.w3.org/2000/svg">
<path d="M35.1109 48.9997C35.1109 35.2541 46.2535 24.1108 59.9997 24.1108C73.7459 24.1108 84.8892 35.2541 84.8892 48.9997C84.8892 62.7459 73.7459 73.8896 59.9997 73.8896C46.2535 73.8896 35.1109 62.7458 35.1109 48.9997ZM28 48.9997C28 66.6747 42.3259 81.0017 59.9997 81.0017C77.6736 81.0017 92 66.6747 92 48.9997C92 31.3259 77.6736 17 59.9997 17C42.3259 17 28 31.3259 28 48.9997ZM52.8887 98.779C52.8887 100.741 54.4807 102.335 56.4442 102.335H63.5558C65.5193 102.335 67.1113 100.742 67.1113 98.779C67.1113 96.8144 65.5193 95.2235 63.5558 95.2235H56.4442C54.4807 95.2235 52.8887 96.8144 52.8887 98.779ZM45.7779 88.1125C45.7779 90.0745 47.3697 91.668 49.3328 91.668H70.6666C72.6302 91.668 74.2221 90.0745 74.2221 88.1125C74.2221 86.1473 72.6302 84.5559 70.6666 84.5559H49.3328C47.3691 84.5561 45.7779 86.1473 45.7779 88.1125Z" fill="#3EB6EF" stroke="#3EB6EF" stroke-width="0.6"/>
</svg>
