<svg width="40" height="40" viewBox="0 0 40 40" fill="none" xmlns="http://www.w3.org/2000/svg">
<g id="security-d">
<path id="Rectangle 6310" d="M7.91602 11.3469C7.91602 10.5192 8.406 9.76998 9.16431 9.43822L19.1643 5.06322C19.6966 4.83032 20.3021 4.83032 20.8344 5.06322L30.8344 9.43822C31.5927 9.76998 32.0827 10.5192 32.0827 11.3469V25.0002C32.0827 25.6559 31.7739 26.2734 31.2493 26.6668L21.2493 34.1668C20.5086 34.7224 19.4901 34.7224 18.7493 34.1668L8.74935 26.6668C8.22475 26.2734 7.91602 25.6559 7.91602 25.0002V11.3469Z" stroke="#F5F5F5" stroke-width="2.5"/>
<path id="Line 293" d="M15.0828 19.5241L17.8269 22.2682C18.1523 22.5936 18.68 22.5936 19.0054 22.2682L25.0872 16.1864" stroke="#ea4b64" stroke-width="2.5" stroke-linecap="round"/>
</g>
</svg>
