<svg width="24" height="24" viewBox="0 0 24 24" fill="none" xmlns="http://www.w3.org/2000/svg">
<g id="security-d">
<path id="Rectangle 6310" d="M4.75 6.80803C4.75 6.31141 5.04399 5.86189 5.49898 5.66283L11.499 3.03783C11.8184 2.8981 12.1816 2.8981 12.501 3.03783L18.501 5.66283C18.956 5.86189 19.25 6.31141 19.25 6.80803V15C19.25 15.3934 19.0648 15.7639 18.75 16L12.75 20.5C12.3056 20.8333 11.6944 20.8333 11.25 20.5L5.25 16C4.93524 15.7639 4.75 15.3934 4.75 15V6.80803Z" stroke="#111111" stroke-width="1.5"/>
<path id="Line 293" d="M9.04984 11.7146L10.6963 13.361C10.8915 13.5563 11.2081 13.5563 11.4034 13.361L15.0525 9.71191" stroke="#ea4b64" stroke-width="1.5" stroke-linecap="round"/>
</g>
</svg>
