<svg width="522" height="522" viewBox="0 0 522 522" fill="none" xmlns="http://www.w3.org/2000/svg">
<path d="M449.796 102.183L424.011 77.8311L260.71 257.845L449.796 102.183Z" fill="url(#paint0_linear_3125_14650)"/>
<path d="M449.796 413.029L424.011 437.381L260.71 257.367L449.796 413.029Z" fill="url(#paint1_linear_3125_14650)"/>
<path d="M504.483 281.278L503.471 245.826L260.71 257.644L504.483 281.278Z" fill="url(#paint2_linear_3125_14650)"/>
<path d="M71.9074 102.183L97.6918 77.8311L260.993 257.845L71.9074 102.183Z" fill="url(#paint3_linear_3125_14650)"/>
<path d="M71.9074 413.029L97.6918 437.381L260.993 257.367L71.9074 413.029Z" fill="url(#paint4_linear_3125_14650)"/>
<path d="M17.2197 281.278L18.2326 245.826L260.993 257.644L17.2197 281.278Z" fill="url(#paint5_linear_3125_14650)"/>
<path d="M240.424 504.483L275.876 503.47L264.059 260.71L240.424 504.483Z" fill="url(#paint6_linear_3125_14650)"/>
<path d="M240.424 17.2194L275.876 18.2323L264.059 260.993L240.424 17.2194Z" fill="url(#paint7_linear_3125_14650)"/>
<defs>
<linearGradient id="paint0_linear_3125_14650" x1="260.71" y1="257.845" x2="435.949" y2="91.6783" gradientUnits="userSpaceOnUse">
<stop stop-color="#B0F127"/>
<stop offset="1" stop-color="#B0F127" stop-opacity="0"/>
</linearGradient>
<linearGradient id="paint1_linear_3125_14650" x1="260.71" y1="257.367" x2="435.949" y2="423.533" gradientUnits="userSpaceOnUse">
<stop stop-color="#B0F127"/>
<stop offset="1" stop-color="#B0F127" stop-opacity="0"/>
</linearGradient>
<linearGradient id="paint2_linear_3125_14650" x1="260.71" y1="257.644" x2="502.12" y2="264.059" gradientUnits="userSpaceOnUse">
<stop stop-color="#B0F127"/>
<stop offset="1" stop-color="#B0F127" stop-opacity="0"/>
</linearGradient>
<linearGradient id="paint3_linear_3125_14650" x1="260.993" y1="257.845" x2="85.7545" y2="91.6783" gradientUnits="userSpaceOnUse">
<stop stop-color="#B0F127"/>
<stop offset="1" stop-color="#B0F127" stop-opacity="0"/>
</linearGradient>
<linearGradient id="paint4_linear_3125_14650" x1="260.993" y1="257.367" x2="85.7545" y2="423.533" gradientUnits="userSpaceOnUse">
<stop stop-color="#B0F127"/>
<stop offset="1" stop-color="#B0F127" stop-opacity="0"/>
</linearGradient>
<linearGradient id="paint5_linear_3125_14650" x1="260.993" y1="257.644" x2="19.5831" y2="264.059" gradientUnits="userSpaceOnUse">
<stop stop-color="#B0F127"/>
<stop offset="1" stop-color="#B0F127" stop-opacity="0"/>
</linearGradient>
<linearGradient id="paint6_linear_3125_14650" x1="264.059" y1="260.71" x2="257.644" y2="502.119" gradientUnits="userSpaceOnUse">
<stop stop-color="#B0F127"/>
<stop offset="1" stop-color="#B0F127" stop-opacity="0"/>
</linearGradient>
<linearGradient id="paint7_linear_3125_14650" x1="264.059" y1="260.993" x2="257.644" y2="19.5829" gradientUnits="userSpaceOnUse">
<stop stop-color="#B0F127"/>
<stop offset="1" stop-color="#B0F127" stop-opacity="0"/>
</linearGradient>
</defs>
</svg>
