<svg width="23" height="25" viewBox="0 0 23 25" fill="none" xmlns="http://www.w3.org/2000/svg">
<path d="M8.94527 0.419195C10.5636 0.0798287 12.2347 0.0790116 13.8534 0.416795C13.9612 1.12859 14.2281 1.80692 14.6342 2.40138C15.0402 2.99584 15.5751 3.49114 16.1989 3.85045C16.8222 4.21101 17.5188 4.42641 18.2369 4.48062C18.955 4.53483 19.676 4.42647 20.3464 4.16359C21.4481 5.39699 22.2826 6.84505 22.7975 8.41667C22.2352 8.86607 21.7814 9.43639 21.4699 10.0853C21.1583 10.7341 20.997 11.4449 20.9979 12.1647C20.9979 13.6811 21.7009 15.0332 22.7999 15.9127C22.282 17.483 21.4464 18.9299 20.3452 20.1633C19.675 19.9006 18.9541 19.7924 18.2363 19.8466C17.5185 19.9008 16.8221 20.1161 16.1989 20.4765C15.5756 20.8357 15.0412 21.3307 14.6353 21.9247C14.2295 22.5187 13.9626 23.1965 13.8546 23.9077C12.2364 24.2479 10.5653 24.2495 8.94647 23.9125C8.83915 23.2001 8.57252 22.521 8.16642 21.9259C7.76033 21.3308 7.22524 20.835 6.60098 20.4753C5.97755 20.1149 5.2809 19.8997 4.56284 19.8457C3.84478 19.7917 3.12379 19.9003 2.45347 20.1633C1.35163 18.9296 0.517094 17.4811 0.00239959 15.9091C0.56435 15.4599 1.01793 14.89 1.32947 14.2415C1.64102 13.5931 1.80253 12.8828 1.80201 12.1635C1.8026 11.4435 1.64089 10.7326 1.32891 10.0837C1.01693 9.43484 0.562707 8.86463 0 8.41547C0.51789 6.84516 1.35345 5.39824 2.45467 4.16479C3.12491 4.42748 3.84573 4.53574 4.56357 4.48153C5.2814 4.42732 5.97779 4.21203 6.60098 3.85165C7.2243 3.49245 7.75871 2.99747 8.16455 2.40345C8.57039 1.80944 8.83723 1.13165 8.94527 0.420395V0.419195ZM11.3999 15.7639C12.3545 15.7639 13.27 15.3847 13.945 14.7097C14.62 14.0347 14.9992 13.1192 14.9992 12.1647C14.9992 11.2101 14.62 10.2946 13.945 9.61963C13.27 8.94464 12.3545 8.56544 11.3999 8.56544C10.4454 8.56544 9.52989 8.94464 8.8549 9.61963C8.17992 10.2946 7.80072 11.2101 7.80072 12.1647C7.80072 13.1192 8.17992 14.0347 8.8549 14.7097C9.52989 15.3847 10.4454 15.7639 11.3999 15.7639Z" fill="#D5ED86"/>
</svg>
