<svg width="24" height="24" viewBox="0 0 24 24" fill="none" xmlns="http://www.w3.org/2000/svg">
<g clip-path="url(#clip0_312_3983)">
<path d="M9.94527 0.255133C11.5636 -0.0842338 13.2347 -0.0850509 14.8534 0.252733C14.9612 0.964524 15.2281 1.64286 15.6342 2.23732C16.0402 2.83178 16.5751 3.32708 17.1989 3.68639C17.8222 4.04695 18.5188 4.26235 19.2369 4.31656C19.955 4.37077 20.676 4.26241 21.3464 3.99952C22.4481 5.23293 23.2826 6.68099 23.7975 8.25261C23.2352 8.702 22.7814 9.27233 22.4699 9.9212C22.1583 10.5701 21.997 11.2808 21.9979 12.0006C21.9979 13.5171 22.7009 14.8692 23.7999 15.7486C23.282 17.3189 22.4464 18.7658 21.3452 19.9993C20.675 19.7366 19.9541 19.6283 19.2363 19.6825C18.5185 19.7367 17.8221 19.952 17.1989 20.3124C16.5756 20.6716 16.0412 21.1666 15.6353 21.7606C15.2295 22.3546 14.9626 23.0324 14.8546 23.7437C13.2364 24.0838 11.5653 24.0855 9.94647 23.7485C9.83915 23.036 9.57252 22.357 9.16642 21.7619C8.76033 21.1667 8.22524 20.6709 7.60098 20.3112C6.97755 19.9508 6.2809 19.7357 5.56284 19.6817C4.84478 19.6276 4.12379 19.7362 3.45347 19.9993C2.35163 18.7655 1.51709 17.317 1.0024 15.745C1.56435 15.2958 2.01793 14.7259 2.32947 14.0775C2.64102 13.4291 2.80253 12.7188 2.80201 11.9994C2.8026 11.2794 2.64089 10.5686 2.32891 9.91967C2.01693 9.27078 1.56271 8.70057 1 8.25141C1.51789 6.68109 2.35345 5.23418 3.45467 4.00072C4.12491 4.26342 4.84573 4.37168 5.56357 4.31747C6.2814 4.26326 6.97779 4.04797 7.60098 3.68759C8.2243 3.32839 8.75871 2.83341 9.16455 2.23939C9.57039 1.64538 9.83723 0.967588 9.94527 0.256332V0.255133ZM12.3999 15.5998C13.3545 15.5998 14.27 15.2206 14.945 14.5456C15.62 13.8706 15.9992 12.9552 15.9992 12.0006C15.9992 11.046 15.62 10.1305 14.945 9.45556C14.27 8.78058 13.3545 8.40137 12.3999 8.40137C11.4454 8.40137 10.5299 8.78058 9.8549 9.45556C9.17992 10.1305 8.80072 11.046 8.80072 12.0006C8.80072 12.9552 9.17992 13.8706 9.8549 14.5456C10.5299 15.2206 11.4454 15.5998 12.3999 15.5998Z" fill="#808899"/>
</g>
<defs>
<clipPath id="clip0_312_3983">
<rect width="24" height="24" fill="white"/>
</clipPath>
</defs>
</svg>
