<svg width="32" height="32" viewBox="0 0 32 32" fill="none" xmlns="http://www.w3.org/2000/svg">
<path d="M31.584 16.2658L22.0689 2.65699C21.9039 2.41904 21.6933 2.2162 21.4493 2.06025C21.2053 1.90429 20.9328 1.79832 20.6476 1.74848C20.3623 1.69863 20.07 1.70591 19.7876 1.76988C19.5052 1.83385 19.2383 1.95324 19.0024 2.12114L5.10335 18.8079C4.62549 19.1501 4.3019 19.6669 4.20286 20.2462C4.10381 20.8255 4.23731 21.4205 4.57435 21.9019L7.74605 26.4378C8.04176 26.8636 8.4794 27.1702 8.98059 27.3028C9.48177 27.4353 10.0138 27.385 10.4813 27.1611L11.0377 28.7412C11.457 29.926 12.7195 30.5578 13.8586 30.1499L19.2857 28.2053C20.4248 27.7986 21.0098 26.5064 20.5928 25.3193L19.9609 23.5335L31.0562 19.3609C31.5334 19.018 31.8564 18.501 31.9552 17.9217C32.054 17.3424 31.9206 16.7475 31.584 16.2658ZM17.6199 26.8114L14.2551 28.05C13.6004 28.291 12.8943 27.97 12.6761 27.3347L12.3528 26.3944L18.0723 24.243L18.4105 25.2256C18.6287 25.8608 18.2734 26.5704 17.6199 26.8114ZM2.80684 22.5555C2.73774 22.4552 2.64927 22.3699 2.54664 22.3044C2.44402 22.2389 2.32931 22.1946 2.2093 22.1742C2.08928 22.1537 1.96639 22.1575 1.84787 22.1853C1.72934 22.2131 1.61759 22.2644 1.5192 22.3361L0.392654 23.1542C0.192819 23.3016 0.0585043 23.5212 0.018374 23.7663C-0.0217564 24.0113 0.0354756 24.2624 0.177856 24.4658L3.93339 29.8277C4.00259 29.9279 4.09111 30.0131 4.19374 30.0785C4.29637 30.1439 4.41104 30.1881 4.53101 30.2086C4.65099 30.229 4.77383 30.2253 4.89233 30.1975C5.01083 30.1698 5.12259 30.1187 5.22103 30.0471L6.34758 29.2279C6.54741 29.0805 6.68173 28.8609 6.72186 28.6158C6.76199 28.3708 6.70475 28.1197 6.56237 27.9163L2.80684 22.5555Z" fill="url(#paint0_linear_3208_4106)"/>
<defs>
<linearGradient id="paint0_linear_3208_4106" x1="15.9964" y1="1.71582" x2="25" y2="25" gradientUnits="userSpaceOnUse">
<stop stop-color="#FCA70C"/>
<stop offset="0.458912" stop-color="#FCB90C"/>
<stop offset="1" stop-color="#FC8E0C"/>
</linearGradient>
</defs>
</svg>
