<svg width="40" height="40" viewBox="0 0 40 40" fill="none" xmlns="http://www.w3.org/2000/svg">
<path d="M20.8333 8.3384C22.2442 6.32376 24.5821 5 27.2143 5C31.4964 5 34.9999 8.50354 34.9999 12.7856C34.9999 15.3035 33.7886 17.5522 31.9199 18.9777" stroke="#ea4b64" stroke-width="2.5" stroke-linecap="round"/>
<path fill-rule="evenodd" clip-rule="evenodd" d="M16.25 12.5C10.0625 12.5 5 17.5625 5 23.75C5 29.9375 10.0625 35 16.25 35C22.4375 35 27.5 29.9375 27.5 23.75C27.5 17.5625 22.4375 12.5 16.25 12.5Z" stroke="#F5F5F5" stroke-width="2.5" stroke-linecap="round"/>
<path d="M10 6.66667H7.5C7.03976 6.66667 6.66667 7.03976 6.66667 7.5V10" stroke="#F5F5F5" stroke-width="2.5" stroke-linecap="round"/>
<path d="M30 33.3333L32.5 33.3333C32.9602 33.3333 33.3333 32.9602 33.3333 32.5L33.3333 30" stroke="#F5F5F5" stroke-width="2.5" stroke-linecap="round"/>
</svg>
