<svg width="36" height="36" viewBox="0 0 36 36" fill="none" xmlns="http://www.w3.org/2000/svg">
<g id="tablet" clip-path="url(#clip0_654_971)">
<g id="Group 40227">
<path id="Vector" d="M17.625 27H17.64M14.25 27H21.75" stroke="#ea4b64" stroke-width="2.45455" stroke-linecap="round" stroke-linejoin="round"/>
<path id="Union" fill-rule="evenodd" clip-rule="evenodd" d="M6.13814 6.22107C6.13814 5.39057 6.92909 4.50289 8.18359 4.50289H27.0927C28.3472 4.50289 29.1381 5.39057 29.1381 6.22107V7.44834H31.5927V6.22107C31.5927 3.7981 29.4531 2.04834 27.0927 2.04834H8.18359C5.82314 2.04834 3.68359 3.7981 3.68359 6.22107V29.7847C3.68359 32.2077 5.82314 33.9574 8.18359 33.9574H27.0927C28.1586 33.9574 29.3469 33.7181 30.26 32.8351C31.1794 31.946 31.5927 30.6254 31.5927 28.9665V26.0029V24.7756H29.1381V26.0029V28.9665C29.1381 30.2531 28.8188 30.8143 28.5537 31.0707C28.2823 31.3331 27.8343 31.5029 27.0927 31.5029H8.18359C6.92909 31.5029 6.13814 30.6152 6.13814 29.7847V6.22107ZM35.8802 14.7608C35.8842 14.7735 35.8869 14.7948 35.8895 14.8204C35.9243 15.0348 36.0033 15.5388 36.0006 15.9505C36.0006 16.3963 35.9203 16.8833 35.8855 17.092C35.8844 17.0981 35.8835 17.1038 35.8826 17.1091C35.8801 17.1235 35.8781 17.1348 35.8761 17.1431V17.1531L35.8708 17.1815C35.7851 17.6827 35.4866 17.995 35.0877 17.995H35.0207C34.3728 17.995 33.8427 18.5544 33.8427 19.2444V19.2586L33.84 19.2728C33.8186 19.4986 33.9324 19.7499 33.9351 19.7513L33.9377 19.757L33.9404 19.7626C34.1265 20.2042 33.9779 20.7608 33.6124 21.0035L33.6071 21.0092L32.1519 21.8625L32.1466 21.8653C31.9913 21.9463 31.8547 22.0002 31.67 22.0002C31.3969 22.0002 31.1305 21.8824 30.9378 21.6808C30.5562 21.2761 30.1774 21.0248 29.9511 21.0248C29.6473 21.0248 29.1868 21.4451 29.0154 21.6041C29.0084 21.6105 29.0017 21.6169 28.9952 21.6231C28.9846 21.6334 28.9746 21.643 28.9645 21.651C28.7972 21.8497 28.5295 21.9704 28.2323 21.9704C28.0984 21.9704 27.9807 21.9297 27.8766 21.8938L27.8641 21.8895L27.8374 21.8795L26.4184 21.0419L26.4077 21.0362C26.0141 20.7579 25.8454 20.2056 26.0235 19.7754C26.0529 19.6959 26.1225 19.4702 26.1225 19.3112C26.1225 18.624 25.5951 18.0617 24.9445 18.0617H24.9124C24.5308 18.0617 24.2243 17.7451 24.1292 17.2539L24.1239 17.2227V17.2113C24.1199 17.1985 24.1172 17.1772 24.1145 17.1517C24.0797 16.9373 24.0007 16.4318 24.0007 16.0187C24.0007 15.614 24.0778 15.1207 24.1124 14.8992L24.1145 14.8857C24.116 14.8764 24.1176 14.8679 24.1191 14.8601C24.1217 14.8465 24.1239 14.8351 24.1239 14.8261V14.8161L24.1292 14.7877C24.2149 14.2865 24.5134 13.9742 24.9124 13.9742H24.9753C25.6232 13.9742 26.1533 13.4148 26.1533 12.7248C26.1533 12.5189 26.0623 12.2832 26.0328 12.2137L26.0301 12.208L26.0275 12.2023C25.8414 11.7608 25.99 11.2042 26.3554 10.9614L26.3648 10.9557L27.8708 10.0911L27.8949 10.0812C28.002 10.0428 28.1225 10.0002 28.2657 10.0002C28.5388 10.0002 28.8052 10.1181 28.998 10.3197C29.2242 10.5582 29.6847 10.9103 29.9565 10.9103C30.2296 10.9103 30.6888 10.5568 30.915 10.3197C31.0957 10.128 31.3875 10.0002 31.6473 10.0002C31.7834 10.0002 31.9055 10.0423 32.011 10.0787L32.0181 10.0812L32.0448 10.0911L33.4812 10.9529C33.9377 11.2184 34.1345 11.7395 33.9498 12.1966C33.9203 12.2761 33.8507 12.5019 33.8507 12.6609C33.8507 13.3481 34.3782 13.9103 35.0288 13.9103H35.0917C35.4732 13.9103 35.7798 14.2269 35.8748 14.7182L35.8802 14.7494V14.7608ZM28.1359 16.0016C28.1359 17.0935 28.9699 17.978 29.9993 17.978C31.0288 17.978 31.8628 17.0935 31.8628 16.0016C31.8628 14.9098 31.0288 14.0253 29.9993 14.0253C28.9699 14.0253 28.1359 14.9098 28.1359 16.0016Z" fill="#111111"/>
</g>
</g>
<defs>
<clipPath id="clip0_654_971">
<rect width="36" height="36" fill="white"/>
</clipPath>
</defs>
</svg>
