<svg width="208" height="29" viewBox="0 0 208 29" fill="none" xmlns="http://www.w3.org/2000/svg">
<g style="mix-blend-mode:multiply" opacity="0.7">
<path d="M167.539 23.9682C167.548 24.3953 167.301 24.8055 167.133 25.2158C166.932 25.714 166.853 26.2415 166.585 26.7063C166.208 27.3552 165.664 27.5519 165.153 27.3887C164.914 27.3175 164.676 27.1626 164.471 26.9365C163.533 25.9066 164.014 23.2021 165.63 22.8253C165.907 22.7541 166.208 22.7583 166.556 22.8504C167.104 22.9886 167.527 23.4491 167.539 23.9682Z" fill="#BB8336"/>
</g>
<path d="M167.263 23.1226C167.271 23.5497 167.024 23.9599 166.857 24.3702C166.656 24.8684 166.576 25.3959 166.309 25.8606C165.932 26.5096 165.387 26.7063 164.877 26.543C164.638 26.4719 164.399 26.317 164.194 26.0909C163.257 25.061 163.738 22.3565 165.354 21.9797C165.63 21.9085 165.932 21.9127 166.279 22.0048C166.828 22.143 167.251 22.6035 167.263 23.1226Z" fill="white"/>
<g style="mix-blend-mode:multiply" opacity="0.5">
<path d="M167.263 23.1225C167.272 23.5496 167.025 23.9599 166.857 24.3701C166.656 24.8683 166.577 25.3958 166.309 25.8606C165.932 26.5095 165.388 26.7062 164.877 26.543C164.885 26.543 164.898 26.5262 164.906 26.522C165.325 26.2332 165.61 25.7852 165.781 25.3079C165.953 24.8307 165.999 24.3199 166.032 23.8133C166.053 23.357 166.058 22.8588 165.802 22.4569C165.685 22.2727 165.517 22.1303 165.354 21.9754C165.631 21.9042 165.932 21.9084 166.279 22.0005C166.828 22.1387 167.251 22.5992 167.263 23.1184V23.1225Z" fill="#A9DBCD"/>
</g>
<g style="mix-blend-mode:multiply" opacity="0.7">
<path d="M150.88 20.7111C150.391 20.8242 149.821 20.5604 149.633 20.0915C149.612 20.0287 149.587 19.9659 149.587 19.8989C149.469 19.2374 149.997 18.3918 150.658 18.2871C151.052 18.2201 151.391 18.4169 151.605 18.7225C151.806 18.9904 151.91 19.3463 151.847 19.6645C151.755 20.1627 151.366 20.5981 150.876 20.7111H150.88Z" fill="#BB8336"/>
</g>
<path d="M150.892 20.1501C150.402 20.2631 149.833 19.9994 149.644 19.5305C149.624 19.4677 149.598 19.4049 149.598 19.3379C149.481 18.6764 150.009 17.8307 150.67 17.7261C151.064 17.6591 151.403 17.8559 151.616 18.1615C151.817 18.4294 151.922 18.7853 151.859 19.1035C151.767 19.6017 151.378 20.0371 150.888 20.1501H150.892Z" fill="white"/>
<g style="mix-blend-mode:multiply" opacity="0.5">
<path d="M150.893 20.1501C150.403 20.2631 149.834 19.9994 149.646 19.5305C149.625 19.4677 149.6 19.4049 149.6 19.3379C149.968 19.5598 150.449 19.5975 150.839 19.4258C151.111 19.3002 151.337 19.0742 151.475 18.8104C151.576 18.6262 151.559 18.3541 151.618 18.1615C151.818 18.4294 151.923 18.7853 151.86 19.1035C151.768 19.6017 151.379 20.0371 150.889 20.1501H150.893Z" fill="#A9DBCD"/>
</g>
<g clip-path="url(#clip0_3949_37619)">
<g style="mix-blend-mode:multiply" opacity="0.7">
<path d="M153.929 12.5545C155.217 13.8048 156.19 15.3491 157.452 16.6284C158.715 17.9077 160.417 18.9428 162.205 18.7565C163.621 18.6074 164.839 17.7297 166.105 17.0838C167.376 16.438 168.975 16.0281 170.175 16.7982C171.206 17.4606 171.583 18.7482 172.125 19.8453C172.668 20.9425 173.761 22.0438 174.941 21.7167C176.808 21.2033 176.526 17.9533 178.335 17.2619C179.424 16.8437 180.646 17.7007 181.151 18.7523C181.656 19.8039 181.689 21.0129 181.937 22.1555C182.186 23.2982 182.782 24.4989 183.883 24.8798C185.117 25.3062 186.479 24.5072 187.253 23.4556C188.028 22.404 188.421 21.1205 189.075 19.9944C189.729 18.8641 190.814 17.8208 192.118 17.8249C193.455 17.8249 194.61 18.9221 195.948 18.9262C197.575 18.9304 198.183 17.8125 199.011 16.6284C200.059 15.1297 201.102 13.6268 202.15 12.1281C202.514 11.6023 202.899 11.0185 202.833 10.3851C202.742 9.48664 201.823 8.93186 200.986 8.58409C198.399 7.50765 195.575 7.02325 192.776 7.13917C189.994 7.2551 187.464 8.16179 184.819 8.89874C181.374 9.85926 177.723 9.22581 174.17 8.8325C170.25 8.39778 166.292 8.25702 162.35 8.41848C160.38 8.49715 158.409 8.65033 156.451 8.87804C155.44 8.99396 154.43 9.13473 153.424 9.28792C152.815 9.38314 151.097 9.37486 150.654 9.79716C149.917 10.4968 151.031 10.737 151.515 10.9316C152.422 11.2959 153.234 11.8797 153.929 12.5545Z" fill="#6C9619"/>
</g>
<path d="M204.982 10.5258H203.301C201.603 10.3809 199.653 11.8299 198.56 13.1424C197.471 14.4548 196.639 15.9867 195.352 17.1128C194.275 18.0567 192.719 18.6364 191.385 18.2679C191.133 18.1975 190.893 18.0899 190.661 17.945C190.106 17.5972 189.651 17.0424 189.079 16.7526C188.943 16.6822 188.798 16.6284 188.636 16.5953C187.626 16.3883 186.678 17.2494 186.305 18.2141C185.933 19.1704 185.958 20.2386 185.763 21.2447C185.568 22.2549 185.043 23.323 184.074 23.6584C183.254 23.9358 182.43 23.588 181.805 22.967H181.797C181.329 22.4991 180.973 21.8823 180.807 21.2571C180.422 19.7873 180.662 18.2141 180.315 16.736C180.083 15.7341 179.387 14.7322 178.505 14.3099L178.497 14.3016C178.083 14.0987 177.628 14.0325 177.156 14.1484C175.789 14.4962 175.272 16.1274 174.961 17.502C174.647 18.8806 174.055 20.5077 172.668 20.7603C171.79 20.9176 171.049 20.458 170.482 19.7501C170.022 19.1829 169.674 18.4625 169.459 17.7835C169.302 17.2784 169.149 16.736 168.966 16.2185V16.2102C168.594 15.1628 168.076 14.2105 167.095 13.7882C165.998 13.3204 164.727 13.7386 163.679 14.3099C162.632 14.8895 161.651 15.6347 160.479 15.879C158.811 16.2268 157.213 15.4816 155.788 14.4341C155.78 14.4424 155.78 14.4341 155.78 14.4341C155.155 13.9663 154.571 13.457 154.016 12.9478C152.207 11.2834 150.191 10.9812 147.413 10.5092H144.999C145.107 10.5092 149.57 6.83276 155.242 4.99453C155.436 4.93243 155.631 4.87033 155.821 4.8165C161.146 3.2598 164.367 4.7337 166.9 4.99453C168.159 5.11874 170.979 4.06713 174.477 2.92859C178.278 1.69896 182.886 0.36583 187.179 0.332709C187.999 0.324429 188.81 0.390671 189.618 0.514876C196.979 1.62858 203.756 7.58627 204.982 10.5258Z" fill="white"/>
<g style="mix-blend-mode:multiply" opacity="0.5">
<path d="M204.981 10.5258H203.3C201.603 10.3809 199.653 11.83 198.56 13.1424C197.471 14.4548 196.639 15.9867 195.351 17.1128C194.275 18.0568 192.718 18.6364 191.385 18.2679C191.799 18.0899 192.192 17.8373 192.528 17.5351C193.393 16.7609 193.964 15.7134 194.515 14.6867C195.492 12.8857 196.486 10.9688 196.407 8.91943C196.333 7.01496 195.306 5.26367 194.031 3.84773C192.784 2.4732 191.277 1.34708 189.617 0.519043C196.978 1.63275 203.756 7.59044 204.981 10.53V10.5258Z" fill="#A9DBCD"/>
</g>
<g style="mix-blend-mode:multiply" opacity="0.5">
<path d="M189.079 16.7526C188.942 16.6822 188.797 16.6284 188.636 16.5953C187.626 16.3883 186.678 17.2494 186.305 18.2141C185.932 19.1705 185.957 20.2386 185.763 21.2447C185.568 22.2549 185.042 23.3231 184.073 23.6584C183.254 23.9358 182.43 23.588 181.805 22.967C182.19 22.9049 182.562 22.7393 182.865 22.4868C183.916 21.5966 183.949 20.0275 183.991 18.653C184.036 17.2867 184.363 15.6596 185.622 15.1214C186.611 14.6991 187.804 15.1918 188.516 15.9908C188.694 16.1937 188.893 16.4504 189.075 16.7485L189.079 16.7526Z" fill="#A9DBCD"/>
</g>
<g style="mix-blend-mode:multiply" opacity="0.5">
<path d="M174.477 2.94105C170.482 5.49967 165.513 6.58439 160.839 5.69426C159.44 5.42929 158.074 5.00285 156.653 4.87036C156.376 4.84552 156.099 4.82482 155.821 4.8331C161.146 3.2764 164.367 4.7503 166.9 5.01113C168.159 5.13533 170.978 4.08373 174.477 2.94519V2.94105Z" fill="#A9DBCD"/>
</g>
<g style="mix-blend-mode:multiply" opacity="0.5">
<path d="M178.506 14.3058C178.092 14.1029 177.636 14.0367 177.164 14.1526C175.798 14.5004 175.28 16.1316 174.97 17.5061C174.655 18.8848 174.063 20.5119 172.676 20.7644C171.799 20.9218 171.057 20.4622 170.49 19.7542C171.07 19.6673 171.616 19.3568 171.948 18.8724C172.469 18.0982 172.42 17.0838 172.697 16.1854C173.219 14.4962 175.036 13.3121 176.787 13.5274C177.139 13.573 177.864 13.8876 178.51 14.3016L178.506 14.3058Z" fill="#A9DBCD"/>
</g>
<g style="mix-blend-mode:multiply" opacity="0.5">
<path d="M168.975 16.2227C168.602 15.1752 168.085 14.223 167.104 13.8007C166.007 13.3328 164.735 13.751 163.688 14.3223C162.641 14.902 161.659 15.6472 160.488 15.8915C158.819 16.2392 157.221 15.494 155.797 14.4466C156.666 14.6246 157.569 14.6163 158.43 14.4093C159.709 14.1071 160.852 13.3991 162.04 12.8402C163.233 12.2854 164.574 11.8631 165.853 12.1653C167.046 12.451 168.039 13.3701 168.544 14.4921C168.722 14.8895 168.958 15.6058 168.975 16.2185V16.2227Z" fill="#A9DBCD"/>
</g>
</g>
<g style="mix-blend-mode:multiply" opacity="0.7">
<path d="M21.357 28.5703C20.7006 28.7236 19.9377 28.3659 19.6852 27.7299C19.6572 27.6447 19.6235 27.5595 19.6235 27.4687C19.4664 26.5715 20.1733 25.4244 21.0597 25.2825C21.587 25.1916 22.0414 25.4585 22.3275 25.873C22.5968 26.2365 22.737 26.7191 22.6529 27.1507C22.5295 27.8264 22.0077 28.417 21.3514 28.5703H21.357Z" fill="#BB8336"/>
</g>
<path d="M21.3687 27.8094C20.7124 27.9627 19.9494 27.605 19.697 26.969C19.6689 26.8838 19.6352 26.7986 19.6352 26.7078C19.4782 25.8106 20.185 24.6635 21.0714 24.5215C21.5987 24.4307 22.0531 24.6976 22.3392 25.1121C22.6085 25.4755 22.7488 25.9582 22.6646 26.3898C22.5412 27.0655 22.0195 27.6561 21.3631 27.8094H21.3687Z" fill="white"/>
<g style="mix-blend-mode:multiply" opacity="0.5">
<path d="M21.3682 27.8094C20.7119 27.9627 19.9489 27.605 19.6965 26.969C19.6684 26.8838 19.6348 26.7986 19.6348 26.7078C20.1284 27.0087 20.7736 27.0598 21.2953 26.827C21.66 26.6567 21.9629 26.35 22.148 25.9923C22.2827 25.7424 22.2602 25.3733 22.3388 25.1121C22.608 25.4755 22.7483 25.9582 22.6641 26.3898C22.5407 27.0655 22.019 27.6561 21.3626 27.8094H21.3682Z" fill="#A9DBCD"/>
</g>
<g style="mix-blend-mode:multiply" opacity="0.7">
<path d="M8.09548 15.3053C8.42647 16.475 9.01551 17.7243 10.3282 18.3035C11.4895 18.8146 13.0603 18.6158 13.9747 17.8492C14.5189 17.3893 14.8162 16.7817 15.2706 16.2593C15.7194 15.7368 16.4375 15.2769 17.2228 15.3621C17.9409 15.4416 18.4739 15.9753 18.687 16.5375C18.9002 17.0997 18.8666 17.6959 18.917 18.2808C18.9844 19.0474 19.2031 19.8254 19.7417 20.4614C20.2803 21.0917 21.1891 21.563 22.1428 21.5346C23.2086 21.5062 24.1343 20.8873 24.6672 20.149C25.2002 19.4052 25.4133 18.5534 25.649 17.7186C25.8846 16.8839 26.1651 16.0321 26.8046 15.345C27.3039 14.8112 27.9883 14.4024 28.482 13.8629C29.172 13.1134 29.4244 12.1651 29.6601 11.2508C29.7386 10.9499 29.8059 10.6035 29.5759 10.3593C29.3683 10.1321 28.9813 10.0697 28.6334 10.0697C27.0122 10.064 25.6546 10.9896 24.426 11.8414C23.1974 12.6932 21.7501 13.562 20.14 13.42C18.889 13.3121 17.8624 12.608 16.8582 11.989C15.2257 10.9839 13.3408 10.1208 11.2875 10.0413C9.98042 9.99018 7.484 10.4388 7.02399 11.6256C6.84447 12.0856 7.16984 12.5285 7.35497 12.9487C7.69718 13.721 7.87109 14.516 8.09548 15.3166V15.3053Z" fill="#6C9619"/>
</g>
<path d="M32.431 10.5752H29.469C29.1941 10.7626 28.9529 10.9954 28.807 11.1942C28.4648 11.6598 28.2853 12.2447 27.6962 12.557C27.1408 12.858 26.3835 12.8182 25.7384 12.9716C24.2181 13.3236 23.4832 14.6183 23.3317 15.7938C23.169 16.9692 23.3878 18.1958 22.8885 19.3201C22.4902 20.2173 21.4412 21.0635 20.1621 21.0294C20.0836 21.0294 19.9994 21.0237 19.9209 21.0123C18.5016 20.8533 17.6208 19.6552 17.4637 18.5649C17.2954 17.4122 17.604 16.2197 17.1271 15.1124C16.9308 14.6467 16.5325 14.1811 15.9771 13.9483C15.9771 13.9426 15.9715 13.9369 15.9603 13.9426C15.7695 13.8631 15.5676 13.812 15.3432 13.795C14.1146 13.7098 13.2619 14.6808 12.8467 15.5383C12.4316 16.4014 11.9828 17.4235 10.8159 17.7188C9.91836 17.9403 9.00394 17.6166 8.34197 17.0885C8.05586 16.8614 7.82585 16.5888 7.66317 16.3162C7.13022 15.3963 7.10217 14.3628 6.6646 13.4145C6.20458 12.4264 5.28455 11.5633 4.11208 10.9784C3.75304 10.8024 3.39962 10.6831 3.10229 10.5809H0C0.690022 9.76888 3.82597 6.59459 8.27465 5.10682C8.61124 4.99325 8.95345 4.89672 9.30126 4.81154C12.1567 4.1358 15.4049 4.44811 18.0079 5.54974C19.1186 6.02674 20.1845 6.65138 21.4412 6.75927C21.4636 6.75927 21.4748 6.76494 21.4973 6.76494C22.8997 6.87852 24.2461 6.32202 25.6598 6.23685C26.232 6.20278 26.8099 6.2482 27.3652 6.37881H27.3709C28.2572 6.5662 29.0651 6.95234 29.6541 7.48044C30.2487 8.0199 32.4254 10.5752 32.4254 10.5752H32.431Z" fill="white"/>
<g style="mix-blend-mode:multiply" opacity="0.5">
<path d="M15.9542 13.9424C15.7635 13.8629 15.5615 13.8118 15.3371 13.7948C14.1086 13.7096 13.2558 14.6807 12.8407 15.5381C12.4256 16.4012 11.9768 17.4234 10.8099 17.7187C9.91233 17.9401 8.99791 17.6164 8.33594 17.0883C8.44253 17.1054 8.56034 17.1167 8.67814 17.1167C9.48597 17.1111 10.1423 16.5773 10.535 16.0037C10.9277 15.4359 11.1633 14.7942 11.657 14.2775C12.2741 13.6301 13.3007 13.2326 14.3161 13.3178C14.8491 13.3576 15.5335 13.5847 15.9598 13.9424H15.9542Z" fill="#A9DBCD"/>
</g>
<g style="mix-blend-mode:multiply" opacity="0.5">
<path d="M32.431 10.5751H29.469C29.1941 10.7625 28.9529 10.9953 28.807 11.194C28.4648 11.6597 28.2853 12.2446 27.6963 12.5569C27.1409 12.8578 26.3835 12.8181 25.7384 12.9714C24.2181 13.3235 23.4832 14.6182 23.3317 15.7936C23.169 16.9691 23.3878 18.1956 22.8886 19.32C22.4902 20.2172 21.4412 21.0633 20.1621 21.0292C20.0836 21.0292 19.9994 21.0235 19.9209 21.0122C20.3809 20.626 20.7007 20.1377 20.8185 19.6209C21.0204 18.7124 20.6446 17.7925 20.5773 16.8725C20.437 15.0497 21.6263 13.2042 23.5561 12.2446C24.7118 11.6653 26.103 11.3814 27.0848 10.6262C27.9655 9.95043 28.4087 8.93966 28.2573 7.97431C28.1563 7.34967 27.7972 6.84996 27.3821 6.37865C28.2685 6.56604 29.0763 6.95218 29.6653 7.48028C30.26 8.01974 32.4367 10.5751 32.4367 10.5751H32.431Z" fill="#A9DBCD"/>
</g>
<g style="mix-blend-mode:multiply" opacity="0.5">
<path d="M21.4409 6.75911C21.2782 6.86701 21.1212 6.95786 20.9472 7.03168C19.4101 7.71878 17.5027 7.59386 15.8478 7.13957C14.1985 6.68529 12.695 5.93005 11.1018 5.33949C10.5128 5.1237 9.91812 4.94767 9.30664 4.8057C12.1621 4.12996 15.4102 4.44228 18.0133 5.54391C19.124 6.02091 20.1899 6.64555 21.4465 6.75344L21.4409 6.75911Z" fill="#A9DBCD"/>
</g>
<defs>
<clipPath id="clip0_3949_37619">
<rect width="59.9827" height="24.6671" fill="white" transform="translate(144.997 0.332649)"/>
</clipPath>
</defs>
</svg>
