<svg width="90" height="90" viewBox="0 0 90 90" fill="none" xmlns="http://www.w3.org/2000/svg">
<g opacity="0.6">
<path d="M64.1526 79.0485H25.7657C21.0743 79.0485 17.2383 75.2126 17.2383 70.5211V34.9789C17.2383 30.2875 21.0743 26.4515 25.7657 26.4515H64.1526C68.8441 26.4515 72.68 30.2875 72.68 34.9789V70.5211C72.68 75.2126 68.8441 79.0485 64.1526 79.0485Z" fill="#1B4A83"/>
<path d="M76.4823 26.5126C76.4823 21.1762 72.1168 16.8107 66.7804 16.8107H23.1385C17.8021 16.8107 13.4365 21.1762 13.4365 26.5126V66.9228C13.4365 72.2592 17.8021 76.6248 23.1385 76.6248H51.837L76.4823 51.9795V26.5126Z" fill="#86C5DA"/>
<path d="M23.9805 26.1256C23.9805 27.0458 24.346 27.9282 24.9966 28.5788C25.6472 29.2295 26.5297 29.595 27.4498 29.595C28.37 29.595 29.2524 29.2295 29.903 28.5788C30.5537 27.9282 30.9192 27.0458 30.9192 26.1256C30.9192 25.2055 30.5537 24.3231 29.903 23.6724C29.2524 23.0218 28.37 22.6563 27.4498 22.6563C26.5297 22.6563 25.6472 23.0218 24.9966 23.6724C24.346 24.3231 23.9805 25.2055 23.9805 26.1256Z" fill="#1B4A83"/>
<path d="M27.4494 28.4001C25.8199 28.4001 24.4824 27.0694 24.4824 25.4331V13.9863C24.4824 12.3568 25.8131 11.0193 27.4494 11.0193C29.0788 11.0193 30.4163 12.3501 30.4163 13.9863V25.4331C30.4095 27.0694 29.0788 28.4001 27.4494 28.4001Z" fill="#D2712D"/>
<path d="M27.6531 26.0781H27.2457C25.7317 26.0781 24.4893 24.8357 24.4893 23.3217V13.7826C24.4893 12.2686 25.7317 11.0262 27.2457 11.0262H27.6531C29.1671 11.0262 30.4096 12.2686 30.4096 13.7826V23.3217C30.4096 24.8357 29.1671 26.0781 27.6531 26.0781Z" fill="#F99F38"/>
<path d="M59.543 26.1256C59.543 27.0458 59.9085 27.9282 60.5591 28.5788C61.2097 29.2295 62.0922 29.595 63.0123 29.595C63.9325 29.595 64.8149 29.2295 65.4655 28.5788C66.1162 27.9282 66.4817 27.0458 66.4817 26.1256C66.4817 25.2055 66.1162 24.3231 65.4655 23.6724C64.8149 23.0218 63.9325 22.6563 63.0123 22.6563C62.0922 22.6563 61.2097 23.0218 60.5591 23.6724C59.9085 24.3231 59.543 25.2055 59.543 26.1256Z" fill="#1B4A83"/>
<path d="M63.0119 28.4001C61.3824 28.4001 60.0449 27.0694 60.0449 25.4331V13.9863C60.0449 12.3568 61.3756 11.0193 63.0119 11.0193C64.6413 11.0193 65.9788 12.3501 65.9788 13.9863V25.4331C65.972 27.0694 64.6413 28.4001 63.0119 28.4001Z" fill="#D2712D"/>
<path d="M63.2156 26.0781H62.8082C61.2942 26.0781 60.0518 24.8357 60.0518 23.3217V13.7826C60.0518 12.2686 61.2942 11.0262 62.8082 11.0262H63.2156C64.7296 11.0262 65.9721 12.2686 65.9721 13.7826V23.3217C65.9721 24.8357 64.7296 26.0781 63.2156 26.0781Z" fill="#F99F38"/>
<path d="M67.0514 37.9662H22.8663C22.0177 37.9662 21.3184 37.2669 21.3184 36.4182C21.3184 35.5696 22.0177 34.8703 22.8663 34.8703H67.0514C67.9 34.8703 68.5993 35.5696 68.5993 36.4182C68.5993 37.2669 67.9 37.9662 67.0514 37.9662ZM47.7561 67.0653H31.7875C30.9389 67.0653 30.2396 66.366 30.2396 65.5174C30.2396 64.6687 30.9389 63.9694 31.7875 63.9694H47.7493C48.5979 63.9694 49.2972 64.6687 49.2972 65.5174C49.304 66.366 48.6047 67.0653 47.7561 67.0653ZM58.1234 67.0653H53.4455C52.5969 67.0653 51.8976 66.366 51.8976 65.5174C51.8976 64.6687 52.5969 63.9694 53.4455 63.9694H58.1234C58.972 63.9694 59.6714 64.6687 59.6714 65.5174C59.6714 66.366 58.9788 67.0653 58.1234 67.0653Z" fill="#1B4A83"/>
<path d="M35.5564 40.9875H40.4243V58.0831H37.1926V44.0427H33.6689L35.5564 40.9875ZM48.9382 40.9875H56.9496V43.9952H51.3688L50.6695 47.0979C50.8596 47.0436 51.0564 47.0029 51.2398 46.9757C51.4231 46.9486 51.6064 46.935 51.7761 46.935C53.3241 46.935 54.6141 47.4645 55.6393 48.5237C56.6644 49.5828 57.1804 50.9339 57.1804 52.5837C57.1804 54.2471 56.6101 55.6525 55.4763 56.7931C54.3425 57.9337 52.9575 58.504 51.3348 58.504C49.8819 58.504 48.6259 58.0899 47.5803 57.2616C46.5347 56.4333 45.849 55.2995 45.5231 53.8601H48.9382C49.203 54.3965 49.5492 54.797 49.9769 55.0754C50.4047 55.3538 50.8799 55.4896 51.4027 55.4896C52.1224 55.4896 52.7334 55.2316 53.2358 54.7088C53.7382 54.1928 53.9894 53.5206 53.9894 52.7127C53.9894 51.9251 53.7518 51.2734 53.2833 50.7642C52.8149 50.255 52.2446 50.0038 51.5792 50.0038C51.2262 50.0038 50.8731 50.092 50.5269 50.2685C50.1806 50.4451 49.8412 50.7166 49.5085 51.0697L46.8606 50.479L48.9382 40.9875Z" fill="white"/>
<path d="M51.8369 76.6247H66.787C72.1235 76.6247 76.489 72.2592 76.489 66.9228V51.9726L51.8369 76.6247Z" fill="#6DADD9"/>
</g>
</svg>
