<svg width="120" height="120" viewBox="0 0 120 120" fill="none" xmlns="http://www.w3.org/2000/svg">
<path d="M43.348 79.5375H19.998C14.498 79.5375 9.99805 84.0375 9.99805 89.5375V119.537H43.348V79.5375Z" fill="#1F5A9F"/>
<path d="M66.6488 59.5377H53.2988C47.7988 59.5377 43.2988 64.0377 43.2988 69.5377V119.538H76.6488V69.5377C76.6488 64.0377 72.1988 59.5377 66.6488 59.5377Z" fill="#2160AA"/>
<path d="M99.9965 94.5375H76.6465V119.537H109.996V104.537C109.996 99.0375 105.496 94.5375 99.9965 94.5375Z" fill="#1F5A9F"/>
<path d="M75.0504 33.7876C76.6004 32.2376 77.2004 30.3876 76.7004 28.7876C76.2004 27.1876 74.6504 26.0376 72.4504 25.6876L67.6504 24.8876C67.4504 24.8376 67.0004 24.5375 66.9004 24.3375L64.2504 19.0375C62.2504 14.9875 57.7004 14.9875 55.7004 19.0375L53.0504 24.3375C52.9504 24.5375 52.5004 24.8376 52.3004 24.8876L47.5004 25.6876C45.3004 26.0376 43.8004 27.1876 43.2504 28.7876C42.7504 30.3876 43.3504 32.2376 44.9004 33.7876L48.6004 37.5376C48.7504 37.6876 48.9504 38.2876 48.9004 38.4876L47.8504 43.0875C47.0504 46.4875 48.3504 48.0375 49.2004 48.6875C50.0504 49.2875 51.9004 50.0875 54.9504 48.2875L59.4504 45.6375C59.6504 45.4875 60.3004 45.4875 60.5004 45.6375L65.0004 48.2875C66.4004 49.1375 67.5504 49.3875 68.4504 49.3875C69.5004 49.3875 70.2504 48.9875 70.7004 48.6875C71.5504 48.0875 72.8504 46.5375 72.0504 43.0875L71.0004 38.4876C70.9504 38.2376 71.1004 37.6876 71.3004 37.5376L75.0504 33.7876Z" fill="#2160AA"/>
</svg>
