<svg width="120" height="120" viewBox="0 0 120 120" fill="none" xmlns="http://www.w3.org/2000/svg">
<circle cx="69.5" cy="67.5" r="42.5" fill="#2160AA"/>
<path d="M48.25 30.6939C54.7108 26.9638 62.0397 25 69.5 25C76.9603 25 84.2892 26.9638 90.75 30.6939L69.5 67.5L48.25 30.6939Z" fill="#246CC0"/>
<path d="M48.2085 104.282C41.7519 100.545 36.3928 95.1735 32.67 88.7085C28.9471 82.2434 26.9916 74.9123 27 67.452L69.5 67.5L48.2085 104.282Z" fill="#246CC0"/>
<path d="M112 67.5C112 74.9603 110.036 82.2892 106.306 88.75C102.576 95.2108 97.2108 100.576 90.75 104.306L69.5 67.5H112Z" fill="#246CC0"/>
<path d="M73.0294 56.6788C73.0294 54.5951 69.75 50.1984 69.75 50.1984C69.75 50.1984 66.4707 54.5943 66.4707 56.6788C66.4707 58.7632 67.9389 60.4517 69.75 60.4517C71.5612 60.4517 73.0294 58.7625 73.0294 56.6788Z" fill="#4183D0"/>
<path d="M79.1541 66.5937C79.1541 71.9249 74.8318 76.2469 69.5011 76.2469C64.1705 76.2469 59.8477 71.9249 59.8477 66.5937C59.8477 61.2624 64.1695 56.9404 69.5011 56.9404C74.8328 56.9404 79.1541 61.2624 79.1541 66.5937Z" fill="#4183D0"/>
</svg>
