<svg width="120" height="120" viewBox="0 0 120 120" fill="none" xmlns="http://www.w3.org/2000/svg">
<path d="M78 84C78 98.36 66.36 110 52 110C37.64 110 26 98.36 26 84C26 69.64 37.64 58 52 58C52.68 58 53.4 58.04 54.08 58.08C66.76 59.08 76.92 69.24 77.92 81.92C77.96 82.6 78 83.32 78 84Z" fill="#2160AA"/>
<path d="M106 55.9999C106 70.3599 94.36 81.9999 80 81.9999C79.32 81.9999 78.6 81.9599 77.92 81.9199C76.92 69.2399 66.76 59.08 54.08 58.08C54.04 57.4 54 56.6799 54 55.9999C54 41.6399 65.64 29.9999 80 29.9999C94.36 29.9999 106 41.6399 106 55.9999Z" fill="#1F5A9F"/>
<path d="M40.36 30H30C27.8 30 26 31.8 26 34V44.36C26 47.92 30.32 49.72 32.84 47.2L43.2 36.84C45.68 34.32 43.92 30 40.36 30Z" fill="#2160AA"/>
<path d="M91.6389 110H101.999C104.199 110 105.999 108.2 105.999 106V95.6401C105.999 92.0801 101.679 90.2801 99.1589 92.8001L88.7989 103.16C86.3189 105.68 88.0789 110 91.6389 110Z" fill="#2160AA"/>
</svg>
