<svg width="120" height="120" viewBox="0 0 120 120" fill="none" xmlns="http://www.w3.org/2000/svg">
<path d="M65.7 68.3V35H62C54.6821 35 47.5285 37.17 41.4439 41.2356C35.3593 45.3012 30.6169 51.0798 27.8165 57.8407C25.016 64.6016 24.2833 72.041 25.711 79.2183C27.1386 86.3956 30.6625 92.9884 35.8371 98.1629C41.0116 103.337 47.6044 106.861 54.7817 108.289C61.959 109.717 69.3984 108.984 76.1593 106.184C82.9202 103.383 88.6988 98.6407 92.7644 92.5561C96.83 86.4715 99 79.3179 99 72V68.3H65.7Z" fill="#2160AA"/>
<path d="M73 61V28C81.7521 28 90.1458 31.4768 96.3345 37.6655C102.523 43.8542 106 52.2479 106 61H73Z" fill="#1F5A9F"/>
</svg>
