<svg width="90" height="90" viewBox="0 0 90 90" fill="none" xmlns="http://www.w3.org/2000/svg">
<g opacity="0.6">
<path fill-rule="evenodd" clip-rule="evenodd" d="M60.4317 46.1591C51.3067 46.1591 43.8408 53.625 43.8408 62.75C43.8408 71.875 51.3067 79.3409 60.4317 79.3409C69.5567 79.3409 77.0226 71.875 77.0226 62.75C77.0226 53.625 69.5567 46.1591 60.4317 46.1591Z" fill="#E39D35"/>
<path fill-rule="evenodd" clip-rule="evenodd" d="M61.9809 63.8588C61.8678 63.8672 61.2833 63.9021 59.9794 63.9021C58.9423 63.9021 58.206 63.871 57.9477 63.8588C53.9399 63.6825 50.9484 62.9848 50.9484 62.1495C50.9484 61.3142 53.9399 60.6175 57.9477 60.4383V63.1639C58.2098 63.1828 58.9602 63.2271 59.9973 63.2271C61.2418 63.2271 61.865 63.1752 61.9772 63.1649V60.4402C65.9765 60.6184 68.9613 61.3161 68.9613 62.1495C68.9613 62.9829 65.9774 63.6806 61.9772 63.8578L61.9809 63.8588ZM61.9809 60.1583V57.7193H67.5622V54H52.3664V57.7193H57.9468V60.1574C53.411 60.3657 50 61.2642 50 62.3409C50 63.4175 53.411 64.3151 57.9468 64.5244V72.3401H61.98V64.5215C66.5054 64.3132 69.9107 63.4156 69.9107 62.3399C69.9107 61.2642 66.5082 60.3667 61.98 60.1574L61.9809 60.1583Z" fill="white"/>
<path fill-rule="evenodd" clip-rule="evenodd" d="M40.6889 71.5432C39.5275 68.8886 38.8639 66.0682 38.8639 62.9159C38.8639 50.9704 48.4866 41.3477 60.4321 41.1818C61.7594 41.1818 63.0866 41.3477 64.4139 41.5136C64.5798 41.5136 64.5798 41.5136 64.7457 41.5136C66.073 41.8455 67.4003 42.1773 68.7275 42.675V16.2955C68.7275 12.6455 65.7412 9.65909 62.0912 9.65909H20.6139C16.9639 9.65909 13.9775 12.6455 13.9775 16.2955V69.3864C13.9775 73.0364 16.9639 76.0227 20.6139 76.0227H43.3434C42.348 74.6954 41.5184 73.2023 40.6889 71.5432Z" fill="#86C5DA"/>
<path d="M52.9657 19.6137H26.4203C25.093 19.6137 23.9316 20.775 23.9316 22.1023C23.9316 23.4296 25.093 24.591 26.4203 24.591H52.9657C54.293 24.591 55.4544 23.4296 55.4544 22.1023C55.4544 20.775 54.293 19.6137 52.9657 19.6137Z" fill="#1B4882"/>
<path d="M26.4203 32.8864C25.093 32.8864 23.9316 34.0478 23.9316 35.375C23.9316 36.7023 25.093 37.8637 26.4203 37.8637H39.693C41.0203 37.8637 42.1816 36.7023 42.1816 35.375C42.1816 34.0478 41.0203 32.8864 39.693 32.8864H26.4203Z" fill="#1B4882"/>
</g>
</svg>
