<svg width="24" height="24" viewBox="0 0 24 24" fill="none" xmlns="http://www.w3.org/2000/svg">
<path fill-rule="evenodd" clip-rule="evenodd" d="M22.2857 12.0002C22.2857 17.6815 17.6806 22.2865 11.9993 22.2865C6.31795 22.2865 1.71289 17.6815 1.71289 12.0002C1.71289 6.31884 6.31795 1.71378 11.9993 1.71378C17.6806 1.71378 22.2857 6.31884 22.2857 12.0002ZM8.64601 20.0956C9.70912 20.536 10.8486 20.7626 11.9993 20.7626C14.3232 20.7626 16.552 19.8394 18.1953 18.1961C19.8385 16.5529 20.7617 14.3241 20.7617 12.0002C20.7617 9.67621 19.8385 7.44745 18.1953 5.80417C16.552 4.16089 14.3232 3.2377 11.9993 3.23768C10.8486 3.23768 9.70912 3.46432 8.64601 3.90468C7.58289 4.34503 6.61692 4.99047 5.80324 5.80414C4.98956 6.61781 4.34412 7.58378 3.90376 8.6469C3.4634 9.71001 3.23675 10.8495 3.23675 12.0002C3.23675 13.1509 3.4634 14.2903 3.90376 15.3534C4.34412 16.4165 4.98956 17.3825 5.80324 18.1962C6.61692 19.0099 7.58289 19.6553 8.64601 20.0956ZM9.10594 15.4604C9.13733 15.3753 9.184 15.2979 9.24324 15.2325L12.1914 11.898V8.28344C12.1914 8.10001 12.2587 7.92409 12.3785 7.79438C12.4983 7.66468 12.6607 7.59181 12.8301 7.59181C12.9995 7.59181 13.1619 7.66468 13.2817 7.79438C13.4015 7.92409 13.4688 8.10001 13.4688 8.28344V12.1064C13.469 12.3292 13.3898 12.5435 13.2476 12.7046L10.1661 16.1887C10.1084 16.2557 10.0391 16.3096 9.962 16.3473C9.88494 16.385 9.80174 16.4058 9.71721 16.4084C9.63268 16.411 9.54851 16.3955 9.46959 16.3626C9.39066 16.3297 9.31856 16.2801 9.25746 16.2168C9.19635 16.1535 9.14747 16.0777 9.11364 15.9938C9.07981 15.9098 9.06171 15.8195 9.06039 15.7279C9.05906 15.6363 9.07455 15.5454 9.10594 15.4604Z" fill="#999999"/>
<path d="M11.9993 20.7626L11.9993 20.2626L11.9993 20.7626ZM8.64601 20.0956L8.45467 20.5576L8.64601 20.0956ZM18.1953 18.1961L17.8417 17.8426L18.1953 18.1961ZM18.1953 5.80417L17.8417 6.15772V6.15772L18.1953 5.80417ZM11.9993 3.23768L11.9993 2.73768L11.9993 3.23768ZM8.64601 3.90468L8.45467 3.44273L8.64601 3.90468ZM5.80324 5.80414L5.44969 5.45058L5.44969 5.45058L5.80324 5.80414ZM3.90376 8.6469L4.3657 8.83824L3.90376 8.6469ZM3.90376 15.3534L4.3657 15.1621L3.90376 15.3534ZM5.80324 18.1962L6.15679 17.8426H6.15679L5.80324 18.1962ZM9.24324 15.2325L9.6137 15.5684L9.61783 15.5637L9.24324 15.2325ZM9.10594 15.4604L9.575 15.6335L9.575 15.6335L9.10594 15.4604ZM12.1914 11.898L12.566 12.2292L12.6914 12.0874V11.898H12.1914ZM12.3785 7.79438L12.0112 7.45518L12.0112 7.45518L12.3785 7.79438ZM13.2817 7.79438L12.9144 8.13359L12.9144 8.13359L13.2817 7.79438ZM13.4688 12.1064H12.9688V12.1069L13.4688 12.1064ZM13.2476 12.7046L13.6221 13.0359L13.6225 13.0355L13.2476 12.7046ZM10.1661 16.1887L9.79154 15.8574L9.78718 15.8625L10.1661 16.1887ZM9.71721 16.4084L9.73267 16.9082H9.73267L9.71721 16.4084ZM9.46959 16.3626L9.66193 15.901L9.66193 15.901L9.46959 16.3626ZM9.25746 16.2168L8.89769 16.5641L8.89769 16.5641L9.25746 16.2168ZM9.06039 15.7279L9.56033 15.7207V15.7207L9.06039 15.7279ZM11.9993 22.7865C17.9567 22.7865 22.7857 17.9576 22.7857 12.0002H21.7857C21.7857 17.4053 17.4045 21.7865 11.9993 21.7865V22.7865ZM1.21289 12.0002C1.21289 17.9576 6.04181 22.7865 11.9993 22.7865V21.7865C6.5941 21.7865 2.21289 17.4053 2.21289 12.0002H1.21289ZM11.9993 1.21378C6.04181 1.21378 1.21289 6.0427 1.21289 12.0002H2.21289C2.21289 6.59498 6.5941 2.21378 11.9993 2.21378V1.21378ZM22.7857 12.0002C22.7857 6.0427 17.9567 1.21378 11.9993 1.21378V2.21378C17.4045 2.21378 21.7857 6.59498 21.7857 12.0002H22.7857ZM11.9993 20.2626C10.9142 20.2626 9.8398 20.0489 8.83735 19.6337L8.45467 20.5576C9.57845 21.0231 10.7829 21.2626 11.9993 21.2626L11.9993 20.2626ZM17.8417 17.8426C16.2922 19.3921 14.1906 20.2626 11.9993 20.2626L11.9993 21.2626C14.4558 21.2626 16.8118 20.2868 18.5488 18.5497L17.8417 17.8426ZM20.2617 12.0002C20.2617 14.1915 19.3912 16.2931 17.8417 17.8426L18.5488 18.5497C20.2858 16.8127 21.2617 14.4567 21.2617 12.0002H20.2617ZM17.8417 6.15772C19.3912 7.70724 20.2617 9.80882 20.2617 12.0002H21.2617C21.2617 9.54361 20.2858 7.18767 18.5488 5.45062L17.8417 6.15772ZM11.9993 3.73768C14.1906 3.7377 16.2922 4.60821 17.8417 6.15772L18.5488 5.45062C16.8118 3.71357 14.4558 2.7377 11.9993 2.73768L11.9993 3.73768ZM8.83735 4.36662C9.8398 3.95139 10.9142 3.73768 11.9993 3.73768L11.9993 2.73768C10.7829 2.73768 9.57845 2.97725 8.45467 3.44273L8.83735 4.36662ZM6.15679 6.15769C6.92404 5.39045 7.83489 4.78184 8.83735 4.36662L8.45467 3.44273C7.33089 3.90822 6.30979 4.59048 5.44969 5.45058L6.15679 6.15769ZM4.3657 8.83824C4.78093 7.83579 5.38955 6.92494 6.15679 6.15769L5.44969 5.45058C4.58958 6.31069 3.90731 7.33177 3.44182 8.45555L4.3657 8.83824ZM3.73675 12.0002C3.73675 10.9151 3.95047 9.84069 4.3657 8.83824L3.44182 8.45555C2.97634 9.57933 2.73675 10.7838 2.73675 12.0002H3.73675ZM4.3657 15.1621C3.95047 14.1596 3.73675 13.0852 3.73675 12.0002H2.73675C2.73675 13.2165 2.97634 14.421 3.44182 15.5448L4.3657 15.1621ZM6.15679 17.8426C5.38955 17.0754 4.78093 16.1645 4.3657 15.1621L3.44182 15.5448C3.90731 16.6685 4.58958 17.6896 5.44969 18.5497L6.15679 17.8426ZM8.83735 19.6337C7.83489 19.2185 6.92404 18.6099 6.15679 17.8426L5.44969 18.5497C6.30979 19.4098 7.33089 20.0921 8.45467 20.5576L8.83735 19.6337ZM8.87282 14.8967C8.76939 15.0108 8.6898 15.1438 8.63687 15.2872L9.575 15.6335C9.58485 15.6068 9.59861 15.585 9.61367 15.5684L8.87282 14.8967ZM11.8169 11.5669L8.86866 14.9014L9.61783 15.5637L12.566 12.2292L11.8169 11.5669ZM11.6914 8.28344V11.898H12.6914V8.28344H11.6914ZM12.0112 7.45518C11.8025 7.68115 11.6914 7.97968 11.6914 8.28344H12.6914C12.6914 8.22033 12.715 8.16703 12.7458 8.13359L12.0112 7.45518ZM12.8301 7.09181C12.5147 7.09181 12.2211 7.22787 12.0112 7.45518L12.7458 8.13359C12.7755 8.10149 12.8068 8.09181 12.8301 8.09181V7.09181ZM13.649 7.45518C13.4391 7.22787 13.1455 7.09181 12.8301 7.09181V8.09181C12.8534 8.09181 12.8847 8.10149 12.9144 8.13359L13.649 7.45518ZM13.9688 8.28344C13.9688 7.97968 13.8577 7.68115 13.649 7.45518L12.9144 8.13359C12.9452 8.16703 12.9688 8.22033 12.9688 8.28344H13.9688ZM13.9688 12.1064V8.28344H12.9688V12.1064H13.9688ZM13.6225 13.0355C13.8486 12.7792 13.9691 12.4457 13.9688 12.1059L12.9688 12.1069C12.9689 12.2127 12.9309 12.3079 12.8727 12.3738L13.6225 13.0355ZM10.5406 16.52L13.6221 13.0359L12.8731 12.3734L9.79158 15.8575L10.5406 16.52ZM10.1818 16.7964C10.3215 16.728 10.4446 16.6316 10.545 16.5149L9.78718 15.8625C9.77232 15.8798 9.75658 15.8912 9.74219 15.8982L10.1818 16.7964ZM9.73267 16.9082C9.88919 16.9033 10.042 16.8649 10.1818 16.7964L9.74219 15.8982C9.72793 15.9052 9.71428 15.9083 9.70174 15.9087L9.73267 16.9082ZM9.27724 16.8241C9.42118 16.8841 9.57614 16.913 9.73267 16.9082L9.70175 15.9087C9.68921 15.9091 9.67584 15.9068 9.66193 15.901L9.27724 16.8241ZM8.89769 16.5641C9.0048 16.675 9.13345 16.7642 9.27724 16.8241L9.66193 15.901C9.64788 15.8952 9.63232 15.8852 9.61722 15.8696L8.89769 16.5641ZM8.64989 16.1807C8.70706 16.3225 8.79067 16.4532 8.89769 16.5641L9.61722 15.8696C9.60204 15.8539 9.58788 15.8329 9.57738 15.8068L8.64989 16.1807ZM8.56044 15.7351C8.56264 15.8875 8.59274 16.0389 8.64989 16.1807L9.57738 15.8068C9.56687 15.7808 9.56078 15.7514 9.56033 15.7207L8.56044 15.7351ZM8.63688 15.2872C8.58396 15.4306 8.55824 15.5827 8.56044 15.7351L9.56033 15.7207C9.55989 15.69 9.56514 15.6602 9.575 15.6335L8.63688 15.2872Z" fill="#999999"/>
</svg>
