<svg width="28" height="32" viewBox="0 0 28 32" fill="none" xmlns="http://www.w3.org/2000/svg">
<g id="Vector">
<path d="M27 0H5C4.4 0 4 0.4 4 1V5H1.5C0.7 5 0 5.7 0 6.5C0 7.3 0.7 8 1.5 8H4V15H1.5C0.7 15 0 15.7 0 16.5C0 17.3 0.7 18 1.5 18H4V25H1.5C0.7 25 0 25.7 0 26.5C0 27.3 0.7 28 1.5 28H4V31C4 31.6 4.4 32 5 32H27C27.6 32 28 31.6 28 31V1C28 0.4 27.6 0 27 0ZM25 28C25 28.6 24.6 29 24 29H8C7.4 29 7 28.6 7 28V4C7 3.4 7.4 3 8 3H24C24.6 3 25 3.4 25 4V28Z" fill="#999999"/>
<path d="M16 6C14.2 6 12.6 6.6 11.5 7.7C10.5 8.7 10 10.1 10 11.6C10 12.4 10.7 13 11.6 13C12.5 13 13.2 12.4 13.2 11.6C13.2 10.2 14 8.7 16.1 8.7C17.9 8.7 19 9.6 19 11.2C19 12.5 18 13.5 16.9 14.6C15.8 15.7 14.5 17 14.5 18.7V19.6C14.5 20.4 15.2 21 16.1 21C17 21 17.7 20.4 17.7 19.6V18.7C17.7 18.1 18.4 17.3 19.3 16.5C20.6 15.2 22.2 13.6 22.2 11.3C22.2 9.9 21.6 8.5 20.6 7.6C19.3 6.5 17.8 6 16 6Z" fill="#999999"/>
<path d="M16 22C15.5 22 15 22.2 14.6 22.6C14.2 23 14 23.5 14 24C14 24.5 14.2 25 14.6 25.4C15 25.8 15.5 26 16 26C16.5 26 17 25.8 17.4 25.4C17.8 25 18 24.5 18 24C18 23.5 17.8 23 17.4 22.6C17 22.2 16.5 22 16 22Z" fill="#999999"/>
</g>
</svg>
