<svg width="60" height="60" viewBox="0 0 60 60" fill="none" xmlns="http://www.w3.org/2000/svg">
<path d="M46.875 7.5L56.25 22.5L30 52.5L3.75 22.5L13.125 7.5H46.875ZM44.6681 11.25H15.33L8.30813 22.0144L30 46.8019L51.69 22.0144L44.6681 11.25ZM39.8269 21.2813L42.6731 23.7188L30 38.5088L17.325 23.7188L20.175 21.2775L29.9981 32.7413L39.8269 21.2775V21.2813Z" fill="#999999"/>
<path d="M46.875 7.5L56.25 22.5L30 52.5L3.75 22.5L13.125 7.5H46.875ZM44.6681 11.25H15.33L8.30813 22.0144L30 46.8019L51.69 22.0144L44.6681 11.25Z" fill="#ea4b64"/>
</svg>
