<svg width="110" height="110" viewBox="0 0 110 110" fill="none" xmlns="http://www.w3.org/2000/svg">
<path d="M79.9077 11C80.393 11.0001 80.8584 11.1926 81.202 11.5353L108.783 39.116C109.112 39.4459 109.303 39.8889 109.317 40.3548C109.332 40.8207 109.168 41.2745 108.86 41.624L56.375 101.108C56.203 101.303 55.9914 101.46 55.7543 101.567C55.5172 101.674 55.2601 101.729 55 101.729C54.7399 101.729 54.4828 101.674 54.2457 101.567C54.0086 101.46 53.797 101.303 53.625 101.108L1.14034 41.624C0.831948 41.2745 0.668262 40.8207 0.682566 40.3548C0.69687 39.8889 0.888089 39.4459 1.21734 39.116L28.798 11.5353C29.1416 11.1926 29.607 11.0001 30.0923 11H79.9077Z" fill="url(#paint0_linear_452_1801)"/>
<path d="M53.6213 38.7567L29.865 11.6087C29.8185 11.5557 29.7882 11.4905 29.7778 11.4208C29.7674 11.3511 29.7773 11.2799 29.8063 11.2157C29.8353 11.1515 29.8822 11.097 29.9414 11.0587C30.0006 11.0205 30.0695 11.0001 30.14 11H79.86C79.9305 11.0001 79.9994 11.0205 80.0586 11.0587C80.1178 11.097 80.1647 11.1515 80.1937 11.2157C80.2227 11.2799 80.2326 11.3511 80.2222 11.4208C80.2118 11.4905 80.1815 11.5557 80.135 11.6087L56.3787 38.7567C56.2066 38.953 55.9946 39.1103 55.7568 39.218C55.5191 39.3258 55.261 39.3815 55 39.3815C54.739 39.3815 54.4809 39.3258 54.2432 39.218C54.0054 39.1103 53.7934 38.953 53.6213 38.7567Z" fill="url(#paint1_linear_452_1801)"/>
<path d="M26.9207 41.239C27.6527 40.6003 28.6084 40.2782 29.5777 40.3435C30.5471 40.4088 31.4509 40.8562 32.0907 41.5873L55 67.7673L77.9057 41.5873C78.5472 40.8609 79.4502 40.4179 80.4173 40.3553C81.3845 40.2927 82.337 40.6156 83.0668 41.2533C83.7966 41.891 84.2443 42.7917 84.3119 43.7585C84.3795 44.7253 84.0616 45.6796 83.4277 46.4127L57.761 75.746C57.4168 76.1398 56.9924 76.4555 56.5162 76.6718C56.04 76.888 55.523 76.9999 55 76.9999C54.477 76.9999 53.96 76.888 53.4838 76.6718C53.0076 76.4555 52.5832 76.1398 52.239 75.746L26.5723 46.4127C25.9336 45.6806 25.6115 44.7249 25.6768 43.7556C25.7422 42.7862 26.1895 41.8824 26.9207 41.2427V41.239Z" fill="url(#paint2_linear_452_1801)"/>
<defs>
<linearGradient id="paint0_linear_452_1801" x1="28.325" y1="11" x2="58.85" y2="98.175" gradientUnits="userSpaceOnUse">
<stop stop-color="#D8D8D8"/>
<stop offset="1" stop-color="#7C7C7B"/>
</linearGradient>
<linearGradient id="paint1_linear_452_1801" x1="42.6249" y1="11" x2="53.0749" y2="32.45" gradientUnits="userSpaceOnUse">
<stop stop-color="#B5B5B6"/>
<stop offset="1" stop-color="#D7DADA"/>
</linearGradient>
<linearGradient id="paint2_linear_452_1801" x1="82.775" y1="41.8" x2="36.575" y2="58.85" gradientUnits="userSpaceOnUse">
<stop stop-color="white"/>
<stop offset="1" stop-color="#F0F0F0"/>
</linearGradient>
</defs>
</svg>
