<svg width="110" height="110" viewBox="0 0 110 110" fill="none" xmlns="http://www.w3.org/2000/svg">
<path d="M80.3261 11C80.8114 11.0001 81.2768 11.1926 81.6204 11.5353L109.201 39.116C109.53 39.4459 109.722 39.8889 109.736 40.3548C109.75 40.8207 109.586 41.2745 109.278 41.624L56.7934 101.108C56.6214 101.303 56.4098 101.46 56.1727 101.567C55.9356 101.674 55.6785 101.729 55.4184 101.729C55.1583 101.729 54.9012 101.674 54.6641 101.567C54.427 101.46 54.2155 101.303 54.0434 101.108L1.55874 41.624C1.25035 41.2745 1.08667 40.8207 1.10097 40.3548C1.11527 39.8889 1.30649 39.4459 1.63574 39.116L29.2164 11.5353C29.56 11.1926 30.0254 11.0001 30.5107 11H80.3261Z" fill="url(#paint0_linear_452_1797)"/>
<path d="M53.5475 38.7567L29.7911 11.6087C29.7446 11.5557 29.7144 11.4905 29.704 11.4208C29.6936 11.3511 29.7035 11.2799 29.7325 11.2157C29.7615 11.1515 29.8084 11.097 29.8676 11.0587C29.9267 11.0205 29.9957 11.0001 30.0661 11H79.7862C79.8566 11.0001 79.9256 11.0205 79.9847 11.0587C80.0439 11.097 80.0908 11.1515 80.1198 11.2157C80.1488 11.2799 80.1587 11.3511 80.1483 11.4208C80.1379 11.4905 80.1077 11.5557 80.0611 11.6087L56.3048 38.7567C56.1327 38.953 55.9207 39.1103 55.683 39.218C55.4452 39.3258 55.1872 39.3815 54.9261 39.3815C54.6651 39.3815 54.4071 39.3258 54.1693 39.218C53.9316 39.1103 53.7195 38.953 53.5475 38.7567Z" fill="url(#paint1_linear_452_1797)"/>
<path d="M26.9207 41.239C27.6527 40.6003 28.6084 40.2782 29.5777 40.3435C30.5471 40.4088 31.4509 40.8562 32.0907 41.5873L55 67.7673L77.9057 41.5873C78.5472 40.8609 79.4502 40.4179 80.4173 40.3553C81.3845 40.2927 82.337 40.6156 83.0668 41.2533C83.7966 41.891 84.2443 42.7917 84.3119 43.7585C84.3795 44.7253 84.0616 45.6796 83.4277 46.4127L57.761 75.746C57.4168 76.1398 56.9924 76.4555 56.5162 76.6718C56.04 76.888 55.523 76.9999 55 76.9999C54.477 76.9999 53.96 76.888 53.4838 76.6718C53.0076 76.4555 52.5832 76.1398 52.239 75.746L26.5723 46.4127C25.9336 45.6806 25.6115 44.7249 25.6768 43.7556C25.7422 42.7862 26.1895 41.8824 26.9207 41.2427V41.239Z" fill="url(#paint2_linear_452_1797)"/>
<defs>
<linearGradient id="paint0_linear_452_1797" x1="28.7434" y1="11" x2="59.2684" y2="98.175" gradientUnits="userSpaceOnUse">
<stop stop-color="#E7C6AA"/>
<stop offset="1" stop-color="#BF8A5A"/>
</linearGradient>
<linearGradient id="paint1_linear_452_1797" x1="42.5511" y1="11" x2="53.0011" y2="32.45" gradientUnits="userSpaceOnUse">
<stop stop-color="#DAAD87"/>
<stop offset="1" stop-color="#F0D3B6"/>
</linearGradient>
<linearGradient id="paint2_linear_452_1797" x1="82.775" y1="41.8" x2="36.575" y2="58.85" gradientUnits="userSpaceOnUse">
<stop stop-color="white"/>
<stop offset="1" stop-color="#F6E7D7"/>
</linearGradient>
</defs>
</svg>
