<svg width="89" height="88" viewBox="0 0 89 88" fill="none" xmlns="http://www.w3.org/2000/svg">
<circle cx="44.5" cy="44" r="44" fill="#E39D35"/>
<path d="M60 40C60 46.808 55.748 52.622 49.756 54.934H38.244C32.252 52.622 28 46.808 28 40C28 31.163 35.163 24 44 24C52.837 24 60 31.163 60 40Z" stroke="#F5F5F5" stroke-width="4" stroke-linecap="round" stroke-linejoin="round"/>
<path d="M40 60H48" stroke="#F5F5F5" stroke-width="4" stroke-linecap="round" stroke-linejoin="bevel"/>
<path d="M42 65V65C43.259 65.6295 44.741 65.6295 46 65V65" stroke="#F5F5F5" stroke-width="4" stroke-linecap="round" stroke-linejoin="bevel"/>
<path d="M67.8173 34.5719C67.7674 34.6804 67.6804 34.7674 67.5719 34.8173L65.9879 35.5457C65.5997 35.7242 65.5997 36.2758 65.9879 36.4543L67.5719 37.1827C67.6804 37.2326 67.7674 37.3196 67.8173 37.4281L68.5457 39.0121C68.7242 39.4003 69.2758 39.4003 69.4543 39.0121L70.1827 37.4281C70.2326 37.3196 70.3196 37.2326 70.4281 37.1827L72.0121 36.4543C72.4003 36.2758 72.4003 35.7242 72.0121 35.5457L70.4281 34.8173C70.3196 34.7674 70.2326 34.6804 70.1827 34.5719L69.4543 32.9879C69.2758 32.5997 68.7242 32.5997 68.5457 32.9879L67.8173 34.5719ZM62.5451 31.0031C62.723 31.393 63.277 31.393 63.4549 31.0031L64.8025 28.0498C64.8525 27.9403 64.9403 27.8525 65.0498 27.8025L68.0031 26.4549C68.393 26.277 68.393 25.723 68.0031 25.5451L65.0498 24.1975C64.9403 24.1475 64.8525 24.0597 64.8025 23.9502L63.4549 20.9969C63.277 20.607 62.723 20.607 62.5451 20.9969L61.1975 23.9502C61.1475 24.0597 61.0597 24.1475 60.9502 24.1975L57.9969 25.5451C57.607 25.723 57.607 26.277 57.9969 26.4549L60.9502 27.8025C61.0597 27.8525 61.1475 27.9403 61.1975 28.0498L62.5451 31.0031Z" fill="#F5F5F5"/>
</svg>
