<svg width="120" height="121" viewBox="0 0 120 121" fill="none" xmlns="http://www.w3.org/2000/svg">
<path d="M59.5004 46.1569C60.485 46.1569 61.4292 46.548 62.1254 47.2442C62.8216 47.9404 63.2128 48.8847 63.2128 49.8693V64.719C63.2128 65.7036 62.8216 66.6478 62.1254 67.344C61.4292 68.0403 60.485 68.4314 59.5004 68.4314C58.5158 68.4314 57.5715 68.0403 56.8753 67.344C56.1791 66.6478 55.7879 65.7036 55.7879 64.719V49.8693C55.7879 49.3818 55.884 48.899 56.0705 48.4486C56.2571 47.9982 56.5306 47.589 56.8753 47.2442C57.22 46.8995 57.6293 46.626 58.0797 46.4395C58.5301 46.2529 59.0128 46.1569 59.5004 46.1569ZM56.8757 73.2316C57.5718 72.5354 58.5159 72.1444 59.5004 72.1444C60.4848 72.1444 61.4289 72.5354 62.125 73.2316C62.8211 73.9277 63.2122 74.8718 63.2122 75.8562C63.2122 76.8407 62.8211 77.7848 62.125 78.4809C61.4289 79.177 60.4848 79.5681 59.5004 79.5681C58.5159 79.5681 57.5718 79.177 56.8757 78.4809C56.1796 77.7848 55.7885 76.8407 55.7885 75.8562C55.7885 74.8718 56.1796 73.9277 56.8757 73.2316ZM59.5004 30.9248C58.2047 30.9248 57.0056 31.6005 56.33 32.7031L24.9229 85.1336C24.5992 85.6918 24.4267 86.3248 24.4224 86.97C24.4182 87.6153 24.5825 88.2505 24.8989 88.8129C25.2153 89.3753 25.673 89.8453 26.2267 90.1767C26.7804 90.508 27.411 90.6892 28.0562 90.7022H90.9037C91.5468 90.6952 92.1771 90.5212 92.7328 90.1972C93.2885 89.8733 93.7504 89.4106 94.0734 88.8544C94.3964 88.2982 94.5694 87.6676 94.5754 87.0245C94.5814 86.3813 94.4201 85.7476 94.1075 85.1855L62.6745 32.7105C62.3434 32.1652 61.8774 31.7145 61.3214 31.4017C60.7655 31.0889 60.1383 30.9247 59.5004 30.9248ZM59.5004 23.5C63.3947 23.5 67.0032 25.5344 69.0338 28.8793L100.508 81.4249C101.482 83.1119 101.996 85.025 102 86.9731C102.004 88.9212 101.496 90.8361 100.528 92.5268C99.5605 94.2175 98.1662 95.6247 96.4845 96.6081C94.8028 97.5914 92.8926 98.1164 90.9445 98.1307H28.0153C26.0656 98.1094 24.1557 97.5766 22.4765 96.5855C20.7973 95.5945 19.4078 94.18 18.4467 92.4834C17.4857 90.7869 16.9869 88.8678 17.0003 86.918C17.0136 84.9682 17.5386 83.0561 18.5227 81.3729L49.9669 28.8793C50.9592 27.2385 52.3579 25.8813 54.0279 24.939C55.698 23.9967 57.5828 23.5011 59.5004 23.5Z" fill="#EF892A" stroke="#EF892A" stroke-width="0.6"/>
</svg>
