<svg width="301" height="293" viewBox="0 0 301 293" fill="none" xmlns="http://www.w3.org/2000/svg">
<path d="M202.089 16.429L123.321 3.2146L39.4353 45.7726L0.828613 145.982L34.1236 234.077L102.981 278.125L177.215 289.008L259.675 246.385L297.958 146.046L266.606 60.2178L202.089 16.429Z" stroke="#363636" stroke-width="0.62599" stroke-miterlimit="10"/>
<path d="M265.699 97.918L202.089 16.4294L39.4355 45.7731L38.8525 103.035L43.5812 197.868L102.916 278.126L204.421 260.766L259.61 246.321L268.031 194.176L266.541 99.2783L265.634 58.2101" stroke="#363636" stroke-width="0.62599" stroke-miterlimit="10"/>
<path d="M202.088 16.4294L185.57 76.8009L266.605 99.2783L297.957 145.982L268.095 194.176" stroke="#363636" stroke-width="0.62599" stroke-miterlimit="10"/>
<path d="M177.214 289.008L204.485 260.765L266.605 194.175" stroke="#363636" stroke-width="0.62599" stroke-miterlimit="10"/>
<path d="M266.605 99.2777L207.529 169.236L185.57 76.8003" stroke="#363636" stroke-width="0.62599" stroke-miterlimit="10"/>
<path d="M266.605 193.528L209.278 169.949" stroke="#363636" stroke-width="0.62599" stroke-miterlimit="10"/>
<path d="M204.485 260.766L207.53 169.949" stroke="#363636" stroke-width="0.62599" stroke-miterlimit="10"/>
<path d="M34.1236 234.078L41.8968 197.22L0.828613 145.982L38.9171 102.971" stroke="#363636" stroke-width="0.62599" stroke-miterlimit="10"/>
<path d="M43.6462 197.868L128.503 221.252L207.53 169.237L102.981 128.687L44.7474 197.868" stroke="#363636" stroke-width="0.62599" stroke-miterlimit="10"/>
<path d="M102.981 278.126L128.244 222.742L203.125 260.766" stroke="#363636" stroke-width="0.62599" stroke-miterlimit="10"/>
<path d="M37.1683 104.978L54.0102 92.9947L123.321 4.70459" stroke="#363636" stroke-width="0.62599" stroke-miterlimit="10"/>
<path d="M102.98 128.687L184.08 76.8008L98.8342 35.927" stroke="#363636" stroke-width="0.62599" stroke-miterlimit="10"/>
<path d="M268.744 58.2745C268.744 56.5903 267.383 55.23 265.699 55.23C264.015 55.23 262.655 56.5903 262.655 58.2745C262.655 59.9587 264.015 61.319 265.699 61.319C267.383 61.319 268.744 59.9587 268.744 58.2745Z" fill="#565656"/>
<path d="M269.65 99.2775C269.65 97.5933 268.289 96.233 266.605 96.233C264.921 96.233 263.561 97.5933 263.561 99.2775C263.561 100.962 264.921 102.322 266.605 102.322C268.289 102.322 269.65 100.962 269.65 99.2775Z" fill="#565656"/>
<path d="M301.001 145.982C301.001 144.298 299.64 142.938 297.956 142.938C296.272 142.938 294.912 144.298 294.912 145.982C294.912 147.666 296.272 149.027 297.956 149.027C299.64 149.027 301.001 147.666 301.001 145.982Z" fill="#565656"/>
<path d="M271.14 194.175C271.14 192.491 269.779 191.131 268.095 191.131C266.411 191.131 265.051 192.491 265.051 194.175C265.051 195.86 266.411 197.22 268.095 197.22C269.779 197.22 271.14 195.86 271.14 194.175Z" fill="#565656"/>
<path d="M262.718 246.32C262.718 244.636 261.358 243.275 259.674 243.275C257.99 243.275 256.629 244.636 256.629 246.32C256.629 248.004 257.99 249.364 259.674 249.364C261.358 249.364 262.718 248.004 262.718 246.32Z" fill="#565656"/>
<path d="M207.531 260.765C207.531 259.081 206.171 257.721 204.487 257.721C202.802 257.721 201.442 259.081 201.442 260.765C201.442 262.45 202.802 263.81 204.487 263.81C206.171 263.81 207.531 262.45 207.531 260.765Z" fill="#565656"/>
<path d="M180.259 289.008C180.259 287.323 178.899 285.963 177.215 285.963C175.531 285.963 174.17 287.323 174.17 289.008C174.17 290.692 175.531 292.052 177.215 292.052C178.899 292.052 180.259 290.692 180.259 289.008Z" fill="#565656"/>
<path d="M106.024 278.125C106.024 276.441 104.664 275.081 102.98 275.081C101.296 275.081 99.9353 276.441 99.9353 278.125C99.9353 279.81 101.296 281.17 102.98 281.17C104.664 281.17 106.024 279.81 106.024 278.125Z" fill="#565656"/>
<path d="M37.1676 234.077C37.1676 232.393 35.8073 231.033 34.1231 231.033C32.4389 231.033 31.0786 232.393 31.0786 234.077C31.0786 235.762 32.4389 237.122 34.1231 237.122C35.8073 237.122 37.1676 235.762 37.1676 234.077Z" fill="#565656"/>
<path d="M46.6896 197.867C46.6896 196.183 45.3293 194.823 43.6451 194.823C41.9609 194.823 40.6006 196.183 40.6006 197.867C40.6006 199.551 41.9609 200.912 43.6451 200.912C45.3293 200.912 46.6896 199.551 46.6896 197.867Z" fill="#565656"/>
<path d="M131.742 221.252C131.742 219.568 130.381 218.207 128.697 218.207C127.013 218.207 125.653 219.568 125.653 221.252C125.653 222.936 127.013 224.296 128.697 224.296C130.381 224.296 131.742 222.936 131.742 221.252Z" fill="#565656"/>
<path d="M41.9608 103.035C41.9608 101.351 40.6005 99.991 38.9163 99.991C37.2321 99.991 35.8718 101.351 35.8718 103.035C35.8718 104.72 37.2321 106.08 38.9163 106.08C40.6005 106.08 41.9608 104.72 41.9608 103.035Z" fill="#565656"/>
<path d="M42.5438 45.7726C42.5438 44.0884 41.1835 42.7281 39.4993 42.7281C37.8151 42.7281 36.4548 44.0884 36.4548 45.7726C36.4548 47.4568 37.8151 48.8171 39.4993 48.8171C41.1835 48.8171 42.5438 47.4568 42.5438 45.7726Z" fill="#565656"/>
<path d="M188.616 76.801C188.616 75.1168 187.255 73.7565 185.571 73.7565C183.887 73.7565 182.527 75.1168 182.527 76.801C182.527 78.4852 183.887 79.8455 185.571 79.8455C187.255 79.9102 188.616 78.4852 188.616 76.801Z" fill="#565656"/>
<path d="M210.574 169.236C210.574 167.552 209.214 166.192 207.53 166.192C205.845 166.192 204.485 167.552 204.485 169.236C204.485 170.92 205.845 172.281 207.53 172.281C209.214 172.281 210.574 170.92 210.574 169.236Z" fill="#565656"/>
<path d="M126.364 3.21465C126.364 1.53047 125.004 0.170166 123.319 0.170166C121.635 0.170166 120.275 1.53047 120.275 3.21465C120.275 4.89884 121.635 6.25914 123.319 6.25914C125.004 6.25914 126.364 4.89884 126.364 3.21465Z" fill="#565656"/>
<path d="M205.134 16.4294C205.134 14.7453 203.774 13.3849 202.089 13.3849C200.405 13.3849 199.045 14.7453 199.045 16.4294C199.045 18.1136 200.405 19.4739 202.089 19.4739C203.774 19.4739 205.134 18.1136 205.134 16.4294Z" fill="#565656"/>
<g clip-path="url(#clip0_2230_6251)">
<path d="M91.9142 205.004C96.6853 196.314 97.5301 183.602 93.2561 170.891C89.8766 160.86 84.0122 152.717 77.2035 147.751L74.4204 136.927C73.178 137.373 71.9355 137.82 70.6434 138.267C66.8663 139.608 63.0892 140.949 59.3121 142.289C58.5667 142.538 57.8212 142.836 57.026 143.084C56.1811 143.382 55.386 143.63 54.5908 144.027C53.4974 144.524 52.4538 145.12 51.5095 145.815C49.5216 147.255 47.8318 149.042 46.4403 151.078C44.9493 153.263 43.8063 155.647 42.9614 158.129C42.0171 160.86 41.4705 163.74 41.1723 166.571C40.8741 169.699 40.9238 172.877 41.222 176.005C41.5699 179.382 42.2656 182.709 43.2596 185.936C43.4087 186.433 43.5578 186.929 43.7566 187.426C50.2671 206.841 66.2202 219.056 79.6884 215.233C83.0679 214.289 86.2486 212.849 89.5287 211.658C90.7712 211.211 92.0136 210.764 93.2561 210.317C93.2561 210.267 91.9142 205.004 91.9142 205.004Z" fill="#383838" stroke="black" stroke-width="1.25198" stroke-miterlimit="10" stroke-linecap="round" stroke-linejoin="round"/>
<path d="M90.5227 210.962C77.7502 210.962 64.8783 199.095 59.163 182.113C52.4538 162.102 58.3182 141.991 72.2337 137.324C74.1719 136.678 76.2095 136.331 78.2969 136.331C91.0693 136.331 103.941 148.198 109.657 165.18C112.887 174.863 113.334 184.844 110.899 193.235C108.464 201.727 103.345 207.685 96.5859 209.92C94.6476 210.664 92.61 210.962 90.5227 210.962Z" fill="white"/>
<path d="M78.297 136.877C90.5228 136.877 103.444 148.397 109.16 165.379C115.819 185.191 110.104 204.954 96.4369 209.522C94.4987 210.168 92.5107 210.466 90.5228 210.466C78.297 210.466 65.3754 198.946 59.6601 181.964C53.0005 162.151 58.7159 142.389 72.3829 137.82C74.3211 137.175 76.3091 136.877 78.297 136.877ZM78.297 135.884C76.16 135.884 74.0726 136.231 72.0847 136.877C65.1766 139.211 59.9583 145.219 57.4734 153.909C54.9885 162.449 55.4358 172.529 58.7159 182.262C61.5487 190.703 66.1209 197.953 71.9853 203.315C77.7503 208.579 84.3105 211.459 90.5228 211.459C92.6598 211.459 94.7471 211.111 96.7351 210.466C103.643 208.132 108.861 202.124 111.346 193.434C113.831 184.893 113.384 174.813 110.104 165.081C107.271 156.64 102.699 149.39 96.8345 144.027C91.1192 138.764 84.5093 135.884 78.297 135.884Z" fill="black"/>
<path d="M94.8464 159.966C93.7034 155.646 90.6718 155.398 87.0438 156.59L85.9007 150.383L83.1673 151.624L84.3104 157.682C83.6146 157.98 82.8691 158.377 82.1734 158.725L81.0303 152.667L78.2969 153.908L79.44 160.115C78.8436 160.364 78.2472 160.662 77.7502 160.96V160.91L73.9731 162.598L74.7186 166.62C74.7186 166.62 76.7066 165.627 76.7066 165.726C77.8496 165.23 78.3466 165.975 78.5454 166.67L79.8375 173.721C79.8872 173.671 80.0363 173.671 80.1357 173.622C80.0363 173.671 79.9369 173.721 79.8375 173.721L81.6764 183.602C81.7261 184.099 81.6764 184.943 80.8812 185.291C80.9309 185.34 78.8933 186.184 78.8933 186.184L79.1915 190.951L82.72 189.362C83.3661 189.064 84.0122 188.766 84.6583 188.518L85.7516 194.775L88.4851 193.533L87.342 187.326C88.0875 186.979 88.8329 186.681 89.5287 186.333L90.6718 192.491L93.4052 191.249L92.2621 184.993C96.7847 182.56 99.7169 179.481 98.9714 173.373C98.4247 168.457 96.3871 167.017 93.604 167.365C95.0452 165.528 95.6913 163.095 94.8464 159.966ZM93.5046 175.111C94.3991 179.779 88.4851 181.864 86.6462 182.758L85.1553 174.416C86.9444 173.572 92.61 170.195 93.5046 175.111ZM90.0754 163.939C90.8706 168.209 85.9504 169.848 84.3601 170.593L82.9685 163.095C84.5589 162.35 89.2305 159.47 90.0754 163.939Z" fill="#060606"/>
<path d="M178.461 87.6037C183.756 70.8111 175.187 53.1495 159.323 48.1555C143.458 43.1616 126.304 52.7263 121.009 69.519C115.714 86.3117 124.282 103.973 140.147 108.967C156.012 113.961 173.165 104.396 178.461 87.6037Z" fill="#383838" stroke="black" stroke-width="1.25198" stroke-miterlimit="10"/>
<path d="M169.629 84.2083C174.792 67.8342 167.539 50.9595 153.428 46.5176C139.317 42.0758 123.692 51.7489 118.529 68.1231C113.366 84.4973 120.619 101.372 134.73 105.814C148.841 110.256 164.465 100.583 169.629 84.2083Z" fill="white" stroke="black" stroke-width="1.25198" stroke-miterlimit="10"/>
<path d="M151.252 81.6599L139.822 86.2282L132.069 75.2048L137.237 97.1027L151.252 81.6599Z" fill="#060606"/>
<path d="M140.37 83.7455L151.8 79.1276L147.377 53.9028L132.667 72.6724L140.37 83.7455Z" fill="#060606"/>
<path d="M101.703 90.8464C101.654 90.8464 101.654 90.8464 101.604 90.8464L94.6463 87.5692C94.5469 87.5195 94.4972 87.4202 94.4972 87.3209V78.4326C94.4972 78.3333 94.5469 78.2837 94.5966 78.234C94.6463 78.1843 94.696 78.1843 94.7457 78.1843C94.7954 78.1843 94.7954 78.1843 94.8451 78.1843L101.803 81.5609C101.902 81.6106 101.952 81.7099 101.952 81.8092V90.5981C101.952 90.6975 101.902 90.7471 101.853 90.7968C101.803 90.7968 101.753 90.8464 101.703 90.8464Z" fill="white"/>
<path d="M94.746 78.4327L101.704 81.8092V90.5982L94.746 87.321V78.4327ZM94.746 77.9361C94.6466 77.9361 94.5472 77.9858 94.4975 78.0354C94.3484 78.1347 94.249 78.2837 94.249 78.4327V87.321C94.249 87.5196 94.3484 87.6685 94.5472 87.7679L101.505 91.0451C101.555 91.0948 101.654 91.0948 101.704 91.0948C101.803 91.0948 101.903 91.0451 101.952 90.9954C102.101 90.8961 102.201 90.7472 102.201 90.5982V81.8092C102.201 81.6106 102.101 81.4616 101.903 81.3623L94.9448 77.9858C94.8951 77.9361 94.8454 77.9361 94.746 77.9361Z" fill="#060606"/>
<path d="M101.708 90.8464C101.658 90.8464 101.608 90.8464 101.559 90.7967C101.509 90.7471 101.459 90.6478 101.459 90.5981V81.8091C101.459 81.7098 101.509 81.6105 101.608 81.6105L108.417 78.0353C108.467 78.0353 108.517 77.9857 108.517 77.9857C108.566 77.9857 108.616 77.9857 108.666 78.0353C108.715 78.085 108.765 78.1843 108.765 78.234V87.2712C108.765 87.3705 108.715 87.4698 108.616 87.4698L101.807 90.8464C101.807 90.8464 101.758 90.8464 101.708 90.8464Z" fill="black"/>
<path d="M108.515 78.1845V87.2218L101.707 90.5983V81.8093L108.515 78.1845ZM108.515 77.688C108.416 77.688 108.366 77.688 108.267 77.7376L101.458 81.3128C101.309 81.4121 101.21 81.5611 101.21 81.7597V90.5487C101.21 90.6976 101.309 90.8962 101.458 90.9459C101.557 90.9956 101.607 91.0452 101.707 91.0452C101.806 91.0452 101.856 91.0452 101.905 90.9956L108.714 87.619C108.863 87.5197 109.012 87.3707 109.012 87.1721V78.1845C109.012 77.9859 108.913 77.8369 108.764 77.7376C108.714 77.7376 108.615 77.688 108.515 77.688Z" fill="#060606"/>
<path d="M101.703 82.0574C101.654 82.0574 101.654 82.0574 101.604 82.0574L94.6463 78.6808C94.5469 78.6311 94.4972 78.5318 94.4972 78.4822C94.4972 78.3829 94.5469 78.2836 94.6463 78.2339L101.604 74.5594C101.654 74.5594 101.703 74.5098 101.703 74.5098C101.753 74.5098 101.803 74.5098 101.803 74.5594L108.612 77.9856C108.711 78.0353 108.761 78.1346 108.761 78.1842C108.761 78.2339 108.711 78.3829 108.612 78.3829L101.803 81.958C101.803 82.0077 101.753 82.0574 101.703 82.0574Z" fill="#B0F127"/>
<path d="M101.704 74.758L108.512 78.1842L101.704 81.7594L94.746 78.3829L101.704 74.758ZM101.704 74.2615C101.604 74.2615 101.555 74.2615 101.455 74.3111L94.4975 77.9856C94.3484 78.0849 94.249 78.2339 94.249 78.4325C94.249 78.6311 94.3484 78.7801 94.5472 78.8794L101.505 82.256C101.555 82.3056 101.654 82.3056 101.704 82.3056C101.803 82.3056 101.853 82.3056 101.952 82.256L108.761 78.6808C108.91 78.5815 109.009 78.4325 109.009 78.2339C109.009 78.0353 108.91 77.8863 108.761 77.787L101.952 74.3608C101.853 74.3111 101.803 74.2615 101.704 74.2615Z" fill="#060606"/>
<path d="M23.0326 191.299C25.8048 191.299 28.0521 189.054 28.0521 186.284C28.0521 183.514 25.8048 181.269 23.0326 181.269C20.2604 181.269 18.0131 183.514 18.0131 186.284C18.0131 189.054 20.2604 191.299 23.0326 191.299Z" fill="#B0F127" stroke="black" stroke-width="1.25198" stroke-miterlimit="10"/>
<path d="M31.5399 199.458L28.7719 198.79C28.4881 198.72 28.2713 198.905 28.1898 199.081C28.1464 199.175 28.1246 199.295 28.1573 199.419C28.1923 199.551 28.2824 199.659 28.4086 199.722L28.4086 199.722L28.4126 199.724L31.0948 201.016L30.3353 203.625L30.3351 203.625L30.3322 203.636C30.2609 203.921 30.4462 204.138 30.6228 204.22C30.7166 204.263 30.8365 204.285 30.9603 204.252C31.091 204.218 31.1981 204.129 31.2616 204.005L32.5224 201.626L35.7539 202.718L35.7552 202.718C35.8605 202.753 35.9804 202.753 36.09 202.696C36.1944 202.642 36.2583 202.554 36.29 202.469C36.3428 202.328 36.3342 202.076 36.1118 201.952L33.3661 200.202L34.219 196.888L34.2289 196.85V196.81C34.2289 196.627 34.1317 196.454 33.9583 196.38C33.8743 196.344 33.7718 196.333 33.6702 196.366C33.5732 196.399 33.4967 196.466 33.4486 196.549L31.5399 199.458Z" fill="#F5F5F5" stroke="black" stroke-width="0.62599" stroke-miterlimit="10"/>
<path d="M166.253 139.608C167.276 139.608 168.106 138.779 168.106 137.756C168.106 136.732 167.276 135.903 166.253 135.903C165.229 135.903 164.399 136.732 164.399 137.756C164.399 138.779 165.229 139.608 166.253 139.608Z" fill="#F5F5F5" stroke="black" stroke-width="0.62599" stroke-miterlimit="10"/>
<path d="M254.674 76.797L254.655 76.8065L254.637 76.8185L251.749 78.7901L249.495 77.1812C249.392 77.0913 249.265 77.0547 249.14 77.0685C249.016 77.0823 248.912 77.1433 248.84 77.2156C248.768 77.2878 248.706 77.3914 248.693 77.5157C248.678 77.6475 248.72 77.7829 248.821 77.888L250.83 80.0864L249.111 82.2338C249.016 82.3375 248.977 82.469 248.991 82.5969C249.005 82.7212 249.066 82.8248 249.138 82.897C249.21 82.9693 249.314 83.0303 249.438 83.0441C249.567 83.0585 249.7 83.0185 249.805 82.9211L251.856 81.1978L254.455 83.4169C254.526 83.4839 254.631 83.5382 254.758 83.5294C254.887 83.5206 254.98 83.4513 255.035 83.3851C255.136 83.2642 255.181 83.0698 255.094 82.8955L255.083 82.8736L255.068 82.8536L253.159 80.1825L255.214 77.4125L255.23 77.3905L255.243 77.366C255.427 76.9968 255.041 76.6134 254.674 76.797Z" fill="#F5F5F5" stroke="black" stroke-width="0.62599" stroke-miterlimit="10"/>
<path d="M156.758 128.073L160.156 127.79C160.294 127.784 160.397 127.707 160.455 127.62C160.509 127.538 160.526 127.449 160.526 127.378C160.526 127.307 160.509 127.217 160.455 127.136C160.399 127.052 160.302 126.978 160.173 126.967L156.947 126.446L156.425 123.075C156.414 122.945 156.339 122.847 156.256 122.791C156.174 122.737 156.085 122.72 156.014 122.72C155.942 122.72 155.853 122.737 155.772 122.791C155.689 122.846 155.616 122.942 155.603 123.069L154.992 126.453L152.254 126.917C152.131 126.925 152.019 126.978 151.938 127.071C151.855 127.167 151.824 127.282 151.824 127.384C151.824 127.584 151.95 127.815 152.21 127.88L152.24 127.888L152.271 127.889L155.221 128.032L155.552 130.728C155.558 130.86 155.61 130.988 155.719 131.078C155.826 131.167 155.954 131.192 156.061 131.185C156.249 131.171 156.516 131.027 156.525 130.721L156.758 128.073Z" fill="#F5F5F5" stroke="black" stroke-width="0.62599" stroke-miterlimit="10"/>
</g>
<path d="M134.333 153.167V184.534L211.039 223.92V192.474L134.333 153.167Z" fill="#B0F127" stroke="#17191A" stroke-width="1.11111" stroke-miterlimit="10"/>
<path d="M139.127 192.474V244.831L211.039 283.824V229.816L139.127 192.474Z" fill="#B0F127" stroke="#17191A" stroke-width="1.11111" stroke-miterlimit="10"/>
<path d="M139.127 187.915V193.732L211.039 229.816V223.92L139.127 187.915Z" fill="#17191A" stroke="#17191A" stroke-width="1.11111" stroke-miterlimit="10"/>
<path d="M282.951 192.474V244.831L211.039 283.824V229.816L282.951 192.474Z" fill="#B0F127" stroke="#17191A" stroke-width="1.11111" stroke-miterlimit="10"/>
<path d="M282.951 187.915V193.732L211.039 229.816V223.92L282.951 187.915Z" fill="#17191A" stroke="#17191A" stroke-width="1.11111" stroke-miterlimit="10"/>
<path d="M287.667 153.167V184.534L211.039 223.92V192.474L287.667 153.167Z" fill="#B0F127" stroke="#17191A" stroke-width="1.11111" stroke-miterlimit="10"/>
<path d="M134.333 153.167L211.039 114.41L287.667 153.167L211.039 192.474L134.333 153.167Z" fill="#B0F127" stroke="#17191A" stroke-width="1.11111" stroke-miterlimit="10"/>
<path d="M166.949 170.226L166.084 200.886L178.423 206.625V175.965L166.949 170.226Z" fill="white" stroke="#17191A" stroke-width="1.11111" stroke-miterlimit="10"/>
<path d="M168.835 209.14L167.971 260.082L180.31 267.158V214.879L168.835 209.14Z" fill="white" stroke="#17191A" stroke-width="1.11111" stroke-miterlimit="10"/>
<path d="M255.679 169.912L256.465 200.886L244.126 206.625L243.969 175.729L255.679 169.912Z" fill="white" stroke="#17191A" stroke-width="1.11111" stroke-miterlimit="10"/>
<path d="M253.714 209.14L254.579 260.082L242.24 267.158V214.879L253.714 209.14Z" fill="white" stroke="#17191A" stroke-width="1.11111" stroke-miterlimit="10"/>
<path d="M167.735 170.54L242.319 130.29L254.815 136.579L178.66 176.279L167.735 170.54Z" fill="white" stroke="#17191A" stroke-width="1.11111" stroke-miterlimit="10"/>
<path d="M255.444 169.676L180.545 129.897L167.971 136.186L243.969 175.73L255.444 169.676Z" fill="white" stroke="#17191A" stroke-width="1.11111" stroke-miterlimit="10"/>
<path d="M208.524 140.431C208.524 140.431 192.884 128.718 184.553 129.19C176.144 129.74 166.948 145.934 170.406 155.997C173.864 166.06 188.168 170.069 188.168 170.069C183.767 167.003 181.409 160.871 181.095 157.491C180.545 151.123 184.396 140.353 189.111 138.938C199.8 135.715 201.45 142.161 201.45 142.161L208.524 140.431Z" fill="white" stroke="#17191A" stroke-width="1.11111" stroke-miterlimit="10" stroke-linejoin="round"/>
<path d="M235.559 106.47C235.559 106.47 245.462 109.457 251.592 116.611C257.172 123.058 250.806 137.287 244.833 141.454C237.76 146.406 228.958 149.708 221.256 153.639C210.567 159.142 200.036 164.802 189.347 170.305C189.111 170.462 188.561 169.912 188.325 169.991C188.325 169.991 184.632 166.767 182.588 161.029L196.42 155.526C198.857 154.189 201.293 152.695 203.808 151.359C204.83 150.809 205.38 150.023 205.144 148.843C204.83 147.114 203.73 145.62 202.708 144.205C201.608 142.633 200.507 140.667 198.778 139.017C197.835 138.152 192.648 131.627 192.648 131.627C192.648 131.627 198.7 134.3 198.464 133.907C201.215 135.479 202.708 137.051 204.83 137.916C209.703 140.039 215.204 140.589 220.47 140.039C222.434 139.881 224.399 139.488 226.285 139.095C232.023 137.759 236.502 131.863 238.703 126.124C241.454 119.127 237.996 113.074 235.559 106.47Z" fill="black" stroke="#17191A" stroke-width="1.11111" stroke-miterlimit="10"/>
<path d="M216.933 152.931C216.933 152.931 230.843 117.004 244.99 111.029C244.99 111.029 239.096 106.627 232.337 105.605C221.727 104.033 208.602 140.431 208.602 140.431L216.933 152.931Z" fill="white" stroke="#17191A" stroke-width="1.11111" stroke-miterlimit="10"/>
<defs>
<clipPath id="clip0_2230_6251">
<rect width="255.156" height="225.356" fill="white" transform="translate(18.1743 36.3744)"/>
</clipPath>
</defs>
</svg>
