<svg width="44" height="44" viewBox="0 0 44 44" fill="none" xmlns="http://www.w3.org/2000/svg">
<g id="chrome">
<path id="Vector" d="M22 40.3333C32.1252 40.3333 40.3333 32.1252 40.3333 22C40.3333 11.8747 32.1252 3.66663 22 3.66663C11.8748 3.66663 3.66666 11.8747 3.66666 22C3.66666 32.1252 11.8748 40.3333 22 40.3333Z" stroke="#F5F5F5" stroke-width="3" stroke-linecap="round" stroke-linejoin="round"/>
<path id="Vector_2" d="M38.8117 14.6666H22" stroke="#F5F5F5" stroke-width="3" stroke-linecap="round" stroke-linejoin="round"/>
<path id="Vector_3" d="M7.24203 11.1093L15.657 25.6659" stroke="#F5F5F5" stroke-width="3" stroke-linecap="round" stroke-linejoin="round"/>
<path id="Vector_4" d="M19.9464 40.2233L28.3431 25.6666" stroke="#F5F5F5" stroke-width="3" stroke-linecap="round" stroke-linejoin="round"/>
<path id="Vector_5" d="M22 29.3333C26.0501 29.3333 29.3333 26.05 29.3333 22C29.3333 17.9499 26.0501 14.6666 22 14.6666C17.9499 14.6666 14.6667 17.9499 14.6667 22C14.6667 26.05 17.9499 29.3333 22 29.3333Z" stroke="#ea4b64" stroke-width="3" stroke-linecap="round" stroke-linejoin="round"/>
</g>
</svg>
