<svg width="24" height="25" viewBox="0 0 24 25" fill="none" xmlns="http://www.w3.org/2000/svg">
<g id="single/improve" clip-path="url(#clip0_442_3105)">
<path id="Vector" fill-rule="evenodd" clip-rule="evenodd" d="M3.13219 11.3077C4.95982 12.3261 7.66133 12.9484 10.7757 12.9484C11.9361 12.9484 13.0391 12.8624 14.061 12.7012L16.1216 10.4493C14.6915 10.9392 12.8462 11.2605 10.7757 11.2605C5.96636 11.2605 2.37235 9.52374 2.37235 7.97476C2.37235 6.42579 5.96636 4.68935 10.7757 4.68935V4.69042C15.4621 4.69042 18.9945 6.33549 19.1721 7.85541L20.4672 9.47985C20.7513 9.00875 20.9029 8.50405 20.9029 7.97512C20.9029 5.14047 16.5484 3.00146 10.7757 3.00146C5.00304 3.00146 0.648926 5.13905 0.648926 7.97476C0.648926 8.81845 1.03435 9.60038 1.7279 10.2826C1.01999 10.9769 0.648926 11.7659 0.648926 12.5866C0.648926 13.4129 1.01865 14.18 1.68545 14.8521C1.00516 15.5362 0.648926 16.3098 0.648926 17.1139C0.648926 19.9485 5.00285 22.0875 10.7754 22.0876C11.6649 22.0876 12.5208 22.0368 13.3322 21.9405C14.0919 21.5051 14.5137 20.7989 14.6994 19.9854C13.5428 20.2443 12.2141 20.3993 10.7768 20.3993C5.96744 20.3993 2.37343 18.6647 2.37343 17.1139C2.37343 16.6232 2.73232 16.1888 3.0732 15.8863C4.90143 16.9244 7.62764 17.5602 10.7757 17.5602L10.7739 17.5592C12.1467 17.5592 13.4391 17.4382 14.612 17.2158C14.4722 16.6229 14.2714 16.0624 14.0433 15.5886C13.0494 15.7671 11.9487 15.8702 10.7757 15.8702C5.96672 15.8702 2.37343 14.1366 2.37343 12.5862C2.37343 12.0674 2.77511 11.6113 3.13219 11.3077Z" fill="#ea4b64"/>
<path id="Vector_2" d="M14 15.4723L18.9667 9L24 15.4723H21.2706C20.646 21.3247 14.834 22 14.834 22C16.9143 21.206 17.076 17.1763 17.05 15.4723H14Z" fill="#ea4b64"/>
</g>
<defs>
<clipPath id="clip0_442_3105">
<rect width="24" height="24" fill="white" transform="translate(0 0.5)"/>
</clipPath>
</defs>
</svg>
