<svg width="160" height="160" viewBox="0 0 160 160" fill="none" xmlns="http://www.w3.org/2000/svg">
<circle cx="80" cy="80" r="80" fill="#042813"/>
<path d="M46.3312 81.0426C44.6774 79.4486 44.6774 76.8642 46.3312 75.2701C47.985 73.6761 50.6663 73.6761 52.3201 75.2701L73.2813 95.4736C74.9351 97.0677 74.9351 99.6521 73.2813 101.246C71.6275 102.84 68.9462 102.84 67.2924 101.246L46.3312 81.0426Z" fill="#00A56E"/>
<path d="M106.433 57.9228C108.087 56.3288 110.768 56.3288 112.422 57.9228C114.076 59.5168 114.076 62.1012 112.422 63.6952L73.4939 101.216C71.8402 102.81 69.1588 102.81 67.505 101.216C65.8512 99.622 65.8512 97.0376 67.505 95.4436L106.433 57.9228Z" fill="#00A56E"/>
</svg>
