<svg width="44" height="44" viewBox="0 0 44 44" fill="none" xmlns="http://www.w3.org/2000/svg">
<g id="user-check">
<path id="Vector" d="M32.0834 40.3333V36.3611C32.0834 34.2541 31.2335 32.2334 29.7207 30.7435C28.2079 29.2536 26.1561 28.4166 24.0167 28.4166H9.90004C7.76063 28.4166 5.70884 29.2536 4.19605 30.7435C2.68325 32.2334 1.83337 34.2541 1.83337 36.3611V40.3333" stroke="#F5F5F5" stroke-width="3" stroke-linecap="round" stroke-linejoin="round"/>
<path id="Vector_2" d="M16.9583 20.1666C21.2615 20.1666 24.75 16.473 24.75 11.9166C24.75 7.36028 21.2615 3.66663 16.9583 3.66663C12.6551 3.66663 9.16663 7.36028 9.16663 11.9166C9.16663 16.473 12.6551 20.1666 16.9583 20.1666Z" stroke="#F5F5F5" stroke-width="3" stroke-linecap="round" stroke-linejoin="round"/>
<path id="Vector_3" d="M30.25 19.7084L34.2222 23.8334L42.1667 15.5834" stroke="#ea4b64" stroke-width="3" stroke-linecap="round" stroke-linejoin="round"/>
</g>
</svg>
